<?xml version="1.0" encoding="utf-8"?>
<!-- Generator: Adobe Illustrator 25.0.0, SVG Export Plug-In . SVG Version: 6.00 Build 0)  -->
<svg version="1.1" id="Lag_1" xmlns="http://www.w3.org/2000/svg" xmlns:xlink="http://www.w3.org/1999/xlink" x="0px" y="0px"
	 viewBox="0 0 100 100" style="enable-background:new 0 0 100 100;" xml:space="preserve">
<style type="text/css">
	.st0{stroke:#000000;stroke-miterlimit:10;}
	.st1{fill:none;stroke:#000000;stroke-miterlimit:10;}
</style>
<g>
	<g>
		<path class="st0" d="M51.7,28.5c-5.5-1-11.1,3-12.1,8.5c-1,5.7,2.9,11.3,8.6,12.3c5.6,0.9,11.1-3,12.1-8.6
			C61.1,35.1,57.1,29.4,51.7,28.5z"/>
		<path class="st1" d="M51.7,76.5c-5.5-1-11.1,3-12.1,8.5c-1,5.7,2.9,11.3,8.6,12.3c5.6,0.9,11.1-3,12.1-8.6
			C61.1,83.1,57.1,77.4,51.7,76.5z"/>
		<path class="st1" d="M75.7,28.5c-5.5-1-11.1,3-12.1,8.5c-1,5.7,2.9,11.3,8.6,12.3c5.6,0.9,11.1-3,12.1-8.6
			C85.1,35.1,81.1,29.4,75.7,28.5z"/>
		<path class="st1" d="M27.7,28.5c-5.5-1-11.1,3-12.1,8.5c-1,5.7,2.9,11.3,8.6,12.3c5.6,0.9,11.1-3,12.1-8.6
			C37.1,35.1,33.1,29.4,27.7,28.5z"/>
		<g>
			<path class="st1" d="M39.7,52.5c-5.5-1-11.1,3-12.1,8.5c-1,5.7,2.9,11.3,8.6,12.3c5.6,0.9,11.1-3,12.1-8.6
				C49.1,59.1,45.1,53.4,39.7,52.5z"/>
			<path class="st1" d="M63.7,52.5c-5.5-1-11.1,3-12.1,8.5c-1,5.7,2.9,11.3,8.6,12.3c5.6,0.9,11.1-3,12.1-8.6
				C73.1,59.1,69.1,53.4,63.7,52.5z"/>
		</g>
	</g>
	<path d="M39.7,2.4c-0.1-0.3,0-0.4,0.3-0.4h0.9c0.2,0,0.3,0.1,0.4,0.2l8.6,19.9c0,0,0,0,0.1,0l8.7-19.9c0-0.1,0.2-0.2,0.4-0.2h0.8
		C60,2,60.2,2.2,60,2.5l-9.8,22c-0.1,0.2-0.2,0.3-0.4,0.3h-0.2c-0.2,0-0.3-0.2-0.4-0.3L39.7,2.4z"/>
</g>
</svg>
