<svg xmlns="http://www.w3.org/2000/svg" viewBox="0 0 378.76 74.35">
  <g id="Lag_2" data-name="Lag 2">
    <g id="Lag_1-2" data-name="Lag 1">
      <path d="M74.18,12.41l-.06.23-.23.41-.17.11-.23.12-1.73,2.25-.24.4-.34.35-.87,1v.06l-.23.4-.17.12-.12.05L68.7,19.28l-.24.41-.11.11-.35.52h-.06l-.4.52-.4.63-.58.7v.11l-.46.7-.69.57-.52.93-.29.34-.47.47-.52.46-.63.63-.58.46-.52.64.12.06-.06.23-.11.17-.24.12-.11.28h-.12v.12l-.52.52-.23.06-1.15,1.32-.41.52-.23.52-.46.35L58,32l-.87,1-.29.29-.58.69-.17.29-.81.86-.4.52L53.8,37l-.34.46-.06.23-.35.52-.17.23-.75.4-.12.35-.4.29-.46.34-.23.12-.52.63-.52.58-.47.64-.69.92-.11.52-.12.11-.58.12-.69.35-2,2h.06V46l-.12.11-.4.23-.87.81c-.29.35-.64.64-1,1l-.17.28-.41.41-.46.34-.12.18-.11.11-.93.87v.11l-.28.23-.06.24-1.16,1-.17.12-.17.23-.64.69-.17.06-.46.35-2.89,2.88-.34.24-1.16,1.15-.4.29-.64.63-.35.18c-.05,0-.05,0-.05,0l-.93,1v.11l-.11.12-.23.05-.12.18-.17.17-.17.23.28-.11.06,0v.06l-.23.23L29.9,61v-.17l-.34.34-.52.29-.41.46-.11.23-.41.41-1,.52a1.46,1.46,0,0,0-.34.29v.05l-.12.06.18-.06.05.06v.29l-.29.12h-.34v-.06l-1.1.92v.52h-.4L24,66l-.06.11-.41.64-.57.35-.46.75-.64.69-.35.12-1,.4-.4.35-.63.23-.75.23-.24.17-1,.64-.87.57-.87.81-.28.29-.64.46-.29.23-.29.75L13.8,74l-.7-.12-.75.12-1.9.23-1.79.12-.06-.06-.17.11H8.26l-.18-.11L8,74.18c-1.5,0-3-.4-4.51-.4l-.4-.18H2.6v-.11l-.06-.12a.76.76,0,0,0-.35-.11c-.17-.12-.17-.41-.46-.76l-.11,0L1,71.93l-.35-.41L.29,70.6v-1L.17,69.1v-.46l.06-.52L0,67.83v-.17l.29-.29v-.23l.06-.41L.4,66.5l.12-.4v-.35l.11-1.21-.11-.46v-.35l.06-.29-.12-.57v-.24l.17-.46.18-.29v-.4l.11-.12L1,60.67l.06-.23.23-1.1v-.05l.11-.23.06-.24.06-.52.06-.11L1.85,57l-.06-.12v-.06l.12-.11v-.52l-.06.11H1.79l-.06-.06.06-.23.12-.11.11.11.06-.34.11-.41.12-.46-.06-.17.06-.46.52-.7v0l.06-.24L2.77,53l.12-.23.17-.29.11-.34.52-1.68.06-.17.35-1.15h.06l.63-2.08V47h.06l.29-.92v-.23l.06-.18-.12.18-.17-.06-.06-.17L5,45.37l.35-.11v.06l.11-.23V45l.06-.12.18-.52-.06-.23-.06-.17.17-.12L6,43.58l.57-1.5.29-1.27L7,40.29l.18-.46L7.39,39l.23-.64.17-.4.47-.69.17-.52.06-.06.17-.58.4-.81c.06-.23.18-.46.29-.75l.17-.63.18-.52.06-.47.52-1.5.11-.52.17-.52-.05-.05h-.06v-.12l.06-.06.17-.57-.23-.81V28.4l.23-.86.58-.7v-.4H11.2v-.06h.12l0-.17V26l.06-.05v-.06l.11-.4.24-.35.11-.23.12-.06v.06l.17-.23L12,24l-.18-.35-.11-.17V23l.29-.46.29-1,.34-.52.41-.17.29.17.23.29c.11-.06.34-.06.46.23a3.12,3.12,0,0,1,.06,1l.05.29.12.63v.58l-.12.12.12.11-.12.23v.29l.18.06-.06.11h-.12l-.17.41-.06.11-.17.06-.06.29-.17.11-.17.18a6.51,6.51,0,0,1-.29.92l0,.29,0,.52-.29.46-.23.35L12,30.08l-.06.11.06.17-.06.12-.06.52-.46.69-.17.41v0l-.06.23-.17.35.29-.06.11.23-.23.35-.06.06H11V33l-.12.23-.17.29v.4l-.12.12-.11.06-.06.17.17.06-.06.23-.28.29-.35.86v.12l-.29.81-.17.58-.64,1.5v.34L7.5,42.55l-.11.52-.17.51,0,.18-.4.86L6.7,45v.23l-.58,1.44-.23.23-.06.35-.23.12v.34l-.17.41-.06.06-.12.4v.11L5,49.3v.11l-.17.52-.06.12-.17.58v0L4.5,51l-.34,1.21h0l.06.7L4,53.51l-.11.23-.29.35a.86.86,0,0,1-.12.41v0l-.17,1.39-.23.46L2.94,57l0,.52-.18.92-.11.12-.17,1c0,.11-.06.34-.12.69l-.12.46.06.64-.11,1v.81l-.06.46L2,64.13v.58l.35.87V66l-.06.17v.46l.06.41v.35l.12-.12.11.17v.23l-.06.06h0l-.06-.17v.17L2.31,68v.12l.06.17v.06l-.06.12v1l.06.23v.47l.29.63L3.17,72l.18.34.06.06.4.35a6.67,6.67,0,0,0,4.56.4L9,72.91l.18-.06.63-.11.23-.06A26.05,26.05,0,0,0,14,71l.58-.35.52-.29.34-.23.35-.17,2-1.21.06-.06.29-.46.17-.18.52-.4.64-.12.05.06.41-.29.29-.23.52-1,.92-.57.46-.24.81-.17.4-.4.06-.12.06.06.87-.75V63.5l.34-.75.75-.52.35-.23.81-.17.17-.06.81-.64c.52-.46,1-.92,1.56-1.32l.28-.47,1.91-1.56,1.85-1.73.75-.63L35,54.21l.52-.47.93-.86.57-.35,1.39-1.38.4-.52.58-.64.81-.58.63-.63L42.72,47l.06-.29.8-.69.23-.17v-.12l.41-.29.17-.29.46-.23.24-.23.23-.35.17-.52.92-.74.64-.41,1-1v-.06l0-.05.12-.24.35-.23c.75-.8,1.5-1.55,2.19-2.36l.46-.46.23-.41.18-.35.23-.05.05-.23.23-.23.12-.18h.29l.11-.11a1.79,1.79,0,0,1,.29-.35l.06-.11.17-.47.29-.17.12-.23.29-.35.11-.23.41-.06.11-.17v.06L55.82,33l.29-.29,1.21-1.44.52-.64.58-.57.4-.47.23-.4.41-.52L60,28l.46-.46.11-.06.18-.23L61,26.9l.23-.23,1.15-1.38.41-.24.11-.17.12-.06L64.65,23l.18-.35.34-.4.18-.12,1.21-1.44.06-.06.11-.35.18-.06v.06l.4-.46.17-.35.46-.57.24-.18,1.27-1.5,0-.11.35-.35.23-.46.17-.29.23-.11.06-.18.23-.29.06-.11.17-.06.29-.52.47-.58.34-.23.12-.05.34-.47-.06-.05.29-.41.06-.17L73,12.7l.86-1,.06-.18.17-.28.18-.12.06-.06,0-.11.23-.29.06-.12h.17l.06-.11.29-.29.06-.12.52-.8.46-.52.4-.41.18-.4.34-.4V7.27l.58-.63.23-.17L78,6.29l.87-1.15L79.09,5l.11-.23.35-.4V4.33L79.78,4l.35-.46V3.52h.05l.18-.23,0-.06L80.47,3l.35-.4.23-.17L82,1.27H82l.52-.75.12-.46L82.84,0H83l.23.23V.4l-.11.23-.29.24-.12.28h-.11v.12L82.09,2,81.91,2l-.57.81-.23.34-.41.52-.06.06-.46.64L80,4.91l-.46.4-.29.35-.81,1.09-.06.12-.23.29-.23.4-.17.29L77.59,8l-.18.12-.52.63-.52.75L76,10.1l-.75.93V11c-.06.06-.12.11-.12.17v.12l-.17.23-.23.17-.18.29h0V12l-.12.11Z" />
      <path
        d="M68.93,54.55l-.58.46-.81.35-.52.12-.29.17,0,.11-.18.12-.75.29-.52.23,0,.12-.18.11-.4.12-.87.46-.34.17-.87.58-.46.17-.35.17-.63.35-.52.23-.35.12-.92.17-.81.4-.69.12-1-.06-.64.18-1.1-.24a2.24,2.24,0,0,1-1.32-.92l-.23-.23,0-.35a3.09,3.09,0,0,1,.18-1.55v-.24l.4-1.15L54.61,54l.12-.41.4-.69.41-.46.11-.24L56,51.9c.11-.18.23-.35.4-.58l.46-.69.18-.41.17-.34.17-.18.18-.57.52-.52.34-.18.23-.34.52-.46,1.1-1.85.29-.87.63-.81.41-.34.23-.47.23-.17.12-.57v-.29l.28-.47.41-.28.17-.12h.12v-.12l.4-.4.4-.23a1,1,0,0,1,.93-.46c.06,0,.11.06.17.11l.17-.11.06-.12.35-.05.46.05.4.29v.29l-.11.63-.4.64-.58.64-.18.17-.23.17h-.11l-.35.12-1,.92-.12.29,0,.11-.81.81a.71.71,0,0,1-.23.23l-.06.35-.52.46-.4.58-.47.46-.11.23-.41.29-.22.41-.12.17-.69.81-.87,1-.4.57-.35.52-.63,1.1a4.18,4.18,0,0,0-.58.69l-.41,1L56,54.5l-.46,1-.35,1.21V57l-.12.69c.12.52.18.57.18.63l.23.12.34-.06H56l.4.06.35-.12.35-.06.23.12h.28l1.22-.29H59c.29-.11.64-.17,1-.29l.29-.17.69-.4.52-.29,1.16-.29.92-.35.52-.11,2-1,.11-.23h.35l1-.51.06-.06.11-.18.47-.23h.17l.17-.23.35-.11.46-.23.58-.35.52-.29.63-.46.18-.18.69-.4.29-.11.23-.18,1.21-.69h.17l.41-.29.29-.11.28-.18c.12,0,.12-.06.18-.06l.29-.28.4-.18.23-.23.41-.23L77,49l.29-.17c.46-.29,1-.63,1.62-1l.11-.23h.18l.17.06.17.34-.17.23-.17.12-.35.17-.12.17-.11,0h-.06v.11l-.75.41h-.17L75.8,50.22l-.52.41-.52.46-.52.17-.35.18c-1.09.74-2.13,1.44-3.11,2l-.23.28-.18.12-.69.23-.17.12-.12.11Zm5-26.55-.46.81-.23.28-.17.24v.05l-.58.12-.52.11-.46.18-.46.34-.06.06-.23.12-.29.46-.58.17-.46.87-.58.17-.23.29-.4.46v.12l-.64.4-.05-.46.23-.17c0-.06.11-.18.11-.35l.7-1-.12-.46.4-.87.18-.35.57-.69.41-.46.11-.06.64-.63.23-.29.46-.29.35-.46h.06l.23-.23h-.12l.29-.12v.12l.4-.41.58-.17.46.46.58.23-.17.64.11.29Z" />
      <path
        d="M76.55,51l.17-.29.06-.06.34-.57.41-.7.63-.92.18-.34,1.21-1.68.29-.46.17-.23.69-1.21.58-.93.52-.86.23-.7v-.34h-.11v-.12l.11-.11-.11-.93L82,39.49l.12-.35.46-1.33,1-.69.63-.12.58.35.12.35v.46l.23-.12-.12.18H85l-.12.11-.12.35c0,.06.06.11.06.17a6.88,6.88,0,0,1-.86,2l-.29,1.56-.46.64-.35.22-.58.81-.34.7-.29.52-.23.57-.47.35-.11.23-.12.35v.11l-.23.12-1.21,1.67-.12.46-.69.87-.35.81-1.21,1.9-.23.46-.63.93v.06l-.12.29-.11,0-.18.35-.23.52a5.88,5.88,0,0,0,.64-.7l.17-.22.06-.06.17-.35.35-.23.17-.17.35-.41.34-.23.52-.52.29-.17c.75-.69,1.5-1.44,2.31-2.14l.29-.34.11-.18.52-.34.35-.29.93-.64.17-.17,1.33-.87.28-.11c.52-.23,1-.52,1.45-.75a4,4,0,0,1,1.9-.46V46l1.1.06.4.46.58.52.17.92v.41l0,.57-.12.7-.06.4v.46L89.77,52v.12l.4.52.17.69.12.12-.12.11-.11.41v.46l.23.4.23.23.46.41A12.74,12.74,0,0,0,94,55.19l1.15-.47.35,0,.75-.29.35-.06,1.1-.4.8-.46L99,53.4l.52-.18,1-.34c.7-.29,1.39-.64,2.08-1l.58-.41.29-.05,1.38-.7.41-.29.46-.4.52-.35,1.61-.69,2-1.15.23-.23.81-.47H111v-.11h.17l.52-.35.12-.11h.34l.18.23v.23l-.18.11-.28.12c-.93.58-1.85,1.21-2.83,1.79l-.46.46-.41.12-.4.23h-.12l-.69.46-.12.11-.23.06c-.06,0-.11.06-.17.12l-.12.11-.28.12H106a20.23,20.23,0,0,1-1.85,1l-.92.52-2.43,1.21-.23.06-.06.06-.75.63-.63.35-.81.11-.87.46-.4.18-.52.11-.69.12-.41.06-.23.11-.23.06-.17.06a13,13,0,0,1-1.39.23l-.75.06-.29.17-.23.06-.46-.12-.34.12-.47-.06h-.11c-.7.06-1.27-.52-1.91-.81a1.38,1.38,0,0,1-.75-.75L88,54.61a5.38,5.38,0,0,1,0-.92v-.58l.23-.69.29-1h-.06l.11-.12.58-2.08h-.06L89,49.07l.23-.41c.11-.86-.06-1.55-.81-1.73-.35-.06-.46-.23-.92-.06l-.58.29-.46.35c-.06,0-.06.06-.12.06l-1.21.81-.11.17-.18.11-.92.93-.46.23-.12.34-1.79,1.33-.23.06-.46.29-.23.06-.23.46-.46.34-.18.12-.46.29-.4.35-.24.17-.23.46-.57.46L77.3,55c-.87.86-1.68,1.73-2.6,2.59l-.23.35-.06-.06-.52.46c-.06,0-.06,0-.11.06l-.06.12-.17.06,0,.11v.12l-.17-.18-.17.23-.29.06-.46-.17-.24-.52V57l.41-1,.29-.34.58-.58.69-.35v-.17h.06l.11.06v-.23l.17-.12.23-.46.29-.75.29-.35.12-.29.86-1.27Z" />
      <path
        d="M122.79,47.91l-.23.47c-.06.11,0,.28-.06.46l-.34.57-.41.58-.52.35-.58.58-.23.28-.28.29-.47.35-.11.06a26.19,26.19,0,0,1-3.41,2.42v.12H116l-.64.4v.06l-.11.11H115c-.06.06-.06.06-.12.06v.17h-.23l-.46.35h-.06l-.29.29-.4.12-.23.28-.41.29-.23.06-.63.06-.23.11-.35.06h-.11c-.93.35-1.74.69-2.54.92l-.24.18-.17.06-.23.28-.17.06-.41-.11h-.4l-1.1-.06-1-.12v0c-.06,0-.17,0-.23,0a3.09,3.09,0,0,1-.86-.23c-.24-.17-1.45-.75-1.51-1.15v-.52l-.17.06-.06-.35.41-1,.4-1,.23-.35.7-.69.4-.29.11-.17,1-.69.86-.87.17-.29.24-.23,1.27-1,.34-.29.29-.06.12-.11.46-.29.12-.17,0,.11,1.39-1,.29-.29.17,0,.52-.35.4-.46.52-.46.81-.29.75-.64.46-.23.52-.29c.58-.34,1.1-.75,1.62-1l-.81-.11a9.09,9.09,0,0,1-1.1.11l-.17.06-.06.06-.17-.06h-.69a15.35,15.35,0,0,1-1.79.17h-.06l-1.33.06-.69-.17-.35-.23-.17-.29.06-.4.46-.7.46-.17.58-.12.58-.05.46.17.86.23a16.08,16.08,0,0,1,2.77.23l.64-.11.92,0,1.1-.17.17.06,1-.12a2.07,2.07,0,0,0,.52-.29l.52-.34.46-.23.18-.06.29-.17.46-.06.52-.06a4.1,4.1,0,0,1,1.21-.06l.4-.06.18.18a1.78,1.78,0,0,1,.63.34l1.62-.17.06-.06.69-.17.87-.06.92-.29.35,0,.57-.06H131l.46-.06.69.06h.06a3.17,3.17,0,0,0,.75-.06c.29,0,.63-.06,1-.06l.23-.05.12-.06h.11l.12.11h.35l.34-.11h.4l.52.06h.12l.4-.06.35.17h.17l.24-.06.46.06.23.06a12.19,12.19,0,0,1,1.61.34l.24.18h.23l.17.23a9,9,0,0,1,1,.63h.12l.17.18.29.11.17.35.23.35v.17L142,43l-.18.4-.52.92-.23.35v.06c-.06.06-.11.11-.11.17l-.23.35-.35.11v-.46l.12-.17v-.12a4.14,4.14,0,0,1,.34-.75l.12-.29.4-1c0-.06-.06-.12-.06-.24l-.17-.28-.58-.29-.46-.35-.87-.23a18.39,18.39,0,0,0-3.81-.29h-.86l-.69.06a11.61,11.61,0,0,0-1.51.17c-2.54.17-4.32.41-6,.64l-.11,0-.52.12-.29.17-.93,0c-.92.11-1.84.28-2.88.4l-.46.17h-.47l-1,.12-.29.17a14.88,14.88,0,0,1,1.5.58h.11l.18.17.11.06.23.17.46.29.7.75.17.41.29.69-.06,1A4.37,4.37,0,0,1,122.79,47.91Zm-1.39-.4v-.35l.24-.52,0-.8v-.06l-.29-.58-.34-.35-.41-.28-.46-.29-.4-.18-.52-.17-.46-.29-.35-.11a.21.21,0,0,1-.12-.06c-.74.46-1.44,1-2.48,1.73l-.52.41-.4.34-2.08,1.21-.58.41-.4.23-1.15.75-.06.06-.29.23-.87.46-.69.46-.63.4-.29.24-.81.57L107,51l-.64.75-.51.69-.29.41c-.06,0-.06.06-.12.06a5,5,0,0,0-.92,1.44v.12l-.06.22-.12.29v.35l-.05.12-.06.17a1.62,1.62,0,0,0,.46,1.1h.12l.34.23c.12,0,.23.06.35.06a8.34,8.34,0,0,0,4.21-.7,22.78,22.78,0,0,0,2.49-.92l0-.12h.18l.69-.34.46-.46,1-.52.23-.06h.12l1.79-1.22.17-.17.12-.06c.46-.34.92-.75,1.38-1.15l.18-.23.11-.17.35-.29.34-.41.18-.29.23,0,.11-.23.18-.18.11-.17h.12A8.86,8.86,0,0,0,121.4,47.51Zm2.26-6.29c-.41-.23-1.16.05-1.74.29Z" />
      <path
        d="M164,56.4c.75-.35,1.5-.75,2.25-1.16l.06-.05,3-1.68.29-.29.46-.28.12-.12.75-.52.29-.06.17-.17,1.21-.69h.29l.23-.18.18-.05.23-.23.34-.24.12.06.29-.29.4-.23.23-.23.41-.29.63-.23.52-.29c.4-.23.81-.52,1.21-.8a.22.22,0,0,1,.18-.06l.17-.23h.17l.18.06.17.23-.06.23-.23.17-.23.06-.17.11-.12.12h-.11c-1.1.75-2.31,1.38-3.47,2.08l-.4.4-.58.23-.4.23a3.5,3.5,0,0,0-.75.46c-.41.23-.75.87-1.16,1.1l-1.38.69-.41.29-.34.17-.76.47-.11.11-.17.12-.52.29-.81.52-.29.23-.75.29-.4.29-.18.11-1.15.81-.35.46-.23.12-.46.46-.06.34-.17.12-.46-.06-.35.17-1,.24-1.1.23-.05-.06-.76.4h-.28l-.12.12-1.33.63h-.17l-.23.12h-.29l-.17.17-.23.12h-.06l-.23.05-.17-.05h-.18l-.17-.12-.23-.11-.87-.29-.23-.06-.29-.52a3.55,3.55,0,0,1-.58-1.33,3.73,3.73,0,0,1,.29-1.9h-.17v-.06h.06L153,57l.06-.23.17-.47.52-.86.35-1.33.35-.58.29-.17.4-.52.29-.52.4-.92h.12l.23-.18.06-.17.17-.35.17,0,.87-1.27.17-.29.52-.75.29-.58,1-1.39.12-.28,2.31-3.18.28-.52.35-.4v-.18L163,41l.23-.29.12-.23.92-1.27.29-.18.17-.34.12-.06.17-.23.06-.12.23-.34.06-.06.17-.23.11-.23.35-.35V37l.06-.34.34-.46.47-.41.28-.35,1-1.38V34l.17-.23.17-.52.18-.11h.17a7.92,7.92,0,0,1,.63-.87l.23-.35.29-.52.35-.4.23-.23.23-.35.23-.17c.06-.06.06-.12.12-.12V30l.23-.29.23-.23v-.23l.23-.23v-.17l.87-1.22.17-.17.11-.29.52-.75.12-.06.35-.46.29-.29,2-2.82.29-.24.8-1.27.41-.34.46-.7.23-.23.69-1.09.12-.18v-.05l.23-.18.06-.11.11-.29.12-.17-.23.17-.06-.12V17.9l.17-.29.29-.06v.23l.23-.4.41-.41.29-.4,0-.23.41-.52,1.09-.7.52-.74.41-.24.11-.11.12-.17V13.8h.06l.11.06.23-.06.23-.23.41-.29.29-.18.11-.23-.06-.11h.18l.06.11.28-.17.18.06.06-.06c.11-.06.11-.17.23-.12h.11l.06-.17v-.17h.17v.06l.29-.06.35.06.23.34.29.58-.47,1-.75.63-.86.58-.23.35-1.21.4-.29.18-.41.63-.81.69-.11.18-.93.92-1.32,2-.58.46-.35.58-.75.81v.06l-.75,1-.4.34L176,25.81l-.75.74-.93,1.28-1.15,1.61-.46.41-2.37,3.46-.41.58-.4.69-.58.58-.63.75L166.67,38l-.06.35-.52.81-.18,0v.24l-.4.17-.06.4-.23.23-.23.18h-.06l-1.09,1.61-.58.81-.12.4,0,.58-.18.23-.46.58-.29.12-.11.52-.47.46-.57.52-.52.92-.29.17-.52.76v.11l-.46.69-.7,1s0,.06-.05.06l-.64,1.1c-.05.06-.11.11-.11.17l-.29.64-.41.75-.28.29-1.45,2.71,0,.63-.12.29-.4.81-.23.23-.12.23-.06.81.12.35.23.23.11.17.18.06.52.29h.46l.81-.23.23-.18.52-.11.17-.12.63-.29,1.1-.4.17-.12.58-.17.35-.23.81-.35.52-.28,1.09-.58,1-.29Z" />
      <path
        d="M193.33,52.07l.06-.12.12-.17,1-1.27.23-.46.17-.17.06-.12.17-.11.69-.76.24-.28v-.12l0,.06.18-.58-.06-.06-.29,0h-.52l-.69.17-1.68.63-.4.12-.29.06-1.67,1h-.06l-.46.28-.41.18-.4.23-1.33.63-1.32.75-.52.23-.87.47-.29.11-.69.41-.35.11-1,.64-.34.23-.35.29-.52.17-.52.23-1.39.75-.11.12-.58.34h-.11v.06h-.52l-.7.29h-.46a2.27,2.27,0,0,1-.57.23l-.24.17-1.15.41-.23.06-.87.34-.11.06-.18.06h-.17l-.35-.06h-.05c-.93.11-1.68-.06-1.91-.69a3.74,3.74,0,0,1,.41-2.54l.23-.7.17-.05.06-.23.23-.35.11-.23.12-.06v.06l.11-.29.41-.58.63-.46.12-.11.46-.76.23-.28.47-.35.69-.58,2.59-2.31v0h.06l.75-.64.18-.17,1-.81.46-.29,1.5-1.1.06-.05.69-.76.29-.28.23-.41.12-.05.4.05.17-.11.41-.12.23-.06.29-.05.23-.18V42l.46-.18,1.85-.92.34-.29.23-.11.47-.12.11.06.12-.06.52-.17h.17l.29-.17.4-.06.35-.12.4-.11.23-.06.58.17.35-.06h.34l.23.06h.12v.06h.23l.17.12.06.11.23.06.12.29V41l-.18.11c0,.17-.23.29-.63.69a.33.33,0,0,1-.41,0l-.63.18-.4.06h-1l-.93-.12V42h-.23v-.06h-.11l-.41.06h-.4l-.81.34-.92.41-1.33.57-.92.41a8.11,8.11,0,0,0-1,.63c-.06.06-.06.06-.06,0l-.52.41-.06.06-.12.05-2.59,1.91-.23.23-.52.58-.41.4-.4.23-.52.29-.17.17-.52.58-.12.12-.11.17-.7.87-.17.11-.12.12-.17.11-.12.23-.17.23h-.11l-.12.29-.23.29-.11.23-.29.29-.29.35-.58.69v.12l.06.34-.06.12V54l-.12.12-.23.17-.17.23-.29.35-.23.34v.12l-.06.12v.34l.12.18.17.28.17.12,1.22-.46.52-.12.8-.29h.06l.29-.05c.75-.29,1.5-.64,2.25-1l.29-.18.41-.23.28-.23h.47c.63-.29,1.32-.58,2-.92l.29-.24.4-.17v-.06l.12,0,.17-.18.23-.06.87-.4.46-.23.4-.23,1.56-.81.4-.29,1.62-.75.35-.11,1-.52.52-.41,1-.52.28-.23.47-.29.29-.23.69-.46.75-.46,1.79-.4h.69L197,46l.4.23.24.17a.67.67,0,0,1,.46.41v.06l.11,0v.24l-.06.17h.12l-.06.11-.06,0-.11.11-.12.18-.11.23-.35.29a1.46,1.46,0,0,1-.29.34l-.4.64-.35.28-.17.06-.69.81-.12.12v.05l-.11.06L195,51l-.12.18-.11.23-.46.63a1.21,1.21,0,0,0-.23.41l-.18.46-.06.06a.78.78,0,0,0-.11.57c0,.18-.06.06.17.12.06,0,.12.06.18.06l.28-.06h.41l.11-.06h.41l.29-.06.11.06c.41-.06.75-.17,1.27-.29l.46-.11.41-.18h.34l2-.57.18-.12.63-.17v0l.75-.23.46-.23.24,0,.23-.18,1.9-.52v-.11l.17.11.52-.17.18-.17,2.77-.81h.29l1.44-.46a.22.22,0,0,1,.17,0h.12l.06.41-.23.17h-.47l-1,.23-.69.35h-.23l-.92.23-.47.17-1.32.64-1,.4-1.1.35-1.27.46-.23.12-.58.23-.29.17-.46.17H200l-.4.18-.46.29L199,54l-.11.12-1.5.52v.11l-.06-.06-.46.18-.06.11-1,.35-.87.29-.29.23,0,.06-.06-.12-.18.06-.11.12-.12-.06,0,.06-.41.11h-.63l-.12-.06h-.4l-.29-.11-.23-.12-.18-.23.06-.29-.06-.23a1.27,1.27,0,0,1,.06-.75l.18-.4.05-.23.41-.52.17-.29.46-.58Z" />
      <path
        d="M303.48,12.41l-.06.23-.23.41-.17.11-.23.12-1.73,2.25-.24.4-.34.35-.87,1v.06l-.23.4-.17.12-.12.05L298,19.28l-.24.41-.11.11-.35.52h-.06l-.4.52-.4.63-.58.7v.11l-.46.7-.69.57-.52.93-.29.34-.47.47-.51.46-.64.63-.58.46-.52.64.12.06-.06.23-.11.17-.24.12-.11.28h-.12v.12l-.51.52-.24.06-1.15,1.32-.41.52-.23.52-.46.35-.34.29-.87,1-.29.29-.58.69-.17.29-.81.86-.4.52L283.1,37l-.34.46-.06.23-.35.52-.17.23-.75.4-.12.35-.4.29-.46.34-.23.12-.52.63-.52.58-.46.64-.7.92-.11.52-.12.11-.58.12-.69.35-2,2h.06V46l-.12.11-.4.23-.87.81c-.29.35-.63.64-1,1l-.17.28-.41.41-.46.34-.12.18-.11.11-.92.87v.11l-.29.23-.06.24-1.16,1-.17.12-.17.23-.64.69-.17.06-.46.35-2.89,2.88-.34.24-1.16,1.15-.4.29-.64.63-.34.18c-.06,0-.06,0-.06,0l-.93,1v.11l-.11.12-.23.05-.12.18-.17.17-.17.23.28-.11.06,0v.06l-.23.23-.29.06v-.17l-.34.34-.52.29-.41.46-.11.23-.41.41-1,.52a1.46,1.46,0,0,0-.34.29v.05l-.12.06.18-.06.05.06v.29l-.28.12h-.35v-.06l-1.1.92v.52H254l-.75.81-.06.11-.4.64-.58.35-.46.75-.64.69-.35.12-1,.4-.41.35-.63.23-.75.23-.24.17-1,.64-.87.57-.87.81-.28.29-.64.46-.29.23-.29.75-.34.12-.7-.12-.75.12-1.9.23L238,74.3l-.06-.06-.17.11h-.17l-.18-.11-.11-.06c-1.5,0-3-.4-4.51-.4l-.4-.18h-.46v-.11l-.06-.12a.76.76,0,0,0-.35-.11c-.17-.12-.17-.41-.46-.76l-.11,0-.64-.52-.34-.41-.35-.92v-1l-.12-.46v-.46l.06-.52-.23-.29v-.17l.29-.29v-.23l.06-.41.06-.23.11-.4v-.35l.12-1.21-.12-.46v-.35l.06-.29-.12-.57v-.24l.18-.46.17-.29v-.4l.11-.12.12-.69.06-.23.23-1.1v-.05l.11-.23.06-.24.06-.52.06-.11.23-1.15-.06-.12v-.06l.12-.11v-.52l-.06.11h-.06l-.06-.06.06-.23.12-.11.11.11.06-.34.11-.41.12-.46-.06-.17.06-.46.52-.7v0l.06-.24-.12-.23.12-.23.17-.29.12-.34.51-1.68.06-.17.35-1.15h.06l.63-2.08V47h.06l.29-.92v-.23l.06-.18-.12.18-.17-.06-.06-.17.17-.24.35-.11v.06l.11-.23V45l.06-.12.18-.52L235,44.1l-.06-.17.17-.12.18-.23.57-1.5.29-1.27.23-.52.18-.46.17-.86.23-.64.17-.4.47-.69.17-.52.06-.06.17-.58.4-.81c.06-.23.18-.46.29-.75l.17-.63.18-.52.06-.47.52-1.5.11-.52.17-.52-.05-.05h-.06v-.12l.06-.06.17-.57-.23-.81V28.4l.23-.86.58-.7v-.4h-.06v-.06h.12l0-.17V26l.06-.05v-.06l.12-.4.23-.35.11-.23.12-.06v.06l.17-.23-.17-.75-.17-.35-.12-.17V23l.29-.46.29-1,.34-.52.41-.17.29.17.23.29c.11-.06.34-.06.46.23a3.12,3.12,0,0,1,.06,1l.05.29.12.63v.58l-.12.12.12.11-.12.23v.29l.18.06-.06.11h-.12l-.17.41-.06.11-.17.06-.06.29-.17.11-.17.18a6.51,6.51,0,0,1-.29.92l.05.29-.05.52-.29.46-.23.35-.52,1.33-.06.11.06.17-.06.12-.06.52-.46.69-.17.41v0l-.06.23-.17.35.29-.06.11.23-.23.35-.06.06h-.11V33l-.12.23-.17.29v.4l-.12.12-.11.06-.06.17.17.06-.06.23-.28.29-.35.86v.12l-.29.81-.17.58-.64,1.5v.34l-1.33,3.47-.11.52-.17.51,0,.18-.4.86L236,45v.23l-.58,1.44-.23.23-.06.35-.23.12v.34l-.17.41-.06.06-.12.4v.11l-.23.64v.11l-.17.52-.06.12-.17.58v0l-.12.35-.34,1.21h0l.06.7-.23.57-.11.23-.29.35a.86.86,0,0,1-.12.41v0l-.17,1.39-.23.46-.17.58-.06.52-.18.92-.11.12-.17,1c0,.11-.06.34-.12.69l-.12.46.06.64-.11,1v.81l-.06.46-.12.57v.58l.35.87V66l-.06.17v.46l.06.41v.35l.12-.12.11.17v.23l-.06.06h-.05l-.06-.17v.17l-.06.23v.12l.06.17v.06l-.06.12v1l.06.23v.47l.29.63.52,1.16.17.34.06.06.4.35a6.67,6.67,0,0,0,4.56.4l.64-.23.17-.06.63-.11.23-.06A26.05,26.05,0,0,0,243.27,71l.58-.35.52-.29.34-.23.35-.17,2-1.21.06-.06.29-.46.17-.18.52-.4.64-.12.05.06.41-.29.29-.23.52-1,.92-.57.46-.24.81-.17.41-.4.05-.12.06.06.87-.75V63.5l.34-.75.75-.52L255,62l.81-.17.17-.06.81-.64c.52-.46,1-.92,1.56-1.32l.29-.47,1.9-1.56,1.85-1.73.75-.63,1.15-1.21.52-.47.93-.86.57-.35,1.39-1.38.4-.52.58-.64.81-.58.63-.63L272,47l.06-.29.81-.69.23-.17v-.12l.4-.29.17-.29.46-.23.24-.23.23-.35.17-.52.92-.74.64-.41,1-1v-.06l.05-.05.12-.24.35-.23c.75-.8,1.5-1.55,2.19-2.36l.46-.46.23-.41.18-.35.23-.05.06-.23.23-.23.11-.18h.29l.11-.11a1.79,1.79,0,0,1,.29-.35l.06-.11.17-.47.29-.17.12-.23.29-.35.11-.23.41-.06.11-.17v.06L285.12,33l.29-.29,1.21-1.44.52-.64.58-.57.4-.47.23-.4.41-.52.52-.69.46-.46.12-.06.17-.23.29-.35.23-.23,1.15-1.38.41-.24.11-.17.12-.06L294,23l.18-.35.34-.4.18-.12,1.21-1.44.06-.06.11-.35.18-.06v.06l.4-.46.17-.35.46-.57.24-.18,1.27-1.5.05-.11.35-.35.23-.46.17-.29.23-.11.06-.18.23-.29.06-.11.17-.06.29-.52.47-.58.34-.23.12-.05.34-.47-.05-.05.28-.41.06-.17.12-.06.86-1,.06-.18.17-.28.18-.12.06-.06,0-.11.23-.29.06-.12h.18l.05-.11.29-.29.06-.12.52-.8.46-.52.4-.41.18-.4.34-.4V7.27l.58-.63.23-.17.06-.18.87-1.15.23-.12.11-.23.35-.4V4.33l.23-.29.35-.46V3.52h.05l.18-.23,0-.06.06-.23.35-.4.23-.17.92-1.16h.06l.52-.75L312,.06l.17-.06h.17l.23.23V.4l-.11.23-.29.24-.12.28h-.11v.12l-.52.69-.18.06-.57.81-.23.34-.41.52-.05.06-.47.64-.17.52-.46.4-.29.35-.81,1.09-.06.12-.23.29-.23.4-.17.29-.17.17-.18.12-.52.63-.52.75-.34.58-.75.93V11c-.06.06-.12.11-.12.17v.12l-.17.23-.23.17-.18.29h-.05V12l-.12.11Z" />
      <path
        d="M298.23,54.55l-.58.46-.81.35-.52.12-.29.17,0,.11-.18.12-.75.29-.52.23,0,.12-.18.11-.4.12-.87.46-.34.17-.87.58-.46.17-.35.17-.63.35-.52.23-.35.12-.92.17-.81.4-.69.12-1-.06-.63.18-1.1-.24a2.21,2.21,0,0,1-1.32-.92l-.24-.23.06-.35a2.89,2.89,0,0,1,.18-1.55v-.24l.4-1.15.46-1.15.12-.41.4-.69.4-.46.12-.24.35-.28c.11-.18.23-.35.4-.58l.46-.69.18-.41.17-.34.17-.18.18-.57.52-.52.34-.18.23-.34.52-.46,1.1-1.85.29-.87.63-.81.41-.34.23-.47.23-.17.11-.57v-.29l.29-.47.41-.28.17-.12h.12v-.12l.4-.4.4-.23a1,1,0,0,1,.93-.46c.05,0,.11.06.17.11l.17-.11.06-.12.35-.05.46.05.4.29v.29l-.11.63-.41.64-.57.64-.18.17-.23.17h-.11l-.35.12-1,.92-.12.29-.05.11-.81.81c-.06.12-.18.18-.23.23l-.06.35-.52.46-.41.58-.46.46-.11.23-.41.29-.23.41-.11.17-.7.81-.86,1-.4.57-.35.52-.64,1.1a3.74,3.74,0,0,0-.57.69l-.41,1-.11.47-.47,1-.34,1.21V57l-.12.69c.12.52.18.57.18.63l.23.12.34-.06h.18l.4.06.35-.12.34-.06.23.12h.29l1.21-.29h.18c.29-.11.63-.17,1-.29l.29-.17.69-.4.52-.29,1.16-.29.92-.35.52-.11,2-1,.11-.23h.35l1-.51.06-.06.11-.18.46-.23h.18l.17-.23.35-.11.46-.23.58-.35.52-.29.63-.46.17-.18.7-.4.29-.11.23-.18L303,50.8h.17l.41-.29.29-.11.28-.18c.12,0,.12-.06.18-.06l.29-.28.4-.18.23-.23.4-.23.58-.29.29-.17c.46-.29,1-.63,1.62-1l.11-.23h.17l.18.06.17.34-.17.23-.18.12-.34.17-.12.17-.11,0h-.06v.11l-.75.41h-.17l-1.79,1.09-.52.41-.52.46-.52.17-.35.18c-1.1.74-2.13,1.44-3.12,2l-.23.28-.17.12-.69.23-.17.12-.12.11Zm5-26.55-.46.81-.23.28-.17.24v.05l-.58.12-.52.11-.46.18-.46.34-.06.06-.23.12-.29.46-.58.17-.46.87-.58.17-.23.29-.4.46v.12l-.64.4-.06-.46.24-.17c0-.06.11-.18.11-.35l.69-1-.11-.46.4-.87.18-.35.57-.69.41-.46.11-.06.64-.63.23-.29.46-.29.35-.46h.05l.24-.23h-.12l.29-.12v.12l.4-.41.58-.17.46.46.58.23-.17.64.11.29Z" />
      <path
        d="M331.94,59.06l-.52.17-.35.4-.17.23-.58.18-.92.4-.75.4-.35.06-.17.06-.17.17v.12l-.06-.06v-.06h-.23l-.69.35-.52.06c-.12,0-.18.05-.29.05l-.41.06-1-.06L324.2,61l-.05-.12-.41-.57-.46-.87.06-.29-.29-.58.17-1.5a11.14,11.14,0,0,1,.23-1.73v-.23l.12-.35-.06-.06V53.63l.35-1,.06-.41.11-.46.06-.17.11-.17.06-.12a.06.06,0,0,1,.06-.06l-.06-.34.06-.23.23-.35.46-1.21.06-.29.06-.23.11-.23.06.06.29-.58.06-.17v-.06l.06-.29.11-.23.12-.12.05-.11-.11-.12.17-.29v-.17l.23-.58-.23-.75-.06-.23-.23-.58-.17-.23a.13.13,0,0,1-.12-.11l-.28-.47L324,44.57l-.86,1.15-1.33,1-.93.81-.52.52-.11.17-.12.06-1.67,1.67-.17.06-.58.58-.29.23c-.46.35-.87.75-1.27,1.1l-.46.69-.41.52-.75.46-.63.69-.35.24-.46.34-.63.35-.29.23-.41.29-.52.29-1.67,1.09-.06.12-.06.17h-.17l-.46.23-.12-.06a9.7,9.7,0,0,1-4.79,1.68,8.43,8.43,0,0,1-1.5-.58,1.05,1.05,0,0,1-.11-.35h-.06l-.4-.69-.06-1,.11-.75.23-.58.41-.63.05-.35.35-.4.64-1.33v-.11l.23-.41,1.09-1,.35-.34.06-.64.11-.17.29-.23,2.54-2.25h.06c.69-.7,1.44-1.39,2.14-2l0,0,.52-.47.35-.17.81-.58.29-.29.34-.23.52-.29L314,43l.63-.58.12-.06h.11a19.14,19.14,0,0,1,2.08-1l.17-.17.18-.12h.23l.63-.23.64-.46.23-.06h.4a7,7,0,0,0,1-.4,5.11,5.11,0,0,1,2.48.06h.41l.4.17h.41c.11,0,.17.06.23.17l.52,1.21.23-.29.06-.4.52-.11L327,39.49l.29-.47.41-.17,1.38-1.33.75-1,1-1,1-1.1L333,33.19l1.56-1.79v0h0l1-1.16.7-.92.46-.64.29-.23.17-.4.64-.69v-.18l.4-.23.17-.4.58-.64,1.21-1.44.23-.29.06-.12h.06l1.15-1.5.24-.34.22-.23.12-.23.4-.52v-.12L343,21l.11-.28.35-.47,1-1.32.4-.46.23-.35,1-1.27.28-.4,1-1.28.69-.69.29-.34V14l.87-1.15.17-.52.18-.35.69-.35.17-.28.12-.12v-.29l.11-.17v-.12l.18-.29v-.05l.11.05.23-.23h.12V10l.34-.28.41-.12.23-.12.12.06.4-.11.06-.06h.29l.17.06.46,0,.29.52.17.35-.69,1.21-.75.93h.06l.4.17.12.4-.46.47-.64.75-.29.46-.17.06-.12.17-.23-.06-.81.23-.75.23h-.11l-.75.93-.47.46-.34.58-.69.23-.93,1-.46.63-.17.12-.35.46-.46.4-1.44,2-.81,1.15-.87,1-.05.17-.58,1.1-.29.29-.23.4-.41.64-.05-.06-.41.64-.29.69-.11.23-.18.17L338,30.54v.11h-.06l-.46.58v.17l-2,2.66-.23.23-1.1,1.5v.06h-.05c-1.56,2.19-2.78,4-3.35,4.91v.05l-.12.12-.17.23-.17.29v.06l-.12.05a41.77,41.77,0,0,0-2.25,3.93l-.06.06c-.06.11-.11.17-.11.23h0v.11l-.11.18.06.23-.12.57.12.12-.18.12.06,0-.17.12v.29l-.29.81h-.23l-.06.11-.35.46-.05-.06h-.24l-.17.29-.52,1.39h-.06l-.17.46-.11.92-.35.87-.17,1.1L324.44,55l-.24.47-.11.28a2.27,2.27,0,0,0,0,.64c-.12,1.79.4,2.77,1.21,3.23l.46.12.06.06a3.3,3.3,0,0,0,.69.11l.41-.17.81-.18.11-.11.64-.35.34,0h.81a24.82,24.82,0,0,0,3.64-2l.75-.52.4-.23.12-.06.06-.11.11-.12.41-.29.57-.28.7-.41,1.5-1.21.63-.29.92-.75.29-.23.87-.64.29-.11.29-.23.75-.52V51l.17-.11.81-.81.58-.23.52-.29.05-.06,1.5-1.21.12-.12.69-.46.12-.17.05-.06h.18l.11-.12.12-.23.17-.11h.18l.05-.06h.35l.23.4-.17.24-.29,0a.06.06,0,0,0-.06.06h-.06l-4,3.18-.17.28-.18.12-.29.17-.23.12c-1,.75-2,1.44-2.94,2.13l-.92.64-.06.12-.29.11-.35.4-.34.12-3.35,2.25-.29.29-.75.52-.06.06H333l-.35.23-.06.17-.17.06.23-.06v.17l-.23.24h-.23l.06-.29-.06,0ZM307.35,50l-.58.64-.52.46-.29.75-.46.4-.35.58-.17.81.06.69-.12.18v.22l-.4.64-.12.69,0,.93,0,.69.06.17.12.12.34.06h.29l.29-.12a2.19,2.19,0,0,1,.58-.23l.46-.46.52-.35.4-.23.75-.23.7-.35s.11,0,.17-.11c.92-.58,1.79-1.16,2.54-1.73l.06-.12.69-.46a3.11,3.11,0,0,0,.52-.41l.46-.4.23-.35.87-.8.4-.35L315,51l.23-.06.86-.46c1.27-1.15,2.66-2.54,4.45-4.21l1.21-1.1.06-.17.92-1,.52-.58v.11l.41-.23.34-.63.41-.58-.35-.75-.52-.52-.23-.11-.12-.12a8.38,8.38,0,0,0-4.61.87l-1,.57-.47.18-.4.11a2,2,0,0,1-.35.18,19.79,19.79,0,0,0-5.25,3.34l-.75.81-.52.75-.58.52v.12l-.05.17-.52.35-.41.4-.46.52-.23.23h-.06v.17Zm18.47-6.64.06.06.11.17.29.29.12.29.34.06.12.17v.06l.46-.46v-.12h.06l.06-.17h.06v.11h.05l.35-.63.06-.11.11-.29.17-.23.06-.58.18-.12.17-.29.35-.17.17-.35.06,0,.63-1v-.06l.29-.46.46-.69.17-.18c1-1.44,2-2.88,3-4.27-1.27,1.27-3,3.06-4.62,4.79l-.81,1-.4.35h-.12l-2.19,2.42A.65.65,0,0,0,325.82,43.35Z" />
      <path
        d="M361.79,52.07l.06-.12.11-.17,1-1.27.23-.46.17-.17.06-.12.17-.11.7-.76.23-.28v-.12l.06.06.17-.58-.06-.06-.29,0h-.52l-.69.17-1.67.63-.41.12-.29.06-1.67,1h-.06l-.46.28-.4.18-.41.23-1.32.63-1.33.75-.52.23-.87.47-.29.11-.69.41-.35.11-1,.64-.34.23-.35.29-.52.17-.52.23-1.38.75-.12.12-.57.34h-.12v.06H347l-.69.29h-.47a2.27,2.27,0,0,1-.57.23l-.23.17-1.16.41-.23.06-.87.34-.11.06-.17.06h-.18l-.34-.06h-.06c-.92.11-1.67-.06-1.91-.69a3.74,3.74,0,0,1,.41-2.54l.23-.7.17-.05.06-.23.23-.35.12-.23.11-.06v.06l.12-.29.4-.58.64-.46.11-.11.46-.76.23-.28.47-.35.69-.58,2.6-2.31v0h.06l.75-.64.17-.17,1-.81.46-.29,1.5-1.1.06-.05.69-.76L352,43l.23-.41.12-.05.4.05.18-.11.4-.12.23-.06.29-.05.23-.18V42l.46-.18,1.85-.92.34-.29.24-.11.46-.12.11.06.12-.06.52-.17h.17l.29-.17.4-.06.35-.12.4-.11.24-.06.57.17.35-.06h.35l.23.06h.11v.06h.23l.18.12.05.11.23.06.12.29V41l-.17.11c-.06.17-.23.29-.64.69a.32.32,0,0,1-.4,0l-.64.18-.4.06h-1l-.92-.12V42H358v-.06h-.12l-.4.06h-.41l-.81.34-.92.41-1.33.57-.92.41a8.11,8.11,0,0,0-1,.63c-.06.06-.06.06-.06,0l-.52.41-.06.06-.11.05-2.6,1.91-.23.23-.52.58-.4.4-.41.23-.52.29-.17.17-.52.58-.12.12-.11.17-.7.87-.17.11-.11.12-.18.11-.11.23-.18.23h-.11l-.12.29-.23.29-.11.23-.29.29-.29.35-.58.69v.12l.06.34-.06.12V54l-.11.12-.24.17-.17.23-.29.35-.23.34v.12l-.05.12v.34l.11.18.17.28.18.12,1.21-.46.52-.12.81-.29h.06l.28-.05c.75-.29,1.5-.64,2.26-1l.28-.18.41-.23.29-.23h.46c.63-.29,1.33-.58,2-.92l.29-.24.4-.17v-.06l.12,0,.17-.18.23-.06.87-.4.46-.23.41-.23,1.55-.81.41-.29,1.61-.75.35-.11,1-.52.52-.41,1-.52.29-.23.46-.29.29-.23.69-.46.75-.46,1.79-.4H365l.52.11.41.23.23.17a.67.67,0,0,1,.46.41v.06l.11,0v.24l-.05.17h.11l-.06.11-.05,0-.12.11-.11.18-.12.23-.35.29a1.25,1.25,0,0,1-.29.34l-.4.64-.34.28-.18.06-.69.81-.12.12v.05l-.11.06-.35.46-.11.18-.12.23-.46.63a1.41,1.41,0,0,0-.23.41l-.18.46-.05.06a.75.75,0,0,0-.12.57c0,.18-.06.06.17.12.06,0,.12.06.18.06l.29-.06h.4l.12-.06h.4l.29-.06.11.06c.41-.06.76-.17,1.27-.29l.47-.11.4-.18h.35l2-.57.17-.12.64-.17v0l.75-.23.46-.23.23,0,.23-.18L373,51v-.11l.18.11.52-.17.17-.17,2.77-.81H377l1.44-.46a.25.25,0,0,1,.18,0h.11l.06.41-.23.17h-.46l-1,.23-.69.35h-.23l-.92.23-.46.17-1.33.64-1,.4-1.1.35-1.27.46-.23.12-.58.23-.29.17-.46.17h-.06l-.4.18-.46.29-.17.05-.12.12-1.5.52v.11l-.06-.06-.46.18-.06.11-1,.35-.87.29-.29.23-.05.06-.06-.12-.17.06-.12.12-.11-.06-.06.06-.41.11h-.63l-.12-.06H361l-.29-.11-.23-.12-.17-.23,0-.29,0-.23a1.18,1.18,0,0,1,0-.75l.18-.4.06-.23.4-.52.17-.29.46-.58Z" />
    </g>
  </g>
</svg>