<svg xmlns="http://www.w3.org/2000/svg" viewBox="0 0 369.65 503.97"><g id="Lag_2" data-name="Lag 2"><g id="Lag_1-2" data-name="Lag 1"><path d="M95,0a12.49,12.49,0,0,1,2.35,7.83A26.32,26.32,0,0,1,96,16L66.79,111.83l-1.36.8L49.09,45.69,28.91,111.83l-1.36.8L.06,0H10.59L32.75,94.58,48.47,43.14,38,0H48.47L70.63,94.58,94.52,16a25.53,25.53,0,0,0,1.36-8.31A10.77,10.77,0,0,0,94,1Z"/><path d="M109.75,1.6V0h22V1.6h-6.06V110.23h6.06v1.6h-22v-1.6h5.69V1.6Z"/><path d="M150.1,111.83h-1.61V0h4.21l51.5,103.36V0h1.61V111.83h-9L150.1,19.17Z"/><path d="M271.79,0V1.6h-39V49.52H269v1.6H232.8v59.11h41.72v1.6h-52V0Z"/><path d="M300.39,112.45a3.88,3.88,0,0,1-3.14-1.71,6.57,6.57,0,0,1-1.32-4.14,6.4,6.4,0,0,1,1.25-4,3.81,3.81,0,0,1,3.14-1.62,4,4,0,0,1,3.21,1.7,6.87,6.87,0,0,1,0,8.1A3.9,3.9,0,0,1,300.39,112.45Z"/><path d="M326.72,112.45a3.88,3.88,0,0,1-3.13-1.71,6.52,6.52,0,0,1-1.33-4.14,6.35,6.35,0,0,1,1.26-4,3.78,3.78,0,0,1,3.13-1.62,4,4,0,0,1,3.21,1.7,6.87,6.87,0,0,1,0,8.1A3.88,3.88,0,0,1,326.72,112.45Z"/><path d="M353.06,112.45a3.88,3.88,0,0,1-3.14-1.71,6.57,6.57,0,0,1-1.32-4.14,6.4,6.4,0,0,1,1.25-4,3.8,3.8,0,0,1,3.14-1.62,4,4,0,0,1,3.2,1.7,6.83,6.83,0,0,1,0,8.1A3.88,3.88,0,0,1,353.06,112.45Z"/><path d="M1.34,140.07v-.42H7v.42H5.47v28.08H7v.41H1.34v-.41H2.82V140.07Z"/><path d="M23.33,141.39a12.31,12.31,0,0,0-5.49-1.45,5.5,5.5,0,0,0-4,1.41,5.16,5.16,0,0,0-1.44,3.88,5.29,5.29,0,0,0,2.44,4.66,17.87,17.87,0,0,0,2.38,1.3q1.29.6,2.61,1.35a14.76,14.76,0,0,1,2.4,1.69A6.82,6.82,0,0,1,24,156.85a11.53,11.53,0,0,1,.67,4.26,8.16,8.16,0,0,1-1.12,4.39,5.78,5.78,0,0,1-2.7,2.46,9.79,9.79,0,0,1-3.7.64,9.68,9.68,0,0,1-6.72-2.52l.16-.33a8,8,0,0,0,2.74,1.76,9.13,9.13,0,0,0,3.44.68,6.68,6.68,0,0,0,4.43-1.55A5.64,5.64,0,0,0,23,162.08a6.14,6.14,0,0,0-2.43-5.17,18.77,18.77,0,0,0-2.39-1.52q-1.29-.7-2.61-1.47a16.21,16.21,0,0,1-2.4-1.71,8.35,8.35,0,0,1-.86-10.76A5.8,5.8,0,0,1,17,139.57a16.29,16.29,0,0,1,6.42,1.4Z"/><path d="M48.1,168.72q-6,0-8.87-4.37a13.6,13.6,0,0,1-1.66-4.17,26.69,26.69,0,0,1-.64-6.32,21.85,21.85,0,0,1,.94-6.67,10.94,10.94,0,0,1,2.58-4.56,10.69,10.69,0,0,1,7.65-3,11.44,11.44,0,0,1,2.49.27,8.8,8.8,0,0,1,1.83.56l.57.29-.09.41A10.47,10.47,0,0,0,48.1,140a7,7,0,0,0-5.67,2.85,13.31,13.31,0,0,0-2.43,6.2,32.32,32.32,0,0,0-.42,5.66,24.5,24.5,0,0,0,.74,6.17A13.55,13.55,0,0,0,42,165.09a7.39,7.39,0,0,0,2.29,2.17,6.4,6.4,0,0,0,2.14.93,13.31,13.31,0,0,0,1.94.12,12.7,12.7,0,0,0,2.57-.29,20,20,0,0,0,2.18-.53l.74-.29.09.41A14,14,0,0,1,48.1,168.72Z"/><path d="M55.07,154.81q0-7.51,2.83-11.42a8.65,8.65,0,0,1,7.28-3.9,8.54,8.54,0,0,1,7.09,3.38q2.64,3.39,2.64,10.82T72.1,164.93a8.91,8.91,0,0,1-7.52,3.79,8.38,8.38,0,0,1-6.66-3,11,11,0,0,1-2.1-4.36A25.35,25.35,0,0,1,55.07,154.81Zm10-14.91c-2.16,0-3.92,1.24-5.3,3.72s-2.06,6.11-2.06,10.9.65,8.29,2,10.49a5.86,5.86,0,0,0,5.2,3.3c2.16,0,3.94-1.24,5.31-3.74s2.07-6.11,2.07-10.86-.66-8.23-2-10.46S67.24,139.9,65.09,139.9Z"/><path d="M78.69,168.56h-.42V139.65h1.09l13.31,26.72V139.65h.42v28.91H90.75L78.69,144.61Z"/><path d="M109.21,141.39a12.31,12.31,0,0,0-5.48-1.45,5.5,5.5,0,0,0-4,1.41,5.16,5.16,0,0,0-1.44,3.88,5.31,5.31,0,0,0,2.43,4.66,18,18,0,0,0,2.39,1.3c.86.4,1.73.85,2.6,1.35a14.42,14.42,0,0,1,2.41,1.69,6.7,6.7,0,0,1,1.75,2.62,11.52,11.52,0,0,1,.68,4.26,8.25,8.25,0,0,1-1.12,4.39A5.76,5.76,0,0,1,106.7,168a10.45,10.45,0,0,1-10.41-1.88l.16-.33a8,8,0,0,0,2.73,1.76,9.17,9.17,0,0,0,3.44.68,6.69,6.69,0,0,0,4.44-1.55,5.64,5.64,0,0,0,1.84-4.56,6.15,6.15,0,0,0-2.44-5.17,18.64,18.64,0,0,0-2.38-1.52c-.87-.47-1.73-1-2.61-1.47a16.21,16.21,0,0,1-2.4-1.71,8.35,8.35,0,0,1-.86-10.76,5.8,5.8,0,0,1,4.72-1.88,16.21,16.21,0,0,1,6.41,1.4Z"/><path d="M120.48,168.56h-2.66V140.07h-5.53v-.42h13.76v.42h-5.57Z"/><path d="M125.79,168.56h-.38L135,139.65l.35-.2,8.06,29.11h-2.72l-2.49-9.09h-9.35ZM134,144.11l-5,14.95h9.12Z"/><path d="M146.53,168.56h-.42V139.65h1.09l13.31,26.72V139.65h.42v28.91h-2.34l-12.06-23.95Z"/><path d="M172.16,168.56H169.5V140.07H164v-.42h13.76v.42h-5.57Z"/><path d="M190.49,140q3.72-.33,6.53-.33,7.93,0,7.94,7.23a12.19,12.19,0,0,1-1.35,5.86,5.1,5.1,0,0,1-2.17,2.17,7.27,7.27,0,0,1-3.55.81h-4.74v12.84h-2.66Zm6.56.09a28.4,28.4,0,0,0-3.9.28v15h4.74q4.5-.24,4.51-8.34a8.37,8.37,0,0,0-1.35-5.1A4.66,4.66,0,0,0,197.05,140.07Z"/><path d="M208.16,140q3.71-.33,6.56-.33,7.91,0,7.9,6.82a11.77,11.77,0,0,1-1.09,5.16,5.56,5.56,0,0,1-3.74,3l6.4,13.92h-3l-6.27-13.67h-4.13v13.67h-2.65Zm6.56.09a28.43,28.43,0,0,0-3.91.28v14.13h4.74q4.51-.25,4.51-7.93a7.55,7.55,0,0,0-1.34-4.81A4.82,4.82,0,0,0,214.72,140.07Z"/><path d="M225.79,154.81q0-7.51,2.83-11.42a8.65,8.65,0,0,1,7.28-3.9,8.54,8.54,0,0,1,7.09,3.38q2.64,3.39,2.64,10.82t-2.82,11.24a8.88,8.88,0,0,1-7.52,3.79,8.36,8.36,0,0,1-6.65-3,11,11,0,0,1-2.1-4.36A25.35,25.35,0,0,1,225.79,154.81Zm10-14.91c-2.16,0-3.92,1.24-5.3,3.72s-2.06,6.11-2.06,10.9.65,8.29,2,10.49a5.86,5.86,0,0,0,5.2,3.3c2.16,0,3.93-1.24,5.31-3.74s2.06-6.11,2.06-10.86-.65-8.23-2-10.46S238,139.9,235.81,139.9Z"/><path d="M248.51,154.81q0-7.51,2.83-11.42a8.65,8.65,0,0,1,7.28-3.9,8.54,8.54,0,0,1,7.09,3.38q2.64,3.39,2.64,10.82t-2.82,11.24a8.88,8.88,0,0,1-7.52,3.79,8.36,8.36,0,0,1-6.65-3,11,11,0,0,1-2.1-4.36A25.35,25.35,0,0,1,248.51,154.81Zm10-14.91c-2.16,0-3.92,1.24-5.3,3.72s-2.06,6.11-2.06,10.9.65,8.29,2,10.49a5.86,5.86,0,0,0,5.2,3.3c2.16,0,3.93-1.24,5.31-3.74s2.06-6.11,2.06-10.86-.65-8.23-2-10.46S260.68,139.9,258.53,139.9Z"/><path d="M284.61,139.65v.42H274.53v13.21h9.34v.41h-9.34v14.87h-2.66V139.65Z"/><path d="M304.45,168.56h-2.66V140.07h-5.54v-.42H310v.42h-5.56Z"/><path d="M315.23,168.56h-2.66V139.65h2.66V153h10.4v-13.3h2.66v28.91h-2.66v-15.2h-10.4Z"/><path d="M330.91,168.56h-.39l9.57-28.91.35-.2,8.07,29.11h-2.72l-2.5-9.09H334Zm8.19-24.45-5,14.95h9.12Z"/><path d="M356.38,168.56h-2.65V140.07h-5.54v-.42H362v.42h-5.57Z"/><path d="M20.2,247.82q-10.45,0-15.47-7.64a23.81,23.81,0,0,1-2.91-7.28,47.13,47.13,0,0,1-1.12-11,38.1,38.1,0,0,1,1.65-11.64,19.24,19.24,0,0,1,4.5-8A18.64,18.64,0,0,1,20.2,197a25.78,25.78,0,0,1,4.91.47,19.17,19.17,0,0,1,3.58,1l1.17.51-.17.72a23,23,0,0,0-9.49-1.95,12.19,12.19,0,0,0-9.89,5q-3,3.67-4.24,10.82a56.24,56.24,0,0,0-.73,9.87,42.59,42.59,0,0,0,1.29,10.78,23.5,23.5,0,0,0,2.93,7.31,12.84,12.84,0,0,0,4,3.79,11.32,11.32,0,0,0,3.74,1.62,21.31,21.31,0,0,0,3.33.22,30.58,30.58,0,0,0,5.16-.58V231.67H19V231H32.82v.72h-2.4v14.2A24.36,24.36,0,0,1,20.2,247.82Z"/><path d="M37,223.53q0-13.12,4.95-19.93t12.71-6.82A14.88,14.88,0,0,1,67,202.69q4.6,5.92,4.61,18.89t-4.92,19.61a15.53,15.53,0,0,1-13.13,6.63,14.59,14.59,0,0,1-11.61-5.26A19.17,19.17,0,0,1,38.27,235,43.88,43.88,0,0,1,37,223.53Zm17.49-26q-5.64,0-9.25,6.48t-3.6,19q0,12.54,3.41,18.31t9.08,5.77c3.77,0,6.87-2.18,9.27-6.53S67,229.91,67,221.62s-1.15-14.38-3.44-18.28S58.2,197.51,54.44,197.51Z"/><path d="M82.2,197.14c1.64-.09,3.25-.14,4.83-.14a21.37,21.37,0,0,1,5,.65,16.43,16.43,0,0,1,9.66,7,23.6,23.6,0,0,1,2.93,7.31,46.6,46.6,0,0,1,1.12,11,38.1,38.1,0,0,1-1.65,11.64,17.82,17.82,0,0,1-17.84,13.23q-2.75,0-5.76-.29H77.73V197.14ZM82.37,247a23.93,23.93,0,0,0,3,.15c1.19,0,2.08,0,2.68-.07a11.17,11.17,0,0,0,2.46-.62,11.5,11.5,0,0,0,2.9-1.48,14.21,14.21,0,0,0,2.82-2.77,17.67,17.67,0,0,0,2.54-4.36q2.4-5.91,2.4-15.43a46.79,46.79,0,0,0-1.28-11.71,24.19,24.19,0,0,0-2.93-7.32,13,13,0,0,0-4-3.78,11.23,11.23,0,0,0-3.74-1.62,20.62,20.62,0,0,0-3.24-.22,27.6,27.6,0,0,0-3.57.22Z"/><path d="M150.4,247.53H129.17V197.07h4.64v49.74H150.4Z"/><path d="M152.08,223.53q0-13.12,4.94-19.93t12.71-6.82a14.88,14.88,0,0,1,12.37,5.91q4.6,5.92,4.61,18.89t-4.92,19.61a15.52,15.52,0,0,1-13.12,6.63,14.61,14.61,0,0,1-11.62-5.26,19.17,19.17,0,0,1-3.66-7.61A43.9,43.9,0,0,1,152.08,223.53Zm17.48-26q-5.64,0-9.25,6.48t-3.6,19q0,12.54,3.41,18.31t9.08,5.77q5.67,0,9.27-6.53t3.6-18.95q0-12.44-3.43-18.28T169.56,197.51Z"/><path d="M218,197.07a5.6,5.6,0,0,1,1.06,3.53,11.72,11.72,0,0,1-.61,3.68l-14.3,43.25-.61.36L189.5,197.07h4.75l11.67,42.68,11.9-35.47a11.51,11.51,0,0,0,.61-3.75,4.86,4.86,0,0,0-.83-3Z"/><path d="M246.92,197.07v.72H229.33v21.63h16.31v.72H229.33v26.67h18.82v.72H224.69V197.07Z"/><path d="M274.63,200.1a21.68,21.68,0,0,0-9.58-2.52,9.58,9.58,0,0,0-7,2.45,9,9,0,0,0-2.52,6.77,9.29,9.29,0,0,0,4.25,8.15,33.28,33.28,0,0,0,4.16,2.27c1.51.7,3,1.48,4.55,2.34a25,25,0,0,1,4.19,3,11.67,11.67,0,0,1,3.07,4.57,20,20,0,0,1,1.18,7.43,14.42,14.42,0,0,1-2,7.68,10.12,10.12,0,0,1-4.72,4.29,17.22,17.22,0,0,1-6.45,1.11,16.87,16.87,0,0,1-11.73-4.39l.28-.58a13.86,13.86,0,0,0,4.78,3.06,15.66,15.66,0,0,0,6,1.19,11.65,11.65,0,0,0,7.74-2.7q3.21-2.7,3.21-8a10.71,10.71,0,0,0-4.25-9,31.17,31.17,0,0,0-4.16-2.66c-1.51-.82-3-1.67-4.55-2.56a27,27,0,0,1-4.19-3q-4.25-3.62-4.25-10.24a12.91,12.91,0,0,1,2.74-8.54c1.83-2.19,4.57-3.28,8.24-3.28a28.27,28.27,0,0,1,11.2,2.45Z"/><path d="M326.35,197.07h.73v28.84q0,11.31-3.47,16.61t-9.05,5.3a18.9,18.9,0,0,1-6-.83,11.72,11.72,0,0,1-4.64-3.06q-4.47-4.47-4.47-18V197.07h4.64v28.76q0,13.13,3.07,17.52a8.81,8.81,0,0,0,3.27,3,9.61,9.61,0,0,0,4.1.79q5.37,0,8.58-5.08t3.21-16.19Z"/><path d="M355.23,200.1a21.65,21.65,0,0,0-9.58-2.52,9.58,9.58,0,0,0-7,2.45,9,9,0,0,0-2.52,6.77,9.29,9.29,0,0,0,4.25,8.15,34,34,0,0,0,4.16,2.27q2.27,1,4.55,2.34a25,25,0,0,1,4.19,3,11.79,11.79,0,0,1,3.08,4.57,20.2,20.2,0,0,1,1.17,7.43,14.33,14.33,0,0,1-2,7.68,10.08,10.08,0,0,1-4.72,4.29,17.22,17.22,0,0,1-6.45,1.11,16.87,16.87,0,0,1-11.73-4.39l.28-.58a13.86,13.86,0,0,0,4.78,3.06,15.66,15.66,0,0,0,6,1.19,11.63,11.63,0,0,0,7.74-2.7q3.21-2.7,3.21-8a10.71,10.71,0,0,0-4.25-9,31.17,31.17,0,0,0-4.16-2.66c-1.51-.82-3-1.67-4.55-2.56a27.49,27.49,0,0,1-4.19-3q-4.25-3.62-4.24-10.24a12.91,12.91,0,0,1,2.73-8.54c1.83-2.19,4.57-3.28,8.24-3.28a28.27,28.27,0,0,1,11.2,2.45Z"/><path d="M.5,312H.06L11,279l.4-.23L20.6,312H17.49l-2.85-10.38H4Zm9.36-27.92L4.12,301.12H14.53Z"/><path d="M24.18,312H23.7V279H25l15.2,30.51V279h.47v33H38L24.18,284.62Z"/><path d="M48.48,279c1.07-.06,2.12-.1,3.16-.1a13.59,13.59,0,0,1,3.29.43,10.84,10.84,0,0,1,6.32,4.55,15.63,15.63,0,0,1,1.92,4.78,31.07,31.07,0,0,1,.73,7.22,24.84,24.84,0,0,1-1.08,7.61,11.65,11.65,0,0,1-11.68,8.66c-1.19,0-2.44-.07-3.76-.19H45.55V279Zm.11,32.58a17,17,0,0,0,1.93.09c.78,0,1.37,0,1.76,0a7.38,7.38,0,0,0,1.61-.4,7.92,7.92,0,0,0,1.9-1,9.45,9.45,0,0,0,1.84-1.82,11.55,11.55,0,0,0,1.66-2.85,27.14,27.14,0,0,0,1.57-10.09,30.71,30.71,0,0,0-.84-7.66,15.89,15.89,0,0,0-1.91-4.79,8.32,8.32,0,0,0-2.62-2.47A7.2,7.2,0,0,0,53,279.53a13.05,13.05,0,0,0-2.11-.15,17.7,17.7,0,0,0-2.34.15Z"/><path d="M105.77,279a3.69,3.69,0,0,1,.69,2.31,7.65,7.65,0,0,1-.4,2.41L97.44,312l-.4.23-4.83-19.75L86.26,312l-.4.23L77.74,279h3.11l6.54,27.91L92,291.69,88.93,279H92l6.54,27.91,7.05-23.19a7.56,7.56,0,0,0,.41-2.46,3.21,3.21,0,0,0-.55-2Z"/><path d="M105.81,312h-.44l10.92-33,.4-.23L125.9,312h-3.1L120,301.59H109.28Zm9.35-27.92-5.74,17.07h10.42Z"/><path d="M129.48,312H129V279h1.24l15.2,30.51V279h.48v33h-2.67l-13.78-27.35Z"/><path d="M158.75,312h-3V279.43H149.4V279h15.71v.47h-6.36Z"/><path d="M182.24,280.94a14.11,14.11,0,0,0-6.26-1.65,6.3,6.3,0,0,0-4.59,1.6,5.94,5.94,0,0,0-1.64,4.44,6.05,6.05,0,0,0,2.77,5.32,22,22,0,0,0,2.73,1.49c1,.46,2,1,3,1.53a16.55,16.55,0,0,1,2.75,1.94,7.73,7.73,0,0,1,2,3,13,13,0,0,1,.77,4.86,9.34,9.34,0,0,1-1.28,5,6.55,6.55,0,0,1-3.08,2.8,11.2,11.2,0,0,1-4.22.73,11,11,0,0,1-7.68-2.87l.18-.38a9,9,0,0,0,3.13,2,10.35,10.35,0,0,0,3.93.78,7.6,7.6,0,0,0,5.06-1.77,6.41,6.41,0,0,0,2.1-5.21,7,7,0,0,0-2.78-5.89,20.41,20.41,0,0,0-2.72-1.74c-1-.54-2-1.1-3-1.68a17.16,17.16,0,0,1-2.74-2,8.29,8.29,0,0,1-2.78-6.69,8.45,8.45,0,0,1,1.79-5.59,6.63,6.63,0,0,1,5.39-2.14,18.42,18.42,0,0,1,7.33,1.6Z"/><path d="M206.4,312h-3V279.43H197V279h15.71v.47H206.4Z"/><path d="M213.48,296.26q0-8.58,3.24-13a9.85,9.85,0,0,1,8.31-4.46,9.72,9.72,0,0,1,8.09,3.87q3,3.87,3,12.35t-3.22,12.83a10.15,10.15,0,0,1-8.58,4.34,9.55,9.55,0,0,1-7.6-3.45,12.47,12.47,0,0,1-2.4-5A29,29,0,0,1,213.48,296.26Zm11.44-17q-3.69,0-6,4.25t-2.35,12.45c0,5.46.74,9.46,2.23,12s3.46,3.77,5.93,3.77,4.5-1.42,6.07-4.26,2.36-7,2.36-12.4-.75-9.41-2.25-12S227.38,279.24,224.92,279.24Z"/><path d="M264.93,280.94a14.18,14.18,0,0,0-6.27-1.65,6.26,6.26,0,0,0-4.58,1.6,5.91,5.91,0,0,0-1.65,4.44,6.06,6.06,0,0,0,2.78,5.32,22.56,22.56,0,0,0,2.72,1.49c1,.46,2,1,3,1.53a16.46,16.46,0,0,1,2.74,1.94,7.64,7.64,0,0,1,2,3,13.16,13.16,0,0,1,.77,4.86,9.43,9.43,0,0,1-1.28,5,6.53,6.53,0,0,1-3.09,2.8,12,12,0,0,1-11.89-2.14l.18-.38a8.93,8.93,0,0,0,3.13,2,10.27,10.27,0,0,0,3.92.78,7.58,7.58,0,0,0,5.06-1.77,6.41,6.41,0,0,0,2.1-5.21,7,7,0,0,0-2.77-5.89,21.08,21.08,0,0,0-2.72-1.74c-1-.54-2-1.1-3-1.68a16.73,16.73,0,0,1-2.74-2,8.29,8.29,0,0,1-2.78-6.69,8.45,8.45,0,0,1,1.79-5.59,6.61,6.61,0,0,1,5.39-2.14,18.46,18.46,0,0,1,7.33,1.6Z"/><path d="M284.81,279v.47H273.3v14.15H284v.47H273.3v17.44h12.31V312H270.26V279Z"/><path d="M304,279v.47H292.48v14.15h10.67v.47H292.48v17.44h12.31V312H289.45V279Z"/><path d="M337.13,279h.47v18.86q0,7.41-2.26,10.87a6.83,6.83,0,0,1-5.92,3.47,12.36,12.36,0,0,1-3.91-.55,7.73,7.73,0,0,1-3-2q-2.93-2.92-2.93-11.79V279h3v18.81c0,5.73.67,9.54,2,11.46a5.76,5.76,0,0,0,2.13,1.94,6.46,6.46,0,0,0,2.69.51,6.37,6.37,0,0,0,5.61-3.32q2.1-3.33,2.1-10.59Z"/><path d="M356,280.94a14.18,14.18,0,0,0-6.27-1.65,6.26,6.26,0,0,0-4.58,1.6,5.91,5.91,0,0,0-1.65,4.44,6.06,6.06,0,0,0,2.78,5.32,22.56,22.56,0,0,0,2.72,1.49c1,.46,2,1,3,1.53a16.46,16.46,0,0,1,2.74,1.94,7.64,7.64,0,0,1,2,3,13.16,13.16,0,0,1,.77,4.86,9.43,9.43,0,0,1-1.28,5,6.53,6.53,0,0,1-3.09,2.8,12,12,0,0,1-11.89-2.14l.18-.38a8.93,8.93,0,0,0,3.13,2,10.27,10.27,0,0,0,3.92.78,7.58,7.58,0,0,0,5.06-1.77,6.41,6.41,0,0,0,2.1-5.21,7,7,0,0,0-2.77-5.89,21.08,21.08,0,0,0-2.72-1.74c-1-.54-2-1.1-3-1.68a17.16,17.16,0,0,1-2.74-2,8.29,8.29,0,0,1-2.78-6.69,8.45,8.45,0,0,1,1.79-5.59,6.61,6.61,0,0,1,5.39-2.14,18.46,18.46,0,0,1,7.33,1.6Z"/><path d="M3.33,432.68A2.87,2.87,0,0,1,1,431.41a4.89,4.89,0,0,1-1-3.09,4.73,4.73,0,0,1,.94-3,2.83,2.83,0,0,1,2.33-1.21,2.93,2.93,0,0,1,2.39,1.27,5.1,5.1,0,0,1,0,6A2.89,2.89,0,0,1,3.33,432.68Z"/><path d="M25.76,432.68a2.87,2.87,0,0,1-2.34-1.27,4.89,4.89,0,0,1-1-3.09,4.73,4.73,0,0,1,.94-3,2.83,2.83,0,0,1,2.33-1.21,2.93,2.93,0,0,1,2.39,1.27,5.1,5.1,0,0,1,0,6A2.89,2.89,0,0,1,25.76,432.68Z"/><path d="M48.19,432.68a2.87,2.87,0,0,1-2.34-1.27,4.89,4.89,0,0,1-1-3.09,4.73,4.73,0,0,1,.94-3,2.83,2.83,0,0,1,2.33-1.21,2.93,2.93,0,0,1,2.39,1.27,5.1,5.1,0,0,1,0,6A2.89,2.89,0,0,1,48.19,432.68Z"/><path d="M84.88,432.15H76.52v-91h8.36V383h32.73V341.16H126v91h-8.36V384.31H84.88Z"/><path d="M134.23,432.15H133l30.12-91,1.11-.65,25.38,91.64h-8.56l-7.86-28.6H143.8ZM160,355.2,144.2,402.25h28.71Z"/><path d="M198.69,342.2q11.69-1,20.55-1,25,0,25,22.75A38.62,38.62,0,0,1,240,382.36a16.23,16.23,0,0,1-6.85,6.83A23,23,0,0,1,222,391.72H207.05v40.43h-8.36Zm20.65.26a87.62,87.62,0,0,0-12.29.91v47.05H222q14.21-.78,14.2-26.26,0-10.4-4.23-16.05T219.34,342.46Z"/><path d="M254.29,342.2q11.68-1,20.55-1,25,0,25,22.75a38.62,38.62,0,0,1-4.23,18.45,16.23,16.23,0,0,1-6.85,6.83,23,23,0,0,1-11.18,2.53H262.65v40.43h-8.36Zm20.65.26a87.62,87.62,0,0,0-12.29.91v47.05h14.91q14.2-.78,14.2-26.26,0-10.4-4.23-16.05T274.94,342.46Z"/><path d="M353.6,341.16a10.09,10.09,0,0,1,1.92,6.37,21.24,21.24,0,0,1-1.11,6.63l-18,47.18v30.81H328V404.2l-20.14-63h8.56l19.24,58.62,17.52-45.62a20.79,20.79,0,0,0,1.11-6.76,8.77,8.77,0,0,0-1.51-5.46Z"/><path d="M110.71,486.3a1.8,1.8,0,0,1,2-1.5,12.37,12.37,0,0,1,3.36.61,18.24,18.24,0,0,0,3.22.51,2.28,2.28,0,0,0,1.23-.24,1.52,1.52,0,0,0,.51-1l.29.07a1.67,1.67,0,0,1-1.53,1.5,6.14,6.14,0,0,1-3-.45l-1.64-.35a10.55,10.55,0,0,0-2.25-.32,2.28,2.28,0,0,0-1.25.26,1.55,1.55,0,0,0-.53,1Z"/><path d="M136.73,473.82q3.71-.26,6.56-.25,7.91,0,7.9,5.28a5.25,5.25,0,0,1-1.15,3.41,6.11,6.11,0,0,1-3.68,1.93,7.2,7.2,0,0,1,3.84,1.47c.94.79,1.41,2.17,1.41,4.13q0,6.18-7.91,6.18h-7Zm6.56.07a35.89,35.89,0,0,0-3.91.22v10h4.74q4.51-.19,4.51-5.19a5,5,0,0,0-1.34-3.73A5.58,5.58,0,0,0,143.29,473.89Zm-3.91,21.76h4.32c1.9,0,3.25-.5,4.05-1.49a7.18,7.18,0,0,0,1.2-4.56c0-2.05-.4-3.41-1.21-4.1a5.78,5.78,0,0,0-3.62-1.08h-4.74Z"/><path d="M156.18,488.16q0,4,1.4,5.82a4.34,4.34,0,0,0,3.66,1.86,15.84,15.84,0,0,0,5.7-1l.09.22a15.7,15.7,0,0,1-5.77,1,7.29,7.29,0,0,1-5.24-1.92c-1.34-1.28-2-3.26-2-5.92a8.61,8.61,0,0,1,2.11-6.21,7.13,7.13,0,0,1,5.38-2.21,6.44,6.44,0,0,1,4.41,1.57,5.81,5.81,0,0,1,1.79,4.64v.32H156.28A17.09,17.09,0,0,0,156.18,488.16Zm8.16-6.59a3.6,3.6,0,0,0-3-1.47,4.25,4.25,0,0,0-3.25,1.6,8.11,8.11,0,0,0-1.81,4.41h9.22A7.43,7.43,0,0,0,164.34,481.57Z"/><path d="M182.3,496a3,3,0,0,1-2-.58,1.69,1.69,0,0,1-.72-1.15l0-.54V483.65c0-1.69-.43-2.76-1.31-3.23a3.75,3.75,0,0,0-1.66-.32,5.08,5.08,0,0,0-3.68,1.61,4.43,4.43,0,0,0-1.63,2.9V496H169V480h2.24v3.65a6.41,6.41,0,0,1,2-2.58,5,5,0,0,1,3.23-1.2,9.88,9.88,0,0,1,2.87.34,3.25,3.25,0,0,1,1.61.94,3.9,3.9,0,0,1,.8,2.56v10a2.4,2.4,0,0,0,.37,1.42,1.14,1.14,0,0,0,.75.53l.36.06h1V496Z"/><path d="M182.65,503.36l.09-.26a8.11,8.11,0,0,0,3,.61,2,2,0,0,0,1.95-.93,7.12,7.12,0,0,0,.46-3V480h2.24v19.77c0,1.69-.34,2.81-1,3.38a4.79,4.79,0,0,1-3.09.85A10.36,10.36,0,0,1,182.65,503.36Zm5.69-27a1.3,1.3,0,0,1-.38-1,1.36,1.36,0,0,1,.38-1,1.28,1.28,0,0,1,1-.4,1.32,1.32,0,0,1,1,.4,1.3,1.3,0,0,1,.4,1,1.25,1.25,0,0,1-.4,1,1.35,1.35,0,0,1-1,.39A1.3,1.3,0,0,1,188.34,476.38Z"/><path d="M206.45,496a4.1,4.1,0,0,1-3-.83,1.93,1.93,0,0,1-.74-1.22v-.67a5.31,5.31,0,0,1-5,2.85q-4,0-4.58-3.65a5.16,5.16,0,0,1-.06-.79,3.29,3.29,0,0,1,.13-.88,2.39,2.39,0,0,1,.73-1q1.22-1.16,5.35-1.41c.68-.06,1.31-.1,1.88-.1s1.1,0,1.57.07V483s0-.13,0-.31a1.12,1.12,0,0,0-.11-.7,4.71,4.71,0,0,0-.46-.85,2.29,2.29,0,0,0-1-.72,5.15,5.15,0,0,0-1.92-.3,10.66,10.66,0,0,0-2.77.43,10.85,10.85,0,0,0-2.32.85l-.12-.23a13.75,13.75,0,0,1,5.79-1.31c2.2,0,3.65.39,4.35,1.18a2.88,2.88,0,0,1,.83,2V493.7a2.33,2.33,0,0,0,.37,1.42,1.14,1.14,0,0,0,.75.53l.35.06h1V496Zm-8.22-.13a4.58,4.58,0,0,0,3.06-1.17,3.61,3.61,0,0,0,1.45-2.25v-3.88c-.57,0-1.16-.06-1.74-.06a14.55,14.55,0,0,0-1.75.1,5.3,5.3,0,0,0-3.16,1.08,3.16,3.16,0,0,0-.74,2.21c0,.17,0,.36,0,.58Q195.67,495.84,198.23,495.84Z"/><path d="M228.5,483.65a5.4,5.4,0,0,0-.51-2.75,2.12,2.12,0,0,0-2-.8,5.45,5.45,0,0,0-4.9,4.48V496H218.9V483.65a5.4,5.4,0,0,0-.51-2.75c-.34-.54-1.07-.8-2.18-.8a4.39,4.39,0,0,0-3.15,1.53,5.05,5.05,0,0,0-1.61,2.85V496h-2.24V480h2.24v3.61a6.42,6.42,0,0,1,1.88-2.56,4.61,4.61,0,0,1,3.08-1.18,9.76,9.76,0,0,1,2.7.3,2.46,2.46,0,0,1,1.42.95,3.41,3.41,0,0,1,.52,1.12,7.71,7.71,0,0,1,.09,1.34A6.26,6.26,0,0,1,223,481a4.29,4.29,0,0,1,2.88-1.17,9.15,9.15,0,0,1,2.46.26,4.69,4.69,0,0,1,1.39.57,2,2,0,0,1,.71.93,3.63,3.63,0,0,1,.27,1c0,.26,0,.62,0,1.09v10a2.4,2.4,0,0,0,.37,1.42,1.14,1.14,0,0,0,.75.53l.35.06h1V496h-2a3,3,0,0,1-2-.58,1.77,1.77,0,0,1-.72-1.15l0-.54Z"/><path d="M234.87,476.38a1.27,1.27,0,0,1-.38-1,1.32,1.32,0,0,1,.38-1,1.28,1.28,0,0,1,1-.4,1.37,1.37,0,0,1,1.38,1.37,1.28,1.28,0,0,1-.4,1,1.37,1.37,0,0,1-1,.39A1.3,1.3,0,0,1,234.87,476.38ZM237.43,496a3,3,0,0,1-2-.58,1.69,1.69,0,0,1-.72-1.15l0-.54V480h2.24V493.7a2.33,2.33,0,0,0,.37,1.42,1.09,1.09,0,0,0,.72.53l.38.06h1V496Z"/><path d="M254.58,496a3,3,0,0,1-2-.58,1.69,1.69,0,0,1-.72-1.15l0-.54V483.65c0-1.69-.44-2.76-1.31-3.23a3.77,3.77,0,0,0-1.67-.32,5.1,5.1,0,0,0-3.68,1.61,4.47,4.47,0,0,0-1.63,2.9V496H241.3V480h2.24v3.65a6.53,6.53,0,0,1,2-2.58,5,5,0,0,1,3.23-1.2,9.8,9.8,0,0,1,2.86.34,3.24,3.24,0,0,1,1.62.94,4,4,0,0,1,.8,2.56v10a2.33,2.33,0,0,0,.37,1.42,1.12,1.12,0,0,0,.75.53l.35.06h1V496Z"/><path d="M281.4,473.57v.32H271.32v10.24h9.34v.32h-9.34V496h-2.66v-22.4Z"/><path d="M289.27,481.34v-.67a6,6,0,0,0-2.62,2.32,6.39,6.39,0,0,0-1.25,3.28V496h-2.24V480h2.24v5.09a8.92,8.92,0,0,1,2-3.51,4.47,4.47,0,0,1,3.26-1.71h.13a1.42,1.42,0,0,1,1.07.43,1.46,1.46,0,0,1,.44,1.07,1.41,1.41,0,0,1-.44,1.06,1.45,1.45,0,0,1-1.07.42,1.41,1.41,0,0,1-1.05-.42A1.43,1.43,0,0,1,289.27,481.34Z"/><path d="M306.9,496a4.1,4.1,0,0,1-3-.83,1.93,1.93,0,0,1-.74-1.22v-.67a5.32,5.32,0,0,1-5,2.85q-4,0-4.58-3.65a5.16,5.16,0,0,1-.06-.79,3.7,3.7,0,0,1,.12-.88,2.42,2.42,0,0,1,.74-1q1.22-1.16,5.34-1.41c.69-.06,1.32-.1,1.89-.1s1.1,0,1.57.07V483s0-.13,0-.31a1.19,1.19,0,0,0-.11-.7,4.21,4.21,0,0,0-.47-.85,2.19,2.19,0,0,0-1-.72,5.15,5.15,0,0,0-1.92-.3,10.66,10.66,0,0,0-2.77.43,10.85,10.85,0,0,0-2.32.85l-.13-.23a13.8,13.8,0,0,1,5.8-1.31c2.19,0,3.64.39,4.35,1.18a2.92,2.92,0,0,1,.83,2V493.7a2.33,2.33,0,0,0,.37,1.42,1.09,1.09,0,0,0,.75.53l.35.06h1V496Zm-8.22-.13a4.54,4.54,0,0,0,3.05-1.17,3.58,3.58,0,0,0,1.46-2.25v-3.88q-.87-.06-1.74-.06a14.55,14.55,0,0,0-1.75.1,5.34,5.34,0,0,0-3.17,1.08,3.15,3.15,0,0,0-.73,2.21c0,.17,0,.36,0,.58Q296.12,495.84,298.68,495.84Z"/><path d="M322.93,496a3,3,0,0,1-2-.58,1.77,1.77,0,0,1-.72-1.15l0-.54V483.65c0-1.69-.43-2.76-1.31-3.23a3.75,3.75,0,0,0-1.66-.32,5.07,5.07,0,0,0-3.68,1.61,4.45,4.45,0,0,0-1.64,2.9V496h-2.24V480h2.24v3.65a6.53,6.53,0,0,1,2-2.58,5,5,0,0,1,3.23-1.2,9.88,9.88,0,0,1,2.87.34,3.25,3.25,0,0,1,1.61.94,3.9,3.9,0,0,1,.8,2.56v10a2.33,2.33,0,0,0,.37,1.42,1.14,1.14,0,0,0,.75.53l.35.06h1V496Z"/><path d="M329.05,472V487.9l7-7.93h.32l-5.22,5.89L338.07,496h-2.24l-5.92-8.71-.86,1V496h-2.24V472Z"/><path d="M344.53,496c-1.87,0-3.06-.49-3.55-1.47a1.46,1.46,0,0,1-.16-.58V472h2.24v21.7a2.33,2.33,0,0,0,.37,1.42,1.12,1.12,0,0,0,.75.53l.35.06h1V496Z"/><path d="M348,476.38a1.27,1.27,0,0,1-.38-1,1.32,1.32,0,0,1,.38-1,1.28,1.28,0,0,1,1-.4,1.37,1.37,0,0,1,1.38,1.37,1.28,1.28,0,0,1-.4,1,1.37,1.37,0,0,1-1,.39A1.3,1.3,0,0,1,348,476.38ZM350.55,496a3,3,0,0,1-2-.58,1.69,1.69,0,0,1-.72-1.15l0-.54V480H350V493.7a2.33,2.33,0,0,0,.37,1.42,1.09,1.09,0,0,0,.72.53l.38.06h1V496Z"/><path d="M367.7,496a3,3,0,0,1-2-.58,1.69,1.69,0,0,1-.72-1.15l0-.54V483.65c0-1.69-.44-2.76-1.31-3.23a3.77,3.77,0,0,0-1.67-.32,5.1,5.1,0,0,0-3.68,1.61,4.47,4.47,0,0,0-1.63,2.9V496h-2.24V480h2.24v3.65a6.45,6.45,0,0,1,2-2.58,5,5,0,0,1,3.23-1.2,9.8,9.8,0,0,1,2.86.34,3.24,3.24,0,0,1,1.62.94,4,4,0,0,1,.8,2.56v10a2.33,2.33,0,0,0,.37,1.42,1.09,1.09,0,0,0,.75.53l.35.06h1V496Z"/></g></g></svg>