<?xml version="1.0" encoding="UTF-8"?>
<svg id="Layer_2" data-name="Layer 2" xmlns="http://www.w3.org/2000/svg" viewBox="0 0 185 185">
  <defs>
    <style>
      .cls-1 {
        fill: #834021;
      }

      .cls-2 {
        fill: none;
      }

      .cls-3 {
        fill: #e2e0dc;
      }

      .cls-4 {
        fill: #f9aa53;
      }

      .cls-5 {
        fill: #ef9c51;
      }

      .cls-6 {
        fill: #f36920;
      }

      .cls-7 {
        fill: #f88d39;
      }

      .cls-8 {
        fill: #f47428;
      }
    </style>
  </defs>
  <g id="borxes">
    <rect class="cls-2" width="185" height="185"/>
  </g>
  <g id="flavours">
    <g>
      <path class="cls-3" d="M98.59,57.89c.17-.03.5-.61.78-.55.38.07.66.98.94,1.12-.71.24-1.26,0-1.72-.57Z"/>
      <path class="cls-4" d="M85,57.65c.14-.04.73.41,1.02.48-.27.1-.53.52-.79.62-.15.05-.25.25-.4.31-.44.16-1.06.4-1.5.53-4.28,1.34-7.09,1.65-11.28,4.34-.83.53-1.58,1.27-2.38,1.86-.13.1-.26.21-.4.31-1.61,1.24-3.36,2.45-4.79,3.89-2.28,2.28-5.35,7.13-7.32,10.02-.26.38-1.18.73-1.62,1.4-.14.21-1.85,4.59-1.77,4.83.39,1.13,1.98,1.21,2.9,2.09,3.28,3.16,7.41,9.36,9.26,13.54-5.41,8.02-1.46,18.36,7.53,21.68,2.64.97,3.98,1,6.66-.23.96,1.31,3.44.36,4.29,1.42.43.53.54,2.16,1.35,3.39,2.83,4.33,7.23,9.37,10.55,13.51.85,1.05,2.19,1.67,2.92,2.81.64,1,.27,2.35.99,2.92.95.74,4.28-.48,5.52-.87,3.55-1.12,7-2.11,10.35-4.06,8.7-5.06,13.09-9.25,17.96-17.84.43-.76,1.09-1.82,1.36-2.34.87-1.67,1.67-3.35,2.42-5.08.93,2.68-1.61,7.11-3.01,9.48-22.07,37.42-93.08,33.48-91.6-16.32.7-23.55,18.97-46.92,41.78-52.7Z"/>
      <path class="cls-5" d="M86.02,58.13c3.17-1.15,7.13-.73,10.45-.5.69.05,1.02.43,2.12.26.46.58,1.01.81,1.72.57.17.09.5.01.71.09l.71.09c.81.25,1.63.42,2.43.66l.71.09c12.94,4.19,23.92,14.87,30.36,26.85,4.27,7.95,2.85,10.89,3.41,18.87l-.4.31c-.06-.38-.45-.91-.53-1.5-.11-.72-.69-1.91-.75-2.6-.03-.32-.14-1.72-.14-1.81,0-.12.24-.88.26-2.12,0-.06.66-.31.61-.9-.26-3.13-2.79-9.35-4.77-11.8-.32-.39-.61-.8-.93-1.19-.02-1.37-1.16-2.84-2.47-3.17-.1-.13-.21-.26-.31-.4.34-.87-.9-2.49-1.86-2.38-3.1-4.12-6.93-7.35-10.87-10.66-.61-.51-1-.64-1.32-.88-.13-.1-.18-.3-.31-.4-.49-.35-.9-1.43-1.76-1.63l-4.33-1.28c-.45-.29-.77-.55-1.32-.88-5.5-3.29-13.71-3.03-19.92-2.62-.88.06-1.57.55-2.27-.47.27-.1.53-.52.79-.62Z"/>
      <path class="cls-7" d="M137.69,103.91c.09.59.47,1.12.53,1.5.11.68.59,3.8.58,4.01s-1.42.43-.17,1.41c-.03.08.28.24.31.4-.6.93-1.01,2.03-1.45,3.05.22.86.46,1.76.75,2.6-.06.14-.34.17-.4.31-.75,1.73-1.54,3.4-2.42,5.08-.77-2.27,1.12-5.84,2.06-7.99-.98-3.79.02-5.62-1.29-9.83l1.5-.53Z"/>
      <path class="cls-4" d="M138.93,111.23c.53,2.48.35,3.35-.7,5.65-.3-.84-.53-1.74-.75-2.6.44-1.01.85-2.11,1.45-3.05Z"/>
      <path class="cls-4" d="M138.61,105.1c.15,2.16.31,2.02.18,4.32-.05.9.5-.26-.17,1.41-1.24-.98.17-1.19.17-1.41s-.47-3.33-.58-4.01l.4-.31Z"/>
      <path class="cls-3" d="M104.85,59.38l-.71-.09c.21.06.49.02.71.09Z"/>
      <path class="cls-3" d="M101.72,58.64l-.71-.09c.19.07.48.02.71.09Z"/>
      <path class="cls-7" d="M69.27,66.1l.5.23-.1-.54c.8-.59,1.55-1.33,2.38-1.86,1.41,1.91,4.01-2.66,4.41.22.02.12-1.17,1.21.84,1.68,1.02.24,1.67-2,3.73-.64,2.63,1.73,1.58,3.46,2.32,5.87-.97,1.41-.95,2.34-.7,4.03.24,1.64,1.41,6.68,2.25,7.83,1.84,2.51,5,2.07,7.03-.05l1.32.88c-1.27,1.98-1.06,5.16-2.76,8.08-1.15,1.97-5.43,6.19-4.43,8.07,2.96,5.57,12.71.09,15.5,5.45,1.24,2.37-.1,4.41,3.16,5.98,1.79.87,3.62.58,5.25-.44,3.85.81,6.3,8.42,8.62,9.7.94.52,1.69-.33,2.56-.22,1.07.13,2.83,1.06,3.85.78,2.42-.66,5.15-5.67,7.56-.92.22.43-1.62,5.23,1.5,4.38-4.87,8.6-9.26,12.79-17.96,17.84-2.86-1.1-2.98-3.02-4.54-5.04-3.84-4.99-8.24-11.38-12.4-15.88-.86-.93-2.06-1.08-2.66-1.76-.57-.64-.59-1.69-1.08-2.23-.17-.19-4.31-.31-5.07-.09-3.91,1.13-6.65,4.24-10.22,5.87-2.67,1.22-4.02,1.2-6.66.23-8.99-3.32-12.95-13.66-7.53-21.68,3.6-5.34,8.13-8.68,9.24-15.52.49-3.05-.25-6.74-3.74-7.3-1.66-.27-5.56,1.05-7.36,1.63-2.63.84-5.2,3.84-6.9-.67,1.97-2.89,5.04-7.74,7.32-10.02,1.44-1.44,3.18-2.65,4.79-3.89ZM75.74,100.78c-2.11-.03-6.4,4.63-6.69,6.48-.22,1.4,2.2,4.56,3.77,3.75,2.15-1.1,8.58-10.14,2.92-10.23Z"/>
      <path class="cls-5" d="M80.12,123.32c3.56-1.63,6.31-4.74,10.22-5.87.76-.22,4.9-.1,5.07.09.49.54.51,1.58,1.08,2.23.6.68,1.8.83,2.66,1.76,4.17,4.51,8.56,10.89,12.4,15.88,1.55,2.02,1.67,3.94,4.54,5.04-3.35,1.95-6.8,2.94-10.35,4.06-1.24.39-4.57,1.61-5.52.87-.73-.57-.35-1.92-.99-2.92-.73-1.14-2.07-1.75-2.92-2.81-3.32-4.14-7.72-9.19-10.55-13.51-.81-1.24-.92-2.87-1.35-3.39-.85-1.06-3.33-.11-4.29-1.42Z"/>
      <path class="cls-8" d="M136.19,104.45c1.31,4.21.31,6.04,1.29,9.83-.94,2.15-2.83,5.72-2.06,7.99-.27.52-.93,1.58-1.36,2.34-3.12.85-1.28-3.95-1.5-4.38-2.42-4.75-5.15.26-7.56.92-1.02.28-2.78-.65-3.85-.78-.87-.11-1.62.74-2.56.22-2.32-1.28-4.77-8.89-8.62-9.7,1.78-1.11,3.6-3.27,5.35-4.16,1.15-.59,1.92.1,2.87-.07,3.32-.6,6.22-4.36,4.33-7.48,2.05-.29,2.6-2.81,4.52-3.21s6.9,2.93,8.06,4.55c.87,1.21.7,2.62,1.11,3.93Z"/>
      <path class="cls-8" d="M72.05,63.93c4.19-2.69,7-3,11.28-4.34l1.5-.53c.15-.06.25-.25.4-.31.7,1.03,1.39.53,2.27.47,6.2-.41,14.42-.67,19.92,2.62-2.7,1.08-7.25-.97-8.35,2.73-1.11,3.74,4.32,2.09,6.03,2.93,1.63.8,3.01,3.18,4.53,3.94.99.49,2.16-.17,2.84.27,1.28.82,1.37,2.78,2.07,3.28.54.38,1.62-.19,2.51.17.79.32,2.88,2.2,3.59,2.92.61.62,2.07,1.59.61,2.31-2.63-4.3-4.31-2.27-6.52-3.81-1.07-.75-1.58-1.96-2.53-2.7-2.75-2.13-10.97-3.92-14.05-2.21-6.2,3.42-2.44,4.6.26,8.05-2.1,1.28-3.75,1.82-5.15,4.02l-1.32-.88c3.85-4.04-2.25-6.51-1.12-9.36s7.52-4.19,5.15-7.55c-2.29-3.24-10.82,2.54-12.6,5.11-.74-2.42.31-4.15-2.32-5.87-2.06-1.36-2.71.88-3.73.64-2.02-.47-.83-1.56-.84-1.68-.39-2.88-3,1.69-4.41-.22Z"/>
      <path class="cls-5" d="M57.17,80.01c1.7,4.51,4.28,1.51,6.9.67,1.8-.58,5.7-1.89,7.36-1.63,3.49.56,4.23,4.25,3.74,7.3-1.11,6.84-5.64,10.18-9.24,15.52-1.85-4.18-5.97-10.38-9.26-13.54-.91-.88-2.51-.96-2.9-2.09-.08-.24,1.62-4.62,1.77-4.83.45-.67,1.36-1.02,1.62-1.4Z"/>
      <path class="cls-5" d="M84.83,59.06l-1.5.53c.43-.14,1.06-.37,1.5-.53Z"/>
      <path class="cls-8" d="M69.27,66.1c.13-.1.26-.21.4-.31l.1.54-.5-.23Z"/>
      <path class="cls-4" d="M121.24,80.39c2.89,4.71-4.11,4.66-3.14,6.61.82,1.63,5.87.53,7.76.94.99.22,2.06,1.16,2.18,1.17l1.02.48c.11.2.57.79.62.79l1.02.48c.11.2.57.79.62.79l1.02.48c.27.41.61.81.93,1.19,1.19,1.42,2.84,2.4,3.8,4.05-.02,1.23-.26,1.99-.26,2.12-4.07-5.91-12.74-9.89-19.77-8.17-.12.92,6.89,1.26,7.87,1.55,4.89,1.46,8.66,4.77,12.04,8.43.06.69.65,1.88.75,2.6l-1.5.53c-.41-1.31-.24-2.72-1.11-3.93-1.15-1.62-6.12-4.95-8.06-4.55s-2.47,2.92-4.52,3.21c-.23-.38-.62-.85-.93-1.19-.59-.65-1.75-1.58-2.65-1.76-2.41-2.64-4.11-3.54-6.84-5.5-.24-.17-.38-.63-.62-.79,4.23-2.44,5.1-8.72-.87-8.92-3.82-.13-3.35,2.28-4.03,5.09l-.4.31c-.31-.39-.6-.81-.93-1.19-.57-.68-.98-.44-1.02-.48-.45-.45-.79-1.21-1.24-1.59-.61-.51-.97-.45-1.02-.48-.54-.43-1.07-.87-1.63-1.28-.32-.24-.51-.63-1.02-.48-.27-.41-.62-.8-.93-1.19-2.7-3.44-6.46-4.62-.26-8.05,3.08-1.7,11.3.09,14.05,2.21.96.74,1.46,1.95,2.53,2.7,2.2,1.54,3.88-.49,6.52,3.81Z"/>
      <path class="cls-6" d="M121.24,80.39c1.46-.72,0-1.69-.61-2.31-.7-.72-2.8-2.6-3.59-2.92-.89-.36-1.96.22-2.51-.17-.71-.5-.8-2.47-2.07-3.28-.69-.44-1.86.23-2.84-.27-1.52-.76-2.9-3.14-4.53-3.94-1.71-.84-7.14.81-6.03-2.93,1.09-3.7,5.65-1.66,8.35-2.73.55.33.87.59,1.32.88,1.68,1.09,3.8,4.2,6.09,2.9.13.09.18.3.31.4l1.32.88c3.94,3.3,7.76,6.53,10.87,10.66.6.8,1.24,1.59,1.86,2.38.1.13.21.26.31.4.82,1.07,1.62,2.12,2.47,3.17.32.39.61.8.93,1.19-3.08,2.8,2.57,3.16,2.51,7.3-.04,2.56-1.08.38-2.15,1.35-.32-.38-.66-.78-.93-1.19-.03-.05.24-1.03-.22-1.1-.16-.02-.62.62-.79.61-.05,0-.51-.59-.62-.79-.03-.05.25-1.03-.22-1.1-.16-.02-.62.62-.79.61-.05,0-.51-.59-.62-.79-.03-.05.36-.96-.22-1.03-.3-.04-.68.56-.79.55-.12-.01-1.19-.95-2.18-1.17-1.89-.41-6.94.68-7.76-.94-.98-1.94,6.03-1.89,3.14-6.61Z"/>
      <path class="cls-8" d="M136.8,99.51c0,.09.11,1.49.14,1.81-3.37-3.65-7.15-6.97-12.04-8.43-.98-.29-7.99-.63-7.87-1.55,7.03-1.72,15.7,2.26,19.77,8.17Z"/>
      <path class="cls-8" d="M132.89,84.69c1.98,2.45,4.51,8.67,4.77,11.8.05.58-.61.84-.61.9-.96-1.65-2.61-2.63-3.8-4.05,1.07-.96,2.11,1.22,2.15-1.35.06-4.14-5.59-4.5-2.51-7.3Z"/>
      <path class="cls-8" d="M108.74,62.73l4.33,1.28c.87.19,1.27,1.28,1.76,1.63-2.29,1.29-4.41-1.81-6.09-2.9Z"/>
      <path class="cls-8" d="M131.96,83.51c-.85-1.06-1.65-2.1-2.47-3.17,1.31.33,2.45,1.81,2.47,3.17Z"/>
      <path class="cls-8" d="M129.18,79.94c-.62-.79-1.25-1.58-1.86-2.38.96-.11,2.2,1.51,1.86,2.38Z"/>
      <path class="cls-8" d="M116.46,66.9l-1.32-.88c.32.24.72.37,1.32.88Z"/>
      <path class="cls-6" d="M98.4,79.72c.31.39.66.78.93,1.19.13.19-.43,1.86,1.02.48.56.41,1.09.85,1.63,1.28-.14,1.21.17,1.34,1.02.48.45.38.79,1.14,1.24,1.59-.22,1.2.22,1.33,1.02.48.32.38.61.8.93,1.19.04.05-.04.77.33,1.3,1.02,1.42,3.6,4.18,5.58,3.02,2.73,1.96,4.44,2.86,6.84,5.5.24.27,1.17,3.3,2.65,1.76.31.34.69.81.93,1.19,1.9,3.12-1,6.88-4.33,7.48-.95.17-1.72-.52-2.87.07-1.75.89-3.57,3.05-5.35,4.16-1.63,1.02-3.45,1.31-5.25.44-3.26-1.57-1.92-3.61-3.16-5.98-2.8-5.36-12.54.12-15.5-5.45-1-1.89,3.28-6.1,4.43-8.07,1.71-2.92,1.5-6.09,2.76-8.08,1.4-2.2,3.05-2.74,5.15-4.02Z"/>
      <path class="cls-6" d="M83.35,71.06c1.78-2.57,10.31-8.36,12.6-5.11,2.38,3.36-4.06,4.81-5.15,7.55s4.97,5.32,1.12,9.36c-2.03,2.13-5.19,2.56-7.03.05-.84-1.15-2.01-6.19-2.25-7.83-.25-1.69-.27-2.63.7-4.03Z"/>
      <path class="cls-8" d="M75.74,100.78c5.65.09-.78,9.13-2.92,10.23-1.57.81-3.99-2.35-3.77-3.75.29-1.85,4.58-6.51,6.69-6.48Z"/>
      <path class="cls-1" d="M106.57,86.1c.68-2.81.21-5.22,4.03-5.09,5.97.2,5.09,6.48.87,8.92-.11-.07-.87.2-1.59-.35-1.28-.97-2.39-2.16-3.31-3.48Z"/>
      <path class="cls-8" d="M106.57,86.1c.92,1.32,2.03,2.51,3.31,3.48.72.55,1.49.27,1.59.35.24.16.38.62.62.79-1.98,1.16-4.57-1.59-5.58-3.02-.38-.53-.29-1.24-.33-1.3l.4-.31Z"/>
      <path class="cls-8" d="M121.58,97.99c-1.47,1.54-2.41-1.49-2.65-1.76.9.18,2.05,1.11,2.65,1.76Z"/>
      <path class="cls-8" d="M105.24,85.22c-.8.85-1.23.71-1.02-.48.04.04.44-.2,1.02.48Z"/>
      <path class="cls-8" d="M102.99,83.15c-.84.85-1.16.73-1.02-.48.04.03.4-.03,1.02.48Z"/>
      <path class="cls-8" d="M100.34,81.39c-1.44,1.38-.89-.29-1.02-.48.5-.15.69.25,1.02.48Z"/>
      <path class="cls-8" d="M131.32,91.67c.18,0,.64-.64.79-.61.46.06.19,1.05.22,1.1l-1.02-.48Z"/>
      <path class="cls-8" d="M129.68,90.39c.18,0,.64-.64.79-.61.47.07.2,1.05.22,1.1l-1.02-.48Z"/>
      <path class="cls-8" d="M128.05,89.11c.12.01.49-.58.79-.55.58.07.2.98.22,1.03l-1.02-.48Z"/>
    </g>
  </g>
</svg>