<?xml version="1.0" encoding="UTF-8"?>
<svg id="Layer_2" data-name="Layer 2" xmlns="http://www.w3.org/2000/svg" viewBox="0 0 185 185">
  <defs>
    <style>
      .cls-1 {
        fill: none;
      }

      .cls-2 {
        fill: #171256;
      }

      .cls-3 {
        fill: #097936;
      }

      .cls-4 {
        fill: #28216f;
      }
    </style>
  </defs>
  <g id="borxes">
    <rect class="cls-1" width="185" height="185"/>
    <g>
      <g>
        <path class="cls-4" d="M122.03,37.86c1.87,0,3.86.41,5.46,1.36,1.31.78,2.33,3.21,3.13,3.39.58.13,3.73-3.05,5.86-3.6,4.6-1.21,11.3.52,13.52,4.99,1.02,2.07,1.24,5.19,1.37,7.5,13.93-2.23,20.2,12.75,8.86,20.83,3.46,4.36,4.49,8.5,3.41,13.96-1.25.29-3.2,3.31-4.98,4.23-1.86.95-6.52,1.19-7.01,1.89-.41.57.37,2.2.13,3.44-2.18,11.48-14.99,12.5-21.22,3.41-7.14,9.08-21.73,2.71-18.76-8.87-6.75.44-8.91-.06-12.3-5.64-.27-.45-1.21-.45-1.33-.98-.21-.95-.21-4.68-.01-5.67.14-.71,2.15-4.15,2.74-4.96.44-.61,1.3-.45,1.33-.52.71-1.21-1.03-1.59-1.34-2.02-7.29-10.04-1.52-19.18,10.24-19.1-1.2-7.07,3.51-13.64,10.91-13.65ZM132.03,57.88c-3.88-3.2-4.03.62-7.9,1.51-1.83.42-3.65.32-5.5.3.92,2.41.48,5.01-.48,7.36-.71,1.75-2.97,3.65-2.96,4.57,0,1.3,2.84,3.25,3.27,4.94.37,1.46-.06,6.1.17,6.32.44.42,3.36-.51,4.33-.44,5.11.33,7.64,5.04,8.37,5.16,1.43.25,2.75-2.23,3.53-2.63,2.13-1.09,7.37-1.14,7.65-1.41s.16-5.62,1.06-7.47c.6-1.23,3.51-2.93,3.67-3.88s-3.26-4.09-3.86-5.55-.68-5.4-.87-5.61c-.29-.3-6.1.22-8.36-.85-1.51-.71-1.38-1.73-2.1-2.32ZM131.58,98.56l-.34-8.86c-2.29,2.07-1.87,4.6-1.12,7.29.32,1.15-.51,1.9,1.45,1.57Z"/>
        <path class="cls-2" d="M132.03,57.88c.72.6.59,1.61,2.1,2.32,2.26,1.07,8.07.55,8.36.85.2.2.25,4.08.87,5.61s4.02,4.61,3.86,5.55-3.07,2.65-3.67,3.88c-.9,1.85-.79,7.2-1.06,7.47s-5.52.33-7.65,1.41c-.78.4-2.1,2.88-3.53,2.63-.72-.13-3.26-4.83-8.37-5.16-.97-.06-3.89.87-4.33.44-.23-.22.2-4.86-.17-6.32-.43-1.69-3.26-3.64-3.27-4.94,0-.92,2.25-2.82,2.96-4.57.96-2.36,1.4-4.96.48-7.36,1.85.03,3.67.12,5.5-.3,3.87-.89,4.03-4.71,7.9-1.51Z"/>
        <path class="cls-2" d="M131.58,98.56c-1.96.33-1.13-.42-1.45-1.57-.75-2.68-1.18-5.22,1.12-7.29l.34,8.86Z"/>
      </g>
      <g>
        <path class="cls-3" d="M61.36,69.97c-7.19-.57-7.8,5.29-10,6.03-1.83.62-4.32-.46-6.36.46-2.29,1.04-3.95,5.65-4.77,6.14-1.02.61-3.93.32-5.85.97-3.6,1.24-4.81,4.86-6.6,5.68-1.96.89-5.44.16-6.96,2.59-.65,1.03-.13,2.91-1.75,3.37-.2-2.35-.09-3.23,0-5.46l7.69-7.3,4.58-.9c.54-.76-3.47-5.3-3.82-6.85-.24-1.03.41-1.23.41-1.33.42-.08,1.02.11,1.36,0,.57,1.7,2.27,1.51,3.41,2.05,1.38.64,2.72,1.39,4.09,2.05-.65-5.66,1.74-10.54,6.13-14,6.09-4.79,2.22.78,1.68,3.04-.23.97-1.21,6.6-.98,6.86,3.23-1.23,5.31-4.08,8.75-5.23,2.45-.82,4.37-1.02,6.94-.91.91.04,1.82-.03,2.73,0l-.68,2.72Z"/>
        <path class="cls-2" d="M80.46,89.75c.35.52,1.94.93,2.49,1.6,3.06,3.77,3.93,6.88,2.91,11.63-.23,1.05-1.29,2.03-1.31,2.81s3.39,4.45,3.41,8.17c.03,4.44-3.14,6.8-3.41,8.92-.38,3.02,1.61,4.71-.41,9.08-2.19,4.74-6.21,3.32-8.44,5.2-1.78,1.5-1.59,6.13-6.81,7.51-3.35.89-5.08-.57-7.17-.36-2.32.23-2.8,3.78-8.72,2.58-5.08-1.03-5.09-5.91-6.08-6.54-.84-.54-4.3-.31-6.66-1.87-3.21-2.12-3.71-6.53-4.25-7-1.05-.91-4.7-.09-7.73-4.21-2.56-3.49-.93-5.65-2.03-7.52-.63-1.07-4.36-2.29-5.8-4.78-1.18-2.03-1.85-5.93-1.36-8.19,1-4.63.45-6.39,0-11.6,1.63-.46,1.1-2.33,1.75-3.37,1.53-2.42,5-1.69,6.96-2.59,1.79-.82,3-4.44,6.6-5.68,1.92-.66,4.83-.37,5.85-.97.82-.49,2.48-5.1,4.77-6.14,2.04-.93,4.53.15,6.36-.46,2.2-.74,2.81-6.6,10-6.03,4.98.4,6.13,5.27,8.19,6.48,2.48,1.45,6.04-.28,8.86,4.44,1.6,2.67.85,4.54,1.36,6.82-1.13.79-.47,1.63.68,2.05ZM83.62,109.13c-9.74-5.2-9.97,14.28-.4,11.02,3.42-1.17,3.29-9.47.4-11.02ZM84.36,98.48c-2.27-10.41-11.76-7.19-6.53,1.75,2.79,4.77,7.81,4.09,6.53-1.75ZM73.79,128.05c-1.67,1.95,3.62,7.64,7.01,4.68,5.23-4.57-2.64-12.44-7.17-5.8l1.36,1.01c-.35,0-1.03-.09-1.2.11ZM65.66,98.12c-1.34,4.19.23,11.23,5.6,11.46,8.99.38,5.63-16.64-3.89-12.94-.11.04-1.67,1.37-1.71,1.48ZM75.52,84.11c-1.27-6.87-10.48-7.46-10.11.51.37,7.94,12.24,11.01,10.11-.51ZM74.15,118.22c-1.06-5.86-9.43-6.58-10.03-.07-.86,9.4,11.88,10.29,10.03.07ZM72.12,133.89c-1.66-5.6-13.16-4.63-10.63,3.82.19.64,2.72,3.29,3.28,3.53,4.92,2.11,8.78-2.5,7.35-7.35ZM65.25,94.32c-.03-4.65-4.43-10.09-9.32-6.91-6.5,4.22.78,15.43,6.49,11.94,1.07-.65,2.83-3.72,2.83-5.03ZM56.04,72.86c-.18.11-2.14,3.16-2.21,3.63-1.45,9.65,14.53,11.14,9.73-.88-1.04-2.62-5.3-4.03-7.52-2.75ZM63.95,109.34c-.32-1.43-3.56-5.72-5.02-5.96-6.67-1.1-7.75,6.82-4.42,11.29,3.8,5.11,10.75.52,9.44-5.33ZM53.38,130.47c7.98,7.46,12.86-8.15,4.75-10.56-3.57-1.06-5.91,1.47-6.71,4.62-.37,1.46.89,4.94,1.96,5.95ZM57.1,142.79c2.16-2.16.54-6.96-2.97-7.33-8.85-.93-2.09,12.39,2.97,7.33ZM53.03,97.74c-.23-.79-2.95-3.51-3.75-3.75-8.44-2.54-10.56,9.99-3.11,11.97,5.87,1.56,8.41-2.97,6.85-8.22ZM52.36,84.13c-2.14-12.2-17.58-.28-6.39,6.35,4.02,2.38,7.04-2.62,6.39-6.35ZM50.2,112.51c-4.74-5.28-10.92-1.43-9.13,5.39.27,1.02,3.01,4.5,3.94,4.92,6.25,2.84,9.02-6.05,5.2-10.31ZM49.61,129.8c-1.32-5.84-12.07-6.76-9.94,2.44,1.47,6.35,12.49,8.83,9.94-2.44ZM30.87,102.23c-4.43,5.5,6.3,15.47,9.86,8.17,3.58-7.35-6.06-12.9-9.86-8.17ZM39.37,97.77c3.51-2.46,1.2-14.58-6.65-11.08-6.35,2.84,1.03,15.02,6.65,11.08ZM39.4,121.62c-1.02-4.59-7.13-7.73-10.01-2.1-4.29,8.37,12.57,13.62,10.01,2.1ZM29.84,109.33c-1.81-6.12-14.32-3.16-7.05,5.69,4.85,5.9,8.71-.08,7.05-5.69ZM29.15,95.69c-1.36-5.95-8.76-4.26-8.76,1.9,0,7.82,11.13,8.43,8.76-1.9Z"/>
        <path class="cls-4" d="M65.25,94.32c0,1.31-1.76,4.38-2.83,5.03-5.71,3.49-12.99-7.72-6.49-11.94,4.89-3.18,9.29,2.26,9.32,6.91Z"/>
        <path class="cls-4" d="M65.66,98.12c.03-.11,1.6-1.43,1.71-1.48,9.52-3.71,12.88,13.32,3.89,12.94-5.37-.23-6.93-7.27-5.6-11.46Z"/>
        <path class="cls-4" d="M63.95,109.34c1.31,5.85-5.64,10.44-9.44,5.33-3.32-4.47-2.25-12.38,4.42-11.29,1.46.24,4.7,4.53,5.02,5.96Z"/>
        <path class="cls-4" d="M53.03,97.74c1.55,5.25-.98,9.78-6.85,8.22-7.45-1.98-5.33-14.5,3.11-11.97.8.24,3.51,2.95,3.75,3.75Z"/>
        <path class="cls-4" d="M50.2,112.51c3.82,4.26,1.05,13.16-5.2,10.31-.93-.42-3.67-3.91-3.94-4.92-1.79-6.82,4.4-10.67,9.13-5.39Z"/>
        <path class="cls-4" d="M30.87,102.23c3.81-4.72,13.45.83,9.86,8.17-3.56,7.3-14.29-2.67-9.86-8.17Z"/>
        <path class="cls-4" d="M53.38,130.47c-1.08-1.01-2.33-4.49-1.96-5.95.8-3.15,3.14-5.68,6.71-4.62,8.11,2.41,3.23,18.02-4.75,10.56Z"/>
        <path class="cls-4" d="M75.52,84.11c2.13,11.53-9.74,8.45-10.11.51-.37-7.97,8.84-7.38,10.11-.51Z"/>
        <path class="cls-4" d="M49.61,129.8c2.55,11.27-8.47,8.79-9.94,2.44-2.13-9.2,8.61-8.28,9.94-2.44Z"/>
        <path class="cls-4" d="M39.37,97.77c-5.62,3.94-13-8.24-6.65-11.08,7.85-3.51,10.15,8.62,6.65,11.08Z"/>
        <path class="cls-4" d="M72.12,133.89c1.44,4.84-2.42,9.45-7.35,7.35-.56-.24-3.09-2.89-3.28-3.53-2.54-8.44,8.97-9.41,10.63-3.82Z"/>
        <path class="cls-4" d="M74.15,118.22c1.85,10.22-10.89,9.33-10.03-.07.6-6.51,8.97-5.79,10.03.07Z"/>
        <path class="cls-4" d="M39.4,121.62c2.55,11.53-14.3,6.27-10.01-2.1,2.89-5.63,9-2.49,10.01,2.1Z"/>
        <path class="cls-4" d="M56.04,72.86c2.22-1.28,6.48.13,7.52,2.75,4.79,12.02-11.18,10.53-9.73.88.07-.47,2.03-3.52,2.21-3.63Z"/>
        <path class="cls-4" d="M83.62,109.13c2.89,1.54,3.02,9.85-.4,11.02-9.57,3.26-9.34-16.22.4-11.02Z"/>
        <path class="cls-4" d="M52.36,84.13c.65,3.73-2.37,8.72-6.39,6.35-11.2-6.63,4.25-18.55,6.39-6.35Z"/>
        <path class="cls-4" d="M29.84,109.33c1.66,5.61-2.2,11.59-7.05,5.69-7.27-8.85,5.24-11.81,7.05-5.69Z"/>
        <path class="cls-4" d="M29.15,95.69c2.37,10.33-8.76,9.72-8.76,1.9,0-6.16,7.39-7.85,8.76-1.9Z"/>
        <path class="cls-4" d="M84.36,98.48c1.28,5.84-3.74,6.51-6.53,1.75-5.23-8.93,4.26-12.15,6.53-1.75Z"/>
        <path class="cls-4" d="M73.79,128.05c.17-.2.85-.11,1.2-.11l-1.36-1.01c4.52-6.64,12.4,1.22,7.17,5.8-3.39,2.96-8.68-2.73-7.01-4.68Z"/>
        <path class="cls-4" d="M57.1,142.79c-5.06,5.06-11.82-8.26-2.97-7.33,3.51.37,5.13,5.17,2.97,7.33Z"/>
        <path class="cls-2" d="M80.46,89.75c-1.15-.42-1.81-1.26-.68-2.05.02.11.62,1.96.68,2.05Z"/>
      </g>
    </g>
  </g>
</svg>