<?xml version="1.0" encoding="UTF-8"?>
<svg id="Layer_2" data-name="Layer 2" xmlns="http://www.w3.org/2000/svg" viewBox="0 0 185 185">
  <defs>
    <style>
      .cls-1 {
        fill: #6c5f79;
      }

      .cls-2 {
        fill: #78a015;
      }

      .cls-3 {
        fill: #251f2c;
      }

      .cls-4 {
        fill: none;
      }

      .cls-5 {
        fill: #6b900f;
      }

      .cls-6 {
        fill: #0d0d0d;
      }

      .cls-7 {
        fill: #fdfdfd;
      }
    </style>
  </defs>
  <g id="borxes">
    <rect class="cls-4" width="185" height="185"/>
    <g>
      <g>
        <g>
          <path class="cls-5" d="M105.77,34.82c2.91-.21,5.42,5.83,4.61,8.38.48.52,2.38-2.34,4.38.44,1.21,1.69,1.13,3.88,1.07,5.85,4.6-3.01,4.8,4.96,3.78,7.76,4.86-1.26,4.1,5.48,2.51,8.17,5.34-.77,2.69,5.07,1.68,7.97-.13-.03-.28.03-.42,0-1.33-.26-1.89-2.08-2.92-3.15-2.87-2.99-8.12-6.45-12.17-7.33l-2.52-28.09Z"/>
          <path class="cls-2" d="M105.77,34.82l2.52,28.09c-2.98-.64-8.78-.66-11.74,0-.49-3.43-6.37-12.88,1.25-10.9-.55-3.78-2.94-9.33,3.35-7.13-.41-2.64,1.48-9.83,4.61-10.06Z"/>
        </g>
        <g>
          <path class="cls-5" d="M38.69,38.18c2.79-1.77,11.6,1.79,14.05,4.19,1.24-4.63,6.1-.69,7.55,1.68,2-4.59,6.54-.49,7.76,2.51.77-.03.32-1.13,1-1.72,1.71-1.48,4.6,1.57,5.63,2.84.54.67.92,2.35,1.74,1.81.06-.04-.2-.77.8-1.07,3.91-1.17,5.66,5.69,6.12,5.68.25,0,.74-1.38,2-1.2,3.01.44,6.69,8.87,9.11,10.85-1.89.7-3.39,1.84-5.03,2.93-5.09,3.39-7.73,6.84-10.06,12.58-.07-1.13-.59-2.75-1.06-3.78-.14-.3-.36-1.58-1.03-.83-.2.22,1.77,4.78,2.1,5.45-.08.9-.81,2.14-.84,2.52l-39.83-44.44Z"/>
          <path class="cls-2" d="M78.52,82.62c-.35,4.23.16,8.5,1.26,12.58-6.81-3.29-14.26-6.2-22.01-5.45-.74.07-2.14.11-1.88,1.26-.78-.33-4-2.66-4.15-3.23-.28-1.08,1.03-1.7,1.62-2.43-2.89-1.64-8.8-3.86-4.18-7.33-3.17-.22-9.08-5.58-3.77-7.34-3.12-2.18-8.74-6.86-2.1-8.38-2.74-2.8-6.82-7.14-.42-8.38-1.88-1.97-3.2-4.75-3.99-7.33-.6-1.97-2.09-7.19-.2-8.39l39.83,44.44Z"/>
          <path class="cls-5" d="M79.78,95.19l4.61,7.96-5.03,1.68c-1.96-2.56-5.65-5.53-8.8-6.29-8.57-3.72-19.39-1.43-25.99,5.03-3.84-1.34-8.62-2.5-11.74-5.03,1.75-2.24,5.05-3,7.77-2.96.67.01,2.93.66,3.13.44.1-.11-.19-1.43.2-2.1,1.01-1.73,5.92,0,7.34.84-.62-6.46,8.01.12,9.64-1.26-.33-1.98-3.37-1.81-5.03-2.51-.25-1.15,1.14-1.19,1.88-1.26,7.75-.75,15.21,2.16,22.01,5.45Z"/>
          <path class="cls-2" d="M44.56,103.58c-.82.8-3.72,4.18-4.19,5.03-2.35-.83-8.14-6.36-8.29-8.67-.05-.8.38-.92.74-1.39,3.12,2.53,7.9,3.69,11.74,5.03Z"/>
          <path class="cls-2" d="M79.36,80.1c-.32-.67-2.29-5.23-2.1-5.45.67-.74.89.53,1.03.83.48,1.02,1,2.64,1.06,3.78.02.27.02.57,0,.84Z"/>
        </g>
      </g>
      <g>
        <path class="cls-2" d="M151.04,46.56c-3.4,14.35-11.71,26.85-20.46,38.46l1.14,8.24c-.36,1.25-2.59.16-3.32,1.1-.14,0-.28,0-.42,0,.12-1.34-.17-2.89,0-4.19.13-1.04,1.29-2.64.63-3.77-1.59,1.82-3.09,4.42-5.03,5.87-2.51,1.87-6.24,2.85-9.02,4.4-3.89,2.16-7.2,5.21-10.05,8.6-.59-.36-4.36-2.45-4.61-2.52.78.18,1.05-.72,1.26-.84,7.62-4.2,13.45-9.02,19.7-15.09.95-.92,2.27-1.43,2.52-2.93,1.83-.79,2.1-2.5,2.93-3.77,1.27-1.94,2.05-.86,2.87-1.33.19-.11,1.04-2.35.9-2.87-.22-.21-5.32.84-5.91,1.02-.84.26-.77,1.04-1.08,1.09-.59.09-2.47-.36-3.19-.54-.52-.13-.67-.71-.72-.73.05-2.12,4.77-.83,4.19-3.35.13.03.29-.03.42,0,2.13.53,6.75,1.5,8.59,0,.64-.52,4.22-6.49,4.89-7.68,3.48-6.14,6.1-12.8,8.42-19.46,1.63-.88,3.87-.76,5.35.31Z"/>
        <path class="cls-5" d="M132.6,94.35c-1.24-.16-2.87.02-4.19,0,.74-.94,2.97.15,3.32-1.1l-1.14-8.24c8.74-11.61,17.06-24.1,20.46-38.46.64.47.99.7,1.17,1.56.57,2.7-2.88,10.47-4.16,13.26-4.04,8.78-9.8,16.58-15.71,24.16l.25,8.81Z"/>
        <path class="cls-5" d="M127.99,90.16c-.96.44-1.39,1.4-2.1,2.1-3.21,3.16-5.95,3.61-9.64,5.87-3.9,2.39-6.2,5.05-8.8,8.8-.13-.12-2.34-1.31-2.93-1.68,2.85-3.39,6.16-6.44,10.05-8.6,2.78-1.54,6.51-2.53,9.02-4.4,1.95-1.45,3.44-4.04,5.03-5.87.66,1.13-.5,2.73-.63,3.77Z"/>
        <path class="cls-3" d="M116.25,98.13c-1.28,1.62-3.14,3.06-4.37,4.65-.7.91-2.91,5.05-3.17,5.22-1.14.75-1.07-.88-1.27-1.06,2.6-3.76,4.9-6.41,8.8-8.8Z"/>
        <path class="cls-7" d="M127.99,94.35c-.84-.02-1.68.02-2.52,0l.42-2.09c.7-.69,1.14-1.66,2.1-2.1-.17,1.3.12,2.85,0,4.19Z"/>
        <path class="cls-5" d="M119.18,76.75s.2.6.72.73c.72.18,2.6.63,3.19.54.31-.05.24-.83,1.08-1.09.59-.18,5.69-1.23,5.91-1.02.14.52-.71,2.75-.9,2.87-.82.47-1.6-.62-2.87,1.33-2.19-.49-9.21,2.27-8.8-1.68.04-.35.81-1.48,1.26-1.68.14,0,.33-.03.42,0Z"/>
        <path class="cls-2" d="M118.76,76.75c-.45.2-1.22,1.33-1.26,1.68-.08-1.05.11-1.66,1.26-1.68Z"/>
      </g>
      <g>
        <g>
          <path class="cls-6" d="M108.28,62.91c4.05.87,9.3,4.34,12.17,7.33,1.04,1.08,1.6,2.89,2.92,3.15.58,2.52-4.14,1.23-4.19,3.35-.09-.03-.28,0-.42,0-1.14.02-1.34.63-1.26,1.68-.4,3.95,6.61,1.18,8.8,1.68-.83,1.27-1.11,2.99-2.93,3.77.06-.37.24-4.09-.83-2.94-.21.22-1.57,5.05-1.68,5.87-6.25,6.07-12.08,10.89-19.7,15.09l-11.41-1.37c-1.08-.24-5.34-1.46-6.01-1.95-1.43-1.07-3.45-9.27-3.51-11.2s.44-6.3,1.11-8.01c.21-.53.24-1.23.95-1.35-1.48,6.37.96,13.17,8.56,12.12,6.83-.94,10.9-11.54,7.88-17.44-.5-.98-2.13-2.08-2.18-2.22-.27-.74.49-2.36-1.13-2.85-2.39-.72-2.45.89-3.06,1.18-2.2,1.02-2.24.3-4.19,2.1-1.43,1.32-3.08,1.73-3.77,3.35-1.3.11-.9-.23-.44-1.07,1.43-2.59,3.66-4.22,5.47-6.48,1.64-1.09,3.14-2.23,5.03-2.93.5-.19,1.88-.79,2.1-.84,2.96-.66,8.76-.64,11.74,0ZM105.23,64.68c-1.77.4-2.48,1.79-2.43,3.48.17,6.24,14.23,11.54,15.47,5.77,1.19-5.54-8.17-10.35-13.04-9.25Z"/>
          <path class="cls-3" d="M89.42,66.68c-1.8,2.26-4.04,3.89-5.47,6.48-.46.83-.87,1.18.44,1.07-.93,2.16-1.75,6.48.94,7.65,6.45,2.79,12.67-12.11,2.83-11,1.95-1.8,2-1.07,4.19-2.1-.36,2.79,2.35,3.28,4.19,1.68.05.15,1.68,1.25,2.18,2.22,3.03,5.91-1.05,16.5-7.88,17.44-7.6,1.05-10.04-5.75-8.56-12.12-.71.12-.75.82-.95,1.35-.66,1.71-1.16,6.12-1.11,8.01s2.07,10.14,3.51,11.2c.67.5,4.93,1.71,6.01,1.95l11.41,1.37c-.21.11-.48,1.02-1.26.84-2.66-.63-11.16.05-13.93.95-11.72,3.8-18.65,16.87-16.25,28.81-.36-.08-.86.05-1.26,0-.1-1.12-.74-2.71-.83-3.99-.68-9.93,3.84-18.01,11.73-23.68l5.03-1.68-4.61-7.96c-1.1-4.07-1.61-8.34-1.26-12.58.03-.37.76-1.62.84-2.52.02-.27.02-.57,0-.84,2.33-5.74,4.97-9.19,10.06-12.58Z"/>
          <path class="cls-3" d="M105.23,64.68c4.87-1.1,14.22,3.7,13.04,9.25-1.24,5.77-15.29.47-15.47-5.77-.05-1.69.66-3.08,2.43-3.48Z"/>
          <path class="cls-1" d="M84.39,74.23c.69-1.62,2.34-2.03,3.77-3.35,9.84-1.11,3.62,13.79-2.83,11-2.69-1.16-1.87-5.49-.94-7.65Z"/>
          <path class="cls-1" d="M96.55,70.46c-1.84,1.6-4.55,1.11-4.19-1.68.61-.28.67-1.9,3.06-1.18,1.62.49.86,2.11,1.13,2.85Z"/>
          <path class="cls-3" d="M120.86,86.81c.11-.82,1.47-5.65,1.68-5.87,1.07-1.16.9,2.56.83,2.94-.25,1.5-1.56,2.01-2.52,2.93Z"/>
        </g>
        <g>
          <g>
            <path class="cls-6" d="M125.89,92.26l-.42,2.09c.84.02,1.68-.02,2.52,0,.14,0,.28,0,.42,0,1.32.02,2.96-.16,4.19,0,27.05,3.59,27.56,45.55-1.26,48.21-.23-1.08.52-.86,1.15-1.14,8.33-3.73,17.51-9.51,18.13-19.62.07-1.08-.48-8.19-.83-8.59-.6-.7-.74.25-.94.54-.98,1.49-1.39,3.67-2.26,5.28-5.39,10.02-13.01,15.08-24.68,14.3-2.14-.14-4.44-1-6.65-.85-.42.1-1.18,3.04-1.53,3.79-.24.51-.33,1.09-.42,1.26-6.42,12.35-23.4,16.45-34.93,8.73-1.21-.81-2.76-2.71-3.64-3.28-.09-.68.42-1.52.42-2.1,17.23,18.25,45.05,0,37.73-23.06l-2.99,6.86c-7.21,15.02-20.52,17.5-35.57,12.43-.58-1.28-3.21-4.31-4.61-4.61-2.4-11.95,4.54-25.02,16.25-28.81,2.77-.9,11.27-1.58,13.93-.95.26.06,4.03,2.16,4.61,2.52s2.81,1.56,2.93,1.68c.2.18.13,1.81,1.27,1.06.25-.17,2.47-4.31,3.17-5.22,1.23-1.59,3.08-3.03,4.37-4.65,3.69-2.26,6.43-2.71,9.64-5.87ZM134.15,98.64c-.52.15-1.31.94-1.46,1.46-1.77,6.05,10.03,13.27,12.94,9.17,3.2-4.52-6.19-12.16-11.47-10.63ZM122.96,99.8c-1.93.22-3.22.2-5.16.94-.66.25-1.29.16-1.13,1.16-1.35.55-3.28,2.77-3.77,4.19-1.04-.22-.89.49-1.15,1.14-1.66,4.16-.65,3.17.94,6.4.47.94,2.21,5.18,2.5,5.47,1.72,1.76,7.04-.85,8.62-2.3,3.49-3.2,4.91-8.28,3.54-12.8-.2-.65-.89-1.18-1.04-1.68-.44-1.43,1-3.06-1.89-2.96-.64.02-1.12.4-1.46.44ZM92.77,107.77c-1.3-.99-.31-1.44-2.93-1.68-9.64-.85-22.47,10.37-15.86,19.43,8,10.96,31.59-6.35,19.84-17.34-.34-.32-.89-.29-1.05-.41ZM103.14,108.25c-4.17.8-2.82,12.68,1.67,13.68,6.82,1.53,4.06-14.78-1.67-13.68Z"/>
            <path class="cls-3" d="M113.73,136.28c.35-.75,1.12-3.69,1.53-3.79,2.21-.15,4.5.71,6.65.85,11.67.78,19.29-4.28,24.68-14.3.86-1.6,1.28-3.79,2.26-5.28.19-.29.33-1.24.94-.54.35.4.9,7.51.83,8.59-.62,10.11-9.79,15.89-18.13,19.62-.62.28-1.37.06-1.15,1.14-.28.03-.56-.02-.84,0l-.21-.41-.21.41c-1.4.13-2.56-.15-3.77,0-.02-2.03-1.97-3.4-3.62-4.14-3.4-1.53-5.99-.05-8.96-2.15Z"/>
            <path class="cls-1" d="M126.31,142.56c-1.39.18-5.69,1.94-6.83,1.62-1.02-.28-3.67-6.54-6.17-6.65.09-.17.18-.75.42-1.26,2.97,2.1,5.56.62,8.96,2.15,1.65.74,3.6,2.11,3.62,4.14Z"/>
            <path class="cls-6" d="M130.5,142.56c-.14.01-.28-.01-.42,0l.21-.41.21.41Z"/>
            <path class="cls-3" d="M122.96,99.8c-1.48,2.83,1.07,4.21,3.35,2.52.15.5.85,1.02,1.04,1.68,1.36,4.52-.05,9.6-3.54,12.8-1.59,1.45-6.9,4.06-8.62,2.3-.29-.29-2.03-4.53-2.5-5.47-1.6-3.23-2.61-2.24-.94-6.4.26-.65.11-1.36,1.15-1.14-1.97,5.69,3.76,7.29,7.34,3.36s2.05-9.86-3.57-7.55c-.16-.99.47-.9,1.13-1.16,1.93-.74,3.23-.72,5.16-.94Z"/>
            <path class="cls-3" d="M134.15,98.64c5.28-1.53,14.67,6.11,11.47,10.63-2.91,4.1-14.71-3.12-12.94-9.17.15-.52.94-1.31,1.46-1.46Z"/>
            <path class="cls-1" d="M112.9,106.09c.49-1.42,2.42-3.64,3.77-4.19,5.62-2.31,7.08,3.7,3.57,7.55s-9.31,2.33-7.34-3.36Z"/>
            <path class="cls-1" d="M126.31,102.32c-2.28,1.7-4.83.31-3.35-2.52.34-.04.82-.42,1.46-.44,2.89-.1,1.46,1.53,1.89,2.96Z"/>
          </g>
          <g>
            <g>
              <path class="cls-1" d="M69.72,132.5c1.41.31,4.03,3.33,4.61,4.61.45.98.83,2.67.84,3.77,0,.57-.51,1.41-.42,2.1-.59-.39-1.4-.51-2.1-.42.22-.85-1.65-1.62-2.52-2.1-.57-.32-1.71-.15-2.04-1.12-.35-1.05.34-2.66.36-3.91.02-.94.08-2.02,0-2.93.4.05.9-.08,1.26,0Z"/>
              <path class="cls-3" d="M75.17,140.89c0-1.1-.39-2.79-.84-3.77,15.05,5.07,28.36,2.6,35.57-12.43l2.99-6.86c7.33,23.06-20.49,41.31-37.73,23.06Z"/>
              <path class="cls-3" d="M89.84,106.09c-3.64,3.52,2.81,6.39,2.93,1.68.16.12.71.09,1.05.41,11.75,11-11.84,28.3-19.84,17.34-6.61-9.05,6.22-20.28,15.86-19.43ZM82.6,109.55c-5.94.97-7.86,10.47-1.04,9.45,6.4-.96,9.27-10.8,1.04-9.45Z"/>
              <path class="cls-3" d="M103.14,108.25c5.73-1.09,8.48,15.21,1.67,13.68-4.49-1.01-5.83-12.89-1.67-13.68Z"/>
              <path class="cls-1" d="M92.77,107.77c-.12,4.72-6.57,1.84-2.93-1.68,2.62.23,1.63.69,2.93,1.68Z"/>
              <path class="cls-1" d="M82.6,109.55c8.23-1.35,5.35,8.49-1.04,9.45-6.82,1.02-4.9-8.47,1.04-9.45Z"/>
            </g>
            <g>
              <path class="cls-3" d="M70.55,98.55c-10.85-2.59-22.96,1.59-28.43,11.61-2.03,3.72-1.16,4.88.43,8.63,4.63,10.93,13.51,18.05,25.9,16.65-.02,1.25-.71,2.86-.36,3.91.32.97,1.46.8,2.04,1.12.06,1.09-.6,1.07-1.34,1.39-5.03,2.14-12.09.66-17.1-1.18-2.7-1-5.15-3.05-7.97-3.55-.88-1.02-2.33-3.63-2.52-3.77,2.64-2.73.3-10.51-3.77-10.48.57-5,.29-9.45,2.93-14.25.47-.85,3.37-4.23,4.19-5.03,6.6-6.46,17.42-8.75,25.99-5.03Z"/>
              <path class="cls-6" d="M70.13,140.47c.87.48,2.73,1.24,2.52,2.1-1.15.15-3.26,1.42-4.7,1.79-9.08,2.36-18.13-.21-24.22-7.24,2.82.51,5.27,2.56,7.97,3.55,5,1.85,12.06,3.33,17.1,1.18.74-.32,1.4-.29,1.34-1.39Z"/>
              <path class="cls-1" d="M41.21,133.34c-.09-.07-.93.05-1.47-.4-.62-.52-3.8-3.3-3.91-3.68-.43-1.48,1.41-4.66,1.61-6.4,4.07-.03,6.41,7.75,3.77,10.48Z"/>
              <path class="cls-6" d="M70.55,98.55c3.16.75,6.84,3.73,8.8,6.29-7.89,5.67-12.41,13.75-11.73,23.68.09,1.28.73,2.87.83,3.99.08.91.02,2,0,2.93-12.39,1.4-21.27-5.72-25.9-16.65-1.59-3.75-2.46-4.91-.43-8.63,5.47-10.02,17.58-14.2,28.43-11.61ZM60.07,101.48c-.78.08-1.5-.17-2.93,0-2.52.3-4.75-.09-6.71,2.1-3.14.44-5.7,5.71-5.43,8.54,1.02,10.9,20.43,5.77,19.23-5.78-.08-.76-.83-2.1-.81-2.35.05-.54,2.1-2.47-.44-3.58-1.48-.65-2.2.99-2.92,1.06Z"/>
              <path class="cls-3" d="M60.07,101.48c-.12,2,1.5,3.33,3.35,2.52-.02.24.73,1.59.81,2.35,1.19,11.54-18.21,16.68-19.23,5.78-.27-2.83,2.3-8.11,5.43-8.54-1.56,1.74-2.17,4.99.31,6.19,5.14,2.48,13.28-4.86,6.4-8.29,1.43-.17,2.16.08,2.93,0Z"/>
              <path class="cls-1" d="M57.14,101.48c6.87,3.42-1.26,10.77-6.4,8.29-2.48-1.2-1.87-4.45-.31-6.19,1.96-2.19,4.18-1.8,6.71-2.1Z"/>
              <path class="cls-1" d="M63.43,104c-1.85.82-3.48-.52-3.35-2.52.72-.07,1.44-1.71,2.92-1.06,2.53,1.11.48,3.04.44,3.58Z"/>
            </g>
          </g>
        </g>
      </g>
    </g>
  </g>
</svg>