<?xml version="1.0" encoding="UTF-8"?>
<svg id="Layer_2" data-name="Layer 2" xmlns="http://www.w3.org/2000/svg" viewBox="0 0 185 185">
  <defs>
    <style>
      .cls-1 {
        fill: none;
      }

      .cls-2 {
        fill: #5763b5;
      }

      .cls-3 {
        fill: #79af5e;
      }

      .cls-4 {
        fill: #5e9043;
      }

      .cls-5 {
        fill: #364579;
      }

      .cls-6 {
        fill: #253357;
      }
    </style>
  </defs>
  <g id="borxes">
    <rect class="cls-1" width="185" height="185"/>
    <g>
      <g>
        <path class="cls-2" d="M137.36,87.87c20.03,10.27,28.44,36.86,16.25,56.29-23.61,37.63-87.55,22.51-85.24-21.8.41-7.88,3.72-16.67,8.62-22.79,1.12-1.39,11.53-11.94,12.31-12.33,1.42-.7,16.82-3.9,19.26-4.15,8.23-.83,21.42.99,28.8,4.78ZM118.88,92.8c-2.24-7.97-11.84-5.75-13.55,1.23-5.65,1.95-3.76,3.4-5.63,7.3-.6,1.26-2.97,2.79-2.97,3.17s4.59,5.36,4.9,5.55c-7.76,18.91,8.32,5.68,14.28,4.96,5.52-.67,10.63,3.84,15.71,2.27,3.54-1.09.11-6.19-.42-9.68-.18-1.16.16-2.52,0-3.7,5.84-.69,6.99-7.26,1.54-9.53-3.41-1.42-6.28-.17-7.7-.33-2.01-.23-3.97-1.23-6.16-1.23Z"/>
        <path class="cls-6" d="M118.88,92.8c2.19,0,4.15,1,6.16,1.23,4.81,4.58,5.27,3.18,6.16,9.86.16,1.18-.18,2.53,0,3.7-6.86,4.22-13.24,5.96-21.49,4.85-.68-.09-7.72-2.17-8.08-2.39-.32-.19-4.91-5.18-4.9-5.55s2.37-1.91,2.97-3.17c1.87-3.9-.02-5.35,5.63-7.3,3.97-1.37,9.34-1.24,13.55-1.23Z"/>
        <path class="cls-5" d="M131.2,107.58c.53,3.5,3.96,8.59.42,9.68-5.08,1.57-10.18-2.93-15.71-2.27-5.96.72-22.04,13.95-14.28-4.96.36.22,7.4,2.3,8.08,2.39,8.24,1.11,14.62-.63,21.49-4.85Z"/>
        <path class="cls-5" d="M131.2,103.88c-.89-6.68-1.35-5.27-6.16-9.86,1.42.16,4.28-1.09,7.7.33,5.45,2.27,4.3,8.84-1.54,9.53Z"/>
        <path class="cls-5" d="M118.88,92.8c-4.21,0-9.58-.14-13.55,1.23,1.71-6.98,11.31-9.2,13.55-1.23Z"/>
      </g>
      <g>
        <path class="cls-2" d="M142.28,81.71c-10.66-4.47-21.39-6.71-33.07-6.36-2.58-6.57-10.2-19.57-18.67-17.05,1.59-8.12,14.54-18.26,22.17-19.71,20.83-3.95,46,15.74,34.53,37.6-1.6,3.04-3.51,3.72-4.96,5.52ZM120.2,58.21c.21.29,4.91,1.21,6.72,2.52,2.64,1.92,4.15,7.49,7.35,7.47,1.64,0,7.75-6.08,10.46-6.89-2.09-3.44-7.38-14.76-10.46-15.33-3.68-.68-7.98.02-11.69-1.24,1.95,3.76-3.93,11.25-2.38,13.46Z"/>
        <path class="cls-6" d="M120.2,58.21c-1.55-2.21,4.33-9.7,2.38-13.46,3.71,1.25,8.01.55,11.69,1.24,3.08.57,8.37,11.9,10.46,15.33-2.7.8-8.81,6.88-10.46,6.89-3.2.02-4.71-5.55-7.35-7.47-1.8-1.31-6.51-2.23-6.72-2.52Z"/>
        <g>
          <path class="cls-2" d="M57.28,52.14c8.34-1.02,16.97.49,24.64,3.7,2.69,1.12,4.86,4.4,8.62,3.7.52,4.82,11.86,12.52,9.86,19.71-21.62,1.34-38.69,21.46-35.73,43.12-49.56.21-51.61-64.82-7.39-70.22ZM53.59,60.77c-.95.27-2.52,1.85-3.7,2.46-.97.51-3.3-.4-5.03,1.73-4.48,5.51,3.02,4.38,5.13,7.42,1.78,2.55.35,7.08,3.11,8.03,3.46,1.19,6.1-2.96,9.78-3.56,3.67-.6,11.73.96,14.16-.63s-.18-5.11-.07-7.45c.13-2.77,2.87-8.01.08-9.93-1.83-1.26-7.3-.19-10.27-.81-5.07-1.06-9.8-7.53-13.21,2.73Z"/>
          <path class="cls-4" d="M85.62,33.67c-.83,7.81-5.34,13.8-3.7,22.17-7.67-3.21-16.3-4.71-24.64-3.7-4.1-10.37-7.21-20.67-6.17-32.04,3.33-3.3,31.86,7.27,34.5,13.56Z"/>
          <path class="cls-5" d="M90.54,58.3c8.47-2.52,16.1,10.47,18.67,17.05,11.68-.35,22.41,1.89,33.07,6.36-1.08,1.34-1.67,4.92-4.93,6.16-7.38-3.78-20.57-5.61-28.8-4.78-2.44.25-17.84,3.45-19.26,4.15-.78.39-11.19,10.94-12.31,12.33-4.9,6.12-8.21,14.91-8.62,22.79-1.23,0-2.46,0-3.7,0-2.96-21.66,14.11-41.79,35.73-43.12,2-7.18-9.34-14.89-9.86-19.71-.04-.36-.07-.89,0-1.23Z"/>
          <path class="cls-3" d="M85.62,33.67c8.79-4.91,15.66-15,27.11-13.56v18.48c-7.64,1.45-20.58,11.59-22.18,19.71-.07.35-.04.87,0,1.23-3.76.71-5.94-2.57-8.62-3.7-1.65-8.37,2.86-14.37,3.7-22.17Z"/>
          <path class="cls-6" d="M49.89,63.23c1.18-.62,2.75-2.19,3.7-2.46,21.89-6.2,28.37,12.38,10.52,13.62-7.97.55-15.31-1.86-14.22-11.15Z"/>
          <path class="cls-5" d="M53.59,60.77c3.41-10.27,8.13-3.79,13.21-2.73,2.97.62,8.44-.45,10.27.81,2.79,1.92.05,7.16-.08,9.93-.11,2.33,2.61,5.79.07,7.45s-10.49.02-14.16.63c-3.68.6-6.33,4.74-9.78,3.56-2.76-.95-1.33-5.48-3.11-8.03-2.12-3.04-9.61-1.91-5.13-7.42,1.73-2.13,4.06-1.22,5.03-1.73-1.09,9.3,6.24,11.7,14.22,11.15,17.84-1.23,11.36-19.82-10.52-13.62Z"/>
        </g>
      </g>
    </g>
  </g>
</svg>