<?xml version="1.0" encoding="UTF-8"?>
<svg id="Layer_2" data-name="Layer 2" xmlns="http://www.w3.org/2000/svg" viewBox="0 0 185 185">
  <defs>
    <style>
      .cls-1 {
        fill: #450107;
      }

      .cls-2 {
        fill: #e7d3d5;
      }

      .cls-3 {
        fill: #6c323f;
      }

      .cls-4 {
        fill: none;
      }

      .cls-5 {
        fill: #a6a27f;
      }

      .cls-6 {
        fill: #52020e;
      }

      .cls-7 {
        fill: #fcfcfb;
      }

      .cls-8 {
        fill: #3e1219;
      }

      .cls-9 {
        fill: #4d0b16;
      }

      .cls-10 {
        fill: #989f69;
      }

      .cls-11 {
        fill: #c6969a;
      }

      .cls-12 {
        fill: #887a5b;
      }

      .cls-13 {
        fill: #6a202c;
      }

      .cls-14 {
        fill: #9a535d;
      }

      .cls-15 {
        fill: #360209;
      }

      .cls-16 {
        fill: #52141f;
      }
    </style>
  </defs>
  <g id="borxes">
    <rect class="cls-4" width="185" height="185"/>
  </g>
  <g id="flavours">
    <g>
      <g>
        <path class="cls-6" d="M93.6,104.45l.43,1.28c-1.02,1.1-5.32,8.04-5.43,9.25-.03.32.31.52.31.56-.03.56,0,1.14,0,1.71,0,.14,0,.28,0,.43-1.58-.15-.66.54-.43,1.28.12.37-.14.99.43,1.28.03,1.27-.53,4.19.85,4.69.12.04.29-.04.43,0-.18,1.01.28.71.85.85-.1,1.71.74.43.85.43.42-.03.88.06,1.28,0,.23,1.68.38.46.85.43,1.27-.09,2.57.06,3.84,0,2.17-.1,2.83-.2,5.12-.85-.17,1.51.24,5.01,1.24,6.12.57.64,3.18.32,3.88,1.55-.15.05-.59,1.04-1.94,1.25-3.16.5-6.3-1.34-9.14.45-.27-.04-.57,0-.85,0-1.09-.03-4.47.05-5.08.9-.1.13.08,3.41,1.25,2.94.09,1.03.53,1.39.85,2.13.56,1.29,1.25,3.18,2.56,3.41.35.06,1.15-.11,1.27,0,.16.16-.11,1.02,0,1.27l-.43,1.28c-3.78-2.44-5.47-4.53-7.67-8.53-.56-1.03-1.79-2.84-2.13-3.84-1.4-4.07-1.99-10.16-1.71-14.5.15-2.29.58-4.65,1.28-6.82.36-1.12,1.45-2.07,1.28-3.41-2.49.49-3.3-.37-5.11-1.28-.13-.29-.29-.56-.43-.85,2.1.25,4.91,2.27,7,.89.49-.32.18-.79.25-.89.05-.07.29-.27.43-.43.19-.2.26-.69.43-.85.12-.12,2.42-2.03,2.56-2.13s.7.1.85,0ZM96.37,144.96v.43c.28-.14.28-.28,0-.43Z"/>
        <path class="cls-9" d="M111.51,150.07c.3-.64-.55-2.87-.43-2.98.2-.19,4.4-.53,4.69-2.56,1.07.7,4.33.36,5.14-.61.38-.45.38-1.47.81-1.75.74-.49,2.86,0,4.15-1.18.54-.49,3.81-5.98,4.06-6.81.38-1.22.19-1.84.33-2.87,1.16.23,1.04-.08,1.56-.78,3.16-4.28,3.84-11.55,1.18-16.24-.27-.47-2.15-2.74-2.56-2.98-1.51-.87-5.18-.97-4.43,1.66-.16-.11-.95.07-1.28,0-.02-.04-.57.11-.86-.29-.31-.42-.3-1.31-.83-1.64-1.36-.85-5.6,1.25-7.52,1.45-2.59.28-10.54-1.12-9.55-5.07.55.07,1.15-.05,1.71,0,.19.21,1.05.78,1.28.85-1.11,2.24.37,2.33,2.13,2.56,3.23.42,5.1.25,7.67-1.28.34-.2,1.49-.21,1.65-.48,1.32-2.13-3-4-4.21-5.07,0-.18,0-.81,0-.85h.43c13.05.97,21.51,9.53,19.99,23.19-.79,7.07-9.71,19.38-16.28,22.09-2.3.95-6.32,1.46-8.83,1.62Z"/>
        <path class="cls-16" d="M111.08,136.86c1.91.57.97,1.12,1.61,2.43.48.98,2.42,4.81,3.08,5.24-.29,2.03-4.49,2.37-4.69,2.56-.12.11.73,2.34.43,2.98-.42.03-.85-.01-1.28,0v-.43c-.01-.14.02-.29,0-.43-.44-3.45-3.5-6.34-4.68-9.6l-6.83-4.04c2.97-.13,6,1.69,7.03,1.68,1.56-.01,2.43-1.28,5.33-.4ZM110.23,143.25c.25-.94-.08-3.64-1.48-3.41s.18,3.87,1.48,3.41Z"/>
        <path class="cls-13" d="M98.72,135.58l6.83,4.04c1.18,3.26,4.24,6.16,4.68,9.6v.85c-3.26.08-6.21-.02-9.38-.85v-.85c.12.05.3-.04.43,0,1.05.36,2.3.76,3.41.85.7.06,1.43-.03,2.13,0,.8-.8-2.86-7.07-3.66-8.07-1.72-2.16-4.23-3.46-7.03-3.25-2.97.22-2.21.95-2.96,3.22-.32-.74-.77-1.11-.85-2.13-.31-3.71,1.42-2.2,3.84-2.56,1.08-.16,1.2-.83,1.28-.85.31-.08.88.02,1.28,0Z"/>
        <path class="cls-16" d="M100.85,148.37v.85c-2.37-.62-2.38-.91-4.26-2.13l.43-1.28c.27.57,3.05,2.24,3.84,2.56Z"/>
        <path class="cls-1" d="M118.76,119.37c-1.4-.04-5.6,1.47-6.17,2.57-1.12,2.16-1.69,9-1.08,11.5-.61-.07-3.02-.13-3.41,0-.69-1.23-3.31-.92-3.88-1.55-1-1.11-1.41-4.61-1.24-6.12.21-.06.57.08.84,0,.04-.28.02-.56.01-.84-.1-2.65-1.21-5.41-1.67-7.94-.11-.63.06-1.35-.03-1.86,2.75.81,4.82,2.63,7.93,2.96,2.83.3,4.94-1.77,7.64.02.55.36.74,1.01,1.05,1.28Z"/>
        <path class="cls-11" d="M94.03,126.2c-.28.03-.58-.04-.85,0-.2-1.46-1.44-.89-2.98-1.28-.14-.04-.31.04-.43,0,.66-3.44-.11-9.81,3.83-11.31.81-.31,4.98-1.19,5.67-.99,1.96.57,2.77,8.54,2.33,10.28-.76,2.98-5.31,2.41-7.57,3.3ZM97.78,121.41c.12-.07,1.66-2.2,1.71-2.33.46-1.5.05-4.22-1.84-4.39-.46-.04-3.99.57-4.3.81-2.35,1.83,1,7.92,4.43,5.92Z"/>
        <path class="cls-14" d="M91.89,112.55c.34-.14.79.04,1.5-.4,1.47-.91,1.96-4.09,3.83-4.29.67-.07,3.7.9,3.96,1.36.31.56-.02,1.82.12,2.65.06.35.38.58.4.68.07.39-.07.89,0,1.28.09.49.36.93.43,1.28.1.52-.08,1.23.03,1.86.46,2.53,1.58,5.29,1.67,7.94l-5.97,1.71c-1.27.06-2.57-.09-3.84,0v-.43c2.26-.89,6.81-.32,7.57-3.3.44-1.73-.37-9.71-2.33-10.28-.7-.2-4.86.68-5.67.99-3.93,1.5-3.17,7.87-3.83,11.31-1.38-.5-.82-3.42-.85-4.69,0-.31,0-.92,0-1.28,0-.43,0-.85,0-1.28,0-.14,0-.28,0-.43,1.42.28.66-.74.85-1.71.39-1.91.38-2.25,2.13-2.98Z"/>
        <path class="cls-9" d="M113.21,102.32c.04.39-.32.62-.43.85-1.38.03-3.68-.96-4.87-.05-.11.09-.74,2.47-1.1,2.61-1.03.41-2.55-.94-2.13,1.28-.25,0-.99.46-1.71.43-.07-1.84-1.92-1.47-2.36-2.11-.93-1.37,1.38-3.94-3.28-2.04-.83.34-2.7,1.78-3.31,2.45l-.43-1.28c6.15-3.93,12.59-5.32,19.61-2.13ZM106.35,101.5c-1.84-1.13-1.66,2.61.46,2.52.17-.19-.26-2.4-.46-2.52Z"/>
        <path class="cls-3" d="M93.17,141.12c.75-2.27-.01-3,2.96-3.22,2.8-.21,5.31,1.09,7.03,3.25.8,1,4.46,7.27,3.66,8.07-.7-.03-1.43.06-2.13,0,.11-1.93-2.95-7.71-4.37-8.68-1.78-1.22-3.81-.56-5.86-.7-.08,1.23-.02,2.77,1.28,3.41-.02.43.01.85,0,1.28-1.31-.23-2-2.12-2.56-3.41Z"/>
        <path class="cls-9" d="M111.51,133.44c2.39.26,2.45,1.49,2.98,1.71-.23,2.76-3.45-.65-3.41,1.71-2.9-.87-3.77.39-5.33.4-1.03,0-4.07-1.81-7.03-1.68-.4.02-.97-.08-1.28,0-.06-.19-.23-.4-.43-.43,2.84-1.79,5.98.04,9.14-.45,1.35-.21,1.79-1.2,1.94-1.25.39-.13,2.8-.07,3.41,0Z"/>
        <path class="cls-13" d="M94.03,105.73c.61-.67,2.48-2.11,3.31-2.45,4.66-1.9,2.35.67,3.28,2.04.44.65,2.29.27,2.36,2.11-3.05-.13-3.39-3.32-4.83-2.94-1.29.35-6.03,6.25-6.26,8.05-1.75.73-1.75,1.08-2.13,2.98h-.85s-.34-.24-.31-.56c.11-1.21,4.41-8.14,5.43-9.25Z"/>
        <path class="cls-12" d="M101.27,148.37c-.13-.04-.31.05-.43,0-.79-.32-3.57-1.99-3.84-2.56-.12-.25.15-1.11,0-1.27-.12-.12-.92.05-1.27,0,.01-.43-.02-.85,0-1.28s-.02-.86,0-1.28c3.59-.39,5.49,3.3,5.54,6.4Z"/>
        <path class="cls-9" d="M96.16,135.15v1.28c-2.42.36-4.14-1.16-3.84,2.56-1.17.47-1.34-2.81-1.25-2.94.61-.84,3.99-.93,5.08-.9Z"/>
        <path class="cls-3" d="M103.83,124.92c.01.28.03.56-.01.84-.27.09-.63-.05-.84,0-2.28.66-2.94.76-5.12.85l5.97-1.71Z"/>
        <path class="cls-14" d="M90.19,124.92c1.55.39,2.78-.18,2.98,1.28-.4.06-.86-.03-1.28,0-.17-.43-.52-.34-.85-.43-.57-.14-1.03.15-.85-.85Z"/>
        <path class="cls-3" d="M89.76,115.54c-.2.97.56,1.98-.85,1.71,0-.57-.03-1.14,0-1.71h.85Z"/>
        <path class="cls-16" d="M97.01,135.15c.19.03.37.23.43.43-.07.02-.2.69-1.28.85v-1.28c.28,0,.58-.04.85,0Z"/>
        <path class="cls-3" d="M88.91,120.23c-.57-.29-.31-.91-.43-1.28h.43c0,.36,0,.97,0,1.28Z"/>
        <path class="cls-13" d="M88.91,117.67c0,.43,0,.85,0,1.28h-.43c-.23-.74-1.15-1.43.43-1.28Z"/>
        <path class="cls-3" d="M91.89,126.2c-.11,0-.95,1.28-.85-.43.34.08.69,0,.85.43Z"/>
        <path class="cls-3" d="M94.03,126.2v.43c-.47.03-.62,1.25-.85-.43.27-.04.57.03.85,0Z"/>
        <path class="cls-3" d="M96.37,144.96c.28.14.28.28,0,.43v-.43Z"/>
        <path class="cls-16" d="M105.96,107.44c-.99,3.95,6.96,5.35,9.55,5.07,1.91-.21,6.16-2.3,7.52-1.45.53.33.52,1.22.83,1.64.3.4.84.25.86.29,1.14,1.75,2.46,4.93,3.49,6.98.31.62.2,1.34,1.2,1.12.05.41-.02.86,0,1.28.11,2.63.01,8.66-2.65,9.92-3.87,1.83-3.35-4.11-3.85-6.19-.36-1.5-1.85-4.5-2.03-5.44-.4-2.16,2.04-5.86-1.93-6-4.79-.17-8.09.94-13.35-.68-1.47-.45-1.84-1.99-3.48-1.85.19-1.11.88-3.94.85-4.69.72.03,1.45-.43,1.71-.43.21,0,.82.37,1.28.43Z"/>
        <path class="cls-8" d="M120.89,120.65c.17.94,1.66,3.94,2.03,5.44.5,2.08-.02,8.02,3.85,6.19,2.66-1.26,2.76-7.29,2.65-9.92,1.16-.25.84.58.99,1.34.49,2.59.21,5.02-.13,7.62-.14,1.03.05,1.65-.33,2.87-.26.83-3.53,6.31-4.06,6.81-1.29,1.18-3.41.69-4.15,1.18-.42.28-.43,1.3-.81,1.75-.82.97-4.08,1.31-5.14.61-.66-.43-2.6-4.26-3.08-5.24-.64-1.31.3-1.86-1.61-2.43-.04-2.35,3.18,1.05,3.41-1.71,1,.4,5.19-.66,5.99-1.47,1.12-1.14,1.05-6.03.84-7.7-.23-1.87-1.81-3.21-1.29-5.32.19.08.59-.05.85,0Z"/>
        <path class="cls-15" d="M126,112.98c-.75-2.63,2.92-2.53,4.43-1.66.41.24,2.29,2.5,2.56,2.98,2.67,4.69,1.98,11.96-1.18,16.24-.52.7-.4,1.01-1.56.78.35-2.59.62-5.03.13-7.62-.14-.76.17-1.59-.99-1.34-.02-.42.05-.87,0-1.28-.16-1.37-1.28-4.32-1.91-5.55-.18-.35-1.38-2.47-1.5-2.55Z"/>
        <path class="cls-15" d="M110.65,108.29c.99.29,3.36.76,2.98,1.71-.83.09-1.72-.06-2.56,0-.13-.58-.33-.98-.43-1.71Z"/>
        <path class="cls-15" d="M112.79,103.17c-.29.62-1.15,3.27-1.28,3.41-.67.71-1.17-.7-.85,1.71-.44-.13-1.26.13-1.71,0-.23-.07-1.09-.64-1.28-.85s-.35-1.38-.85-1.71c.35-.14.98-2.52,1.1-2.61,1.19-.91,3.49.08,4.87.05Z"/>
        <path class="cls-3" d="M116.2,104.02c1.21,1.06,5.52,2.94,4.21,5.07-.16.26-1.31.28-1.65.48-.45.22-1.2-.43-1.28-.43,1.97-1.84-.77-2.34-1.28-4.26,0-.14,0-.64,0-.85Z"/>
        <path class="cls-8" d="M126,112.98c.12.08,1.32,2.2,1.5,2.55.63,1.23,1.75,4.18,1.91,5.55-1.01.22-.9-.5-1.2-1.12-1.03-2.06-2.35-5.23-3.49-6.98.33.07,1.12-.11,1.28,0Z"/>
        <path class="cls-12" d="M117.48,109.14c.08,0,.82.64,1.28.43-2.57,1.53-4.44,1.7-7.67,1.28-.04-.27.06-.61,0-.85.84-.06,1.73.09,2.56,0,.68-.07,1.15-.41,1.28-.43.81-.1,1.97-.42,2.56-.43Z"/>
        <path class="cls-16" d="M110.65,108.29c.1.73.3,1.13.43,1.71.06.25-.04.58,0,.85-1.76-.23-3.24-.32-2.13-2.56.44.13,1.26-.13,1.71,0Z"/>
        <path class="cls-16" d="M111.51,106.58c.22,2.11,2.21,1.75,3.84,1.71-.16.27-.13.95-.43,1.28-.13.02-.6.36-1.28.43.38-.94-1.99-1.42-2.98-1.71-.32-2.41.18-.99.85-1.71Z"/>
        <path class="cls-3" d="M106.82,105.73c.5.33.66,1.49.85,1.71-.56-.05-1.16.07-1.71,0-.45-.06-1.07-.42-1.28-.43-.42-2.21,1.1-.87,2.13-1.28Z"/>
        <path class="cls-13" d="M110.23,143.25c-1.31.46-2.84-3.18-1.48-3.41s1.74,2.46,1.48,3.41Z"/>
        <path class="cls-9" d="M110.23,149.65v-.43c.02.14-.01.29,0,.43Z"/>
        <path class="cls-14" d="M95.73,143.25c-1.3-.64-1.36-2.18-1.28-3.41,2.05.14,4.08-.51,5.86.7,1.42.97,4.48,6.75,4.37,8.68-1.11-.09-2.36-.49-3.41-.85-.05-3.09-1.95-6.79-5.54-6.4-.02.42.02.85,0,1.28Z"/>
        <path class="cls-15" d="M118.76,119.37c.15.13.28.29.43.43.28.27.31.63.85.85-.52,2.11,1.06,3.45,1.29,5.32.21,1.68.28,6.56-.84,7.7-.8.81-4.99,1.87-5.99,1.47-.54-.21-.6-1.44-2.98-1.71-.62-2.5-.04-9.34,1.08-11.5.57-1.1,4.77-2.61,6.17-2.57Z"/>
        <path class="cls-6" d="M119.18,119.8c-.14-.14-.28-.3-.43-.43-.32-.27-.5-.92-1.05-1.28-2.71-1.79-4.82.28-7.64-.02-3.11-.33-5.19-2.16-7.93-2.96-.07-.35-.34-.78-.43-1.28,3.23.36,5.73,2.17,9.22,2.51,1.91.18,6.19-.57,7.1-.31,1.54.44,1.16,2.57,1.16,3.77Z"/>
        <path class="cls-2" d="M97.78,121.41c-3.43,2.01-6.78-4.09-4.43-5.92.31-.24,3.84-.85,4.3-.81,1.89.17,2.3,2.89,1.84,4.39-.04.14-1.58,2.26-1.71,2.33ZM94.93,119.32c1.47.92,4.86-2.6,1.45-2.96-1.17-.12-2.5-.11-2.16,1.32.04.19.64,1.59.71,1.63Z"/>
        <path class="cls-9" d="M120.89,120.65c-.26-.05-.67.08-.85,0-.55-.23-.57-.58-.85-.85,0-1.2.38-3.33-1.16-3.77-.91-.26-5.19.49-7.1.31-3.49-.34-5.99-2.15-9.22-2.51-.07-.39.07-.89,0-1.28.2-.06.39-.23.43-.43,1.64-.14,2.01,1.4,3.48,1.85,5.26,1.62,8.57.51,13.35.68,3.97.14,1.53,3.83,1.93,6Z"/>
        <path class="cls-3" d="M102.98,107.44c.03.75-.66,3.58-.85,4.69-.03.19-.23.37-.43.43-.02-.1-.34-.33-.4-.68-.14-.83.19-2.09-.12-2.65-.25-.46-3.29-1.43-3.96-1.36-1.88.2-2.37,3.38-3.83,4.29-.71.44-1.16.26-1.5.4.23-1.8,4.97-7.71,6.26-8.05,1.44-.38,1.78,2.81,4.83,2.94Z"/>
        <path class="cls-3" d="M106.35,101.5c.2.12.63,2.33.46,2.52-2.12.09-2.3-3.65-.46-2.52Z"/>
        <path class="cls-15" d="M117.48,109.14c-.59,0-1.75.33-2.56.43.29-.33.26-1.01.43-1.28,1.1-1.8.28-.82.41-2.38.05-.6.44-.98.44-1.04.51,1.92,3.25,2.42,1.28,4.26Z"/>
        <path class="cls-7" d="M94.93,119.32c-.08-.05-.67-1.45-.71-1.63-.34-1.44,1-1.45,2.16-1.32,3.41.35.02,3.88-1.45,2.96Z"/>
      </g>
      <g>
        <path class="cls-10" d="M109.37,78.02c-.03.47-.26.86-.43,1.28-.83,2.13-1.69,1.77-2.74,3.01-.5.6-.67,1.42-1.3,2.11-5.2,5.8-11.81,10.39-16.43,16.62-.43-.03-.7.38-.85.43-1.01.28-1.94.72-2.98.85.2-.54.24-1.76.42-2.13.03-.05.7-.7.85-.85,7.37-7.15,16.29-13.51,22.6-21.74.34-.02.66.37.85.43Z"/>
        <path class="cls-10" d="M124.72,72.9c-.08.75-.12,1.52.43,2.13-1.93,7.61-5.64,15.23-7.98,22.93-.49,1.62-1.46,3.66-.55,5.21h-.43c-.07-.31-.36-1.4-.85-1.28-.52,1.98-1.98,3.59-1.71.42.39-4.57,6.4-16.59,8.12-21.94.72-2.26,1.65-5.2,2.12-7.48h.85Z"/>
        <path class="cls-5" d="M118.76,60.54l-1.71.85c.84-4.87,1.1-9.27-.43-14.07,1.55.22,1.59.03,2.13-1.28,1.51,6.46,1.57,8.11,0,14.5Z"/>
        <path class="cls-10" d="M122.17,44.33c-.25,1.23,1.25,2.88-.43,2.56-.67-1.18-2.44-2.82-3.41-3.84-1.29-1.35-1.71-2.7-3.84-2.56.04-.36-.45-1.14-.43-1.28.05-.29,1.46-2.41,1.71-2.98,2.41,2.48,4.48,5.29,6.4,8.1Z"/>
        <path class="cls-12" d="M125.15,75.03c-.55-.61-.5-1.38-.43-2.13.34-3.35,1.26-6.93,1.29-10.45,0-.81.38-1.73-.87-1.49,0-.99-.01-1.99,0-2.98.77-.69.55-1-.43-.85,0-.57,0-1.14,0-1.71,0-.72.5-2.38.43-3.84,2.75,7.82,1.98,15.61,0,23.45Z"/>
        <path class="cls-5" d="M125.15,51.58c.08,1.46-.44,3.12-.43,3.84-1.15-2.62-1.56-6.02-2.98-8.53,1.67.32.18-1.32.43-2.56,1.9,2.79,2.79,3.55,2.98,7.25Z"/>
        <path class="cls-12" d="M118.76,60.54c-1.01,4.13-2.92,9.63-5.14,13.3-.46.75-2.32,2.4-2.97,3.33,1.24-2.59,3.4-5.6,4.26-8.53.1-.33-.08-.9,0-1.28,1.05.27,1.12-.83,1.28-1.71.09-.51-.11-1.22,0-1.71,1.01.13,1.15-.11.43-.85.12-.57.33-1.14.43-1.71l1.71-.85Z"/>
        <path class="cls-5" d="M114.92,68.64c-.86,2.93-3.03,5.94-4.26,8.53-.14.29-.3.56-.43.85-.27-.04-.62.06-.85,0-.19-.05-.51-.45-.85-.43,1.83-2.39,3.29-5.14,4.89-7.69.41-.65.48-1.32,1.51-1.27Z"/>
        <path class="cls-10" d="M117.9,43.48c.14.73.64,1.65.85,2.56-.54,1.31-.58,1.5-2.13,1.28-.21-.67-1.29-2.65-1.71-3.41.96-.95,1.79-.94,2.98-.43Z"/>
        <path class="cls-12" d="M114.49,40.5c2.12-.15,2.55,1.21,3.84,2.56-.26-.08-.46.24-.43.43-1.2-.51-2.02-.52-2.98.43-.47-.87-3.25-3.22-.43-3.41Z"/>
        <path class="cls-12" d="M114.07,39.22c-3.52.18-.7-3.74.65-4.26.86-.33.74.95,1.06,1.27-.24.58-1.65,2.69-1.71,2.98Z"/>
        <path class="cls-5" d="M116.2,65.65c-.16.87-.23,1.97-1.28,1.71.18-.87.21-1.97,1.28-1.71Z"/>
        <path class="cls-5" d="M116.62,63.09c.73.74.58.98-.43.85.15-.65.42-.81.43-.85Z"/>
        <path class="cls-12" d="M116.2,103.17s0,.67,0,.85c0,.21,0,.71,0,.85,0,.06-.39.44-.44,1.04-.13,1.56.69.58-.41,2.38-1.63.04-3.62.41-3.84-1.71.13-.14.99-2.79,1.28-3.41.11-.23.46-.47.43-.85h.43c-.27,3.16,1.19,1.56,1.71-.42.48-.13.78.96.85,1.28Z"/>
        <path class="cls-12" d="M85.07,100.19c-.19.37-.22,1.59-.42,2.13,1.04-.13,1.97-.57,2.98-.85-.28.38-.27.89-.43,1.28-.33.84-.76,1.82-1.28,2.56-1.94.14-3.75-.84-3.41-2.98.93-.38,1.93-1.1,2.13-2.13h.43Z"/>
        <path class="cls-12" d="M110.23,78.02c-.29.67.1,1.01-1.28,1.28.16-.42.4-.81.43-1.28.23.06.58-.04.85,0Z"/>
        <path class="cls-5" d="M125.15,60.96c1.25-.25.87.67.87,1.49-.03,3.52-.95,7.1-1.29,10.45h-.85c.74-3.59,1.29-8.29,1.28-11.94Z"/>
        <path class="cls-5" d="M124.72,57.12c.98-.15,1.19.16.43.85,0-.05-.42-.1-.43-.85Z"/>
        <g>
          <path class="cls-6" d="M71.85,92.51c-3.17.28-11.98,5.1-13.89,7.65-.63.84-.43.91-.61,1.73-.06.26.06.6,0,.85-.03.13.03.29,0,.43-1.38-.39-1.83,1.18-2.35,2.13-2.12,3.83-1.95,4.76,1.54,7.43,3.16,2.42,6.32,3.14,10.2,3.66-.35.45-1.83,5.73-1.74,6.13,1.43.19,1.64,1.46,1.74,1.54-.73.15-1.45-.59-1.73.62-.11.49.34.79-.62.66-1.21-.16-1.87-1.91-2.79-2.34-.7-.33-1.26-.1-1.68-.22-.56-.16-1.14-.3-1.71-.43.21-1.05-.47-.93-1.17-1.15-.95-.3-4.79-1.52-5.25-1.22-.4.26-.27.86-.4,1.09-1.05,1.96-.95,3.17-.85,5.35.04.82-.44,1.71.85,1.47,0,.07.44.48.43,1.28,0,.29-1.32,1.51.43,1.28.04.78.35,1.2.43,1.71s-.06,1.16,0,1.71c-.24-.31-.66-.57-.85-.85.1-.91.05-.96-.85-.85-3.5-5.89-3.24-14.56-1.58-20.98,2.68-10.42,10.88-19.74,22.48-18.67Z"/>
          <path class="cls-16" d="M58.21,122.36c.57.13,1.15.27,1.71.43.45,1.52,3.51,4.27,4.81,4.81,1.07.45,1.7-.12,2.46.07.94.23,1.76.88,2.54,1.09.41,2.42-.08,4.86.53,7.36.33,1.35,1.37,2.73,1.6,4.16-2.92-.22-5.58.86-5.18-3.35l-2.92-1.33-.43,5.54c-1.05-.46-1.63-.81-2.56-1.28.81-.41.82-.59.88-1.45.3-4.38.05-12.55-4.55-14.7-.58-.27-3.81-1.32-4.24-1.3-1.52.06-1.37,1.53-1.47,2.54-.03.28,0,.57,0,.85,0,.71-.03,1.43,0,2.13-1.3.24-.82-.65-.85-1.47-.1-2.18-.2-3.39.85-5.35,2.26.43,4.59.78,6.82,1.28Z"/>
          <path class="cls-9" d="M63.33,141.12l.43-5.54,2.92,1.33c-.4,4.21,2.25,3.14,5.18,3.35.66.05,1.35.44,2.13.43.02,1.54,1.94,1.44,2.13,2.98-6.31,1.03-7.47-.21-12.79-2.56Z"/>
          <path class="cls-1" d="M88.91,138.56c-2.99,1.24-5.41,2.71-8.53,3.84-.82-.07-1.85-.1-2.13.85-.59.16-1.5.32-2.13.43-.2-1.54-2.11-1.44-2.13-2.98,5.09-.08,9.63-1.95,12.79-5.97.34,1,1.57,2.81,2.13,3.84Z"/>
          <path class="cls-13" d="M51.39,124.92c.11-1.01-.05-2.47,1.47-2.54.43-.02,3.65,1.03,4.24,1.3,4.6,2.15,4.85,10.32,4.55,14.7-.06.86-.07,1.05-.88,1.45-.57-.29-1.13-.56-1.71-.85.89-3.47.92-11.48-2.41-13.58-1.66-1.05-3.57-1.67-5.27-.49Z"/>
          <path class="cls-14" d="M51.39,125.77c8.05-.59,5.85,6.17,6.82,11.51-.57,0-1.14,0-1.7,0-.14,0-.29.02-.43,0,.02-.43.02-.87-.22-1.25s-1.27-1.89-1.49-2.16c1.51.06,1.17.25,1.28-1.04.2-2.31-.01-4.27-2.56-4.92-.02.85.02,1.71,0,2.56-.3-.26-.57-.56-.85-.85-.14-.14-.27-.29-.43-.43.01-.8-.42-1.21-.43-1.28-.03-.7,0-1.42,0-2.13Z"/>
          <path class="cls-3" d="M59.06,138.99c-.87-.45-2.83-.42-2.56-1.71.57,0,1.14,0,1.7,0-.97-5.34,1.23-12.1-6.82-11.51,0-.28-.03-.58,0-.85,1.69-1.19,3.6-.56,5.27.49,3.32,2.1,3.29,10.12,2.41,13.58Z"/>
          <path class="cls-16" d="M75.27,93.37c.15,1.29-.96,2.1-1.71,2.98-.24-.92.05-1.62,0-1.7-.25-.42-2.82-.44-3.52-.33-2.4.37-8.77,4.12-10.55,5.87-.44.43-.93.5-1.28,1.28l-.85.43c.18-.82-.02-.88.61-1.73,1.91-2.55,10.71-7.37,13.89-7.65,2.22-.2,2.37.6,3.41.85Z"/>
          <path class="cls-6" d="M78.68,94.22c-.39.94-.1,1.47,0,2.13.1.7.3,1.14.43,1.71.06.25-.04.58,0,.85-.28.08-.57.32-.85.43-.3-.31-.94-.28-1.28-.43-1.09-.47-1.96-.48-2.98-1.71-.06-.26-.35-.57-.43-.85.74-.88,1.85-1.7,1.71-2.98,1.36.33,1.82.22,3.41.85Z"/>
          <path class="cls-9" d="M85.92,99.33c-.16.15-.83.8-.85.85h-.43c-1.69-1.52-1.69-2.4-4.26-2.56v-2.56c2.24,1.13,4.14,1.94,5.54,4.26Z"/>
          <path class="cls-16" d="M54.37,133.87c.22.27,1.25,1.78,1.49,2.16s.24.82.22,1.25c-.64-.09-2.06-1.32-2.59-1.89-.6-.64-.62-1.26-.82-1.52-.06-.55.08-1.18,0-1.71h.43c.16,2.19.98,1.34,1.28,1.71Z"/>
          <path class="cls-16" d="M80.38,95.07v.43c-.88-.18-1.32.08-1.71.85-.1-.66-.39-1.19,0-2.13.83.33,1.07.53,1.71.85Z"/>
          <path class="cls-9" d="M80.38,142.4c-.71.26-1.38.65-2.13.85.28-.96,1.31-.93,2.13-.85Z"/>
          <path class="cls-16" d="M50.96,132.16c.91-.1.96-.05.85.85-.11-.16-.54-.33-.85-.85Z"/>
          <path class="cls-8" d="M85.07,120.23c-.28,4.34.31,10.42,1.71,14.5-3.17,4.02-7.7,5.89-12.79,5.97-.78.01-1.47-.38-2.13-.43-.23-1.43-1.27-2.81-1.6-4.16-.61-2.5-.12-4.93-.53-7.36.56.15,1.58-.16,2.13,0,1.45.41,4.88,3.23,6.81,2.35,1.55-.71,4.39-5.98,4.68-7.71.16-1-.02-2.14.03-3.17h1.71Z"/>
          <path class="cls-16" d="M76.97,98.91c-.8.59.06,2.04,0,2.13-.02.04-.76-.16-.87.27-.2.8.28,1.9.44,2.71-.29-.18-1.99-.55-2.13-.42.32,1.67,2.02,3.74,3.84,2.56,1.3,1.05,2.84,1.84,4.26,2.56,1.82.91,2.63,1.78,5.11,1.28.18,1.34-.92,2.29-1.28,3.41-.83-.34-1.68-.34-2.56-.43-.14-.01-.29.02-.43,0l-4.24-2.37c-1.14-1.75-3.48-2.59-4.74-3.79-1.11-1.05-.98-2.62-2.54-2.79,1.06-3.15,3-3.07,2.13-6.82,1.03,1.22,1.89,1.23,2.98,1.71Z"/>
          <path class="cls-14" d="M80.38,104.02c.75.83,1.59,1.57,2.56,2.13.74.43.76.53,1.71.85s1.73.26,2.56.43c.53.11,1.25.78,2.13.43-.07.1.24.57-.25.89-2.08,1.38-4.9-.64-7-.89-.56-1.2-1.59-2.01-2.56-2.98-.1-.91-.05-.96.85-.85Z"/>
          <path class="cls-9" d="M76.97,101.04h.43c-.2,1.18.39,1.05,1.28.43.11.39.12.98.43,1.28-1.31,2.4.2,1.91.43,2.13.97.97,2,1.79,2.56,2.98.13.29.29.56.43.85-1.43-.72-2.96-1.51-4.26-2.56-.42-.34-1.36-1.93-1.71-2.13-.17-.81-.64-1.91-.44-2.71.11-.43.85-.24.87-.27Z"/>
          <path class="cls-9" d="M88.48,101.04c.99.07,3.37,2.66,4.26,3.41-.14.1-2.43,2.01-2.56,2.13-.89-1.1-1.16-3.91-2.56-3.84h-.43c.15-.39.15-.9.43-1.28.16-.04.42-.46.85-.43Z"/>
          <path class="cls-9" d="M86.35,113.4c-.7,2.17-1.13,4.53-1.28,6.82h-1.71c.04-.83.05-1.73,0-2.56-.02-.42.06-.88,0-1.28,3.29-.55,1.29-1.8.43-3.41.87.09,1.73.09,2.56.43Z"/>
          <path class="cls-3" d="M87.63,102.75c1.4-.08,1.67,2.74,2.56,3.84-.17.16-.24.65-.43.85-.27-.07-.64-.41-.85-.43-.8-1.42-1.53-2.45-1.28-4.26Z"/>
          <path class="cls-13" d="M88.91,107.01c.21.02.58.36.85.43-.14.15-.37.35-.43.43-.88.35-1.6-.32-2.13-.43.28-.6,1.16-.47,1.71-.43Z"/>
          <path class="cls-1" d="M70.58,106.58c2.52.27,2.5,3.51,4.71,4.89,1.45.9,7.24,2.53,7.88,3.65.25.45.15.84.2,1.27.06.4-.02.86,0,1.28-2.29-.84-4.64-1.42-6.81.22-.53.4-3.82,4.77-4.04,5.34-.31.79-.43,2.65-.65,3.82-1.45-1.02-3.8-1.95-5.12-2.98-.1-.08-.31-1.35-1.74-1.54-.09-.41,1.39-5.68,1.74-6.13.18-.23.75.37,1.28-1.28.87-2.74,1.75-5.78,2.56-8.53Z"/>
          <path class="cls-14" d="M71,104.02c-.07.24.07.62,0,.85-.19.62-.27,1.18-.43,1.71-.81,2.75-1.69,5.79-2.56,8.53-3.05.18-6.32-.29-8.97-1.9-.66-.4-1.31-.5-1.26-1.51,1.56.67,5.93,2.29,7.4,2.15.17-.02,2.17-2.17,2.31-2.46.78-1.55,2.23-6.65,1.58-8.21-.61-1.43-6.3-2.45-7.77-1.82-.91.39-5.16,5.91-5.48,6.92-.57,1.79,1.38,1.77,1.53,3.42-5.52-2.31-.77-5.24,0-8.53.03-.13-.03-.29,0-.43,1.45.28.59-.7.85-1.28.35-.78.84-.85,1.28-1.28,2.62.7,8.78-3.38,10.36-2.93.52.15,2.39,2.63,2.45,3.16.09.83-.97,2.52-1.29,3.61Z"/>
          <path class="cls-9" d="M59.92,122.78c.42.12.98-.11,1.68.22.92.44,1.58,2.18,2.79,2.34.96.13.51-.17.62-.66.28-1.21.99-.47,1.73-.62,1.31,1.03,3.67,1.97,5.12,2.98-.09.5.06,1.17,0,1.71-.55-.16-1.57.15-2.13,0-.78-.21-1.6-.87-2.54-1.09-.76-.19-1.38.38-2.46-.07-1.3-.54-4.37-3.29-4.81-4.81Z"/>
          <path class="cls-13" d="M57.36,103.17c-.77,3.28-5.52,6.22,0,8.53.12.05.31-.05.43,0-.05,1.01.6,1.11,1.26,1.51,2.65,1.61,5.92,2.09,8.97,1.9-.53,1.65-1.1,1.05-1.28,1.28-3.87-.52-7.03-1.24-10.2-3.66-3.49-2.67-3.65-3.6-1.54-7.43.53-.95.97-2.51,2.35-2.13Z"/>
          <path class="cls-9" d="M51.39,121.08c.13-.24,0-.83.4-1.09.46-.3,4.3.93,5.25,1.22.7.22,1.39.1,1.17,1.15-2.23-.5-4.57-.85-6.82-1.28Z"/>
          <path class="cls-3" d="M53.09,130.46c0,.27,0,1.61,0,1.71h-.43c-.08-.5-.38-.93-.43-1.71-.02-.28.01-.57,0-.85.28.29.55.59.85.85Z"/>
          <path class="cls-13" d="M52.24,129.61c.01.28-.02.57,0,.85-1.75.23-.43-.99-.43-1.28.15.13.29.28.43.43Z"/>
          <path class="cls-13" d="M58.21,101.47c-.26.58.6,1.56-.85,1.28.06-.25-.06-.6,0-.85l.85-.43Z"/>
          <path class="cls-12" d="M53.09,130.46c.02-.85-.02-1.71,0-2.56,2.54.66,2.76,2.62,2.56,4.92-.11,1.3.23,1.1-1.28,1.04-.3-.37-1.12.48-1.28-1.71,0-.09,0-1.43,0-1.71Z"/>
          <path class="cls-13" d="M59.49,100.19c1.78-1.75,8.15-5.5,10.55-5.87.71-.11,3.27-.08,3.52.33.05.08-.24.78,0,1.7.07.29.37.59.43.85.86,3.75-1.07,3.67-2.13,6.82-.28-.03-.57.02-.85,0,.32-1.08,1.38-2.78,1.29-3.61-.06-.53-1.93-3.01-2.45-3.16-1.58-.45-7.74,3.63-10.36,2.93Z"/>
          <path class="cls-15" d="M80.38,97.63c2.57.16,2.57,1.04,4.26,2.56-.2,1.03-1.2,1.75-2.13,2.13-.68.28-1.62-.65-1.25,1.05l1.68,2.79c-.96-.56-1.81-1.31-2.56-2.13-.6-.66-.77-.77-1.28-1.28-.3-.3-.32-.89-.43-1.28-.04-.13.04-.29,0-.43-.14-.49.02-1.24-.43-1.71.29-.11.57-.34.85-.43.77-.23,1.04.38.85-1.28.13-.02.29,0,.43,0Z"/>
          <path class="cls-3" d="M78.25,99.33c.45.46.29,1.22.43,1.71h-1.71c.06-.1-.8-1.54,0-2.13.34.15.98.12,1.28.43Z"/>
          <path class="cls-3" d="M80.38,95.5v2.13c-.13,0-.29-.02-.43,0-.24.03-.58.34-.85.43-.13-.57-.32-1-.43-1.71.39-.78.82-1.03,1.71-.85Z"/>
          <path class="cls-16" d="M79.96,97.63c.19,1.66-.09,1.05-.85,1.28-.04-.27.06-.6,0-.85.27-.09.61-.39.85-.43Z"/>
          <path class="cls-15" d="M83.37,117.67c.05.83.04,1.73,0,2.56-.04,1.03.14,2.17-.03,3.17-.28,1.73-3.12,7-4.68,7.71-1.92.88-5.36-1.94-6.81-2.35.06-.54-.09-1.2,0-1.71.22-1.17.34-3.03.65-3.82.22-.57,3.52-4.94,4.04-5.34,2.18-1.65,4.52-1.06,6.81-.22Z"/>
          <path class="cls-6" d="M83.37,112.98c.14.02.29-.01.43,0,.86,1.61,2.86,2.86-.43,3.41-.06-.43.05-.82-.2-1.27-.64-1.12-6.43-2.75-7.88-3.65-2.21-1.37-2.18-4.61-4.71-4.89.15-.52.24-1.09.43-1.71,1.62,0,1.64,1.74,2.37,2.53,2.58,2.75,6.24,5.02,9.99,5.57Z"/>
          <path class="cls-9" d="M71.85,104.02c1.55.17,1.43,1.75,2.54,2.79,1.26,1.19,3.6,2.04,4.74,3.79l4.24,2.37c-3.75-.55-7.41-2.82-9.99-5.57-.74-.79-.76-2.53-2.37-2.53.07-.23-.07-.62,0-.85.28.02.57-.03.85,0Z"/>
          <path class="cls-13" d="M76.54,104.02c.34.21,1.28,1.79,1.71,2.13-1.82,1.19-3.52-.89-3.84-2.56.14-.13,1.84.25,2.13.42Z"/>
          <path class="cls-15" d="M87.63,102.75c-.25,1.81.48,2.85,1.28,4.26-.54-.04-1.43-.17-1.71.43-.83-.17-1.64-.11-2.56-.43-.12-.96.91-1.19,1.28-1.71.52-.73.95-1.72,1.28-2.56h.43Z"/>
          <path class="cls-16" d="M82.51,102.32c-.34,2.15,1.47,3.12,3.41,2.98-.37.52-1.4.74-1.28,1.71-.95-.32-.96-.42-1.71-.85l-1.68-2.79c-.37-1.69.58-.77,1.25-1.05Z"/>
          <path class="cls-16" d="M80.38,104.02c-.91-.1-.96-.05-.85.85-.23-.23-1.74.27-.43-2.13.51.5.68.62,1.28,1.28Z"/>
          <path class="cls-16" d="M78.68,101.04c.04.13-.04.29,0,.43-.88.62-1.48.76-1.28-.43h1.28Z"/>
          <path class="cls-11" d="M57.36,111.7c-.15-1.65-2.1-1.63-1.53-3.42.32-1.01,4.57-6.52,5.48-6.92,1.47-.63,7.16.38,7.77,1.82.66,1.56-.79,6.66-1.58,8.21-.15.29-2.15,2.44-2.31,2.46-1.47.14-5.84-1.48-7.4-2.15-.12-.05-.31.05-.43,0ZM61.92,102.83c-2.23.68-2.28,5.51.17,6.92,3.53,2.04,8.04-4.62,3.9-6.45-.96-.42-3.06-.77-4.06-.46Z"/>
          <path class="cls-2" d="M61.92,102.83c1-.31,3.1.04,4.06.46,4.14,1.83-.36,8.49-3.9,6.45-2.45-1.41-2.4-6.23-.17-6.92ZM65.03,106.58c.19-1.67-1.05-2.33-2.55-2.13v2.14s2.55,0,2.55,0Z"/>
          <path class="cls-7" d="M65.03,106.58h-2.56s0-2.13,0-2.13c1.51-.2,2.74.46,2.55,2.13Z"/>
        </g>
      </g>
    </g>
  </g>
</svg>