<?xml version="1.0" encoding="UTF-8"?>
<svg id="Layer_2" data-name="Layer 2" xmlns="http://www.w3.org/2000/svg" viewBox="0 0 185 185">
  <defs>
    <style>
      .cls-1 {
        fill: none;
      }

      .cls-2 {
        fill: #946c63;
      }

      .cls-3 {
        fill: #ceaca0;
      }

      .cls-4 {
        fill: #24120d;
      }

      .cls-5 {
        fill: #764f45;
      }

      .cls-6 {
        fill: #5b3e35;
      }
    </style>
  </defs>
  <g id="borxes">
    <rect class="cls-1" width="185" height="185"/>
    <g>
      <path class="cls-3" d="M97.63,133.73c.23-.61.64-.82,1.2-1.06,2.46-1.06,5.84-1.48,8.32-2.43.44-.17.2-.67.24-.7.34-.25.7-.24,1.05-.35.58-.19,1.16-.23,1.74-.35,1.04-.22,3.94-.12,3.84-1.4.4-.09,1,.09,1.4,0,1.98-.46,4.28-1.3,6.26-1.94.79-.26,2.05-.46,2.46-1.2,1.08-.27,2.48-.43,3.49-.7,5.14-1.38,12.13-3.26,16.99-5.16s5.36-4.09,11.63-5.48c.59-.13,1.22,0,1.03-.87,1.15-.08,2.49.25,3.14-1.05.11-.02.24.02.35,0,1.49-.32.73-.81,1.05-1.4.02-.03.23.02.35,0,1.13-.16,2.47.4,1.39,1.57-.22.24-4.84,2.46-5.59,2.78-3.56,1.56-7.38,3.46-10.81,4.89-14.99,6.26-33.51,9.07-48.85,15.04-.29.2-.65-.22-.68-.21Z"/>
      <path class="cls-2" d="M48.44,123.27c.08.01.23.36.48.3l.22-.3c.23.03.49-.04.7,0-.16.93.22.71,1.05.7.04.03.84.03,1.05,0,.17.46.67.33,1.05.35,5.19.27,9.26,2.43,13.95,2.79l.7.35s.83.02,1.05,0l.7.35c.12.09,1.65-.03,2.09,0-.16.93.22.71,1.05.7.02.03.55.03.7,0,.2.49.69.28,1.05.35.75.15,1.29.29,2.09.35.69.82,1.75.32,2.09.35.23.02.47-.01.7,0-.2.95.48.68,1.04.86.77.25,3.17.51,3.14,1.58-11.56-3.2-23.13-5.33-34.88-7.67-1.19-.24-2.9-.32-3.49-1.4,1.01.1,2.26.14,3.49.35Z"/>
      <path class="cls-3" d="M83.33,131.99c.2.05.5-.06.7,0,1.31.37,3.13,1.42,4.53,1.74l-40.11-9.42c11.76,2.35,23.32,4.47,34.88,7.67Z"/>
      <path class="cls-2" d="M28.21,118.73c2.7.22,4.89,1.41,7.6,2,2.46.53,5.04.59,7.48,1.25.59.16,1.14.09.97.94-5.85-.66-10.42-2.05-15.7-3.49l-.35-.7Z"/>
      <path class="cls-2" d="M107.4,129.55s.19.53-.24.7c-2.48.94-5.86,1.37-8.32,2.43-.56.24-.97.46-1.2,1.06-1.8.22-2.41.02-3.84,0l12.56-4.19h1.05Z"/>
      <path class="cls-3" d="M23.33,116.99c-.1.96.04.62.7.7.25.03,1.33.04,1.4,0-.59.59.25.69.7.7.22,0,.49.03.7,0,.18.46.66.33,1.05.35.12,0,.23,0,.35,0l.35.7c-1.38-.38-7.6-1.07-7.95-2.66-.08-.39.29-.89.27-1.17.76.72,1.51,1,2.44,1.4Z"/>
      <path class="cls-2" d="M62.05,83.5c.19,1.09-.55.64-1.21.69-2.55.21-4.34.36-6.81.35,2.58-.94,5.38-.8,8.02-1.05Z"/>
      <path class="cls-2" d="M91.35,133.73c-.6-.04-1.6.27-2.79,0-1.4-.32-3.22-1.37-4.53-1.74v-.35l7.33,2.09Z"/>
      <path class="cls-2" d="M30.65,98.85c-1.37.17-3.67.75-5.23,1.05v-.35c1.56-.35,3.8-1.54,5.23-.7Z"/>
      <path class="cls-2" d="M71.12,82.45c.39,1.1-2.1.74-3.14.7-.4-1.09,2.11-.75,3.14-.7Z"/>
      <path class="cls-2" d="M74.61,82.45c-1.64.23-1.58.04-2.79,0,.55-.59,2.26-.58,2.79,0Z"/>
      <path class="cls-3" d="M99.37,51.06c.98.03,2.39-.4,2.09.7-.97,0-2.4.38-2.09-.7Z"/>
      <path class="cls-2" d="M77.75,82.45c-.23.49-.95.38-1.4.35-.3-.02-.6-.01-.7-.35,1.34-.19,1.26,0,2.09,0Z"/>
      <path class="cls-3" d="M65.19,55.25c-.44-1.03,2.09-1.14,1.74,0-.35,0-.7-.01-1.05,0-.23,0-.47-.02-.7,0Z"/>
      <path class="cls-2" d="M49.49,85.24c.22,1.05-.52.65-1.4.7-.23-.96.53-.75,1.4-.7Z"/>
      <path class="cls-3" d="M92.4,51.06c.22,1.11-.55.59-1.4.7-.22-1.04.52-.66,1.4-.7Z"/>
      <path class="cls-3" d="M25.42,99.55v.35c-.29.05-.64.28-1.05.35-.11.02-.24-.02-.35,0-.23-1.17.62-.53,1.4-.7Z"/>
      <path class="cls-6" d="M161.81,109.66c-.31.59.44,1.08-1.05,1.4-.1-.82.15-1.43,1.05-1.4Z"/>
      <path class="cls-2" d="M157.28,112.1c.19.87-.44.74-1.03.87-6.27,1.39-6.87,3.61-11.63,5.48s-11.85,3.78-16.99,5.16c-.18-.86.4-.74.95-.95,4.71-1.89,13.57-3.24,16.85-6.54.64-.64,1-1.5,1.72-2.11,2.27-1.93,7.24-1.7,10.13-1.91Z"/>
      <path class="cls-2" d="M124.14,124.31c-.41.74-1.68.94-2.46,1.2-1.98.64-4.28,1.48-6.26,1.94-.15-.8,1.64-1.32,2.17-1.5,2.15-.76,4.41-1.09,6.56-1.64Z"/>
      <path class="cls-2" d="M114.02,127.45c.11,1.28-2.79,1.18-3.84,1.4l.7-.7c.11-.02.24.02.35,0,.97-.2,1.84-.49,2.79-.7Z"/>
      <path class="cls-5" d="M78.44,129.55c-.34-.03-1.4.48-2.09-.35.19.01,1.43-.7,2.09.35Z"/>
      <path class="cls-2" d="M26.82,118.38c.4-.06,1.2-1.04,1.05.35-.38-.02-.87.11-1.05-.35Z"/>
      <path class="cls-5" d="M49.84,123.27c1.83.35.67.36,1.05.7-.83.01-1.21.23-1.05-.7Z"/>
      <path class="cls-5" d="M51.93,123.96c.39-.05,1.21-1.05,1.05.35-.38-.02-.88.11-1.05-.35Z"/>
      <path class="cls-5" d="M71.47,127.8c1.76.12.74.36,1.05.7-.83.01-1.21.24-1.05-.7Z"/>
      <path class="cls-5" d="M73.21,128.5c.42-.07,1.2-1.04,1.05.35-.35-.07-.85.14-1.05-.35Z"/>
      <path class="cls-5" d="M49.14,123.27l-.22.3c-.25.07-.4-.28-.48-.3l.22-.31c.25-.06.41.3.48.31Z"/>
      <path class="cls-5" d="M66.93,127.1s.38-.47.69-.35c.04.2-.06.64,0,.7l-.7-.35Z"/>
      <path class="cls-5" d="M68.68,127.45s.32-.49.7-.35c.04.2-.05.65,0,.7l-.7-.35Z"/>
      <path class="cls-6" d="M110.88,128.15l-.7.7c-.59.12-1.16.16-1.74.35-.27-1.13,1.59-.87,2.44-1.05Z"/>
      <g>
        <path class="cls-2" d="M53.33,84.55c.42.8-1.61,1.06-2.3,1.06-.5,0-.79-.36-.84-.37.81-.78,2.08-.73,3.14-.7Z"/>
        <g>
          <path class="cls-4" d="M128.33,58.73c.17.13.26.28.35.35.08.06.03,1.2,1.4,1.05.09.1.29.33.35.35.17.49.53.7,1.05.7.26.36.57.53.7.7.94,1.23.71.92,2.09,1.74,1.02,1.58,2.73,2.91,4.53,3.84.05.11-.11.43.05.63.21.26,1,.25,1.34.41.17.37.08.61.49,1.07.5.56.86.45,1.25.67.22.13.47.23.7.35-.13,1.19,1.16,1.17,1.4,1.4.11.11.01,1.21,1.05,1.05.11.08.43.14.7.35-.19,1.12,1.31,1.29,1.4,1.4.13.16-.39.94.7.7.1.13.26.22.35.35.56.76.72,1.76,2.09,1.74.22.35.55.77.7,1.05,1.6,2.9,2.19,5.74,3.49,8.72-.02.16-.03.67,0,.7-.01.83-.24,1.21.7,1.05.02.12-.03.33,0,.35-.18,1.1.35.54.7.7.59,1.67.88,1.14,2.09,1.74.23.12.47.23.7.35.05,1.05,1.23,1.46,2.09,1.74.1.03.23-.03.35,0-.13.62.09.79.7.7.6,1.09,2.59,1.88,2.75,2.15.13.22-.25.75-.19,1.09.11.63.44,1.31.46,1.86.08,2.88-2.63,6.84-2.67,9.89-.12.02-.33-.03-.35,0-.9-.04-1.14.58-1.05,1.4-.11.02-.24-.02-.35,0-4.78.88-10.15-.41-14.74,1.13-1.23.41-3.28,1.39-2.7,2.88-3.17.35-.87-2.66-.69-4.17.1-.8.09-5.78-.16-6.14-.38-.55-1.67-.28-2.29-.32-.34.94.63.56.71.92.39,1.9-2.62,5.82-4.9,5.36-.08-.97.05-2.47.68-3.24.42-.51,1.51-.57,1.76-1.12.42-.92-1.36-.09-1.04-1.04l1.39-.87c-1.35-.04-7.4,1.5-7.86,2.44-.29.61-.13,1.66.35,2.1.89.82,2.51-.3,2.62.86-.95.7-1.41,1.88-2.27,2.62-.61.53-2.32,1.18-2.47,1.39-.31.43,1.04,2.94-.74,3.45s-1.49-2.11-3.36-1.71c-.66.14-.8,3.05-2.32,2.46-.66-.67,1.18-5.25,1.74-6.11,1.1-1.69,3.04-1.89,4.63-2.62.41-.19.34-.94.25-1.03-.43-.46-1.81.91-2.33.99-1.48.22-2.7-.41-4.84.39-2.62.98-2.99,2.68-6.64,2.78-1.11.03-3.15-1.18-3.28.72h1.74c.15.16-.6,3.77-.88,3.84-.56,0-2.85-1.36-2.93-1.61-.58-1.64,1.42-1.35,1.37-2.57-1.28.1-2.91.21-4.12.58-2.84.89-2.31,1.67-6.18,1.51-.67-.03-1.4.36-1.2-.7,1.16-.33,2.35-.74,3.49-1.05,1.96-.53,4.79-.58,6.64-1.21,1.04-.36,2.4-1.62,3.74-1.86,2.15-.39,3.63.33,6.15-1.16,2.16-1.28-.67-2.25-2.03-2.42-2.45-.3-4.61.96-7.59-.07-1.49-.51-1.87-1.84-3.38-2.2-2.93-.7-5.56.43-8.73-1.39-3.35-1.93.51-5.27,1.61-7.09,2.21-3.65,3.06-5.93-1.89-7.28-4.41-1.2-11.16-1.16-15.91-1.88-.91-.14-6.63-1.08-6.85-1.35-.73-.9,1.54-1.49,1.4-2.44.45.03,1.17.14,1.4-.35.93,0,1.86,0,2.79,0,.03.2-.06.65,0,.7.2.15,4.06-.04,4.89,0,.46.03.93-.02,1.4,0,2.16.09,4.52.27,6.82.33,1.39.04,2.62.57,4.18.36,2.08-.28-1.08-.98-1.33-1.12-.96-.53-1.92-1.5-3.09-2.15-6.13-3.39-12.65-6.09-19.11-8.79l-.38-.84c1.07-.29,2.23.31,3.14.35.58.02,1.26-.36,1.4-.35,1.2.09,2.33.88,3.34,1.02,4.69.68,9.04.95,13.76,2.11,2.15.53,3.14,2.15,5.51,2.37,1.16.11,1.97-.37,3.02-.29,4,.31,7.71,1.77,11.7,1.76l-1.04-1.74c.07-.16-.08-.56,0-.7.75-1.4,2.26-5.66,2.44-5.93.16-.24.53.62.7-.7.04-.34-.03-.71,0-1.05,1.38.14.36-.54.35-.7-.03-.33-.02-.71,0-1.05,1.56-.27,1.1-2.81,3.24-2.02.89.58,6.73,4.93,7.22,4.46.16-.69-.36-.82-.73-1.19-2.29-2.27-5.96-3.27-4.58-7.44.87-2.63,3-2.67,4.96-1.14Z"/>
          <path class="cls-5" d="M66.93,55.25c1.27-.02,2.56-.01,3.84,0-.44,1.1,1.16,1.6,1.98,1.65.27.02.43-.26.46-.26.69.03,1.43-.07,2.09,0-.18,1.02.32.56.7.7.76.27,1.05.23,1.74.35.59.1,1.16.25,1.74.35.42.07.96-.06,1.4,0-.11.83.09.94.7.35,1.02.16,1.66.39,2.79.35.1.42-.24,1.68.2,1.75.31.05,1.83.06,1.89,0,.62-.61-1.22-1.35-.7-2.09.46-.01.94-.03,1.4,0-.29.93.79,1.02,1.4.35.51.11.9.21,1.4.35.29.62.25,2.67.88,2.79.21.04,3.05-1.86,2.95,0-1.09.69-3.84,0-4.55.51-.49.35-.41,2.04-.73,2.25s-1.22-.08-1.34.04c-.07.07.07,1.02-.1,1.47-.74,1.98-1.17.94-2.08,1.33-.15.06-2.14,1.61-2.2,1.74-.32.74.23,1.37.19,2.08,2.23.34,1.97-1.96,2.09-2.09s2.59.09,3.14,0c.45-.4-1.75-1.44.27-2.35,2.43-1.09,3.34.2,4.74.18.85-.02.85-1.05,1.86-1.23,2.32-.42,5.56.16,7.8.78.72.2,1.61,1.07,2.3,1.13.97.09,1.91-.97,2.39.83.43,1.61-.94,3.16-2.08,4.16-.7.61-1.26.03-1.57,1.39-1.42.3-1.01-1.14-2.28-1.39-2-.39-3.08,1.01-5.05.69.18-1.68,1.23-2.37,2.71-3.05,1.21-.55,3.96-.57,2.34-1.84-1.26,1.14-2.41-.01-3.76.42-.47.15-.71.78-1.16.88-.31.07-.81-.33-1.17-.09-.25.16-.37.74-.74,1.05-.51.42-1.31-.26-1.01,1.23.39.08,1.63-.11,1.75,0,.05.05,0,1.08,0,1.4,0,.23,0,.47,0,.7-4.72-1.16-9.07-1.43-13.76-2.11-1-.15-2.13-.93-3.34-1.02.08-1.51-1.05-2.61-.7-4.19l-1.39,1.4c-.09-.12-1.11-.24-1.4-.35.55-.89,4.19-7.51,1.05-6.1-1.56.69-.76,2.43-1.1,3.44-.14.41-3.53,3.11-.99,3.36-.12.18.12,1.12-.52,1.39-.25,0-1.9-4.06-1.92-.34-.9-.22-1.66-.41-2.61-.36-.27.01-1.24-.14-.87.53.16.28,3.17,1.41,3.96,1.97,3.62,2.57,6.92,3.9,10.71,6.38,2.08,1.35,4.29,2.04,5.55,4.57l-1.39.52c-.46-.02-.93.03-1.4,0,.17-1.56-1.47-1.87-2.41-2.65-2.33-1.92-6.09-4.68-8.78-6.22-1.71-.98-2.4-.36-3.23-.6-.28-.08-3.57-3.04-4.51-3.53-1.06-.55-5.02-1.2-5.48-1.67-1.07-1.08.22-4.96.7-6.28l.59,3.62-.6,1.96c2.1.46,1.36-1.15,1.76-2.53.09-.3.67-.26.68-.46.04-.69-.41-1.77-.31-3.07.19-2.31,1.59-4.25,2.05-6.5.35-.01.7,0,1.05,0ZM68.94,56.73c-.5-.49-1.68-.44-2.35-.44-.27,1.07.64,1.3,1.06,1.91.27.39.26,1.21.53,1.25s1.84-.3,1.89-.38c.09-.13-.98-2.2-1.13-2.35ZM81.28,63.22c1.75,1,2.76-3.79-.74-1.68-.11.16.66,1.64.74,1.68ZM67.58,65.41c-.09-.13-2.57-.91-2.74-.74-.35,1.15,2.21,4.23,2.73,2.56.11-.37.18-1.54,0-1.81ZM103.91,70.25c-.83-.85-1.96,1.5-1.39,2.09.83.85,1.96-1.5,1.39-2.09Z"/>
          <path class="cls-3" d="M122.74,54.9c-.11,2.76-2.45,4.66-2.09,7.67-1.51-.1-1.21.42-1.74.7-.94.49-1.23-.06-1.92,1.74-1.01-.59-.92-2.21-1.72-2.8-.95-.7-3.56-1.08-4.73-1.37-.13-.03-.48-.57-1.23-.68-1.24-.19-2.73.11-4-.02.09-.91,0-.66-.7-.7-.78-.04-1.38.19-2.09.35.26-1.54-1.64-.35-2.27-.35h-5.58s-.39.52-.78.63c-1.48.42-2.58-.6-3.93-.98-.49-.14-.88-.24-1.4-.35-.44-.09-.6-.29-1.4-.35-.46-.03-.94-.01-1.4,0-.72.02-1.29.34-1.4.35-1.14.04-1.77-.19-2.79-.35-.04,0-.1-.26-.7-.35-.44-.06-.98.07-1.4,0l-.7-1.04c2.2-.76,4.03.2,6.11.34,2.49.16,5.01-.07,7.49.35-.47-.86-2.91-.76-3.41-1.11-.4-.28-.66-1.79-.08-2.2.12-.08,2.38-1.02,2.71-1.13,3.47-1.13,6.83-.67,10.39-.78.67-.02,1.4.36,1.21-.7,5.98.03,13.95.78,19.53,3.14Z"/>
          <path class="cls-2" d="M96.58,51.06c-.44,1.03,2.09,1.14,1.74,0,.35,0,.7-.01,1.05,0-.31,1.07,1.12.7,2.09.7.58,0,1.16,0,1.74,0,.19,1.05-.53.68-1.21.7-3.56.12-6.92-.35-10.39.78-.32.11-2.59,1.05-2.71,1.13-.58.41-.32,1.92.08,2.2.51.36,2.94.26,3.41,1.11-2.48-.42-5-.19-7.49-.35-2.08-.14-3.91-1.1-6.11-.34l.7,1.04c-.58-.1-1.15-.25-1.74-.35.16-1.02-1.07-.78-1.04-1.39.46-.04.94.05,1.39,0,.28-.03.97.07,1.05,0,.74.08.78.04.7-.7,3.9-.85,6.1-3.21,11.16-3.84.85-.11,1.61.41,1.4-.7,1.38-.06,2.8,0,4.19,0Z"/>
          <path class="cls-2" d="M65.19,55.25c.23-.02.47,0,.7,0-.46,2.25-1.86,4.18-2.05,6.5-.11,1.3.35,2.38.31,3.07-.01.2-.59.16-.68.46-.41,1.38.34,2.99-1.76,2.53l.6-1.96-.59-3.62c-.48,1.32-1.77,5.2-.7,6.28.46.47,4.42,1.12,5.48,1.67.94.49,4.23,3.45,4.51,3.53.83.24,1.51-.38,3.23.6,2.69,1.53,6.45,4.3,8.78,6.22.94.77,2.58,1.09,2.41,2.65-.83-.04-4.69.15-4.89,0-.06-.04.03-.5,0-.7.58,0,2.24.3,2.44-.34-2.14-1.26-4.68-2.57-6.74-3.9-1.32-.85-2.5-2.17-3.96-3.02-4.04-2.36-8.02-3.01-11.27-6.69-.03-.04-.51.1-.71-.23-.23-.36-.6-1.56-.58-1.99.07-1.48,2.58-7.39,3.39-8.95.74.08.78.04.7-.7.12-.17-.12-1.28,0-1.4.07-.07,1.06.03,1.4,0Z"/>
          <path class="cls-6" d="M124.49,55.94c1.17.64,3.41,1.08,3.84,2.79-1.97-1.53-4.09-1.49-4.96,1.14-1.38,4.17,2.29,5.17,4.58,7.44.37.36.89.5.73,1.19-.49.47-6.33-3.88-7.22-4.46-2.14-.78-1.68,1.76-3.24,2.02.08-1.1.68-1.74.7-2.79.53-.28.24-.8,1.74-.7.1,0,.53.58,1.04.35-.32-2.61.34-4.07,1.75-6.11.3-.43.26-1.04,1.04-.86Z"/>
          <path class="cls-3" d="M71.47,55.25c1.96.01,3.34.15,5.41.36.66.07,1.41-.42,1.22.69-.45.05-.94-.04-1.39,0-.02.61,1.21.37,1.04,1.39-.69-.12-.98-.08-1.74-.35.1-.95-.03-.63-.7-.7s-1.41.03-2.09,0l-1.74-1.4Z"/>
          <path class="cls-2" d="M124.49,55.94c-.78-.17-.74.43-1.04.86-1.42,2.04-2.07,3.51-1.75,6.11-.51.23-.95-.34-1.04-.35-.36-3.02,1.98-4.91,2.09-7.67,1.03.44,1.17.73,1.74,1.05Z"/>
          <path class="cls-6" d="M154.49,87.34c-1.3-2.98-1.88-5.82-3.49-8.72.82-.04.91.49,1.23,1.03,1.05,1.73,2.51,5.91,2.25,7.69Z"/>
          <path class="cls-6" d="M134.26,63.62c1.72,1.02,3.63,1.94,4.53,3.84,1.09.56.8-.24,1.4,1.05.85.4,1.64.53,1.74,1.74-.39-.22-.75-.12-1.25-.67-.41-.46-.32-.71-.49-1.07-.34-.16-1.13-.15-1.34-.41-.16-.2,0-.53-.05-.63-1.8-.93-3.52-2.25-4.53-3.84-1.39-.82-1.15-.52-2.09-1.74,1.55.08,1.54.89,2.09,1.74Z"/>
          <path class="cls-2" d="M71.47,55.25l1.74,1.4s-.19.27-.46.26c-.83-.05-2.43-.55-1.98-1.65.23,0,.47,0,.7,0Z"/>
          <path class="cls-6" d="M148.21,75.83c1.22-.23,1.66,1.05,2.09,1.74-1.38.02-1.53-.99-2.09-1.74Z"/>
          <path class="cls-6" d="M155.19,89.43c.12.07.58-.1.69,0s-.05.53,0,.69c.75.34,2.2.84,2.09,1.74-1.22-.61-1.5-.07-2.09-1.74-.34-.16-.88.4-.7-.7Z"/>
          <path class="cls-6" d="M160.77,93.97c-.86-.28-2.04-.69-2.09-1.74.79.41,2.07.58,2.09,1.74Z"/>
          <path class="cls-6" d="M144.02,71.99c.23.22.98.99,1.05,1.05-1.04.17-.93-.94-1.05-1.05-.24-.22-1.53-.21-1.4-1.4,1.56.82.95.96,1.4,1.4Z"/>
          <path class="cls-6" d="M147.16,74.78c.06.07.12-.08.7.7-1.08.24-.56-.53-.7-.7-.08-.1-1.59-.27-1.4-1.4,1.06.83.66.54,1.4,1.4Z"/>
          <path class="cls-3" d="M98.33,51.06c.35,1.14-2.19,1.03-1.74,0,.58,0,1.16-.01,1.74,0Z"/>
          <path class="cls-6" d="M128.67,59.08c1.39-.11,1.23.87,1.4,1.05-1.36.15-1.32-.98-1.4-1.05Z"/>
          <path class="cls-6" d="M154.49,88.04c.4.36.47-.74.7,1.05-.93.16-.71-.22-.7-1.05Z"/>
          <path class="cls-6" d="M130.42,60.48c.24.08.81-.14,1.02.04.15.13-.03.58.03.66-.51,0-.88-.21-1.05-.7Z"/>
          <path class="cls-3" d="M63.79,56.64c.08.74.04.78-.7.7.58-1.12.66-.64.7-.7Z"/>
          <path class="cls-3" d="M79.84,55.59c.08.74.04.78-.7.7.27-.24-.65-.4.7-.7Z"/>
          <path class="cls-6" d="M161.12,93.97c.2.05.62-.08.7,0,.09.09-.08.56,0,.7-.61.09-.83-.07-.7-.7Z"/>
          <path class="cls-2" d="M89.95,59.08c1.35.37,2.45,1.39,3.93.98.38-.11.73-.63.78-.63h5.58c.63,0,2.53-1.19,2.27.35-.47.1-1.21-.35-1.04.52.29.69,1.61.42,1.73.55.16.17-.16,1.05.07,1.32.08.1.8.13,1.16.4,1.63,1.19,1.98,1.81,4.22,2.08,1.48.18-1.34-2.32-.54-3.12.61-.23,2.67.64,2.44-.7,1.17.29,3.78.67,4.73,1.37.81.6.72,2.22,1.72,2.8.68-1.8.98-1.25,1.92-1.74-.02,1.05-.62,1.69-.7,2.79-.02.33-.03.71,0,1.05-.34.1-.32.4-.35.7-.03.34.04.71,0,1.05-.74-.08-.78-.04-.7.7-.18.27-1.7,4.53-2.44,5.93-1.29.5-3.3,1.01-4.64.69-1.01-.24.06-.47-2.33-.34-.23.01-.47,0-.7,0,.3-1.29-2.06-.38-3.14-1.05-.03-.18-.04-.54,0-.7.31-1.36.87-.78,1.57-1.39,1.14-1,2.51-2.54,2.08-4.16-.48-1.79-1.42-.74-2.39-.83-.68-.06-1.58-.93-2.3-1.13-2.24-.62-5.48-1.2-7.8-.78-1.01.18-1.01,1.22-1.86,1.23-1.4.03-2.31-1.27-4.74-.18-2.02.91.18,1.94-.27,2.35-.55.1-3.02-.13-3.14,0s.14,2.43-2.09,2.09c.04-.71-.51-1.34-.19-2.08.06-.13,2.05-1.68,2.2-1.74.91-.4,1.35.65,2.08-1.33.17-.45.03-1.4.1-1.47.13-.13,1.03.16,1.34-.04s.24-1.9.73-2.25c.71-.51,3.46.19,4.55-.51.1-1.85-2.75.05-2.95,0-.63-.13-.59-2.17-.88-2.79ZM114.03,72.34c-.42-2.65,2.61-5.75.17-8.02-1.43-.3-.67,4.03-.94,4.98-.42,1.45-3.95,3.14.77,3.04ZM112.94,73.09c-.23-.22-1.27.01-1.71-.06-.41,1.47,1.24,1.24,2.44,1.39.14-.55-.42-.21-.59-.46-.19-.27-.05-.78-.15-.88Z"/>
          <path class="cls-6" d="M76.35,68.15c.12.15.75,2.67.7,3.14-.9-.04-2.07-.64-3.14-.35l.38.84c6.46,2.7,12.98,5.4,19.11,8.79,1.16.64,2.12,1.61,3.09,2.15.25.14,3.41.84,1.33,1.12-1.56.21-2.79-.32-4.18-.36-2.3-.07-4.65-.24-6.82-.33l1.39-.52c-1.26-2.53-3.48-3.21-5.55-4.57-3.79-2.47-7.09-3.81-10.71-6.38-.79-.56-3.81-1.69-3.96-1.97-.37-.66.6-.51.87-.53.95-.05,1.71.13,2.61.36.02-3.72,1.67.34,1.92.34.64-.27.4-1.21.52-1.39.14-.21.94-.52,1.05-.7.29.1,1.31.23,1.4.35Z"/>
          <path class="cls-6" d="M96.58,73.38c1.97.32,3.05-1.08,5.05-.69,1.27.25.86,1.69,2.28,1.39-.04.16-.03.52,0,.7.17,1.21,1.88,1.08,3.14,1.05.23,0,.47.01.7,0,1.65.33,6.08,2.33,6.98.35l1.04,1.74c-3.99.01-7.71-1.45-11.7-1.76-1.05-.08-1.86.4-3.02.29-2.37-.22-3.36-1.84-5.51-2.37,0-.23,0-.47,0-.7.34.04.73-.05,1.05,0Z"/>
          <path class="cls-2" d="M76.35,68.15l1.39-1.4c-.36,1.57.78,2.67.7,4.19-.13-.01-.82.37-1.4.35.05-.47-.58-2.98-.7-3.14Z"/>
          <path class="cls-5" d="M107.74,75.83c2.39-.13,1.32.1,2.33.34,1.34.32,3.36-.18,4.64-.69-.08.14.07.53,0,.7-.9,1.98-5.33-.02-6.98-.35Z"/>
          <path class="cls-6" d="M117.86,68.85c-.17,1.32-.54.46-.7.7-.08-.74-.04-.78.7-.7Z"/>
          <path class="cls-6" d="M118.21,67.11c.01.16,1.03.84-.35.7.03-.3,0-.6.35-.7Z"/>
          <path class="cls-2" d="M95.54,73.38c0-.32.05-1.35,0-1.4-.12-.11-1.36.08-1.75,0-.3-1.49.51-.82,1.01-1.23.37-.31.49-.89.74-1.05.36-.23.85.17,1.17.09.46-.11.69-.73,1.16-.88,1.35-.43,2.5.72,3.76-.42,1.62,1.27-1.13,1.29-2.34,1.84-1.48.67-2.53,1.37-2.71,3.05-.32-.05-.71.04-1.05,0Z"/>
          <path class="cls-2" d="M74.96,67.8c-.11.17-.9.49-1.05.7-2.54-.25.86-2.95.99-3.36.34-1.02-.45-2.75,1.1-3.44,3.14-1.4-.5,5.21-1.05,6.1Z"/>
          <path class="cls-2" d="M68.94,56.73c.15.14,1.23,2.22,1.13,2.35-.06.08-1.62.42-1.89.38s-.26-.86-.53-1.25c-.42-.61-1.33-.84-1.06-1.91.68,0,1.85-.05,2.35.44Z"/>
          <path class="cls-2" d="M67.58,65.41c.17.27.11,1.45,0,1.81-.52,1.68-3.08-1.41-2.73-2.56.17-.17,2.65.61,2.74.74Z"/>
          <path class="cls-2" d="M81.28,63.22c-.08-.05-.85-1.52-.74-1.68,3.5-2.11,2.49,2.68.74,1.68Z"/>
          <path class="cls-2" d="M85.77,58.38c-.52.74,1.32,1.48.7,2.09-.07.07-1.58.06-1.89,0-.44-.07-.11-1.33-.2-1.75.11,0,.67-.33,1.4-.35Z"/>
          <path class="cls-2" d="M103.91,70.25c.57.58-.56,2.94-1.39,2.09-.57-.58.56-2.94,1.39-2.09Z"/>
          <path class="cls-2" d="M88.56,58.73c-.6.67-1.69.58-1.4-.35.8.06.96.26,1.4.35Z"/>
          <path class="cls-2" d="M81.58,58.38c-.6.59-.8.48-.7-.35.6.09.66.34.7.35Z"/>
          <path class="cls-2" d="M75.3,56.64c.67.07.8-.25.7.7-.38-.13-.88.32-.7-.7Z"/>
          <path class="cls-5" d="M104.61,59.43c-.1.94.02.63.7.7,1.27.13,2.76-.18,4,.02.75.12,1.1.65,1.23.68.23,1.34-1.83.47-2.44.7-.79.81,2.03,3.3.54,3.12-2.24-.27-2.58-.89-4.22-2.08-.37-.27-1.08-.3-1.16-.4-.23-.28.1-1.15-.07-1.32-.12-.13-1.44.15-1.73-.55-.17-.87.57-.42,1.04-.52.72-.15,1.32-.39,2.09-.35Z"/>
          <path class="cls-2" d="M104.61,59.43c.7.04.79-.21.7.7-.67-.07-.79.25-.7-.7Z"/>
          <path class="cls-3" d="M114.03,72.34c-4.73.1-1.19-1.59-.77-3.04.27-.95-.49-5.28.94-4.98,2.45,2.27-.59,5.37-.17,8.02Z"/>
          <path class="cls-3" d="M112.94,73.09c.09.09-.04.6.15.88.17.25.73-.09.59.46-1.2-.15-2.85.08-2.44-1.39.44.07,1.48-.17,1.71.06Z"/>
          <path class="cls-5" d="M103.91,74.78c1.08.67,3.44-.25,3.14,1.05-1.26.03-2.97.17-3.14-1.05Z"/>
        </g>
        <g>
          <path class="cls-5" d="M43.91,88.04c3.25,0,6.27-.26,9.5-.79.78-.13,1.58-.78,2.57-.92,13.48-1.94,26.09,2.58,39.58,2.92,1.95.87,2.75,1.42,2.42,3.83-.2,1.44-1.63,2.11-2.37,3.22-1.67,2.52-3.45,7.24.22,8.73.94.38,3.95.83,4.53,1.23.66.46.65,2.99,3.2,3.61.2.05,2.53-.26,1.76.85-.13.18-2.4,1.01-2.09,2.45-1.14.31-2.33.72-3.49,1.05-.65.18-1.31.48-2.09.7-.13-.73.24-2.17-.07-2.72-.21-.37-2.56-1.09-2.7-1.67-.11-.5,1.3-1.86.5-3.28-.47-.85-3.35-1.72-3.65-3.32-.16-.87-.11-3.56.07-4.45.4-1.94,5.08-7.68,1.69-8.82-.86-.29-1.91-.14-2.81-.15-.35,0-.7,0-1.05,0,.19-1.11-.56-.62-1.22-.69-2.29-.25-4.41-.2-6.63-.36-2.77-.2-16.89-1.86-18.32-.88-.35.24-.5,1.05-.34,1.23.11.12,2.45.33,3.13.54.96.3,1.8,1.09,2.03,1.17,4.41,1.5,12.96,2.74,15.64,6.61,1.98,2.86,4.26,8.69-1.12,8.78l-19.46-1.35-.57.81c.46,1.34,2.36,1.04,2.72,1.32.17.13.04.58.07.61-.12,1.63-3.91,1.9-5.07,1.76-1.27-.15-1.64-1.07-2.52-1.33-.81-.23-1.8-.11-2.76-.38-1.73-.49-3.26-2.19-5.35-1.8-.08,1.68,2.21.79,1.74,2.44h-5.58c.06-.44-.04-.94,0-1.39-1.12.06-1.91,1.23-1.74,2.26l1.4-.17c-.08.79.18,1.85-.06,2.56-.27.8-2.51,1.38-2.4,2.14.06.61.48.89.94,1.18.26.16,2.31,1.3,2.44,1.34.45.12,1.21-.56,1.69.45.92,1.95-.19,2.16-.89,3.04-.21.27-.19.98-.37,1.1-1.39.88-1.78-.68-2.2-1-2.19-1.69-6.49-1.43-9.01-1.82-3.67-.57-5.68-2.78-10.15-1.67-.37.09-.2.68-.23.7-.06.04-1.14.03-1.4,0,.19-1.04-.37-.56-.7-.7-.93-.39-1.68-.67-2.44-1.4-.02-.34.06-.75,0-1.05,2.46.15.99-2.66.7-4.03-.14-.63.44-1.41-.7-1.2.02-.29-.07-.92,0-1.05.01-.03.45.07.57-.11.21-.33.17-.84.47-1.1,1.59-1.38,5.67-.27,5.93-.53-.07-1.24-.32-3.71,1.54-3.5.74.08,2.3,1.86,2.64-.34.23,0,.46-.02.69,0l1.58,7.67c1,1.06,1.1-.31,1.92-.35-.65,2.28,2.91,2.27,1.59.33-.32-.47-1.09-.32-1.59-.33.85-2.14,3.83-4.15,1.4-6.28.72.07,5.03.87,5.23,1.05.95.86-1.36.38-1.04,1.21.4,1.06,2.57,1.02,3.07.44.18-.21-.11-.91.26-.98,1.48-.31,7.87.64,8.16.35.43-.44-.29-2.91,3.16-2.08v-1.04c-.84-.07-1.78.13-2.6-.02-6.38-1.15-13.06-.83-19.44-2.53-.37-.1-2.32-.59-2.03-1.29.74-.01,1.42.4,2.23.34,1.99-.15,3.02-1.84,4.23-3.13l5.68-4.25c.45-.78-.4-2.76-.62-3.77ZM62.44,100.9c.26.3,4.41,1.05,5.38,1.42,4.21,1.61,7,3.11,11.88,3.46,1.34.1,5.22.16,5.36-1.53.03-.37-.39-2.87-.54-3.29-1.03-2.92-5.92-4.8-8.76-4.87-1.32-.03-3.94-.06-5.14,0s-4.74.48-5.81.82c-1,.32-3.26,2.99-2.38,3.99ZM42.16,100.24c.69-1.91-3.46-1.75-3.83-.87-.67,1.56,2.88.64,3.83.87ZM42.51,114.19c-.02-2.43-1.84-3.11-3.83-3.83-.16.18.23,3.68.36,3.82.2.19,2.85-.1,3.47.02Z"/>
          <path class="cls-6" d="M71.82,82.45c1.21.04,1.15.23,2.79,0,.33-.05.71.05,1.05,0,.1.34.4.33.7.35.14.95-2.13,1.54-1.4,2.44.22.27,5.94,1.22,6.85,1.35,4.75.72,11.5.68,15.91,1.88,4.95,1.35,4.1,3.63,1.89,7.28-1.1,1.81-4.96,5.16-1.61,7.09,3.17,1.82,5.8.69,8.73,1.39,1.52.36,1.9,1.68,3.38,2.2,2.98,1.03,5.15-.22,7.59.07,1.37.17,4.19,1.13,2.03,2.42-2.51,1.49-4,.77-6.15,1.16-1.33.24-2.69,1.5-3.74,1.86-1.85.63-4.68.68-6.64,1.21-.31-1.44,1.96-2.27,2.09-2.45.77-1.11-1.56-.8-1.76-.85-2.55-.62-2.54-3.15-3.2-3.61-.58-.4-3.58-.84-4.53-1.23-3.67-1.49-1.89-6.22-.22-8.73.74-1.12,2.17-1.78,2.37-3.22.33-2.4-.46-2.95-2.42-3.83-13.49-.34-26.1-4.86-39.58-2.92-.99.14-1.78.79-2.57.92-3.23.53-6.24.79-9.5.79-.01-.05-.43-.07-.35-.34l2.1-1.05c.08,0,.34.02.35,0,.52.03.89-.2,1.05-.7.35-.03.7.02,1.05,0,.87-.05,1.61.35,1.4-.7.23.01.47-.01.7,0,.05,0,.34.37.84.37.69,0,2.72-.26,2.3-1.06.23,0,.47,0,.7,0,2.47,0,4.27-.14,6.81-.35.66-.05,1.4.4,1.21-.69.34-.03.7.03,1.05,0-.19,1.68,2.76-.04,3.84-.35.35,0,.7-.01,1.05,0,1.04.04,3.53.41,3.14-.7.23.01.47,0,.7,0Z"/>
          <path class="cls-2" d="M45.65,86.64l-2.1,1.05c-.07.27.34.29.35.34.22,1.01,1.08,2.99.62,3.77l-5.68,4.25c-1.21,1.29-2.24,2.98-4.23,3.13-.8.06-1.49-.35-2.23-.34-.23,0-.47,0-.7,0,0-1.09,1.79-1.03,2.79-2.09,1.27,1.32,4.15-2.69,4.4-3.49s-.23-1.28-.21-1.4c.27-1.77,1.35-1.6,2.07-2.28,1.46-1.38,2.62-3.21,4.9-2.95Z"/>
          <path class="cls-3" d="M38.68,91.87c-.02.12.46.62.21,1.4s-3.13,4.8-4.4,3.49c.07-.08.08-.58.34-.87,1.21-1.35,2.32-3.28,3.85-4.01Z"/>
          <path class="cls-2" d="M66.93,83.15c-1.08.31-4.03,2.03-3.84.35,1.56-.13,1.95-.36,3.84-.35Z"/>
          <path class="cls-2" d="M47.05,85.94c-.15.49-.53.72-1.05.7.07-.14-.09-.62,0-.7s.77.02,1.05,0Z"/>
          <path class="cls-2" d="M65.54,108.27s.1-.47-.07-.61c-.35-.28-2.26.02-2.72-1.32l.57-.81,19.46,1.35c5.38-.09,3.09-5.92,1.12-8.78-2.68-3.88-11.23-5.12-15.64-6.61-.24-.08-1.07-.87-2.03-1.17-.68-.22-3.02-.43-3.13-.54-.16-.17-.01-.98.34-1.23,1.43-.99,15.55.67,18.32.88,2.22.16,4.34.12,6.63.36.66.07,1.41-.42,1.22.69-.6-.02-1.5,0-2.26-.02-1.43-.02-10.61-.37-11,.02-1.16,1.15,2.97,2.02,3.49,2.26,2.21,1.05,5.32,2.78,6.47,5.04,1.28,2.5,3.45,10.14-1.07,10.14h-5.41c-.11.59.13.73.61.96,1.22.6,7.51,1.52,8.97,1.49.52-.01,3.7-.79,3.88-1.04,1.06-1.46-2.44-4.41-2.63-5.44-.28-1.49,0-5.73.42-7.23.4-1.4,2.17-3.24.94-4.95-.5-.7-1.57-.21-1.37-1.24.91.01,1.95-.14,2.81.15,3.39,1.14-1.29,6.88-1.69,8.82-.18.89-.23,3.58-.07,4.45.3,1.6,3.18,2.48,3.65,3.32.8,1.42-.61,2.77-.5,3.28.13.58,2.48,1.3,2.7,1.67.32.55-.06,1.99.07,2.72-.9.25-2.4,1.14-3.14.35,1.67-1.09.03-1.01,0-1.22-.23-1.27,1.73-1.2,1.06-1.92-.28-.3-6.45-.5-7.61-.6-.67-.06-1.28-.5-1.12.6-.58-.19-1.46-.2-2.09-.35-1.44-.35-2.45-.46-3.84-.7-2.21-.38-4.41-1.05-6.63-1.05.19-1.11-.56-.62-1.21-.69-2.55-.27-3.89-1.4-6.46-1.05-.2.03-1.01.03-1.05,0Z"/>
          <path class="cls-6" d="M62.44,100.9c-.88-1,1.38-3.67,2.38-3.99,1.07-.34,4.58-.75,5.81-.82s3.82-.04,5.14,0c2.85.07,7.74,1.95,8.76,4.87.15.42.57,2.92.54,3.29-.15,1.69-4.02,1.63-5.36,1.53-4.89-.35-7.68-1.85-11.88-3.46-.97-.37-5.12-1.12-5.38-1.42Z"/>
          <path class="cls-3" d="M89.61,90.48c.35,0,.7,0,1.05,0-.2,1.03.87.54,1.37,1.24,1.23,1.71-.54,3.55-.94,4.95-.43,1.51-.71,5.75-.42,7.23.19,1.03,3.69,3.98,2.63,5.44-.18.25-3.36,1.03-3.88,1.04-1.46.03-7.75-.9-8.97-1.49-.48-.23-.71-.38-.61-.96h5.41c4.51,0,2.34-7.64,1.07-10.14-1.15-2.26-4.26-3.99-6.47-5.04-.52-.25-4.65-1.11-3.49-2.26.39-.39,9.56-.04,11-.02.76.01,1.66,0,2.26.02Z"/>
          <path class="cls-2" d="M42.16,100.24c-.95-.23-4.5.69-3.83-.87.38-.88,4.52-1.04,3.83.87Z"/>
          <path class="cls-3" d="M86.82,112.1c-.17-1.1.45-.66,1.12-.6,1.16.11,7.32.3,7.61.6.67.72-1.28.64-1.06,1.92.04.2,1.68.12,0,1.22-.32.21-1.06.26-1.4.7-.06-.13-2.03-1.3-2.44-1.4-.78-1.31-2.43-1.98-3.84-2.44Z"/>
          <g>
            <path class="cls-6" d="M99.72,114.2c-.19,1.06.53.67,1.2.7,3.87.17,3.34-.62,6.18-1.51,1.21-.38,2.84-.48,4.12-.58.05,1.23-1.95.93-1.37,2.57.09.25,2.37,1.61,2.93,1.61.28-.07,1.03-3.68.88-3.84h-1.74c.13-1.91,2.17-.7,3.28-.73,3.66-.1,4.02-1.81,6.64-2.78,2.13-.8,3.36-.17,4.84-.39.52-.08,1.9-1.45,2.33-.99.09.1.16.84-.25,1.03-1.59.73-3.53.93-4.63,2.62-.55.85-2.39,5.43-1.74,6.11,1.53.59,1.66-2.32,2.32-2.46,1.87-.4,1.59,2.21,3.36,1.71s.43-3.02.74-3.45c.15-.21,1.86-.86,2.47-1.39.85-.73,1.32-1.92,2.27-2.62-.11-1.15-1.73-.04-2.62-.86-.49-.44-.65-1.49-.35-2.1.46-.94,6.51-2.48,7.86-2.44l-1.39.87c-.32.95,1.46.12,1.04,1.04-.25.55-1.34.61-1.76,1.12-.62.77-.76,2.27-.68,3.24,2.28.46,5.29-3.45,4.9-5.36-.07-.36-1.05.02-.71-.92.62.04,1.9-.23,2.29.32.25.36.26,5.34.16,6.14-.18,1.51-2.48,4.53.69,4.17-.59-1.48,1.47-2.47,2.7-2.88,4.6-1.54,9.96-.25,14.74-1.13-.65,1.3-1.98.96-3.14,1.05-2.89.21-7.86-.03-10.13,1.91-.72.62-1.08,1.47-1.72,2.11-3.29,3.29-12.15,4.65-16.85,6.54-.54.22-1.13.09-.95.95-1,.27-2.41.42-3.49.7-2.14.55-4.4.88-6.56,1.64-.52.18-2.32.7-2.17,1.5-.4.09-.99-.09-1.4,0-.95.21-1.82.5-2.79.7-.21-1.05.54-.6,1.11-.79.72-.24,4.26-1.27,2.14-1.94-2.65-.83-5.26,1.59-7.65,2.68-.87.4-.43.67-.49,1.44l-12.56,4.19c-.81,0-1.64.05-2.44,0l-7.33-2.09c.22-1.39-1.94-.39-1.74-1.74,2.26-.33,3.87.4,5.84,1.3.44.2.41.73.68.79.56.12,3.97.09,4.31-.15,1.19-.83.07-7.2-.02-8.92,1.97-.15,1.59-1.67,2.55-2.34.68-.47,2.99-.85,3.74-1.67.41-.45.8-1.55-.18-1.58-.77-.03-3.55.65-4.27.97-.99.45-.82,1.53-1.83,1.48-.01-.77.16-3.48,0-3.84.33-.44,1.08-.49,1.4-.7.74.79,2.24-.09,3.14-.35.79-.22,1.45-.52,2.09-.7ZM119,115.54l-.24,2.02,1.45.17.24-2.02-1.45-.17ZM137.39,118.73c-.22-2.12-2.72-1.74-4.28-1.31-1.38.38-2.23,1.68-2.34,3.06,2.36.01,4.39-1.21,6.63-1.75Z"/>
            <path class="cls-6" d="M65.54,108.27s.84.03,1.05,0c1.19,1.12,3.15.88,4.62,1.42,1.65.6.97.33,3.05.33,2.21,0,4.42.66,6.63,1.05.39,2.29-2.69,1.04-3.14,1.4-.58.46.16.62.45.78.38.21,2.39,1.3,2.53,1.32,1.82.31,3.28-1.32,4-2.8.63.15,1.51.16,2.09.35,1.41.46,3.06,1.14,3.84,2.44,1.58,2.63-.3,2.16-.38,2.67-.06.4.61,1.64.38,1.87-.12.11-2.97-.27-3.23-.35-.47-.14-.66-1.57-1.47-1.39-1.4.3.32,1.73.18,2.26-.07.27-.99.36-1.24.87-.28.56.01,1.7-.36,1.76-3.91.64-4.06-2.51-6.61-2.48-1.27.01-2.02,1.73-3.22,2.04s-5.1.23-5.93-.7c-.42-.47-.3-1.43-.62-2-.72-1.27-6.46-1.19-8.2-1.92-.86-.36-.84-1.07-1.25-1.19-1.09-.31-6.45.46-8.4.43-.87-.01-1.87.54-.71,1.01,1.32.54,2.79.41,4.13,1.46,1.66,1.3,1.69,2.83,2.47,4.15,1.23,2.08,5.6.73,7.01.98.99.18,4.39,2.31,5.8,2.55,2.96.5,5.09-.38,8.83,1,1.22.45,3.09,1.22,3.77,2.33-.84.22-1.72-.31-2.44-.35-.23-.01-.47.02-.7,0-.66-1.05-1.91-.34-2.09-.35-.8-.06-1.34-.19-2.09-.35.15-1.38-.62-.42-1.05-.35-.15.03-.67.03-.7,0-.31-.34.72-.58-1.05-.7-.44-.03-1.98.09-2.09,0-.06-.04.04-.5,0-.7-.37-.14-.66.34-.7.35-.22.02-1.01.04-1.05,0-.06-.06.04-.49,0-.7-.31-.12-.65.35-.69.35-4.7-.36-8.76-2.52-13.95-2.79.16-1.4-.66-.4-1.05-.35-.21.03-1.01.03-1.05,0-.38-.33.78-.35-1.05-.7-.21-.04-.47.03-.7,0-.07,0-.23-.36-.48-.31l-.22.31c-1.23-.21-2.48-.25-3.49-.35-.23-.02-.47.03-.7,0,.17-.85-.38-.78-.97-.94-2.45-.66-5.02-.72-7.48-1.25-2.71-.59-4.9-1.78-7.6-2-.12,0-.23,0-.35,0,.16-1.39-.65-.41-1.05-.35-.21.03-.48,0-.7,0,.25-.5-.32-1.08-.7-.7.03-.02-.14-.61.23-.7,4.47-1.11,6.48,1.1,10.15,1.67,2.51.39,6.81.13,9.01,1.82.42.32.81,1.89,2.2,1,.18-.11.16-.83.37-1.1.7-.88,1.81-1.09.89-3.04-.48-1.01-1.24-.33-1.69-.45-.13-.04-2.19-1.17-2.44-1.34-.46-.3-.88-.58-.94-1.18-.1-.76,2.13-1.34,2.4-2.14.24-.71-.03-1.77.06-2.56.02-.2.32-.5.35-.7h5.58c.47-1.65-1.83-.76-1.74-2.44,2.09-.39,3.62,1.31,5.35,1.8.96.27,1.96.14,2.76.38.88.25,1.25,1.18,2.52,1.33,1.16.14,4.94-.14,5.07-1.76Z"/>
            <path class="cls-6" d="M31.7,98.85c.23,0,.47,0,.7,0-.29.7,1.66,1.19,2.03,1.29,6.38,1.71,13.06,1.38,19.44,2.53.82.15,1.76-.05,2.6.02v1.04c-3.45-.84-2.72,1.64-3.16,2.08-.29.29-6.68-.66-8.16-.35-.37.08-.07.77-.26.98-.5.58-2.67.62-3.07-.44-.31-.83,1.99-.36,1.04-1.21-.2-.18-4.51-.97-5.23-1.05,2.43,2.13-.54,4.13-1.4,6.28-.82.04-.92,1.41-1.92.35l-1.58-7.67c-.23-.03-.46,0-.69,0-.11,0-.24-.01-.35,0-.16-.48-.68-.31-1.05-.35-1.4-.16-2.45-.57-3.84-.7.18-1.46-.93-.39-1.4-.35-.34.03-.71,0-1.05,0v-1.05c.41-.07.76-.3,1.05-.35,1.56-.29,3.86-.88,5.23-1.05.33-.04.71,0,1.05,0Z"/>
            <path class="cls-2" d="M23.33,100.94c.23.02.65.34,1.05.35.34,0,.71.03,1.05,0,.25.55.94.31,1.4.35,1.38.13,2.44.54,3.84.7-.15,1.33.51.41,1.05.35.11-.01.23,0,.35,0-.34,2.2-1.9.42-2.64.34-1.86-.21-1.61,2.26-1.54,3.5-.27.26-4.34-.85-5.93.53-.3.26-.26.77-.47,1.1-.12.18-.56.09-.57.11h-.35c.07-1.38.24-2.53.35-3.84h.35c1.17.94,1.49-.26,2.11-.51.93-.38,2.66.02,1.9-1.59l-3.31.35c.29-.51.36-.56.67-.99.15-.2-.03-.67.03-.75.02-.03.51-.02.7,0Z"/>
            <path class="cls-2" d="M20.89,109.31c1.13-.2.56.58.7,1.2.3,1.36,1.76,4.18-.7,4.03-.09-.49-.61-1-.7-2.09,1.2.33.62-2.02.7-3.14Z"/>
            <path class="cls-3" d="M23.33,100.24v.7c-.19-.02-.68-.03-.7,0-.06.08.12.55-.03.75-.31.43-.37.48-.67.99-.22.38-1.08.65-.7,1.74h-.35c0-.07-.53-.39-.21-1.4.43-1.32,1.24-1.49,1.95-2.09.18-.15-.49-.5.7-.7Z"/>
            <path class="cls-3" d="M20.89,109.31c-.08,1.12.51,3.47-.7,3.14-.12-1.54.28-2.75.35-4.19h.35c-.07.13.02.76,0,1.05Z"/>
            <path class="cls-5" d="M24.03,100.24c.11-.02.24.02.35,0v1.05c-.4-.01-.81-.33-1.05-.35v-.7c.22-.04.48.04.7,0Z"/>
            <path class="cls-6" d="M42.51,114.19c-.62-.11-3.27.17-3.47-.02-.14-.13-.52-3.64-.36-3.82,1.99.73,3.81,1.41,3.83,3.83Z"/>
            <path class="cls-2" d="M45.65,109.66l-1.4.17c-.17-1.03.63-2.2,1.74-2.26-.04.45.06.95,0,1.39-.03.2-.33.5-.35.7Z"/>
            <path class="cls-2" d="M36.24,110.01c.5,0,1.27-.14,1.59.33,1.32,1.94-2.24,1.95-1.59-.33Z"/>
            <path class="cls-2" d="M23.33,116.99c.33.14.89-.34.7.7-.66-.08-.8.26-.7-.7Z"/>
            <path class="cls-5" d="M93.09,115.94c.16.35-.01,3.06,0,3.84,0,.12,0,.23,0,.35-1.73-.39-.87,1.25-1.05,2.59.04.36.77.23,1.05.2.09,1.72,1.21,8.08.02,8.92-.34.24-3.76.27-4.31.15-.27-.06-.24-.59-.68-.79-1.97-.89-3.58-1.63-5.84-1.3-.19,1.35,1.96.36,1.74,1.74v.35c-.2-.06-.5.05-.7,0,.02-1.07-2.37-1.33-3.14-1.58-.56-.18-1.24.09-1.04-.86.72.04,1.6.56,2.44.35-.69-1.11-2.55-1.88-3.77-2.33-3.73-1.38-5.86-.5-8.83-1-1.41-.24-4.81-2.37-5.8-2.55-1.41-.25-5.78,1.1-7.01-.98-.78-1.32-.81-2.85-2.47-4.15-1.34-1.05-2.81-.92-4.13-1.46-1.16-.48-.15-1.03.71-1.01,1.95.03,7.3-.74,8.4-.43.41.12.4.82,1.25,1.19,1.74.74,7.48.66,8.2,1.92.32.56.21,1.53.62,2,.84.93,4.74,1,5.93.7s1.94-2.02,3.22-2.04c2.56-.02,2.7,3.12,6.61,2.48.37-.06.09-1.2.36-1.76.25-.51,1.17-.6,1.24-.87.14-.53-1.58-1.96-.18-2.26.82-.18,1,1.25,1.47,1.39.26.08,3.11.46,3.23.35.24-.23-.44-1.47-.38-1.87.08-.5,1.96-.03.38-2.67.41.09,2.38,1.27,2.44,1.4Z"/>
            <path class="cls-4" d="M93.09,119.78c1.01.05.84-1.04,1.83-1.48.72-.33,3.5-1,4.27-.97.98.04.59,1.13.18,1.58-.74.82-3.06,1.2-3.74,1.67-.96.67-.57,2.18-2.55,2.34-.05-.92.01-1.86,0-2.79,0-.12,0-.23,0-.35Z"/>
            <path class="cls-4" d="M106.35,129.55c.05-.77-.39-1.05.49-1.44,2.39-1.09,5-3.52,7.65-2.68,2.12.67-1.42,1.7-2.14,1.94-.58.19-1.33-.26-1.11.79-.11.02-.24-.02-.35,0-.85.17-2.71-.08-2.44,1.05-.35.11-.7.1-1.05.35h-1.05Z"/>
            <path class="cls-4" d="M137.39,118.73c-2.23.53-4.26,1.76-6.63,1.75.12-1.38.96-2.68,2.34-3.06,1.57-.43,4.06-.81,4.28,1.31Z"/>
            <rect class="cls-5" x="118.59" y="115.91" width="2.03" height="1.46" transform="translate(-10.34 221.63) rotate(-83.22)"/>
            <path class="cls-5" d="M84.72,111.76c-.71,1.48-2.18,3.11-4,2.8-.14-.02-2.15-1.11-2.53-1.32-.29-.16-1.02-.31-.45-.78.45-.36,3.53.89,3.14-1.4,1.39.24,2.4.35,3.84.7Z"/>
            <path class="cls-5" d="M66.58,108.27c2.57-.35,3.91.78,6.46,1.05.66.07,1.41-.42,1.21.69-2.09,0-1.4.28-3.05-.33-1.47-.54-3.43-.3-4.62-1.42Z"/>
            <path class="cls-2" d="M25.42,117.69c.38-.38.95.2.7.7-.45-.01-1.29-.11-.7-.7Z"/>
            <path class="cls-5" d="M25.42,101.29c.47-.05,1.57-1.11,1.4.35-.45-.04-1.15.2-1.4-.35Z"/>
            <path class="cls-5" d="M31.7,102.69c-.54.06-1.2.98-1.05-.35.37.04.88-.13,1.05.35Z"/>
            <path class="cls-5" d="M21.93,102.69l3.31-.35c.76,1.61-.97,1.21-1.9,1.59-.62.25-.94,1.44-2.11.51-.38-1.09.48-1.36.7-1.74Z"/>
            <path class="cls-2" d="M93.09,120.13c.01.93-.05,1.87,0,2.79-.28.02-1.01.16-1.05-.2.18-1.34-.67-2.98,1.05-2.59Z"/>
          </g>
        </g>
      </g>
    </g>
  </g>
</svg>