<?xml version="1.0" encoding="UTF-8"?>
<svg id="Layer_2" data-name="Layer 2" xmlns="http://www.w3.org/2000/svg" viewBox="0 0 185 185">
  <defs>
    <style>
      .cls-1 {
        fill: #771813;
      }

      .cls-2 {
        fill: none;
      }

      .cls-3 {
        fill: #d5816d;
      }

      .cls-4 {
        fill: #9d2924;
      }

      .cls-5 {
        fill: #e8b49a;
      }
    </style>
  </defs>
  <g id="borxes">
    <rect class="cls-2" width="185" height="185"/>
    <g>
      <g>
        <path class="cls-4" d="M46.07,74.65c.05.16,1.61,1.67,2.01,2.69,2.07,5.31,1.71,15.9,2.52,22.06,1.13,8.53,3.12,17.95,5.53,26.21.24.82,1.85,4.64,1.56,4.92-.15.14-1.27-.28-1.36.23-.23,1.21,1.96,8.72,3.15,7.37.18-1.74-.89-3.2-1.24-4.8-.1-.45-.45-1.57.34-1.45,3.45,9.31,9.07,18.58,16.54,25.26,1.49,1.33,3.52,3.3,5.37,3.79-12.84-15.39-18.68-35.11-24.13-54.08.73.26,1.15,1.2,1.51,1.84.46.82,2.01,6.01,2.9,3.22.5-1.57-1.82-5.52-2.4-7.29-.78-2.35.25-4.81-3.34-1.79-2.15-7.96-3.56-16.16-5.58-24.14-.25-.99-.97-1.89-1.12-2.46-.03-.13,1.17-.65,1.57-1.09.81-.88,1.14-2.21,1.55-2.71,1.43-1.74,2.85-2.56,5.02-1.67,6.37,2.62,14.23,12.4,18.14,18.06,11.12,16.08,22.07,41.63,13.57,60.78-.47,1.06-1.96,2.65-2.2,3.61-.78,3.07.95,6.74-1.44,9.73-2.94,3.68-5.75-.49-9.29-1.01-7.68-1.13-11.46-.64-18.39-5.3-20.26-13.6-24.36-48.82-19.49-70.81.97-4.37,2.7-12.91,8.72-11.17ZM84.95,149.29c3.59-13.8,3.08-30.18-3.04-43.21-3.43-7.29-19.16-30.37-26.13-33.32-.71-.3-1.33-.44-2.11-.34l5.14,4.46c13.39,17.03,25.07,35.51,26.16,57.87.21,4.38-.34,8.65-.49,12.97-.02.5-.28,1.7.46,1.58ZM71.54,159.58c-10.21-3.88-16.84-13.5-21.53-22.95-7.69-15.48-7.95-32.31-9.31-49.24l-.89-4.69c-1.79,13.37-2.36,26.26,1.02,39.43,3.83,14.95,12.44,34.12,29.25,37.79.45.1,1.57.45,1.45-.34ZM80.93,158.23c-1.25-5.78-.7-11.75-1.39-17.6-1.29-10.93-5.45-21.83-9.7-31.87l-4.99-9.53c.96,6.4,2.2,13.21,4.04,19.41,1.37,4.6,3.84,9.22,4.96,13.82,2.03,8.32,2.52,14.92,5.73,23.32.26.68.61,2.23,1.35,2.45ZM62.16,121.58c.1-1.44.23-2.95-1.33-3.57.12.87-.24,3.81,1.33,3.57ZM72.22,160.02v.45c.29-.15.29-.3,0-.45Z"/>
        <path class="cls-1" d="M51.43,72.42c-.41.5-.74,1.82-1.55,2.71-.4.44-1.61.96-1.57,1.09.15.57.87,1.47,1.12,2.46,2.02,7.99,3.43,16.18,5.58,24.14,3.59-3.02,2.56-.55,3.34,1.79.59,1.77,2.9,5.72,2.4,7.29-.89,2.79-2.44-2.4-2.9-3.22-.36-.64-.78-1.58-1.51-1.84,5.45,18.97,11.29,38.69,24.13,54.08-1.85-.49-3.88-2.46-5.37-3.79-7.47-6.67-13.08-15.94-16.54-25.26-.79-.11-.44,1-.34,1.45.35,1.6,1.41,3.06,1.24,4.8-1.19,1.35-3.37-6.16-3.15-7.37.1-.51,1.22-.09,1.36-.23.28-.28-1.32-4.1-1.56-4.92-2.41-8.25-4.4-17.68-5.53-26.21-.82-6.16-.45-16.75-2.52-22.06-.4-1.02-1.95-2.53-2.01-2.69-.18-.52.18-1.73,0-2.23,2.19.42,2.98-.51,4.47-1.79.15.38,1.07.95.89,1.79Z"/>
        <path class="cls-4" d="M46.07,72.42c-1.31-3.65-3.58-5.55,2.09-7.09.85-.23.47.09.7.5.87,1.57,1.1,3.29,1.68,4.8-1.49,1.27-2.28,2.21-4.47,1.79Z"/>
        <path class="cls-1" d="M71.54,159.58c.11.79-1.01.44-1.45.34-16.81-3.67-25.42-22.85-29.25-37.79-3.38-13.17-2.81-26.05-1.02-39.43l.89,4.69c1.36,16.93,1.62,33.77,9.31,49.24,4.69,9.45,11.32,19.07,21.53,22.95Z"/>
        <path class="cls-1" d="M84.95,149.29c-.74.12-.48-1.08-.46-1.58.15-4.32.7-8.58.49-12.97-1.09-22.36-12.77-40.84-26.16-57.87l-5.14-4.46c.78-.1,1.4.04,2.11.34,6.97,2.95,22.7,26.02,26.13,33.32,6.12,13.03,6.63,29.41,3.04,43.21Z"/>
        <path class="cls-1" d="M80.93,158.23c-.73-.22-1.08-1.76-1.35-2.45-3.21-8.4-3.71-15-5.73-23.32-1.12-4.59-3.59-9.22-4.96-13.82-1.84-6.21-3.09-13.01-4.04-19.41l4.99,9.53c4.25,10.04,8.41,20.94,9.7,31.87.69,5.85.14,11.82,1.39,17.6Z"/>
        <path class="cls-1" d="M62.16,121.58c-1.57.24-1.21-2.7-1.33-3.57,1.56.62,1.43,2.13,1.33,3.57Z"/>
        <path class="cls-1" d="M72.22,160.02c.29.15.29.3,0,.45v-.45Z"/>
      </g>
      <g>
        <path class="cls-4" d="M143.9,20.63c.13.08,1.6,2.42,1.66,2.6.7,2.15-.5,1.74-1.33,2.75-1.39,1.69-2.69,3.46-3.85,5.31,3.37-.37,4.41,3.45,5.37,6.03,9.12,24.48,1.6,62.69-22.06,76.74-3.16,1.87-6.76,2.54-9.65,4.21-3.4,1.96-7.92,9.02-12.11,3.99-2.61-3.13-1.19-7.27-1.89-10.63-.36-1.74-3.07-5.23-3.93-7.7-7.53-21.71,10.84-61.98,29.36-74.34,3.48-2.32,5.42-3.66,7.96.81,1.9-2.75,4.35-5.67,6.92-7.83.7-.58,2.72-2.41,3.52-1.94ZM113.12,50.07c-.05.12.04.3,0,.45-4.06,4.35-7.08,9.73-9.39,15.2-.2.47-.28.92-.45,1.34-3.57,9.26-6.16,21.72-2.45,31.28.69,1.78,1.9,3.28,2.68,4.92,1.4,2.93,1.44,6.35,5.02,7.94,3.12,1.38,8.32-.1,11.42-1.35.69-.28,1.45-.11,1.21-1.22.32.06,1,.05,1.34,0s.42-.44.45-.45c1.33-.43,1-.46,1.79-.89,2-1.12,1.97-1.14,3.58-2.68,1.26-1.2,1.39-1.66,2.23-2.68,8.13-9.77,13.09-22.09,14.3-34.86.1-1.07.39-2,.45-3.13.28-5.71.04-14.31-2.03-19.65-2.3-5.91-4.6-1.55-8.83-2.8-2.34-.69-1.82-4.8-7.05-3.73-3.4.7-13.03,9.22-14.28,12.31ZM97.47,102.37c-.38.35,3.9,8.09,4.32,9.31,1.27,3.71.53,11.54,5.94,9.66,1.17-.4,5.89-4.67,5.18-6.01-.88-1.67-7.84-1.45-10.46-5.65-.48-.78-3.07-9.07-4.98-7.31Z"/>
        <path class="cls-3" d="M145.3,63.92c-.97.23-.81-.72-1.45-1.02-1.71-.79-5.75-1.72-6.15.82-.64,4.08,4.34,4.9,7.15,3.33-1.21,12.78-6.17,25.09-14.3,34.86-5.92-8.08-11.73,1.94-2.23,2.68-1.61,1.54-1.58,1.57-3.58,2.68,1.39-5.56-5.19-2.89-4.72.92.3.39.72.34,1.14.42.23,1.11-.52.94-1.21,1.22-3.09,1.25-8.3,2.73-11.42,1.35-3.59-1.58-3.63-5.01-5.02-7.94-.78-1.64-1.99-3.14-2.68-4.92-3.71-9.56-1.12-22.02,2.45-31.28,5.34,10.54,16.28-.25,4.92-3.38-2.79-.77-2.54,1.39-4.47,2.04,2.3-5.46,5.32-10.85,9.39-15.2-1.1,3.92,2.22,6,5.81,5.81-.74,1.33-1.6,1.25-1.33,3.31.4,3.09,5.14,4.36,7.69,5.3,1.95.72,8.71,3.04,10.33,2.5,1.77-.59,2-4.55.95-6.18-.88-1.37-9.07-5.39-10.81-5.72-3.05-.58-4.37.66-6.82.79,1.55-2.78,3-3.48-.3-5.74-2.34-1.6-2.95-1.27-5.51-.52,1.24-3.09,10.87-11.62,14.28-12.31,5.23-1.07,4.71,3.04,7.05,3.73,4.23,1.24,6.53-3.12,8.83,2.8,2.07,5.33,2.31,13.94,2.03,19.65ZM128.18,39.85c-1.17.32-1.99,2.41-1.45,3.52.84,1.71,5.51,2.69,5.97-.32.31-2.03-3.1-3.59-4.52-3.19ZM136.03,47.27c3.23,3.52,9.11-1.56,3.33-3.56-3.11-1.07-4.91,1.85-3.33,3.56ZM122.35,43.92c-1.83.09-5.74,3.21-3.88,5.03,2.52,2.49,4.86-2.18,5.81-4-.43-.59-1.19-1.07-1.93-1.04ZM127.32,46.13c-3.06.41-5.44,3.4-3.23,6.15,1.23,1.52,9.99,5.73,12.06,5.85,3.1.19,4.32-2.79,3.69-5.51s-9.85-6.85-12.52-6.49ZM143.43,52.38c-.3-.18-2.01-.17-2.14-.05-.22.2-1.08,5.17-.7,5.79.41.69,2.7,1.22,3.31.83.91-.57.53-5.98-.47-6.57ZM110.3,56.42c-2.42.72-3.55,4.62-.63,6.26,10.02,5.62,8.06-8.46.63-6.26ZM132.64,71.21c-.88-.96-9.43-4.84-11.03-5.29-3.71-1.03-8.27-1.33-7.06,3.94.47,2.06,2.17,2.13,3.59,3.02,3.29,2.07,7.95,4.18,11.86,5.23.52.14,1.82.04,1.89.11.73.69-2.08,5.19,3.46,6.15,2.44.42,4.64.64,5.29-2.1,1.14-4.85-4.28-5.16-7.85-4.95,1.22-1.67,1.3-4.53-.14-6.12ZM136.23,69.39c-2.06.46-2.48,2.27-2.1,4.14.36,1.77,4.73,3.24,6.45,2.91,2.15-.4,2.59-3.95,1.61-5.62s-4.23-1.83-5.97-1.44ZM104.91,71.17c-.9.08-2.56,1.72-2.8,2.58-.65,2.34,5.64,6.92,7.53,2.58,1.19-2.74-2.97-5.31-4.74-5.15ZM113,74.31c-2.86.73-3.9,4.25-1.66,6.35,1.36,1.27,10.31,4.41,12.49,4.94,2.43.59,4.81,1.54,5.34-1.82.76-4.77-2.36-5.75-6.01-7.35-2.86-1.26-7.05-2.92-10.17-2.13ZM102.26,79.64c-4,1.17,1.54,7.85,4.18,4.21,1.79-2.47-2.08-4.82-4.18-4.21ZM109.87,84.14c-3.03.6-3.59,3.89-1.38,5.65,1.85,1.48,13.89,5.96,15.94,5.35,1.73-.52,2-3.95,1.56-5.42-.6-2.04-8.42-5.24-10.52-5.57-1.47-.23-4.16-.29-5.6,0ZM131.76,84.57c-4.8.69-1.17,8.5,4.16,5.95,3.56-1.71-.14-6.52-4.16-5.95ZM102.27,87.24c-4.41.64-1.25,7.52,3.24,5.51,3.62-1.62-.38-5.92-3.24-5.51ZM132.23,96.89c3.01-3.06-3.03-5.95-4.7-4.25-2.71,2.76,2.95,6.04,4.7,4.25ZM108.05,93.05c-1.15.39-1.38,2.68-1.19,3.71.6,3.23,12.87,6.81,14.54,3.37.68-1.4-.18-2.44-1.26-3.22-1.66-1.2-10.28-4.47-12.09-3.85ZM105.01,95.73c-.18-.29-1.84-.62-2.32-.47-3.03.94,1.24,8.43,2.31,5.02.17-.54.2-4.25,0-4.55ZM118.81,107.61c2.8-2.97-8.1-6.67-10.05-6.94-2.77-.38-3.44,2.03-2.49,4.27s10.39,4.95,12.54,2.67Z"/>
        <path class="cls-1" d="M97.47,102.37c1.91-1.76,4.5,6.53,4.98,7.31,2.62,4.2,9.58,3.99,10.46,5.65.71,1.34-4.01,5.61-5.18,6.01-5.41,1.87-4.67-5.96-5.94-9.66-.42-1.22-4.7-8.96-4.32-9.31Z"/>
        <path class="cls-5" d="M103.28,67.05c.16-.42.25-.87.45-1.34,1.94-.65,1.69-2.81,4.47-2.04,11.36,3.13.42,13.92-4.92,3.38Z"/>
        <path class="cls-5" d="M118.93,56.33c2.45-.13,3.78-1.37,6.82-.79,1.75.33,9.93,4.36,10.81,5.72,1.05,1.62.82,5.58-.95,6.18-1.62.54-8.37-1.78-10.33-2.5-2.55-.94-7.29-2.21-7.69-5.3-.27-2.06.59-1.99,1.33-3.31-3.59.19-6.91-1.89-5.81-5.81.04-.15-.05-.33,0-.45,2.56-.75,3.17-1.08,5.51.52,3.3,2.26,1.85,2.96.3,5.74Z"/>
        <path class="cls-5" d="M144.85,67.05c-2.82,1.58-7.8.76-7.15-3.33.4-2.54,4.44-1.61,6.15-.82.64.3.49,1.25,1.45,1.02-.06,1.13-.35,2.06-.45,3.13Z"/>
        <path class="cls-5" d="M130.55,101.92c-.85,1.02-.98,1.48-2.23,2.68-9.5-.75-3.68-10.77,2.23-2.68Z"/>
        <path class="cls-5" d="M124.74,107.28c-.79.44-.45.46-1.79.89l-.45.45c-.34.05-1.02.06-1.34,0-.42-.08-.84-.03-1.14-.42-.48-3.81,6.11-6.48,4.72-.92Z"/>
        <path class="cls-3" d="M122.5,108.62l.45-.45s-.12.4-.45.45Z"/>
        <path class="cls-5" d="M132.64,71.21c1.44,1.58,1.35,4.44.14,6.12,3.57-.21,8.99.1,7.85,4.95-.65,2.74-2.85,2.52-5.29,2.1-5.55-.96-2.73-5.46-3.46-6.15-.07-.07-1.36.03-1.89-.11-3.9-1.06-8.57-3.17-11.86-5.23-1.41-.89-3.11-.96-3.59-3.02-1.21-5.27,3.36-4.97,7.06-3.94,1.6.45,10.15,4.33,11.03,5.29Z"/>
        <path class="cls-5" d="M113,74.31c3.12-.8,7.31.87,10.17,2.13,3.65,1.6,6.77,2.58,6.01,7.35-.53,3.36-2.91,2.4-5.34,1.82-2.18-.53-11.13-3.67-12.49-4.94-2.25-2.1-1.21-5.62,1.66-6.35Z"/>
        <path class="cls-5" d="M109.87,84.14c1.44-.29,4.13-.23,5.6,0,2.1.33,9.91,3.53,10.52,5.57.43,1.47.17,4.9-1.56,5.42-2.05.62-14.09-3.87-15.94-5.35-2.21-1.76-1.65-5.04,1.38-5.65Z"/>
        <path class="cls-5" d="M127.32,46.13c2.66-.36,11.91,3.87,12.52,6.49s-.59,5.7-3.69,5.51c-2.07-.13-10.83-4.33-12.06-5.85-2.21-2.75.16-5.73,3.23-6.15Z"/>
        <path class="cls-5" d="M108.05,93.05c1.81-.62,10.43,2.66,12.09,3.85,1.08.78,1.94,1.82,1.26,3.22-1.67,3.44-13.94-.13-14.54-3.37-.19-1.03.03-3.32,1.19-3.71Z"/>
        <path class="cls-5" d="M118.81,107.61c-2.16,2.28-11.63-.51-12.54-2.67s-.27-4.66,2.49-4.27c1.95.27,12.85,3.97,10.05,6.94Z"/>
        <path class="cls-5" d="M110.3,56.42c7.43-2.2,9.39,11.88-.63,6.26-2.91-1.64-1.79-5.54.63-6.26Z"/>
        <path class="cls-5" d="M136.23,69.39c1.74-.39,4.96-.27,5.97,1.44s.54,5.22-1.61,5.62c-1.73.32-6.09-1.15-6.45-2.91-.38-1.87.03-3.68,2.1-4.14Z"/>
        <path class="cls-5" d="M104.91,71.17c1.76-.16,5.93,2.42,4.74,5.15-1.89,4.34-8.18-.23-7.53-2.58.24-.85,1.9-2.49,2.8-2.58Z"/>
        <path class="cls-5" d="M131.76,84.57c4.01-.57,7.72,4.24,4.16,5.95-5.33,2.55-8.96-5.26-4.16-5.95Z"/>
        <path class="cls-5" d="M102.27,87.24c2.86-.42,6.86,3.88,3.24,5.51-4.49,2.01-7.65-4.86-3.24-5.51Z"/>
        <path class="cls-5" d="M128.18,39.85c1.43-.39,4.83,1.16,4.52,3.19-.46,3.02-5.13,2.04-5.97.32-.54-1.1.28-3.19,1.45-3.52Z"/>
        <path class="cls-5" d="M136.03,47.27c-1.57-1.71.22-4.64,3.33-3.56,5.78,2-.11,7.08-3.33,3.56Z"/>
        <path class="cls-5" d="M102.26,79.64c2.1-.61,5.97,1.73,4.18,4.21-2.64,3.64-8.18-3.04-4.18-4.21Z"/>
        <path class="cls-5" d="M132.23,96.89c-1.75,1.79-7.41-1.49-4.7-4.25,1.67-1.7,7.71,1.19,4.7,4.25Z"/>
        <path class="cls-5" d="M122.35,43.92c.74-.04,1.5.45,1.93,1.04-.96,1.82-3.29,6.48-5.81,4-1.85-1.83,2.06-4.95,3.88-5.03Z"/>
        <path class="cls-5" d="M143.43,52.38c.99.59,1.38,6,.47,6.57-.61.38-2.9-.15-3.31-.83-.37-.62.49-5.59.7-5.79.12-.11,1.84-.12,2.14.05Z"/>
        <path class="cls-5" d="M105.01,95.73c.19.3.16,4.02,0,4.55-1.07,3.4-5.33-4.08-2.31-5.02.48-.15,2.13.18,2.32.47Z"/>
      </g>
    </g>
  </g>
</svg>