<?xml version="1.0" encoding="UTF-8"?>
<svg id="Layer_2" data-name="Layer 2" xmlns="http://www.w3.org/2000/svg" viewBox="0 0 185 185">
  <defs>
    <style>
      .cls-1 {
        fill: #e3bb7b;
      }

      .cls-2 {
        fill: #b6894a;
      }

      .cls-3 {
        fill: #bc8336;
      }

      .cls-4 {
        fill: #cb9649;
      }

      .cls-5 {
        fill: #b2905d;
      }

      .cls-6 {
        fill: #f5db6e;
      }

      .cls-7 {
        fill: none;
      }

      .cls-8 {
        fill: #dba35c;
      }

      .cls-9 {
        fill: #ba853c;
      }

      .cls-10 {
        fill: #cb9a4f;
      }

      .cls-11 {
        fill: #dea65e;
      }

      .cls-12 {
        fill: #b18b56;
      }

      .cls-13 {
        fill: #bd955a;
      }

      .cls-14 {
        fill: #cd9748;
      }
    </style>
  </defs>
  <g id="borxes">
    <rect class="cls-7" width="185" height="185"/>
  </g>
  <g id="flavours">
    <g>
      <g>
        <path class="cls-1" d="M144.81,49.24c.26,2.01,1.77,3.33,2.74,4.96,4.39,7.34,2.89,14.55-4.46,19.35-9.47,6.18-19.34,6.08-29.28.95.7-.57,1.4-1.14,2.11-1.71.52.15,1.05.31,1.57.46.8,1.45,2.02,2.08,3.67,1.91.88.57,1.73.32,2.58-.09,2.62,1.76,5.14.17,7.7-.24,6.16-1.72,13.31-3.04,15.03-10.09,1.54-6.33-1.28-12.37-6.16-17.04-1.47-1.81-2.94-3.62-4.41-5.43-5.18-4.14-10.5-3.16-15.86-.42-.33.14-.65.29-.97.46-1.39-1.03-2.97-1.47-4.69-1.46-.96-1.68-1.92-3.37-2.88-5.05-.74-1.1-1.64-1.23-2.95-.93-3.98.93-7.27,3.04-10.36,5.58.16-.82.31-1.64.47-2.46,0,0,.04,0,.04,0,1.57-1.37,3.02-2.9,4.72-4.08,4.2-2.9,8.71-2.5,11.46,1.71,2.53,3.88,5.3,4.17,9.18,2.78,2.09-.75,4.42-.85,6.65-1.24.85,0,1.7,0,2.55.01.53.19,1.05.37,1.58.56,1.39.97,2.79,1.94,4.18,2.92,0,0-.02,0-.02,0,.62.95,1.25,1.89,1.87,2.84.92,1.88,1.57,3.96,3.58,5.07-.02.3.1.53.37.68Z"/>
        <path class="cls-1" d="M71.59,99.87c-.86-.03-1.72-.06-2.59-.09-.49-.95-1.03-1.81-2.33-1.28,0,0,.1.02.1.02-.41-.69-.92-.83-1.55-.3,0,0-.07,0-.07-.01-.62-1.29-1.54-.87-2.46-.43-1.28.13-2.98-.23-3.78.46-4.09,3.5-9.28,3.63-14.05,5.04-.25-.11-.43-.03-.53.23-2.49-.43-4.2,1.3-6.18,2.25-2.99,1.44-5.64,3.88-9.36,3.03,0,0-.4-.33-.4-.33-1.44-2.6-2.87-5.21-4.31-7.81,0,0-.09-.02-.09-.02-.37-4.03-2.07-7.62-3.65-11.25l-.02.05c.44-.45.74-.9.09-1.42-.36-.69-.72-1.38-1.08-2.07-.48-2.1-.69-4.16,1.13-5.81.36.67.73,1.34,1.09,2.01,1.48,5.05,2.8,10.16,4.48,15.15,2.06,6.15,7.18,7.86,11.18,3.95,1.31-.7,2.63-1.4,3.94-2.1,2.45,2.56,4.15-.29,6.17-.86.35-.16.7-.32,1.04-.49,2.81.99,5.11-.29,7.5-1.52,3.35-1.72,6.22-6.01,10.74-1.39,1.41,1.44,4.36.86,6.51-.19,1.94-.95,3.88-1.49,5.98-.6v.05c-.52.72-1.03,1.45-1.53,2.17-.91.57-1.82,1.15-2.73,1.72-2.01-1-3.07-.36-3.23,1.85Z"/>
        <path class="cls-5" d="M60.49,45.49c1.85,1.71,3.64,3.45,2.96,6.34-1.29.24-2.17-.36-2.83-1.39-1.58-2.3-3.68-2.85-6.25-1.89-1.58-1.8-3.1-3.29-4.33.31-.41,1.21-1.59,1.52-2.7,1.81.01-1.09.02-2.18.04-3.28,0,0-.03-.01-.03-.01.48-.69.95-1.38,1.43-2.06.91-.52,1.82-1.04,2.73-1.56.56.09,1.13.18,1.69.28.5.16,1.01.32,1.51.49.54.12,1.07.24,1.61.36,0,0,.02,0,.02,0,.4.57.89.61,1.45.26.9.11,1.8.23,2.69.34Z"/>
        <path class="cls-1" d="M115.92,72.79c-.7.57-1.4,1.14-2.11,1.71,0,0-.06-.1-.06-.11-.66-1.45-1.76-1.65-3.12-1.09,0,0,.08-.03.08-.03-.52-.24-1.03-.47-1.55-.71,0,0,.05.03.05.03-.47-.98-1.11-1.67-2.33-1.34-4.89-1.49-9.7-3.5-14.85-2.35-.67,1.19.05,1.64.65,2.03,4.9,3.17,7.88,12.75,5.24,17.65-.55,1.03-2.07,1.57-3.2,2.25-1.76,1.06-4,1.71-3.51,4.5-2.51,2.6-6.4.06-8.98,2.41,0,0,.04,0,.04,0-1.06-1.21-2.12-2.41-3.18-3.62,0,0,.01-.05.01-.05,1.01-.56,2.02-1.13,3.03-1.69h.01c4.75,2.53,5.66,2.04,6.01-3.27-.03-1.71-.07-3.41-.1-5.12,2.06-2.79.82-6.54,2.72-9.37v.02c.52-.74.32-1.08-.57-1.04-2.93-4.3-.97-7.12,2.85-9.36,3.91-.31,7.89-1.06,11.36,1.68,4.98,3.18,6.32-.64,7.43-4.52,1.99,1.92.44,3.66.79,5.25.39,2.42,1.5,4.46,3.28,6.13Z"/>
        <path class="cls-5" d="M82.22,97.74c2.58-2.35,6.47.19,8.98-2.41,1.61,3.34.39,4.73-3.08,4.21-2.02-.31-4.15-.48-5.9-1.8Z"/>
        <path class="cls-5" d="M79.08,94.13c1.06,1.21,2.12,2.41,3.18,3.62-1.57-.48-3.14-.96-4.71-1.44.51-.72,1.02-1.45,1.52-2.17Z"/>
        <path class="cls-5" d="M71.59,99.87c.16-2.21,1.22-2.86,3.23-1.85-.49,1.64-1.64,2.12-3.23,1.85Z"/>
        <path class="cls-5" d="M110.63,73.3c1.36-.56,2.46-.36,3.12,1.09-1.31.4-2.29-.14-3.12-1.09Z"/>
        <path class="cls-5" d="M106.87,71.24c1.23-.33,1.86.36,2.33,1.34-.78-.45-1.56-.9-2.33-1.34Z"/>
        <path class="cls-5" d="M62.68,97.78c.92-.44,1.84-.86,2.46.43-.92.4-1.72.13-2.46-.43Z"/>
        <path class="cls-5" d="M66.67,98.51c1.3-.53,1.84.33,2.33,1.28-1.05.08-1.87-.27-2.33-1.28Z"/>
        <path class="cls-5" d="M109.16,72.56c.52.23,1.03.47,1.55.71-.52-.23-1.03-.47-1.55-.71Z"/>
        <path class="cls-5" d="M65.21,98.23c.64-.53,1.15-.39,1.55.3-.6.34-1.13.27-1.55-.3Z"/>
        <path class="cls-14" d="M104.41,65.92c-3.46-2.74-7.44-1.99-11.36-1.68-1.93-.7-3.82-.03-5.53.57-2.81.99-3.7,3.47-2.54,6.01,1.02,2.22,1.43,6.31,5.79,3.79-1.9,2.84-.66,6.58-2.72,9.37-2.18-1.1-2.96-3.35-4.32-5.13-.9-1.17-2.11-2.45-3.8-1.93-1.97.6-2.4,2.55-2.14,4.19.64,4.03.92,8.28,4.33,11.26-1.01.56-2.02,1.13-3.03,1.69-2.1-.89-4.04-.35-5.98.6-2.15,1.05-5.1,1.63-6.51.19-4.52-4.61-7.39-.32-10.74,1.39-2.39,1.23-4.7,2.51-7.5,1.52-1.47-3.22.6-4.65,3.05-5.59,1.93-.74,4.04-1.01,6.06-1.51,2.42-.61,4.17-2.33,4.61-4.54.7-3.53-3.51-3.37-5-5.51-1.7-2.43-2.54,1.18-3.97,1.31-2.91.26-3.66,7.05-8.2,2.59-1.08-1.06-.6.44-.62.93-.24,4.53-4.25,5.79-7.17,7.65-3.13,2-4.57-1.26-6.36-3.1-.78-.8-1.77-1.55-2.8-1.93-1.65-.6-2.94.06-1.98,1.9,2.55,4.88,3.87,11.11,11.22,11.24-4,3.91-9.12,2.2-11.18-3.95-1.67-4.99-3-10.09-4.48-15.15,1.65-2.23,3.34-4.46,6.46-2.14,6.7,4.98,7.05,5.32,12.24-.53,2.03-2.28,6.12-3.75,5.93-6.96-.28-4.68.7-8.8,2.45-12.93,1.15,2.24,2.58,4.17,5.24,2.03,1.98-1.6,1.48-10.09-.51-12.45.34-.2.68-.4,1.02-.61,2.56-.97,4.67-.41,6.25,1.89-.33,2.74-1.88,5.36-.76,8.23-.17.53-.35,1.07-.52,1.6-1.22.75-1.51,1.76-.86,3.04-1.14,1.8-1.52,3.65.74,4.73,2.87,1.38,3.67-1.84,5.49-2.82.55.16,1.1.33,1.64.49,1.38,1.47,1.74,5.79,4.45,3.69,5.21-4.04,11.34-6.11,16.72-9.49,3.47-2.18,5.5-2.94,8.19.82-1.27-3.03-.22-4.54,2.24-5.76,4.24-2.1,8.34-4.49,12.5-6.76,2.01.07.45-.99.49-1.54.46-1.56.91-3.12,1.37-4.68.69-.38,1.37-.76,2.06-1.15,1.72-.01,3.29.43,4.69,1.46,2.06,2.39-.29,5.75,1.8,8.14-.35.41-.71.83-1.06,1.24,5.62,2.33,2.3,7.81,4.05,11.5-.57.89-.36,1.75.09,2.61v-.03c-.83.89-1.66,1.79-2.49,2.68-.71-1.62-2.48-1.23-3.68-1.92,4.41-3.75,4.41-3.91-.59-5.86-1.29-.5-1.45-1.48-1.83-2.59-.86-2.5-2.77-4.09-5.94-5.98,2.47,6.88-.41,10.72-4.99,13.81Z"/>
        <path class="cls-8" d="M112.3,42c-.46,1.56-.91,3.12-1.37,4.68-.16.51-.32,1.03-.49,1.54-4.16,2.27-8.26,4.65-12.5,6.76-2.46,1.22-3.51,2.72-2.24,5.76-2.69-3.76-4.72-3.01-8.19-.82-5.39,3.39-11.52,5.46-16.72,9.49-2.72,2.11-3.08-2.21-4.45-3.69.65-.37,1.3-.73,1.96-1.1,4.5-.26,6.78-3.77,9.59-6.52,1.67-.9,3.34-1.8,5.01-2.69,2.29,2.34,3.61,1.12,4.61-1.26,2.27-1.28,4.88-2.22,6.66-3.99.89-.88,4.84-3.19.25-5.01,1.25-1.56,2.5-3.13,3.76-4.69,3.09-2.53,6.38-4.65,10.36-5.58,1.31-.31,2.21-.18,2.95.93-4.91,2.76.81,4.1.83,6.2Z"/>
        <path class="cls-9" d="M121.43,68.46c.83-.89,1.67-1.79,2.5-2.68.4,3.89,3.38,1.34,4.91,1.65,7.45,1.47,11.92-2.34,12.19-10.17.11-3.17-.48-6.37-.74-9.56,4.89,4.67,7.71,10.72,6.17,17.04-1.72,7.05-8.87,8.37-15.03,10.09-.17-.34-.34-.68-.52-1.01.35-.4,1.31-.52.74-1.32-.1-.14-.87.18-1.33.29-1.53,2.68-5.61-2-6.59,2.28-.85.41-1.7.66-2.58.09-.89-.83-1.77-1.66-2.66-2.48.98-1.41,1.96-2.81,2.94-4.22Z"/>
        <path class="cls-11" d="M120.85,50.45c-2.09-2.38.26-5.75-1.8-8.14.32-.17.64-.33.97-.47,3.94,3.45,9.32.58,13.47,3.07,2.18,3.82,3.65,7.91,3.36,12.31-.21,3.18-2.14,7.09-4.54,7.46-2.27.35-3.41-3.84-4.02-6.64-.16-.73-.4-1.45-.6-2.17.8-2.55-.35-3.16-2.63-2.64-.66-2.06-2.62-2.16-4.23-2.8Z"/>
        <path class="cls-6" d="M120.85,50.45c1.6.64,3.57.73,4.23,2.8.57,1.18,1,2.51,2.63,2.63.2.72.44,1.44.6,2.17.61,2.8,1.75,6.99,4.02,6.64,2.4-.37,4.33-4.28,4.54-7.46.28-4.4-1.18-8.5-3.36-12.31.8-.88,1.59-1.76,2.38-2.64,1.47,1.81,2.94,3.62,4.41,5.43.27,3.19.85,6.38.74,9.56-.27,7.83-4.74,11.64-12.19,10.17-1.54-.3-4.51,2.24-4.91-1.65,0,0,0,.03,0,.03.59-.89.34-1.75-.09-2.61-1.75-3.69,1.57-9.17-4.05-11.5.35-.41.71-.83,1.06-1.24Z"/>
        <path class="cls-10" d="M135.88,42.27c-.79.88-1.59,1.76-2.38,2.64-4.16-2.49-9.54.39-13.47-3.06,5.36-2.73,10.68-3.71,15.86.42Z"/>
        <path class="cls-3" d="M121.43,68.46c-.98,1.41-1.96,2.81-2.94,4.22-.34.19-.67.38-1.01.57-.52-.15-1.05-.31-1.57-.46-1.78-1.67-2.9-3.71-3.28-6.13,1.7-.18,3.44.96,5.12-.11,1.2.69,2.97.29,3.68,1.92Z"/>
        <path class="cls-1" d="M123.73,75.07c.98-4.28,5.06.4,6.59-2.28.2.34.39.69.59,1.03.18.33.36.67.52,1.01-2.56.41-5.08,2-7.7.24Z"/>
        <path class="cls-4" d="M112.3,42c-.02-2.1-5.74-3.44-.83-6.2.96,1.68,1.92,3.37,2.88,5.05-.69.38-1.37.76-2.06,1.15Z"/>
        <path class="cls-2" d="M117.49,73.25c.34-.19.67-.38,1.01-.57.89.83,1.77,1.66,2.66,2.48-1.64.17-2.87-.46-3.67-1.91Z"/>
        <path class="cls-6" d="M37.21,101.23c-7.35-.13-8.68-6.36-11.22-11.24-.96-1.84.33-2.5,1.98-1.9,1.04.38,2.02,1.12,2.8,1.93,1.79,1.85,3.23,5.1,6.36,3.1,2.92-1.87,6.93-3.12,7.17-7.65.03-.49-.46-1.99.62-.93,4.54,4.46,5.28-2.33,8.2-2.59,1.42-.13,2.27-3.74,3.97-1.31,1.49,2.14,5.69,1.98,5,5.51-.44,2.21-2.19,3.93-4.61,4.54-2.02.51-4.13.78-6.06,1.51-2.46.94-4.53,2.37-3.05,5.59-.34.17-.69.34-1.04.49-2.51-2.95-4.17.15-6.17.86-1.31.7-2.63,1.4-3.94,2.1Z"/>
        <path class="cls-13" d="M54.38,48.56c-.34.2-.68.4-1.02.61-3.11,2.78-4.59,6.29-4.73,10.42-1.75,4.13-2.74,8.25-2.45,12.93.19,3.2-3.9,4.67-5.93,6.96-5.19,5.85-5.55,5.51-12.24.53-3.12-2.32-4.81-.09-6.46,2.14-.36-.67-.73-1.34-1.09-2.01.77-2.14,2.62-3,4.49-3.86.78.11,1.56.22,2.35.33.57.18,1.13.35,1.69.53,0,0,0,.21,0,.21,4.53,5.24,5.72,5.07,9.84-.23,5.3-6.82,5.87-15.07,7.57-23,.24-.59.49-1.18.73-1.77,0,0-.07.08-.07.08.16-.55.32-1.1.47-1.64,0,0-.17-.1-.17-.09,1.11-.29,2.29-.6,2.7-1.81,1.23-3.6,2.75-2.11,4.33-.31Z"/>
        <path class="cls-14" d="M41.15,99.13c2-.71,3.66-3.81,6.17-.86-2.02.57-3.71,3.42-6.17.86Z"/>
        <path class="cls-5" d="M47.52,50.77c-.16.55-.31,1.09-.47,1.64-.33-.69-.24-1.25.47-1.64Z"/>
        <path class="cls-5" d="M47.12,52.34c-.24.59-.49,1.18-.73,1.77.24-.59.49-1.18.73-1.77Z"/>
        <path class="cls-13" d="M68.3,64.62c-.65.37-1.3.73-1.96,1.1-.55-.16-1.09-.33-1.64-.49-.51-.17-1.03-.34-1.54-.51l-.51-1.22c4.53-2.34,8.29-6.01,13.2-7.69,7.16-1.86,12.71-6.53,18.57-10.66,4.58,1.81.64,4.12-.25,5.01-1.78,1.77-4.39,2.71-6.66,3.99-1.89-.87-3.14.59-4.61,1.26-1.67.9-3.34,1.8-5.01,2.69-4.95-.41-7.31,3-9.59,6.52Z"/>
        <path class="cls-12" d="M62.65,63.5c.17.41.34.82.51,1.22-1.84.47-3.01-1.31-4.68-1.4-.64-1.28-.35-2.29.86-3.04.17-.53.35-1.07.52-1.6-1.12-2.87.44-5.49.76-8.23.66,1.04,1.54,1.63,2.83,1.39,1.15,3.98-.88,7.75-.8,11.66Z"/>
        <path class="cls-11" d="M82.12,92.39c-3.42-2.99-3.7-7.24-4.33-11.26-.26-1.64.17-3.59,2.14-4.19,1.68-.52,2.9.76,3.8,1.93,1.37,1.78,2.15,4.03,4.32,5.13.03,1.71.07,3.41.1,5.12-2.23.68-3.42,3.27-6.01,3.28h-.01Z"/>
        <path class="cls-4" d="M117.75,66.54c-1.68,1.07-3.42-.06-5.12.11-.36-1.59,1.2-3.33-.79-5.25-1.12,3.88-2.45,7.69-7.43,4.52,4.58-3.09,7.46-6.93,4.99-13.81,3.17,1.89,5.08,3.48,5.94,5.98.38,1.11.54,2.09,1.83,2.59,4.99,1.95,4.99,2.11.59,5.86Z"/>
        <path class="cls-3" d="M90.77,74.62c-4.36,2.52-4.77-1.57-5.79-3.79-1.17-2.55-.27-5.02,2.54-6.01,1.71-.61,3.6-1.28,5.53-.57-3.82,2.25-5.78,5.06-2.85,9.36.19.35.38.69.57,1.04v-.02Z"/>
        <path class="cls-14" d="M82.14,92.4c2.59-.02,3.78-2.6,6.01-3.28-.35,5.31-1.26,5.8-6.01,3.28Z"/>
        <path class="cls-14" d="M90.77,74.65c-.19-.35-.38-.69-.57-1.04.89-.04,1.09.3.57,1.04Z"/>
        <path class="cls-11" d="M48.64,59.58c.13-4.13,1.62-7.64,4.73-10.42,1.99,2.35,2.49,10.85.51,12.45-2.66,2.14-4.09.21-5.24-2.03Z"/>
        <path class="cls-9" d="M58.47,63.32c1.67.09,2.84,1.87,4.68,1.4.51.17,1.03.34,1.54.51-1.82.98-2.62,4.21-5.49,2.82-2.26-1.09-1.87-2.94-.74-4.73Z"/>
        <path class="cls-4" d="M110.45,48.23c.16-.51.32-1.03.49-1.54-.03.55,1.52,1.61-.49,1.54Z"/>
        <path class="cls-9" d="M123.84,63.19c.43.86.68,1.72.09,2.61-.45-.85-.66-1.72-.09-2.61Z"/>
        <path class="cls-9" d="M59.86,58.68c-.17.53-.35,1.07-.52,1.6.17-.53.35-1.07.52-1.6Z"/>
        <path class="cls-14" d="M68.3,64.62c2.28-3.52,4.63-6.93,9.59-6.52-2.8,2.75-5.09,6.26-9.59,6.52Z"/>
        <path class="cls-14" d="M82.89,55.41c1.47-.67,2.72-2.13,4.61-1.26-1,2.38-2.32,3.6-4.61,1.26Z"/>
        <path class="cls-4" d="M130.91,73.82c-.2-.34-.39-.69-.59-1.03.46-.11,1.23-.43,1.33-.29.57.8-.4.92-.74,1.32Z"/>
        <path class="cls-14" d="M127.7,55.89c-1.63-.12-2.06-1.45-2.63-2.63,2.28-.53,3.43.08,2.63,2.63Z"/>
      </g>
      <g>
        <path class="cls-1" d="M150.71,153.06c-1.56,1.3-1.87,3.28-2.71,4.97-3.84,7.64-10.72,10.25-18.72,6.62-10.3-4.68-15.51-13.06-16.51-24.19.86.29,1.71.57,2.57.86.15.52.3,1.05.45,1.57-.8,1.45-.67,2.82.35,4.12-.01,1.05.66,1.63,1.46,2.13-.08,3.16,2.62,4.43,4.33,6.37,4.76,4.27,9.71,9.6,16.58,7.26,6.17-2.09,9.75-7.72,11.07-14.35.74-2.21,1.47-4.42,2.21-6.63.71-6.59-2.97-10.55-8.15-13.61-.29-.21-.6-.4-.91-.57.12-1.73-.35-3.3-1.28-4.74.9-1.72,1.81-3.43,2.72-5.15.54-1.21.16-2.04-.8-2.99-2.92-2.86-6.47-4.5-10.26-5.75.78-.31,1.55-.62,2.33-.92,0,0,.03.03.03.03,2,.59,4.07.99,5.97,1.8,4.7,1.99,6.78,6.01,4.7,10.59-1.92,4.22-.67,6.71,2.58,9.24,1.76,1.37,3.09,3.28,4.61,4.94.45.72.91,1.44,1.36,2.16.13.54.25,1.09.38,1.63-.07,1.7-.14,3.4-.22,5.09,0,0,0-.01,0-.01-.46,1.03-.93,2.07-1.39,3.1-1.09,1.79-2.49,3.45-2.35,5.74-.27.14-.39.37-.38.67Z"/>
        <path class="cls-1" d="M68.69,118.45c-.44-.74-.88-1.49-1.31-2.23.53-.92.97-1.84-.17-2.66,0,0,.03.09.04.09.36-.71.21-1.22-.58-1.47,0,0-.03-.07-.03-.07.76-1.22-.09-1.77-.95-2.31-.8-1.02-1.41-2.64-2.42-2.95-5.15-1.57-8.04-5.88-11.8-9.15-.05-.27-.21-.38-.48-.32-.97-2.33-3.35-2.85-5.21-4.01-2.82-1.75-6.3-2.68-7.58-6.27,0,0,.06-.52.06-.52,1.43-2.61,2.85-5.22,4.28-7.82,0,0-.03-.09-.03-.09,3.2-2.47,5.32-5.84,7.53-9.12h-.05c.61.15,1.16.15,1.25-.67.39-.67.78-1.34,1.17-2.02,1.52-1.54,3.13-2.82,5.51-2.17-.37.67-.74,1.33-1.11,2-3.47,3.96-7.07,7.82-10.38,11.9-4.08,5.04-2.78,10.28,2.67,11.55,1.3.73,2.59,1.47,3.89,2.2-.85,3.44,2.47,3.35,4.03,4.74.32.21.64.42.97.61.67,2.9,2.99,4.16,5.31,5.52,3.25,1.9,8.41,2.02,6.94,8.31-.46,1.96,1.61,4.14,3.66,5.39,1.84,1.12,3.34,2.47,3.71,4.72l-.05.02c-.88-.04-1.77-.08-2.65-.12-.97-.46-1.94-.92-2.92-1.38-.23-2.23-1.35-2.78-3.3-1.73Z"/>
        <path class="cls-5" d="M108.62,79.9c-.45,2.48-.96,4.92-3.77,5.9-.9-.96-.86-2.02-.34-3.13,1.09-2.56.43-4.64-1.76-6.28.67-2.3,1.11-4.38-2.58-3.48-1.24.3-2.14-.52-2.98-1.31.93-.58,1.86-1.15,2.78-1.73,0,0,0-.03,0-.03.84.03,1.67.07,2.51.1.93.49,1.85.98,2.78,1.46.23.53.45,1.05.67,1.58.13.51.27,1.02.4,1.54.19.52.38,1.04.56,1.55,0,0,0,.02,0,.02-.26.64-.04,1.08.56,1.37.39.82.77,1.64,1.16,2.45Z"/>
        <path class="cls-1" d="M115.34,141.31c-.86-.29-1.71-.57-2.57-.86,0,0,.05-.11.06-.11.87-1.34.45-2.37-.76-3.22,0,0,.07.06.07.05-.08-.56-.16-1.13-.24-1.69,0,0,0,.06,0,.06.58-.92.82-1.83-.12-2.69-1.37-4.92-2.25-10.06-5.99-13.8-1.36.07-1.36.92-1.36,1.64-.04,5.84-6.53,13.49-12.09,13.9-1.16.08-2.44-.9-3.62-1.49-1.84-.92-3.59-2.46-5.68-.54-3.54-.73-3.48-5.37-6.85-6.29,0,0,.01.04.01.04.45-1.54.9-3.09,1.34-4.63,0,0,.05-.02.05-.02,1.02.55,2.04,1.1,3.05,1.65v.02c.42,5.36,1.33,5.86,5.99,3.31,1.42-.94,2.84-1.89,4.27-2.83,3.46.25,5.96-2.82,9.37-2.73h-.02c.91.06,1.08-.29.57-1.03,2.06-4.78,5.49-4.63,9.43-2.62,2.36,3.14,5.13,6.09,4.68,10.48,0,5.91,3.93,4.99,7.8,3.85-.55,2.71-2.86,2.33-4.01,3.49-1.83,1.63-2.95,3.66-3.41,6.06Z"/>
        <path class="cls-5" d="M76.2,126.27c3.37.91,3.31,5.56,6.85,6.29-1.95,3.15-3.78,2.87-5.21-.34-.83-1.87-1.82-3.76-1.65-5.94Z"/>
        <path class="cls-5" d="M77.56,121.68c-.45,1.54-.9,3.09-1.34,4.63-.44-1.58-.87-3.16-1.31-4.75.88.04,1.77.08,2.65.12Z"/>
        <path class="cls-5" d="M68.69,118.45c1.95-1.05,3.07-.5,3.3,1.73-1.65.47-2.67-.25-3.3-1.73Z"/>
        <path class="cls-5" d="M112.07,137.12c1.2.85,1.62,1.88.76,3.22-1.04-.89-1.11-2-.76-3.22Z"/>
        <path class="cls-5" d="M111.78,132.86c.93.86.7,1.77.12,2.69-.04-.9-.08-1.79-.12-2.69Z"/>
        <path class="cls-5" d="M65.68,109.81c.86.54,1.71,1.09.95,2.31-.83-.56-1.03-1.38-.95-2.31Z"/>
        <path class="cls-5" d="M67.2,113.56c1.15.81.71,1.73.17,2.66-.63-.85-.77-1.73-.17-2.66Z"/>
        <path class="cls-5" d="M111.9,135.49c.08.56.16,1.12.24,1.69-.08-.56-.16-1.13-.24-1.69Z"/>
        <path class="cls-5" d="M66.66,112.18c.79.25.95.76.58,1.47-.61-.33-.84-.8-.58-1.47Z"/>
        <path class="cls-14" d="M114.95,127.92c.45-4.39-2.32-7.35-4.68-10.48-.44-2.01-2.03-3.24-3.45-4.36-2.34-1.84-4.91-1.26-6.44,1.09-1.33,2.05-4.55,4.59-.09,6.92-3.41-.08-5.91,2.98-9.37,2.73-.24-2.43,1.24-4.29,2.01-6.4.51-1.39.93-3.1-.41-4.24-1.56-1.34-3.44-.66-4.69.44-3.05,2.7-6.49,5.21-7.18,9.7-1.02-.55-2.04-1.1-3.05-1.65-.37-2.25-1.87-3.6-3.71-4.72-2.04-1.25-4.11-3.43-3.66-5.39,1.47-6.29-3.7-6.41-6.94-8.31-2.32-1.36-4.64-2.61-5.31-5.52,1.92-2.97,4.24-1.99,6.35-.42,1.66,1.23,3.02,2.87,4.53,4.3,1.81,1.72,4.2,2.27,6.3,1.45,3.35-1.31.96-4.77,1.97-7.17,1.14-2.74-2.36-1.51-3.23-2.64-1.78-2.32-7.91.7-6.59-5.53.32-1.48-.69-.27-1.12-.03-3.95,2.23-7.16-.48-10.3-1.94-3.37-1.57-1.39-4.53-.8-7.03.26-1.09.36-2.32.12-3.4-.38-1.71-1.63-2.45-2.67-.65-2.75,4.77-7.3,9.23-3.46,15.5-5.45-1.28-6.75-6.52-2.67-11.55,3.31-4.09,6.91-7.95,10.38-11.9,2.77.2,5.55.43,5.27,4.31-.61,8.32-.7,8.8,7.02,10.04,3.01.48,6.45,3.15,9.05,1.27,3.8-2.75,7.8-4.13,12.23-4.87-1.27,2.17-2.13,4.41,1.1,5.51,2.41.82,9.31-4.17,10.23-7.11.35.18.7.35,1.06.53,2.19,1.65,2.85,3.72,1.76,6.28-2.49,1.19-5.53,1.29-7.36,3.77-.54.14-1.09.28-1.63.42-1.29-.62-2.3-.32-3.03.9-2.13,0-3.89.67-3.6,3.16.37,3.17,3.52,2.11,5.33,3.12.16.55.31,1.1.47,1.65-.51,1.95-3.96,4.57-.72,5.74,6.2,2.23,11.24,6.29,16.99,9.02,3.71,1.76,5.43,3.07,3.7,7.35,1.88-2.7,3.71-2.62,6.06-1.2,4.05,2.45,8.27,4.63,12.41,6.93,1.02,1.73,1.07-.15,1.56-.42,1.56-.45,3.13-.91,4.69-1.36.69.37,1.38.75,2.07,1.12.93,1.44,1.4,3.01,1.28,4.74-.91,3.02-5.01,2.84-5.9,5.88-.54-.08-1.08-.15-1.61-.23,1.05,5.99-5.35,6.13-7.53,9.59-1.06,0-1.67.64-2.15,1.48h.03c-1.2-.23-2.4-.45-3.61-.68.99-1.47-.29-2.75-.36-4.13,5.53,1.7,5.66,1.62,4.63-3.64-.27-1.36.47-2.02,1.2-2.94,1.65-2.07,1.96-4.53,1.86-8.22-4.48,5.78-9.26,5.41-14.33,3.2Z"/>
        <path class="cls-8" d="M139.37,121.75c-1.56.45-3.13.91-4.69,1.36-.52.14-1.04.28-1.56.42-4.15-2.29-8.36-4.48-12.41-6.93-2.35-1.42-4.18-1.5-6.06,1.2,1.73-4.28,0-5.59-3.7-7.35-5.75-2.73-10.79-6.79-16.99-9.02-3.23-1.16.22-3.78.72-5.74.66.35,1.32.71,1.98,1.06,2.63,3.66,6.82,3.7,10.65,4.59,1.65.93,3.31,1.86,4.96,2.78-.74,3.19.99,3.65,3.54,3.21,2.3,1.23,4.49,2.92,6.94,3.48,1.22.28,5.29,2.37,4.36-2.47,1.99.22,3.98.43,5.97.65,3.79,1.25,7.34,2.89,10.26,5.75.96.94,1.34,1.77.8,2.99-4.96-2.66-3.02,2.88-4.79,4.02Z"/>
        <path class="cls-9" d="M121.95,143.65c1.2.22,2.4.45,3.61.67-3.06,2.43.68,3.57,1.25,5.03,2.75,7.08,8.37,8.8,15.12,4.83,2.74-1.61,5.12-3.82,7.67-5.76-1.32,6.63-4.91,12.25-11.07,14.35-6.87,2.33-11.82-2.99-16.58-7.26.2-.32.39-.65.57-.98.53.08,1.14.82,1.51-.08.07-.16-.62-.64-.96-.97-3.09.15-1.32-5.81-5.46-4.34-.8-.5-1.47-1.08-1.46-2.13.22-1.19.45-2.38.67-3.57,1.71.07,3.42.14,5.13.22Z"/>
        <path class="cls-11" d="M136.82,133.49c.89-3.04,4.99-2.86,5.9-5.88.31.17.62.36.91.57-.8,5.18,4.51,8.17,4.64,13.01-2.05,3.89-4.72,7.32-8.58,9.45-2.8,1.54-7.13,2-8.73.18-1.52-1.73,1.41-4.94,3.44-6.96.53-.53,1.01-1.11,1.51-1.67,2.59-.69,2.48-1.99.81-3.63,1.39-1.66.42-3.37.09-5.07Z"/>
        <path class="cls-6" d="M136.82,133.49c.32,1.7,1.29,3.4-.09,5.07-.69,1.12-1.58,2.19-.81,3.63-.5.56-.98,1.14-1.51,1.67-2.03,2.01-4.96,5.23-3.44,6.96,1.6,1.82,5.93,1.36,8.73-.18,3.87-2.12,6.54-5.56,8.58-9.45,1.17.2,2.34.4,3.51.6-.74,2.21-1.47,4.42-2.21,6.63-2.54,1.94-4.93,4.15-7.67,5.76-6.75,3.97-12.37,2.25-15.12-4.83-.57-1.46-4.31-2.6-1.25-5.03,0,0-.03,0-.03,0,1.07.02,1.66-.65,2.15-1.48,2.18-3.46,8.58-3.59,7.53-9.59.54.08,1.08.15,1.61.23Z"/>
        <path class="cls-10" d="M151.79,141.78c-1.17-.2-2.34-.4-3.51-.6-.13-4.84-5.45-7.84-4.65-13.01,5.19,3.06,8.86,7.02,8.15,13.61Z"/>
        <path class="cls-3" d="M121.95,143.65c-1.71-.07-3.42-.14-5.13-.22-.34-.18-.68-.36-1.02-.55-.15-.52-.3-1.05-.45-1.57.45-2.4,1.57-4.43,3.41-6.06,1.06,1.34,1.04,3.41,2.85,4.26.06,1.38,1.34,2.66.36,4.13Z"/>
        <path class="cls-1" d="M117.6,149.13c4.14-1.47,2.38,4.48,5.46,4.34-.19.35-.37.7-.56,1.05-.18.33-.37.66-.57.98-1.71-1.94-4.41-3.21-4.33-6.37Z"/>
        <path class="cls-4" d="M139.37,121.75c1.76-1.14-.18-6.69,4.79-4.02-.91,1.71-1.81,3.43-2.72,5.14-.69-.37-1.38-.75-2.07-1.12Z"/>
        <path class="cls-2" d="M115.79,142.89c.34.18.68.36,1.02.55-.22,1.19-.45,2.38-.67,3.57-1.02-1.3-1.15-2.67-.35-4.12Z"/>
        <path class="cls-6" d="M49.09,90.16c-3.84-6.27.71-10.74,3.46-15.5,1.04-1.8,2.29-1.06,2.67.65.24,1.08.14,2.31-.12,3.4-.6,2.5-2.58,5.46.8,7.03,3.14,1.46,6.35,4.17,10.3,1.94.43-.24,1.44-1.46,1.12.03-1.33,6.22,4.8,3.21,6.59,5.53.87,1.13,4.37-.09,3.23,2.64-1,2.4,1.39,5.87-1.97,7.17-2.1.82-4.49.26-6.3-1.45-1.51-1.43-2.87-3.07-4.53-4.3-2.11-1.57-4.43-2.55-6.35.42-.33-.2-.65-.4-.97-.61,1.15-3.7-2.36-3.44-4.03-4.74-1.3-.73-2.59-1.47-3.89-2.2Z"/>
        <path class="cls-13" d="M102.75,76.38c-.35-.18-.7-.35-1.06-.53-4.01-1.13-7.77-.5-11.33,1.6-4.43.74-8.43,2.12-12.23,4.87-2.6,1.88-6.03-.78-9.05-1.27-7.72-1.24-7.63-1.72-7.02-10.04.28-3.88-2.5-4.11-5.27-4.31.37-.67.74-1.33,1.11-2,2.21-.5,3.94.6,5.66,1.72.33.72.65,1.44.98,2.16.16.57.31,1.14.46,1.71,0,0-.18.11-.18.11-1.99,6.63-1.21,7.55,5.47,8.18,8.6.81,15.87-3.13,23.47-5.96.63-.11,1.26-.22,1.88-.33,0,0-.11-.02-.11-.02.55-.16,1.09-.32,1.64-.48,0,0-.01-.2-.01-.2.84.79,1.73,1.61,2.98,1.31,3.7-.89,3.26,1.19,2.58,3.48Z"/>
        <path class="cls-14" d="M52.98,92.36c1.67,1.3,5.18,1.04,4.03,4.74-1.56-1.4-4.88-1.3-4.03-4.74Z"/>
        <path class="cls-5" d="M97.2,71.79c-.55.16-1.09.32-1.64.48.4-.65.93-.87,1.64-.48Z"/>
        <path class="cls-5" d="M95.67,72.29c-.63.11-1.26.22-1.88.33.63-.11,1.26-.22,1.88-.33Z"/>
        <path class="cls-13" d="M96.67,96.75c-.66-.35-1.32-.71-1.98-1.06-.16-.55-.31-1.1-.47-1.65-.13-.53-.26-1.05-.39-1.58l.76-1.08c4.4,2.57,9.51,3.77,13.57,7.01,5.41,5.04,12.33,7.22,18.96,9.94.93,4.84-3.14,2.75-4.36,2.47-2.45-.55-4.64-2.25-6.94-3.48-.28-2.06-2.18-2.33-3.54-3.21-1.65-.93-3.31-1.86-4.96-2.78-2.31-4.4-6.45-4.55-10.65-4.59Z"/>
        <path class="cls-12" d="M94.59,91.38c-.25.36-.51.72-.76,1.08-1.38-1.3-.51-3.24-1.33-4.7.73-1.23,1.74-1.53,3.03-.9.54-.14,1.09-.28,1.63-.42,1.82-2.49,4.87-2.58,7.36-3.77-.52,1.11-.55,2.17.34,3.13-2.75,3.11-7.01,3.41-10.27,5.58Z"/>
        <path class="cls-11" d="M80.66,123.31c.69-4.49,4.12-7,7.18-9.7,1.25-1.1,3.12-1.78,4.69-.44,1.34,1.14.91,2.85.41,4.24-.77,2.11-2.25,3.98-2.01,6.4-1.42.94-2.84,1.89-4.27,2.83-1.77-1.52-4.59-1.13-6-3.31v-.02Z"/>
        <path class="cls-4" d="M121.59,139.51c-1.81-.85-1.78-2.92-2.85-4.26,1.15-1.15,3.46-.78,4.01-3.49-3.87,1.14-7.81,2.06-7.8-3.85,5.06,2.21,9.85,2.58,14.33-3.2.1,3.69-.21,6.15-1.86,8.22-.74.92-1.47,1.58-1.2,2.94,1.03,5.26.9,5.34-4.63,3.64Z"/>
        <path class="cls-3" d="M100.29,121.08c-4.46-2.33-1.24-4.87.09-6.92,1.52-2.35,4.09-2.92,6.44-1.09,1.43,1.12,3.01,2.35,3.45,4.36-3.95-2.01-7.37-2.16-9.43,2.62-.19.35-.38.69-.57,1.04h.02Z"/>
        <path class="cls-14" d="M80.66,123.33c1.41,2.18,4.23,1.79,6,3.31-4.67,2.55-5.57,2.05-6-3.31Z"/>
        <path class="cls-14" d="M100.27,121.09c.19-.34.38-.69.57-1.04.51.73.33,1.08-.57,1.04Z"/>
        <path class="cls-11" d="M90.37,77.46c3.55-2.1,7.31-2.73,11.33-1.6-.92,2.94-7.81,7.93-10.23,7.11-3.23-1.09-2.37-3.34-1.1-5.51Z"/>
        <path class="cls-9" d="M92.49,87.76c.82,1.46-.05,3.4,1.33,4.7.13.53.26,1.05.39,1.58-1.81-1.01-4.95.05-5.33-3.12-.29-2.49,1.47-3.15,3.6-3.16Z"/>
        <path class="cls-4" d="M133.12,123.52c.52-.14,1.04-.28,1.56-.42-.49.27-.54,2.15-1.56.42Z"/>
        <path class="cls-9" d="M127.68,142.85c-.49.82-1.08,1.49-2.15,1.48.48-.84,1.1-1.48,2.15-1.48Z"/>
        <path class="cls-9" d="M97.16,86.44c-.54.14-1.09.28-1.63.42.54-.14,1.09-.28,1.63-.42Z"/>
        <path class="cls-14" d="M96.67,96.75c4.19.04,8.33.19,10.65,4.59-3.82-.89-8.01-.93-10.65-4.59Z"/>
        <path class="cls-14" d="M112.28,104.12c1.35.88,3.26,1.15,3.54,3.21-2.55.44-4.28-.02-3.54-3.21Z"/>
        <path class="cls-4" d="M122.51,154.52c.19-.35.37-.7.56-1.05.34.33,1.03.8.96.97-.37.91-.99.16-1.51.08Z"/>
        <path class="cls-14" d="M135.92,142.19c-.77-1.44.12-2.52.81-3.63,1.67,1.64,1.78,2.94-.81,3.63Z"/>
      </g>
    </g>
  </g>
</svg>