<?xml version="1.0" encoding="UTF-8"?>
<svg id="Layer_2" data-name="Layer 2" xmlns="http://www.w3.org/2000/svg" viewBox="0 0 185 185">
  <defs>
    <style>
      .cls-1 {
        fill: #cbe18d;
      }

      .cls-2 {
        fill: #a2cc3c;
      }

      .cls-3 {
        fill: #679b44;
      }

      .cls-4 {
        fill: #83c13f;
      }

      .cls-5 {
        fill: none;
      }

      .cls-6 {
        fill: #dbdbdb;
      }

      .cls-7 {
        fill: #fdfdfd;
      }
    </style>
  </defs>
  <g id="borxes">
    <rect class="cls-5" width="185" height="185"/>
    <g>
      <path class="cls-4" d="M82.77,70.99c1.35,1.55,2.15,3.38,2.99,5.24.14.3.48.55.75.75.1.22-.1.57,0,.75l.75.75c.27.75.68,1.34.75,2.25.05.7.07,1.56,0,2.25-1.19,12.11-7.75,24.93-14.97,34.44-12.04,8.6-27.77,11.12-38.93-.38-3.77-3.88-5.03-9.22-7.5-13.84.34-8.85,2.16-12.69,5.99-20.22h.75c4.17,10.1-1.68,19.99,0,30.69,3.62-.16,1.95-5.68,2.33-8.52.22-1.58,1.6-9.86,2.53-10.2.53,2.65,8.01,5.87,8.49,7.23,1.26,3.6-1.68,7.87-.25,11.5l2.72-11.14c8.27.62,15.42-1.27,21.61-6.84.12,1.44-.45,3.13-1.46,4.15-1.23,1.25-6.86,3.33-7.51,4.1-2.15,2.52,3.94.51,4.85-.02,2.19-.02-4.21,10.89-4.71,11.77-.27.47-4.25,5.2-1.28,3.96,3.14-1.31,10.47-15.81,11.98-19.47,2.04-4.96,4.8-12.52,6.33-17.63,1.31-4.38,1.89-8.46,1.55-13.06.62.53,1.8.99,2.25,1.5ZM60.69,105.45l-1.12,1.12c-.01.79,1.87-.44,1.12-1.12ZM58.43,106.93v.75c.49-.25.49-.5,0-.75ZM58.43,121.16v.75c.49-.25.49-.5,0-.75Z"/>
      <path class="cls-3" d="M90.26,90.46c.38,4.52-1.05,9.22-.75,12.73l-.75,1.5c-.06.05-1.19,3.93-1.5,5.24-.15.66-.76,1.29-.75,2.25l-.75,1.5c-.65.6-3.73,5.65-3.74,6.74-10.48,9.73-19.26,15.86-26.58,16.46-2.23.18-6.14-.99-6.35-.75-.08.1.04,1.45-.43,2.18-1.61,2.5-5.93,8.29-9.08,7.02-5.32-2.14-.62-9.99-1.72-13.9-.21-.73-1.93-1.08-2.66-1.98-7.01-8.53-9-15.18-8.58-26.25,2.46,4.63,3.73,9.96,7.5,13.84,11.16,11.5,26.89,8.98,38.93.38-2.3,3.03-4.4,6.16-7.48,8.61.59,1.08,1.93.05,2.63-.36,5.26-3.06,13.57-14.86,16.22-20.47,2.48-5.24,3.37-11.04,5.85-16.24.07.47-.04,1.01,0,1.5Z"/>
      <path class="cls-3" d="M101.49,60.51c-.72.66-3.68,5.53-4.49,6.74-.52.77-2.12,1.99-2.25,2.25-.58-4.63-5.95-10.99-5.99-11.23-.04-.26.07-.56,0-.75-.38-1.02-1.03-1.73-2.24-1.5.15,5.82-3.75,6.84-3.75,11.98,0,1,0,2,0,2.99-.44-.51-1.63-.97-2.25-1.5-1.39-1.18-5.18-4.58-6.74-5.24,6.49-2.58,7.91-6.28,8.98-12.73.08-.48.78-1.11.82-2.55.08-2.8-2.12-7.66.67-9.06,4.67-2.36,4.19,6.22,5.41,9.58,1.68,4.64,6.42,11.03,11.81,11.02Z"/>
      <path class="cls-1" d="M72.29,63.5v.75c-2.52-.09-3.67-.56-5.68-.69-14.88-.98-25.53,7.57-33.25,19.41h-.75c.18-.35-.04-1.38.41-2.18,7.4-13.01,24.33-23.14,39.27-17.29Z"/>
      <path class="cls-2" d="M72.29,64.25c.46.02,1.23-.11,1.5,0,1.55.66,5.35,4.06,6.74,5.24.35,4.59-.24,8.68-1.55,13.06-1.53,5.11-4.29,12.67-6.33,17.63-1.51,3.66-8.83,18.17-11.98,19.47-2.97,1.23,1.01-3.5,1.28-3.96.5-.87,6.89-11.79,4.71-11.77-.91.53-7,2.54-4.85.02.65-.76,6.28-2.85,7.51-4.1,1.01-1.02,1.58-2.71,1.46-4.15-6.19,5.56-13.33,7.46-21.61,6.84l-2.72,11.14c-1.42-3.63,1.51-7.89.25-11.5-.47-1.35-7.95-4.57-8.49-7.23-.93.34-2.32,8.62-2.53,10.2-.39,2.84,1.29,8.36-2.33,8.52-1.68-10.71,4.16-20.59,0-30.69,7.73-11.83,18.37-20.39,33.25-19.41,2.01.13,3.16.6,5.68.69ZM60.84,71.89c-4.52,1.01-7.34,8.89-3.01,10.17,10.58,3.13,14.8-12.82,3.01-10.17ZM43.94,88.86c4.94,3.14,7.95-8.3,1.91-6.53-2.26.66-3.56,5.47-1.91,6.53Z"/>
      <path class="cls-2" d="M90.26,88.96c-2.48,5.19-3.37,11-5.85,16.24-2.66,5.61-10.96,17.41-16.22,20.47-.71.41-2.04,1.44-2.63.36,3.08-2.46,5.18-5.59,7.48-8.61,7.22-9.51,13.79-22.34,14.97-34.44,1.46,1.25,1.96,4.08,2.25,5.99Z"/>
      <path class="cls-6" d="M86.51,76.98c-.27-.2-.61-.44-.75-.75.3.18.61.43.75.75Z"/>
      <path class="cls-6" d="M87.26,78.48l-.75-.75c.13.22.64.43.75.75Z"/>
      <path class="cls-2" d="M60.69,105.45c.76.67-1.13,1.9-1.12,1.12l1.12-1.12Z"/>
      <path class="cls-2" d="M58.43,121.16c.49.25.49.5,0,.75v-.75Z"/>
      <path class="cls-2" d="M58.43,106.93c.49.25.49.5,0,.75v-.75Z"/>
      <path class="cls-7" d="M88.76,58.26l-.73-.37.73-.37c.07.19-.04.49,0,.75Z"/>
      <path class="cls-1" d="M60.84,71.89c11.79-2.64,7.58,13.3-3.01,10.17-4.33-1.28-1.51-9.16,3.01-10.17Z"/>
      <path class="cls-1" d="M43.94,88.86c-1.65-1.05-.35-5.86,1.91-6.53,6.04-1.77,3.03,9.67-1.91,6.53Z"/>
      <path class="cls-2" d="M133.68,59.01c.33,1.07,1.15,1.49,2.25,1.5,2.75,2.3,9.15,5.35,9.73,8.98.45,2.8-.44,6.22.17,9.19.83,4.1,4.98,11.8,6.43,17.53.31,1.23-.04,2.75,1.64,3.23-.59,1.61-.46,2.73-1.5,4.49-.94-3.47-5.3-19.75-7.87-20.96l-5.21,6.02c-5.91,2.46.79,6.5.34,11.19-1.74-1.19-2.04-4.3-3.39-5.96-2.36-2.89-8.22.31-12.7-.04-3.87-.3-7.13-2.43-10.86-2.98,1.19,5.43,9.15,3.86,12.72,7.11-.49,1.41-8.62-1.97-7.48.74,1.53,3.62,10.11,9.42,11.22,12,.85,1.98-1.64.75-2.48.23-8.4-5.23-23.42-26.54-27.29-35.61-1.06-2.48-2.31-5.73-2.42-8.44.81-1.21,3.78-6.08,4.49-6.74,8.83-8.1,22.44-4.41,32.2-1.5ZM123.03,73.83c4.57-8-15.95-13.67-12.22-2.05,1.5,4.68,10.67,4.78,12.22,2.05ZM136.68,78.48c1.72-1.67-1.46-9.2-5.29-6.42-3.51,2.55,3.1,8.55,5.29,6.42Z"/>
      <path class="cls-4" d="M147.16,70.24c4.4,5.67,6.48,8.92,8.98,15.72.8,5.64-.45,8.6-2.25,13.48-1.68-.48-1.33-2-1.64-3.23-1.45-5.73-5.6-13.43-6.43-17.53-.6-2.97.28-6.39-.17-9.19h.75c.21.28.54.48.75.75Z"/>
      <path class="cls-6" d="M133.68,59.01c3.66,1.09,1.37.77,2.25,1.5-1.09-.01-1.92-.42-2.25-1.5Z"/>
      <path class="cls-2" d="M147.16,70.24c-.21-.27-.54-.47-.75-.75.24.04.51-.05.75,0v.75Z"/>
      <path class="cls-4" d="M96.99,67.25c.11,2.71,1.37,5.96,2.42,8.44,3.87,9.07,18.89,30.38,27.29,35.61.84.52,3.33,1.75,2.48-.23-1.11-2.58-9.69-8.38-11.22-12-1.14-2.71,6.98.67,7.48-.74-3.57-3.25-11.53-1.68-12.72-7.11,3.73.56,6.99,2.68,10.86,2.98,4.48.35,10.34-2.86,12.7.04,1.35,1.66,1.64,4.77,3.39,5.96.45-4.69-6.26-8.73-.34-11.19l5.21-6.02c2.57,1.21,6.93,17.49,7.87,20.96-1.07,1.83-4.7,5.31-6.49,6.61-8.95,6.49-18.47,5.03-28.7,3.12-10.18-8.04-21.4-19.96-24.71-32.94-.11-.42.08-1.03,0-1.5-.11-.67.06-1.52,0-2.25l.75-1.5c.22-.22.92-4.81,1.5-5.99.13-.26,1.73-1.48,2.25-2.25ZM126.57,98.69v.75c.49-.25.49-.5,0-.75ZM130.31,112.17v.75c.49-.25.49-.5,0-.75Z"/>
      <path class="cls-1" d="M123.03,73.83c-1.56,2.73-10.73,2.63-12.22-2.05-3.72-11.62,16.79-5.95,12.22,2.05Z"/>
      <path class="cls-1" d="M136.68,78.48c-2.19,2.13-8.8-3.88-5.29-6.42,3.83-2.78,7.01,4.75,5.29,6.42Z"/>
      <path class="cls-2" d="M117.21,113.67c3.41,2.69,6.86,5.99,11.23,7.5-.02,1.63-2.8.48-3.53.16-8.66-3.82-20.02-13.2-25.54-20.88-3-4.17-4.76-8.79-7.61-12.98-.13-1.73.07-3.51,0-5.24-.02-.5.04-1,0-1.5h.75c3.3,12.98,14.53,24.9,24.71,32.94Z"/>
      <path class="cls-3" d="M158.39,103.93c.09-2.57.04-6.07,0-8.98-.03-2.33-.13-3.72-.75-5.99-.24-.86-1.16-2.07-1.5-2.99.8,5.64-.45,8.6-2.25,13.48-.59,1.61-.46,2.73-1.5,4.49-1.07,1.83-4.7,5.31-6.49,6.61-8.95,6.49-18.47,5.03-28.7,3.12,3.41,2.69,6.86,5.99,11.23,7.5-.02,1.63-2.8.48-3.53.16-8.66-3.82-20.02-13.2-25.54-20.88-3-4.17-4.76-8.79-7.61-12.98.08.99-.1,2.01,0,2.99.39,3.94,1.41,5.73,2.99,8.98.72,1.48,1.72,2.56,1.5,4.49,2.63,1.98,4.33,5.89,6.72,8.63,7.09,8.12,14.86,12.35,25.48,13.83,1.77.25,2.71.83,5.24.75,1.79-.05,2.92-.51,4.49-.75,3.06-.47,2.39-1.94,5.99,0,.19.11.56-.11.75,0,.15.09,1.13.83,2.25,1.5.61.37,2.58,6,6.72,4.12,4.46-2.02,1.64-5.55.02-7.87-.51-.72-.78-1.28-1.5-2.25-1.13-4.46,0-2.97.78-4.26.49-.81.54-2.26.72-2.48,2.36-2.83,4.11-2.18,4.49-8.24.06-.99-.03-2,0-2.99Z"/>
      <path class="cls-2" d="M126.57,98.69c.49.25.49.5,0,.75v-.75Z"/>
      <path class="cls-2" d="M130.31,112.17c.49.25.49.5,0,.75v-.75Z"/>
    </g>
  </g>
</svg>