<?xml version="1.0" encoding="UTF-8"?>
<svg id="Layer_2" data-name="Layer 2" xmlns="http://www.w3.org/2000/svg" viewBox="0 0 185 185">
  <defs>
    <style>
      .cls-1 {
        fill: #db454d;
      }

      .cls-2 {
        fill: none;
      }

      .cls-3 {
        fill: #efebcc;
      }

      .cls-4 {
        fill: #eee6ae;
      }

      .cls-5 {
        fill: #e6b82f;
      }
    </style>
  </defs>
  <g id="borxes">
    <rect class="cls-2" width="185" height="185"/>
  </g>
  <g id="flavours">
    <g>
      <path class="cls-5" d="M33.42,149.97c-5.76-4.3-8.86-10.66-12.41-16.6-.93-1.56-2.15-2.94-2.95-4.64-2.83-6.04-4.58-12.35-5.93-18.88-1.38-6.66-2.76-13.3-2.35-20.1.92-15.19,5.02-29.58,13.15-42.4,5.08-8.01,11.86-14.76,19.41-20.76,6.95-5.52,14.93-8.97,22.58-13.09,2.44-1.32,5.39-1.08,8.09-1.77,10.55-2.72,21.43-2.39,32.17-1.47,7.3.63,14.62,2.77,21.12,5.87,6.7,3.2,13.15,7.28,18.91,12.45,4.55,4.09,8.94,8.34,12.83,12.94,3.69,4.35,6.52,9.51,9.13,14.71,4.44,8.84,6.17,18.23,7.61,27.95,1.14,7.67.14,15.03-.79,22.34-.86,6.8-2.76,13.52-6.07,19.96-2.82,5.48-5.61,10.86-9.14,15.91-4.2,6.02-9.57,10.93-14.99,15.69-5.23,4.6-11.58,7.97-17.83,10.59-6.02,2.53-12.6,4.33-19.28,5.51-7.51,1.33-14.97,1.54-22.4.79-5.37-.54-10.74-1.5-16.03-3.22-7.92-2.57-15.25-5.93-21.81-11.04-.51-.39-1.42-.06-1.87-.77-3.2-3.91-7.27-6.84-11.16-9.98ZM148.37,38.16h0c-.24-.23-.48-.46-.71-.7h0c-.24-.23-.47-.47-.71-.71h0c-.24-.23-.47-.47-.71-.71-.25-.22-.5-.44-.75-.66-.96-1.2-1.97-2.34-3.55-2.73l-.05-.06c-.28-1.56-1.21-2.47-2.76-2.74-3.51-1.52-6.1-4.57-9.75-5.85-.18-1.39-1.17-1.37-2.21-1.29-.23-.02-.47-.05-.7-.07-2.61-1.83-5.3-3.49-8.5-4.08-.89-.08-1.79-.15-2.68-.23-.26-.37-.46-.99-.78-1.06-6.74-1.45-13.37-3.77-20.44-2.98-.71,0-1.43,0-2.14.01-3.62-.34-7.18-.27-10.57,1.29-.9-.07-1.58.19-1.84,1.15h-.09c-.19-.11-.38-.12-.58-.02-1.39-1.81-2.72-1.72-3.98.14-.2-.03-.39-.01-.58.06-4.44.79-8.8,1.78-12.67,4.28-.46.05-.92.1-1.37.15-.92-.12-1.43.28-1.51,1.21,0,0-.01,0-.01,0-.94.03-1.8.17-2.68.65-7.62,4.16-14.1,9.75-20.02,16.01-1.39,1.47-3.76,2.15-3.99,4.64l-.71.17c-.38-.02-.56.16-.53.54-.1.42-.19.84-.29,1.26-4.7,4.61-6.78,10.75-9.63,16.45-.61,1.82-1.9,3.44-1.62,5.52-2.12,1.96-1.52,4.89-2.55,7.24-.05.92-.11,1.84-.16,2.77-.41,1.94-1.53,3.64-1.49,5.75.1,6.11.03,12.22.07,18.33,0,1.12-.26,2.46,1.32,2.89.04,1.38.09,2.76.13,4.15-.04,1.37-.19,2.79,1.28,3.63-.02.22,0,.43.07.64-.09,1.19.31,2.28.6,3.42,1.86,7.2,5.59,13.55,9.57,19.61,2.98,4.56,5.91,9.49,11,12.29.79,1.39,1.71,2.64,3.42,2.95.34,1.12.74,2.14,1.8,2.86,6.39,4.3,13.1,8.01,20.17,11.05.46.03.91.05,1.37.08.65.96,1.71,1.09,2.7,1.46,6.59,2.5,13.55,2.95,20.44,3.44,3.51.25,7.21.92,10.7-.57.93-.04,1.85-.08,2.78-.13,5.73-.19,11.3-1.03,16.32-4.08.21-.03.42-.07.62-.13,4.89.43,7.9-2.98,11.33-5.54h.02c7.11-2.28,12.15-7.31,16.9-12.74,0,0,0,0,0,0,.93,0,1.39-.48,1.4-1.41h0c3.2-1.38,4.18-4.76,6.36-7.06.78-.52.66-1.34.71-2.11,9.05-11.41,13.76-24.39,13.95-39,0-2.81,0-5.62,0-8.43.32-3.88.39-7.73-1.34-11.37-.04-.92-.09-1.83-.13-2.75-1.62-6.9-3.78-13.63-7.3-19.79-2.98-5.21-5.86-10.57-10.78-14.35,0-.2-.02-.4-.07-.6-.15-.78-.74-1.13-1.38-1.44h0c-.24-.24-.47-.47-.71-.71Z"/>
      <path class="cls-4" d="M33.42,149.97c3.89,3.14,7.96,6.07,11.16,9.98-3.52-.65-6.5-2.3-8.2-5.48-.86-1.62-3.79-1.85-2.96-4.5Z"/>
      <path class="cls-3" d="M16.57,108.92c-.04-1.38-.09-2.76-.13-4.15.33-2.2,3.19.78,2.51-.72-1.03-2.29,1.25-4.32-.07-6.02-1.36-1.75-.81-3.21-.32-4.9.25-.87,1.05-1.77.52-2.67-1.78-2.97-.99-5.71.81-8.21,1.03-1.44,1.18-2.87.42-4.23-.99-1.78-2.5-.22-3.77-.22.05-.92.11-1.84.16-2.77,1.04-.05,2.28.24,3.07-.23,1.05-.63,3.16-2.22,1.35-3.1-2.19-1.06-1.57-2.49-1.87-3.91-.27-2.08,1.01-3.7,1.62-5.52,2.9-1.13,5.81-2.26,3.87-6.76,2.71,1.82,2.75,1.84,3.91-.04.61-.98.81-2.65,1.62-2.99,3.02-1.26,1.75-2.89.8-4.67-.32-.6-.39-1.32-.58-1.99.1-.42.19-.84.29-1.26.18-.18.36-.36.54-.54.24-.06.48-.11.71-.17,2.6,2.19,4.5,1.85,5.7-1.49.51-1.43,2.36-1.06,3.13-1.99,1.75-2.09,2.23-1.04,2.58.83.07,1.34-.11,2.87-1.09,3.6-2.7,2.03-3.95,5.05-5.78,7.68-3.43,4.93-2.92,12.49,4.1,15.44,9.44,3.97,18.46,9.01,28.24,12.09,3.83,1.21,7.25,3.81,11.53,3.59,3.17-.17,4.63-2.36,3.49-5.29-.87-2.24-1.75-4.48-2.58-6.74-1.6-4.35-2.88-8.95-4.84-13.01-2.7-5.61-5.1-11.35-7.63-17.02-2.81-6.3-4.42-7.86-11.13-7.63-.59.02-1.17.03-1.76.05-2.2-.27-4.18.02-5.61,2-.54.74-1.34.97-2.18.53-.91-.49-.64-1.42-.65-2.21,0-.92.36-1.56,1.38-1.71.79-.11,2.08-.09,2.27-.52,1.34-2.97,4-3.34,6.69-4,1.43-.35,2.71-1.73,3.17-3.1.44-1.32-1.87-.53-2.14-1.73-.05-.23-.13-.45-.2-.67,0,0,.01,0,.01,0,.89.08,1.4-.31,1.51-1.21.46-.05.92-.1,1.37-.15.24,1.72,1.33,3.22,2.92,2.69,3.87-1.31,9.1-1.02,9.75-6.96.19-.07.38-.09.58-.06,1.33-.05,2.65-.1,3.98-.14.2-.1.39-.09.58.03-.19,1.49-1.5,1.57-2.51,2.1-.87.45-3-.14-2.25,1.72.55,1.36,1.73.03,2.62-.38.51-.24,1.12-.24,1.68-.39,2.36-.61,2.15-1.71.56-3.06.25-.96.94-1.22,1.84-1.15.11.98-.35,2.49,1.02,2.62,2.64.24,5.35.35,7.96,0,1.89-.26-.33-2.32.81-3.21.27-.21.52-.46.78-.69.71,0,1.43,0,2.14-.01.62.94,2.18.11,2.62,1.41.46,1.36-1.94.98-1.39,2.42,2.24.71,4.63-.09,6.92.66.79.26,1.82-.37,2.73-.35,3.45.08,6.91,2.45,10.33-.1.89.08,1.79.15,2.68.23.02.7.02,1.39.05,2.09.08,1.96-.02,4.19,2.46,1.13.72-.89,1.43-.36,1.71.64.24.85-.28,1.88.75,2.73,1.16-.82,2.35-1.67,3.53-2.52.23.02.47.05.7.07.16,1.41,1.18,1.35,2.21,1.29,3.65,1.28,6.25,4.33,9.76,5.85-.03.45-.05.9-.1,1.35-.09.85-1.63,1.44-.76,2.33,1,1.02,1.77-.37,2.63-.72.31-.12.66-.15.99-.22,0,0,.05.06.05.05.84,1.6-2.41,2.93-.52,4.34,1.63,1.22,1.99-2.12,3.73-1.59.1.03.23,0,.35-.01.25.22.5.44.75.66.24.24.47.48.71.72,0,0,0,0,0,0,.24.24.47.47.71.71,0,0,0,0,0,0,.24.23.48.47.71.7,0,0,0,0,0,0,.24.24.47.47.71.71,0,0,0,0,0,0,0,.93-.36,2.19,1.38,1.44.05.2.08.4.07.6.26,1.98-1.19,2.79-2.88,3.84,4.31.15,4.49,3.6,5.58,6.21.44,1.05,1.31,2.45,1.92,2.25,3.41-1.11,2.26,1.44,2.31,2.78.11,2.91.34,5.71,2.86,7.68h0c.81,2.56,2.95,4.51,2.88,7.53-.13,5.24.88,5.85,5.42,3.84.04.92.09,1.83.13,2.75-1.11-.48-2.95-.88-2.26.86.66,1.66.04,2.59-.32,3.85-.41,1.42-.25,2.93-1.04,4.37-.35.63.43,2.39,1.2,3.03,1.26,1.06,2.29-1.4,3.77-.74,0,2.81,0,5.62,0,8.43-1.77.11-2.47-1.64-4.14-2.81,0,1.86.24,3.2-.05,4.41-.82,3.46,1.29,7.38-1.5,10.48-1.05,1.16-1.42,2.37-1.27,3.84.13,1.28-.36,2.25-1.31,3.1-1.72,1.54-2.07,3.2-.69,5.27,1.12,1.68.97,3.93-.86,4.55-2.7.91-2.65,4.6-5.84,4.89-1.24.11-1.06,1.65,0,2.43.98.73,1.83,1.47,1.71,2.83-.05.77.07,1.59-.71,2.11q-3.12-3.19-5.08,1c-.18.38-.5.85-.85.96-2.12.66-1.59,1.7-.66,3.06.34.5.17,1.35.24,2.04,0,0,0,0,0,0-.48-.01-.96-.02-1.43-.03-.07-.45-.07-.97-.66-1.05-.12-.02-.4.27-.39.39.08.6.6.59,1.04.66.01.48.02.96.03,1.44,0,0,0,0,0,0-.47-.02-1.1.14-1.37-.1-3.55-3.08-5.24,1.33-7.71,2.16-2.03.68-.28,3.11.22,4.67-.91.3-1.42.13-1.88-.31-3.89-3.67-4.51,2.14-7.12,2.67-1.42.29-.23,2.57.96,3.64,0,0-.02.01-.02.01-.8-.09-1.66-.02-2.39-.3-5.01-1.88-8.21.19-8.93,5.84-.2.06-.41.1-.62.13-.93-.1-1.89-.05-2.16-1.33-.39-1.88-1.49-1.96-2.78-.88-2.65,2.22-4.99,4.82-9.05,2.29-1.06-.66-3.76-1.09-4.8.69-1.4,2.4,2.59,1.44,2.47,3.3-.93.04-1.85.09-2.78.13-1.17-.34-3.16.95-3.05-1.92.05-1.35-1.66-.91-2.63-.9-.95.01-2.06-.42-2.68.98-1.1,2.46-1.12,2.28-3.05.06-1.42-1.63-3.38-2.9-5.76-2.39-2.49.54.22,2.31-.91,3.76-.68-1.06-4.05,1.08-2.22-2.68.11-.23-.06-.87-.1-.87-1.94,0-2.66-3.03-5.22-1.91-1.24.54-2.93.55-4.25-.77-1.02-1.03-1.83-2.42-3.62-2.92-.69,1.76-.27,3.51-.35,5.21-.46-.03-.91-.05-1.37-.08-.24-2.63-1.03-4.54-4.18-5.03-1.71-.26-4.61-1.75-4.59-2.64.06-3.37-2.52-3.5-4.35-4.46-2.06-1.08-4.03-2.05-5.54-3.99-.74-.96-2.38-1.21-4.04-1.98.71,1.55.93,3.3.73,4.2-1.71-.31-2.63-1.56-3.42-2.95.71-.99,2.78-2.08-.17-2.81-1.38-.34-1.81-1.87-1.31-2.34,2.4-2.21-.26-2.4-1.1-3.36-1.23-1.39-4.2-1.22-4.24-3.17-.06-2.98-1.33-4.94-2.99-7.2-1.87-2.55-2.79-5.79-4.4-8.56-.72-1.24-1.07-2.42-1.41-3.79-.86-3.41-1.2-6.98-2.83-10.18-.39-.77-.93-1.09-1.67-.86-1.16.37-.06,1.18-.19,1.53-.68,1.76,1.78,4.02-.86,5.41-.07-.21-.09-.42-.07-.64-.17-1.3.84-3.02-1.28-3.63ZM81.34,114.58c1.93-.24,1.33-1.71,1.4-2.87.04-.45.07-.9.11-1.35,3.34-2.55,3.89-6.14,1.31-8.47h0c-2.22-3.89-8.14-3.24-11.28,1.25-5.78,2.04-11.36,4.54-17.26,6.4-5.84,1.84-11.61,5-16.87,8.68-4.14,2.89-6.38,9.35-3.25,13.06,3.81,4.52,6.4,10.22,11.73,13.35,3.39,1.99,5.96,5.19,9.92,6.33,3.84,1.11,6.72-.19,9.19-3.23,2.29-2.81,2.96-6.34,5.09-9.14,1.92-.17,1.59-3.84,4.3-2.79-1.55,1.92-1.57,4.16-1.34,6.45-.23,1.24-.46,2.42-.92,3.66-1.45,3.88-2.33,7.94,1.02,11.49,1.95,2.06,4.59,2.49,7.18,2.99,8.72,1.7,17.46,1.95,25.93-.93,4.61-1.57,6.66-6.03,5.17-10.69-2.04-6.38-4.31-12.71-6.95-18.86-2.78-6.46-5.14-13.1-8.59-19.28-.99-1.77-.83-4.19-3.46-4.56-2.42-.34-4.24.71-5.47,2.81-2.8.99-2.86,3.28-2.7,5.68h0c-3.07.88-2.93,3.3-2.75,5.73h0c-2.26,1.58-2.57,3.99-2.75,6.47.04.2.02.4-.06.59-1.99.81-2.15,2.76-2.75,4.43-.08,1.33-.17,2.66-.25,3.98-.44,0-.87.02-1.31.03,0-2.36-.01-4.72-.02-7.08h0c1.93-.25,1.31-1.73,1.38-2.88.04-.45.08-.89.12-1.34,3.68-1.28,2.59-4.43,2.75-7.08h0c1.86-.28,1.3-1.72,1.38-2.86h0ZM130.74,149.98c1.1-.1,2.51.44,2.82-1.34,6.53-5.47,13.03-11.01,16.61-19.02,2-4.46,1.09-9.57-3.77-11.99-1.95-.97-3.99-1.58-5.93-2.5-10.95-5.2-22.07-9.99-33.62-13.74-1.52-.49-2.86-1.17-4.2.12-1.38,1.33-1.74,2.84-1.2,4.8,1.73,6.27,4.12,12.33,6.84,18.17,4.25,9.15,6.65,19.32,14.01,26.84,1.85,2.39,3.71,2.35,5.58.03h0c1.14-.05,2.58.51,2.86-1.36h.01ZM149.14,52.3l-.04-.06c.01-1.43.04-2.88-2.03-2.77-.08-1.48-1.59-1.79-2.25-2.8.32-2.16-.61-3.11-2.77-2.85l-.02-.02c.26-2.1-.64-3.06-2.76-2.82-3.55-2.75-7.14-5.41-11.35-7.09-1.04-2.51-3.44-1.67-4.68-1.08-2.22,1.05-5.65,1.44-5.25,5.3-.19,3.69-2.83,6.3-4.25,9.43-3.05,6.7-5.83,13.5-8.53,20.34-2.74,2.66-3.35,6.28-4.04,9.75-.31,1.56-2.28,3.04-.28,5.07,2.86,2.89,6.36,2.92,10.13-.43,2.02-.85,3.99-1.9,6.08-2.52,4.23-1.24,7.81-4.13,12.28-4.71,4.38.56,7.11-3,10.61-4.56,1.53-.68,4.22,0,4.8-2.6.32-.63.9-.64,1.49-.65,1.76-.74,3.68-1.29,4.19-3.53h0c2.01-1.97,2.03-6.54.02-8.53v-.02c-.12-1.1.39-2.5-1.35-2.83ZM50.41,107.7l.11-.08c1.37-.44,3.35.87,4.08-1.43,3.92-2.69,8.61-3.67,12.79-5.76,3.7-1.85,8.01-2.54,10.93-5.91,1.76-2.03,1.58-4.11-.86-5.29-2.28-1.11-4.51-2.33-6.84-3.37-10.85-4.85-21.58-9.99-33.02-13.36-3.71-1.09-7.23-1.21-10.25,2.13-1.23,1.36-.77,2.85-1.41,4.19-4.12,8.67-3.13,17.62-.77,26.4,2.35,8.76,8.55,9.37,15.47,5.89,2.13-1.07,4.36-2.28,6.93-2.13,1.1-.09,2.45.4,2.85-1.26ZM156.13,111.93c3.9-2.88,5.25-7.1,5.48-11.6.35-6.66.37-13.3-1.22-19.92-1.68-6.98-6.46-10.26-12.36-7.98-4.61,1.78-9.3,3.3-13.85,5.28-7.38,3.22-15.04,5.77-22.48,8.86-1.72.71-3.18,2.22-4.8,3.31-1.68,1.12-1.79,2.68-.14,4.39,4.11,4.25,10,4.93,14.79,7.78.73,1.67,2.64,1.67,3.85,2.07,4.22,1.37,7.53,5.05,12.33,4.83,2.73-.01,4.79,1.7,7.09,2.8.47,2.58,2.91,1.13,4.31,2.07,2.69,1.79,5.26.99,7-1.88ZM91.06,22.84c-3.3.48-9.47.52-15.07,3.72-3.37,1.93-4.38,4.64-3.72,8.23,1.32,7.16,4.5,13.7,7.09,20.41,2.41,6.26,5.66,12.17,7.76,18.58.88,2.7,2.64,5.16,5.63,5.25,2.43.08,3.45-2.22,4.36-4.41,1.96-4.71,4.26-9.27,6.33-13.93,3.68-8.28,6.99-16.71,9.38-25.46,1.04-3.8-.05-6.91-2.77-8.29-5.08-2.58-10.35-4.51-18.99-4.1ZM145.66,38.46c-.92.32-1.95,1.09-1.8,1.8.33,1.56,1.76,2.24,3.27,2.57.74.16,1.18-.27,1.04-.92-.32-1.48-.92-2.83-2.52-3.45ZM130.82,30.34c1.15.65,2.03,1.09,2.84,1.63.77.52,1.32.19,1.79-.36.28-.33.62-.84.55-1.17-.2-.88-1.05-.76-1.71-.74-1.01.03-2.08-.24-3.46.64ZM168.1,92.47c-.26.13-.59.24-.58.3.04.32.08.73.28.9.29.24.69.04.69-.36,0-.28-.25-.57-.39-.85ZM34.55,47.2c-.19-.08-.42-.27-.56-.22-.14.05-.18.35-.26.54.19.08.42.28.56.22.14-.05.18-.35.26-.54Z"/>
      <path class="cls-4" d="M17.92,113.18c2.64-1.38.18-3.64.86-5.41.13-.35-.97-1.16.19-1.53.73-.23,1.28.09,1.67.86,1.63,3.2,1.97,6.77,2.83,10.18.34,1.37.69,2.54,1.41,3.79,1.62,2.77,2.53,6.01,4.4,8.56,1.66,2.26,2.93,4.22,2.99,7.2.04,1.96,3.01,1.78,4.24,3.17.84.95,3.5,1.15,1.1,3.36-.51.47-.08,2,1.31,2.34,2.96.72.88,1.82.17,2.81-5.09-2.8-8.02-7.74-11-12.29-3.97-6.07-7.71-12.42-9.57-19.61-.3-1.14-.69-2.23-.6-3.42Z"/>
      <path class="cls-4" d="M43.44,41.21c-.35-1.87-.83-2.92-2.58-.83-.77.93-2.62.56-3.13,1.99-1.19,3.34-3.1,3.68-5.7,1.49.23-2.49,2.6-3.17,3.99-4.64,5.92-6.26,12.41-11.86,20.02-16.01.88-.48,1.74-.62,2.68-.65.07.22.15.44.2.67.28,1.2,2.58.42,2.14,1.73-.45,1.37-1.73,2.74-3.17,3.1-2.69.66-5.35,1.02-6.69,4-.19.43-1.48.41-2.27.52-1.02.14-1.38.79-1.38,1.71,0,.79-.26,1.72.65,2.21.83.45,1.64.22,2.18-.53,1.42-1.98,3.41-2.27,5.61-2-3.7,3.26-7.37,6.57-12.56,7.24ZM44.3,34.01c-.48,1.16-.76,1.65-.9,2.19-.36,1.39.64,2.1,1.54,2.81.17.14.76.08.85-.08.73-1.17-.19-1.85-.8-2.67-.31-.43-.34-1.06-.69-2.25Z"/>
      <path class="cls-4" d="M156.14,136.58c.13-1.37-.73-2.11-1.71-2.83-1.06-.79-1.24-2.32,0-2.43,3.2-.29,3.15-3.98,5.84-4.89,1.83-.62,1.98-2.87.86-4.55-1.38-2.06-1.03-3.73.69-5.27.95-.84,1.44-1.82,1.31-3.1-.15-1.46.22-2.68,1.27-3.84,2.8-3.1.68-7.01,1.5-10.48.29-1.21.05-2.55.05-4.41,1.67,1.17,2.37,2.92,4.14,2.81-.19,14.6-4.9,27.58-13.95,39Z"/>
      <path class="cls-4" d="M168.62,75.04c-4.54,2.01-5.55,1.4-5.42-3.84.07-3.02-2.07-4.98-2.88-7.54.97-.15,2.46.42,2.62-1.03.18-1.68-1.07-2.91-2.26-4.16,1,1.89-.52,3.47-.36,5.19-2.52-1.98-2.75-4.77-2.86-7.68-.05-1.34,1.1-3.89-2.31-2.78-.61.2-1.48-1.2-1.92-2.25-1.08-2.61-1.27-6.06-5.58-6.21,1.69-1.05,3.14-1.86,2.88-3.84,4.92,3.77,7.8,9.13,10.78,14.34,3.52,6.16,5.68,12.89,7.3,19.79Z"/>
      <path class="cls-4" d="M65.85,165.45c.08-1.7-.34-3.45.35-5.21,1.79.5,2.6,1.89,3.62,2.92,1.31,1.32,3.01,1.31,4.25.77,2.56-1.12,3.28,1.91,5.22,1.91.04,0,.21.64.1.87-1.82,3.76,1.54,1.62,2.22,2.68,1.13-1.45-1.58-3.22.91-3.76,2.38-.51,4.34.75,5.76,2.39,1.93,2.22,1.95,2.4,3.05-.06.63-1.4,1.73-.97,2.68-.98.97-.01,2.68-.45,2.63.9-.1,2.86,1.88,1.57,3.05,1.92-3.49,1.5-7.19.82-10.7.57-6.89-.49-13.85-.95-20.44-3.44-.99-.37-2.05-.5-2.7-1.46Z"/>
      <path class="cls-4" d="M16.53,77.81c1.28,0,2.78-1.55,3.77.22.76,1.35.61,2.79-.42,4.23-1.8,2.51-2.59,5.24-.81,8.21.54.9-.26,1.8-.52,2.67-.49,1.69-1.03,3.15.32,4.9,1.32,1.7-.97,3.73.07,6.02.68,1.5-2.18-1.48-2.51.72-1.59-.43-1.32-1.77-1.32-2.89-.04-6.11.03-12.22-.07-18.33-.04-2.11,1.09-3.81,1.49-5.75Z"/>
      <path class="cls-4" d="M42.51,151.46c.2-.9-.02-2.64-.73-4.2,1.66.77,3.3,1.03,4.04,1.98,1.51,1.94,3.48,2.91,5.54,3.99,1.82.96,4.41,1.09,4.35,4.46-.02.89,2.88,2.38,4.59,2.64,3.15.49,3.94,2.4,4.18,5.03-7.07-3.05-13.78-6.75-20.17-11.05-1.06-.72-1.46-1.74-1.8-2.86Z"/>
      <path class="cls-4" d="M130.75,159.9c-1.18-1.08-2.38-3.36-.96-3.64,2.6-.52,3.23-6.34,7.12-2.67.46.44.98.6,1.88.31-.5-1.56-2.25-3.99-.22-4.67,2.46-.83,4.16-5.23,7.71-2.16.28.24.91.08,1.37.1-4.74,5.43-9.79,10.46-16.9,12.73Z"/>
      <path class="cls-4" d="M115.29,18.32c-3.43,2.55-6.89.18-10.33.1-.91-.02-1.95.61-2.73.35-2.28-.75-4.68.05-6.92-.66-.55-1.45,1.85-1.07,1.39-2.42-.45-1.3-2-.47-2.62-1.41,7.07-.79,13.69,1.53,20.44,2.98.32.07.53.69.78,1.06Z"/>
      <path class="cls-4" d="M102.47,169.66c.12-1.86-3.87-.9-2.47-3.3,1.04-1.78,3.74-1.35,4.8-.69,4.07,2.53,6.41-.07,9.05-2.29,1.29-1.08,2.39-1,2.78.88.26,1.27,1.23,1.23,2.16,1.33-5.02,3.05-10.59,3.89-16.32,4.08Z"/>
      <path class="cls-4" d="M30.5,45.83c.19.67.26,1.39.58,1.99.95,1.78,2.21,3.41-.8,4.67-.81.34-1.02,2.01-1.62,2.99-1.16,1.87-1.2,1.85-3.91.04,1.94,4.51-.97,5.64-3.87,6.76,2.85-5.7,4.93-11.85,9.63-16.45Z"/>
      <path class="cls-4" d="M74.29,16.93c-.65,5.94-5.88,5.65-9.75,6.96-1.59.54-2.68-.96-2.92-2.69,3.87-2.49,8.23-3.49,12.67-4.28Z"/>
      <path class="cls-4" d="M170.09,89.16c-1.47-.66-2.5,1.8-3.77.74-.77-.65-1.55-2.4-1.2-3.03.79-1.44.63-2.94,1.04-4.37.37-1.26.98-2.19.32-3.85-.69-1.73,1.15-1.34,2.26-.86,1.73,3.64,1.66,7.49,1.34,11.37Z"/>
      <path class="cls-4" d="M119.41,165.45c.72-5.65,3.92-7.72,8.93-5.84.73.27,1.59.21,2.39.3-3.43,2.56-6.44,5.98-11.33,5.55Z"/>
      <path class="cls-4" d="M91.93,14.3c-.26.23-.5.48-.78.69-1.14.89,1.08,2.96-.81,3.21-2.61.35-5.32.24-7.96,0-1.37-.13-.91-1.64-1.02-2.62,3.39-1.56,6.96-1.63,10.57-1.29Z"/>
      <path class="cls-4" d="M149.07,145.75c-.06-.69.11-1.54-.24-2.04-.93-1.36-1.46-2.4.66-3.06.35-.11.68-.58.85-.96q1.97-4.19,5.08-1c-2.18,2.3-3.16,5.68-6.36,7.06Z"/>
      <path class="cls-4" d="M126.47,22.63c-1.19.85-2.37,1.69-3.53,2.52-1.03-.86-.51-1.88-.75-2.73-.28-1-.99-1.54-1.71-.64-2.48,3.07-2.37.83-2.46-1.13-.03-.7-.03-1.39-.05-2.09,3.2.59,5.89,2.25,8.5,4.08Z"/>
      <path class="cls-4" d="M19.25,67.8c.3,1.43-.32,2.85,1.87,3.91,1.8.87-.3,2.47-1.35,3.1-.79.47-2.03.18-3.07.23,1.03-2.35.43-5.28,2.55-7.24Z"/>
      <path class="cls-4" d="M79.52,16.74c1.59,1.34,1.81,2.44-.56,3.06-.56.15-1.17.15-1.68.39-.89.41-2.07,1.74-2.62.38-.75-1.86,1.39-1.26,2.25-1.72,1.01-.52,2.31-.61,2.51-2.1,0,0,.09,0,.09,0Z"/>
      <path class="cls-4" d="M145.49,35.38c-.12,0-.24.04-.35.01-1.74-.53-2.1,2.81-3.73,1.59-1.89-1.41,1.36-2.73.52-4.34,1.58.39,2.59,1.53,3.55,2.73Z"/>
      <path class="cls-4" d="M141.89,32.59c-.33.07-.68.1-.99.22-.87.35-1.63,1.74-2.63.72-.87-.89.67-1.48.76-2.33.05-.45.07-.9.1-1.35,1.55.27,2.48,1.18,2.76,2.74Z"/>
      <path class="cls-4" d="M78.85,16.72c-1.33.05-2.65.1-3.98.14,1.26-1.87,2.59-1.96,3.98-.14Z"/>
      <path class="cls-4" d="M16.57,108.92c2.13.6,1.11,2.33,1.28,3.63-1.47-.84-1.32-2.25-1.28-3.63Z"/>
      <path class="cls-4" d="M129.37,24c-1.02.06-2.04.12-2.21-1.29,1.03-.08,2.03-.1,2.21,1.29Z"/>
      <path class="cls-4" d="M60.25,21.35c-.11.9-.62,1.29-1.51,1.21.09-.93.59-1.33,1.51-1.21Z"/>
      <path class="cls-4" d="M150.46,40.31c-1.74.75-1.39-.51-1.38-1.44.63.31,1.23.66,1.38,1.44Z"/>
      <path class="cls-4" d="M147.63,145.72c.48.01.96.02,1.43.03-.01.93-.47,1.4-1.4,1.41-.01-.48-.02-.96-.03-1.44h0Z"/>
      <path class="cls-4" d="M147.66,37.46c-.24-.24-.47-.47-.71-.71.24.24.47.47.71.71Z"/>
      <path class="cls-4" d="M31.32,44.03c-.18.18-.36.36-.54.54-.02-.38.16-.56.54-.54Z"/>
      <path class="cls-4" d="M148.37,38.16c-.24-.23-.48-.47-.71-.7.24.23.48.47.71.7Z"/>
      <path class="cls-4" d="M146.95,36.76c-.24-.24-.47-.48-.71-.72.24.24.47.48.71.72Z"/>
      <path class="cls-4" d="M149.08,38.87c-.24-.24-.47-.47-.71-.71.24.24.47.47.71.71Z"/>
      <path class="cls-1" d="M91.06,22.84c8.63-.41,13.91,1.52,18.99,4.1,2.72,1.39,3.81,4.49,2.77,8.29-2.39,8.75-5.71,17.18-9.38,25.46-2.07,4.66-4.37,9.23-6.33,13.93-.91,2.19-1.93,4.49-4.36,4.41-2.99-.1-4.75-2.55-5.63-5.25-2.09-6.41-5.34-12.33-7.76-18.58-2.59-6.71-5.77-13.25-7.09-20.41-.66-3.59.35-6.3,3.72-8.23,5.59-3.2,11.77-3.25,15.07-3.72Z"/>
      <path class="cls-1" d="M47.56,108.96c-2.57-.15-4.8,1.06-6.93,2.13-6.91,3.49-13.11,2.87-15.47-5.89-2.36-8.77-3.35-17.73.77-26.4.64-1.34.19-2.83,1.41-4.19,3.02-3.34,6.54-3.22,10.25-2.13,11.44,3.37,22.16,8.51,33.02,13.36,2.33,1.04,4.56,2.26,6.84,3.37,2.44,1.18,2.62,3.26.86,5.29-2.91,3.37-7.23,4.06-10.93,5.91-4.18,2.09-8.87,3.07-12.79,5.76-1.36.47-3.47-1.21-4.08,1.43,0,0-.11.08-.11.08-1.19-.12-2.47-.46-2.85,1.26Z"/>
      <path class="cls-1" d="M77.03,135.79c.08-1.33.17-2.66.25-3.98,2.74-.34,2.67-2.43,2.75-4.43.08-.19.1-.39.06-.59,1.87-1.75,2.82-3.89,2.75-6.47,0,0,0,0,0,0,1.95-1.41,2.58-3.45,2.75-5.72,0,0,0-.01,0-.01,2-1.37,2.36-3.52,2.7-5.68,1.24-2.09,3.06-3.15,5.47-2.81,2.62.37,2.47,2.79,3.46,4.56,3.45,6.19,5.81,12.83,8.59,19.28,2.64,6.15,4.91,12.48,6.95,18.86,1.49,4.66-.56,9.12-5.17,10.69-8.48,2.88-17.22,2.63-25.93.93-2.59-.51-5.23-.93-7.18-2.99-3.35-3.55-2.46-7.61-1.02-11.49.46-1.23.68-2.42.92-3.66,1.35-1.97,2.68-3.95,2.65-6.49Z"/>
      <path class="cls-1" d="M122.28,151.32c-7.36-7.52-9.76-17.7-14.01-26.84-2.71-5.84-5.1-11.9-6.84-18.17-.54-1.96-.18-3.47,1.2-4.8,1.34-1.29,2.67-.62,4.2-.12,11.55,3.75,22.67,8.54,33.62,13.74,1.94.92,3.98,1.53,5.93,2.5,4.86,2.42,5.77,7.53,3.77,11.99-3.59,8.01-10.08,13.55-16.61,19.02-1.13.04-2.55-.54-2.82,1.34,0,0-.01.01-.01,0-1.14.05-2.54-.43-2.86,1.36,0,0,0,0,0,0-1.86,0-3.72-.02-5.58-.03Z"/>
      <path class="cls-1" d="M71.41,138.61c-2.12,2.79-2.8,6.33-5.09,9.14-2.47,3.03-5.35,4.34-9.19,3.23-3.96-1.15-6.54-4.34-9.92-6.33-5.33-3.13-7.91-8.83-11.73-13.35-3.13-3.71-.89-10.17,3.25-13.06,5.27-3.68,11.04-6.84,16.87-8.68,5.9-1.86,11.48-4.36,17.26-6.4,3.68-1.13,7.37-2.21,11.28-1.25,0,0,0,0,0,0,.72,3-2.07,5.46-1.31,8.47-.04.45-.07.9-.1,1.35-1.72.34-1.32,1.72-1.4,2.87,0,0,0,0,0,0-1.82.29-1.32,1.71-1.38,2.86,0,0,0,0,0,0-1.93,1.97-2.78,4.35-2.75,7.08-.04.45-.08.89-.12,1.34-1.67.37-1.36,1.7-1.38,2.87,0,0,0,0,0,0-2.26,2.93-3.77,6.18-4.29,9.87Z"/>
      <path class="cls-1" d="M43.44,41.21c5.18-.67,8.85-3.98,12.56-7.24.59-.02,1.17-.03,1.76-.05,6.72-.23,8.32,1.33,11.13,7.63,2.53,5.66,4.93,11.41,7.63,17.02,1.95,4.06,3.24,8.66,4.84,13.01.83,2.26,1.71,4.5,2.58,6.74,1.14,2.94-.32,5.12-3.49,5.29-4.27.23-7.7-2.38-11.53-3.59-9.79-3.08-18.8-8.12-28.24-12.09-7.02-2.95-7.53-10.52-4.1-15.44,1.83-2.63,3.08-5.64,5.78-7.68.98-.74,1.16-2.26,1.09-3.6Z"/>
      <path class="cls-1" d="M121.55,102.05c-4.79-2.85-10.69-3.53-14.79-7.78-1.65-1.71-1.54-3.26.14-4.39,1.62-1.09,3.08-2.59,4.8-3.31,7.44-3.09,15.1-5.65,22.48-8.86,4.55-1.98,9.24-3.5,13.85-5.28,5.9-2.28,10.69,1,12.36,7.98,1.59,6.61,1.57,13.26,1.22,19.92-.23,4.51-1.59,8.72-5.48,11.6-3.77-.06-7.54-.12-11.31-.18-2.3-1.09-4.36-2.81-7.09-2.8-4.36-4.74-10.18-6.03-16.18-6.9Z"/>
      <path class="cls-1" d="M105.2,67.87c2.7-6.84,5.48-13.64,8.53-20.34,1.42-3.13,4.06-5.74,4.25-9.43,3.42-1.16,6.09-4.07,9.94-4.21,4.21,1.68,7.81,4.35,11.35,7.09.37,1.48,1.19,2.52,2.76,2.82,0,0,.02.02.02.02.27,1.59,1.39,2.34,2.77,2.85.66,1.01,2.17,1.32,2.25,2.8.18,1.29.33,2.61,2.03,2.77,0,0,.04.06.04.06.03,1.14-.54,2.57,1.34,2.83,0,0,.01.02.01.02,0,2.84-.02,5.68-.02,8.52,0,0,0,.01,0,.01-2.43-.06-3.86,1.08-4.19,3.53-.59,0-1.17.01-1.49.65-1.72.15-3.3.36-4.97,1.25-2.2,1.17-4.31,2.81-6.9,3.08-1.87.2-2.99,1.1-3.54,2.83-4.46.58-8.05,3.47-12.28,4.71-2.09.62-4.06,1.66-6.08,2.52-1.27-.08-2.69-.5-3.75.3-1.48,1.11-2.64,1.22-3.94-.2-1.33-1.46-.84-2.85-.38-4.51.91-3.27,2.35-6.45,2.25-9.96Z"/>
      <path class="cls-4" d="M105.2,67.87c.1,3.51-1.34,6.69-2.25,9.96-.46,1.66-.95,3.06.38,4.51,1.3,1.42,2.45,1.31,3.94.2,1.06-.8,2.48-.37,3.75-.3-3.77,3.36-7.27,3.33-10.13.44-2-2.03-.03-3.5.28-5.07.68-3.46,1.29-7.09,4.04-9.75Z"/>
      <path class="cls-4" d="M121.55,102.05c6,.87,11.82,2.16,16.18,6.9-4.79.22-8.11-3.46-12.33-4.83-1.22-.4-3.12-.4-3.85-2.07Z"/>
      <path class="cls-4" d="M129.38,75.02c.55-1.73,1.67-2.64,3.54-2.83,2.59-.27,4.7-1.91,6.9-3.08,1.67-.89,3.25-1.1,4.97-1.25-.58,2.6-3.27,1.91-4.8,2.6-3.5,1.56-6.23,5.12-10.61,4.56Z"/>
      <path class="cls-4" d="M127.92,33.88c-3.84.14-6.52,3.05-9.94,4.21-.4-3.85,3.03-4.25,5.25-5.3,1.24-.59,3.64-1.43,4.68,1.08Z"/>
      <path class="cls-4" d="M144.82,111.75c3.77.06,7.54.12,11.31.18-1.74,2.87-4.31,3.67-7,1.88-1.4-.93-3.84.51-4.31-2.07Z"/>
      <path class="cls-4" d="M84.15,101.9c-3.91-.97-7.6.12-11.28,1.25,3.15-4.5,9.06-5.15,11.28-1.25Z"/>
      <path class="cls-4" d="M71.41,138.61c.52-3.69,2.03-6.95,4.29-9.87,0,2.36.01,4.72.02,7.08,0,0,0,0,0,0-2.71-1.05-2.38,2.61-4.3,2.79Z"/>
      <path class="cls-4" d="M82.84,110.36c-.77-3.01,2.02-5.47,1.31-8.47,2.59,2.33,2.04,5.92-1.31,8.47Z"/>
      <path class="cls-4" d="M145.66,38.46c1.6.61,2.19,1.97,2.52,3.45.14.65-.3,1.08-1.04.92-1.51-.32-2.94-1-3.27-2.57-.15-.71.88-1.48,1.8-1.8Z"/>
      <path class="cls-4" d="M77.21,124.52c-.04-2.73.82-5.12,2.75-7.08-.15,2.66.94,5.8-2.75,7.08Z"/>
      <path class="cls-4" d="M150.47,63.67c0-2.84.02-5.68.02-8.52,2,1.99,1.99,6.56-.02,8.52Z"/>
      <path class="cls-4" d="M130.82,30.34c1.38-.88,2.45-.61,3.46-.64.66-.02,1.51-.14,1.71.74.08.34-.27.85-.55,1.17-.47.55-1.02.88-1.79.36-.81-.54-1.69-.98-2.84-1.63Z"/>
      <path class="cls-4" d="M77.03,135.79c.03,2.54-1.3,4.52-2.65,6.49-.23-2.29-.21-4.53,1.34-6.45,0,0,0,0,0,0,.44,0,.87-.02,1.31-.03Z"/>
      <path class="cls-4" d="M85.58,114.6c-.17,2.27-.8,4.32-2.75,5.72-.18-2.44-.32-4.86,2.75-5.72Z"/>
      <path class="cls-4" d="M88.29,108.9c-.34,2.16-.69,4.31-2.7,5.68-.16-2.4-.1-4.69,2.7-5.68Z"/>
      <path class="cls-4" d="M82.84,120.31c.07,2.58-.88,4.72-2.75,6.47.18-2.47.49-4.89,2.75-6.47Z"/>
      <path class="cls-4" d="M146.27,67.21c.33-2.46,1.76-3.59,4.19-3.53-.51,2.24-2.43,2.79-4.19,3.53Z"/>
      <path class="cls-4" d="M122.28,151.32c1.86,0,3.72.02,5.58.03-1.87,2.32-3.73,2.36-5.58-.03Z"/>
      <path class="cls-4" d="M80.03,127.37c-.08,2,0,4.09-2.75,4.43.6-1.68.76-3.62,2.75-4.43Z"/>
      <path class="cls-4" d="M142.02,43.8c-1.57-.3-2.38-1.34-2.76-2.82,2.12-.24,3.01.72,2.76,2.82Z"/>
      <path class="cls-4" d="M50.52,107.61c.6-2.64,2.72-.96,4.08-1.43-.72,2.3-2.7.99-4.08,1.43Z"/>
      <path class="cls-4" d="M144.81,46.67c-1.38-.51-2.5-1.27-2.77-2.85,2.16-.26,3.08.69,2.77,2.85Z"/>
      <path class="cls-4" d="M149.1,52.24c-1.71-.16-1.85-1.48-2.03-2.77,2.07-.11,2.04,1.34,2.03,2.77Z"/>
      <path class="cls-4" d="M127.86,151.35c.32-1.79,1.72-1.31,2.86-1.36-.29,1.87-1.72,1.31-2.86,1.36Z"/>
      <path class="cls-4" d="M75.71,128.73c.02-1.17-.29-2.5,1.38-2.87-.07,1.15.54,2.63-1.38,2.87Z"/>
      <path class="cls-4" d="M79.96,117.43c.06-1.15-.44-2.57,1.38-2.86-.08,1.14.48,2.59-1.38,2.86Z"/>
      <path class="cls-4" d="M81.34,114.58c.08-1.14-.32-2.53,1.4-2.87-.07,1.15.53,2.63-1.4,2.87Z"/>
      <path class="cls-4" d="M47.56,108.96c.38-1.72,1.67-1.38,2.85-1.26-.41,1.66-1.76,1.17-2.85,1.26Z"/>
      <path class="cls-4" d="M150.48,55.13c-1.88-.26-1.31-1.69-1.34-2.83,1.74.33,1.23,1.72,1.34,2.83Z"/>
      <path class="cls-4" d="M130.74,149.98c.26-1.88,1.68-1.31,2.82-1.34-.31,1.78-1.71,1.24-2.82,1.34Z"/>
      <path class="cls-4" d="M168.1,92.47c.14.29.39.57.39.85,0,.39-.4.59-.69.36-.21-.17-.25-.59-.28-.9,0-.07.32-.17.58-.3Z"/>
      <path class="cls-4" d="M34.55,47.2c-.08.19-.13.49-.26.54-.14.05-.37-.14-.56-.22.08-.19.13-.49.26-.54.14-.05.37.14.56.22Z"/>
      <path class="cls-4" d="M147.63,145.72c-.45-.07-.96-.07-1.04-.66-.02-.12.27-.4.39-.39.59.08.59.6.66,1.05h0Z"/>
      <path class="cls-3" d="M44.3,34.01c.35,1.19.37,1.83.69,2.25.61.82,1.54,1.5.8,2.67-.1.16-.68.21-.85.08-.89-.71-1.89-1.42-1.54-2.81.14-.53.42-1.03.9-2.19Z"/>
      <path class="cls-3" d="M160.32,63.66c-.16-1.73,1.36-3.31.36-5.19,1.19,1.25,2.45,2.48,2.26,4.16-.16,1.44-1.65.88-2.62,1.03h0Z"/>
    </g>
  </g>
</svg>