<?xml version="1.0" encoding="UTF-8"?>
<svg id="Layer_2" data-name="Layer 2" xmlns="http://www.w3.org/2000/svg" viewBox="0 0 185 185">
  <defs>
    <style>
      .cls-1 {
        fill: #83c85e;
      }

      .cls-2 {
        fill: #44ae49;
      }

      .cls-3 {
        fill: #0a793d;
      }

      .cls-4 {
        fill: #e2e9c4;
      }

      .cls-5 {
        fill: #107941;
      }

      .cls-6 {
        fill: none;
      }

      .cls-7 {
        fill: #c1d9a9;
      }

      .cls-8 {
        fill: #7ebf4d;
      }

      .cls-9 {
        fill: #97cb5b;
      }

      .cls-10 {
        fill: #1e8e52;
      }

      .cls-11 {
        fill: #108f44;
      }

      .cls-12 {
        fill: #b9da75;
      }
    </style>
  </defs>
  <g id="borxes">
    <rect class="cls-6" width="185" height="185"/>
    <g>
      <path class="cls-8" d="M69.95,62.07c.13.11-.13,1.9,2.35,1.77,4.16,6.35,10.66-.49,15.3-1.77,4.07-1.12,7.77-.57,11.58,1.07,5.28,2.28,7.92,7.19,13.9,3.06.53-.36.36-1.15.41-1.19,2.67-1.8,7.17-4.55,10.15-5.45,9.29-2.8,20.17-.78,23.11,9.56,3.57,12.55-4.43,37.18-7.21,50.48-2.5,11.99-2.17,24.87-11.33,34.57-9.45,10.01-34.21,14.43-38.56-2.67-4.98,17.04-30.24,10.38-38.54-.29-8.74-11.23-7.72-27.09-9.5-40.52-2.07-15.61-13.93-57.31,13.84-55.03,5.66.47,10.26,2.87,14.49,6.4ZM75.84,79.72c.35-.3,1.3.69,1.14-.83-.45-4.44-4.1-7.18-7.7-9.39-12.69-7.8-22.76-2-23.97,12.35-.91,10.84,3.25,25.34,4.62,36.41.91,7.32-.04,13.21,2.94,20.6,4.72,11.75,22.1,19.13,32.68,10.88,1.01-.66,3.81-6.3,4.69-5.89.5.23,4.25,6.68,6.84,8.46,7.37,5.08,21.89.61,27.31-6.1,7.06-8.75,5.93-18.01,7.96-27.93,2.59-12.59,16.76-50.49-7.41-49.79-6.32.18-10.52,3.7-15.63,6.74-1.34,1.67-.1,2.39.05,3.3.12.71-.08,1.6,0,2.35-.7.03-.88.91-1.18,1.18-2.35,2.12-2.29,5.07-4.09,6.81-1.27,1.22-1.6-.05-2.39,2.02-.88,2.3-.8,4.41-2.35,6.47-4.71,1.1-2.24.93-4.29,3.38-.27.32-.96.09-1.01.15-.94.03-2.44-.37-2.94.59-.31-.09-.81.06-1.18,0-.41-.41-1.11-.51-1.18-.59-.1-.12.3-1.14-.37-1.23-.92-.12-1.63,1.03-2.89.11-1.52-1.11-1.23-3.73-2.09-5.04-.59-.89-1.6-.79-1.71-.91-.04-.05-.4-.84-.59-1.18-.47-.87.56-1.59-2.35-1.18-.3-.71-.4-1.32-.59-1.77,2.03.24.85-.62.76-1.64-.21-2.52.13-4.17-1.94-6.01.49-.98-.73-1.64-1.18-1.18.14-.14-.14-1.06,0-1.18ZM87.48,67.54c-5.62.69-7.8,5.17-6.79,10.58.46,2.47,1.87,2.75,2.66,4.4,1.25,2.62,3.95,11.64,6.44,12.38,5.09,1.52,10.5-4.69,9.58-9.56-.4-2.1-4.14-3.82-4.61-5.45-.42-1.46.58-3.42.55-5.16-.11-6.07-1.67-7.94-7.83-7.19Z"/>
      <path class="cls-5" d="M119.97,23.82c.39-.02.79.03,1.18,0-.22,2.83,5.01-.26,5.87.61.19.19,1.05,4.5,1.2,5.28.07.35-.04.79,0,1.18-1.72,1.33-.93,3.97-1.77,5.88-.16.2-.15.75-.59,1.18-3.37-.5-6.29-3.75-9.69-4.13-2.23-.25-8.01.1-8.55,2.96-.31.16-1.13.54-1.18.59-1.15-.2-1.37.03-1.18,1.18-.05.05-.42.85-.59,1.18-1.31-.24-2.01,1.66-2.45,2.55-2.52,5.08-4.68,15.7,1.27,18.63.08.15-.18.71.1,1.06.26.32,7.81,2.94,6.37,4.24-1.19-.47-4.45-.3-5.17-.71-.27-.15-.45-1.2-.99-1.63-.74-.59-6.42-3.4-7.09-3.53-1.4-.28-9.22-.77-9.11,1.76-4.64,1.28-11.14,8.11-15.3,1.77,4.71-1.41,8.79-.39,10.59-5.88.06-.18-.05-.41,0-.59,1.52.29,1.25-.69,1.57-1.64,3.23-9.52,4.83-15.39,10.2-24.25.17-.29.38-.79.59-1.18,1.89.33,2.18-2.21,2.35-2.35.28-.22,1.58.65,1.18-1.18.39-.19.78-.4,1.18-.59,5.08-2.37,7.95-3.49,13.78-2.89,2.95.3,2.63.76,6.23.54Z"/>
      <path class="cls-10" d="M104.67,39.71c-3.87,7.22-5.33,13.88-1.18,21.18,3.21,1.58,6.81,2.49,10,4.12-.05.04.11.82-.41,1.19-5.98,4.13-8.62-.78-13.9-3.06-3.8-1.64-7.51-2.19-11.58-1.07-.11-2.53,7.71-2.03,9.11-1.76.67.13,6.34,2.94,7.09,3.53.54.43.72,1.48.99,1.63.72.41,3.98.25,5.17.71,1.44-1.3-6.11-3.91-6.37-4.24-.28-.35-.02-.91-.1-1.06-5.95-2.93-3.79-13.56-1.27-18.63.44-.89,1.14-2.79,2.45-2.55Z"/>
      <path class="cls-10" d="M94.67,31.47c-5.37,8.86-6.97,14.73-10.2,24.25-.32.95-.05,1.93-1.57,1.64,2.47-8.3,3.84-15.29,8.65-22.8.47-.74,2.15-3.12,3.12-3.09Z"/>
      <path class="cls-10" d="M119.97,23.82c-3.59.22-3.27-.24-6.23-.54-5.83-.59-8.7.52-13.78,2.89-.26-1.21.63-1.33,1.44-1.76,6.32-3.37,11.96-2.91,18.56-.59Z"/>
      <path class="cls-10" d="M125.85,37.95c-.35.34-.31,1.23-1.37,1.11-5.76-3.92-10.26-5.74-16.87-2.29.54-2.85,6.32-3.2,8.55-2.96,3.41.38,6.33,3.63,9.69,4.13Z"/>
      <path class="cls-10" d="M82.9,57.95c-1.81,5.5-5.88,4.48-10.59,5.88-2.48.14-2.23-1.66-2.35-1.77,3.86.02,6.93.55,10.22-1.85,1.21-.88,1.26-2.39,2.73-2.27Z"/>
      <path class="cls-10" d="M121.15,23.82c5.58-.4,7.11-2.42,7.96,4.11.14,1.11,1,2.03-.9,1.77-.14-.77-1.01-5.08-1.2-5.28-.85-.87-6.09,2.23-5.87-.61Z"/>
      <path class="cls-10" d="M128.21,30.88c.01.13.57.49.58.95.04,1.18-.73,3.76-1.35,4.77-.18.29-.95.1-1,.16.83-1.91.04-4.56,1.77-5.88Z"/>
      <path class="cls-10" d="M98.79,26.77c.4,1.83-.9.95-1.18,1.18-.17.14-.46,2.68-2.35,2.35,1.37-2.58,1.12-1.33,2.35-2.35.25-.21-.8-.21,1.18-1.18Z"/>
      <path class="cls-10" d="M106.44,37.36c-.13.14.15,1.02,0,1.18s-1.04-.13-1.18,0c-.2-1.15.03-1.37,1.18-1.18Z"/>
      <path class="cls-1" d="M109.38,78.55c-.15-.91-1.39-1.62-.05-3.3,5.11-3.03,9.31-6.55,15.63-6.74,24.16-.71,9.99,37.2,7.41,49.79-2.04,9.92-.91,19.18-7.96,27.93-5.41,6.71-19.94,11.18-27.31,6.1-2.59-1.78-6.34-8.23-6.84-8.46-.88-.41-3.68,5.23-4.69,5.89-10.58,8.24-27.96.87-32.68-10.88-2.97-7.4-2.03-13.28-2.94-20.6-1.37-11.07-5.54-25.57-4.62-36.41,1.21-14.35,11.27-20.15,23.97-12.35,3.6,2.21,7.25,4.95,7.7,9.39.15,1.52-.8.53-1.14.83.32-1.7-1.49-1.5-1.77-1.77-.45-.45-.37-1.35-.59-1.77-2.05-3.93-9.91-8.08-14.48-8.17-11.92-.23-11.9,13.44-11.41,22,.62,10.74,2.89,22.2,4.12,32.95,1.75,15.27,6.73,28.96,25,28.42,13.18-.39,12.41-18.34,12.65-27.53,1.22.24,1.82-.11,2.35-1.18.12,5.61.05,11.54.54,17.42.07.89-.55,1.65-.54,2.24,0,.35.92.33,1.13.8,3.56,7.85,6.74,9.75,15.63,8.95,18.93-1.71,18.78-17.9,21.64-31.91,2.22-10.91,8.31-28.78,6.65-39.31-1.49-9.42-8.87-12.04-17.38-9.08-2.2.76-7.79,3.73-7.66,6.17l-2.35.59Z"/>
      <path class="cls-9" d="M87.48,67.54c6.16-.76,7.72,1.11,7.83,7.19.03,1.74-.96,3.7-.55,5.16.47,1.63,4.21,3.35,4.61,5.45.92,4.87-4.49,11.07-9.58,9.56-2.5-.74-5.19-9.76-6.44-12.38-.79-1.65-2.2-1.94-2.66-4.4-1.01-5.4,1.17-9.88,6.79-10.58ZM91.73,87.08c.46-1.59,0-7.76,0-10,0-1.37,1.82-4.47-1.59-5.46-6.41-1.86-7.47,3.42-5.31,8.25.51,1.15,1.59,1.62,2.12,2.59.3.54,3.61,8.73,4.79,4.63Z"/>
      <path class="cls-4" d="M108.2,82.08c2.66-.65,2.16,2.18,2.36,2.35,1.12.98,2.71-3.81,3.25-1.77.07.26.47,5.11.28,5.3-.06.06-1.7.06-1.76,0-.36-.36,1.08-2.48-2.36-1.76l2.35,4.7c-.4,2.69-.56,1.59-2.35,2.94h-.59c-1.96.6-1.85-2.38-4.14-.9-1.53.99.57,2.25,1.19,2.96l-1.32.28.73,1.19c.52,2.51-2.52.17-2.94.59.11,2.36,3.04,3.04.58,5.29-.39.16-.4.29-.59.59l-3.83,2.94.29-2.94c-2.81-.37-2.7,1.92-3.53,3.53-.91,1.78-1.7,2.2-1.77,2.35-1.07-2.96-3.14-.89-4.36-1.21-.88-.23-.81-2.68-2.07-1.66-.19.16.04,1.05-.05,1.11-.28.19-2.02-.38-2.35.59-1.51-.42-.95-.5-1.77-1.18.07-.36-.1-.89,0-1.18.06-.16.83-.45.59-1.17-.34-.07-1.08.1-1.17,0-.14-.15.09-1.33,0-1.77.1-.05.31-.69,1.04-1,1.43-.62,3.27-1.42,4.85-1.35.06.08.77.18,1.18.59.67.68-.06.3,1.55,1.38.31.21.18.9.24.94,1.55,1.05.94-1.23,1.15-1.73.03-.08.79-.71,1.18-1.18.05-.06.74.17,1.01-.15,2.05-2.45-.42-2.28,4.29-3.38,2.01-.47,4.19-4.45,2.35-6.47.79-2.06,1.12-.8,2.39-2.02,1.8-1.74,1.74-4.68,4.09-6.81Z"/>
      <path class="cls-4" d="M74.07,77.96c.27.27,2.09.06,1.77,1.77-.14.12.14,1.04,0,1.18-.08.08-2.02-.4-1.17,1.47.76,1.68,3.93-.58,2.92,3.43-.13.54-1.66.23-1.18,1.86.06.2,1.09.39,1.79,2.07.18.45.29,1.05.59,1.77.51,1.22-.37,1.46,2.35,1.18.18.34.54,1.13.59,1.18-.34,2.52-3.38,4.96-2.65,1.17l-2.06,1.77c-.36-.19-1.57.25-2.09-.56-.44-.68-.1-2.17-.29-2.36-.28-.28-4.67.75-3.46-2.62.5-1.4,3.11-.07,2.31-2.7-.92.5-1.74,0-2.35,0,.9-3.23-1.39-3.4-1.77-5.88,2.71-.25,1.2-1.32,1.18-1.77-.01-.29-.08-.69,0-.88.13-.3.45-.21.58-.3s.76.19,1.04-.11c.57-.62.07-3.12,1.9-1.65ZM74.96,92.67v.59c.38-.2.38-.39,0-.59Z"/>
      <path class="cls-7" d="M81.72,93.85c.12.13,1.13.03,1.71.91.86,1.31.57,3.93,2.09,5.04,1.26.92,1.97-.24,2.89-.11.67.09.27,1.11.37,1.23-1.58-.06-3.42.74-4.85,1.35-.73.31-.94.95-1.04,1-.25.13-.91-.13-1.18,0,.38-2.93,2.44-4.65,1.17-7.65-1.35.55-1.83,2.83-1.76,4.11-1.48-.48-1.95-1.46-3.53-2.35-.23-.13-.39-.49-.59-.59l2.06-1.77c-.73,3.79,2.31,1.34,2.65-1.17Z"/>
      <path class="cls-7" d="M112.91,80.31c.83-.39,2.16,1.76,2.35,2.35.13.4-.07,1.22,0,1.77,0,.03,0,.36,0,.59.03.97.03,1.97,0,2.94-.33.07-1.05-.11-1.18,0-.06.05.15.78-.18,1.01-1.35.94-1.15-.98-1.58,1.93l-2.35-4.7c3.43-.73,2,1.4,2.36,1.76.06.06,1.7.06,1.76,0,.19-.18-.21-5.04-.28-5.3-.53-2.04-2.12,2.76-3.25,1.77-.2-.18.3-3.01-2.36-2.35.3-.27.48-1.15,1.18-1.18.58-.03,2.42,1.09,3.53.59.01-.39,0-.78,0-1.17Z"/>
      <path class="cls-4" d="M111.73,77.96c0,.17.43.93.59,1.18.15.23.39.41.59.59.04.18,0,.4,0,.59,0,.39.02.78,0,1.17-1.11.5-2.96-.61-3.53-.59-.08-.75.12-1.65,0-2.35l2.35-.59Z"/>
      <path class="cls-7" d="M75.84,80.9c-1.16,1.21,1.09,1.1,1.18,1.18,2.07,1.84,1.73,3.49,1.94,6.01.08,1.02,1.26,1.88-.76,1.64-.69-1.68-1.73-1.87-1.79-2.07-.48-1.63,1.05-1.32,1.18-1.86,1.01-4.01-2.16-1.75-2.92-3.43-.85-1.87,1.09-1.38,1.17-1.47Z"/>
      <path class="cls-7" d="M101.73,90.9c1.84,2.03-.35,6.01-2.35,6.47,1.55-2.06,1.48-4.17,2.35-6.47Z"/>
      <path class="cls-7" d="M91.14,101.49c.41.12.98.85,1.77.59-.21.5.41,2.78-1.15,1.73-.06-.04.07-.73-.24-.94-1.61-1.08-.88-.7-1.55-1.38.37.06.87-.09,1.18,0Z"/>
      <path class="cls-1" d="M94.08,100.91c-.38.47-1.14,1.1-1.18,1.18-.78.27-1.36-.47-1.77-.59.5-.95,2-.55,2.94-.59Z"/>
      <path class="cls-7" d="M78.78,91.49c2.91-.41,1.88.31,2.35,1.18-2.73.28-1.85.04-2.35-1.18Z"/>
      <path class="cls-1" d="M75.84,80.9c.45-.47,1.67.2,1.18,1.18-.09-.08-2.34.03-1.18-1.18Z"/>
      <path class="cls-11" d="M111.73,77.96c-.13-2.44,5.47-5.4,7.66-6.17,8.51-2.96,15.89-.35,17.38,9.08,1.66,10.53-4.43,28.4-6.65,39.31-2.85,14.01-2.71,30.2-21.64,31.91-8.89.8-12.07-1.1-15.63-8.95-.21-.47-1.13-.45-1.13-.8,0-.59.62-1.35.54-2.24-.5-5.88-.42-11.82-.54-17.42-.01-.59.03-1.18,0-1.77,1.72.47,1.23-1.39,1.18-2.94-.02-.59,0-1.18,0-1.77.71-.9,1.69-3.34.59-4.12.28-.72.31-1.73.59-2.35.07-.15.85-.57,1.77-2.35,5.21,2.02,4.1-1.26,5.47-2.22,1.03-.73.46.51,1.59-1.31.19-.3.2-.43.59-.59.47-.19,1.53.26,2.08-.56.66-1,.48-4.09.87-5.32.66-2.12,1.59-1.88,2.94-2.94.21-.17.38-.43.59-.59,1.79-1.35,1.96-.26,2.35-2.94.43-2.91.23-1,1.58-1.93.33-.23.12-.96.18-1.01.13-.11.85.07,1.18,0-.38,11.61-2.61,22.04-6.22,32.91l-10.09,19.85.48,1.9c2.82,1.78,10.76-5.43,12.59-7.58,9.46-11.14,15.33-30.52,11.88-44.84-.98-4.08-3.61-11.03-8.65-7.53-.2-.59-1.52-2.75-2.35-2.35,0-.19.04-.41,0-.59-.03-.16-.44-.39-.59-.59-.16-.25-.58-1.01-.59-1.18Z"/>
      <path class="cls-11" d="M73.48,76.19c-1.93.41-2.33,1.67-2.35,3.53-.13.08-.45,0-.58.3-.08.19-.02.59,0,.88-.34.11-.93.6-1.18.59-.63-.04-1.4-.55-2.07-.51-3.34.2-6.05,6.05-6.95,8.85-4.63,14.27-1.46,34.65,8.45,46.07,1.5,1.73,8.61,8.8,10.92,5.64,1.16-1.59-4.1-11.69-4.92-13.99-3.29-9.23-6.55-21.87-6.07-31.67.11-2.3,1.19-2.48,1.23-2.63.57,1.67,2.73,1.36,3.54,2.05.98.84.72,4.99,4.11,4.42.08.82.23,2.26.59,2.94.13.26.35.43.59.59.7.47,1.53.57,2.35.59-.24,2.7,1.26,2.63,2.35,3.53.82.67.26.75,1.77,1.18.81.23,1.15.69,2.35,0,.37.35.47,1.67.59,1.77-.49,1.44.36,2.51.59,3.53.22.96.39,1.97.59,2.94-1.09.89-.83,3.12,0,4.12-.03.98.03,1.96,0,2.94-.24,9.19.53,27.15-12.65,27.53-18.27.54-23.25-13.15-25-28.42-1.23-10.75-3.5-22.21-4.12-32.95-.49-8.55-.51-22.23,11.41-22,4.56.09,12.43,4.25,14.48,8.17Z"/>
      <path class="cls-9" d="M87.61,107.97c.09-.06-.15-.95.05-1.11,1.26-1.02,1.18,1.43,2.07,1.66,1.22.32,3.29-1.76,4.36,1.21-.28.62-.31,1.64-.59,2.35-1.02,2.63-.56,2.06-.59,4.12,0,.59-.02,1.18,0,1.77-1.7-.48-1.25,1.4-1.18,2.94.03.59-.01,1.18,0,1.77-.53,1.07-1.14,1.42-2.35,1.18.03-.98-.03-1.96,0-2.94.04-1.72.57-1.37,0-4.12-.2-.97-.37-1.98-.59-2.94.83-.2.74-3.33.59-3.54-.1-.14-1,.14-1.18,0-.12-.09-.22-1.42-.59-1.77v-.59Z"/>
      <path class="cls-7" d="M74.07,77.96c-1.83-1.47-1.33,1.04-1.9,1.65-.28.3-.91.03-1.04.11.02-1.87.42-3.12,2.35-3.53.22.42.13,1.31.59,1.77Z"/>
      <path class="cls-12" d="M91.73,87.08c-1.18,4.1-4.49-4.08-4.79-4.63-.53-.97-1.61-1.44-2.12-2.59-2.16-4.83-1.1-10.12,5.31-8.25,3.42.99,1.59,4.09,1.59,5.46,0,2.25.46,8.41,0,10Z"/>
      <path class="cls-7" d="M95.84,107.38c.83-1.61.72-3.9,3.53-3.53l-.29,2.94,3.83-2.94c-1.13,1.81-.56.58-1.59,1.31-1.36.97-.26,4.24-5.47,2.22Z"/>
      <path class="cls-7" d="M105.85,97.38l-.73-1.19,1.32-.28c-.63-.72-2.72-1.97-1.19-2.96,2.28-1.49,2.18,1.5,4.14.9v.59c-1.36,1.07-2.28.82-2.94,2.94h-.59Z"/>
      <path class="cls-1" d="M103.49,103.26c2.46-2.25-.48-2.94-.58-5.29.42-.42,3.46,1.92,2.94-.59h.59c-.38,1.23-.2,4.33-.87,5.32-.55.82-1.61.37-2.08.56Z"/>
      <path class="cls-2" d="M82.9,103.26c.09.44-.14,1.61,0,1.77-.83.43-.11.95.59,1.18-.1.29.07.81,0,1.18-1.09-.9-2.59-.83-2.35-3.53.05-.54.21-.41.59-.59.27-.13.93.13,1.18,0Z"/>
      <path class="cls-1" d="M87.61,107.97v.59c-1.2.69-1.55.23-2.35,0,.33-.97,2.07-.4,2.35-.59Z"/>
      <path class="cls-7" d="M82.9,105.03c.09.1.83-.07,1.17,0,.24.72-.53,1.01-.59,1.17-.7-.22-1.41-.75-.59-1.18Z"/>
      <path class="cls-1" d="M109.38,94.43v-.59h.59c-.21.16-.37.42-.59.59Z"/>
      <path class="cls-3" d="M69.37,81.49c.04.38-.06.8,0,1.18.38,2.48,2.67,2.66,1.77,5.88-.2,0-.39,0-.59,0-1.91.03-1.59,1.45-.59,2.94-.13.49.12,1.27,0,1.77-.04.15-1.12.32-1.23,2.63-.49,9.8,2.77,22.44,6.07,31.67.82,2.3,6.08,12.4,4.92,13.99-2.31,3.16-9.42-3.91-10.92-5.64-9.91-11.43-13.08-31.8-8.45-46.07.91-2.8,3.62-8.65,6.95-8.85.67-.04,1.43.47,2.07.51Z"/>
      <path class="cls-2" d="M71.13,88.55c.61,0,1.43.5,2.35,0,.8,2.63-1.81,1.3-2.31,2.7-1.2,3.37,3.18,2.35,3.46,2.62.19.19-.15,1.68.29,2.36.52.8,1.73.37,2.09.56.19.1.36.46.59.59.05.78-.07,1.58,0,2.35-3.39.57-3.13-3.58-4.11-4.42-.81-.69-2.97-.38-3.54-2.05.12-.5-.13-1.27,0-1.77.21-.82,1.05-1.69.59-2.94.2,0,.39,0,.59,0Z"/>
      <path class="cls-7" d="M69.37,82.67c-.06-.37.04-.79,0-1.18.25.02.83-.48,1.18-.59.02.44,1.54,1.51-1.18,1.77Z"/>
      <path class="cls-2" d="M74.96,92.67c.38.2.38.39,0,.59v-.59Z"/>
      <path class="cls-4" d="M81.72,103.26c-.38.18-.54.05-.59.59-.82-.02-1.66-.12-2.35-.59l-.59-.59c-.36-.68-.51-2.12-.59-2.94-.07-.77.05-1.58,0-2.35,1.58.89,2.04,1.88,3.53,2.35-.07-1.29.41-3.56,1.76-4.11,1.27,2.99-.79,4.72-1.17,7.65Z"/>
      <path class="cls-3" d="M115.26,82.67c5.04-3.5,7.67,3.45,8.65,7.53,3.45,14.32-2.42,33.71-11.88,44.84-1.83,2.15-9.77,9.36-12.59,7.58l-.48-1.9,10.09-19.85c3.61-10.87,5.84-21.3,6.22-32.91.03-.97.03-1.97,0-2.94v-.59c-.07-.54.13-1.36,0-1.77Z"/>
      <path class="cls-11" d="M115.26,85.02c0-.22,0-.56,0-.59v.59Z"/>
      <path class="cls-7" d="M112.91,79.72c-.2-.18-.44-.36-.59-.59.14.2.56.43.59.59Z"/>
      <path class="cls-1" d="M92.9,116.21c.02-2.05-.43-1.48.59-4.12,1.1.78.12,3.22-.59,4.12Z"/>
      <path class="cls-1" d="M92.9,117.97c.05,1.55.54,3.42-1.18,2.94-.07-1.54-.53-3.42,1.18-2.94Z"/>
      <path class="cls-1" d="M89.37,120.91c-.83-.99-1.09-3.23,0-4.12.57,2.75.04,2.39,0,4.12Z"/>
      <path class="cls-1" d="M88.19,110.32c.18.13,1.07-.14,1.18,0,.15.21.25,3.34-.59,3.54-.23-1.02-1.08-2.09-.59-3.53Z"/>
      <path class="cls-2" d="M78.78,103.26c-.23-.16-.45-.33-.59-.59l.59.59Z"/>
      <path class="cls-11" d="M70.54,88.55c.46,1.25-.38,2.12-.59,2.94-1-1.49-1.32-2.91.59-2.94Z"/>
    </g>
  </g>
</svg>