<?xml version="1.0" encoding="UTF-8"?>
<svg id="Layer_2" data-name="Layer 2" xmlns="http://www.w3.org/2000/svg" viewBox="0 0 185 185">
  <defs>
    <style>
      .cls-1 {
        fill: #93c035;
      }

      .cls-2 {
        fill: #663714;
      }

      .cls-3 {
        fill: #7f8a27;
      }

      .cls-4 {
        fill: none;
      }

      .cls-5 {
        fill: #efebcc;
      }

      .cls-6 {
        fill: #eee6ae;
      }

      .cls-7 {
        fill: #8e9835;
      }
    </style>
  </defs>
  <g id="borxes">
    <rect class="cls-4" width="185" height="185"/>
  </g>
  <g id="flavours">
    <g>
      <path class="cls-1" d="M89.37,59.18c1.68-.12,3.2-.61,4.62-1.56,16.36-10.88,32.91-8.6,45.19,6.88,21.48,27.07,17.74,61.91-4.13,83.52-9.09,8.99-20.16,14.03-33.16,14.07-4.7.01-9.21,1.4-13.89,1.46-16.88.2-30.4-6.7-41.31-19.36-8.8-10.21-14.16-21.92-15.03-35.33-1.05-16.05,2.49-30.93,13.24-43.4,9.98-11.58,24.24-12.3,36.17-7.2,1.37.59,2.7,1.69,4.3.59.52,1.03,1,2.08,1.56,3.1.36.66.73,1.53,1.73,1.11.83-.35,1.51-1.01,1.4-2-.07-.64-.44-1.24-.67-1.86Z"/>
      <path class="cls-5" d="M53.28,145.79c11.58,10.73,25.7,16.38,42.8,10.85,1.07-.35,2.11-.31,3.16-.18,15.42,1.89,27.78-4.04,37.2-15.68,19.29-23.83,16.71-58.07-5-78.66-6.27-5.95-13.7-8.38-22.27-6.57-7.05,1.49-12.99,5.08-18.08,10.05-1.51,1.48-2.63,1.71-4.43.49-3.9-2.63-8.21-4.46-12.77-5.59-10.68-2.64-20.11-.52-26.89,8.45-11.06,14.62-14.14,31.09-9.75,48.94,2.55,10.35,7.78,19.23,16.04,27.92Z"/>
      <path class="cls-3" d="M114.2,21.78c.63-.37,1.22-.64,1.34.47,0,0,0,.03,0,.03-1.32,8.51-3.93,16.53-9,23.58-4.75,6.59-11.21,9.46-19.33,8.51-.73-.8-1.39-1.63-1.25-2.82,1.16.15,1.71-.74,2.39-1.39,1.74-1.67,3.12-3.68,4.74-5.42,6.41-6.92,13.48-13.21,19.65-20.38.74-.87.99-1.71,1.46-2.57Z"/>
      <path class="cls-7" d="M114.2,21.78c-.47.86-.71,1.71-1.46,2.57-6.17,7.17-13.24,13.46-19.65,20.38-1.62,1.75-3,3.75-4.74,5.42-.68.65-1.23,1.55-2.39,1.39-.7-1.24-2.41-1.78-2.41-3.5,1.24-12.97,10.23-19.02,21-23.37,3.1-1.25,6.21-2.68,9.65-2.91Z"/>
      <path class="cls-2" d="M83.56,48.05c0,1.72,1.71,2.26,2.41,3.5-.14,1.18.52,2.02,1.25,2.82.72,1.61,1.44,3.21,2.16,4.82.24.62.6,1.23.67,1.86.11.99-.57,1.65-1.4,2-.99.42-1.36-.45-1.73-1.11-.55-1.01-1.04-2.06-1.56-3.1-5.29-10.79-13.45-18.88-23.61-25.11-1.09-.67-3.15-.82-2.14-3.02.78-1.7,3.55-2.68,5.2-1.69,7.14,4.25,12.82,10.03,17.27,17,.46.71,1.13,1.26,1.46,2.04Z"/>
      <polygon class="cls-7" points="115.55 22.27 115.55 22.24 115.67 22.27 115.55 22.27"/>
      <path class="cls-6" d="M104.54,93.62c4.87,5.25,5.48,10.51,5.83,15.83.11,1.74.14,3.51.02,5.25-.34,4.76-4.57,7.64-9.1,6.19-2.02-.64-4.15-1.13-5.81-2.53-1.45-1.22-2.55-.95-3.74.35-1.52,1.67-3.41,2.71-5.6,3.43-4.72,1.56-8.71-.46-9.52-5.43-.62-3.81-1.56-7.64-1.27-11.54.27-3.61,1.27-6.89,3.94-9.66,1.89-1.96,4.16-2.77,6.51-2.59,3.44.27,6.66-.3,9.97-.96,3.56-.7,7.11-.44,8.77,1.65ZM100.15,102.79c-.96-.68-1.95-2.17-3.57-1.3-1.46.78-1.08,2.37-.91,3.68.25,1.94,1.04,3.7,2.14,5.34,1.01,1.5,2.17,2.09,3.92,1.22,1.85-.92,2.21-2.36,1.46-4.1-.72-1.69-1.56-3.34-3.04-4.84ZM85.35,103.43c-1.65,1.71-2.45,3.95-2.83,6.37-.25,1.59.08,2.85,1.89,3.36,1.85.53,3.14.2,3.93-1.75.89-2.2,1.28-4.42.97-6.78-.13-1-.43-1.95-1.39-2.39-1.14-.51-1.71.54-2.57,1.18Z"/>
      <path class="cls-2" d="M100.15,102.79c1.48,1.5,2.32,3.15,3.04,4.84.74,1.74.39,3.18-1.46,4.1-1.75.87-2.91.28-3.92-1.22-1.1-1.64-1.89-3.4-2.14-5.34-.17-1.31-.55-2.9.91-3.68,1.63-.87,2.61.62,3.57,1.3Z"/>
      <path class="cls-2" d="M85.35,103.43c.86-.64,1.43-1.69,2.57-1.18.96.43,1.26,1.38,1.39,2.39.32,2.36-.07,4.58-.97,6.78-.79,1.94-2.08,2.27-3.93,1.75-1.81-.51-2.14-1.77-1.89-3.36.38-2.42,1.18-4.66,2.83-6.37Z"/>
    </g>
  </g>
</svg>