<?xml version="1.0" encoding="UTF-8"?>
<svg id="Layer_2" data-name="Layer 2" xmlns="http://www.w3.org/2000/svg" viewBox="0 0 185 185">
  <defs>
    <style>
      .cls-1 {
        fill: #f0b90c;
      }

      .cls-2 {
        fill: none;
      }
    </style>
  </defs>
  <g id="borxes">
    <rect class="cls-2" width="185" height="185"/>
  </g>
  <g id="flavours">
    <g>
      <g>
        <path class="cls-1" d="M49.82,119.96c-7.51,2.47-11.8-1.06-14.26-7.63-2.07-5.52-5.74-7.99-11.7-6.75-7.3,1.52-11.15-1.83-14.87-8.2-3.83-6.57-3.85-11.2-.02-17.74,3.67-6.29,7.41-9.84,14.81-8.3,5.84,1.21,9.04-1.38,11.88-6.57,5.65-10.29,2.41-7.43,13.97-8.38,7.56-.62,11.43,2.17,15.2,8.54,3.67,6.21,4.59,11.14-.2,16.64-4,4.59-4.1,9.17-.03,13.73,5.08,5.68,3.87,10.74.05,16.92-3.73,6.05-7.2,10.39-14.83,7.74ZM23.98,75.51c-5.73-1.68-8.58,1.02-11.51,5.86-3.21,5.3-3.07,9.01.04,14.28,2.84,4.81,5.78,6.25,11.18,6.33,5.65.08,8.5-1.81,11.36-6.57,3.1-5.15,3.14-8.88-.07-13.94-2.81-4.43-5.17-7.96-11-5.96ZM49.81,86.09c5.96,2.02,8.63-1.36,11.54-6.09,3.02-4.91,2.93-8.37-.04-13.31-2.89-4.8-5.82-6.5-11.4-6.5-5.58,0-8.51,1.72-11.4,6.49-3.02,4.97-3.06,8.5.01,13.37,2.83,4.5,5.21,8.21,11.29,6.05ZM50.09,90.86c-6.13-2.19-9.48.95-11.54,6.36-.04.1-.1.21-.17.29-3.57,4.11-2.78,7.77-.11,12.38,2.89,4.99,5.9,7.01,11.88,6.91,5.53-.09,8.18-1.95,11.1-6.44,3.31-5.09,2.91-8.68-.05-13.6-2.73-4.53-5.17-7.93-11.11-5.9Z"/>
        <path class="cls-1" d="M104.11,119.96c-7.51,2.47-11.8-1.06-14.26-7.63-2.07-5.52-5.74-7.99-11.7-6.75-7.3,1.52-11.15-1.83-14.87-8.2-3.83-6.57-3.85-11.2-.02-17.74,3.67-6.29,7.41-9.84,14.81-8.3,5.84,1.21,9.04-1.38,11.88-6.57,5.65-10.29,2.41-7.43,13.97-8.38,7.56-.62,11.43,2.17,15.2,8.54,3.67,6.21,4.59,11.14-.2,16.64-4,4.59-4.1,9.17-.03,13.73,5.08,5.68,3.87,10.74.05,16.92-3.73,6.05-7.2,10.39-14.83,7.74ZM78.27,75.51c-5.73-1.68-8.58,1.02-11.51,5.86-3.21,5.3-3.07,9.01.04,14.28,2.84,4.81,5.78,6.25,11.18,6.33,5.65.08,8.5-1.81,11.36-6.57,3.1-5.15,3.14-8.88-.07-13.94-2.81-4.43-5.17-7.96-11-5.96ZM104.1,86.09c5.96,2.02,8.63-1.36,11.54-6.09,3.02-4.91,2.93-8.37-.04-13.31-2.89-4.8-5.82-6.5-11.4-6.5-5.58,0-8.51,1.72-11.4,6.49-3.02,4.97-3.06,8.5.01,13.37,2.83,4.5,5.21,8.21,11.29,6.05ZM104.38,90.86c-6.13-2.19-9.48.95-11.54,6.36-.04.1-.1.21-.17.29-3.57,4.11-2.78,7.77-.11,12.38,2.89,4.99,5.9,7.01,11.88,6.91,5.53-.09,8.18-1.95,11.1-6.44,3.31-5.09,2.91-8.68-.05-13.6-2.73-4.53-5.17-7.93-11.11-5.9Z"/>
        <path class="cls-1" d="M75.88,72.18c-7.51,2.47-11.8-1.06-14.26-7.63-2.07-5.52-5.74-7.99-11.7-6.75-7.3,1.52-11.15-1.83-14.87-8.2-3.83-6.57-3.85-11.2-.02-17.74,3.67-6.29,7.41-9.84,14.81-8.3,5.84,1.21,9.04-1.38,11.88-6.57,5.65-10.29,2.41-7.43,13.97-8.38,7.56-.62,11.43,2.17,15.2,8.54,3.67,6.21,4.59,11.14-.2,16.64-4,4.59-4.1,9.17-.03,13.73,5.08,5.68,3.87,10.74.05,16.92-3.73,6.05-7.2,10.39-14.83,7.74ZM50.04,27.73c-5.73-1.68-8.58,1.02-11.51,5.86-3.21,5.3-3.07,9.01.04,14.28,2.84,4.81,5.78,6.25,11.18,6.33,5.65.08,8.5-1.81,11.36-6.57,3.1-5.15,3.14-8.88-.07-13.94-2.81-4.43-5.17-7.96-11-5.96ZM75.87,38.31c5.96,2.02,8.63-1.36,11.54-6.09,3.02-4.91,2.93-8.37-.04-13.31-2.89-4.8-5.82-6.5-11.4-6.5-5.58,0-8.51,1.72-11.4,6.49-3.02,4.97-3.06,8.5.01,13.37,2.83,4.5,5.21,8.21,11.29,6.05ZM76.15,43.09c-6.13-2.19-9.48.95-11.54,6.36-.04.1-.1.21-.17.29-3.57,4.11-2.78,7.77-.11,12.38,2.89,4.99,5.9,7.01,11.88,6.91,5.53-.09,8.18-1.95,11.1-6.44,3.31-5.09,2.91-8.68-.05-13.6-2.73-4.53-5.17-7.93-11.11-5.9Z"/>
      </g>
      <g>
        <path class="cls-1" d="M76.21,169.89c-7.51,2.47-11.8-1.06-14.26-7.63-2.07-5.52-5.74-7.99-11.7-6.75-7.3,1.52-11.15-1.83-14.87-8.2-3.83-6.57-3.85-11.2-.02-17.74,3.67-6.29,7.41-9.84,14.81-8.3,5.84,1.21,9.04-1.38,11.88-6.57,5.65-10.29,2.41-7.43,13.97-8.38,7.56-.62,11.43,2.17,15.2,8.54,3.67,6.21,4.59,11.14-.2,16.64-4,4.59-4.1,9.17-.03,13.73,5.08,5.68,3.87,10.74.05,16.92-3.73,6.05-7.2,10.39-14.83,7.74ZM50.37,125.44c-5.73-1.68-8.58,1.02-11.51,5.86-3.21,5.3-3.07,9.01.04,14.28,2.84,4.81,5.78,6.25,11.18,6.33,5.65.08,8.5-1.81,11.36-6.57,3.1-5.15,3.14-8.88-.07-13.94-2.81-4.43-5.17-7.96-11-5.96ZM76.2,136.02c5.96,2.02,8.63-1.36,11.54-6.09,3.02-4.91,2.93-8.37-.04-13.31-2.89-4.8-5.82-6.5-11.4-6.5-5.58,0-8.51,1.72-11.4,6.49-3.02,4.97-3.06,8.5.01,13.37,2.83,4.5,5.21,8.21,11.29,6.05ZM76.49,140.8c-6.13-2.19-9.48.95-11.54,6.36-.04.1-.1.21-.17.29-3.57,4.11-2.78,7.77-.11,12.38,2.89,4.99,5.9,7.01,11.88,6.91,5.53-.09,8.18-1.95,11.1-6.44,3.31-5.09,2.91-8.68-.05-13.6-2.73-4.53-5.17-7.93-11.11-5.9Z"/>
        <path class="cls-1" d="M130.5,169.89c-7.51,2.47-11.8-1.06-14.26-7.63-2.07-5.52-5.74-7.99-11.7-6.75-7.3,1.52-11.15-1.83-14.87-8.2-3.83-6.57-3.85-11.2-.02-17.74,3.67-6.29,7.41-9.84,14.81-8.3,5.84,1.21,9.04-1.38,11.88-6.57,5.65-10.29,2.41-7.43,13.97-8.38,7.56-.62,11.43,2.17,15.2,8.54,3.67,6.21,4.59,11.14-.2,16.64-4,4.59-4.1,9.17-.03,13.73,5.08,5.68,3.87,10.74.05,16.92-3.73,6.05-7.2,10.39-14.83,7.74ZM104.66,125.44c-5.73-1.68-8.58,1.02-11.51,5.86-3.21,5.3-3.07,9.01.04,14.28,2.84,4.81,5.78,6.25,11.18,6.33,5.65.08,8.5-1.81,11.36-6.57,3.1-5.15,3.14-8.88-.07-13.94-2.81-4.43-5.17-7.96-11-5.96ZM130.49,136.02c5.96,2.02,8.63-1.36,11.54-6.09,3.02-4.91,2.93-8.37-.04-13.31-2.89-4.8-5.82-6.5-11.4-6.5-5.58,0-8.51,1.72-11.4,6.49-3.02,4.97-3.06,8.5.01,13.37,2.83,4.5,5.21,8.21,11.29,6.05ZM130.77,140.8c-6.13-2.19-9.48.95-11.54,6.36-.04.1-.1.21-.17.29-3.57,4.11-2.78,7.77-.11,12.38,2.89,4.99,5.9,7.01,11.88,6.91,5.53-.09,8.18-1.95,11.1-6.44,3.31-5.09,2.91-8.68-.05-13.6-2.73-4.53-5.17-7.93-11.11-5.9Z"/>
        <path class="cls-1" d="M102.27,122.12c-7.51,2.47-11.8-1.06-14.26-7.63-2.07-5.52-5.74-7.99-11.7-6.75-7.3,1.52-11.15-1.83-14.87-8.2-3.83-6.57-3.85-11.2-.02-17.74,3.67-6.29,7.41-9.84,14.81-8.3,5.84,1.21,9.04-1.38,11.88-6.57,5.65-10.29,2.41-7.43,13.97-8.38,7.56-.62,11.43,2.17,15.2,8.54,3.67,6.21,4.59,11.14-.2,16.64-4,4.59-4.1,9.17-.03,13.73,5.08,5.68,3.87,10.74.05,16.92-3.73,6.05-7.2,10.39-14.83,7.74ZM76.43,77.67c-5.73-1.68-8.58,1.02-11.51,5.86-3.21,5.3-3.07,9.01.04,14.28,2.84,4.81,5.78,6.25,11.18,6.33,5.65.08,8.5-1.81,11.36-6.57,3.1-5.15,3.14-8.88-.07-13.94-2.81-4.43-5.17-7.96-11-5.96ZM102.26,88.25c5.96,2.02,8.63-1.36,11.54-6.09,3.02-4.91,2.93-8.37-.04-13.31-2.89-4.8-5.82-6.5-11.4-6.5-5.58,0-8.51,1.72-11.4,6.49-3.02,4.97-3.06,8.5.01,13.37,2.83,4.5,5.21,8.21,11.29,6.05ZM102.54,93.02c-6.13-2.19-9.48.95-11.54,6.36-.04.1-.1.21-.17.29-3.57,4.11-2.78,7.77-.11,12.38,2.89,4.99,5.9,7.01,11.88,6.91,5.53-.09,8.18-1.95,11.1-6.44,3.31-5.09,2.91-8.68-.05-13.6-2.73-4.53-5.17-7.93-11.11-5.9Z"/>
      </g>
      <path class="cls-1" d="M100.62,152.85c-7.51,2.47-11.8-1.06-14.26-7.63-2.07-5.52-5.74-7.99-11.7-6.75-7.3,1.52-11.15-1.83-14.87-8.2-3.83-6.57-3.85-11.2-.02-17.74,3.67-6.29,7.41-9.84,14.81-8.3,5.84,1.21,9.04-1.38,11.88-6.57,5.65-10.29,2.41-7.43,13.97-8.38,7.56-.62,11.43,2.17,15.2,8.54,3.67,6.21,4.59,11.14-.2,16.64-4,4.59-4.1,9.17-.03,13.73,5.08,5.68,3.87,10.74.05,16.92-3.73,6.05-7.2,10.39-14.83,7.74ZM74.78,108.4c-5.73-1.68-8.58,1.02-11.51,5.86-3.21,5.3-3.07,9.01.04,14.28,2.84,4.81,5.78,6.25,11.18,6.33,5.65.08,8.5-1.81,11.36-6.57,3.1-5.15,3.14-8.88-.07-13.94-2.81-4.43-5.17-7.96-11-5.96ZM100.61,118.98c5.96,2.02,8.63-1.36,11.54-6.09,3.02-4.91,2.93-8.37-.04-13.31-2.89-4.8-5.82-6.5-11.4-6.5-5.58,0-8.51,1.72-11.4,6.49-3.02,4.97-3.06,8.5.01,13.37,2.83,4.5,5.21,8.21,11.29,6.05ZM100.89,123.76c-6.13-2.19-9.48.95-11.54,6.36-.04.1-.1.21-.17.29-3.57,4.11-2.78,7.77-.11,12.38,2.89,4.99,5.9,7.01,11.88,6.91,5.53-.09,8.18-1.95,11.1-6.44,3.31-5.09,2.91-8.68-.05-13.6-2.73-4.53-5.17-7.93-11.11-5.9Z"/>
      <path class="cls-1" d="M100.62,152.85c-7.51,2.47-11.8-1.06-14.26-7.63-2.07-5.52-5.74-7.99-11.7-6.75-7.3,1.52-11.15-1.83-14.87-8.2-3.83-6.57-3.85-11.2-.02-17.74,3.67-6.29,7.41-9.84,14.81-8.3,5.84,1.21,9.04-1.38,11.88-6.57,5.65-10.29,2.41-7.43,13.97-8.38,7.56-.62,11.43,2.17,15.2,8.54,3.67,6.21,4.59,11.14-.2,16.64-4,4.59-4.1,9.17-.03,13.73,5.08,5.68,3.87,10.74.05,16.92-3.73,6.05-7.2,10.39-14.83,7.74ZM74.78,108.4c-5.73-1.68-8.58,1.02-11.51,5.86-3.21,5.3-3.07,9.01.04,14.28,2.84,4.81,5.78,6.25,11.18,6.33,5.65.08,8.5-1.81,11.36-6.57,3.1-5.15,3.14-8.88-.07-13.94-2.81-4.43-5.17-7.96-11-5.96ZM100.61,118.98c5.96,2.02,8.63-1.36,11.54-6.09,3.02-4.91,2.93-8.37-.04-13.31-2.89-4.8-5.82-6.5-11.4-6.5-5.58,0-8.51,1.72-11.4,6.49-3.02,4.97-3.06,8.5.01,13.37,2.83,4.5,5.21,8.21,11.29,6.05ZM100.89,123.76c-6.13-2.19-9.48.95-11.54,6.36-.04.1-.1.21-.17.29-3.57,4.11-2.78,7.77-.11,12.38,2.89,4.99,5.9,7.01,11.88,6.91,5.53-.09,8.18-1.95,11.1-6.44,3.31-5.09,2.91-8.68-.05-13.6-2.73-4.53-5.17-7.93-11.11-5.9Z"/>
      <path class="cls-1" d="M158.14,126.83c-7.51,2.47-11.8-1.06-14.26-7.63-2.07-5.52-5.74-7.99-11.7-6.75-7.3,1.52-11.15-1.83-14.87-8.2-3.83-6.57-3.85-11.2-.02-17.74,3.67-6.29,7.41-9.84,14.81-8.3,5.84,1.21,9.04-1.38,11.88-6.57,5.65-10.29,2.41-7.43,13.97-8.38,7.56-.62,11.43,2.17,15.2,8.54,3.67,6.21,4.59,11.14-.2,16.64-4,4.59-4.1,9.17-.03,13.73,5.08,5.68,3.87,10.74.05,16.92-3.73,6.05-7.2,10.39-14.83,7.74ZM132.3,82.38c-5.73-1.68-8.58,1.02-11.51,5.86-3.21,5.3-3.07,9.01.04,14.28,2.84,4.81,5.78,6.25,11.18,6.33,5.65.08,8.5-1.81,11.36-6.57,3.1-5.15,3.14-8.88-.07-13.94-2.81-4.43-5.17-7.96-11-5.96ZM158.13,92.96c5.96,2.02,8.63-1.36,11.54-6.09,3.02-4.91,2.93-8.37-.04-13.31-2.89-4.8-5.82-6.5-11.4-6.5-5.58,0-8.51,1.72-11.4,6.49-3.02,4.97-3.06,8.5.01,13.37,2.83,4.5,5.21,8.21,11.29,6.05ZM158.41,97.74c-6.13-2.19-9.48.95-11.54,6.36-.04.1-.1.21-.17.29-3.57,4.11-2.78,7.77-.11,12.38,2.89,4.99,5.9,7.01,11.88,6.91,5.53-.09,8.18-1.95,11.1-6.44,3.31-5.09,2.91-8.68-.05-13.6-2.73-4.53-5.17-7.93-11.11-5.9Z"/>
    </g>
  </g>
</svg>