<?xml version="1.0" encoding="UTF-8"?>
<svg id="Layer_2" data-name="Layer 2" xmlns="http://www.w3.org/2000/svg" viewBox="0 0 185 185">
  <defs>
    <style>
      .cls-1 {
        fill: #93c035;
      }

      .cls-2 {
        fill: #c4d339;
      }

      .cls-3 {
        fill: none;
      }

      .cls-4 {
        fill: #efebcc;
      }

      .cls-5 {
        fill: #eee6ae;
      }
    </style>
  </defs>
  <g id="borxes">
    <rect class="cls-3" width="185" height="185"/>
  </g>
  <g id="flavours">
    <g>
      <path class="cls-1" d="M90.94,160.58c-37.25.95-69.02-31.63-69.34-68.34-.35-39.17,32.27-70.82,70.26-70.56,36.82.25,68.59,31.72,68.83,68.86.25,38.22-31.47,70.86-69.75,70.03ZM152.42,113.9l.44-.67c.07-.18.11-.37.11-.56.85-.84,1.28-1.82,1.07-3.03-.2-2.09,1.79-3.67,1.34-5.82.74-1.53.99-3.15.95-4.83.48-4.75.39-9.51.1-14.27.15-1.25.34-2.51-.79-3.47.06-.19.03-.36-.09-.51.5-.9.71-1.78-.19-2.58h0c-.47-2.89-.97-5.77-2.35-8.39-.15-.42-.3-.83-.45-1.25-.08-.62-.12-1.25-.71-1.64-.03-1.14-.33-2.18-1.12-3.04-.06-.85-.53-1.44-1.2-1.9.04-.15.01-.29-.07-.42-.1-.95-.36-1.82-1.23-2.36h0c0-.86-.42-1.47-1.11-1.91-8.2-13.35-19.42-22.95-34.45-27.85-2.63-1.4-5.45-2.11-8.4-2.33h0c-1.46-.96-3.11-.99-4.77-1.02-4.74-.39-9.49-.44-14.24-.11-2.3-.18-4.5.21-6.63,1.07-.57.06-1.14.12-1.71.19-.49-.12-.93-.07-1.21.42h.02c-.68-.03-1.35,0-1.83.59-.18-.03-.35-.02-.51.05-1.36-.11-2.61.09-3.6,1.14h-.02c-5.57,1.11-10.18,4.2-14.87,7.13-.19.19-.38.38-.57.57-1.08.22-1.83.91-2.44,1.78-6.21,4.31-11.08,9.92-15.31,16.09-4.82,7.02-8.06,14.74-9.58,23.15-1.07,3.1-1.26,6.31-1.18,9.55-.48,7.05.35,13.93,2.16,20.79,3.22,12.17,9.54,22.37,18.63,30.95.37.74.94,1.2,1.79,1.25.17.11.35.19.55.23.47,1.48,1.75,2.06,2.98,2.68h.02c.19.53.65.67,1.13.78.67.7,1.23,1.55,2.32,1.65.41.25.83.5,1.24.75,0,.13.05.24.14.33,2.93,2.03,6.06,3.66,9.46,4.78l.24.08h.25c2.14.97,4.13,2.4,6.64,2.3,1.12.38,2.21.89,3.36,1.11,20.35,3.8,39.03.25,55.39-12.92,5.2-4.19,10.24-8.64,13.24-14.85h-.05c.19-.01.37-.06.54-.16,2.16-2.63,3.71-5.6,4.89-8.77.18-.38.37-.75.55-1.13.13-.24.26-.47.38-.71.08-.34.17-.69.25-1.03.56-.52.67-1.18.58-1.9l-.03.02Z"/>
      <path class="cls-4" d="M156.43,84.72c.29,4.76.37,9.52-.1,14.27-1.72,1.33-.81,3.18-.95,4.83.45,2.15-1.54,3.73-1.34,5.82-3.83-.22-.93,1.95-1.07,3.03,0,.19-.03.38-.1.56-.15.22-.29.45-.44.67,0,0,.03-.02.03-.02-.88.42-.68,1.18-.58,1.9-.08.34-.17.69-.25,1.03-.13.24-.26.47-.38.71-.18.38-.37.75-.55,1.13-.92.04-2.27-.49-2.38.95-.16,2.06-1.81,2.84-3.05,3.84-2.07,1.66-2.18,2.3.05,4.14-3,6.21-8.04,10.66-13.24,14.85-16.35,13.17-35.04,16.73-55.39,12.92-1.15-.21-2.24-.73-3.36-1.11-1.23-1.47-1.91-3.43-3.69-4.43-.82-.46-1.33.14-1.55.83-.24.75-.65,1.18-1.41,1.29h-.25s-.24-.07-.24-.07c-.04-1.37.36-2.44-1.96-2.93-1.69-.36-5.07-.69-4.77-4.19.03-.36-.5-.57-.93-.43-.43.14-.6.49-.6.91,0,.88.58,2.12-1.19,1.87-.09-.09-.14-.2-.14-.33-.12-.74-.64-.81-1.24-.75-1.09-.11-1.65-.96-2.32-1.65-.09-.68-.57-.79-1.13-.78,0,0-.02,0-.02,0,.51-.88,2.63-1.32,1.41-2.55-.93-.93-1.86-2.59-3.73-2.24h-.01c-.09-.72.13-1.81-1.02-1.58-1.15.23-.61,1.39-.75,2.17,0,0,0,0,0,0-.4.01-.81.02-1.21.03-9.09-8.58-15.41-18.78-18.63-30.95-1.82-6.86-2.64-13.73-2.16-20.79,1.44-.18,1.2-1.3,1.2-2.24,0-2.44-.01-4.87-.02-7.31,1.52-8.41,4.76-16.13,9.58-23.15,4.23-6.16,9.1-11.78,15.31-16.09,1.53.05,2.76,1.86,4.83.77-.98-.89-2.77-.85-2.39-2.55.19-.19.38-.38.57-.57,2.16.41,4.31-.84,6.27.13.62-1.07-.88-1.27-.46-2.01.43-.76,1.23-.48,1.84-.21,1.1.49,1.88.21,2.51-.78.45-.71,1.26-1.31,1.96-1.12,3.24.88,2.8-1.27,2.75-3.15,0,0,.02,0,.02,0,.64.13,1.47-.05,1.69.82.23.9.47,1.88,1.66,1.45,1.36-.49.03-1.5.23-2.25.1-.36.02-.78.01-1.17.17-.07.34-.08.52-.05.7.06,1.42.19,1.83-.61,0,0-.02.01-.02.01.47.05.9-.01,1.21-.42.57-.06,1.14-.12,1.71-.19,2.43-.41,4.32,1.17,6.38,1.83.09-1.02.17-1.96.25-2.91,4.75-.33,9.49-.28,14.24.11,1.24,1.97,3.19.64,4.77,1.02h0c.17,1.69,1.16,3.63,2.63,3.01,2-.84,3.89-.27,5.77-.68,15.03,4.9,26.25,14.5,34.45,27.85-.1.91-.18,1.81,1.11,1.9,0,0,0,.01,0,.01.07.96-.4,2.21,1.24,2.36.09.13.11.27.07.42-.15.98-.24,1.93,1.2,1.9.79.86,1.09,1.9,1.12,3.04-.99.25-2.18.21-2.73,1.22-.3.55.4,1,.84,1.35,1.32,1.02,1.78-.46,2.6-.92.15.42.3.83.45,1.25.17,1.24-.91,1.86-1.35,2.8-.82,1.75-.35,3.79.91,4.68,1.18.85.54-1.49,1.35-2,.59,1.02-.46,2.69,1.45,2.89,0,0,0,.01,0,.01-.71.36-1.42.72-2.17,1.1.55,1.06,1.93.51,2.37,1.48.13.15.16.32.09.51-1.3-.27-2.08.11-2.19,1.58-.1,1.44-.39,2.87-.47,4.31-.04.7-.46,1.9.62,1.96,1.21.07,1.24-1.2,1.06-2.01-.36-1.6-.1-2.53,1.77-2.37ZM75.73,132.86c-2.2,1.92-3.54,10.72-1.97,13.05.21.32.51.63.84.82,9.17,5.37,18.92,4.57,28.76,2.64.9-.18.8-.99.85-1.67,3.22-2.12,5.3-4.87,4.03-8.89-1.39-4.39-2.96-8.74-4.69-13.01-2.84-7-5.88-13.93-8.84-20.88.87-2.59-1.37-3.03-2.82-3.84-1.49-.83-2.79-.16-3.91,1.03-2.06,2.17-3.15,4.64-2.7,7.67-.08.62-.01,1.28-.56,1.75-1.24-.07-2.53-.58-1.61-1.9,1.36-1.97.71-3.98.85-5.99,0-.18.03-.35.13-.5,1.64-1.24,1.85-2.43-.11-3.55-.09-.1-.11-.21-.08-.34-.03-.69-.5-.84-1.07-.86,0,0,0,0,0,0-1.19-2.25-3.17-1.4-4.5-.67-1.94,1.08-4.22.26-6.11,1.67-.9.67-1.22-.81-1.32-1.69,1.75-.83,3.49-1.69,5.27-2.47,1.74-.77,3.57-1.52,3.73-3.71.16-2.17-1.53-3.21-3.11-4.22-.02-1.92,1.22-1.98,2.71-2.05,1.15-.05,2.84.93,3.33-1.17.47-.77.94-1.54,1.4-2.31,1.62-.6,1.14-2.07.9-3.02-.39-1.56-1.28-2.99-1.97-4.47-.4-.85-.57-1.79.06-2.5.77-.87,1.23.73,2.01.45.08.14.11.3.09.46-.09,6.22,1.7,8.11,7.17,7.91,1.89-.07,2.47-.8,2.21-2.52.18-.66.27-1.36.54-1.98,4.22-9.67,8.5-19.3,12.02-29.26,2.5-7.06,1.42-9.89-5.38-12.73-1.31-1.53-2.94-2.42-4.98-2.27-6.32.47-12.68-1.02-18.96,2.14-4.34,2.19-6.47,4.56-4.8,9.09.2.53.24,1.17.2,1.74-.12,1.8.62,3.01,2.29,3.66.05.37.1.74.15,1.11-.2,1.08.29,2.3-.6,3.55-1.95-3.51-3.73-6.79-5.6-10.02-.6-1.03-1.44-1.92-2.84-1.76-1.6.18-2.87-.35-3.92-1.57-.73-.85-1.99-1.32-2.3-.03-.41,1.71-1.84,1.87-2.8,2.25-4.46,1.74-7.23,5.42-10.48,8.55-3.29,3.18-5.38,7.08-6.89,11.37-.97,2.76.63,6.33,3.27,6.75,1.39.48,2.6,1.25,3.62,2.31.45,1.95,2.2,2,3.64,2.45.83.26,1.17.73.97,1.51-.25.97-.94.85-1.62.5-2.23-1.14-4.81-1.31-6.95-2.82-1.56-1.1-4.66.17-5.61,1.92-.98,1.21-1.96,2.42-2.94,3.63-3.03.44-2.81,3.73-2.71,4.94.61,7.68-3.07,16.03,3.12,22.92.06.07.06.18.1.27.72,1.8,4.89,4.27,6.54,3.74,4.82-1.54,9.63-3.16,14.43-4.78.6-.2.98-1.25,1.74-.74.91.61-.19,1.42-.03,2.15h-.01c-2.5-.38-4.49.95-6.52,2.04-1.46.78-3.62.59-4.12,2.79-.35.33-.66.74-1.07.97-4.43,2.54-5.49,4.98-3.68,9.8,2.04,5.42,6.26,9.24,10.41,13.03,2.5,2.28,5.31,4.13,8.63,5.01,2.67.71,5.24.51,6.98-1.84,1.81-2.44,3.55-4.99,4.32-8.03,2.62-1.19,2.98-3.46,2.87-5.96-.01-.2.02-.39.09-.58,1.37.06,2.28-.04,1.58,2.11-.71,2.17-2.16,4.3-1.64,6.81h0ZM99.49,98.43c-1.67,1.72-1.57,3.66-.75,5.72,2.61,6.56,4.98,13.22,7.85,19.67,2.45,5.52,4.31,11.39,8.35,16.1.04.41-1.44.7.09,1.28,2.74,1.02,5.29,1.14,8.01-.05,3.42-1.5,6.75-3.03,9.18-6.03.59-.73.41-1.78,1.58-2.33,2.97-1.38,4.77-3.91,6.05-6.89.65-1.52.97-3.18,2.89-4.07,1.18-.55,1.25-2.43-.23-3.06-1.33-.57-1.57-1.35-1.47-2.48.16-1.83-.84-2.77-2.25-3.76-2.94-2.07-6.29-3.41-9.46-5.29,1.05-.86,2.12-.37,3.03-.7.51.09,1.02.19,1.53.28.16.98,1.05,1.89,1.62,1.9,2.55.04,4.73,1.67,7.26,1.52,1.89-.12,3.11-1.01,2.9-3.14.18-.16.36-.31.54-.47.65-.13.76-.6.74-1.17.09-.48.11-1,.3-1.44,3.31-7.63,2.9-15.45.87-23.21-1.73-6.62-5.34-8.22-11.88-5.9-10.61,3.75-20.88,8.32-31.21,12.76-1.63.7-2.58,1.97-2.61,3.61-.03,1.69,1,2.89,2.64,3.57,1.73.72,3.4,1.57,5.09,2.36-.3.79,1.34,1.2.46,2.01-.65.6-1.46.34-2.22,0-1.43-.63-2.84-1.47-4.34-1.71-1.52-.24-3.48-1.46-4.56.92ZM101.79,84.2c1-.01,1.92-.23,2.86-.62,3.44-1.45,6.95-2.77,10.4-4.19,7.1-2.92,14.31-5.6,21.02-9.37,4.79-2.7,5.96-6.74,3.15-11.4-3.92-6.51-9.15-11.86-15.84-15.58-4.66-2.59-8.29-1.55-10.91,3.14-2.01,3.6-3.72,7.38-5.34,11.18-2.97,6.97-5.83,13.99-8.61,21.03-1.4,3.56,0,5.85,3.27,5.82ZM150.38,117.01c.25-1.24.53-2.47.72-3.72.08-.51-.15-1.01-.73-1.1-.59-.09-.8.35-1.03.83-.7,1.49-.13,2.75,1.04,3.99ZM153.07,96.02c.11.61.57,1.07,1.33,1.06.54,0,.87-.37.79-.95-.1-.77-.6-1.21-1.34-1.21-.54,0-.85.36-.78,1.09ZM29.27,82.77c.02-.7-.25-1.24-.9-1.35-.62-.1-.79.44-.78.95,0,.55-.17,1.29.59,1.43.73.14.95-.48,1.09-1.04ZM56.49,145.1c-.22-1.02-.08-1.99-1.04-2.57-.36-.22-.91-.04-.87.42.09.97.36,1.93,1.91,2.15ZM30.95,73.03c-1.28,1.1-2.42,1.45-1.73,3.57.76-1.14,1.69-1.63,1.73-3.57ZM153.42,103.98c-.52.12-.88.39-.87.94.01.54.36.88.88.9.48.02.6-.4.63-.78.03-.48-.03-.96-.64-1.07ZM146.75,59.85c-.43.03-.81.25-.7.67.08.3.44.67.75.75.42.12.69-.25.67-.68-.02-.42-.3-.67-.72-.74ZM28.9,78.89c-.46.07-.63.39-.63.8,0,.48.34.73.73.57.29-.12.6-.49.65-.8.09-.5-.36-.56-.76-.57Z"/>
      <path class="cls-5" d="M69.71,29.41c.05,1.88.49,4.03-2.75,3.15-.7-.19-1.51.41-1.96,1.12-.63.99-1.41,1.27-2.51.78-.61-.27-1.41-.55-1.84.21-.42.73,1.09.94.46,2.01-1.96-.97-4.11.28-6.27-.13,4.69-2.93,9.3-6.03,14.87-7.14Z"/>
      <path class="cls-5" d="M145.3,127.57c-2.23-1.83-2.13-2.47-.05-4.14,1.24-1,2.89-1.78,3.05-3.84.11-1.44,1.46-.91,2.38-.95-1.19,3.17-2.73,6.14-4.89,8.77-.12-.69.36-1.54-.72-2.15.07.86.13,1.58.19,2.29h.05Z"/>
      <path class="cls-5" d="M56.73,147.08c1.78.25,1.19-.99,1.19-1.87,0-.41.17-.77.6-.91.44-.14.97.08.93.43-.3,3.51,3.08,3.83,4.77,4.19,2.32.49,1.92,1.57,1.96,2.93-3.39-1.11-6.53-2.74-9.46-4.78Z"/>
      <path class="cls-5" d="M66.67,151.93c.76-.11,1.17-.54,1.41-1.29.22-.69.72-1.3,1.55-.83,1.77,1,2.45,2.95,3.69,4.43-2.52.1-4.5-1.32-6.64-2.3Z"/>
      <path class="cls-5" d="M49.56,138.78c1.87-.36,2.8,1.3,3.73,2.24,1.22,1.23-.9,1.67-1.41,2.55-1.24-.63-2.52-1.2-2.99-2.68.22-.7.45-1.4.67-2.1Z"/>
      <path class="cls-5" d="M112.62,29.4c-1.88.41-3.77-.16-5.77.68-1.47.62-2.47-1.32-2.63-3.01,2.96.22,5.77.93,8.4,2.33Z"/>
      <path class="cls-5" d="M85.21,25.95c-.08.95-.16,1.89-.25,2.91-2.07-.66-3.95-2.24-6.38-1.83,2.13-.86,4.33-1.26,6.63-1.08Z"/>
      <path class="cls-5" d="M26.94,78.12c0,2.44.03,4.87.02,7.31,0,.94.25,2.05-1.2,2.24-.08-3.24.11-6.45,1.18-9.55Z"/>
      <path class="cls-5" d="M73.32,28.27c0,.39.08.8-.01,1.17-.2.76,1.13,1.76-.23,2.25-1.19.43-1.43-.55-1.66-1.45-.23-.88-1.05-.69-1.69-.82.99-1.05,2.24-1.25,3.6-1.14Z"/>
      <path class="cls-5" d="M54.27,37.11c-.38,1.71,1.42,1.67,2.39,2.55-2.07,1.08-3.3-.72-4.83-.77.61-.88,1.35-1.56,2.44-1.78Z"/>
      <path class="cls-5" d="M104.21,27.07c-1.58-.38-3.53.95-4.77-1.02,1.65.04,3.31.06,4.77,1.02Z"/>
      <path class="cls-4" d="M49.56,138.78c-.22.7-.45,1.4-.67,2.1-.2-.03-.38-.11-.55-.23-.19-.43-.38-.86-.58-1.28,0,0,0,0,0,0,.59-.2,1.18-.4,1.77-.59h.01Z"/>
      <path class="cls-5" d="M47.77,139.37c.19.43.39.85.58,1.28-.85-.05-1.42-.51-1.79-1.25.4-.01.81-.02,1.21-.03Z"/>
      <path class="cls-5" d="M75.67,27.62c-.42.79-1.14.66-1.83.61.48-.6,1.15-.63,1.83-.61Z"/>
      <path class="cls-5" d="M76.86,27.21c-.31.41-.74.47-1.21.42.28-.49.72-.54,1.21-.42Z"/>
      <path class="cls-5" d="M51.89,143.57c.57-.02,1.05.09,1.13.78-.48-.11-.94-.25-1.13-.78Z"/>
      <path class="cls-5" d="M55.34,146c.6-.06,1.12,0,1.24.75-.41-.25-.83-.5-1.24-.75Z"/>
      <path class="cls-2" d="M101.79,84.21c-3.28.03-4.68-2.26-3.27-5.82,2.78-7.05,5.64-14.06,8.61-21.03,1.62-3.8,3.33-7.58,5.34-11.18,2.62-4.68,6.25-5.72,10.91-3.14,6.69,3.71,11.92,9.07,15.84,15.58,2.81,4.67,1.64,8.71-3.15,11.4-6.7,3.77-13.92,6.45-21.02,9.37-3.46,1.42-6.96,2.74-10.4,4.19-.94.4-1.86.61-2.86.63Z"/>
      <path class="cls-2" d="M133.9,106.81c-.51-.09-1.02-.19-1.53-.28-7.27-3.45-14.7-6.49-22.22-9.34-1.69-.79-3.36-1.64-5.09-2.36-1.64-.68-2.67-1.87-2.64-3.57.03-1.65.98-2.91,2.61-3.61,10.33-4.44,20.6-9.01,31.21-12.76,6.54-2.31,10.15-.71,11.88,5.9,2.03,7.76,2.44,15.59-.87,23.21-.19.44-.2.96-.3,1.44-.24.39-.49.78-.74,1.17-.18.16-.36.31-.54.47-2.79,1.72-5.7,1.78-8.73.7-1-.36-1.89-1.09-3.05-.98Z"/>
      <path class="cls-2" d="M114.95,139.92c-4.05-4.71-5.9-10.58-8.35-16.1-2.86-6.45-5.24-13.11-7.85-19.67-.82-2.07-.92-4,.75-5.72,2.11-.29,4.11.09,6.07.93,3.08,1.32,6.19,2.55,9.29,3.83,7.2,2.97,14.54,5.64,21.38,9.41,4.24,2.34,5.27,5.09,3.56,9.61-.42,1.1-.97,2.18-1.61,3.16-2.23,3.41-4.91,6.47-8.01,9.07-4.35,3.66-8.66,7.8-15.22,5.47Z"/>
      <path class="cls-2" d="M72.82,130.48c-.77,3.03-2.51,5.59-4.32,8.03-1.74,2.34-4.32,2.55-6.98,1.84-3.33-.89-6.14-2.73-8.63-5.01-4.15-3.79-8.37-7.61-10.41-13.03-1.81-4.83-.75-7.27,3.68-9.8.41-.23.71-.65,1.07-.97,3.81-1.04,7.3-2.77,10.65-4.82,0,0,.01,0,.01,0,4.12-.66,7.57-3.11,11.51-4.27,4.48-1.32,8.46-4.32,13.43-4.04,0,0,0,0,0,0,.36.29.71.57,1.07.86-.03.13,0,.24.08.33.04,1.18.08,2.37.11,3.55-.09.15-.13.32-.13.5-3.19,6.58-5.59,13.48-8.17,20.31-.07.19-.1.38-.09.58-1.32,1.81-2.36,3.76-2.87,5.96Z"/>
      <path class="cls-2" d="M85.28,72.69c.02-.16-.01-.32-.09-.46-2.45-6.08-4.85-12.17-7.37-18.22-.62-1.5-.56-3.35-2.09-4.42-.05-.37-.1-.74-.15-1.11.1-.95-.51-1.67-.78-2.5-1.81-5.57-1.34-9.5,5.5-11.54,2.76-.82,5.47-1.4,8.37-1.46,4.45-.1,8.82.27,13.16,1.14,6.8,2.84,7.88,5.66,5.38,12.73-3.52,9.96-7.81,19.59-12.02,29.26-.27.62-.36,1.32-.54,1.98-4.86,2.77-5.25,2.6-7.73-2.78-.42-.92-.43-2.17-1.65-2.61Z"/>
      <path class="cls-2" d="M94.71,104.91c2.96,6.96,6,13.88,8.84,20.88,1.73,4.27,3.3,8.62,4.69,13.01,1.27,4.02-.81,6.77-4.03,8.89-7.62,1.86-15.26,2.73-23,.64-5.12-1.38-9.14-4.23-6.49-10.91.57-1.43,1.13-2.95,1.01-4.57,0,0,0,0,0,0,.32-.36.78-.66.95-1.08,2.7-6.74,5.37-13.5,8.04-20.25.54-.47.48-1.13.56-1.75,1.06-.83,1.36-2.08,1.84-3.24,1.92-4.67,4.11-5.13,7.59-1.63Z"/>
      <path class="cls-2" d="M84.2,81.76c-.47.77-.94,1.54-1.4,2.31-1.6.22-3.13.03-4.64-.58-5.04-2-10.07-4.04-15.15-5.93-5.35-1.99-10.31-4.93-15.8-6.59-1.03-1.05-2.23-1.82-3.62-2.31-2.56-3.58-2.14-7.11.06-10.69,3.63-5.92,8.41-10.74,14.31-14.31,5.63-3.4,9.41-2.2,12.39,3.56,4.42,8.51,7.73,17.51,11.3,26.39,1.06,2.63,2.5,5.18,2.56,8.14Z"/>
      <path class="cls-2" d="M76.76,87.29c1.58,1.01,3.27,2.06,3.11,4.22-.16,2.19-1.99,2.94-3.73,3.71-1.77.78-3.51,1.64-5.27,2.47-7.03,2.79-14.06,5.59-21.1,8.36-1.56.61-3.13,1.21-4.74,1.66-6.35,1.75-9.36-.04-11.01-6.49-1.98-7.74-1.39-15.41.66-23.04.98-1.21,1.96-2.42,2.94-3.63,1.83-.39,3.69-1.02,5.54-.38,4.56,1.58,9.12,3.16,13.61,4.93,6.69,2.64,13.31,5.45,19.97,8.18Z"/>
      <path class="cls-5" d="M114.95,139.92c6.56,2.33,10.87-1.81,15.22-5.47,3.1-2.6,5.79-5.66,8.01-9.07.64-.99,1.19-2.06,1.61-3.16,1.7-4.52.68-7.27-3.56-9.61-6.84-3.77-14.18-6.44-21.38-9.41-3.1-1.28-6.21-2.51-9.29-3.83-1.96-.84-3.96-1.21-6.07-.93,1.08-2.38,3.04-1.16,4.56-.92,1.5.24,2.91,1.08,4.34,1.71.77.34,1.58.59,2.22,0,.88-.81-.75-1.23-.46-2.01,7.52,2.85,14.95,5.89,22.22,9.34-.91.32-1.98-.16-3.03.7,3.17,1.88,6.52,3.21,9.46,5.29,1.41.99,2.41,1.93,2.25,3.76-.1,1.14.14,1.92,1.47,2.48,1.48.63,1.41,2.51.23,3.06-1.92.89-2.24,2.55-2.89,4.07-1.28,2.98-3.08,5.52-6.05,6.89-1.17.54-.99,1.6-1.58,2.33-2.43,3-5.77,4.54-9.18,6.03-2.72,1.19-5.27,1.07-8.01.05-1.54-.57-.05-.87-.09-1.28Z"/>
      <path class="cls-5" d="M84.2,81.76c-.06-2.96-1.5-5.5-2.56-8.14-3.57-8.88-6.88-17.87-11.3-26.39-2.99-5.76-6.77-6.97-12.39-3.56-5.9,3.57-10.68,8.39-14.31,14.31-2.2,3.58-2.61,7.11-.06,10.69-2.64-.42-4.25-3.98-3.27-6.75,1.51-4.29,3.59-8.19,6.89-11.37,3.25-3.14,6.02-6.82,10.48-8.55.96-.37,2.4-.54,2.8-2.25.31-1.29,1.57-.82,2.3.03,1.05,1.22,2.32,1.75,3.92,1.57,1.39-.16,2.24.72,2.84,1.76,1.87,3.23,3.65,6.51,5.6,10.02.89-1.25.4-2.47.6-3.55,1.53,1.08,1.47,2.93,2.09,4.42,2.52,6.05,4.92,12.14,7.37,18.22-.78.28-1.24-1.33-2.01-.45-.62.71-.45,1.65-.06,2.5.69,1.48,1.58,2.91,1.97,4.47.24.95.73,2.42-.9,3.02Z"/>
      <path class="cls-5" d="M34.7,78.18c-2.05,7.63-2.64,15.3-.66,23.04,1.65,6.46,4.66,8.24,11.01,6.49,1.61-.44,3.18-1.04,4.74-1.66,7.04-2.77,14.07-5.57,21.1-8.36.1.88.42,2.36,1.32,1.69,1.89-1.41,4.17-.59,6.11-1.67,1.33-.74,3.32-1.58,4.5.67-4.97-.29-8.94,2.72-13.43,4.04-3.94,1.16-7.39,3.61-11.51,4.27-.16-.73.93-1.54.03-2.15-.76-.51-1.14.54-1.74.74-4.8,1.62-9.6,3.24-14.43,4.78-1.65.53-5.82-1.95-6.54-3.74-.04-.09-.04-.21-.1-.27-6.19-6.89-2.51-15.24-3.12-22.92-.1-1.21-.31-4.5,2.71-4.94Z"/>
      <path class="cls-5" d="M76.76,87.29c-6.65-2.74-13.28-5.54-19.97-8.18-4.49-1.77-9.05-3.35-13.61-4.93-1.85-.64-3.71-.01-5.54.38.96-1.75,4.05-3.02,5.61-1.92,2.14,1.51,4.72,1.67,6.95,2.82.68.35,1.38.47,1.62-.5.2-.79-.13-1.26-.97-1.51-1.44-.44-3.2-.49-3.64-2.45,5.49,1.65,10.44,4.6,15.8,6.59,5.08,1.89,10.11,3.92,15.15,5.93,1.51.6,3.04.8,4.64.58-.48,2.1-2.17,1.12-3.33,1.17-1.49.07-2.73.13-2.71,2.05Z"/>
      <path class="cls-5" d="M84.71,111.52c-2.67,6.75-5.34,13.51-8.04,20.25-.17.42-.63.72-.95,1.08-.53-2.51.93-4.64,1.64-6.81.7-2.14-.21-2.04-1.58-2.11,2.59-6.82,4.99-13.72,8.17-20.31-.14,2,.51,4.02-.85,5.98-.92,1.32.37,1.84,1.61,1.9Z"/>
      <path class="cls-5" d="M101.84,34.12c-4.35-.88-8.72-1.25-13.16-1.14-2.9.07-5.61.64-8.37,1.46-6.83,2.04-7.3,5.97-5.5,11.54.27.83.87,1.55.78,2.5-1.67-.65-2.42-1.86-2.29-3.66.04-.58,0-1.21-.2-1.74-1.67-4.53.46-6.9,4.8-9.09,6.27-3.16,12.63-1.66,18.96-2.14,2.04-.15,3.68.74,4.98,2.27Z"/>
      <path class="cls-5" d="M75.73,132.86c.12,1.62-.44,3.14-1.01,4.57-2.64,6.68,1.37,9.53,6.49,10.91,7.74,2.09,15.38,1.22,23-.64-.05.68.05,1.49-.85,1.67-9.84,1.94-19.59,2.73-28.76-2.64-.33-.19-.62-.5-.84-.82-1.58-2.33-.24-11.13,1.97-13.05Z"/>
      <path class="cls-5" d="M94.71,104.91c-3.48-3.5-5.67-3.04-7.59,1.63-.48,1.16-.79,2.41-1.84,3.24-.44-3.03.65-5.5,2.7-7.67,1.13-1.19,2.43-1.86,3.91-1.03,1.45.81,3.68,1.25,2.82,3.84Z"/>
      <path class="cls-5" d="M85.28,72.69c1.22.44,1.23,1.7,1.65,2.61,2.47,5.38,2.87,5.55,7.73,2.78.26,1.72-.32,2.45-2.21,2.52-5.46.2-7.26-1.69-7.17-7.91Z"/>
      <path class="cls-5" d="M133.9,106.81c1.15-.1,2.04.63,3.05.98,3.03,1.08,5.94,1.02,8.73-.7.21,2.13-1.01,3.02-2.9,3.14-2.53.15-4.71-1.48-7.26-1.52-.57,0-1.46-.92-1.62-1.9Z"/>
      <path class="cls-5" d="M57.87,106.7c-3.34,2.06-6.84,3.79-10.65,4.82.51-2.21,2.66-2.01,4.12-2.79,2.04-1.09,4.02-2.42,6.52-2.03Z"/>
      <path class="cls-5" d="M72.82,130.48c.51-2.2,1.55-4.15,2.87-5.96.11,2.5-.25,4.77-2.87,5.96Z"/>
      <path class="cls-5" d="M29.27,82.77c-.13.56-.36,1.18-1.09,1.04-.76-.15-.58-.88-.59-1.43,0-.51.16-1.05.78-.95.65.1.92.65.9,1.35Z"/>
      <path class="cls-5" d="M56.49,145.1c-1.55-.22-1.82-1.18-1.91-2.15-.04-.46.51-.64.87-.42.96.58.82,1.56,1.04,2.57Z"/>
      <path class="cls-5" d="M84.08,103.13c-.04-1.18-.08-2.37-.11-3.55,1.96,1.12,1.76,2.32.11,3.55Z"/>
      <path class="cls-5" d="M30.95,73.03c-.04,1.95-.98,2.43-1.73,3.57-.69-2.12.45-2.47,1.73-3.57Z"/>
      <path class="cls-5" d="M49.55,138.77c-.59.2-1.18.4-1.77.59.14-.77-.4-1.94.75-2.17,1.16-.23.93.87,1.02,1.57Z"/>
      <path class="cls-5" d="M28.9,78.89c.39.02.85.07.76.57-.06.31-.37.68-.65.8-.39.16-.73-.09-.73-.57,0-.41.17-.73.63-.8Z"/>
      <path class="cls-5" d="M83.88,99.25c-.36-.29-.71-.57-1.07-.86.57.02,1.04.17,1.07.86Z"/>
    </g>
  </g>
</svg>