<?xml version="1.0" encoding="UTF-8"?>
<svg id="Layer_2" data-name="Layer 2" xmlns="http://www.w3.org/2000/svg" viewBox="0 0 185 185">
  <defs>
    <style>
      .cls-1 {
        fill: #eef5fb;
      }

      .cls-2 {
        fill: none;
      }

      .cls-3 {
        fill: #afc9e3;
      }

      .cls-4 {
        fill: #c7d9f0;
      }

      .cls-5 {
        fill: #fdfdfe;
      }

      .cls-6 {
        fill: #e3ecf7;
      }
    </style>
  </defs>
  <g id="borxes">
    <rect class="cls-2" width="185" height="185"/>
    <g>
      <path class="cls-6" d="M69.65,126.84c.67,7.57-11.86,4.25-6.38.5,1.55-1.06,4.51-.36,6.38-.5Z"/>
      <path class="cls-4" d="M100.39,38.85c-2.86-.62-2.04,1.45-2.63,3.15-2.56,7.31-5.25,14.73-6.92,22.3-.94-.13-2.45.29-3.06-.11-.65-.42-5.82-11.68-7.01-13.7-.34-.58-1-4.08-2.63-2.09-.7.86,5.57,17.48,6.36,21.19.73,3.43-.38,5.53,5.3,6.36l-2.12,8.47c3.07.12,4.16-3.35,6.44-4.72,1.13-.68,2.62-.32,3.1-.57-.63,3.7,5.47,3.34,7.42,4.24.2.09,1.02,1.5,2.53,2.2,4.22,1.96,8.17-.13,1.71,5.22-2.31.47-10.18,2.52-10.6,4.24l-7.42-1.06c-.58-6.73-2.3-7.5-8.48-9.54v-7.42c-.49-.54-10.84,2.35-13.01,1.91-1.46-.3-23.97-15.44-24.68-16.74s-.54-1.84.04-3.15c.39-.87,10.41-14.8,11.12-15.46,1.93-1.81,2.54-1.06,4.27-1.54v1.06c-.38.1-1.78,1.37-2.12,1.85l-4.76,10.88c6.31-5.31,10.57-8.68,19.59-7.44l-9.53-5.29c4.17.11,10.58,2.16,14.18,1.8,5-.5,13.73-6.18,19.64-6.18.39-.63.04-1.34.11-1.98l2.13.51c.58.39.76,1.03,1.05,1.61ZM52.16,56.87v1.06c.69-.35.69-.71,0-1.06ZM70.71,68.53c.96-1.06-2.39-6.81-3.89-7.31-.94-.31-8.49,1.72-8.83,2.02-3.08,2.77,6.67,2.01,7.74,2.32,1.96.57,2.52,3.44,4.98,2.96Z"/>
      <path class="cls-6" d="M167.18,33.55c-4.06,2.05-11.26,14.18-13.78,15.42-2.49,1.22-4.93-.57-7.42-.58-.47-1.83-3.69-12.19-4.19-13.1-.75-1.34-2.96-.08-3.3-1.27-1-3.48.61-12.85-.99-17.43,8.2-1.93,9.48-.38,16.48,1.01,2.55.51,5.21-.58,7.88.6,1.42.63,5.7,6.08,6.11,7.65,1.04,3.93-.17,4.9-.79,7.7Z"/>
      <path class="cls-4" d="M109.93,22.95c.14-.01.97,1.03,2.53,1.05,1.16.02,2.33-1.05,2.77-1.05.33,0,.75-.07,1.06,0l-4.24,12.71,16.96-2.11c.49.31,2.81-.33,3.19,0,.2.18-.95,3.43-1.07,5.29-1.83.55-11.63,6.21-11.64,6.89-.02,1.11,4.87.71,2.1,4.77-.37.23-.66.8-1.06,1.06s-1.01-.13-2.12,1.06c-.43.45-.63,1.53-1.06,2.12-.36-.04-.74.07-1.06,0-.39-.09-1.91-.83-2.12-1.06-.25-.27-3.93-5.69-4.03-6.04-.93-3.11.66-6.73-.76-9.84-1.62-3.58-10.11-7.26-10.05-12.74,4.07-.34,6.81-1.72,10.6-2.12Z"/>
      <path class="cls-6" d="M133.25,86.55c.59,4.35,5.64,5.1,6.36,9.54-2.21,1.84-9.98,6.03-10.6,8.48-8.21-2.15-17.01-.61-25.44-1.06-.91-1.02-4.77-1.62-5.3-4.24.15-1.32-.28-3.12,0-4.24.43-1.72,8.29-3.77,10.6-4.24,2.91-.59,7.34-.38,10.6-1.06,2.21-.46,4.43-1.95,5.3-2.12,1.2-.23,2.31-.89,3.18-1.06,1.57-.3,3.7.28,5.3,0ZM125.84,100.33c.54.56,15-6.76,6.67-9.31-2.4-.73-15.84,1.14-18.81,1.94-2.14.58-8.42,5.32-5.34,5.27,6.38-3.89,12.35-3.41,19.59-3.19l-2.11,5.29Z"/>
      <path class="cls-6" d="M52.69,72.77c1.15.75,3.38.28,4.09,2.87.97,3.5-1.41,4.13-1.97,5.61-4.28-.06-6.51,8.5-9.2,9.41-4.3,1.45-15.2-4.34-20.48-3.05-.83-3.19,2.46-1.89,5.34-2.59,1.82-.44,5.05-.97,6.31-2.18,3.02-2.88,2.33-12.52,7.86-12.2,2.7.15,5.71,4.32,8.05,2.13Z"/>
      <path class="cls-6" d="M82.37,84.43c6.18,2.04,7.9,2.81,8.48,9.54.06.68.04,1.44,0,2.12-1.38-.43-2.86-.62-4.24-1.06-.32-.1-.74.1-1.06,0-1.53-.5-2.65-1.83-5.3-2.12-6.38-3.73-17.56-5.9-20.14,3.18-1.31.61-2.44,2.14-4.24,2.12-.95-8.96,6.9-15.7,15.41-15.95,1.42-.04,9.55,1.66,11.09,2.17Z"/>
      <path class="cls-6" d="M99.33,25.07c-.05,5.48,8.43,9.16,10.05,12.74,1.41,3.11-.17,6.73.76,9.84.1.35,3.78,5.78,4.03,6.04-3.12-.49-3.26,3.39-4.24,4.24-.23.2-1.38.54-2.12,1.06-.89.62-1.24.69-2.12,1.06-.24-1.61.34-3.85,0-5.3-.62-2.64-3.16-7.63-4.24-10.6-.5-1.38-.3-3.77-1.06-5.3-.29-.58-.47-1.22-1.05-1.61l-2.13-.51c.41-3.68-.3-7.9,0-11.67.7-.07,1.42.06,2.12,0Z"/>
      <path class="cls-4" d="M80.25,92.91c2.65.29,3.77,1.62,5.3,2.12-5.29,6.31-8.51,9.15-17.34,9.16l-9.16-1.74c-1.43-1.49-2.84-1.03-3.18-4.24,1.8.02,2.93-1.51,4.24-2.12,6.78-3.13,12.57-4.02,20.14-3.18Z"/>
      <path class="cls-4" d="M129.01,104.57c-.42,1.67.29,4.46,0,6.36-6.03,2.62-13.96,2.7-20.14,2.12-.97-2.18-3.99-8.08-5.3-9.54,8.43.45,17.23-1.09,25.44,1.06Z"/>
      <path class="cls-3" d="M151.27,64.29c0,.18,1.32,1.38,1.04,3.5s-3.76,15.92-4.44,16.43c-1.06.79-11.93,1.86-14.62,2.33-1.6.28-3.73-.3-5.3,0,1.87-3.66,6.75-5.39,7.42-9.54.97.19,9.19-1.51,9.93-2.02,1.3-.9,1.06-3.95,1.73-5.4.8-1.74,2.23-3.58,3.18-5.3h1.06Z"/>
      <path class="cls-1" d="M142.79,50.51c.92.18,2.5-.27,3.18,0,3.16,1.24,3.43,4.67,4.24,6.36-5.01-.01-9.39-2.67-14.32-3.17-1.97-.2-7.99-1.19-6.88,2.1,8.33-1.16,15.63,4.67,23.32,6.37.04.42-1.06,1.57-1.06,2.12h-1.06c-4.87-.84-10.88-5.58-15.43-6.3-5.59-.89-12.69.51-18.49-.06v-3.18c.32.07.7-.04,1.06,0,1.16.13,5.96.2,6.3-.12.45-.44-.58-2.92.65-3.13,5.98-1.05,12.51-.46,18.5-.99Z"/>
      <path class="cls-3" d="M165.06,45.21c-1.01.21-1.64,3.08-2.45,3.9-5.27,5.34-9.1,2.34-8.15,13.06-.68-.09-1.5.14-2.12,0-.3-3.22-1.07-3.1-2.12-5.3-.81-1.69-1.08-5.12-4.24-6.36-.1-.67.15-1.53,0-2.12,2.49,0,4.93,1.8,7.42.58,2.52-1.24,9.72-13.37,13.78-15.42-.87,3.93-2.84,7.39-2.12,11.66Z"/>
      <path class="cls-4" d="M52.69,72.77c-2.33,2.18-5.35-1.98-8.05-2.13-5.53-.32-4.84,9.32-7.86,12.2-1.26,1.21-4.5,1.74-6.31,2.18-2.88.7-6.17-.6-5.34,2.59v1.06c-.64-.49-3.55-.02-3.02-2.43.04-.69,4.67-12.24,5.07-12.8.77-1.08,1.99-.51,2.19-.67l6.35,8.48,4.25-13.78c.66-.16.71-1.52,3.16-.65,2.29.81,7.2,4.41,9.56,5.95Z"/>
      <path class="cls-4" d="M137.49,16.59c1.6,4.58-.01,13.95.99,17.43.34,1.19,2.55-.07,3.3,1.27.51.91,3.72,11.27,4.19,13.1.15.59-.1,1.45,0,2.12-.68-.27-2.26.18-3.18,0-1.16-.89-3.06-2.64-4.24-3.18-.37-7.97-1.6-15.66-6.36-22.26-.03-.18-1.06-.68-1.05-1.6.01-1.84,4.35-6.41,6.35-6.88Z"/>
      <path class="cls-3" d="M54.81,81.25c-.86,2.26-1.13,5.44-1.73,7.16-.44,1.26-2.75,7.65-3.15,7.76-9.91-.8-16.8-1.4-24.8-7.5v-1.06c5.28-1.29,16.18,4.5,20.48,3.05,2.69-.91,4.92-9.47,9.2-9.41Z"/>
      <path class="cls-3" d="M86.61,95.03l-2.12,10.6c-.24.22.1,2.45-1.71,3.05-4.79,1.59-8.66-4.08-12.06,2.25.93-5.15-2.29-2.4-5.62-3.4-1.62-.49-4.72-3.68-6.06-5.08l9.16,1.74c8.83,0,12.05-2.85,17.34-9.16.32.1.74-.1,1.06,0Z"/>
      <path class="cls-4" d="M156.57,122.59c-1.44,3.26-4.58,7.39-8.49,7.01-7.78-.74-9.31-2.79-6.35-10.2,3.7.26,6.46.05,9.54-2.12.32-.23.78-.73,1.06-1.06-.38,3.03,1.8,5.01,4.24,6.36Z"/>
      <path class="cls-3" d="M97.21,36.73c-.07.64.28,1.35-.11,1.98-5.91,0-14.64,5.68-19.64,6.18-3.6.36-10.01-1.7-14.18-1.8-.93-.02-2.44-.19-3.18,0v-1.06c11.67-3.27,25.04-2.71,37.1-5.3Z"/>
      <path class="cls-6" d="M129.01,33.55l-16.96,2.11,4.24-12.71c.84.18,9.75,6.3,11.18,7.41s1.39,3.09,1.54,3.19Z"/>
      <path class="cls-6" d="M34.21,110.64c1.16.48,6.73,2.83,6.96,3.14.77,1.01.47,2.99.46,4.28-1.39-.2-2.89-.96-4.24-1.06-4.43-.34-9.49-.39-12.72,3.18h-1.06c-1.83-7.2,1.15-6.38,6.05-8.84.48-.24.23-1.71.31-1.76,1.51-.94,3.24.64,4.24,1.06Z"/>
      <path class="cls-6" d="M34.76,106.61c-3.21-4.73,8.68-13.08,12.12-6.28,3.42,6.77-10.12,9.23-12.12,6.28Z"/>
      <path class="cls-6" d="M54.35,148.8c-1.71-.13-6.91-2.29-7.36-3.84,1.31-6.64,8.1-11.49,14.08-6.81,1.08.85.52,1.87.7,2.17-1.13.25-4.78,1.56-5.3,1.06-.69-.67,1.69-4.51-3.18-3.17,2.14,3.31,4.5,7.29,1.06,10.59Z"/>
      <path class="cls-6" d="M135.37,46.27c.85.25,2.49.74,3.18,1.06,1.18.54,3.08,2.29,4.24,3.18-5.99.53-12.52-.06-18.5.99-1.23.22-.2,2.7-.65,3.13-.33.33-5.14.25-6.3.12.43-.59.63-1.67,1.06-2.12l2.12-1.06c.4-.26.69-.83,1.06-1.06,1.29-.81,9-5.24,9.54-5.3.81-.09,3.17.75,4.24,1.06Z"/>
      <path class="cls-6" d="M60.11,111.99c-.95,1.82-4.36,2.16-5.3,3.18-3.4-.12-7.02-1.98-9.54-4.24,3.58-3.45,4.18-4.05,10.12-3.23,4.99.69,3.19,2.27,4.72,4.29Z"/>
      <path class="cls-6" d="M39.97,67.47l-4.25,13.78-6.35-8.48c3.57-2.81,5.93-4.17,10.6-5.3Z"/>
      <path class="cls-3" d="M103.57,103.51c1.31,1.46,4.33,7.36,5.3,9.54-7.63-.72-10.92-1.45-11.66-10.26-.19-2.29,1.01-3.05,1.06-3.52.53,2.62,4.39,3.22,5.3,4.24Z"/>
      <path class="cls-3" d="M41.63,118.06c-.03,7.85-6.75,10.23-13.72,7.89-3.69-1.24-3.58-2.92-4.3-5.77h1.06c3.27,5.49,12.85,3.66,12.72-3.18,1.35.1,2.85.86,4.24,1.06Z"/>
      <path class="cls-3" d="M129.01,110.93c.29-1.9-.42-4.69,0-6.36.62-2.45,8.39-6.64,10.6-8.48,1.07,6.65-5.04,12.42-10.6,14.84Z"/>
      <path class="cls-3" d="M131.13,38.85c-.13,2.1.09,4.25,0,6.36-.54.06-8.25,4.49-9.54,5.3,2.77-4.06-2.12-3.66-2.1-4.77.01-.68,9.81-6.34,11.64-6.89Z"/>
      <path class="cls-6" d="M118.47,148.88c3.01,5.09-6.01,9.32-9.58,12.18-1.41,1.12-2.86.2-2.08,3.73-3.47.55-8.01-.39-11.66,0-.3-2.32,3.86-13.01,5.33-14.28.5-.43,11.5-4.91,12.16-4.91,3.11,0,3.67,2.3,5.83,3.29Z"/>
      <path class="cls-4" d="M126.95,154.18c.11.13,2.16-.42,2.18.62.05,2.34-1.71,4.36-3.24,5.74-.24.21-1.5,0-2.07.58-4.21,4.34-7.61,8.43-12.77,12.14-.6.13-1.84,1.57-3.18,1.06-.47-1.45-5.72-3.16-7.42-4.24-2.36-1.5-4.92-2.42-5.3-5.3,3.65-.39,8.19.55,11.66,0,4.57-.73,14.15-9.59,20.14-10.6Z"/>
      <path class="cls-4" d="M78.58,121.4c-1.76-2.87-6.65,1.57-7.26.89-.96-5.64,2.86-5.43,6.33-7.95,0-.38-3.64-2.53-4.22-2.65-1.47-.32-5.79.41-6.36,0-.16-.11.25-1.68-.12-1.96-1.41-1.09-7.93,5.63-8.34,7.81-1.26,6.66-.89,10.28,6.34,10.05-.04.35.03.71,0,1.06,4.05.92,17.68-.68,13.63-7.26Z"/>
      <path class="cls-1" d="M118.47,148.88c2.19,1,5.29,1.4,7.74,3.17,1.02.73.61,1.98.74,2.13-5.99,1.01-15.57,9.87-20.14,10.6-.79-3.53.67-2.6,2.08-3.73,3.57-2.85,12.59-7.09,9.58-12.18Z"/>
      <path class="cls-3" d="M107.35,98.98c.17,11.55-5.98,10.79-14.84,12.72,5.16-3.71,8.56-7.8,12.77-12.14.57-.59,1.83-.37,2.07-.58Z"/>
      <path class="cls-4" d="M96.15,120.47c-1.54,4.49-5.5,3.7-10.13,3.24-3.49-.34-3.91-.12-5.77-3.24,4.54-1.24,12.09-3.23,15.9,0Z"/>
      <path class="cls-3" d="M54.35,148.8c3.44-3.3,1.08-7.28-1.06-10.59,4.88-1.34,2.49,2.5,3.18,3.17.52.5,4.16-.82,5.3-1.06.18.29,1.56.5,1.9,1.76.29,1.08.51,5.35.21,5.64-.34.34-8.42,1.15-9.53,1.07Z"/>
      <path class="cls-6" d="M96.15,120.47c-3.81-3.23-11.36-1.24-15.9,0-.23-.39-2.08-.51-.58-2.16,4.78-3.5,9.29-5.58,14.94-2.14,2.87,1.75,2.17,2.46,1.54,4.3Z"/>
      <path class="cls-3" d="M51.1,132.86c-2.48.75-12.27-3.38-9.48-6.31.33-.35,8.4-1.44,9.6-.6,2.1,1.46.42,4.94-.12,6.91Z"/>
      <path class="cls-4" d="M120.44,128.86c-.86,1.28-10.85,3.34-9.29-3.4,1.44-6.22,12.56-1.49,9.29,3.4Z"/>
      <path class="cls-3" d="M138.55,47.33c-.69-.32-2.33-.81-3.18-1.06-.86-7.08-2.16-14.14-3.18-21.2,4.76,6.6,5.99,14.29,6.36,22.26Z"/>
      <path class="cls-4" d="M45.27,110.93c2.52,2.27,6.14,4.12,9.54,4.24-1.1,1.18-1.11,3.71-1.06,5.3-4.17,0-10.62-4.38-10.66-8.95-.01-1.17,1.95-.36,2.18-.59Z"/>
      <path class="cls-3" d="M60.11,111.99c.09.12,2-.47,2.2.65.7,3.92-4.91,7.84-8.56,7.83-.05-1.59-.04-4.12,1.06-5.3.94-1.02,4.35-1.36,5.3-3.18Z"/>
      <path class="cls-6" d="M26.79,141.38c-2.44-1.35-4.62-3.33-4.24-6.36.81-.95,1.36-2.18,2.12-3.18,5.66,2.09,4.42,4.33,2.12,9.54Z"/>
      <path class="cls-4" d="M90.85,96.09c-.27,4.17-1.09,5.25-3.8,8.43-.87,1.02-2.31.89-2.56,1.11l2.12-10.6c1.38.44,2.86.63,4.24,1.06Z"/>
      <path class="cls-1" d="M154.45,113.05c-.76,1-1.31,2.23-2.12,3.18-.28.33-.74.83-1.06,1.06-2-.15-5.17.81-6.36-1.06,3.86-3.44,3.33-5.47,9.54-3.18Z"/>
      <path class="cls-1" d="M109.93,22.95c-.48-5.76,7-6.5,5.3,0-.44,0-1.6,1.07-2.77,1.05-1.57-.02-2.4-1.07-2.53-1.05Z"/>
      <path class="cls-3" d="M124.83,120.87c1.19,1.87,4.36.91,6.36,1.06-3.08,2.17-5.84,2.38-9.54,2.12,1.64-4.08,1.96-2.1,3.18-3.18Z"/>
      <path class="cls-6" d="M150.21,64.29c-.95,1.72-2.38,3.56-3.18,5.3-3.29-.34-5.46,4.01-7.87,4.16-5.11.31-11.42-4.03-17.57-3.1-.98.15-2.15-.16-3.18.01.59,3.92.94,7.67,1.06,11.65l-14.84,1.06c-1.95-.91-8.05-.54-7.42-4.24.21-.11.44-1.15,1.17-1.5,2.3-1.11,6.93-.48,6.25-3.8-4.81.26-9.97,2.83-14.83,2.12-5.68-.83-4.57-2.93-5.3-6.36,3.15-1.33,10.58-6.65,11.66-9.54.66.11,1.57-.17,2.12,0,1.83.55,4.95.91,5.3,1.06,3.65,1.52,2.94,2.9,9.54,4.24.5.1,1.53,1.75,3.17,1.05.01-2.47,0-4.95,0-7.42,0-.35,0-.71,0-1.06,5.8.57,12.9-.83,18.49.06,4.55.72,10.56,5.46,15.43,6.3Z"/>
      <path class="cls-3" d="M100.39,38.85c.76,1.53.56,3.92,1.06,5.3-3.96,3.88-3.71,11.65-5.3,15.9-1.08,2.89-8.51,8.21-11.66,9.54-.79-3.72-7.06-20.34-6.36-21.19,1.63-1.99,2.29,1.5,2.63,2.09,1.19,2.03,6.37,13.28,7.01,13.7.61.4,2.12-.02,3.06.11,1.68-7.57,4.36-14.99,6.92-22.3.59-1.69-.23-3.76,2.63-3.15Z"/>
      <path class="cls-3" d="M119.47,82.31c.03,1.06,0,2.12,0,3.18,0,1.41,0,2.83,0,4.24-3.26.68-7.69.47-10.6,1.06,6.46-5.35,2.51-3.26-1.71-5.22-1.51-.7-2.33-2.11-2.53-2.2l14.84-1.06Z"/>
      <path class="cls-6" d="M63.29,43.09l9.53,5.29c-9.02-1.25-13.29,2.13-19.59,7.44l4.76-10.88c.34-.47,1.74-1.75,2.12-1.85.74-.19,2.25-.02,3.18,0Z"/>
      <path class="cls-1" d="M89.79,75.95c4.87.71,10.03-1.85,14.83-2.12.68,3.32-3.94,2.69-6.25,3.8-.72.35-.96,1.39-1.17,1.5-.48.25-1.97-.11-3.1.57-2.28,1.37-3.37,4.84-6.44,4.72l2.12-8.47Z"/>
      <path class="cls-6" d="M70.71,68.53c-2.46.47-3.02-2.39-4.98-2.96-1.08-.32-10.82.45-7.74-2.32.34-.3,7.88-2.33,8.83-2.02,1.5.5,4.85,6.24,3.89,7.31Z"/>
      <path class="cls-6" d="M52.16,56.87c.69.35.69.71,0,1.06v-1.06Z"/>
      <path class="cls-6" d="M97.27,107.53c-1.2,2.15.71,8.69,1.66,10.53,1.77,3.4,8.11,6.81,10,10.68-3.71-1.45-10.89-3.23-13.74-5.87-4.83-4.49.58-10.25-12.76-7.91l6.35-11.65c.37-.19.87-2.49,2.55-2.09,1.4.29,4.66,5.07,5.93,6.33Z"/>
      <path class="cls-3" d="M109.99,128.74h-1.06c-1.89-3.87-8.22-7.27-10-10.68-.96-1.84-2.87-8.37-1.66-10.53,8.47,8.35,9.73,9.27,12.72,21.2Z"/>
      <path class="cls-6" d="M88.79,139.34c-.02-.24-1.01-1.19-1.1-2.57-.45-6.68.66-8.63,6.92-11.22l.54,13.79c-1.73.4-4.44-.28-6.36,0Z"/>
      <path class="cls-4" d="M88.79,103.29l-6.35,11.65c13.34-2.34,7.93,3.43,12.76,7.91,2.85,2.65,10.02,4.42,13.74,5.87h1.06c.05.18,1.27.57,1.01,1.43-.34,1.16-13.84,8.7-15.85,9.17l-.54-13.79c-6.27,2.59-7.38,4.54-6.92,11.22.09,1.38,1.08,2.33,1.1,2.57.7,6.78,1.25,9.51-1.3,16.19s-8.12,12.56-11.57,18.7l-23.17-2.03c-1-.42-2.73-2-4.24-1.06-.32-2.11-.62-4.28-1.06-6.36,3.37.59,1.87-1.7,2.09-3.7.55-5.04.55-10.57,1.09-15.38.14-1.25.97-2.42,1.06-3.18,8.04,1.51,16.22,1.03,24.38,1.06-.86,5.39.19,13.75.05,19.66-.02.68-2.42,11.63,1,7.91.46-.5,3.46-10.57,4.56-12.95,1.62-3.51,7.2-7.21.74-7.74,1.48-6.47,2.19-13.06,3.2-19.59.12-.76,1.9-2.41,1.07-4.24-5.01-.23-9.89-1.42-14.85-2.12-.55-3.12-3.55-6.35-1.59-9.54,1.01-1.65,15.67-10.16,18.55-11.66Z"/>
      <path class="cls-6" d="M71.83,124.5c4.95.7,9.83,1.9,14.85,2.12.83,1.83-.95,3.48-1.07,4.24-.7-2.32-2.41,1.48-2.77,2-1.96,2.85-6.28,7.63-6.77,10.72-8.16-.03-16.34.45-24.38-1.06.31-2.5.7-4.93,1.05-7.41-.56-.6-5.13,2.12-5.31,2.86-.49,1.98-1.31,9.48,3.2,7.74-.55,4.81-.55,10.35-1.09,15.38-.22,2,1.29,4.29-2.09,3.7-1.38-6.57-3.67-15.83-4.24-22.26-.96-10.72,2.88-7.72,8.15-13.06.81-.82,1.45-3.69,2.45-3.9.06-.01-.16.87.52,1.03,5.83-6.16,10.26-3.12,17.5-2.09ZM78.46,131.89c0-.72-.59-1.31-1.31-1.31s-1.31.59-1.31,1.31.59,1.31,1.31,1.31,1.31-.59,1.31-1.31ZM76.07,134.04c-2.42-.33-2.94,2.13-5.03,2.9-2.48.91-6.16.89-8.95,1.66-1.09.3-3.21.26-2.96,1.78,5.5-.53,16.67,1.32,16.95-6.34Z"/>
      <path class="cls-1" d="M85.61,130.86c-1.01,6.54-1.72,13.13-3.2,19.59,6.46.53.88,4.23-.74,7.74-1.09,2.38-4.09,12.44-4.56,12.95-3.42,3.72-1.02-7.22-1-7.91.14-5.9-.9-14.27-.05-19.66.49-3.09,4.81-7.86,6.77-10.72.36-.52,2.07-4.32,2.77-2Z"/>
      <path class="cls-1" d="M161.87,65.35c-4.5,1.75-3.69-5.76-3.2-7.74.18-.74,4.75-3.46,5.31-2.86-.36,2.48-.74,4.92-1.05,7.41-.09.76-.92,1.93-1.06,3.18Z"/>
      <path class="cls-3" d="M76.07,134.04c-.28,7.67-11.45,5.81-16.95,6.34-.25-1.52,1.87-1.48,2.96-1.78,2.79-.77,6.48-.75,8.95-1.66,2.1-.77,2.61-3.24,5.03-2.9Z"/>
      <circle class="cls-3" cx="77.15" cy="131.89" r="1.31"/>
      <path class="cls-3" d="M114.17,53.69c.21.23,1.73.97,2.12,1.06v3.18c0,.35,0,.71,0,1.06h-6.36v-1.06c.98-.85,1.12-4.73,4.24-4.24Z"/>
      <path class="cls-3" d="M120.53,51.57l-2.12,1.06c1.11-1.19,1.72-.8,2.12-1.06Z"/>
      <path class="cls-4" d="M121.59,70.65l13.78,6.36c-.67,4.15-5.55,5.88-7.42,9.54-.87.17-1.98.83-3.18,1.06-1.15-1.82-3.3-2.16-5.3-2.12,0-1.06.03-2.12,0-3.18-.12-3.98-.46-7.73-1.06-11.65,1.03-.17,2.2.14,3.18-.01Z"/>
      <path class="cls-1" d="M125.84,100.33l2.11-5.29c-7.24-.22-13.21-.7-19.59,3.19-3.08.05,3.2-4.69,5.34-5.27,2.97-.8,16.41-2.68,18.81-1.94,8.34,2.55-6.12,9.87-6.67,9.31Z"/>
      <path class="cls-1" d="M124.77,87.61c-.87.17-3.09,1.66-5.3,2.12,0-1.41,0-2.83,0-4.24,2-.04,4.15.3,5.3,2.12Z"/>
      <path class="cls-1" d="M80.25,92.91c-7.57-.84-13.36.05-20.14,3.18,2.58-9.08,13.76-6.91,20.14-3.18Z"/>
      <path class="cls-4" d="M105.69,54.75c-3.49-.39-5.69,2.72-7.42,5.3-.55-.17-1.46.11-2.12,0,1.59-4.25,1.34-12.02,5.3-15.9,1.08,2.97,3.62,7.96,4.24,10.6Z"/>
      <path class="cls-5" d="M109.93,58.99h5.3l-2.12,6.36c-6.6-1.34-5.89-2.72-9.54-4.24.57-.64,1.38-.75,2.12-1.06.88-.37,1.23-.44,2.12-1.06h2.12Z"/>
      <path class="cls-3" d="M105.69,54.75c.34,1.45-.24,3.69,0,5.3-.74.31-1.55.42-2.12,1.06-.35-.15-3.47-.51-5.3-1.06,1.73-2.58,3.93-5.69,7.42-5.3Z"/>
      <path class="cls-4" d="M109.93,57.93v1.06h-2.12c.74-.52,1.89-.86,2.12-1.06Z"/>
      <path class="cls-1" d="M147.03,69.59c-.67,1.45-.43,4.5-1.73,5.4-.74.51-8.96,2.2-9.93,2.02l-13.78-6.36c6.16-.94,12.46,3.4,17.57,3.1,2.41-.14,4.58-4.49,7.87-4.16Z"/>
      <path class="cls-6" d="M150.21,56.87c1.05,2.2,1.82,2.08,2.12,5.3-7.68-1.7-14.99-7.53-23.32-6.37-1.11-3.3,4.91-2.31,6.88-2.1,4.93.5,9.31,3.16,14.32,3.17Z"/>
      <path class="cls-4" d="M37.39,117c.13,6.84-9.45,8.67-12.72,3.18,3.23-3.57,8.29-3.52,12.72-3.18Z"/>
      <path class="cls-4" d="M116.29,58.99c0,2.47,0,4.95,0,7.42-1.64.7-2.67-.95-3.17-1.05l2.12-6.36h1.06Z"/>
    </g>
  </g>
</svg>