<?xml version="1.0" encoding="UTF-8"?>
<svg id="Layer_2" data-name="Layer 2" xmlns="http://www.w3.org/2000/svg" viewBox="0 0 185 185">
  <defs>
    <style>
      .cls-1 {
        fill: #945b3c;
      }

      .cls-2 {
        fill: #f2d4b6;
      }

      .cls-3 {
        fill: none;
      }

      .cls-4 {
        fill: #7b4425;
      }

      .cls-5 {
        fill: #e7c5a2;
      }

      .cls-6 {
        fill: #fee7cd;
      }

      .cls-7 {
        fill: #fefefe;
      }
    </style>
  </defs>
  <g id="borxes">
    <rect class="cls-3" width="185" height="185"/>
    <g>
      <g>
        <g>
          <path class="cls-5" d="M71.13,143.66c6.07-5.95,15.73-8.16,24.13-7.92,2.73.08,11.34,2.36,12.7,1.42,4.23-9.14,4.67-19.89,1.71-29.41,1.65.15,3.26.25,4.36-1.31-7.63-7.23-18.83-9.93-29.21-9.08-5.08.41-10.23,2.88-14.57,3.39.12-.23-.11-.64,0-.88.19-.4.77-1.61.88-1.75.07-.1,1.65-1.68,1.75-1.75.24-.17,4.92-2.5,5.26-2.63.69-.26,1.46-.79,1.75-.88,1.06-.32,5.5-.75,7.01-.88.58-.05,1.17.03,1.75,0,2.29-.13,4.7-.05,7.01,0,.29,0,.58-.01.88,0,3.03.14,5.09.55,7.88.88.57.07,1.19-.08,1.75,0,1.75.25,4.11,1.65,6.13,1.75.28.01.6.03.88,0,1.27,1.94,3.07,2.2,4.38,4.38.26.43.63,1.24.88,1.75.31.64,2.69,7.04,2.68,7.43-.02.49-2.55.17-1.8,1.75,1.61,3.4,11.53-.21,13.97-1.78,3.57-2.3,4.68-4.87,6.17-8.28.11-.24,1.8-.51,1.62-2.01-.06-.49-1.76-4.36-2.14-4.93-.5-.74-4.85-4.79-5.62-5.33,2.24-2.77,5.19-2.95,7.87-5.71,5.22-5.36,6-13.47,4.88-20.61-.91-5.76-4.1-10.35-5.74-15.72,6.1,5.01,9.01,6.62,12.06,14.65,9.1,23.94-4.53,49.86-30.08,53.6-.68,4.35.73,8.23.53,12.8-.26,5.63-2.99,16.19-6.67,20.47-7.8,9.06-29.51,7.76-39.5,2.86-4.46-2.18-3.74-2.25-5.53-6.29ZM114.92,138.4c3.16,3.19,8.72-12.55,3.93-14.88-1.64-.8-1.47,1.71-1.71,2.64-.46,1.78-2.85,11.6-2.21,12.24Z"/>
          <path class="cls-6" d="M109.67,107.75c-2.73-.26-4.17-2.79-6.49-2.65-4.15.25-13.14,3.35-17.62,3.57-4.86.24-7.95-1.35-13.51,1.3-3.35,1.6-1.09,3.62-7.04,3.03,1.67-4.03,3.33-8.36,5.26-12.26,4.33-.51,9.48-2.98,14.57-3.39,10.38-.84,21.58,1.85,29.21,9.08-1.1,1.56-2.71,1.47-4.36,1.31Z"/>
          <path class="cls-6" d="M72.45,118.26c4.06-.94,4.02,15.94,1.71,16.63-5.89,1.76-4.66-15.95-1.71-16.63Z"/>
          <path class="cls-2" d="M114.92,138.4c-.64-.64,1.75-10.46,2.21-12.24.24-.93.07-3.43,1.71-2.64,4.79,2.32-.77,18.06-3.93,14.88Z"/>
        </g>
        <g>
          <path class="cls-4" d="M133.31,87.61c.77.54,5.12,4.58,5.62,5.33.38.57,2.08,4.44,2.14,4.93.18,1.5-1.52,1.77-1.62,2.01-6.87.48-14.41-1.06-21.02.88-.24-.51-.62-1.33-.88-1.75,7.22-1.35,14.58-.78,21.9-.88-2.18-3-8.15-8.76-11.81-8.78-4.47-.03-10.43,4.89-14.47,5.29-.28.03-.59.01-.88,0,.83-3.76,11.16-5.07,12.26-6.14,1.32-1.28-.43-1.53-1.12-1.96-.86-.54-6.67-3.05-7.42-3.16-2.38-.34-9.11,6.8-9.85,9.51-.56-.08-1.19.07-1.75,0,.67-4.46,5.19-6.85,7.88-10.08-4.75-1.91-9.77-2.55-14.89-2.19l-.87,11.39c-.29-.01-.58,0-.88,0v-12.27c-4.16-.55-8.11,1.11-12.26.88l5.25,11.38c-.58.03-1.18-.05-1.75,0-.93-3.61-4.08-10.48-8.19-10.47-.69,0-8.14,1.43-8.45,1.72-1.94,1.8,5.54,2.42,3.5,4.37-.99.95-2.96-2.1-4.11-2.45-3.5-1.06-7.58,1.22-10.52,3.11-3.54,2.28,1.91,2.08,4.37,3.04,3.11,1.2,6.93,2.78,9.39,5.06-.1.07-1.68,1.65-1.75,1.75.45-2.07-1.02-1.86-2.29-2.48-3.71-1.83-11.4-5.83-15.21-4.07-.44.2-5.12,4.9-5.26,5.25-.75,1.79,1.22,1.23,2.17,1.3,6.57.48,13.39-.8,19.72,1.75-.11.24.12.64,0,.88-7.33.86-16.88-2.91-24.52,0,.31-15.16,26.66-23.27,39.09-24.41,15.6-1.43,35.51,2.18,48.5,11.27Z"/>
          <path class="cls-1" d="M70.25,100.74c-1.92,3.9-3.59,8.23-5.26,12.26-8.11-.8-19.47-2.3-19.27-12.26,7.64-2.91,17.19.86,24.52,0Z"/>
          <path class="cls-1" d="M86.89,91.99c-1.51.13-5.94.56-7.01.88l-5.26-4.37,3.5,5.25c-.33.13-5.01,2.46-5.26,2.63-2.46-2.28-6.28-3.86-9.39-5.06-2.46-.95-7.92-.76-4.37-3.04,2.94-1.89,7.02-4.17,10.52-3.11,1.15.35,3.12,3.39,4.11,2.45,2.04-1.95-5.44-2.56-3.5-4.37.32-.29,7.76-1.72,8.45-1.72,4.11,0,7.26,6.87,8.19,10.47Z"/>
          <path class="cls-1" d="M139.44,99.87c-1.49,3.41-2.6,5.98-6.17,8.28-2.43,1.57-12.35,5.18-13.97,1.78-.75-1.58,1.78-1.25,1.8-1.75.02-.39-2.37-6.79-2.68-7.43,6.61-1.93,14.15-.4,21.02-.88Z"/>
          <path class="cls-1" d="M113.17,94.61c4.04-.4,10-5.32,14.47-5.29,3.66.03,9.63,5.79,11.81,8.78-7.32.11-14.68-.46-21.9.88-1.31-2.18-3.11-2.44-4.38-4.38Z"/>
          <path class="cls-1" d="M96.53,91.99l.87-11.39c5.12-.36,10.14.28,14.89,2.19-2.69,3.23-7.21,5.61-7.88,10.08-2.8-.32-4.85-.74-7.88-.88Z"/>
          <path class="cls-1" d="M70.25,99.87c-6.33-2.55-13.15-1.27-19.72-1.75-.95-.07-2.92.49-2.17-1.3.15-.35,4.82-5.05,5.26-5.25,3.81-1.76,11.5,2.25,15.21,4.07,1.27.62,2.74.41,2.29,2.48-.11.14-.68,1.35-.88,1.75Z"/>
          <path class="cls-1" d="M88.64,91.99l-5.25-11.38c4.15.23,8.1-1.44,12.26-.88v12.27c-2.31-.05-4.72-.13-7.01,0Z"/>
          <path class="cls-1" d="M106.16,92.86c.74-2.71,7.47-9.85,9.85-9.51.76.11,6.57,2.62,7.42,3.16.69.43,2.44.69,1.12,1.96-1.11,1.07-11.43,2.38-12.26,6.14-2.03-.1-4.38-1.5-6.13-1.75Z"/>
          <path class="cls-4" d="M79.89,92.86c-.29.09-1.06.61-1.75.88l-3.5-5.25,5.26,4.37Z"/>
        </g>
      </g>
      <g>
        <path class="cls-2" d="M140.32,45.57c1.64,5.37,4.83,9.96,5.74,15.72,1.12,7.14.34,15.26-4.88,20.61-2.68,2.75-5.63,2.93-7.87,5.71-12.99-9.09-32.9-12.7-48.5-11.27-12.43,1.14-38.78,9.25-39.09,24.41-.2,9.96,11.16,11.46,19.27,12.26,5.96.59,3.69-1.43,7.04-3.03,5.56-2.66,8.65-1.06,13.51-1.3,4.49-.22,13.47-3.32,17.62-3.57,2.33-.14,3.76,2.39,6.49,2.65,2.95,9.52,2.51,20.27-1.71,29.41-1.36.94-9.96-1.34-12.7-1.42-8.39-.24-18.06,1.97-24.13,7.92-4.23-9.57-3.72-17.76-3.51-28.02-27.02-1.52-46-17.9-34.31-46.15,16.4-39.66,75.31-49.98,107.01-23.93ZM85.84,35.32c-17.01,1.68-40.89,14.28-41.9,33.43-.75,14.19,8.01,5.71,13.79,3.28,15.38-6.47,29.71-4.8,45.25-6.42s27.56-17.41,9.29-26.59c-8.44-4.24-17.14-4.61-26.44-3.69ZM72.45,118.26c-2.95.68-4.18,18.39,1.71,16.63,2.31-.69,2.35-17.57-1.71-16.63Z"/>
        <path class="cls-6" d="M85.84,35.32c9.29-.92,17.99-.55,26.44,3.69,18.28,9.18,6.83,24.91-9.29,26.59s-29.87-.04-45.25,6.42c-5.78,2.43-14.54,10.91-13.79-3.28,1.01-19.15,24.88-31.75,41.9-33.43ZM90.3,43.73c.5-.59.24-4.11-.73-4.79-2.28-1.61-18.52.27-17.6,5.27.37,1.99,17.73.24,18.33-.48ZM65.87,46.45c-1.57-1.56-11.6,2.57-8.76,7,3.33,1.9,11.24-4.54,8.76-7Z"/>
        <path class="cls-7" d="M90.3,43.73c-.6.71-17.96,2.46-18.33.48-.92-5,15.32-6.88,17.6-5.27.96.68,1.23,4.2.73,4.79Z"/>
        <path class="cls-7" d="M65.87,46.45c2.48,2.47-5.42,8.91-8.76,7-2.85-4.44,7.18-8.57,8.76-7Z"/>
      </g>
    </g>
  </g>
</svg>