<?xml version="1.0" encoding="UTF-8"?>
<svg id="Layer_2" data-name="Layer 2" xmlns="http://www.w3.org/2000/svg" viewBox="0 0 185 185">
  <defs>
    <style>
      .cls-1 {
        fill: none;
      }

      .cls-2 {
        fill: #efebcc;
      }

      .cls-3 {
        fill: #eee6ae;
      }

      .cls-4 {
        fill: #e6b82f;
      }
    </style>
  </defs>
  <g id="borxes">
    <rect class="cls-1" width="185" height="185"/>
  </g>
  <g id="flavours">
    <g>
      <path class="cls-4" d="M38.4,145.12c-5.27-3.94-8.11-9.76-11.36-15.2-.85-1.43-1.97-2.69-2.7-4.25-2.59-5.53-4.2-11.31-5.43-17.29-1.26-6.1-2.53-12.18-2.15-18.4.84-13.91,4.6-27.09,12.04-38.82,4.65-7.33,10.86-13.51,17.78-19.01,6.36-5.06,13.67-8.21,20.68-11.99,2.24-1.21,4.94-.99,7.41-1.62,9.66-2.49,19.62-2.19,29.45-1.34,6.69.57,13.39,2.54,19.34,5.38,6.13,2.93,12.04,6.67,17.31,11.4,4.17,3.74,8.18,7.64,11.75,11.84,3.38,3.99,5.97,8.71,8.36,13.47,4.07,8.1,5.65,16.69,6.96,25.59,1.04,7.03.12,13.77-.72,20.45-.79,6.22-2.53,12.38-5.56,18.27-2.58,5.02-5.14,9.94-8.37,14.57-3.85,5.51-8.76,10-13.73,14.37-4.79,4.21-10.61,7.3-16.33,9.7-5.51,2.32-11.54,3.96-17.65,5.05-6.88,1.22-13.71,1.41-20.51.72-4.92-.5-9.83-1.37-14.68-2.95-7.25-2.36-13.96-5.43-19.97-10.1-.46-.36-1.3-.06-1.71-.7-2.93-3.58-6.66-6.27-10.21-9.14ZM143.65,42.75h0c-.22-.21-.44-.42-.65-.64h0c-.22-.21-.43-.43-.65-.65h0c-.22-.21-.43-.43-.65-.65-.23-.2-.46-.4-.69-.61-.88-1.1-1.8-2.14-3.25-2.5l-.05-.05c-.26-1.43-1.11-2.26-2.53-2.51-3.21-1.39-5.59-4.19-8.93-5.36-.16-1.27-1.07-1.26-2.02-1.18-.21-.02-.43-.04-.64-.07-2.39-1.67-4.85-3.2-7.78-3.73-.82-.07-1.64-.14-2.45-.21-.24-.33-.42-.91-.72-.97-6.17-1.33-12.24-3.45-18.71-2.72-.65,0-1.31,0-1.96.01-3.31-.31-6.58-.24-9.68,1.18-.82-.07-1.45.17-1.68,1.05h-.08c-.17-.1-.35-.11-.53-.02-1.28-1.66-2.49-1.58-3.65.13-.18-.03-.36-.01-.53.05-4.06.72-8.06,1.63-11.6,3.91-.42.04-.84.09-1.26.13-.84-.11-1.31.26-1.39,1.11,0,0-.01,0,0,0-.86.02-1.65.16-2.45.6-6.98,3.81-12.91,8.93-18.33,14.66-1.27,1.35-3.44,1.97-3.65,4.25l-.65.15c-.35-.02-.51.15-.49.5-.09.38-.17.77-.26,1.15-4.3,4.22-6.21,9.85-8.81,15.06-.56,1.67-1.74,3.15-1.48,5.06-1.94,1.79-1.39,4.48-2.34,6.63-.05.84-.1,1.69-.15,2.53-.37,1.77-1.4,3.33-1.37,5.26.1,5.59.03,11.19.07,16.78,0,1.02-.24,2.25,1.21,2.64.04,1.27.08,2.53.12,3.8-.03,1.26-.18,2.55,1.17,3.32-.02.2,0,.39.06.58-.08,1.09.28,2.08.55,3.13,1.7,6.59,5.12,12.4,8.76,17.96,2.73,4.17,5.41,8.69,10.07,11.26.73,1.27,1.57,2.41,3.13,2.7.31,1.02.68,1.96,1.65,2.61,5.85,3.94,11.99,7.33,18.47,10.12.42.02.83.05,1.25.07.59.88,1.57,1,2.47,1.34,6.03,2.29,12.41,2.7,18.71,3.15,3.22.23,6.6.85,9.8-.52.85-.04,1.7-.08,2.54-.12,5.25-.17,10.35-.94,14.94-3.73.19-.03.38-.07.57-.12,4.47.4,7.23-2.73,10.37-5.08h.02c6.51-2.09,11.13-6.69,15.47-11.66,0,0,0,0,0,0,.85,0,1.27-.44,1.29-1.29h0c2.93-1.26,3.83-4.36,5.82-6.47.71-.47.6-1.23.65-1.93,8.28-10.45,12.6-22.33,12.77-35.7,0-2.57,0-5.14,0-7.72.29-3.55.36-7.08-1.23-10.41-.04-.84-.08-1.68-.12-2.52-1.49-6.32-3.47-12.48-6.69-18.12-2.73-4.77-5.36-9.68-9.87-13.13,0-.19-.02-.37-.07-.55-.14-.71-.68-1.03-1.26-1.32h0c-.22-.22-.43-.43-.65-.65Z"/>
      <path class="cls-3" d="M38.4,145.12c3.56,2.87,7.28,5.56,10.21,9.14-3.22-.6-5.95-2.11-7.51-5.02-.79-1.48-3.47-1.69-2.71-4.12Z"/>
      <path class="cls-2" d="M22.98,107.53c-.04-1.27-.08-2.53-.12-3.8.3-2.01,2.92.72,2.3-.66-.95-2.1,1.15-3.95-.06-5.51-1.24-1.6-.74-2.94-.29-4.48.23-.79.97-1.62.47-2.44-1.63-2.72-.91-5.22.74-7.52.95-1.32,1.08-2.63.39-3.87-.91-1.63-2.29-.2-3.46-.2.05-.84.1-1.69.15-2.53.95-.04,2.09.22,2.81-.21.96-.58,2.89-2.03,1.24-2.83-2-.97-1.44-2.28-1.71-3.58-.25-1.91.93-3.39,1.48-5.06,2.66-1.03,5.32-2.07,3.55-6.19,2.49,1.66,2.52,1.68,3.58-.03.56-.9.74-2.43,1.49-2.74,2.76-1.16,1.6-2.64.73-4.27-.29-.55-.36-1.21-.53-1.82.09-.38.17-.77.26-1.15.16-.17.33-.33.49-.5.22-.05.44-.1.65-.15,2.38,2,4.12,1.69,5.22-1.37.47-1.31,2.16-.97,2.87-1.82,1.6-1.92,2.04-.95,2.36.76.07,1.23-.1,2.62-1,3.3-2.47,1.86-3.62,4.62-5.29,7.03-3.14,4.51-2.67,11.44,3.75,14.14,8.65,3.64,16.9,8.25,25.86,11.07,3.51,1.1,6.64,3.49,10.55,3.28,2.9-.15,4.24-2.16,3.2-4.85-.8-2.05-1.6-4.1-2.36-6.17-1.47-3.98-2.64-8.2-4.43-11.91-2.47-5.13-4.67-10.4-6.98-15.58-2.57-5.77-4.04-7.2-10.19-6.98-.54.02-1.07.03-1.61.05-2.01-.25-3.83.02-5.13,1.83-.49.68-1.23.89-1.99.48-.83-.45-.59-1.3-.6-2.02,0-.84.33-1.43,1.26-1.56.72-.1,1.9-.08,2.08-.48,1.23-2.72,3.66-3.05,6.13-3.66,1.31-.32,2.48-1.58,2.9-2.84.4-1.21-1.71-.49-1.96-1.59-.05-.21-.12-.41-.19-.62,0,0,.01,0,.01,0,.81.07,1.29-.28,1.39-1.11.42-.04.84-.09,1.26-.13.22,1.58,1.22,2.95,2.67,2.46,3.54-1.2,8.33-.94,8.93-6.37.17-.07.35-.08.53-.05,1.22-.04,2.43-.09,3.65-.13.18-.09.36-.08.53.03-.18,1.36-1.38,1.44-2.3,1.92-.79.41-2.75-.13-2.06,1.57.5,1.25,1.59.03,2.4-.35.47-.22,1.03-.22,1.54-.36,2.16-.56,1.97-1.57.51-2.8.23-.88.86-1.12,1.68-1.05.1.9-.32,2.28.94,2.4,2.42.22,4.9.32,7.29,0,1.73-.23-.31-2.13.74-2.94.25-.2.48-.42.71-.64.65,0,1.31,0,1.96-.01.57.86,1.99.1,2.4,1.29.42,1.24-1.77.89-1.27,2.22,2.05.65,4.24-.08,6.33.6.72.24,1.67-.34,2.5-.32,3.16.08,6.32,2.24,9.46-.09.82.07,1.64.14,2.45.21.01.64.02,1.28.05,1.91.08,1.8-.02,3.84,2.25,1.03.66-.82,1.31-.33,1.56.59.22.78-.25,1.72.69,2.5,1.06-.76,2.15-1.53,3.23-2.3.21.02.43.04.64.07.15,1.29,1.08,1.24,2.02,1.18,3.34,1.17,5.72,3.96,8.93,5.36-.03.41-.05.83-.09,1.24-.08.78-1.5,1.32-.7,2.13.92.93,1.62-.34,2.41-.66.28-.11.6-.14.9-.2,0,0,.05.05.05.05.77,1.47-2.21,2.68-.48,3.97,1.49,1.12,1.82-1.94,3.41-1.46.1.03.21,0,.32-.01.23.2.46.4.69.61.22.22.43.44.65.66,0,0,0,0,0,0,.22.22.43.43.65.65,0,0,0,0,0,0,.22.21.44.43.65.64,0,0,0,0,0,0,.22.22.43.43.65.65,0,0,0,0,0,0,0,.85-.33,2.01,1.26,1.32.05.18.07.36.07.55.24,1.81-1.09,2.55-2.64,3.51,3.95.14,4.12,3.29,5.11,5.68.4.96,1.2,2.24,1.75,2.06,3.12-1.02,2.07,1.32,2.12,2.55.1,2.66.31,5.22,2.62,7.03h0c.74,2.34,2.7,4.13,2.63,6.9-.12,4.8.81,5.36,4.96,3.52.04.84.08,1.68.12,2.52-1.02-.44-2.7-.8-2.07.78.6,1.52.04,2.37-.3,3.53-.38,1.3-.23,2.68-.96,4-.32.58.4,2.18,1.1,2.78,1.16.97,2.1-1.28,3.45-.67,0,2.57,0,5.14,0,7.72-1.62.1-2.26-1.5-3.79-2.57,0,1.71.22,2.93-.04,4.04-.75,3.17,1.19,6.76-1.37,9.6-.96,1.06-1.3,2.17-1.16,3.51.12,1.17-.33,2.06-1.2,2.84-1.58,1.41-1.89,2.93-.63,4.82,1.03,1.54.89,3.6-.79,4.17-2.47.83-2.42,4.21-5.35,4.48-1.14.1-.97,1.51,0,2.23.9.67,1.68,1.34,1.56,2.6-.05.7.06,1.45-.65,1.93q-2.86-2.92-4.65.91c-.16.35-.46.78-.78.88-1.94.6-1.46,1.56-.6,2.8.31.45.16,1.23.22,1.86,0,0,0,0,0,0-.44-.01-.87-.02-1.31-.03-.06-.41-.06-.88-.6-.96-.11-.01-.37.25-.35.36.07.55.55.54.96.61,0,.44.02.88.03,1.32,0,0,0,0,0,0-.43-.02-1,.13-1.26-.09-3.25-2.82-4.8,1.22-7.06,1.97-1.85.62-.25,2.85.2,4.27-.83.27-1.3.12-1.72-.28-3.56-3.36-4.13,1.96-6.51,2.44-1.3.26-.21,2.35.88,3.33,0,0-.02,0-.02,0-.73-.08-1.52-.02-2.19-.27-4.59-1.72-7.52.17-8.18,5.35-.19.05-.37.09-.57.12-.85-.09-1.73-.05-1.98-1.21-.36-1.72-1.36-1.8-2.55-.81-2.42,2.03-4.57,4.41-8.29,2.1-.97-.6-3.44-1-4.39.63-1.29,2.2,2.37,1.32,2.26,3.02-.85.04-1.7.08-2.54.12-1.07-.32-2.89.87-2.8-1.75.04-1.23-1.52-.84-2.41-.83-.87,0-1.88-.38-2.46.9-1.01,2.25-1.02,2.09-2.79.06-1.3-1.5-3.1-2.66-5.28-2.19-2.28.49.2,2.12-.83,3.44-.63-.97-3.7.99-2.04-2.45.1-.21-.05-.8-.09-.8-1.78,0-2.44-2.78-4.78-1.75-1.13.5-2.69.5-3.89-.71-.94-.94-1.67-2.22-3.32-2.67-.63,1.61-.25,3.21-.32,4.77-.42-.02-.83-.05-1.25-.07-.22-2.41-.94-4.16-3.83-4.61-1.56-.24-4.22-1.6-4.2-2.42.06-3.08-2.31-3.21-3.98-4.08-1.88-.99-3.69-1.87-5.08-3.65-.68-.88-2.18-1.11-3.7-1.82.65,1.42.85,3.02.67,3.84-1.57-.29-2.41-1.43-3.13-2.7.65-.9,2.55-1.91-.16-2.57-1.27-.31-1.66-1.71-1.2-2.14,2.2-2.02-.23-2.2-1.01-3.07-1.13-1.28-3.85-1.12-3.88-2.91-.06-2.73-1.22-4.53-2.74-6.59-1.71-2.34-2.55-5.3-4.03-7.84-.66-1.14-.98-2.22-1.29-3.47-.79-3.12-1.1-6.39-2.59-9.32-.36-.7-.85-1-1.53-.79-1.06.34-.06,1.08-.18,1.4-.62,1.61,1.63,3.68-.79,4.95-.06-.19-.08-.39-.06-.58-.15-1.19.77-2.77-1.17-3.32ZM82.28,112.71c1.77-.22,1.22-1.57,1.28-2.62.03-.41.06-.83.1-1.24,3.06-2.33,3.57-5.62,1.19-7.75h0c-2.04-3.57-7.45-2.97-10.33,1.15-5.29,1.87-10.4,4.16-15.8,5.86-5.34,1.68-10.63,4.58-15.45,7.95-3.79,2.65-5.84,8.56-2.97,11.96,3.49,4.14,5.86,9.36,10.74,12.23,3.1,1.82,5.46,4.75,9.08,5.8,3.52,1.02,6.15-.18,8.42-2.95,2.1-2.57,2.71-5.81,4.66-8.36,1.76-.16,1.46-3.52,3.94-2.55-1.42,1.76-1.44,3.81-1.23,5.91-.22,1.13-.42,2.22-.84,3.35-1.32,3.56-2.13,7.27.93,10.52,1.78,1.89,4.2,2.28,6.57,2.74,7.98,1.56,15.98,1.79,23.75-.85,4.22-1.44,6.1-5.52,4.73-9.79-1.87-5.84-3.94-11.64-6.36-17.27-2.54-5.91-4.7-11.99-7.86-17.66-.91-1.62-.76-3.83-3.17-4.17-2.21-.31-3.88.65-5.01,2.57-2.56.9-2.62,3-2.47,5.2h0c-2.81.8-2.68,3.02-2.52,5.25h0c-2.07,1.44-2.36,3.65-2.52,5.92.04.18.02.36-.05.54-1.82.74-1.97,2.52-2.51,4.06-.08,1.22-.16,2.43-.23,3.65-.4,0-.8.02-1.2.03,0-2.16-.01-4.32-.02-6.48h0c1.77-.23,1.2-1.58,1.27-2.63.04-.41.07-.82.11-1.22,3.37-1.17,2.37-4.05,2.51-6.49h0c1.7-.25,1.19-1.58,1.26-2.62h0ZM127.51,145.13c1.01-.09,2.3.4,2.58-1.23,5.98-5.01,11.93-10.08,15.21-17.42,1.83-4.08,1-8.76-3.45-10.98-1.78-.89-3.66-1.44-5.43-2.29-10.03-4.76-20.21-9.15-30.78-12.58-1.4-.45-2.62-1.07-3.84.11-1.26,1.22-1.6,2.6-1.1,4.39,1.58,5.74,3.77,11.29,6.26,16.63,3.89,8.37,6.08,17.69,12.83,24.58,1.69,2.19,3.4,2.15,5.11.03h0c1.05-.05,2.36.47,2.62-1.24h.01ZM144.36,55.69l-.04-.05c.01-1.31.04-2.63-1.86-2.54-.08-1.35-1.46-1.64-2.06-2.56.29-1.98-.56-2.85-2.53-2.61l-.02-.02c.23-1.92-.58-2.8-2.52-2.58-3.25-2.52-6.54-4.96-10.39-6.49-.96-2.3-3.15-1.53-4.29-.99-2.04.96-5.17,1.32-4.81,4.85-.17,3.38-2.59,5.77-3.89,8.63-2.79,6.14-5.34,12.36-7.81,18.63-2.51,2.43-3.07,5.75-3.69,8.92-.28,1.43-2.09,2.78-.26,4.64,2.62,2.65,5.82,2.68,9.28-.4,1.85-.78,3.65-1.74,5.57-2.3,3.87-1.14,7.15-3.78,11.24-4.32,4.01.51,6.51-2.75,9.71-4.18,1.4-.62,3.86,0,4.39-2.38.29-.58.83-.59,1.36-.59,1.61-.68,3.37-1.18,3.83-3.23h0c1.84-1.8,1.86-5.99.02-7.81v-.02c-.11-1.01.35-2.29-1.24-2.59ZM53.96,106.41l.1-.08c1.26-.4,3.07.79,3.73-1.31,3.59-2.46,7.88-3.36,11.71-5.28,3.38-1.69,7.34-2.33,10-5.41,1.61-1.86,1.44-3.76-.79-4.85-2.09-1.01-4.13-2.13-6.26-3.09-9.94-4.44-19.76-9.15-30.23-12.23-3.4-1-6.62-1.11-9.38,1.95-1.12,1.24-.71,2.61-1.29,3.84-3.77,7.94-2.86,16.14-.71,24.17,2.16,8.02,7.83,8.58,14.16,5.39,1.95-.98,3.99-2.09,6.34-1.95,1-.08,2.24.37,2.61-1.15ZM150.76,110.29c3.57-2.64,4.81-6.5,5.02-10.62.32-6.1.34-12.18-1.12-18.24-1.54-6.39-5.91-9.39-11.32-7.3-4.22,1.63-8.51,3.02-12.68,4.84-6.76,2.95-13.77,5.28-20.58,8.12-1.57.65-2.91,2.03-4.39,3.03-1.54,1.03-1.64,2.45-.13,4.02,3.76,3.89,9.16,4.51,13.54,7.12.67,1.53,2.41,1.53,3.53,1.89,3.86,1.25,6.9,4.63,11.29,4.42,2.5,0,4.39,1.56,6.49,2.56.43,2.36,2.67,1.04,3.95,1.89,2.46,1.64,4.81.91,6.41-1.72ZM91.18,28.72c-3.02.44-8.67.48-13.8,3.41-3.09,1.77-4.01,4.25-3.41,7.53,1.21,6.56,4.12,12.54,6.49,18.69,2.21,5.73,5.19,11.14,7.1,17.01.81,2.47,2.41,4.72,5.15,4.81,2.22.07,3.16-2.03,3.99-4.04,1.8-4.31,3.9-8.49,5.8-12.76,3.37-7.58,6.4-15.3,8.59-23.31.95-3.48-.05-6.32-2.54-7.59-4.65-2.36-9.48-4.13-17.38-3.76ZM141.18,43.03c-.84.29-1.78,1-1.65,1.65.3,1.43,1.61,2.06,3,2.35.68.14,1.08-.25.95-.84-.29-1.35-.84-2.59-2.3-3.16ZM127.58,35.59c1.05.6,1.86,1,2.6,1.5.7.47,1.21.18,1.64-.33.25-.3.57-.77.5-1.07-.18-.8-.96-.7-1.56-.68-.93.03-1.9-.22-3.17.59ZM161.72,92.47c-.23.12-.54.22-.53.28.03.29.07.67.26.83.27.22.63.03.63-.33,0-.26-.23-.52-.36-.78ZM39.44,51.03c-.17-.08-.39-.25-.51-.2-.13.05-.16.32-.24.5.17.08.39.25.51.2.13-.05.17-.32.24-.5Z"/>
      <path class="cls-3" d="M24.21,111.44c2.41-1.27.16-3.34.79-4.95.12-.32-.89-1.06.18-1.4.67-.21,1.17.09,1.53.79,1.49,2.93,1.81,6.2,2.59,9.32.32,1.25.63,2.33,1.29,3.47,1.48,2.54,2.32,5.5,4.03,7.84,1.52,2.07,2.68,3.86,2.74,6.59.04,1.79,2.76,1.63,3.88,2.91.77.87,3.2,1.05,1.01,3.07-.46.43-.07,1.83,1.2,2.14,2.71.66.81,1.67.16,2.57-4.66-2.56-7.34-7.08-10.07-11.26-3.64-5.56-7.06-11.37-8.76-17.96-.27-1.05-.63-2.04-.55-3.13Z"/>
      <path class="cls-3" d="M47.58,45.54c-.32-1.71-.76-2.67-2.36-.76-.71.85-2.4.51-2.87,1.82-1.09,3.06-2.84,3.37-5.22,1.37.21-2.28,2.38-2.9,3.65-4.25,5.42-5.73,11.36-10.85,18.33-14.66.8-.44,1.59-.57,2.45-.6.06.2.14.41.19.61.25,1.1,2.36.38,1.96,1.59-.41,1.25-1.58,2.51-2.9,2.84-2.47.61-4.9.94-6.13,3.66-.18.4-1.36.37-2.08.48-.93.13-1.27.72-1.26,1.56,0,.72-.24,1.58.6,2.02.76.41,1.5.2,1.99-.48,1.3-1.81,3.12-2.08,5.13-1.83-3.39,2.98-6.75,6.01-11.5,6.63ZM48.37,38.95c-.44,1.06-.7,1.51-.82,2-.33,1.27.59,1.92,1.41,2.57.16.12.69.07.78-.07.67-1.07-.18-1.69-.74-2.44-.29-.39-.31-.97-.63-2.06Z"/>
      <path class="cls-3" d="M150.77,132.86c.11-1.25-.67-1.93-1.56-2.6-.97-.72-1.13-2.13,0-2.23,2.93-.26,2.88-3.64,5.35-4.48,1.67-.56,1.81-2.63.79-4.17-1.26-1.89-.94-3.42.63-4.82.87-.77,1.32-1.66,1.2-2.84-.14-1.34.2-2.45,1.16-3.51,2.56-2.84.63-6.42,1.37-9.6.26-1.11.04-2.33.04-4.04,1.53,1.07,2.17,2.67,3.79,2.57-.18,13.37-4.49,25.25-12.77,35.7Z"/>
      <path class="cls-3" d="M162.19,76.51c-4.16,1.84-5.08,1.28-4.96-3.52.07-2.76-1.89-4.56-2.63-6.9.89-.13,2.26.38,2.4-.94.17-1.54-.98-2.67-2.07-3.81.92,1.73-.48,3.17-.33,4.75-2.31-1.81-2.52-4.37-2.62-7.03-.04-1.23,1.01-3.56-2.12-2.55-.56.18-1.35-1.1-1.75-2.06-.99-2.39-1.16-5.55-5.11-5.68,1.55-.96,2.87-1.7,2.64-3.51,4.51,3.45,7.14,8.36,9.87,13.13,3.22,5.64,5.2,11.8,6.69,18.12Z"/>
      <path class="cls-3" d="M68.1,159.29c.08-1.55-.31-3.16.32-4.77,1.64.45,2.38,1.73,3.32,2.67,1.2,1.21,2.75,1.2,3.89.71,2.34-1.03,3,1.75,4.78,1.75.04,0,.19.58.09.8-1.67,3.44,1.41,1.49,2.04,2.45,1.03-1.32-1.45-2.95.83-3.44,2.18-.47,3.98.69,5.28,2.19,1.76,2.03,1.78,2.2,2.79-.06.57-1.28,1.58-.89,2.46-.9.89-.01,2.45-.41,2.41.83-.09,2.62,1.72,1.44,2.8,1.75-3.19,1.37-6.58.75-9.8.52-6.31-.45-12.68-.87-18.71-3.15-.9-.34-1.88-.46-2.47-1.34Z"/>
      <path class="cls-3" d="M22.95,79.05c1.17,0,2.55-1.42,3.46.2.69,1.24.56,2.55-.39,3.87-1.65,2.3-2.37,4.8-.74,7.52.49.82-.24,1.65-.47,2.44-.45,1.55-.95,2.88.29,4.48,1.21,1.56-.89,3.42.06,5.51.62,1.38-2-1.35-2.3.66-1.45-.39-1.2-1.62-1.21-2.64-.04-5.59.03-11.19-.07-16.78-.03-1.93.99-3.49,1.37-5.26Z"/>
      <path class="cls-3" d="M46.73,146.48c.19-.82-.02-2.42-.67-3.84,1.52.71,3.02.94,3.7,1.82,1.38,1.78,3.19,2.67,5.08,3.65,1.67.87,4.04,1,3.98,4.08-.02.82,2.64,2.18,4.2,2.42,2.89.44,3.6,2.2,3.83,4.61-6.47-2.79-12.62-6.18-18.47-10.12-.97-.66-1.34-1.59-1.65-2.61Z"/>
      <path class="cls-3" d="M127.53,154.21c-1.08-.99-2.18-3.07-.88-3.33,2.38-.48,2.96-5.8,6.51-2.44.43.4.89.55,1.72.28-.46-1.43-2.06-3.65-.2-4.27,2.26-.76,3.81-4.79,7.06-1.97.26.22.83.07,1.26.09-4.34,4.97-8.96,9.57-15.47,11.65Z"/>
      <path class="cls-3" d="M113.36,24.59c-3.14,2.33-6.31.17-9.46.09-.84-.02-1.78.56-2.5.32-2.09-.68-4.28.05-6.33-.6-.5-1.32,1.7-.98,1.27-2.22-.41-1.19-1.83-.43-2.4-1.29,6.47-.72,12.54,1.4,18.71,2.73.29.06.48.63.72.97Z"/>
      <path class="cls-3" d="M101.63,163.14c.11-1.7-3.55-.83-2.26-3.02.95-1.63,3.43-1.23,4.39-.63,3.72,2.32,5.87-.06,8.29-2.1,1.18-.99,2.19-.91,2.55.81.24,1.17,1.13,1.13,1.98,1.21-4.6,2.79-9.7,3.56-14.94,3.73Z"/>
      <path class="cls-3" d="M35.73,49.77c.17.61.24,1.27.53,1.82.87,1.63,2.03,3.12-.73,4.27-.74.31-.93,1.84-1.49,2.74-1.06,1.72-1.1,1.69-3.58.03,1.77,4.13-.89,5.16-3.55,6.19,2.61-5.22,4.51-10.85,8.82-15.06Z"/>
      <path class="cls-3" d="M75.83,23.31c-.6,5.44-5.38,5.17-8.93,6.37-1.45.49-2.45-.88-2.67-2.46,3.54-2.28,7.54-3.19,11.6-3.91Z"/>
      <path class="cls-3" d="M163.54,89.44c-1.35-.61-2.29,1.65-3.45.67-.7-.59-1.42-2.2-1.1-2.78.72-1.32.58-2.69.96-4,.33-1.15.9-2,.3-3.53-.63-1.59,1.05-1.22,2.07-.78,1.59,3.33,1.52,6.86,1.23,10.41Z"/>
      <path class="cls-3" d="M117.14,159.29c.66-5.18,3.59-7.07,8.18-5.35.67.25,1.46.19,2.19.27-3.14,2.35-5.9,5.47-10.37,5.08Z"/>
      <path class="cls-3" d="M91.98,20.9c-.24.21-.46.44-.71.64-1.05.82.99,2.71-.74,2.94-2.39.32-4.87.22-7.29,0-1.26-.12-.83-1.5-.94-2.4,3.1-1.42,6.37-1.49,9.68-1.18Z"/>
      <path class="cls-3" d="M144.29,141.25c-.06-.63.1-1.41-.22-1.86-.86-1.24-1.34-2.2.6-2.8.32-.1.62-.53.78-.88q1.8-3.83,4.65-.91c-1.99,2.11-2.89,5.2-5.82,6.46Z"/>
      <path class="cls-3" d="M123.6,28.53c-1.09.77-2.17,1.55-3.23,2.3-.94-.79-.47-1.73-.69-2.5-.26-.91-.9-1.41-1.56-.59-2.27,2.81-2.17.76-2.25-1.03-.03-.64-.03-1.28-.05-1.91,2.93.54,5.39,2.06,7.78,3.73Z"/>
      <path class="cls-3" d="M25.43,69.89c.28,1.31-.29,2.61,1.71,3.58,1.65.8-.27,2.26-1.24,2.83-.72.43-1.86.16-2.81.21.95-2.15.4-4.83,2.34-6.62Z"/>
      <path class="cls-3" d="M80.62,23.14c1.46,1.23,1.65,2.23-.51,2.8-.51.13-1.07.14-1.54.36-.81.37-1.9,1.59-2.4.35-.69-1.7,1.27-1.16,2.06-1.57.92-.48,2.12-.56,2.3-1.92,0,0,.09,0,.09,0Z"/>
      <path class="cls-3" d="M141.02,40.2c-.11,0-.22.04-.32.01-1.59-.49-1.92,2.57-3.41,1.46-1.73-1.29,1.25-2.5.48-3.97,1.45.36,2.37,1.4,3.25,2.5Z"/>
      <path class="cls-3" d="M137.72,37.65c-.3.07-.62.09-.9.2-.79.32-1.49,1.59-2.41.66-.8-.81.61-1.35.7-2.13.04-.41.06-.83.09-1.24,1.42.25,2.27,1.08,2.53,2.51Z"/>
      <path class="cls-3" d="M80,23.12c-1.21.04-2.43.09-3.65.13,1.16-1.71,2.37-1.79,3.65-.13Z"/>
      <path class="cls-3" d="M22.98,107.53c1.95.55,1.02,2.13,1.17,3.32-1.35-.77-1.21-2.06-1.17-3.32Z"/>
      <path class="cls-3" d="M126.26,29.78c-.93.06-1.87.11-2.02-1.18.95-.08,1.86-.09,2.02,1.18Z"/>
      <path class="cls-3" d="M62.97,27.36c-.1.82-.57,1.18-1.39,1.11.08-.85.54-1.22,1.39-1.11Z"/>
      <path class="cls-3" d="M145.57,44.71c-1.59.69-1.27-.47-1.26-1.32.58.28,1.12.61,1.26,1.32Z"/>
      <path class="cls-3" d="M142.98,141.23c.44,0,.87.02,1.31.03-.01.85-.43,1.29-1.29,1.29,0-.44-.02-.88-.03-1.32h0Z"/>
      <path class="cls-3" d="M143,42.11c-.22-.22-.43-.43-.65-.65.22.22.43.43.65.65Z"/>
      <path class="cls-3" d="M36.48,48.12c-.16.17-.33.33-.49.5-.02-.35.14-.51.49-.5Z"/>
      <path class="cls-3" d="M143.65,42.75c-.22-.21-.44-.43-.65-.64.22.21.44.43.65.64Z"/>
      <path class="cls-3" d="M142.35,41.46c-.22-.22-.43-.44-.65-.66.22.22.43.44.65.66Z"/>
      <path class="cls-3" d="M144.3,43.4c-.22-.22-.43-.43-.65-.65.22.22.43.43.65.65Z"/>
      <path class="cls-4" d="M91.18,28.72c7.9-.37,12.74,1.39,17.38,3.76,2.49,1.27,3.49,4.11,2.54,7.59-2.19,8.01-5.23,15.73-8.59,23.31-1.9,4.27-4,8.45-5.8,12.76-.83,2-1.77,4.11-3.99,4.04-2.74-.09-4.35-2.34-5.15-4.81-1.91-5.87-4.89-11.29-7.1-17.01-2.37-6.15-5.29-12.13-6.49-18.69-.6-3.29.32-5.77,3.41-7.53,5.12-2.93,10.78-2.97,13.8-3.41Z"/>
      <path class="cls-4" d="M51.35,107.57c-2.35-.14-4.39.97-6.34,1.95-6.33,3.19-12,2.63-14.16-5.39-2.16-8.03-3.07-16.23.71-24.17.58-1.23.17-2.6,1.29-3.84,2.76-3.06,5.99-2.95,9.38-1.95,10.47,3.08,20.29,7.79,30.23,12.23,2.13.95,4.17,2.07,6.26,3.09,2.24,1.08,2.4,2.99.79,4.85-2.67,3.08-6.62,3.72-10,5.41-3.83,1.92-8.12,2.81-11.71,5.28-1.25.43-3.18-1.11-3.73,1.31,0,0-.1.08-.1.08-1.09-.11-2.27-.42-2.61,1.15Z"/>
      <path class="cls-4" d="M78.34,132.13c.08-1.22.16-2.43.23-3.65,2.51-.31,2.44-2.23,2.52-4.06.07-.17.09-.35.05-.54,1.72-1.6,2.58-3.56,2.52-5.93,0,0,0,0,0,0,1.79-1.29,2.36-3.16,2.52-5.24,0,0,0-.01,0-.01,1.83-1.25,2.16-3.22,2.47-5.2,1.13-1.92,2.8-2.88,5.01-2.57,2.4.34,2.26,2.55,3.17,4.17,3.16,5.66,5.32,11.74,7.86,17.66,2.42,5.63,4.49,11.43,6.36,17.27,1.37,4.27-.51,8.35-4.73,9.79-7.76,2.64-15.77,2.41-23.75.85-2.37-.46-4.79-.85-6.57-2.74-3.07-3.25-2.26-6.96-.93-10.52.42-1.13.63-2.22.84-3.35,1.24-1.8,2.45-3.62,2.43-5.94Z"/>
      <path class="cls-4" d="M119.77,146.35c-6.74-6.89-8.94-16.2-12.83-24.58-2.48-5.35-4.67-10.89-6.26-16.63-.49-1.79-.16-3.18,1.1-4.39,1.23-1.18,2.45-.57,3.84-.11,10.57,3.43,20.76,7.82,30.78,12.58,1.78.84,3.65,1.4,5.43,2.29,4.45,2.21,5.28,6.9,3.45,10.98-3.28,7.33-9.23,12.41-15.21,17.41-1.04.03-2.34-.49-2.58,1.23,0,0-.01,0-.01,0-1.05.05-2.33-.4-2.62,1.25,0,0,0,0,0,0-1.7,0-3.41-.02-5.11-.03Z"/>
      <path class="cls-4" d="M73.19,134.71c-1.94,2.56-2.56,5.79-4.66,8.36-2.26,2.78-4.89,3.97-8.42,2.95-3.63-1.05-5.98-3.98-9.08-5.8-4.88-2.87-7.24-8.08-10.74-12.23-2.87-3.4-.82-9.31,2.97-11.96,4.82-3.37,10.1-6.26,15.45-7.95,5.4-1.7,10.51-3.99,15.8-5.86,3.37-1.03,6.75-2.03,10.33-1.14,0,0,0,0,0,0,.66,2.75-1.9,5-1.2,7.75-.03.41-.06.83-.1,1.24-1.58.31-1.2,1.58-1.28,2.62,0,0,0,0,0,0-1.67.27-1.21,1.57-1.26,2.62,0,0,0,0,0,0-1.76,1.8-2.55,3.98-2.51,6.49-.04.41-.07.82-.11,1.23-1.53.34-1.25,1.56-1.27,2.63,0,0,0,0,0,0-2.07,2.68-3.45,5.66-3.93,9.04Z"/>
      <path class="cls-4" d="M47.58,45.54c4.75-.61,8.11-3.64,11.5-6.63.54-.02,1.07-.03,1.61-.05,6.15-.21,7.62,1.22,10.19,6.98,2.31,5.19,4.51,10.45,6.98,15.58,1.79,3.72,2.96,7.93,4.43,11.91.76,2.07,1.57,4.12,2.36,6.17,1.04,2.69-.29,4.69-3.2,4.85-3.91.21-7.05-2.18-10.55-3.28-8.96-2.82-17.21-7.43-25.86-11.07-6.43-2.7-6.89-9.63-3.75-14.14,1.67-2.41,2.82-5.17,5.29-7.03.9-.68,1.07-2.07,1-3.3Z"/>
      <path class="cls-4" d="M119.1,101.25c-4.39-2.61-9.78-3.23-13.54-7.12-1.51-1.56-1.41-2.99.13-4.02,1.49-1,2.82-2.37,4.39-3.03,6.81-2.83,13.83-5.17,20.58-8.12,4.17-1.82,8.46-3.21,12.68-4.84,5.41-2.09,9.78.92,11.32,7.3,1.46,6.05,1.44,12.14,1.12,18.24-.21,4.13-1.45,7.99-5.02,10.62-3.45-.06-6.9-.11-10.36-.17-2.11-1-3.99-2.57-6.49-2.56-3.99-4.34-9.32-5.52-14.81-6.31Z"/>
      <path class="cls-4" d="M104.13,69.95c2.47-6.26,5.02-12.49,7.81-18.63,1.3-2.87,3.72-5.26,3.89-8.63,3.13-1.06,5.58-3.73,9.1-3.86,3.85,1.54,7.15,3.98,10.39,6.49.34,1.35,1.09,2.31,2.52,2.58,0,0,.02.02.02.02.25,1.45,1.27,2.15,2.53,2.61.61.92,1.99,1.21,2.06,2.56.17,1.18.3,2.39,1.86,2.53,0,0,.04.05.04.05.02,1.05-.49,2.35,1.23,2.59,0,0,.01.02.01.02,0,2.6-.01,5.2-.02,7.8,0,0,0,0,0,0-2.23-.06-3.54.99-3.83,3.23-.54,0-1.07.01-1.36.59-1.57.14-3.02.33-4.55,1.14-2.01,1.07-3.95,2.57-6.32,2.82-1.71.18-2.73,1.01-3.24,2.59-4.09.53-7.37,3.18-11.24,4.32-1.92.56-3.72,1.52-5.57,2.3-1.17-.07-2.46-.46-3.44.27-1.36,1.02-2.41,1.11-3.6-.18-1.22-1.33-.77-2.61-.35-4.13.83-3,2.16-5.9,2.06-9.12Z"/>
      <path class="cls-3" d="M104.13,69.95c.1,3.21-1.23,6.12-2.06,9.12-.42,1.52-.87,2.8.35,4.13,1.19,1.3,2.25,1.2,3.6.18.97-.73,2.27-.34,3.44-.27-3.46,3.08-6.66,3.05-9.28.4-1.83-1.86-.03-3.21.26-4.64.63-3.17,1.18-6.49,3.69-8.92Z"/>
      <path class="cls-3" d="M119.1,101.25c5.49.79,10.82,1.97,14.81,6.31-4.39.21-7.43-3.17-11.29-4.42-1.11-.36-2.86-.37-3.53-1.89Z"/>
      <path class="cls-3" d="M126.26,76.49c.51-1.59,1.53-2.41,3.24-2.59,2.37-.25,4.31-1.75,6.32-2.82,1.53-.81,2.98-1.01,4.55-1.14-.53,2.38-2.99,1.75-4.39,2.38-3.2,1.43-5.7,4.69-9.71,4.18Z"/>
      <path class="cls-3" d="M124.93,38.83c-3.52.13-5.97,2.79-9.1,3.86-.36-3.53,2.77-3.89,4.81-4.85,1.14-.54,3.33-1.31,4.29.99Z"/>
      <path class="cls-3" d="M140.4,110.12c3.45.06,6.9.11,10.36.17-1.59,2.63-3.95,3.36-6.41,1.72-1.28-.85-3.52.47-3.95-1.89Z"/>
      <path class="cls-3" d="M84.86,101.1c-3.58-.88-6.96.11-10.33,1.14,2.88-4.12,8.3-4.71,10.33-1.14Z"/>
      <path class="cls-3" d="M73.19,134.71c.48-3.38,1.86-6.36,3.93-9.04,0,2.16.01,4.32.02,6.48,0,0,0,0,0,0-2.48-.97-2.18,2.39-3.94,2.55Z"/>
      <path class="cls-3" d="M83.66,108.85c-.7-2.76,1.85-5,1.2-7.75,2.37,2.14,1.86,5.42-1.2,7.75Z"/>
      <path class="cls-3" d="M141.18,43.03c1.46.56,2.01,1.8,2.3,3.16.13.59-.28.99-.95.84-1.39-.3-2.7-.92-3-2.35-.14-.65.8-1.35,1.65-1.65Z"/>
      <path class="cls-3" d="M78.5,121.82c-.03-2.5.75-4.69,2.51-6.49-.14,2.43.86,5.31-2.51,6.49Z"/>
      <path class="cls-3" d="M145.58,66.11c0-2.6.01-5.2.02-7.8,1.83,1.83,1.82,6.01-.02,7.8Z"/>
      <path class="cls-3" d="M127.58,35.59c1.27-.81,2.24-.56,3.17-.59.6-.02,1.38-.12,1.56.68.07.31-.25.78-.5,1.07-.43.51-.93.8-1.64.33-.74-.5-1.55-.9-2.6-1.5Z"/>
      <path class="cls-3" d="M78.34,132.13c.03,2.32-1.19,4.14-2.43,5.94-.21-2.1-.19-4.15,1.23-5.91,0,0,0,0,0,0,.4,0,.8-.02,1.2-.03Z"/>
      <path class="cls-3" d="M86.16,112.73c-.15,2.08-.73,3.95-2.52,5.24-.16-2.23-.29-4.45,2.52-5.24Z"/>
      <path class="cls-3" d="M88.64,107.52c-.31,1.98-.64,3.95-2.47,5.2-.15-2.2-.09-4.3,2.47-5.2Z"/>
      <path class="cls-3" d="M83.65,117.96c.06,2.36-.8,4.32-2.52,5.93.16-2.26.45-4.48,2.52-5.93Z"/>
      <path class="cls-3" d="M141.73,69.35c.3-2.25,1.61-3.29,3.83-3.23-.46,2.05-2.22,2.55-3.83,3.23Z"/>
      <path class="cls-3" d="M119.77,146.35c1.7,0,3.41.02,5.11.03-1.71,2.12-3.42,2.16-5.11-.03Z"/>
      <path class="cls-3" d="M81.08,124.43c-.07,1.83,0,3.75-2.52,4.06.55-1.53.69-3.32,2.52-4.06Z"/>
      <path class="cls-3" d="M137.84,47.91c-1.44-.28-2.18-1.23-2.52-2.58,1.94-.22,2.76.66,2.52,2.58Z"/>
      <path class="cls-3" d="M54.06,106.33c.55-2.42,2.49-.88,3.73-1.31-.66,2.11-2.48.91-3.73,1.31Z"/>
      <path class="cls-3" d="M140.4,50.54c-1.26-.46-2.29-1.16-2.53-2.61,1.98-.24,2.82.63,2.53,2.61Z"/>
      <path class="cls-3" d="M144.32,55.64c-1.56-.15-1.69-1.35-1.86-2.53,1.9-.1,1.87,1.22,1.86,2.53Z"/>
      <path class="cls-3" d="M124.88,146.38c.29-1.64,1.57-1.2,2.62-1.25-.26,1.71-1.57,1.2-2.62,1.25Z"/>
      <path class="cls-3" d="M77.13,125.67c.02-1.07-.26-2.29,1.27-2.63-.06,1.05.5,2.4-1.27,2.63Z"/>
      <path class="cls-3" d="M81.02,115.33c.06-1.05-.4-2.35,1.26-2.62-.07,1.04.44,2.37-1.26,2.62Z"/>
      <path class="cls-3" d="M82.28,112.71c.08-1.05-.29-2.31,1.28-2.62-.06,1.05.49,2.41-1.28,2.62Z"/>
      <path class="cls-3" d="M51.35,107.57c.35-1.58,1.53-1.26,2.61-1.15-.37,1.52-1.61,1.07-2.61,1.15Z"/>
      <path class="cls-3" d="M145.58,58.28c-1.72-.24-1.2-1.54-1.23-2.59,1.59.3,1.13,1.58,1.23,2.59Z"/>
      <path class="cls-3" d="M127.51,145.13c.24-1.72,1.54-1.2,2.58-1.23-.28,1.63-1.57,1.14-2.58,1.23Z"/>
      <path class="cls-3" d="M161.72,92.47c.13.26.36.52.36.78,0,.36-.36.54-.63.33-.19-.16-.23-.54-.26-.83,0-.06.3-.16.53-.28Z"/>
      <path class="cls-3" d="M39.44,51.03c-.08.18-.12.45-.24.5-.12.05-.34-.13-.51-.2.08-.18.11-.45.24-.5.13-.05.34.13.51.2Z"/>
      <path class="cls-3" d="M142.97,141.23c-.41-.06-.88-.06-.96-.61-.01-.11.25-.37.35-.36.54.07.54.55.6.96h0Z"/>
      <path class="cls-2" d="M48.37,38.95c.32,1.09.34,1.67.63,2.06.56.75,1.41,1.37.74,2.44-.09.14-.63.19-.78.07-.82-.65-1.73-1.3-1.41-2.57.13-.49.38-.94.82-2Z"/>
      <path class="cls-2" d="M154.59,66.1c-.15-1.58,1.25-3.03.33-4.75,1.09,1.14,2.24,2.27,2.07,3.81-.15,1.32-1.51.81-2.4.94h0Z"/>
    </g>
  </g>
</svg>