<?xml version="1.0" encoding="UTF-8"?>
<svg id="Layer_2" data-name="Layer 2" xmlns="http://www.w3.org/2000/svg" viewBox="0 0 185 185">
  <defs>
    <style>
      .cls-1 {
        fill: #d94a16;
      }

      .cls-2 {
        fill: #997b2a;
      }

      .cls-3 {
        fill: #5d4e56;
      }

      .cls-4 {
        fill: none;
      }

      .cls-5 {
        fill: #503f3d;
      }

      .cls-6 {
        fill: #ddcea3;
      }

      .cls-7 {
        fill: #8e5f3d;
      }

      .cls-8 {
        fill: #4c3b35;
      }

      .cls-9 {
        fill: #ac2417;
      }

      .cls-10 {
        fill: #a47250;
      }

      .cls-11 {
        fill: #544344;
      }

      .cls-12 {
        fill: #64494a;
      }

      .cls-13 {
        fill: #c83d19;
      }

      .cls-14 {
        fill: #cc8818;
      }
    </style>
  </defs>
  <g id="borxes">
    <rect class="cls-4" width="185" height="185"/>
    <g>
      <path class="cls-10" d="M148.91,158.09c.36.18.36.37,0,.55v-.55Z"/>
      <path class="cls-2" d="M131.78,52.5c.36.18.36.37,0,.55v-.55Z"/>
      <path class="cls-9" d="M57.97,95.62c-.06-.08-.52.08-.55,0l.28-.54c.36.02.25.54.28.54Z"/>
      <path class="cls-9" d="M64.6,61.9c2.69-.84,6.97.63,10.07-.44,2.6.73,1.86,2.4,2.92,4.31l-.27-3.87,2.76.55c-.15,1.29.19,2.64-.13,4.02-.51,2.22-2.37,4.62-2.63,7.04-.8.38-.75.77-1.11,1.11-1.57,1.46-5.2,4.96-3.32,7.19-1.28,1.13-2.53,4.06-3.32,5.53-2.97,5.53-5.66,11.51-8.29,17.14-.23.49-.9,1.96-1.11,2.21-.09.11-1.27-.08-1.58.89-.34,1.06.09,2.46-.08,3.53s-.35,2.28-.55,3.32c-.65,3.33-2.72,6.01-3.19,8.7-.73,4.26-.6,9.06-2.05,13.43-.64,1.9-7.27,13.4-8.58,14.64-2.87,2.74-10.19,2.68-13.87,1.69-1.47-.39-1.77-1.24-2.17-1.42.26-1.48-.35-1.13-1.66-1.11-.13-.08-.42.08-.55,0-.41-1.62-2.22-2.45-2.68-4.27s.93-1.13,1.02-1.26c.36.03.75-.04,1.11,0-.26,1.48.35,1.13,1.66,1.11,4.75,1.39,12.33-2.54,17.14-3.32-.29,1.43,1.12.98,1.14,1.43.14,3.45-3.48.22-5.57,1.88-.56-.6-1.45-.62-2.21-.55-.73,1.27,1.89,3.9.57,4.71-.66.4-3.29.45-4.07.25-.83-.21.45-1.81-3.57-.13-.81.34-1.51-.35-1.22,1.24,4.39-1.16,8.88,1.4,13.26-1.1,3.64-2.08,4.73-9.67,4.43-13.57-.13-1.7.27-1.42-1.66-1.35,0-.55.02-1.11,0-1.66l.54-.28-.54-.28c-.23-4.76-2.61-10.77-2.71-14.15s.94-9.36,1.05-13.49c.03-1.01.52-1.98.55-2.76,0-.18,0-.37,0-.55,1.62.67,1.87-3.5,2.21-3.87.41-.44.96,1.16,1.11-1.66.03-.55-.03-1.11,0-1.66,1.26-1,1.21-2.94,1.66-4.42.09-.32-.11-.98,0-1.11,1.47-1.64.41-.6,1.11-2.21.04-.09.4-.26.55-.55,1.32-2.6,3.12-5.28,4.42-7.74-.28.61-.02,3.68-.6,5.09-.27.66-3.18,5.23-3.84,6.1-.35.46-1.01.43-1.04.48-.41.74,1.56,1.72,1.55,1.84-.21,2.36-2.6,4.27-1.67,6.71,1.22,3.19,2.03-4.02,2.33-4.86.15-.43,1.81-.82,1.07-2.64l2.75,2.21c-.31-1.67,2.12-2.09,2.22-2.22.15-.2-2.27-2.51-2.21-4.41,1.31-1.67,3.64,1.75,4.42-.28.63-1.66-1.1-1.66-2.2-1.94-.33-1.57.68-1.92,1.66-2.76.32-.27.8.07,1.66-1.11.13-.18.51-.35.55-.55.69-3.3-6.13-2.75-6.63-1.66,1.2-2.27,1.13-3.71,3.32-6.08l1.93,1.67c.35,0-.13-2.51,3.42.17.25.19.1.85.17.92-1.02,1.02,1.16,7.58,1.65,8.02,1.29,1.18,1.07-2.05,2.76-2.22-1.8.3-.84.12-1.09-1.38,1.48-.16,2.59-1.6,3.32-2.76-4.2.3-4.51-6-9.4-4.98-.57-2.34,2.94-.12,3.32-1.65-2.24-.26-3.23-.09-4.97,1.1.24-2.18,1.43-4.93,3.32-6.08,0,.08.81.6.54,1.3-.31.81-1.65.77-1.65,1.18,0,2.43,2.99.86,4.06,1.01.8.11,2.19,1.58,3.69.94-1.16,4.6,3.36.75,1.27-.56-1.17-.74-4.82-1.6-5.44-2.19-1.06-1.02-.49-3.82-1.92-4.99.45-.53.59-.39,1.11-.55ZM71.23,65.78c-.08-.07-1.16-.21-1.1.27.26,3.12,2.88,4.59,3.87.83-2.95.78-2.52-.89-2.77-1.1ZM57.97,95.62c2.16.1,2.06-1.16,3.31-2.49-1.3-1.63-4.44.32-4.97,1.67-.46,1.17,1.01.72,1.1.82.16.18-.32.9.28,1.11,1.19.42.74-.47.27-1.11ZM62.12,93.96v.55c.36-.18.36-.37,0-.55ZM48.75,106.86c.23-.25,5.64-4.42,2.3-5.16-1.54-.34-1.35,3.73-2.79,4.96-.63.54-1.8.45-1.94.88-.16.5-.27,2.35.85,1.89,1.12-.46,1.1-2.06,1.57-2.58ZM51.34,111.66l-4.42-1.11c-.87,3.28,3.04.21,2.76,2.76-1.95.12-3.45.25-4.97-1.1l-.56,5.53c1.84.32,1.63-2.23,2.62-2.77,2.39-1.3,4.21,1.07,4.57-3.31ZM45.81,118.84h-1.1c-.13,1.02-.02,1.61.83,2.21l.27-2.21ZM49.81,132.54c-.45-.87,2.87-4.36-1.24-4.86l.55,7.74h1.65c.84-2.29-.87-2.69-.97-2.88ZM34.75,149.24c.4-.78-.35-1.48-.54-1.1-.4.78.35,1.48.54,1.1Z"/>
      <path class="cls-13" d="M45.26,135.43c1.93-.07,1.53-.34,1.66,1.35.31,3.9-.78,11.49-4.43,13.57-1.8-.44-.75-2.82-1.17-3.28-.16-.17-1.12.11-1.45-.16s-.06-.91-.14-.99c2.09-1.66,5.7,1.56,5.57-1.88-.02-.45-1.43,0-1.14-1.43.58-2.91,1.09-3.73,1.11-7.19Z"/>
      <path class="cls-7" d="M24.25,144.82c-.09.13-1.48-.56-1.02,1.26s2.27,2.65,2.68,4.27c-.36-.22-1.02,0-1.68-.79-.14-.17-2-3.82-2.06-4.04-.17-.65-.94-7.07-.68-7.33,1.97-2.01,3.37,5.77,2.76,6.63Z"/>
      <path class="cls-7" d="M26.46,150.35c1.31-.02,1.92-.37,1.66,1.11-1.16-.53-1.04-.69-1.66-1.11Z"/>
      <path class="cls-7" d="M27.01,145.93c-1.31.02-1.92.37-1.66-1.11,1.5.18,1.56,1.08,1.66,1.11Z"/>
      <path class="cls-13" d="M45.26,133.77c0-.18,0-.37,0-.55l.54.28-.54.28Z"/>
      <path class="cls-6" d="M96.12,29.83c-.66-.23-1.39-.93-2.05-1-.51-.05-.63.42-.72.44-1.1.31-6.49,3.96-7.16,4.72-1.02,1.16-1.65,3.8-2.24,5.23-.64,1.56-1.11,2.84-1.66,4.42-.06.16.06.39,0,.55-.96,2.82-3.29,6.08-2.75,9.08.63,3.49.67,2.56.54,6.4-1.79,1.54-1.63-.57-2-.59-1.02-.03-3.2,1.13-4.02.52-.29-.22-.25-1.56-.73-2.02-.88-.85-3.18-.15-3.75-1.78.91-1,1.54-2.78,2.72-3.63s2.57-.65,3.32-1.66c1.18-1.59,2.44-6.57,3.36-8.53.17-.36.37-.73.55-1.11.56-1.19,1.25-3.08,1.66-3.87,2.13-4.1,10.06-12.18,15.11-10.42.68.24,1.59,1.77,1.46,2.37-.18.86-1.59.79-1.65.86Z"/>
      <path class="cls-13" d="M55.21,79.04c.5-1.1,7.32-1.64,6.63,1.66l-.55.55c-.86,1.18-1.34.84-1.66,1.11-2.19-2.1-3.82,3.34-3.87,4.98-.06,1.91,2.36,4.21,2.21,4.41-.1.14-2.53.55-2.22,2.22l-2.75-2.21c.74,1.82-.92,2.21-1.07,2.64-.29.85-1.11,8.05-2.33,4.86-.93-2.43,1.46-4.34,1.67-6.71.01-.12-1.96-1.11-1.55-1.84.03-.05.68-.02,1.04-.48.67-.87,3.57-5.44,3.84-6.1.58-1.41.32-4.49.6-5.09Z"/>
      <path class="cls-13" d="M69.58,55.82c.57,1.63,2.87.93,3.75,1.78.49.47.44,1.81.73,2.02.82.6,3.01-.55,4.02-.52.37.01.2,2.12,2,.59-.04,1.09.15,1.47,0,2.76l-2.76-.55.27,3.87c-1.06-1.91-.32-3.59-2.92-4.31-3.11,1.07-7.38-.41-10.07.44.98-2.29,3.29-4.21,4.98-6.08Z"/>
      <path class="cls-1" d="M59.63,71.85c1.74-1.19,2.73-1.36,4.97-1.1-.38,1.53-3.89-.68-3.32,1.65,4.89-1.02,5.2,5.29,9.4,4.98-.73,1.16-1.84,2.6-3.32,2.76-.47-2.78-1.66-2.84-3.32-4.42-.07-.07.08-.73-.17-.92-3.55-2.68-3.07-.17-3.42-.17l-1.93-1.67c.32-.34.75-.86,1.11-1.11Z"/>
      <path class="cls-1" d="M39.73,145.93c.07.08-.2.72.14.99s1.29-.01,1.45.16c.42.46-.63,2.84,1.17,3.28-4.39,2.51-8.87-.05-13.26,1.1-.29-1.59.41-.9,1.22-1.24,4.02-1.69,2.74-.08,3.57.13.78.2,3.41.15,4.07-.25,1.33-.81-1.3-3.45-.57-4.71.76-.07,1.65-.04,2.21.55Z"/>
      <path class="cls-13" d="M63.5,62.45c1.44,1.16.87,3.97,1.92,4.99.61.59,4.27,1.46,5.44,2.19,2.09,1.32-2.43,5.17-1.27.56-1.5.64-2.89-.82-3.69-.94-1.07-.15-4.06,1.42-4.06-1.01,0-.4,1.34-.36,1.65-1.18.27-.7-.53-1.22-.54-1.3-.1-1.26-.27-2.34.55-3.32Z"/>
      <path class="cls-13" d="M51.34,111.66c-.37,4.38-2.19,2.01-4.57,3.31-.99.54-.77,3.09-2.62,2.77l.56-5.53c1.52,1.35,3.02,1.22,4.97,1.1.29-2.55-3.63.52-2.76-2.76l4.42,1.11Z"/>
      <path class="cls-13" d="M64.05,75.72c1.66,1.58,2.84,1.65,3.32,4.42.26,1.5-.71,1.68,1.09,1.38-1.7.17-1.47,3.41-2.76,2.22-.49-.45-2.67-7-1.65-8.02Z"/>
      <path class="cls-1" d="M59.63,82.35c-.98.83-1.98,1.18-1.66,2.76,1.1.28,2.84.28,2.2,1.94-.77,2.03-3.11-1.39-4.42.28.05-1.64,1.68-7.07,3.87-4.98Z"/>
      <path class="cls-13" d="M49.81,132.54c.1.19,1.81.59.97,2.88h-1.65s-.55-7.74-.55-7.74c4.11.5.79,3.98,1.24,4.86Z"/>
      <path class="cls-13" d="M57.97,95.62c.47.64.92,1.53-.27,1.11-.6-.21-.12-.93-.28-1.11.04.08.49-.08.55,0Z"/>
      <path class="cls-13" d="M57.42,95.62c-.09-.1-1.56.35-1.1-.82.52-1.35,3.67-3.3,4.97-1.67-1.26,1.33-1.16,2.59-3.31,2.49-.03,0,.08-.52-.28-.54l-.28.54Z"/>
      <path class="cls-13" d="M48.75,106.86c-.47.51-.45,2.11-1.57,2.58-1.12.46-1.01-1.39-.85-1.89.14-.43,1.31-.35,1.94-.88,1.43-1.23,1.25-5.3,2.79-4.96,3.34.74-2.07,4.9-2.3,5.16Z"/>
      <path class="cls-13" d="M71.23,65.78c.25.21-.18,1.88,2.77,1.1-.99,3.77-3.61,2.29-3.87-.83-.06-.49,1.02-.34,1.1-.27Z"/>
      <path class="cls-12" d="M49.13,90.65c-.44,1.49-.4,3.42-1.66,4.42,0-.04-.47-.29-.43-.72.09-.95,1.46-2.29.98-3.7.37,0,.74,0,1.11,0Z"/>
      <path class="cls-13" d="M45.81,118.84l-.27,2.21c-.85-.6-.96-1.19-.83-2.21h1.1Z"/>
      <path class="cls-12" d="M47.47,96.73c-.14,2.82-.69,1.22-1.11,1.66-.02-1.31-.37-1.92,1.11-1.66Z"/>
      <path class="cls-1" d="M34.75,149.24c-.19.38-.94-.32-.54-1.1.19-.38.94.32.54,1.1Z"/>
      <path class="cls-1" d="M61.29,81.25l.55-.55c-.04.2-.42.38-.55.55Z"/>
      <path class="cls-13" d="M62.12,93.96c.36.18.36.37,0,.55v-.55Z"/>
      <path class="cls-14" d="M82.85,44.21h-.55c.06-.17-.06-.39,0-.55.2.17.36.38.55.55Z"/>
      <path class="cls-12" d="M78.43,35.91c1.6.65,1.66,2.15,2.76,1.11-.41.79-1.1,2.68-1.66,3.87-.35-.05-.8.08-1.11,0-.55-.14-.97-.52-1.11-.55.16-1.25-.99-1.33-1.67-2.03v-.73c.34-.58.78-1.54,1.12-2.21.49.35,1.16.35,1.66.55Z"/>
      <path class="cls-12" d="M83.95,39.23c-.29,1.11,1.28,1.72,2.21,2.21l6.08,6.08c.08.15-.08.41,0,.55,1.76,3.26,3.06,6.51,4.42,9.95.05.27.82.98.55,1.66-.73.53-1.87,1.52-2.76,2.21.28-2.65-1.05-4.94-2.21-7.19-2.57-4.99-4.27-6.81-8.85-9.95-.18-.13-.36-.38-.55-.55s-.35-.39-.55-.55c.55-1.59,1.02-2.86,1.66-4.42Z"/>
      <path class="cls-3" d="M161.91,107.78c-.68,6.1-9.65,15-14.74,18.16-2.75,1.7-6.49,2.37-9.04,4.51-.18-.01-.38-.01-.55,0-3.7.3-9.03,2.61-13.27,3.32-13.79,2.3-26.44.07-39.8-3.31.33,1.15,1.7,1.2,2.65,1.49,9.46,2.97,20.66,3.59,30.52,3.48.13,1.16-1.93.26-2.21.55-.53.55-.07,3.06,1.67,2.21-1.14,2.11,1,3.55.56,5.7-.09.45-.98.44-1.11.75-.38.86-.36,2.04-.68,2.56-.76,1.25-3.42,2.92-3.19,4.8-1.32.37-2.83.42-3.87,1.11-.18,0-.37,0-.55,0,.31-1.76-.89-.98-1.93-1.09-4.09-.44-10.38-1.15-13.96-3.21-1.51-.87-2.8-3.57-4.61-4.79-1.14-.77-3.3-1.21-3.7-1.55-.47-.4-.35-1.5-.8-1.96-.51-.51-1.94-.35-2.12-1.01-.64-2.35.82-1.61,1.63-2.18,1.57-1.09.85-3.13.88-4.7l-11.32-5.51c-.56-2.75,3,.97,2.76-1.64-4.55-.8-7.87-5.46-11.06-8.3.48-1.31,1.49.14,1.94.55,2.74,2.51,2.77,2.63,5.67,4.4,8.71,5.33,15.28,7.7,25.56,8.87.18.02.37-.02.55,0-.31,1.67.85,1.06,1.91,1.11,2.2.1,4.47.04,6.38,0,.18,0,.44-.04.55,0,9.53,3.63,26.13-1.67,34.71-6.04,3.81-1.94,5.31-2.29,8.41-5.01,1.9-1.67,2.68-2.16,3.87-4.42.2-.39.38-.64.55-1.11,1.02-.43,2.41-1.09,2.76-2.21.05-.16-.05-.38,0-.55.79-.23,1.06-.87,1.11-1.66.21-.22.35-.78.55-1.11l.55-.55c.1-.45-.03-1.13,0-1.66,1.39.42,1.01-1.02,1.11-1.11.07-.06,1.6-.62,1.65-.55.06.08.05,1.29,0,1.66ZM76.91,127.12c0-.38-.31-.68-.68-.68s-.68.31-.68.68.31.68.68.68.68-.31.68-.68ZM80.08,128.24c-.78-.4-1.48.35-1.1.54.78.4,1.48-.35,1.1-.54ZM83.95,129.9c-.78-.4-1.48.35-1.1.54.78.4,1.48-.35,1.1-.54Z"/>
      <path class="cls-11" d="M61.84,115.52c.68.4,1.62,1.13,2.21,1.66,3.19,2.84,6.5,7.5,11.06,8.3.24,2.61-3.32-1.11-2.76,1.64l11.32,5.51c-.03,1.57.69,3.61-.88,4.7-.81.56-2.27-.17-1.63,2.18.18.66,1.61.5,2.12,1.01.45.46.34,1.56.8,1.96.4.34,2.56.78,3.7,1.55,1.81,1.22,3.1,3.92,4.61,4.79,3.58,2.06,9.86,2.77,13.96,3.21,1.04.11,2.24-.67,1.93,1.09-8.67-.34-15.6-1.47-23.23-5.8-4.14-2.35-14.05-9.44-15.47-14.11-.34-1.12-.21-4.19-.8-5-.56-.76-2.11-.28-2.8-1.07-.49-.56-.49-2.1-.95-2.92-1.65-2.98-3.66-5.67-4.84-8.98.34-.77,1.21.02,1.65.28ZM80.78,137.07c0-.38-.31-.68-.68-.68s-.68.31-.68.68.31.68.68.68.68-.31.68-.68Z"/>
      <path class="cls-5" d="M138.13,130.45c3.84.25,3.26,2.86,1.93,5.52l5.81-.54-1.84,3.13-5.34,5.16s-2.36,2.63-2.21,3.32c-1.03.62-2.81.81-3.69,1.3-.31.17-.59,1.15-1.29,1.47-6.7,3.03-15.41,3.51-22.67,3.32,1.04-.68,2.55-.74,3.87-1.11,3.27-.9,1.59-1.61,2.56-2.27.5-.34,1.77-.38,2.53-.66.32-.11,2.86-1.96,2.09-.13-.21.5-1.98,1.35-.57,2.23.92.58,4.17.34,4.85-.44.43-.5.1-1.63,1.26-2.32s4-.5,4.69-1.39c.56-.72-.15-1.6-.58-1.67-.52-.09-1.52,1.06-2.74,1.17-1.06.09-4.26-.15-5.26-.9-.35-1.59,1.9-.48,2.21-.82.19-.2-.2-2.02,0-2.22.95-.97,2.69.54.55,2.21,2.01.49,3.14-1.14,4.67-1.68,2.43-.86,6.73-.63,5.83-3.84-1.93.54-4.21.68-2.76-1.65-1.34-.37-3.11,1.19-4.11,1.13-.31-.02-.24-1.02-.69-1.13-.93-.23-5.21-.16-5.71-.56-.44-1.86,2.57-.94,4.01-1.25,1.15-.25,1.7-.61,2.63-.96,2.78-1.05,4.57-2.09,7.75-3.06.91-.28,1.97.12,1.65-1.36.18-.01.38-.01.55,0ZM138.41,135.98v.55c.36-.18.36-.37,0-.55ZM134.26,136.53h-1.65v1.1h1.65v-1.1Z"/>
      <path class="cls-3" d="M145.87,76.82c3.35,1.57,4.47,2.08,6.63,4.98,1.88,2.52,3.07,2.66,4.24,4.05,1.23,1.47,4.9,9.8,5.71,11.98.21.57.38,1.07.55,1.66l-1.65,2.76v-3.87c-.11-.16-1.03.58-1.11.56-.18-.06-1.42-2.8-1.66-3.32-3.72-8.24-8.37-13.7-16.59-17.69-.17-.08-.46-.86-1.32-1.15-1.11-.38-1.93-.5-3.1-.51-.34,0-.84-.07-1.11,0-.34-.96-.83-1.8-1.11-2.76,3.63,1.07,6.78,1.57,10.5,3.32Z"/>
      <path class="cls-8" d="M58.52,111.1c1.74-.05,2.39,3.05,3.32,4.42-.45-.26-1.31-1.05-1.65-.28,1.18,3.3,3.19,5.99,4.84,8.98.46.83.45,2.36.95,2.92.69.79,2.24.31,2.8,1.07.6.81.46,3.89.8,5-2.52-.8-4.38-4.45-5.76-6.68-2.46-3.97-4.09-7.81-5.85-12.12.2-1.04.39-2.26.55-3.32Z"/>
      <path class="cls-11" d="M160.25,98.94c.09.03,1-.72,1.1-.56v3.87s1.66-2.76,1.66-2.76c1.02,3.57.4,4.9,0,8.29h-1.11c.04-.37.06-1.58,0-1.66-.05-.07-1.59.5-1.65.55.5-2.37-.82-4.99-.55-7.19,0-.04.55-.22.55-.55Z"/>
      <path class="cls-12" d="M132.6,71.3c3.89.58,8.38,2.14,11.81,3.97.77.41,1.75.21,1.46,1.56-3.73-1.75-6.87-2.25-10.5-3.32-1.75-.52-2-1.7-2.76-2.21Z"/>
      <path class="cls-5" d="M162.46,97.83c-.81-2.18-4.48-10.51-5.71-11.98s-2.36-1.54-4.24-4.05c5.68,2.2,9.58,10.24,9.95,16.03Z"/>
      <path class="cls-11" d="M124.31,133.77c-.48,1.96,2.28.85,3.87,1.11-.93.35-1.48.71-2.63.96-1.44.31-4.45-.61-4.01,1.25.5.4,4.78.33,5.71.56.45.11.37,1.11.69,1.13,1,.05,2.77-1.5,4.11-1.13-1.45,2.34.83,2.19,2.76,1.65.91,3.22-3.4,2.99-5.83,3.84-1.54.54-2.67,2.16-4.67,1.68,2.14-1.67.4-3.18-.55-2.21-.19.2.19,2.02,0,2.22-.31.33-2.56-.78-2.21.82,1,.74,4.19.99,5.26.9,1.22-.11,2.22-1.26,2.74-1.17.43.08,1.13.96.58,1.67-.69.89-3.56.71-4.69,1.39s-.83,1.83-1.26,2.32c-.68.79-3.93,1.02-4.85.44-1.41-.89.35-1.73.57-2.23.77-1.83-1.77.01-2.09.13-.76.28-2.04.32-2.53.66-.97.66.71,1.36-2.56,2.27-.23-1.88,2.43-3.55,3.19-4.8.32-.52.3-1.7.68-2.56.14-.31,1.02-.3,1.11-.75.45-2.15-1.69-3.59-.56-5.7-1.73.85-2.2-1.67-1.67-2.21.29-.29,2.34.61,2.21-.55-9.86.11-21.06-.51-30.52-3.48-.94-.3-2.32-.35-2.65-1.49,13.37,3.38,26.02,5.62,39.8,3.31ZM130.12,138.74v.55c.36-.18.36-.37,0-.55Z"/>
      <path class="cls-8" d="M137.58,130.45c.32,1.48-.74,1.09-1.65,1.36-3.18.97-4.96,2.01-7.75,3.06-1.59-.25-4.35.85-3.87-1.11,4.24-.71,9.57-3.01,13.27-3.32Z"/>
      <circle class="cls-11" cx="76.23" cy="127.12" r=".68"/>
      <path class="cls-11" d="M83.95,129.9c.38.19-.32.94-1.1.54-.38-.19.32-.94,1.1-.54Z"/>
      <path class="cls-11" d="M80.08,128.24c.38.19-.32.94-1.1.54-.38-.19.32-.94,1.1-.54Z"/>
      <circle class="cls-3" cx="80.1" cy="137.07" r=".68"/>
      <rect class="cls-11" x="132.61" y="136.53" width="1.65" height="1.1"/>
      <path class="cls-8" d="M163.01,107.78c-.65,5.44-1.89,10.29-4.33,15.3s-12.59,19.44-17.79,21.19c-.39.13-1.16-.09-1.66,0-.13-.16-.37-.36-.55-.55l5.34-5.16,1.84-3.13-5.81.54c1.33-2.66,1.92-5.27-1.93-5.52,2.54-2.14,6.29-2.81,9.04-4.51,5.09-3.15,14.05-12.06,14.74-18.16h1.11ZM151.4,125.48c-.37-.4-6.38,2.45-7.14,3.08-2.26,1.88-1.64,3.68-2.8,5.76,3.08.57,4.49-2.9,7.47-3.86.95-.78-1.53-.47-.83-1.1.34-.31,4.71-2.36,3.31-3.87Z"/>
      <path class="cls-8" d="M138.41,135.98c.36.18.36.37,0,.55v-.55Z"/>
      <path class="cls-5" d="M151.4,125.48c1.4,1.51-2.97,3.57-3.31,3.87-.7.64,1.78.32.83,1.1-2.98.96-4.39,4.43-7.47,3.86,1.16-2.08.54-3.88,2.8-5.76.76-.63,6.77-3.48,7.14-3.08Z"/>
      <path class="cls-11" d="M142,77.93c8.22,3.99,12.86,9.45,16.59,17.69-1.29,1.08-2.02-.76-2.76-1.66-1.45-1.75-3.01-6.07-3.31-6.37-.44-.45-1.58-.61-2.19-1.13-2.52-2.16-2.67-3.87-6.67-2.46-.97-1.04-1.4-1.69-2.21-2.76-.31-1.46-1.47-3.74.55-3.32Z"/>
      <path class="cls-12" d="M142,77.93c-2.02-.43-.86,1.86-.55,3.32-1.27-1.68-2.47-3.4-3.87-4.98,1.17.01,1.99.14,3.1.51.86.29,1.15,1.07,1.32,1.15Z"/>
      <path class="cls-5" d="M130.12,138.74c.36.18.36.37,0,.55v-.55Z"/>
      <path class="cls-5" d="M155.82,93.96h-.55c-4.19-2.19-8.58-6.71-11.61-9.95,3.99-1.41,4.15.3,6.67,2.46.61.52,1.75.68,2.19,1.13.29.3,1.85,4.62,3.31,6.37Z"/>
      <path class="cls-13" d="M111.04,53.05c.22.07.75.39,1.11.55.84.39,3.06,1.67,3.87,2.21.73.49,4.9,3.79,5.53,4.42.93.95,1.68,2.67,2.76,3.87,3.34,3.7,4.13,4.41,8.29,7.19.76.51,1.01,1.7,2.76,2.21.28.97.77,1.81,1.11,2.76.27-.07.76,0,1.11,0,1.4,1.58,2.6,3.3,3.87,4.98.81,1.07,1.24,1.73,2.21,2.76,3.03,3.24,7.42,7.76,11.61,9.95-.62,3.03,2.73,2.91,3.32,5.53.36.04.74-.03,1.11,0-.27,2.19,1.06,4.82.55,7.19-.1.08.28,1.53-1.11,1.11.15-2.32-.04-6.04-.55-8.29-2.48-.29-2.23-1.66-3.72-2.63-.94-.62-2.36-.84-3.29-1.42-.64-.4-1.14-2.94-1.86-.65-.17.54-.5,1.97-.53,2.5,2.08.38,2.65-.66,2.76,2.76-2.49.26-2.91-.4-2.76-2.76-2.18-.4-2.55-4.68-6.63-3.87.24.84.28,2.16.6,2.87.19.42,4.3,4.34.81,3.73-1.75-.3-7.59-5.58-5-6.61.65-.26-.28,1.89.82,1.65-.28-1.56,2.1-2.07,2.22-2.49.32-1.13-.95-.61-1.1-1.21-.84-3.25-.45-1.47-1.6-3.03-.25-.34.45-1.24.34-1.76-.21-.98-1.13-1.5-.96-2.56.35-.37,4.58,3.35,3.86.84-.78-2.72-4.47-3.89-5.82-6.92-.27-.6-.11-1.27-.25-1.66-.95.25-.15,1.33-1.1,1.1.57-3.08-3.99-1.61-3.33-4.42-1-.22-.35.93-.55,1.1-.43.37-5.61-3.7-4.42-5.53-2.74.21-.61,3.02-2.75,2.76.61-1.32-1.09-1.78-1.13-2.03-.15-.91.59-1.97.48-2.31-.13-.37-4.68-4.91-5.1-5.64-.78-1.35-.39-3.73-2.52-4.16-.7-.14-1.1.9-1.68.63-1.47-.69-.11-4.08-4.62-4.14-1.73-.02-5.95,2.58-6.84,3.99-.34.54.02,1.42-.27,1.91-1.49,2.56-8.17,4.41-10.38,5.4-.34.15-2.94,2.37-2.77,2.47,2.01-.24.78,1.46.53,2.76l-1.07-.54c.14,2.48-1.56,1.87-2.25,2.58-.76.77-.93,2.65-1.89,3.54-1.6,1.47-4.63,2.1-5.82,2.73.35-2.12,2.63-2.73,3.57-3.91.42-.53.18-1.43.3-1.61.05-.08.73-.7,1.11-1.11,2.99-3.21,7.32-7.49,10.5-9.95.89-.69,2.03-1.68,2.76-2.21,1.67-1.21,4.71-2.13,6.05-3.07,1.19-.83,1.37-1.94,3.34-3.01.25-.14.95-.51,1.11-.55,1.39-.41,1.92-.45,3.32,0Z"/>
      <path class="cls-1" d="M78.98,78.48c1.19-.63,4.22-1.26,5.82-2.73.97-.89,1.13-2.76,1.89-3.54.69-.71,2.39-.1,2.25-2.58l1.07.54c.25-1.3,1.49-3-.53-2.76-.17-.1,2.43-2.32,2.77-2.47,2.21-.98,8.89-2.84,10.38-5.4.29-.49-.07-1.38.27-1.91.89-1.41,5.11-4.01,6.84-3.99,4.52.06,3.16,3.45,4.62,4.14.58.27.98-.77,1.68-.63,2.12.43,1.74,2.81,2.52,4.16.42.73,4.97,5.27,5.1,5.64.12.34-.62,1.4-.48,2.31.04.25,1.74.72,1.13,2.03,2.14.25.02-2.56,2.75-2.76-1.19,1.83,4,5.9,4.42,5.53.2-.17-.45-1.32.55-1.1-.66,2.81,3.9,1.34,3.33,4.42.95.22.15-.86,1.1-1.1.14.4-.02,1.06.25,1.66,1.35,3.03,5.04,4.19,5.82,6.92.72,2.51-3.51-1.2-3.86-.84-.17,1.06.75,1.58.96,2.56.11.52-.59,1.43-.34,1.76,1.15,1.56.76-.22,1.6,3.03.15.6,1.42.08,1.1,1.21-.12.42-2.5.93-2.22,2.49-1.1.24-.17-1.91-.82-1.65-2.58,1.03,3.25,6.3,5,6.61,3.49.6-.62-3.32-.81-3.73-.33-.71-.36-2.03-.6-2.87,4.08-.81,4.46,3.47,6.63,3.87-.14,2.36.27,3.02,2.76,2.76-.11-3.42-.68-2.38-2.76-2.76.03-.53.37-1.95.53-2.5.71-2.28,1.22.25,1.86.65.93.58,2.35.8,3.29,1.42,1.49.98,1.24,2.34,3.72,2.63.51,2.25.7,5.97.55,8.29-.03.53.1,1.2,0,1.66-.02.09-.41.32-.55.55-.2.33-.35.89-.55,1.11-.12.12-.99-.14-1.1,0-.16.18.12,1.23,0,1.66-.05.17.05.39,0,.55-.65.11-1.67-.17-2.21,0,.41-2.03,1.69-4.43-1.1-4.98l-.55,6.08c.16.22,1.2-.96,1.65-1.11-.18.88-.23,1.32-.55,2.21-.17.47-.35.72-.55,1.11-1.07.99-4.01-.24-4.38.03-.21.15-1.8,4.15-1.7,4.95-.69.27-1.56.73-2.21,1.11-1.13.4-1-1.02-1.45-1.08-.92-.14-2.68.52-4.23-.05-.17-.06-1.41-2.58-2.61.32-.29.71,3,1.7-.55,2.48.59-3.13-2.53-2.88-1.11-5.52-2.34,1.48-1.71-1.65-3.86-1.66-.5.97.65,4.7.5,4.89s-1.01.25-1.33.61c-.57.64-1.11,1.99-1.75,2.17-1.58.44-2.13-1.37-4.64,1.45-.63,2.83-4.65,3.38-6.61,5.25-4.24.23-6.83.16-11.06,0-.18,0-.37,0-.55,0-.73-.03-1.48.05-2.21,0,.63-1.71-2.86-1.47-3.87-.55-.55-.05-1.11.05-1.66,0,.2-2.18-.77-.61-1.11-.55s-.76.02-1.11,0c.53-1.66-3.36-1.35-4.98-1.66-10.33-1.98-20.25-6.7-27.09-14.93-1.08-2.9-.9-6.84-2.76-9.4,2.64-5.63,5.33-11.6,8.29-17.14,2.07.8,2.44-2.85,2.78-3.31.05-.06.71.48.96.37.76-.34,3.03-3.92,3.44-4.81.79-.38,1.43-.7,2.21-1.11ZM104.13,58.03v.55c.36-.18.36-.37,0-.55ZM129.28,74.06c-.68-.77-2.79,2.61-2.79,3.03,0,1.68,2.53.85,2.25,2.49,2.71-2.04,1.18-3.23.54-5.52ZM129.23,84.62c-.78-.63-2.07-.09-1.61,1.33.06.18,2.03.7,1.12,3.04h1.65c.33-.32-.98-4.23-1.16-4.37ZM123.21,93.41c2.73-.77-2.06-6.83-3.32-5.53l.55,3.31-2.21-2.2c-.31.72.92,4.8,1.11,4.97.32.3,1.64-.6,2.2-.56l-1.1-1.09c1.67-.38,3.16-1.59,2.77,1.1ZM136.47,93.96c.69-4.7-4.82-9.37-1.24-1.22.34.78-.36,1.52,1.24,1.22ZM130.39,95.62c.38-.45-.3-4.77-1.65-4.97-1.14,2.31-1.56,4.28,1.65,4.97ZM120.44,95.63c.09-.12,1.41-.14,1.65-.85l-2.76.28.38,1.09,1.83,1.67c.43-.94-1.36-1.87-1.1-2.2ZM127.31,98.15c-.32-.34-.12-1.02-.51-.87-2.11.84.9,3.33,1.38,2.76.36-1.64-.29-1.28-.87-1.89ZM154.16,97.28c-1.4-1.5-1.18,3.01-1.07,3.57.08.44,1.39,3.52,2.18,2.51-.03-.88-.9-5.85-1.11-6.08ZM73.45,98.39c-1.44-.26-.98.25-1.35,1.11-2.18,5.1,1.43,2.36,1.35-1.11ZM129.01,100.04v.55c.36-.18.36-.37,0-.55ZM143.11,102.8c-.06-.06-1.58-.05-1.64,0-.93.78.41,7.29,0,8.84,1.16-.62.59-2.36,1.68-3.56.15-.17,2.65-2.16,3.13-2.52,1.25-.93,2.91.12.94-2.76-.88.42-2.23.35-2.98.86-.6.4-.26,1.52-1.11,1.36-.11-.53.15-2.06,0-2.21ZM156.79,105.71c-.87-.72-4.7-1.17-4.28.69.19.83,3.64,1.62,4.41,2.49.21-.96.76-2.44-.14-3.18ZM149.74,107.23c-2.99-.69-2.76,4.53-1.37,4.97,2.62.83,2.03-3.54,1.37-4.97ZM146.01,111.09c0-.38-.31-.68-.68-.68s-.68.31-.68.68.31.68.68.68.68-.31.68-.68ZM146.97,113.31c.27-2.3-.82-2.3-.54,0h.54ZM120.72,113.86v.55c.36-.18.36-.37,0-.55ZM137.79,114.73c-.24-.2-.15-1.51-.77-.58.61,1.4.69,3.04,1.1,4.44.8,2.73,2.38-2.22,2.2-2.47-.08-.12-1.78-.78-2.53-1.39ZM118.23,116.63c1.78.28,3.09-.95,1.37-2.2h-.81s-.56,2.2-.56,2.2ZM145.87,116.08c-2.19.2-3.21,2.06-3.87,3.86,2.29-.25,4.35-1.23,3.87-3.86ZM123.64,117.86c-1-1.47-3.63-.34-4.07,1.51-.9,3.79,1.92,6.03,5.42,4.44,2.38-1.08-.41-3.03-.95-3.9-.36-.59-.12-1.62-.41-2.04ZM112.15,119.39c-2.4-.11-7.16,3.07-2.35,2.64l2.35-2.64ZM119.89,125.48c-1.92-1.8-4.05,3.7-3.31,4.42,1.86,1.81,4.19-3.6,3.31-4.42Z"/>
      <path class="cls-12" d="M60.18,106.68c.13,3.28,2.05,4.99,3.87,7.19,6.84,8.22,16.76,12.95,27.09,14.93,1.03,1.15,3.44,1.59,4.98,1.66.35.02.79.05,1.11,0v.55c-10.28-1.17-16.85-3.54-25.56-8.87-2.9-1.77-2.92-1.9-5.67-4.4-.45-.41-1.47-1.86-1.94-.55-.59-.53-1.53-1.26-2.21-1.66-.93-1.38-1.58-4.47-3.32-4.42.17-1.07-.26-2.47.08-3.53.31-.97,1.49-.78,1.58-.89Z"/>
      <path class="cls-13" d="M64.05,113.86c-1.82-2.19-3.74-3.9-3.87-7.19.2-.25.87-1.72,1.11-2.21,1.86,2.56,1.69,6.49,2.76,9.4Z"/>
      <path class="cls-13" d="M76.77,79.59c-.42.89-2.68,4.47-3.44,4.81-.25.11-.91-.43-.96-.37-.35.46-.71,4.11-2.78,3.31.79-1.47,2.04-4.39,3.32-5.53.17-.15,3.31-1.94,3.87-2.21Z"/>
      <path class="cls-12" d="M149.74,121.05c-3.1,2.73-4.61,3.07-8.41,5.01-8.57,4.37-25.18,9.67-34.71,6.04v-.55c4.23.16,6.81.23,11.06,0,12.01-.66,17.46-2.92,27.64-8.85.65-.38,1.52-.84,2.21-1.11.7-.27,1.5-.32,2.21-.55Z"/>
      <path class="cls-13" d="M153.61,116.63c-1.19,2.26-1.97,2.75-3.87,4.42-.71.23-1.52.29-2.21.55-.09-.79,1.49-4.79,1.7-4.95.37-.27,3.31.96,4.38-.03Z"/>
      <path class="cls-12" d="M99.99,131c1.31.12,2.48.47,3.87.55.73.05,1.48-.03,2.21,0v.55c-1.91.05-4.19.1-6.38,0-1.06-.05-2.22.57-1.91-1.11.18.02.37-.02.55,0,.54.05,1.11-.05,1.66,0Z"/>
      <path class="cls-13" d="M154.72,113.31c-.46.14-1.49,1.33-1.65,1.11l.55-6.08c2.79.55,1.51,2.95,1.1,4.98.54-.17,1.56.11,2.21,0-.36,1.12-1.74,1.78-2.76,2.21.32-.89.38-1.34.55-2.21Z"/>
      <path class="cls-13" d="M158.04,111.1c-.05.79-.31,1.42-1.11,1.66.12-.43-.16-1.48,0-1.66.11-.13.99.12,1.1,0Z"/>
      <path class="cls-13" d="M97.22,130.45c.33-.05,1.31-1.63,1.11.55-.18-.02-.37.02-.55,0s-.37.02-.55,0v-.55Z"/>
      <path class="cls-13" d="M158.59,109.99c.14-.23.53-.47.55-.55l-.55.55Z"/>
      <path class="cls-13" d="M106.62,132.11c-.11-.04-.37,0-.55,0v-.55c.18,0,.37,0,.55,0v.55Z"/>
      <path class="cls-8" d="M158.59,95.62c.23.52,1.48,3.26,1.66,3.32,0,.33-.55.51-.55.55-.36-.03-.75.04-1.11,0-.59-2.61-3.93-2.5-3.32-5.53h.55c.75.9,1.47,2.74,2.76,1.66Z"/>
      <path class="cls-13" d="M117.68,131.56c1.95-1.87,5.98-2.43,6.61-5.25,2.5-2.82,3.05-1.01,4.64-1.45.65-.18,1.18-1.52,1.75-2.17.32-.36,1.18-.42,1.33-.61s-1-3.92-.5-4.89c2.15,0,1.52,3.14,3.86,1.66-1.42,2.64,1.7,2.39,1.11,5.52,3.56-.77.26-1.76.55-2.48,1.19-2.89,2.44-.38,2.61-.32,1.55.57,3.31-.08,4.23.05.44.06.32,1.49,1.45,1.08-10.18,5.93-15.64,8.19-27.64,8.85ZM136.75,125.47v.55c.36-.18.36-.37,0-.55Z"/>
      <path class="cls-13" d="M123.64,117.86c.28.42.05,1.46.41,2.04.54.88,3.33,2.82.95,3.9-3.5,1.59-6.33-.65-5.42-4.44.44-1.84,3.07-2.98,4.07-1.51Z"/>
      <path class="cls-13" d="M143.11,102.8c.16.16-.1,1.69,0,2.21.86.17.52-.96,1.11-1.36.75-.51,2.1-.44,2.98-.86,1.97,2.89.31,1.83-.94,2.76-.49.36-2.98,2.36-3.13,2.52-1.09,1.2-.52,2.94-1.68,3.56.42-1.55-.93-8.06,0-8.84.06-.05,1.59-.06,1.64,0Z"/>
      <path class="cls-13" d="M123.21,93.41c.4-2.69-1.09-1.48-2.77-1.1l1.1,1.09c-.56-.04-1.89.86-2.2.56-.19-.17-1.42-4.26-1.11-4.97l2.21,2.2-.55-3.31c1.26-1.3,6.05,4.76,3.32,5.53Z"/>
      <path class="cls-13" d="M129.28,74.06c.64,2.29,2.18,3.48-.54,5.52.28-1.64-2.25-.81-2.25-2.49,0-.43,2.11-3.81,2.79-3.03Z"/>
      <path class="cls-13" d="M149.74,107.23c.66,1.43,1.25,5.8-1.37,4.97-1.39-.44-1.62-5.67,1.37-4.97Z"/>
      <path class="cls-13" d="M156.79,105.71c.9.74.34,2.22.14,3.18-.77-.88-4.23-1.67-4.41-2.49-.42-1.86,3.41-1.41,4.28-.69Z"/>
      <path class="cls-13" d="M119.89,125.48c.88.82-1.45,6.23-3.31,4.42-.74-.72,1.39-6.22,3.31-4.42Z"/>
      <path class="cls-13" d="M154.16,97.28c.21.23,1.08,5.2,1.11,6.08-.79,1.01-2.1-2.07-2.18-2.51-.1-.56-.33-5.07,1.07-3.57Z"/>
      <path class="cls-13" d="M130.39,95.62c-3.21-.69-2.79-2.66-1.65-4.97,1.35.2,2.02,4.53,1.65,4.97Z"/>
      <path class="cls-13" d="M136.47,93.96c-1.6.3-.89-.44-1.24-1.22-3.59-8.15,1.93-3.48,1.24,1.22Z"/>
      <path class="cls-13" d="M145.87,116.08c.48,2.63-1.58,3.62-3.87,3.86.66-1.8,1.68-3.66,3.87-3.86Z"/>
      <path class="cls-13" d="M137.79,114.73c.75.62,2.45,1.27,2.53,1.39.18.25-1.41,5.2-2.2,2.47-.41-1.4-.49-3.04-1.1-4.44.62-.93.52.38.77.58Z"/>
      <path class="cls-13" d="M129.23,84.62c.18.14,1.49,4.05,1.16,4.36h-1.65c.91-2.33-1.06-2.86-1.12-3.03-.46-1.42.83-1.96,1.61-1.33Z"/>
      <path class="cls-13" d="M112.15,119.39l-2.35,2.64c-4.81.43-.05-2.75,2.35-2.64Z"/>
      <path class="cls-13" d="M73.45,98.39c.08,3.47-3.53,6.21-1.35,1.11.37-.86-.09-1.37,1.35-1.11Z"/>
      <path class="cls-13" d="M91.14,128.79c1.61.31,5.51,0,4.98,1.66-1.54-.07-3.94-.51-4.98-1.66Z"/>
      <path class="cls-13" d="M118.23,116.63l.56-2.21h.81c1.72,1.25.41,2.49-1.37,2.21Z"/>
      <path class="cls-13" d="M99.99,131c1.01-.91,4.5-1.16,3.87.55-1.39-.09-2.56-.43-3.87-.55Z"/>
      <path class="cls-13" d="M127.31,98.15c.57.62,1.22.25.87,1.89-.47.57-3.48-1.92-1.38-2.76.39-.15.19.52.51.87Z"/>
      <path class="cls-13" d="M120.44,95.63c-.25.33,1.53,1.26,1.1,2.2l-1.83-1.67-.38-1.09,2.76-.28c-.24.71-1.56.73-1.65.85Z"/>
      <circle class="cls-13" cx="145.33" cy="111.09" r=".68"/>
      <path class="cls-13" d="M146.97,113.31h-.54c-.27-2.3.82-2.3.54,0Z"/>
      <path class="cls-13" d="M120.72,113.86c.36.18.36.37,0,.55v-.55Z"/>
      <path class="cls-13" d="M129.01,100.04c.36.18.36.37,0,.55v-.55Z"/>
      <path class="cls-13" d="M104.13,58.03c.36.18.36.37,0,.55v-.55Z"/>
      <path class="cls-1" d="M136.75,125.47c.36.18.36.37,0,.55v-.55Z"/>
    </g>
  </g>
</svg>