<?xml version="1.0" encoding="UTF-8"?>
<svg id="Layer_2" data-name="Layer 2" xmlns="http://www.w3.org/2000/svg" viewBox="0 0 185 185">
  <defs>
    <style>
      .cls-1 {
        fill: #f2b02a;
      }

      .cls-2 {
        fill: #7a5d5c;
      }

      .cls-3 {
        fill: #f2d25b;
      }

      .cls-4 {
        fill: none;
      }

      .cls-5 {
        fill: #e4920b;
      }

      .cls-6 {
        fill: #f8e0d3;
      }

      .cls-7 {
        fill: #48202b;
      }

      .cls-8 {
        fill: #e18313;
      }

      .cls-9 {
        fill: #e0981a;
      }

      .cls-10 {
        fill: #9c274e;
      }

      .cls-11 {
        fill: #e4a430;
      }

      .cls-12 {
        fill: #f3bf32;
      }

      .cls-13 {
        fill: #854742;
      }

      .cls-14 {
        fill: #fbf2ce;
      }

      .cls-15 {
        fill: #483023;
      }

      .cls-16 {
        fill: #d9b441;
      }
    </style>
  </defs>
  <g id="borxes">
    <rect class="cls-4" width="185" height="185"/>
    <g>
      <path class="cls-10" d="M161.08,92.5c0,37.88-30.71,68.58-68.58,68.58S23.92,130.38,23.92,92.5,54.62,23.92,92.5,23.92s68.58,30.71,68.58,68.58ZM156.57,92.56c0-35.39-28.69-64.08-64.08-64.08S28.41,57.17,28.41,92.56s28.69,64.08,64.08,64.08,64.08-28.69,64.08-64.08Z"/>
      <path class="cls-6" d="M156.57,92.56c0,35.39-28.69,64.08-64.08,64.08S28.41,127.95,28.41,92.56,57.1,28.48,92.49,28.48s64.08,28.69,64.08,64.08ZM55.34,54.63c-1.35,1.32-2.63,2.71-3.83,4.16-10.82,13.11-14.7,30.6-10.46,47.06.53,2.06,1.19,4.09,1.96,6.07,7.3,18.67,24.5,31.64,44.47,33.52,2.32.22,4.64.28,6.97.2,4.48-.17,8.92-.9,13.21-2.19,2.05-.61,4.05-1.35,6.01-2.2,4.73-2.06,9.14-4.81,13.08-8.14,2.18-1.85,4.21-3.87,6.07-6.04,3.85-4.51,6.92-9.62,9.07-15.14.78-1.98,1.43-4.01,1.96-6.07,2.38-9.23,2.24-18.94-.43-28.1-.29-1.01-.62-2.02-.97-3.01-2.55-7.15-6.6-13.67-11.89-19.11-.33-.34-.66-.67-1-1.01-20.63-20.17-53.6-20.17-74.23,0Z"/>
      <g>
        <path class="cls-1" d="M129.57,54.62c-1.06,0-2.27.31-3.12.12s-1.07-1.1-3.3-.97c-.9.05-10.12,2.63-10.7,2.97-.6-5.94-1.41-16.04-9.37-14.04-1.18.3-.49,1.92-.63,2.04-.5.41-1.6.59-2,1-.26.27-1.12.32-1.51,1.01-.63,1.13-.33,2-.49,2.99h-1c-.61.12-1.56-.18-2,0-2.2-3.46-8.57-7.51-12-4-.16.16.14.7,0,1-.6,1.32-1.54,2.14-1,4l-14.99-2.99c-.62.6,2.4,7.67,2.99,8.99-1.46.01-2.57.57-3,2-.36-.16-5.78-1.76-6.56-1.95-2.73-.65-6.2,1.44-5.56-2.17,20.63-20.18,53.6-20.18,74.23,0Z"/>
        <path class="cls-1" d="M51.51,58.79c2.15,1.01.15,5.69,1.06,6.88.32.41,1.66-.09,1.88.07-1.27,5.97-.17,7.72,6,10v2c-.93-.55-1.93-.87-3-1,1.09-2.84-3.98-2.33-6.55-2.05-1.89.2-3.87-.27-4.45,2.05-1.91,7.71,10.45,6.61,15,5-.14.45.4,1.46-.15,1.87-1.95,1.48-3.32-1.97-1.85,2.13.11.3-.11.71,0,1-.64-.09-1.44.14-2,0-3.59-.91-7.2-1.55-11-1-2.96.43-4.03,2.15-2.51,5.01,1.37,2.58,5.7,1.95,7.51,3.99-.11.07-.08,1.82-1.02,2.44-4.11,2.76-6.53,3.5-9.38,8.66-4.25-16.46-.36-33.95,10.46-47.06Z"/>
        <path class="cls-1" d="M48.45,110.74c2.28-.15,4.77.24,7,0,1.67,5.74-5.29,12.23.02,16.48,4.88,3.91,4.39.68,5.98-1.48.62-.85,1.93-1.88,2-2l2,4c-.31,1.4.45,8.22,1.17,8.86.66.6,2.42-.1,2.83.14.47.26.84.95,1,1,.19.06.48.88,1,1,.23.05.78.06,1,0,1.85-.55,4.85-3.95,5-6,7.24-.27,3.98,3.97,6.2,8.3,1.28,2.5,4.07,1.94,3.83,4.39-19.96-1.88-37.16-14.85-44.47-33.52,1.86-.02,4.84-1.13,5.44-1.17Z"/>
        <path class="cls-5" d="M97.45,96.74c2.35.83,1.95,1.91,4,2,.1.3-.1.7,0,1,.52,1.62.18,3.52,2,5-.39.21-1.81,1.01-1.85,1.11-.17.47,1.1,8.51,1.85,9.89.58,4.37.83,8.72,2,13,1.36,5.01,3.92,10.11,10,7-.43,1.51-2.04,3.11-1.78,5.5-1.96.85-3.96,1.59-6.01,2.2-1.99-3.16-4.32-5.73-5.21-8.7-.74-2.49.02-6.74-2-9,.03-.33-.02-.67,0-1,.07-1.31.05-2.69,0-4-.17-4.05,1.3-11.12-5.26-9.85-1.87.36-2.75,1.34-3.74,2.85-.14.22.12.69,0,1-.85,2.09-.63,2.22-1,4-.07.32.08.69,0,1-1.55-.93-1.49-5.53-2.01-6-.32-.29-1.46.91-1.99,1-1.68.3-3.38.41-5,1-.01-.16-.88-2.9-1-3,2.43.77,1.85-1.91,2-2,1.16-.66,4.71-.25,9-3,5.88-3.77,5.66-4.54,4-12,.5.06,1.36.77,2,1Z"/>
        <path class="cls-1" d="M142.46,74.74l-.98.49,1.95,2.52c2.66,9.16,2.81,18.86.43,28.1-.89-.48-2.17-.76-2.41-1.1-1.57-2.31-2.51-4.82-6-6,2.55-1.62,3.23-.96,4-4,.68-2.66,1.23-4.67-1-6-.79-.47-4.29-1.93-5-2,.12-3.27,6.67-3.37,6.75-6.47.01-.6-2.25-3.42-2.75-4.53-.27-.61-.96-1.46-1-2-.02-.32-.03-.69,0-1,.01-.11,1.68-1.37,1-1.99-.23-.21-5.68-1.96-6-2.01,2.4-4.99-.17-8.25-.88-13.12,5.28,5.45,9.34,11.97,11.89,19.11ZM140.95,94.74v1c.65-.33.65-.67,0-1Z"/>
        <path class="cls-9" d="M80.45,118.74c-.5,4.32-1.44,8.59-1,13,3.25.66,4.7-1.28,7-3-.03.33.01.67,0,1-.76,17.94,9.71,14.67,13,1,.47-1.95.8-2.75,1-5,2.02,2.26,1.26,6.51,2,9-1.43,1.35-1.43,3.42-2.54,4.96-1.82,2.53-5.18,3.17-5.46,5.93-2.32.09-4.65.02-6.97-.2.25-2.44-2.55-1.89-3.83-4.39-2.22-4.34,1.04-8.58-6.2-8.3.21-2.9-.35-5.68-3-6l4-8c.3.2,1.42-.13,2,0Z"/>
        <path class="cls-5" d="M108.45,104.74c1.02.28,2.09.38,3,1-.52,3.22,1.94,4.91,3,7,2.11,4.15,3.26,5.64,6,9,.33.4.22,1.86,1.43,3.03,3.63,3.5,7.24,1.7,10.57-1.03.05,1-.03,2,.37,3.32-1.86,2.17-3.89,4.19-6.07,6.04-4.82-.32-6.47-4.3-10.3-5.36-.3-3.06-2.48-9.73-3.81-12.69-1.98-4.4-5.4-7.08-7.19-11.31.22,0,2.24.79,3,1Z"/>
        <path class="cls-12" d="M59.45,85.74c7.32-.18,4.59,7.63,4.99,8,.82.75,6.7-1.57,5.01,6-.77.22-3.73,1.73-4,2,.18-3.24.33-4.44-3-5l3-1.99c-3.79-.34-7.75.55-11.07,2.42-2.08,1.17-2.1,2.23-3.27,3.22-1.76,1.49-2.01-.55-3.65,3.35-1.05,2.51-2.23,5.65,1,7-.6.04-3.58,1.15-5.44,1.17-.77-1.98-1.43-4.01-1.96-6.07,2.85-5.16,5.27-5.9,9.38-8.66.93-.63.91-2.37,1.02-2.44.86-.58,6.8,0,8.5-2,2.47-2.92.18-4.18-.5-6-.11-.29.11-.7,0-1Z"/>
        <path class="cls-5" d="M118.45,92.74c.21.78,2.27,3.6,3,4-3.62,6.95-.11,4.99,3,7,2.31,1.5,3.22,2.55,6,4,4.94,2.58,8.82,3.38,11-3,.23.34,1.51.62,2.41,1.1-.53,2.06-1.19,4.09-1.96,6.07-4.22,4.04-8.5-.27-12.44,1.83-1.41-2.05-9.51-8.48-12-9v-2c2.64-1.83.33-4.6,0-6-.13-.57-.75-1.32-1-2s.2-2.13,0-3l2,1Z"/>
        <path class="cls-5" d="M129.57,54.62c.34.33.67.67,1,1.01.71,4.86,3.28,8.12.88,13.12-6.75-1.04-12.6,5.12-15.7,5.84-1.22.28-7.41-.97-10.3-.84-.11-.62.16-1.5,0-2,3.08.81,5.67-.58,8-1,1.54-.27,3.06.12,5.03-.45,1.32-.39,2.65-1.83,3.97-2.55.05-.03.55.72.99.42,4.95-3.33,6.21-8.42,3.01-13.42.85.19,2.06-.13,3.12-.12Z"/>
        <path class="cls-1" d="M132.82,127.06c-.4-1.31-.32-2.32-.37-3.32-.13-2.5-1.65-8.04-3-10,3.94-2.1,8.22,2.21,12.44-1.83-2.16,5.52-5.23,10.64-9.07,15.14Z"/>
        <path class="cls-12" d="M55.34,54.63c-.65,3.61,2.82,1.51,5.56,2.17.78.19,6.2,1.79,6.56,1.95,1.46.63,3.76,3.65,6,4,.81,3.09-.01,2.23,0,3-2.99-3.29-13.65-7.95-17-5-1.67,1.47-1.6,3.13-2,5-.22-.16-1.56.34-1.88-.07-.92-1.19,1.09-5.86-1.06-6.88,1.2-1.46,2.48-2.85,3.83-4.16Z"/>
        <path class="cls-1" d="M126.76,133.1c-3.94,3.34-8.35,6.08-13.08,8.14-.25-2.4,1.35-3.99,1.78-5.5.86-3.02,1.32-4.72,1-8,3.83,1.06,5.48,5.04,10.3,5.36Z"/>
        <path class="cls-1" d="M107.66,143.45c-4.29,1.28-8.73,2.02-13.21,2.19.28-2.76,3.64-3.4,5.46-5.93,1.11-1.54,1.12-3.61,2.54-4.96.89,2.97,3.22,5.54,5.21,8.7Z"/>
        <path class="cls-11" d="M143.43,77.75l-1.95-2.52.98-.49c.35.99.68,2,.97,3.01Z"/>
        <path class="cls-3" d="M82.45,50.74c2.27,3.81,5.04,4.49,9,5-2.21,4.21,2.21,7.95,2.91,12.58.41,2.72-.07,5.66.09,8.42-.32.3-1.68,4.25-3,5-.15-.26-3.99-3.4-4.67-3.84l-13.33-7.16c.14-.95-.11-2.03,0-3,.07-.63.01-1.35,0-2-.01-.77.81.09,0-3s-2.08-3.94-3-6c-.59-1.33-3.61-8.4-2.99-8.99l14.99,2.99ZM79.46,56.75c-1.16,1.19,4.59,14.73,6.42,16.07,2.4,1.76,5.38,1.78,4.94-1.86-.64-5.29-4.87-14.79-11.36-14.21Z"/>
        <path class="cls-12" d="M126.45,54.74c3.2,5.01,1.94,10.09-3.01,13.42-.45.3-.95-.45-.99-.42v-1c2.09-1.7,1.12-4.21,0-6-.86-1.38-1.22-2.44-3.3-1.88-.67.18-7.26,5.51-7.76,6.33-1.43,2.35-2.47,6.62,2.05,5.56-2.33.42-4.92,1.81-8,1-.68-2.07-1.58-1.92-.56-5.03.49-1.5,6.47-9.33,7.56-9.97.58-.34,9.8-2.92,10.7-2.97,2.23-.12,2.48.79,3.3.97Z"/>
        <path class="cls-16" d="M102.45,44.74c.14-.11-.55-1.74.63-2.04,7.96-2.01,8.77,8.1,9.37,14.04-1.09.64-7.07,8.47-7.56,9.97-1.02,3.11-.12,2.96.56,5.03.16.5-.11,1.38,0,2-.33.01-.67-.03-1,0-4.24-1.86-.77-10.29-2-13,2.8.15,2.34-1.35,3-3,1.61-4,2.41-12.11-3-13Z"/>
        <path class="cls-15" d="M93.45,49.74c.28.36.71.63,1,1-.62.92-.82,3.83-2,5-.33,0-.68.04-1,0-3.96-.51-6.73-1.19-9-5-.54-1.86.4-2.68,1-4,3.1,2.32,5.89,5.67,10,3Z"/>
        <path class="cls-15" d="M100.45,45.74c.76,2,2.52,11.12,3.14,11.88.31.37,1.29.13,1.86.12-.66,1.65-.2,3.15-3,3-.19-.42-3.7-1.49-5-7-.13-.53.03-1.35,0-2,1.02-.26.86-1.18,1-2,.17-1-.14-1.86.49-2.99.38-.69,1.24-.74,1.51-1.01Z"/>
        <path class="cls-2" d="M105.45,57.74c-.57,0-1.55.26-1.86-.12-.63-.77-2.38-9.88-3.14-11.88.4-.41,1.5-.59,2-1,5.41.89,4.61,9,3,13Z"/>
        <path class="cls-2" d="M93.45,49.74c-4.11,2.67-6.9-.68-10-3,.14-.3-.16-.84,0-1,3.97.6,7.41.68,10,4Z"/>
        <path class="cls-8" d="M70.45,56.74c.92,2.06,2.17,2.82,3,6-2.24-.35-4.54-3.37-6-4,.43-1.43,1.54-1.99,3-2Z"/>
        <path class="cls-12" d="M97.45,49.74c.02.67-.03,1.34,0,2s-.13,1.47,0,2c-.92.24-1.04,1.17-1,2-1.33-.01-2.67.02-4,0,1.18-1.17,1.38-4.08,2-5,.07-.1.93-.97,1-1,.44-.18,1.39.12,2,0Z"/>
        <path class="cls-6" d="M83.45,45.74c3.43-3.51,9.8.54,12,4-.07.03-.93.9-1,1-.29-.37-.72-.64-1-1-2.59-3.32-6.03-3.4-10-4Z"/>
        <path class="cls-13" d="M97.45,51.74c-.03-.66.02-1.33,0-2h1c-.14.82.02,1.74-1,2Z"/>
        <path class="cls-8" d="M66.45,76.74c-.44,2.35-.69,8.23,2,9h1c.17.74,1.47,2.14,2,3,4.02,6.59,7.46,7.21,15,9-1.61.8-2.65,2.84-4.54,3.04-2.27.24-3.93-1.79-6.05-2.04-1.93-.23-3.61.64-5.41,1-.33.07-.71-.08-1,0,1.69-7.57-4.19-5.25-5.01-6-.4-.37,2.33-8.18-4.99-8-1.47-4.09-.1-.65,1.85-2.13.54-.41,0-1.42.15-1.87.74-2.32,1.19-2.72-1-4v-2c1.53.57,4.26.57,6,1Z"/>
        <path class="cls-15" d="M46.45,85.74c.28,4.34,7.52,4.3,10.51,4.01s.27-1.28.49-3.01c.56.14,1.36-.09,2,0,.68,1.81,2.96,3.08.5,6-1.7,2.01-7.64,1.42-8.5,2-1.81-2.04-6.14-1.41-7.51-3.99-1.52-2.86-.45-4.58,2.51-5.01Z"/>
        <path class="cls-15" d="M57.45,76.74c1.07.13,2.07.45,3,1,2.19,1.28,1.74,1.68,1,4-4.55,1.61-16.91,2.71-15-5,3.53.29,7.57-.42,11,0Z"/>
        <path class="cls-11" d="M67.45,74.74c-.21.21-.94,1.68-1,2-1.74-.43-4.47-.43-6-1-6.17-2.28-7.27-4.03-6-10,3.92,2.9,6.3,8.33,13,9Z"/>
        <path class="cls-2" d="M57.45,86.74c-.22,1.72,2.46,2.72-.49,3.01s-10.23.33-10.51-4.01c3.8-.55,7.41.09,11,1Z"/>
        <path class="cls-3" d="M46.45,76.74c.57-2.32,2.56-1.85,4.45-2.05,2.57-.27,7.65-.79,6.55,2.05-3.43-.42-7.47.29-11,0Z"/>
        <path class="cls-15" d="M62.45,96.74c3.33.56,3.18,1.76,3,5-1.02,1.03-1.26,2.7-4,5-1.37,1.15-4.71,3.86-6,4-2.23.24-4.72-.15-7,0-3.23-1.35-2.05-4.49-1-7h1c-.81,5.06,10.72-1.47,12.38-2.9,1.42-1.23.29-2.85-.38-4.1.54-.08,1.47-.09,2,0Z"/>
        <path class="cls-16" d="M78.45,118.74l-4,8c-.28-.03-.73-.06-1,0-4.93,1.13-3.99,5.71-4,10-.41-.23-2.17.46-2.83-.14-.72-.65-1.48-7.46-1.17-8.86.1-.44,3.69-7.68,4-8,.55-.57,5.71-3,6.56-3,1.85,0,1.97,1.69,2.44,2Z"/>
        <path class="cls-7" d="M67.45,109.74c1.28,1.28-2.92,12-4,14-.07.12-1.38,1.15-2,2-4.38,2.63-5.64-2.77-5-6.52.34-1.99,1.94-2.33,2-2.48-1.18,7.24,5.25,4.2,5.04-1.49-.11-2.94-2.66-1.05-4.04-1.51,2.18-3.87,2.67-4.29,8-4Z"/>
        <path class="cls-9" d="M65.45,106.74c1.54.05,1.8,2.75,2,3,.09.11,1.73-.47,2.02.66.63,2.42-.46,6.6-.02,9.34-.31.32-3.9,7.56-4,8l-2-4c1.08-2,5.28-12.72,4-14-5.33-.29-5.82.13-8,4-.82,1.45-.63,2.04-1,3-.06.15-1.65.49-2,2.48-.65,3.74.61,9.15,5,6.52-1.59,2.16-1.1,5.39-5.98,1.48-5.31-4.25,1.65-10.74-.02-16.48,1.29-.14,4.63-2.85,6-4,1.42,1.98,3.35-.02,4,0Z"/>
        <path class="cls-15" d="M74.45,126.74c2.65.32,3.21,3.1,3,6-.15,2.05-3.15,5.45-5,6l1-12c.27-.06.72-.03,1,0Z"/>
        <path class="cls-2" d="M73.45,126.74l-1,12c-.22.06-.77.05-1,0l-1-1c-.16-.05-.53-.74-1-1,.01-4.29-.93-8.87,4-10Z"/>
        <path class="cls-16" d="M71.45,138.74c-.52-.12-.81-.94-1-1l1,1Z"/>
        <path class="cls-7" d="M100.45,120.74c.05,1.31.07,2.69,0,4-3.04.41-1.69-3.42-5.45-3.05-4.71.46-4.46,10.35-2.61,11.61,2.41,1.64,6.61.87,7.07-2.56-3.29,13.67-13.76,16.94-13-1,3.32-1.98,3.23-6.8,4-10,.08-.31-.07-.68,0-1l1-4c.12-.31-.14-.78,0-1,5.89-.93,7.17,2.35,9,7Z"/>
        <path class="cls-12" d="M116.45,127.74c.32,3.28-.14,4.98-1,8-6.08,3.11-8.64-1.99-10-7,11.28,4.64,5.63-11.29,1.53-15.03-2.7-2.47-2.51-.15-3.53,2.03-.75-1.38-2.02-9.42-1.85-9.89.04-.1,1.46-.9,1.85-1.11.53-.29,1.6-.99,2-1,1.8,4.23,5.22,6.9,7.19,11.31,1.33,2.96,3.51,9.64,3.81,12.69Z"/>
        <path class="cls-12" d="M95.45,95.74c1.66,7.46,1.88,8.23-4,12,5.06-13.43-12.3-4.35-9,3-.15.09.43,2.77-2,2-.56-.45-4.7,1.75-3-5,.32-1.27,3.83-3.69,1.03-5.53-1.43-.94-8.73-1.91-7.03,2.53-.35-.19-1.89-.99-2-1l1-4c1.8-.36,3.48-1.22,5.41-1,2.12.25,3.78,2.27,6.05,2.04,1.89-.2,2.93-2.24,4.54-3.04,1.1-.55,3.04-1.82,4-2,1.12-.21,3.77-.14,5,0Z"/>
        <path class="cls-7" d="M109.45,90.74c.95.32,1.38.72,2,1-14.47,1.68,3.07,17.38,3,2,.63.38,1.35.64,2,1,.25.68.87,1.43,1,2v7c-1.6.06-4.15-.62-5,1-.86.16-.87.18-1,1-.91-.62-1.98-.72-3-1l-7-5c-.1-.3.1-.7,0-1-.22-.69-.87-1.42-1-2-.29-6.94,3.02-8.01,9-6Z"/>
        <path class="cls-8" d="M69.45,103.74c.11,0,1.65.81,2,1,1.41.78,2.59,3.88,6,3-1.7,6.75,2.44,4.55,3,5,.12.1.99,2.84,1,3,.08,1.21-.92,2.3-1,3-.58-.13-1.7.2-2,0-.47-.31-.6-1.99-2.44-2-.85,0-6,2.42-6.56,3-.44-2.74.65-6.93.02-9.34-.29-1.12-1.93-.54-2.02-.66-.2-.25-.46-2.95-2-3,.85-1.66,1.98-3.11,4-3Z"/>
        <path class="cls-14" d="M105.45,128.74c-1.17-4.28-1.42-8.63-2-13,1.02-2.18.83-4.5,3.53-2.03,4.1,3.75,9.74,19.67-1.53,15.03Z"/>
        <path class="cls-13" d="M99.45,130.74c-.45,3.43-4.65,4.21-7.07,2.56-1.85-1.26-2.1-11.15,2.61-11.61,3.76-.37,2.41,3.46,5.45,3.05-.02.33.03.67,0,1-.2,2.25-.53,3.05-1,5Z"/>
        <path class="cls-7" d="M86.45,114.74c1.12,1.55.83,3.27,1,5-6.59-1-7.3,7.22-1,7-.05.66.06,1.34,0,2-2.3,1.72-3.75,3.67-7,3-.44-4.41.5-8.68,1-13,.08-.7,1.08-1.79,1-3,1.62-.59,3.32-.7,5-1Z"/>
        <path class="cls-14" d="M91.45,107.74c-4.29,2.75-7.84,2.34-9,3-3.3-7.35,14.06-16.43,9-3Z"/>
        <path class="cls-3" d="M100.45,120.74c-1.83-4.65-3.11-7.93-9-7,.99-1.51,1.87-2.49,3.74-2.85,6.56-1.27,5.09,5.8,5.26,9.85Z"/>
        <path class="cls-11" d="M90.45,119.74c-.77,3.2-.68,8.02-4,10,.01-.33-.03-.67,0-1,.06-.66-.05-1.34,0-2,.2-2.5,1.47-2.23,1-7-.17-1.73.12-3.45-1-5,.53-.09,1.67-1.29,1.99-1,.53.47.47,5.08,2.01,6Z"/>
        <path class="cls-8" d="M97.45,91.74v5c-.64-.23-1.5-.94-2-1-1.23-.14-3.88-.21-5,0,.24-.67.83-1.35,1-2,1.92-1.82,3.48-2,6-2Z"/>
        <path class="cls-9" d="M108.45,104.74c-.76-.21-2.78-1.01-3-1-.4,0-1.47.71-2,1-1.82-1.48-1.48-3.38-2-5l7,5Z"/>
        <path class="cls-9" d="M99.45,91.74c-.46,2.84.66,3.43,1,5,.13.58.78,1.31,1,2-2.05-.09-1.65-1.17-4-2v-5c.67,0,1.33,0,2,0Z"/>
        <path class="cls-11" d="M90.45,118.74c.37-1.78.15-1.91,1-4l-1,4Z"/>
        <path class="cls-12" d="M131.45,68.74c.31.05,5.76,1.79,6,2.01.68.62-.98,1.88-1,1.99-2.18.26-4.96-.37-7,0-3.91-1.53-7.49-.02-10,3-.41.5-.59,1.44-1,2-2.52,3.43-2.37,6.49-8,6,8.67-7.21-5.48-10.98-6-3-.75-.32-3.78-1.23-3.99-1,.44,3.01-.56,3.98-2.01,6l-.51-6.01c-1.88.04-5.43,3.89-5.49,6.01-.28-1.03-.9-3.82-1-4,1.32-.75,2.68-4.7,3-5,1.44-1.37,5.23-1.6,7-2,1.14-.25,2.84-.99,3-1,.33-.03.67.01,1,0,2.88-.12,9.08,1.13,10.3.84,3.1-.73,8.95-6.88,15.7-5.84Z"/>
        <path class="cls-15" d="M136.45,73.74c.04.54.73,1.39,1,2,.73,8.77-13.47,9.83-19,6v-4c.41-.56.59-1.5,1-2,.56.12,1.79-.19,2,0,.11.1-.43,1.73.65,2.02,1.76.47,9.27.08,10.76-.92,1.27-.85-.74-4.17,3.59-3.09Z"/>
        <path class="cls-12" d="M135.45,98.74c3.49,1.18,4.43,3.69,6,6-2.18,6.38-6.06,5.58-11,3,3.9,1.36,7.18-3.13,4.01-5.51-.98-.74-12.04-3.93-10.01,1.51-3.11-2.01-6.62-.05-3-7,3.06,1.7,10.34.76,14,2Z"/>
        <path class="cls-11" d="M137.45,75.74c.5,1.11,2.76,3.93,2.75,4.53-.07,3.1-6.63,3.2-6.75,6.47-3.3-.32-6.97,1.53-11,1-.65-.08-2.41-1.79-4-1-.01-.33,0-.67,0-1v-4c5.53,3.83,19.73,2.77,19-6Z"/>
        <path class="cls-15" d="M138.45,88.74c2.23,1.33,1.68,3.34,1,6-3.07,1.02-6.18,1.32-9.41.91-4.16-.53-5.86-2.97-8.59-3.91l1-3c4.72,1.09,12.97,6.1,16,0Z"/>
        <path class="cls-11" d="M121.45,91.74c2.73.94,4.42,3.38,8.59,3.91,3.23.41,6.34.11,9.41-.91-.77,3.04-1.45,2.38-4,4-3.66-1.24-10.94-.3-14-2-.73-.4-2.79-3.22-3-4-.08-.29.06-.66,0-1,.92.93,2.86-.05,3,0Z"/>
        <path class="cls-2" d="M133.45,86.74c.71.07,4.21,1.53,5,2-3.03,6.1-11.28,1.09-16,0v-1c4.03.53,7.7-1.32,11-1Z"/>
        <path class="cls-2" d="M136.45,72.74c-.03.31-.02.68,0,1-4.33-1.08-2.32,2.24-3.59,3.09-1.49,1-9,1.39-10.76.92-1.08-.29-.54-1.92-.65-2.02,2.21-.57,6.14-2.66,8-3,2.04-.37,4.82.26,7,0Z"/>
        <path class="cls-11" d="M140.95,94.74c.65.33.65.67,0,1v-1Z"/>
        <path class="cls-12" d="M117.45,104.74c2.49.52,10.59,6.95,12,9s2.87,7.5,3,10c-3.33,2.73-6.94,4.53-10.57,1.03-1.21-1.17-1.1-2.63-1.43-3.03,3.94-.08,7.78-.26,5.48-4.98-1.03-2.1-10.46-11.81-11.48-4.02-1.06-2.09-3.52-3.78-3-7,.13-.82.14-.84,1-1,.97-.18,4.08-.19,5,0Z"/>
        <path class="cls-14" d="M114.45,112.74c1.02-7.79,10.45,1.92,11.48,4.02,2.3,4.71-1.54,4.9-5.48,4.98-2.74-3.36-3.89-4.85-6-9Z"/>
        <path class="cls-6" d="M47.45,103.74c1.64-3.9,1.89-1.86,3.65-3.35,1.17-.99,1.19-2.05,3.27-3.22,3.32-1.87,7.28-2.76,11.07-2.42l-3,1.99c-.53-.09-1.46-.08-2,0-4.17.59-8.64,4.61-12,7h-1Z"/>
        <path class="cls-11" d="M69.45,99.74c.29-.08.67.07,1,0l-1,4c-2.02-.11-3.15,1.34-4,3-.65-.02-2.58,1.98-4,0,2.74-2.3,2.98-3.97,4-5,.27-.27,3.23-1.78,4-2Z"/>
        <path class="cls-14" d="M130.45,107.74c-2.78-1.45-3.69-2.5-6-4-2.03-5.44,9.02-2.25,10.01-1.51,3.17,2.38-.11,6.87-4.01,5.51Z"/>
        <path class="cls-8" d="M118.45,85.74c0,.33-.01.67,0,1,.06,1.59-.24,3.57,0,5,.06.34-.08.71,0,1l-2-1c-.16-.73-.2-.87-1-1-2.03-2.57.18-4.72,3-5Z"/>
        <path class="cls-9" d="M109.45,88.74c1.65.77,2.56,1.92,2.74,1.98,1.04.34,2.31-.13,3.26.02.8.13.84.27,1,1,.2.87-.25,2.32,0,3-.65-.36-1.37-.62-2-1-.98-.6-2.05-1.58-3-2-.62-.28-1.05-.68-2-1v-2Z"/>
        <path class="cls-9" d="M117.45,102.74v-6c.33,1.4,2.64,4.17,0,6Z"/>
        <path class="cls-9" d="M117.45,103.74v1c-.92-.19-4.03-.18-5,0,.85-1.62,3.4-.94,5-1Z"/>
        <path class="cls-14" d="M122.45,60.74v7c-1.32.72-2.65,2.16-3.97,2.55-1.96.58-3.49.18-5.03.45-4.53,1.07-3.48-3.21-2.05-5.56.49-.81,7.08-6.15,7.76-6.33,2.08-.56,2.44.51,3.3,1.88Z"/>
        <path class="cls-15" d="M58.45,61.74c1.16,4.8,9.9,8.58,14,6h1c-.11.97.14,2.05,0,3-.56,3.8-3.62,1.62-6,4-6.7-.67-9.08-6.1-13-9,.4-1.87.33-3.53,2-5,.65.22,1.41.89,2,1Z"/>
        <path class="cls-6" d="M73.45,65.74c.01.65.07,1.37,0,2h-1c-3.46-4.3-9.03-5.11-14-6-.59-.11-1.35-.78-2-1,3.35-2.95,14.01,1.71,17,5Z"/>
        <path class="cls-9" d="M91.45,81.74c.1.18.72,2.97,1,4,.26.94-.22,2.25,1,3-1.51.91-1.62,3.59-2,5-.17.65-.76,1.33-1,2-.96.18-2.9,1.45-4,2-7.54-1.79-10.98-2.41-15-9,3.55,2.07,14.73,5.88,18.06,3.56,3.66-2.55-2.46-13.37-7.06-12.56-.71-.48-1.02-.83-2-1-.32-.06-.67.02-1,0-6.27-4.36-14.8-1.21-11,7-2.69-.77-2.44-6.65-2-9,.06-.32.79-1.79,1-2,2.38-2.38,5.44-.2,6-4l13.33,7.16c.68.44,4.52,3.57,4.67,3.84Z"/>
        <path class="cls-8" d="M96.45,55.74c.31,6.7,6.26,11.93,5,19-1.77.4-5.56.63-7,2-.16-2.75.32-5.7-.09-8.42-.7-4.63-5.13-8.37-2.91-12.58.32.04.67,0,1,0,1.33.02,2.67-.01,4,0Z"/>
        <path class="cls-2" d="M79.46,56.75c6.49-.58,10.71,8.92,11.36,14.21.44,3.64-2.54,3.61-4.94,1.86-1.83-1.34-7.58-14.88-6.42-16.07Z"/>
        <path class="cls-3" d="M122.45,66.74v-6c1.12,1.79,2.09,4.3,0,6Z"/>
        <path class="cls-13" d="M97.45,53.74c1.3,5.51,4.81,6.58,5,7,1.23,2.71-2.24,11.14,2,13-.16.01-1.86.75-3,1,1.26-7.07-4.69-12.3-5-19-.04-.83.08-1.76,1-2Z"/>
        <path class="cls-7" d="M79.45,78.74c.33.02.68-.06,1,0-2.77,1.88-6.74,2.52-4.06,6.55,4.63,6.98,12.53-1.18,6.06-5.55,4.6-.82,10.72,10.01,7.06,12.56-3.33,2.32-14.51-1.49-18.06-3.56-.53-.86-1.83-2.26-2-3-.04-.19.43-3.77.51-3.95,1.67-3.58,6.16-3.3,9.49-3.05Z"/>
        <path class="cls-3" d="M79.45,78.74c-3.33-.25-7.82-.53-9.49,3.05-.08.18-.56,3.76-.51,3.95h-1c-3.8-8.21,4.73-11.36,11-7Z"/>
        <path class="cls-2" d="M60.45,96.74c.67,1.25,1.8,2.87.38,4.1-1.66,1.44-13.19,7.96-12.38,2.9,3.36-2.39,7.83-6.41,12-7Z"/>
        <path class="cls-13" d="M59.45,113.74c1.38.46,3.93-1.43,4.04,1.51.21,5.69-6.22,8.73-5.04,1.49.37-.96.18-1.55,1-3Z"/>
        <path class="cls-14" d="M77.45,107.74c-3.41.88-4.59-2.22-6-3-1.71-4.44,5.6-3.47,7.03-2.53,2.8,1.84-.71,4.26-1.03,5.53Z"/>
        <path class="cls-13" d="M111.45,91.74c.95.42,2.02,1.4,3,2,.07,15.38-17.47-.32-3-2Z"/>
        <path class="cls-3" d="M109.45,88.74v2c-5.98-2.01-9.29-.94-9,6-.34-1.57-1.46-2.16-1-5,1.11-6.82,5.78-4.96,10-3Z"/>
        <path class="cls-13" d="M87.45,119.74c.47,4.77-.8,4.5-1,7-6.3.22-5.59-8,1-7Z"/>
        <path class="cls-5" d="M118.45,81.74v4c-2.82.28-5.03,2.43-3,5-.96-.15-2.22.32-3.26-.02-.17-.06-1.08-1.21-2.74-1.98-4.22-1.96-8.89-3.82-10,3-.67,0-1.33,0-2,0-2.52,0-4.08.18-6,2,.38-1.41.49-4.09,2-5,1.6-.97,2.29.81,5-3,1.44-2.03,2.45-3,2.01-6,.22-.23,3.24.68,3.99,1,2.07.89,3.09,2.74,6,3,5.63.49,5.48-2.57,8-6v4Z"/>
        <path class="cls-14" d="M110.45,83.74c-2.91-.26-3.93-2.11-6-3,.52-7.98,14.67-4.21,6,3Z"/>
        <path class="cls-14" d="M92.45,85.74c.06-2.12,3.61-5.97,5.49-6.01l.51,6.01c-2.71,3.81-3.4,2.03-5,3-1.22-.75-.74-2.06-1-3Z"/>
        <path class="cls-6" d="M129.45,72.74c-1.86.34-5.79,2.43-8,3-.21-.19-1.44.12-2,0,2.51-3.02,6.09-4.53,10-3Z"/>
        <path class="cls-1" d="M122.45,87.74v1l-1,3c-.14-.05-2.08.93-3,0-.24-1.43.06-3.41,0-5,1.59-.79,3.35.92,4,1Z"/>
        <path class="cls-2" d="M72.45,67.74c-4.1,2.58-12.84-1.2-14-6,4.97.89,10.54,1.7,14,6Z"/>
        <path class="cls-13" d="M82.45,79.74c6.46,4.38-1.43,12.53-6.06,5.55-2.68-4.03,1.3-4.68,4.06-6.55.98.17,1.29.52,2,1Z"/>
      </g>
    </g>
  </g>
</svg>