<?xml version="1.0" encoding="UTF-8"?>
<svg id="Layer_2" data-name="Layer 2" xmlns="http://www.w3.org/2000/svg" viewBox="0 0 185 185">
  <defs>
    <style>
      .cls-1 {
        fill: #b13d3a;
      }

      .cls-2 {
        fill: #663714;
      }

      .cls-3 {
        fill: #edecec;
      }

      .cls-4 {
        fill: #7f8a27;
      }

      .cls-5 {
        fill: #e97170;
      }

      .cls-6 {
        fill: none;
      }

      .cls-7 {
        fill: #eee6ae;
      }

      .cls-8 {
        fill: #d24539;
      }

      .cls-9 {
        fill: #8e9835;
      }

      .cls-10 {
        fill: #e8af98;
      }
    </style>
  </defs>
  <g id="borxes">
    <rect class="cls-6" width="185" height="185"/>
  </g>
  <g id="flavours">
    <g>
      <path class="cls-5" d="M101.12,161.31c-7.5,1.63-15.06,2.79-22.77,2.68-.41-.01-.82-.03-1.22-.04-1.45-.03-2.89-.06-4.34-.09-12.48-1.21-24.16-5.1-35.44-10.4-3.95-1.86-5.76-5.49-7.31-9.17-3.83-9.07-7.72-18.17-8.64-28.11-2.03-21.94.84-42.98,15.63-60.24,13.53-15.78,30.85-25.04,52.41-23.16,10.64.93,18.35,7.02,23.58,16.3,1.47,2.61,2.56,5.36,3.5,8.18.48,1.45.81,3,2.07,4.06-.51,1.07-.99,2.17-1.55,3.21-.51.94-.45,1.77.46,2.34.84.52,1.74.51,2.44-.29.52-.6.95-1.27,1.42-1.91,2.94,2.4,6.76,2.77,10.06,4.34,2.39.72,4.21,2.73,6.78,3.06l-.03-.02c1.94,1.97,3.85,3.98,6.15,5.55,0,0,.04.05.04.05.16.22.33.44.49.66,8.72,10.4,8.93,22.33,5.66,34.58-5,18.72-16.06,32.94-33.06,42.34-5.11,2.83-10.71,4.5-16.32,6.09ZM147.53,100.3c.39-9.72-3.35-17.34-11.47-22.69-6.12-4.03-12.91-6.05-20.22-6.17-1.92-.03-2.79-.29-3.05-2.61-.52-4.63-1.18-9.28-3.07-13.66-5.56-12.88-14.08-18.52-26.59-18.21-6,.15-11.65,2.02-17.19,4.21-13.63,5.37-24.04,14.38-30.89,27.39-3.79,7.2-6.04,14.84-7.39,22.89-1.42,8.52-1.32,16.87.51,25.25,1.31,6,3.54,11.68,5.69,17.41,2.68,7.14,5.94,13.55,13.86,16.06,1.46.46,2.87,1.06,4.33,1.53,11.2,3.61,22.28,7.23,34.46,5.61,9.99-1.33,19.76-2.81,28.85-7.55,9.65-5.04,17.67-11.82,23.17-21.21,5.09-8.69,8.66-17.99,9.01-28.24Z"/>
      <path class="cls-4" d="M163.47,78.71c-.43-.03-.87-.06-1.3-.08-.18,0-.36-.02-.55-.03-5.88-.58-11.56-2.18-17.3-3.47-1.65-1.83-3.78-2.71-6.16-3.09l.03.02c-1.15-1.9-3.12-2.69-4.95-3.67-.81-1.34-2.21-2.09-3.13-3.46-2.39-3.57-3.31-7.53-4.15-11.58.11-1.32.79-2.4,1.48-3.47,3.06-.03,4.59,2.44,6.59,4.09,9.1,7.5,18.57,14.57,27.18,22.67.79.74,1.73,1.07,2.82.99.05.14.12.28.15.42.01.07-.04.15-.06.23-.22.15-.43.3-.65.45Z"/>
      <path class="cls-9" d="M164.04,77.62c-1.08.09-2.03-.24-2.82-.99-8.61-8.1-18.07-15.17-27.18-22.67-2.01-1.65-3.53-4.12-6.59-4.09.1-1.05.2-2.09.29-3.14.48.07,1.01.31,1.45.2,10.47-2.57,18.18,1.98,24.39,9.77,4.94,6.19,8.51,13.17,10.45,20.91Z"/>
      <path class="cls-2" d="M127.74,46.74c-.1,1.05-.19,2.09-.29,3.14-.69,1.07-1.37,2.15-1.48,3.47-1.54,3.77-3.08,7.54-4.62,11.31-.47.64-.9,1.32-1.42,1.91-.7.8-1.61.82-2.44.29-.92-.57-.97-1.4-.46-2.34.56-1.05,1.04-2.14,1.55-3.21,5.39-11.85,6.54-24.19,4.41-36.95-.23-1.4-1.46-3.36,1.22-3.94,2.03-.44,4.42,1.09,4.77,3.24,1.26,7.77.87,15.48-1.24,23.08Z"/>
      <path class="cls-3" d="M72.79,163.86c1.45.03,2.89.06,4.34.09-1.47.91-2.91,1.01-4.34-.09Z"/>
      <path class="cls-7" d="M144.84,78.3c-.16-.22-.33-.44-.49-.66.16.22.33.44.49.66Z"/>
      <path class="cls-9" d="M161.62,78.6c.18,0,.36.02.55.03,0,0-.28.1-.28.1l-.27-.13Z"/>
      <path class="cls-9" d="M163.47,78.71c.22-.15.43-.3.65-.45,0,.45-.25.56-.65.45Z"/>
      <path class="cls-10" d="M147.53,100.3c-.35,10.25-3.93,19.55-9.01,28.24-5.5,9.39-13.52,16.17-23.17,21.21-9.09,4.75-18.86,6.22-28.85,7.55-12.17,1.63-23.26-1.99-34.46-5.61-1.46-.47-2.87-1.07-4.33-1.53-7.92-2.52-11.18-8.92-13.86-16.06-2.15-5.73-4.38-11.41-5.69-17.41-1.83-8.39-1.94-16.74-.51-25.25,1.35-8.05,3.6-15.69,7.39-22.89,6.85-13.02,17.27-22.02,30.89-27.39,5.54-2.18,11.19-4.06,17.19-4.21,12.51-.31,21.03,5.33,26.59,18.21,1.89,4.39,2.55,9.03,3.07,13.66.26,2.32,1.14,2.58,3.05,2.61,7.31.12,14.11,2.14,20.22,6.17,8.12,5.35,11.86,12.96,11.47,22.69ZM59.89,120.89c-.03,5.38,1.22,6.42,5.56,5.78,7.22-1.07,13.73-3.85,19.81-7.83,15.24-9.99,24.58-23.7,26.7-42.02.38-3.29-1.01-4.83-4.4-4.59-3.49.24-6.86,1.19-10.1,2.45-13.44,5.24-23.96,13.98-31.04,26.62-3.58,6.39-6.14,13.17-6.53,19.59Z"/>
      <path class="cls-7" d="M131.41,69c.65-.1,1.37.06,1.83-.61,1.83.98,3.8,1.78,4.95,3.67-2.57-.34-4.38-2.34-6.78-3.06Z"/>
      <path class="cls-8" d="M59.89,120.89c.39-6.42,2.95-13.2,6.53-19.59,7.08-12.65,17.6-21.38,31.04-26.62,3.24-1.26,6.62-2.21,10.1-2.45,3.39-.24,4.78,1.31,4.4,4.59-2.12,18.32-11.46,32.03-26.7,42.02-6.08,3.98-12.59,6.77-19.81,7.83-4.35.64-5.59-.4-5.56-5.78ZM105.05,75.74c-.22.01-.75-.02-1.24.09-11.6,2.77-21.01,9.09-28.66,18.08-6.45,7.58-10.41,16.41-12.46,26.13-.59,2.8.61,4.11,3.34,3.54,5.84-1.22,11.13-3.59,16.39-6.46,5.24-2.86,9.75-6.62,13.43-10.89,6.5-7.53,11.36-16.22,12.94-26.37.46-2.98-.35-4.15-3.74-4.12Z"/>
      <path class="cls-1" d="M105.05,75.74c3.4-.03,4.21,1.14,3.74,4.12-1.58,10.15-6.44,18.84-12.94,26.37-3.69,4.27-8.19,8.03-13.43,10.89-5.26,2.87-10.55,5.24-16.39,6.46-2.73.57-3.93-.74-3.34-3.54,2.06-9.72,6.01-18.55,12.46-26.13,7.65-8.99,17.06-15.31,28.66-18.08.49-.12,1.02-.08,1.24-.09Z"/>
    </g>
  </g>
</svg>