<?xml version="1.0" encoding="UTF-8"?>
<svg id="Layer_2" data-name="Layer 2" xmlns="http://www.w3.org/2000/svg" viewBox="0 0 185 185">
  <defs>
    <style>
      .cls-1 {
        fill: none;
      }

      .cls-2 {
        fill: #7f694b;
      }
    </style>
  </defs>
  <g id="borxes">
    <rect class="cls-1" width="185" height="185"/>
  </g>
  <g id="flavours">
    <g>
      <path class="cls-2" d="M149.23,54.85c-9.85-9.55-19.44-19.38-29.23-29-10.6-10.4-7.29-10.77-18.7.11-3.45,3.29-2.92,5.56.24,8.54,5.63,5.3,10.9,10.97,16.49,16.31,2.32,2.21,3.06,3.9,1.69,7.31-6.14,15.31,4.36,31.4,20.94,32.13,3.75.17,4.39,1.29,4.34,4.63-.17,13.33-.03,26.67-.08,40-.06,15.43,1.49,13.29-14.42,13.42-4.43.04-6.28-1.91-5.3-6.59,2.19-10.58,4.11-21.22,6.12-31.84,1.15-6.1-1.57-11.12-6.94-12.98-2.82-.98-5.76-1.03-8.61-.7-4.22.49-5.13-1.23-5.03-5.18.27-11.01.14-22.03.08-33.04-.08-13.23-8.81-22.26-21.98-22.52-10.25-.2-20.53.47-30.74-.19-15.23-.98-24.98,9.92-24.51,24.76.51,16.41.12,32.85.12,49.28,0,17.01.15,34.02-.09,51.02-.07,4.93,1.25,6.81,6.5,6.75,21.27-.26,42.54-.24,63.81-.01,5.16.05,7.14-1.23,7.03-6.8-.35-17.58-.16-35.17-.08-52.76,0-1.54-1.06-4.18,1.21-4.45,3.74-.46,7.9-1.46,11.29.81,3,2.01,1.36,5.34.88,8.07-1.75,9.88-3.8,19.7-5.49,29.58-1.31,7.66,2.79,12.82,10.48,13.38,3.46.25,6.96.19,10.44.03,7.68-.37,11.67-4.38,11.69-12.17.09-27.44.03-54.89.06-82.33,0-2.21-.45-3.86-2.21-5.57ZM99.15,160.82c-18.16-.28-36.32-.19-54.48-.05-3.41.03-4.69-.71-4.67-4.44.15-32.82.02-65.65.13-98.47.03-10.21,6.04-16.04,16.37-16.18,10.24-.14,20.48-.12,30.72,0,11.22.13,17.03,5.97,17.11,17.29.11,16.01.03,32.03.03,48.05,0,16.03-.11,32.05.08,48.08.05,4.01-.6,5.81-5.28,5.73Z"/>
      <path class="cls-2" d="M81.92,84.19c-4.63,0-9.27-.08-13.9.03-3.44.08-4.91-1.44-4.87-4.86.09-6.75.07-13.51,0-20.26-.03-3.16,1.52-4.68,4.54-4.69,9.46-.04,18.92-.03,28.38,0,3.06,0,4.52,1.5,4.47,4.67-.09,6.75-.14,13.51.02,20.26.09,3.9-1.79,5.02-5.34,4.89-4.44-.16-8.88-.04-13.32-.04ZM82.09,77.57c3.08,0,6.16-.02,9.24,0,1.73.02,3.02-.33,2.99-2.48-.05-3.85-.06-7.69,0-11.54.03-2.09-1.13-2.57-2.91-2.56-6.16.03-12.32.09-18.47-.03-2.52-.05-3.15.97-3.34,3.37-1.04,13.24-1.11,13.24,11.91,13.24.19,0,.38,0,.58,0Z"/>
      <path class="cls-2" d="M59.92,69.53c0,1.93,0,3.86,0,5.79q0,8.88-8.7,8.87-7.77,0-7.78-7.5c0-5.6.2-11.2-.07-16.78-.19-4.03,1.4-5.43,5.32-5.59,11.22-.45,11.22-.56,11.22,10.59,0,1.54,0,3.09,0,4.63ZM54.06,69.15c-1.61-2.4,1.54-7.62-2.06-7.62-4.2,0-1.98,5.2-1.98,7.96,0,2.6-2.33,7.63,1.81,7.58,3.93-.04.72-5.12,2.23-7.92Z"/>
    </g>
  </g>
</svg>