<?xml version="1.0" encoding="UTF-8"?>
<svg id="Layer_2" data-name="Layer 2" xmlns="http://www.w3.org/2000/svg" viewBox="0 0 185 185">
  <defs>
    <style>
      .cls-1 {
        fill: #fbc613;
      }

      .cls-2 {
        fill: none;
      }

      .cls-3 {
        fill: #fbde5a;
      }

      .cls-4 {
        fill: #fbe466;
      }

      .cls-5 {
        fill: #fbde59;
      }

      .cls-6 {
        fill: #fdf0ad;
      }
    </style>
  </defs>
  <g id="borxes">
    <rect class="cls-2" width="185" height="185"/>
  </g>
  <g id="flavours">
    <g>
      <path class="cls-4" d="M82.68,22.83c.29,1.03-.91.42-.96.8-.11.79.48,2.3.61,3.21,1.82,13.05,4.28,26.91,6.79,39.91.21,1.09.38,3.12,1.19,3.74-8.96.88-17.15,8.44-19.06,17.16l-47.97-6.35c.14-.67-.18-1.53.86-1.84.95-.29,8.71.94,8.67-.22-.03-.84-7.72-3.06-8.12-3.64s.49-2.94.73-3.75c5.7-19.72,21.74-36.82,40.67-44.48,2.06-.83,7.62-3.03,9.55-3.2.44-.04.51-.07.86.25.61.58,2.4,4.7,3.08,5.82.31.51.65,1.24,1.2,1.49.25-2.9-.5-5.7-.63-8.58.91.17,1.71-.2,2.54-.32ZM78.23,60c-1.5-7.33-3.99-14.88-8.89-20.65,1.45,7.02,3.66,15.51,8.89,20.65ZM72.83,73.34c-7.61-7.96-15.52-16.02-25.1-21.6l2.53,3.34c5.46,5.45,11.03,10.92,17.38,15.34,1.53,1.07,3.39,2.58,5.18,2.91ZM66.16,80.97c-6.73-3.18-13.64-7.16-21.28-7.31,6.03,4.22,13.5,7.02,20.84,7.92.63.08.46-.06.45-.61Z"/>
      <path class="cls-4" d="M108.73,107.97c-.12.73.24.97.62,1.44,2.51,3.11,7.01,7.07,10.01,10,6.52,6.37,12.98,12.93,19.58,19.18,1.18,1.11,2.84,2.92,4.42,3.05-9.34,9.7-21.47,16.83-34.69,19.8-7.51,1.68-18.98,1.72-26.63.85l7.94-47.97c7.3.35,13.43-.85,18.74-6.35ZM109.68,153.72c-.23-6.02-1.33-12.23-2.69-18.11-.59-2.56-1.25-5.29-2.06-7.79-.68-2.1-1.53-4.82-2.87-6.5,1.16,9.04,2.52,18.84,5.39,27.49.51,1.56,1.22,3.67,2.23,4.91ZM126.2,144.51c1.09-1.19-9.35-17.7-12.39-18.43.39,1.82,1.49,3.74,2.37,5.41,1.81,3.42,4.4,7.63,6.99,10.48.32.36,2.68,2.9,3.02,2.54ZM91.89,132.12c-.67-.1-.51-.03-.71.4-.72,1.6-1.5,6.14-1.79,8.05-.67,4.45-.95,8.98-.35,13.46.67.1.52.04.71-.4.33-.73.84-2.55,1.05-3.4,1.45-5.9,1.76-12.09,1.1-18.12Z"/>
      <path class="cls-4" d="M156.39,63.18c.4.9,1.82,2.49,1.55,3.59-.17.66-2.96,2.12-3.68,2.69-.38.3-.87.36-.72,1.02l5.71-.95c1.28,4.4,2.89,9.2,3.2,13.81.85,12.67.25,22.47-4.14,34.17-.04-.63-.28-.95-.88-1.19-3.93-1.56-8.12-2.76-12.01-4.19-9.34-3.44-18.87-7.34-28.28-10.48-1.04-.35-2.98-1.1-3.95-.66,1.93-4.98,2.16-9.8.64-14.93.97.51,2.07-.23,2.96-.69,12.6-6.53,24.55-13.8,37.18-20.33.74-.38,2.38-1.01,2.43-1.86ZM148.44,81.29c-6.64-.44-13.95-.89-20.4,1.04-.4.12-1.46.38-1.52.86l7.77.65c3.16.03,10.65-.34,13.38-1.58.48-.22.89-.32.77-.97ZM157.34,103.84c-2.1-1.64-5.05-2.8-7.55-3.73-8.52-3.15-17.67-4.64-26.76-4.21-.16.74.1.51.41.71,1.39.89,4.04,2,5.63,2.62,8.97,3.5,18.63,5.06,28.27,4.61Z"/>
      <path class="cls-4" d="M81.73,111.79c-1.84.14-2.83,2.79-3.73,4.05-6.84,9.49-13.63,19.02-20.42,28.51-1.46,2.04-3.72,4.03-4.44,6.52-5.86-3.98-14.57-11.18-18-17.42-1.3-2.36,1.67-2.49,2.11-4.5-1.49-.33-3.31,1.71-4.6.63-.62-.52-3.51-6.25-4.03-7.4-1.2-2.64-2.81-6.64-3.44-9.43.93.26.95,1.12,2.23.48,5.29-2.07,10.52-4.38,15.81-6.42,7.54-2.91,15.38-5.9,22.78-8.67,1.88-.71,3.67-.63,4.93-2.54.66,6.09,5.53,13.17,10.8,16.2ZM66.79,104.16c-11.36,2.72-22.97,7.66-31.13,16.2,9.24-1.73,18.12-5.83,25.7-11.31,1.34-.97,3.31-2.37,4.49-3.46.25-.24,1.27-1.12.95-1.43ZM70.61,112.1c-.24-.24-1.56.91-1.87,1.14-6.5,4.88-12.41,10.74-18.31,16.32l-3.33,4.45c.67.19.88-.25,1.28-.47,7.34-4.07,15.72-13.46,21.23-19.76.23-.26,1.23-1.46,1-1.69Z"/>
      <path class="cls-4" d="M141.77,42.21c-2.95,2.15-5,5.62-7.32,8.41-7.77,9.37-15.71,18.67-23.37,28.12l.19,1.59c-2.67-4.13-6.23-6.37-10.57-8.27-.33-.14-.2-.61-.23-.63,1.02.18.53-.52.63-1.11,2.18-14.09,5.01-28.01,7.07-42.19.18-1.24.95-2.53.56-4.04,12.86,2.96,23.6,9,33.04,18.11ZM115.08,31.73c-.85-.17-.55.21-.79.63-3.54,6.02-5.62,13.73-6.2,20.66,1.03-.82,1.7-2.65,2.28-3.92,2.4-5.3,4.6-11.52,4.71-17.37ZM132.88,44.75c-.62-.13-.85.14-1.29.46-2.84,2.08-8.07,8.24-10.46,11.14-1.01,1.23-9.55,12.48-8.9,13.17.7.05,1.15-.67,1.6-1.11,3.32-3.2,7.15-7.57,10.14-11.13,3.28-3.91,6.49-8.02,8.9-12.54Z"/>
      <path class="cls-3" d="M71.24,87.64c-.16.73-.26,1.48-.32,2.22-.62.83-.55,1.85-.55,2.81,0,.59-.48,1.16.55,1,.03.62-.06,1.31,0,1.91-1.26,1.91-3.04,1.83-4.93,2.54-7.4,2.77-15.24,5.76-22.78,8.67-5.3,2.04-10.52,4.35-15.81,6.42-1.28.64-1.3-.22-2.23-.48-.16-.73-.23-1.48-.32-2.22s.37-1.47-.64-1.27c-2.18-7.96-2.67-19.9-.95-27.96l47.97,6.35ZM63.93,94.95c-11.07-1.11-22.69-2.31-33.68-.16,0,.31,2.86.73,3.34.79,8.24,1.01,21.23,1.79,29.22,0,.45-.1.99.02,1.11-.63Z"/>
      <path class="cls-5" d="M81.73,111.79c1.38.79,4.46,1.89,6.04,2.22-.16,1.3.69.33.95.32.41-.03.86-.02,1.27,0l-7.94,47.97c-.41-.05-.85.03-1.27,0,.13-1.34-.86-.32-.95-.32-.65.05-1.29-.15-1.91-.32-.09-.31-.37-.29-.64-.32-.41-.03-.89.06-1.27,0,.11-.74-.11-.88-.64-.32-8.51-1.98-15.1-5.32-22.24-10.17.73-2.49,2.99-4.48,4.44-6.52,6.79-9.49,13.58-19.02,20.42-28.51.91-1.26,1.9-3.91,3.73-4.05ZM70.93,152.13c1.31-1.32,2.23-3.34,3.08-5.02,4.12-8.08,7.73-17.18,9.3-26.12-.99.88-1.58,2.49-2.17,3.7-4.21,8.62-8.49,17.96-10.21,27.43Z"/>
      <path class="cls-3" d="M158.29,117.5c-3.67,9.76-7.61,16.54-14.93,24.15-1.58-.14-3.24-1.94-4.42-3.05-6.6-6.25-13.06-12.81-19.58-19.18-3-2.93-7.5-6.89-10.01-10-.38-.47-.75-.72-.62-1.44,1.68-1.74,3.57-4.73,4.45-6.99.97-.45,2.91.31,3.95.66,9.41,3.14,18.94,7.04,28.28,10.48,3.89,1.43,8.08,2.64,12.01,4.19.59.24.83.56.88,1.19ZM120.01,111.47v.32c.21-.11.21-.21,0-.32ZM148.44,129.26c-3.6-3.29-7.86-6.46-11.97-9.15-4.21-2.75-8.77-5.24-13.22-7.43-1.42-.7-4.44-1.6-1.78.51,3.57,2.83,8.49,6.09,12.39,8.58,4.52,2.88,9.47,5.96,14.59,7.49Z"/>
      <path class="cls-5" d="M108.73,24.1c.38,1.51-.38,2.8-.56,4.04-2.07,14.18-4.89,28.1-7.07,42.19-.09.59.4,1.29-.63,1.11-.1-.06-1.83-.26-2.22-.32.16-1.3-.7-.33-.95-.32-2.03.12-4.64-.55-6.99-.32-.8-.62-.98-2.65-1.19-3.74-2.51-13-4.98-26.86-6.79-39.91-.13-.91-.71-2.42-.61-3.21.05-.38,1.25.23.96-.8,1.1-.16,2.73-.34,3.81-.32.57.01,2.8,1.1,2.54-.32,7.17-.05,12.7.3,19.7,1.91ZM93.16,63.18c1.14-11.03,1.84-22.47-.48-33.36-.22,0-.44,1.42-.47,1.75-.77,8.45-1.55,21.94.09,30.08.12.62,0,1.79.85,1.52Z"/>
      <path class="cls-5" d="M156.39,63.18c-.05.85-1.7,1.48-2.43,1.86-12.62,6.52-24.57,13.79-37.18,20.33-.89.46-1.99,1.2-2.96.69-.53-1.77-1.53-4.15-2.54-5.72l-.19-1.59c7.67-9.45,15.61-18.76,23.37-28.12,2.31-2.79,4.36-6.26,7.32-8.41,6.49,6.26,10.98,12.73,14.61,20.97ZM145.27,60.95c-.77-.65-8.96,3.72-10.26,4.51-3.23,1.97-6.24,4.3-8.79,7.09,5.8-2.01,12.65-5.33,17.3-9.38.26-.23,2.14-1.89,1.76-2.21Z"/>
      <path class="cls-4" d="M89.03,22.19c.26,1.42-1.98.33-2.54.32.53-.57,1.75-.31,2.54-.32Z"/>
      <path class="cls-4" d="M24.22,109.24c1.01-.2.54.5.64,1.27-.52-.3-.5-.78-.64-1.27Z"/>
      <path class="cls-4" d="M79.82,161.98c.09,0,1.08-1.02.95.32-.37-.03-.69,0-.95-.32Z"/>
      <path class="cls-4" d="M75.37,161.03c.53-.56.74-.42.64.32-.52-.09-.6-.31-.64-.32Z"/>
      <path class="cls-4" d="M77.91,161.66c-.25-.07-.52-.01-.64-.32.27.02.55,0,.64.32Z"/>
      <path class="cls-6" d="M72.83,73.34c-1.8-.34-3.65-1.85-5.18-2.91-6.35-4.42-11.92-9.9-17.38-15.34l-2.53-3.34c9.58,5.58,17.48,13.64,25.1,21.6Z"/>
      <path class="cls-1" d="M66.16,80.97c.01.54.18.68-.45.61-7.34-.9-14.8-3.69-20.84-7.92,7.64.15,14.56,4.13,21.28,7.31Z"/>
      <path class="cls-1" d="M78.23,60c-5.22-5.14-7.44-13.63-8.89-20.65,4.9,5.77,7.39,13.32,8.89,20.65Z"/>
      <path class="cls-1" d="M109.68,153.72c-1.01-1.24-1.72-3.36-2.23-4.91-2.86-8.65-4.23-18.46-5.39-27.49,1.33,1.68,2.19,4.4,2.87,6.5.8,2.5,1.47,5.23,2.06,7.79,1.36,5.88,2.47,12.09,2.69,18.11Z"/>
      <path class="cls-6" d="M91.89,132.12c.66,6.03.35,12.21-1.1,18.12-.21.85-.72,2.67-1.05,3.4-.19.44-.04.5-.71.4-.6-4.49-.32-9.01.35-13.46.29-1.91,1.07-6.45,1.79-8.05.2-.43.04-.5.71-.4Z"/>
      <path class="cls-6" d="M126.2,144.51c-.34.37-2.7-2.18-3.02-2.54-2.59-2.85-5.18-7.07-6.99-10.48-.89-1.67-1.98-3.58-2.37-5.41,3.04.72,13.48,17.24,12.39,18.43Z"/>
      <path class="cls-1" d="M157.34,103.84c-9.64.45-19.3-1.11-28.27-4.61-1.59-.62-4.24-1.72-5.63-2.62-.31-.2-.57.03-.41-.71,9.1-.44,18.24,1.06,26.76,4.21,2.5.93,5.45,2.09,7.55,3.73Z"/>
      <path class="cls-6" d="M148.44,81.29c.12.65-.29.76-.77.97-2.73,1.24-10.22,1.61-13.38,1.58l-7.77-.65c.06-.47,1.12-.74,1.52-.86,6.45-1.93,13.76-1.48,20.4-1.04Z"/>
      <path class="cls-1" d="M66.79,104.16c.32.31-.69,1.2-.95,1.43-1.18,1.09-3.14,2.48-4.49,3.46-7.58,5.48-16.45,9.58-25.7,11.31,8.17-8.53,19.77-13.48,31.13-16.2Z"/>
      <path class="cls-6" d="M70.61,112.1c.23.23-.78,1.43-1,1.69-5.5,6.29-13.88,15.68-21.23,19.76-.4.22-.61.66-1.28.47l3.33-4.45c5.9-5.58,11.81-11.44,18.31-16.32.31-.23,1.63-1.39,1.87-1.14Z"/>
      <path class="cls-6" d="M132.88,44.75c-2.42,4.51-5.62,8.62-8.9,12.54-2.99,3.56-6.82,7.94-10.14,11.13-.45.44-.9,1.16-1.6,1.11-.65-.69,7.89-11.95,8.9-13.17,2.39-2.9,7.63-9.06,10.46-11.14.43-.32.66-.59,1.29-.46Z"/>
      <path class="cls-6" d="M115.08,31.73c-.11,5.85-2.3,12.07-4.71,17.37-.57,1.26-1.24,3.1-2.28,3.92.57-6.93,2.65-14.64,6.2-20.66.24-.41-.06-.8.79-.63Z"/>
      <path class="cls-6" d="M63.93,94.95c-.13.64-.66.53-1.11.63-7.99,1.79-20.99,1.01-29.22,0-.48-.06-3.35-.48-3.34-.79,10.99-2.15,22.61-.94,33.68.16Z"/>
      <path class="cls-4" d="M70.92,93.68c-1.03.16-.55-.41-.55-1,0-.96-.07-1.98.55-2.81-.09,1.16-.05,2.64,0,3.81Z"/>
      <path class="cls-1" d="M70.93,152.13c1.72-9.47,6-18.81,10.21-27.43.59-1.21,1.19-2.82,2.17-3.7-1.57,8.94-5.18,18.04-9.3,26.12-.85,1.68-1.78,3.69-3.08,5.02Z"/>
      <path class="cls-6" d="M148.44,129.26c-5.12-1.53-10.07-4.61-14.59-7.49-3.9-2.49-8.82-5.74-12.39-8.58-2.66-2.11.37-1.21,1.78-.51,4.45,2.2,9.01,4.68,13.22,7.43,4.12,2.69,8.37,5.86,11.97,9.15Z"/>
      <path class="cls-6" d="M120.01,111.47c.21.11.21.21,0,.32v-.32Z"/>
      <path class="cls-1" d="M93.16,63.18c-.86.26-.73-.91-.85-1.52-1.64-8.14-.86-21.63-.09-30.08.03-.33.26-1.75.47-1.75,2.31,10.9,1.61,22.33.48,33.36Z"/>
      <path class="cls-1" d="M145.27,60.95c.38.32-1.49,1.98-1.76,2.21-4.65,4.06-11.5,7.37-17.3,9.38,2.55-2.79,5.56-5.12,8.79-7.09,1.3-.79,9.49-5.16,10.26-4.51Z"/>
    </g>
  </g>
</svg>