<?xml version="1.0" encoding="UTF-8"?>
<svg id="Layer_2" data-name="Layer 2" xmlns="http://www.w3.org/2000/svg" viewBox="0 0 185 185">
  <defs>
    <style>
      .cls-1 {
        fill: #f3e3b0;
      }

      .cls-2 {
        fill: #e9cc8b;
      }

      .cls-3 {
        fill: none;
      }

      .cls-4 {
        fill: #c9b3c5;
      }

      .cls-5 {
        fill: #cca751;
      }

      .cls-6 {
        fill: #684311;
      }

      .cls-7 {
        fill: #4bca0c;
      }

      .cls-8 {
        fill: #370c23;
      }

      .cls-9 {
        fill: #572247;
      }

      .cls-10 {
        fill: #3ca908;
      }

      .cls-11 {
        fill: #dfb85e;
      }

      .cls-12 {
        fill: #7a446b;
      }
    </style>
  </defs>
  <g id="borxes">
    <rect class="cls-3" width="185" height="185"/>
  </g>
  <g id="flavours">
    <g>
      <path class="cls-9" d="M81.33,50.06c2.02,1.04,2.55.76,4.68,1.28,5.14,1.25,6.97,2.75,11.07,5.54.2,2-1.95-.39-2.53-.66-28.12-13.17-48.94,15.4-43.34,41.64,3.51,16.46,19.05,30.59,36.5,28.01.31-.26-2.94-5.11-3.29-5.86-1.9-4.14-4.18-12.65-4.37-17.13-.1-2.41.47-5.66.85-8.09,0-.05.3-.15.43-.85.31-1.68.18-3.06.73-5.02.62-2.21,1.91-3.8,2.67-5.63l.43.43c-1.61,3.01-3.22,10.75-3.42,14.25-1.7,29.2,28.15,55.52,56.89,46.24,8.91-2.88,18.85-9.75,16.8-20.46,2.27.36,3.63-.31,5.54-1.28-1.56,9.5-10.83,19.22-19.6,22.78-16.11,6.55-34,1.17-46.26-10.36-3.84,1.66-8.11,4.05-12.32,4.58-5.4.68-10.86-1-15.51-.82.12-1.73.08-1.06-1.06-1.26-10.66-1.92-20.37-15.25-23.53-25.04-6.44-20-.46-49.37,20.03-58.95,1.33-.62,4.08-.38,2.21-2.04-4.61,2.34-8.88,4.14-12.79,7.64-16.39,14.72-21.39,43.77-9.3,62.56,3.31,5.15,7.65,8.99,12.49,12.67-.9,2.69-5.01,2.32-7.23,1.66-1.48-.44-1.03-.43-2.55-.65-2.14-.3-6-3.39-7.67-4.89-8.72-7.81-13.57-19.26-14.05-30.88-.12-2.84-.12-6.1,0-8.94.58-14.19,7.89-28.88,20.73-35.7,6.61-3.51,14.08-3.92,21.43-4.34.9-.05,2.48.06,3.83,0,.06,0,.46.48,1.03.45,3.38-.18,6.92-1.4,10.47-.87Z"/>
      <path class="cls-12" d="M80.05,102.87c.19,4.49,2.47,13,4.37,17.13.35.76,3.6,5.6,3.29,5.86-17.46,2.58-32.99-11.55-36.5-28.01-5.6-26.24,15.22-54.81,43.34-41.64.58.27,2.73,2.66,2.53.66,1.85,1.26,3.25,1.69,5.12,3.61,1.72,1.77,3.74,4.35,4.67,6.61-.14,0-.29-.02-.43,0-.32-.96-.73-.77-1.49-.46-1.13.46-2.61,1.49-4.04,2.16-2.44-7.45-10.71-14.11-18.84-13.09-7.04.88-12.38,7.33-14.25,13.86-3.25,11.36.62,28.23,12.22,33.3Z"/>
      <path class="cls-8" d="M45.56,135.23c1.52.21,1.07.21,2.55.65,2.22.66,6.33,1.03,7.23-1.66-4.84-3.68-9.17-7.51-12.49-12.67-12.09-18.79-7.09-47.83,9.3-62.56,3.91-3.51,8.18-5.31,12.79-7.64,1.86,1.66-.88,1.42-2.21,2.04-20.5,9.58-26.47,38.95-20.03,58.95,3.15,9.79,12.87,23.12,23.53,25.04,1.14.2,1.18-.46,1.06,1.26-1.3.05-3.36.79-4.88.87-5.29.26-12.62-.96-16.84-4.28Z"/>
      <path class="cls-7" d="M73.24,43.67c6.38,1.21,8.89-6.22,14.67-5.98,5.14.22,12.58,6.08,17.32,8.27,5.25,2.43,10.15,1.81,15.71,2.82-.06.35.09,1.16,0,1.27-.44.53-12.05,3.28-13.42,3.41-1.96.18-5.64.2-7.56-.1-2.45-.38-5.72-2.52-7.79-2.85-2.45-.39-5.33.4-7.85-.45l1.7,1.27c-2.14-.52-2.66-.24-4.68-1.28-3.16-1.63-5.56-3.93-8.94-4.68.13-.33-.24-1.24.09-1.62.19-.21.73-.04.76-.09ZM113.27,50.91c1.11-1.54-5.75-2.27-6.28-2.45-5.14-1.69-10.93-6.86-16.06-8.64-2-.69-5.17-.82-7.02.25-.91.53-2.89,3.42-4.31,4.21-.91.51-1.92.69-2.95.67-.18,1.54,3.31,3.15,4.44,2.99,1.97-.27,2.75-4.75,7.19-4.67s8.13,2.78,11.38,5.28c.48.37.65,1.12,1.15,1.51,1.75,1.37,3.98,2.51,6.26,2.1.65-.12,1.12-.71,1.74-.81.84-.14,4.04.11,4.45-.45Z"/>
      <path class="cls-6" d="M73.24,43.67s-.58-.13-.76.09c-.33.38.04,1.29-.09,1.62-.04.09-.99.58-1.37,1.4-.53,1.15-.85,2.49-1.19,3.71-1.35.06-2.94-.05-3.83,0,.01-2.85,1.36-11.55,3.59-13.24,1.19-.9,2.45.44,3.87.49.52.02,8.42-1.29,4.61,1.62-2.59,1.99-2.71,1.34-4.84,4.32Z"/>
      <path class="cls-4" d="M100.92,68.8c-1.89.88-3.27,1.52-5.11,2.56-4.29,2.42-5.16,3.42-8.09,7.24-1.54,2.01-1.93,2.18-2.98,4.68-.77,1.83-2.06,3.42-2.67,5.63-.55,1.96-.42,3.34-.73,5.02-.99-.14-1.17.14-.43.85-.39,2.43-.95,5.68-.85,8.09-11.61-5.07-15.47-21.95-12.22-33.3,1.86-6.52,7.21-12.97,14.25-13.86,8.13-1.02,16.4,5.64,18.84,13.09Z"/>
      <path class="cls-12" d="M81.33,93.92c-.13.7-.42.8-.43.85-.75-.71-.56-.99.43-.85Z"/>
      <path class="cls-10" d="M113.27,50.91c-.41.56-3.61.31-4.45.45-.62.1-1.1.69-1.74.81-2.27.42-4.5-.72-6.26-2.1-.5-.39-.66-1.14-1.15-1.51-3.25-2.5-7.05-5.2-11.38-5.28s-5.23,4.4-7.19,4.67c-1.14.16-4.62-1.45-4.44-2.99,1.03.01,2.04-.17,2.95-.67,1.42-.79,3.4-3.68,4.31-4.21,1.86-1.07,5.03-.94,7.02-.25,5.14,1.77,10.92,6.95,16.06,8.64.53.17,7.39.9,6.28,2.45Z"/>
      <path class="cls-5" d="M106.46,67.1c.14-.02.29,0,.43,0,3.24-.16,7.15,1.52,10.08,2.91s9.48,6.2,11.64,6.46c-.03.95.57,1.14,1.14,1.63,2.91,2.5,6.15,4.68,9.08,7.32,8.85,7.97,19.04,20.62,22.02,32.7.56,2.26.48,2.17.13,4.35-1.91.97-3.27,1.63-5.54,1.28,2.05,10.72-7.89,17.59-16.8,20.46-28.74,9.28-58.59-17.05-56.89-46.24.2-3.5,1.81-11.24,3.42-14.25.34-.64,2.8-4.87,2.98-5.11s3.87-3.75,4.48-4.25c1.12-.91,3.21-1.42,3.18-2.57,2.66-.35,5.61-.9,8.19.11.82.32,1.07,1.29,2.03,1.16.59-.61-4.19-5.36.43-5.96ZM110.72,79.45c1.32.5,11.08,4.28,11.5,3.83l.85-6.38c-1.7-.33-.69,3.77-2.34,3.4-2.06-.46-2.36-6.08-3.85-6.81s.07,3.98-.21,4.25c-.18.18-.92.04-1.29-.29-1.01-.87-2.37-4.3-3.61-4.82-1.82-.76,1.46,3.89,1.07,4.25-.87.82-3.4-2.51-4.05-2.98-1.13-.28-.43,1.09-.63,1.27-.78.71-2.02-1.19-2.54-1.44-.27-.13-5.45-1.53-5.75-1.56-.36-.04-.72.03-1.08.02.53,1.76,1.23,7.83-1.93,5.98-.73-.43-3.47-3.79-4.26-2.59-1.38,2.12,3.04,4.23,1.75,6.01s-6.64-1.96-6.64,1.03c0,1.58,3.96,3.85,3.22,5.33-.98,1.97-4.59.1-5.9.41-.27.06-1.19,1.65-1.14,1.91.29,1.5,8.14,1.33,6.52,4.83-.9,1.95-8.39-.3-7.85,3.24.26,1.7,7.48.76,8.71,1.17.89.3.73,1.37.7,2.07-1.02.68-1.51,1.25-1.28,2.56-.42.12-.96-.04-1.67.23-.84.32-3.32,2.1-3.45,2.98-.64,4.16,5.96,1.43,7.5,1.51.68.04,1.18.8,1.46.81-.07.74.07,1.48.85,1.7-.06.07-.03.98-.61,1.73-.31.4-8.45,6.52-3.5,6.34,1.25-.05,7.18-3.52,6.58-.25-.09.5-1,1.16-1.42,1.54-.93.86-4.94,3.15-5.12,3.4-.59.84.03,2.29.96,2.51,2.15.52,6.7-4.53,9.5-3.77-.41.7-.23,2.01-.43,2.56-.78,2.15-5.47,4.9-4.49,6.81,1.73,3.39,6.39-3.87,7.73-4.62,1.01-.57,1.73-.27,2.3-.48-.46.96-.28,2.05-.43,2.98-.32,2.05-.54,1-1.73,2.32-1.06,1.19-2.9,3.94.17,3.24.25-.06,2.48-4.24,3.92-2.17,1.02,1.47-2.13,5.25-.65,7.26,3.78.52,3.74-8.08,6.59-8.11,3.26-.04-2.32,7.85.86,8.14,1.95.18,2.9-5.08,3.88-6.8.43-.74-.04-1.16,1.43-.9,0,.5.42,1.19.43,1.7.03,2.51-3.32,5.21-2.5,7.81s4.08-3.56,4.81-4c4.69-2.87-1.38,5.21-.18,6.42,4.31.58,3.52-8.17,6.39-8.52.55-.07,1.14.05,1.7,0,.02.07.79.21.82,1.02.05,1.26-2.71,7.07.2,6.19,2.53-.77-.78-8.57,3.24-8.9.04.18.36.46.43.85.17,1.03.65,8.09,1.07,8.1,3.79.07.23-5.68.63-8.1.07-.44,1.16-1.61.85-2.56.12.1.68-.28.99.51.53,1.32.75,6.31,1.33,7.18.41.61,1.75.62,2.17,0,.79-1.13-2.14-8.19-2.79-9.82l3.41,1.28c.19,1.06.85,4.84,2.56,3.63,1.1-.78-.44-3.16-.96-4.18-.35-.69-.66-2.23-1.61-2.01-.05-.72-1.08-3.14.23-3.41,1.09-.22,4.15,3.22,5.31,2.13,1.45-1.37-7.45-6.81.43-5.96-.38.44,2.57,7.27,4.68,6.39.73-4.74-1.91-7.15-5.53-9.37-.95-.58-1.89-1.38-2.98-1.7-6.46-1.9-8.38-.7-14.3-.03-7.31.82-15.55-2.71-19.43-9.04-4.79-7.83-3.28-16.02-2.05-24.57.22-1.51.72-2.99.43-4.68ZM131.58,80.3c-3.74-.52-5.62,1.36-5.11,5.11h2.13c.1-.58-.15-2.85,0-2.99.35-.33,3.73.94,2.99-2.13ZM129.45,88.39c-.26-1.05-7.02-4.95-7.66-4.26-.72,3.51,3.43,4.76,5.76,6.8.78.68,2.65,3.23,2.84,3.34.67.4,3.5-.8,4.6-.35l-2.13-3.4c1.1-.39,2.17-3.88,1.7-5.11-3.6-.46-.58,4.02-5.11,2.98ZM129.24,94.35c-1.62-.46-5.15.34-7.03,0-.59-1.05-.24-5.66-.47-5.92-.67-.76-6.46-1.54-7.87-.93-6.06,2.64-4.01,13.21-1.54,17.79,4.67,8.66,13.82,13.81,23.5,9.7,3.36-1.42,3.55-3.01,2.69-6.52-.64-2.6-6.94-13.46-9.29-14.13ZM144.36,93.08c-1.56-.57-3.03,2.4-4.27,1.51-1.97-1.42,1.3-4,1.31-4.7.01-1.25-2.31-2.63-2.59-.02s1.14,4.19-2.53,4.28c2.27,3.33,4.78,6.52,6.32,10.28,1.7,4.14,2.02,8.51,4.8,12.24.83.34,6.48,4.37,6.76,4.09,1.12-1.12-5.59-3.21-4.25-4.68.38-.42,5.55,3.87,6.81,3.4,1.26-1.14-5.87-3.69-5.97-4.04-.34-1.26,1.56-.82.43-2.77l4.68.85c-.08-2.25-5.15-.95-5.53-2.78-.34-1.6,3.28-1.31,3.84-1.68.48-.32.57-1.34.41-1.5-.53-.52-3.49,1.01-3.83-.22-.54-1.97,2.61-.75,1.5-2.77-1.2-2.18-5.75,2.24-5.12-1.7.75.12,3.03.15,2.76-1.05s-4.78-.7-5.1-1.71c-.7-2.17,3.22-1.29,3.41-1.49.69-2.81-2.82-1.93-4.69-2.56l.85-2.97ZM156.71,116.92c.85-.8-2.79-2.27-3.4-2.13-.24,1.14.3.73.84,1.06.4.24,2.31,1.31,2.56,1.07Z"/>
      <path class="cls-11" d="M129.24,94.35c2.35.67,8.65,11.53,9.29,14.13.86,3.5.66,5.09-2.69,6.52-9.68,4.1-18.83-1.04-23.5-9.7-2.47-4.58-4.52-15.15,1.54-17.79,1.41-.61,7.2.16,7.87.93.23.26-.12,4.87.47,5.92,1.88.34,5.41-.46,7.03,0Z"/>
      <path class="cls-1" d="M110.29,84.13c-1.23,8.55-2.75,16.74,2.05,24.57,3.87,6.33,12.11,9.86,19.43,9.04,5.92-.67,7.84-1.87,14.3.03.24,2.91-2.4,1.57-2.54,1.7-.08.07-.74,1.88-.77,2.03-.14.61.35,1.23.28,1.56-.24,1.14-1.59.29-2.23.37-.39.05-.75.74-1.27.67s-.77-1.05-1.56-.79c-.23,1.14.98,3.89-.65,4.25-1.08.24-.66-1.73-1.91-1.28.2,2.14-1.23,3.27-1.71.65-.05-.28-.08-4.84-1.27-3.63-.35.35-.49,3.91-.43,4.69h-2.13c-.2-.18,1.32-4.83-.21-4.26-2.12.8-1.38,2.91-2.74,4.07-3.02,2.59-.72-1.79-.89-3.22-1.45-.11-1.72,2.75-2.77,2.98-2.74.58,1.01-5.4.64-6.38-1.43-.23-1.27,2.19-1.73,3.07-.05.1-1.36,1.58-1.46,1.61-2.14.58.13-4.38-.21-4.68-2.41-1.24-2.64,4.64-4.46,4.25-1.5-.32.24-4.18-.22-4.68-1.01-.51-2.15,2.06-2.98,1.27-.75-.71,4.2-4.67,1.9-5.11-1.37-.26-4.02,4.5-6.16,3.41-.51-2.75,3.48-3.38,3.4-5.96-2.24-.52-3.3,1.07-5.16,1.88-.49.21-1.03.15-1.23.24-.12.05-.3-.05-.43,0-.89-3.28,3.5-2.64,4.26-5.32-.99-1.06-4.3,1.51-4.69-.01-.46-1.78,4.19-3.46,3.79-5.03-.62-2.43-4.47.45-5.96-1.31-1.95-2.31,4.54-3.38,3.83-5.11-.78-1.89-5.08-.44-5.5-1.75-.46-2.47,4.28-.83,4.68-2.56.35-1.53-4.13-1.86-4.27-2.55-.58-2.95,4.35-.09,4.7-1.71.15-.69-1.99-2.67-1.28-4.04.32.09.88-.04,1.28,0,.63.07,1.34.77,2.55,0l-1.27-3.4,2.98.42ZM138.08,121.6c0-.29-.24-.53-.53-.53s-.53.24-.53.53.24.53.53.53.53-.24.53-.53Z"/>
      <path class="cls-11" d="M91.98,101.59c.03-.7.19-1.77-.7-2.07-1.23-.41-8.45.53-8.71-1.17-.54-3.54,6.94-1.29,7.85-3.24,1.62-3.5-6.23-3.33-6.52-4.83-.05-.25.87-1.84,1.14-1.91,1.31-.31,4.92,1.56,5.9-.41.73-1.47-3.22-3.74-3.22-5.33,0-2.98,5.29.83,6.64-1.03s-3.13-3.89-1.75-6.01c.78-1.2,3.52,2.16,4.26,2.59,3.16,1.85,2.46-4.22,1.93-5.98.35,0,.72-.06,1.08-.02.3.03,5.48,1.43,5.75,1.56.53.25,1.76,2.15,2.54,1.44.21-.19-.5-1.56.63-1.27.65.47,3.18,3.79,4.05,2.98.39-.37-2.88-5.01-1.07-4.25,1.24.52,2.6,3.94,3.61,4.82.38.33,1.11.47,1.29.29.28-.27-1.27-4.98.21-4.25s1.79,6.34,3.85,6.81c1.65.37.64-3.73,2.34-3.4l-.85,6.38c-.41.45-10.17-3.33-11.5-3.83-2.2-.83-5.16-3.37-7.21-1.45-.93,2.81,5.45,2.58,5.5,5.28-1.5.03-2.75-.66-4.04-1.28-.5.03-.05,1.11-.22,1.28-.69.7-5.31-2.71-6.38-1.7-1.87,1.76,6.64,3.44,7.14,3.71.93.5.49,1,.53,1.83-.4-.04-.96.09-1.28,0-2.31-.66-4.26-2.69-6.81-2.55-1.45,2.36,7.4,2.74,4.7,4.48-2.32,1.5-8.32-3.64-9.62-1.08-1.46,2.87,8.4.89,7.47,4.03-.65,2.19-7.1-2.31-8.32-.65-1.77,2.42,5.01,1.51,5.92,1.79.5.15.72.46.72,1-.03,2.68-7.38.05-7.25,3.19,1.6.85,6.65-2.07,6.84.22.21,2.49-4.79,2.95-6.42,4.04Z"/>
      <path class="cls-2" d="M105.6,116.5c.2-.09.74-.03,1.23-.24,1.85-.81,2.92-2.4,5.16-1.88.08,2.58-3.91,3.21-3.4,5.96,2.14,1.1,4.79-3.67,6.16-3.41,2.3.44-2.66,4.4-1.9,5.11.83.79,1.97-1.79,2.98-1.27.46.5-1.28,4.36.22,4.68,1.82.39,2.06-5.49,4.46-4.25.34.31-1.93,5.27.21,4.68.11-.03,1.41-1.52,1.46-1.61.46-.88.3-3.3,1.73-3.07.37.99-3.38,6.97-.64,6.38,1.05-.22,1.32-3.09,2.77-2.98.17,1.43-2.14,5.82.89,3.22,1.36-1.17.62-3.27,2.74-4.07,1.53-.58.01,4.07.21,4.25h2.13c-.07-.78.08-4.33.43-4.68,1.18-1.21,1.21,3.35,1.27,3.63.48,2.62,1.91,1.49,1.71-.65,1.25-.45.83,1.52,1.91,1.28,1.63-.36.41-3.12.65-4.25.79-.26,1.06.72,1.56.79s.87-.61,1.27-.67c.64-.09,1.99.77,2.23-.37.07-.32-.41-.95-.28-1.56.03-.15.69-1.96.77-2.03.14-.13,2.79,1.21,2.54-1.7,1.09.32,2.03,1.12,2.98,1.7-.16,1.08,1.49,1.76,1.7,2.35.32.89-.8.58-.85.63-7.88-.85,1.02,4.59-.43,5.96-1.16,1.1-4.22-2.34-5.31-2.13-1.31.26-.28,2.68-.23,3.41.06.81-.13,1.82,0,2.56l-3.41-1.28c-1.43-3.58-3.79.47-1.7,2.13.31.94-.78,2.11-.85,2.56h-1.7c-.07-.39-.38-.68-.43-.85-.11-.46.11-1.18-.1-1.8-.7-2.09-2.88-4.69-3.64-1.3-.11.48-.6,4.58-.52,4.8-.56.05-1.15-.07-1.7,0-.99-1.69.55-7.46-1.93-7.69-2.64-.25-3.04,6.61-6.59,5.99,0-.51-.43-1.21-.43-1.7,0-1.63.96-6.2-.71-6.76-2.86-.95-4.25,5.45-7.8,4.62-.38-2.19,1.46-3.57,1.7-5.71-3.56-2.39-3.6,6.61-7.67,4.86.15-.93-.04-2.02.43-2.98,1.68-.61,2.92-4.22,2.55-5.96-4.03-.62-4.55,5.97-8.09,4.26.2-.55.01-1.86.43-2.56.89-1.5,5.6-3.59,3.83-6.39Z"/>
      <path class="cls-2" d="M104.75,87.11c-.71,1.37,1.43,3.35,1.28,4.04-.35,1.61-5.28-1.24-4.7,1.71.14.69,4.62,1.02,4.27,2.55-.4,1.73-5.14.09-4.68,2.56.41,1.31,4.72-.14,5.5,1.75.71,1.72-5.78,2.8-3.83,5.11,1.49,1.76,5.33-1.11,5.96,1.31.4,1.57-4.24,3.25-3.79,5.03.39,1.53,3.7-1.05,4.69.01-.76,2.68-5.16,2.04-4.26,5.32-2.23.95-3.49,3.58-5.96,3.83l1.7-4.25c-.59-.55-6.52,1.94-5.96-.63.4-1.84,7.07-2.35,6.38-4.68-.39-1.33-5.63.29-5.96.63-.78-.22-.92-.96-.85-1.7.15,0,1.93-1.22,2.56-1.49,1.73-.74,3.88-.2,3.4-2.77-2.31-.54-4.52,2.36-6.59,2.5-4.7.33,3.59-4.77,2.76-5.49-1.94-.61-3.26,1.21-4.59,1.6-.52.15-1.06.02-1.37.1-.23-1.31.26-1.88,1.28-2.56,1.63-1.09,6.63-1.54,6.42-4.04-.2-2.3-5.25.63-6.84-.22-.14-3.14,7.22-.51,7.25-3.19,0-.54-.22-.84-.72-1-.9-.28-7.69.63-5.92-1.79,1.22-1.67,7.68,2.84,8.32.65.93-3.14-8.93-1.16-7.47-4.03,1.3-2.57,7.3,2.58,9.62,1.08,2.7-1.74-6.14-2.12-4.7-4.48,2.55-.14,4.5,1.9,6.81,2.55Z"/>
      <path class="cls-11" d="M144.36,93.08l-.85,2.97c1.87.63,5.38-.26,4.69,2.56-.19.2-4.1-.68-3.41,1.49.33,1.02,4.85.56,5.1,1.71s-2.01,1.18-2.76,1.05c-.63,3.94,3.91-.48,5.12,1.7,1.11,2.02-2.04.8-1.5,2.77.34,1.23,3.29-.3,3.83.22.16.16.07,1.18-.41,1.5-.56.37-4.18.08-3.84,1.68.38,1.83,5.45.53,5.53,2.78l-4.68-.85c1.13,1.94-.77,1.5-.43,2.77.1.36,7.22,2.9,5.97,4.04-1.26.47-6.43-3.82-6.81-3.4-1.34,1.47,5.37,3.56,4.25,4.68-.28.28-5.93-3.75-6.76-4.09-2.78-3.73-3.09-8.1-4.8-12.24-1.55-3.76-4.05-6.96-6.32-10.28,3.67-.09,2.26-1.75,2.53-4.28s2.6-1.23,2.59.02c0,.7-3.28,3.29-1.31,4.7,1.24.89,2.71-2.08,4.27-1.51Z"/>
      <path class="cls-11" d="M106.46,130.12c4.06,1.75,4.11-7.25,7.67-4.86-.24,2.14-2.08,3.52-1.7,5.71,3.55.83,4.94-5.57,7.8-4.62,1.67.55.72,5.12.71,6.76-1.47-.27-1.01.16-1.43.9-.99,1.71-1.94,6.97-3.88,6.8-3.18-.29,2.4-8.18-.86-8.14-2.85.03-2.81,8.64-6.59,8.11-1.48-2.01,1.67-5.8.65-7.26-1.44-2.07-3.67,2.12-3.92,2.17-3.07.7-1.24-2.05-.17-3.24,1.18-1.32,1.4-.27,1.73-2.32Z"/>
      <path class="cls-11" d="M95.38,111.39c.33-.34,5.57-1.96,5.96-.63.69,2.33-5.98,2.84-6.38,4.68-.56,2.57,5.36.08,5.96.63l-1.7,4.25c2.47-.25,3.73-2.88,5.96-3.83.12-.05.31.05.43,0,1.77,2.8-2.94,4.89-3.83,6.39-2.8-.76-7.34,4.29-9.5,3.77-.93-.22-1.55-1.68-.96-2.51.18-.25,4.19-2.54,5.12-3.4.41-.38,1.33-1.04,1.42-1.54.6-3.27-5.33.21-6.58.25-4.95.18,3.19-5.94,3.5-6.34.58-.75.54-1.66.61-1.73Z"/>
      <path class="cls-11" d="M129.88,136.51c-2.86.35-2.07,9.09-6.39,8.52-1.2-1.21,4.87-9.29.18-6.42-.73.44-3.96,6.69-4.81,4s2.52-5.3,2.5-7.81c3.55.62,3.95-6.24,6.59-5.99,2.47.24.94,6,1.93,7.69Z"/>
      <path class="cls-11" d="M90.7,104.15c.31-.09.85.05,1.37-.1,1.33-.39,2.65-2.21,4.59-1.6.83.72-7.46,5.82-2.76,5.49,2.08-.15,4.28-3.04,6.59-2.5.48,2.57-1.67,2.03-3.4,2.77-.63.27-2.41,1.49-2.56,1.49-.28-.01-.78-.77-1.46-.81-1.54-.08-8.14,2.65-7.5-1.51.14-.89,2.61-2.67,3.45-2.98.71-.27,1.25-.11,1.67-.23Z"/>
      <path class="cls-11" d="M101.35,125.44c3.54,1.71,4.06-4.88,8.09-4.26.36,1.74-.88,5.35-2.55,5.96-.57.21-1.29-.09-2.3.48-1.34.76-6,8.01-7.73,4.62-.97-1.91,3.72-4.65,4.49-6.81Z"/>
      <path class="cls-2" d="M110.72,79.45c.29,1.7-.21,3.18-.43,4.68l-2.98-.42,1.27,3.4c-1.22.77-1.93.07-2.55,0-.04-.83.4-1.33-.53-1.83-.49-.26-9-1.94-7.14-3.71,1.07-1.01,5.7,2.4,6.38,1.7.17-.17-.28-1.26.22-1.28,1.29.62,2.54,1.31,4.04,1.28-.05-2.69-6.43-2.46-5.5-5.28,2.05-1.92,5.01.61,7.21,1.45Z"/>
      <path class="cls-5" d="M129.45,88.39c.12.49-.14,1.99,0,2.13.12.12,3.18.08,3.41,0l2.13,3.4c-1.1-.44-3.93.75-4.6.35-.19-.11-2.06-2.66-2.84-3.34-2.32-2.04-6.47-3.29-5.76-6.8.65-.69,7.41,3.21,7.66,4.26Z"/>
      <path class="cls-11" d="M135.84,134.81c-4.01.33-.71,8.14-3.24,8.9-2.91.88-.16-4.92-.2-6.19-.03-.81-.8-.95-.82-1.02-.08-.23.41-4.33.52-4.8.76-3.39,2.94-.78,3.64,1.3.21.62-.02,1.34.1,1.8Z"/>
      <path class="cls-11" d="M140.53,130.97c.65,1.63,3.58,8.69,2.79,9.82-.43.61-1.77.61-2.17,0-.58-.87-.8-5.86-1.33-7.18-.31-.78-.87-.41-.99-.51-2.09-1.66.28-5.71,1.7-2.13Z"/>
      <path class="cls-9" d="M106.46,67.1c-4.62.6.16,5.35-.43,5.96-.96.13-1.2-.84-2.03-1.16-2.58-1.01-5.54-.46-8.19-.11v-.43c1.84-1.04,3.22-1.68,5.11-2.56,1.44-.67,2.92-1.7,4.04-2.16.76-.31,1.17-.51,1.49.46Z"/>
      <path class="cls-11" d="M149.04,119.48c3.63,2.22,6.27,4.63,5.53,9.37-2.11.88-5.06-5.95-4.68-6.39.05-.06,1.17.26.85-.63-.21-.59-1.86-1.26-1.7-2.35Z"/>
      <path class="cls-5" d="M129.45,88.39c4.53,1.04,1.5-3.45,5.11-2.98.47,1.23-.6,4.72-1.7,5.11-.23.08-3.29.12-3.41,0-.14-.14.12-1.64,0-2.13Z"/>
      <path class="cls-5" d="M131.58,80.3c.75,3.07-2.64,1.79-2.99,2.13-.14.14.11,2.41,0,2.99h-2.13c-.51-3.75,1.37-5.63,5.11-5.11Z"/>
      <path class="cls-11" d="M137.97,135.66c-.41,2.42,3.16,8.16-.63,8.1-.42,0-.9-7.06-1.07-8.1h1.7Z"/>
      <path class="cls-11" d="M143.93,129.7c.95-.22,1.26,1.32,1.61,2.01.51,1.02,2.05,3.4.96,4.18-1.71,1.22-2.37-2.56-2.56-3.63-.13-.73.06-1.75,0-2.56Z"/>
      <path class="cls-12" d="M95.81,71.35v.43c.02,1.14-2.07,1.65-3.18,2.57-.61.5-4.29,4-4.48,4.25h-.43c2.93-3.82,3.8-4.82,8.09-7.24Z"/>
      <path class="cls-6" d="M88.14,78.59c-.18.24-2.64,4.47-2.98,5.11l-.43-.43c1.05-2.51,1.44-2.68,2.98-4.68h.43Z"/>
      <path class="cls-11" d="M156.71,116.92c-.26.24-2.16-.83-2.56-1.07-.54-.32-1.08.08-.84-1.06.61-.14,4.25,1.33,3.4,2.13Z"/>
      <circle class="cls-2" cx="137.55" cy="121.6" r=".53"/>
      <path class="cls-11" d="M122.55,75.7l.39,3.07c1.96-.16,4.85-2.35,5.32.51-.1.26-4.04.99-2.55,2.71.7.81,4.68-1.39,5.37-.43s-1.39,1.87-2.12,2.06c.97,3.87,3.41-1.98,5.37-.45,1.82,1.42-1.56,1.54-.29,3.14.8.99,2.91-1.57,3.6-1.3.21.08.52,1.06.21,1.54-.37.57-3.81,1.72-2.87,3.06,1.07,1.53,5.22-1.66,6.18.38l-4.64,1.06c1.8,1.34-.12,1.69.69,2.71.23.29,7.78-.17,7.08,1.37-.98.93-7.41-.98-7.6-.45-.66,1.88,6.34,1.16,5.75,2.63-.15.37-6.93-1.12-7.83-1.11-4.02-2.34-6.03-6.23-9.22-9.37-2.9-2.85-6.46-4.8-9.86-6.97,3.34-1.52,1.39-2.5.64-4.93s1.91-2.15,2.39-1c.27.65-1.72,4.31.64,4.84,1.49.33,1.68-2.98,3.34-3.07Z"/>
    </g>
  </g>
</svg>