<?xml version="1.0" encoding="UTF-8"?>
<svg id="Layer_2" data-name="Layer 2" xmlns="http://www.w3.org/2000/svg" viewBox="0 0 185 185">
  <defs>
    <style>
      .cls-1 {
        fill: #d32342;
      }

      .cls-2 {
        fill: #272e38;
      }

      .cls-3 {
        fill: none;
      }

      .cls-4 {
        fill: #097936;
      }

      .cls-5 {
        fill: #ef9aa7;
      }

      .cls-6 {
        fill: #be0833;
      }
    </style>
  </defs>
  <g id="borxes">
    <rect class="cls-3" width="185" height="185"/>
    <g>
      <path class="cls-4" d="M52.72,73.37c-.83,1.79-2.49,6.96-2.54,8.84-.03,1.18.19,2.68,1.84,2.29-.2.36.16,1.43-.64,2.46-.24.31-5.26,5.36-5.62,5.54-1.62.8-4.6.32-6.76,1.53-1.5.84-2.58,3.84-4.4,4.7s-4.95.83-6.92,1.77c.24-.63,0-1.66.52-2.57,1.86-3.24,6.21-5.75,9.91-5.78-.92-.96-4.86-7.66-4.17-8.34,1.87-.73,8.91,5.14,9.73,4.17-.41-6.15,2.93-12.82,9.05-14.6Z"/>
      <path class="cls-1" d="M33.94,101.88c-.09,1.9,2.22,2.56,2.64,3.96,1.35,4.48-1.09,9.63-6.11,7.86-.63,4.28.93,2.03,3.46,3.14,2.76,1.21,4.67,5.91,3.14,8.68-.86,1.54-3.57.91-3.82,3.48-2.79.73-6.52-4.25-6.96-6.26-.2-.91-.19-4.9.01-5.78.15-.66,1.22.04,1.38-1.87.03-.39.08-1.07,0-1.39l-.7-.7c-1.03-3.74-1.48-5.69-.7-9.74,2.29-1.09,5.81-.89,7.65-1.39Z"/>
      <path class="cls-2" d="M68.02,81.02c-.85.84-4.87,1.53-6.22,2.47-1.27.88-1.55,2.62-2.98,3.28-2.03.94-4.6.28-7.02,1.88-.65.43-.4,1.33-.48,1.41-1.02,1.03-1.15-.87-2.09,2.78-2.63,2.14-5.59,1.48-7.91,2.19-1.24.38-.95,1.82-1.13,1.99-.67.62-1.96,1.98-2.09,2.09-.2.17-3.93,2.72-4.17,2.78-1.84.5-5.36.3-7.65,1.39.35-1.77,1.11-2.04,1.39-2.78,1.98-.94,5.18-.95,6.92-1.77,1.83-.86,2.9-3.86,4.4-4.7,2.16-1.21,5.14-.73,6.76-1.53.36-.18,5.37-5.22,5.62-5.54.8-1.03.44-2.11.64-2.46,1.28-2.29,6.31-4.67,8.9-5.36,1.95-.52,11.36-2.34,7.1,1.88Z"/>
      <path class="cls-5" d="M26.99,113.01l.7.7c-.04-.14-.61-.4-.7-.7Z"/>
      <path class="cls-6" d="M90.98,117.18c2.97,3.22,4.29,7.53,2.23,11.63-.69,1.37-2.59,2.51-2.82,3.46-.46,1.86,1.46,5.11-.05,8.96-1.83,4.65-5.7,3.91-8.08,5.83-1.8,1.46-2.4,5.28-5.69,6.83-3.96,1.86-6.18-.13-8.74.28-3.41.54-4.42,4.17-10.22,1.61-3.54-1.56-3.64-5.41-4.28-5.79s-2.75,0-4.1-.42c-5.25-1.66-4.44-5.99-6.92-8.03.07-1.18.26-1.63-1.04-1.38l-.35.69c-.76-.44-2.22-.51-3.28-1.23-3.11-2.09-4.71-6.96-4.37-10.6.25-2.58,2.96-1.94,3.82-3.48,1.54-2.77-.37-7.47-3.14-8.68-2.53-1.1-4.09,1.14-3.46-3.14,5.02,1.77,7.47-3.38,6.11-7.86-.42-1.4-2.73-2.06-2.64-3.96.24-.07,3.98-2.62,4.17-2.78-1.73,3.13.22,9.03,3.85,9.73,9.13,1.75,7.23-14.25-1.76-11.82.18-.16-.12-1.61,1.13-1.99,2.32-.71,5.28-.05,7.91-2.19-.89,3.45-.23,6.47,3.09,8.38,8.73,5.02,9.59-14.06-1-11.16.08-.08-.18-.98.48-1.41,2.41-1.6,4.98-.94,7.02-1.88,1.43-.66,1.71-2.4,2.98-3.28,1.35-.94,5.37-1.63,6.22-2.47.99.8,5.03,2.24,5.56,2.78.39.39.94,3.18,2.1,3.82s3.06.23,4.68.88c2.32.92,2.18,2.65,2.96,3.65-.2,1.43-.04,1.58,1.39,1.39.97,3.37.13,3.6,0,6.26-.04.71.98,2.4.7,2.77-.17.23-2.57.16-2.81,1.17-.77,3.16.51,7.3,3.14,9.29,1.27.96,3.64,1.3,3.77,1.46.37.48-.23,2,.19,2.59.25.35,1.2.02,1.28.1ZM91.52,123.24c-1.09-4.73-7.27-7.03-9.13-1.08-3.28,10.52,11.58,11.76,9.13,1.08ZM87.29,142.02c2.94-3.64-1.09-9.75-5.34-7.79-6.61,3.05.84,13.37,5.34,7.79ZM82.48,112.11c-.14-.46-3.21-4.46-3.62-4.72-7.45-4.53-11.39,8.35-3.43,12.48,4.93,2.55,8.46-2.96,7.05-7.77ZM81.77,95.43c-.72-3.53-3.82-6.22-7.52-5.07-5.3,1.64-2.4,11.08,1.92,12.06,5.42,1.24,6.57-2.22,5.6-6.99ZM71.69,124.32c-3.1,2.49-1.97,9.86,2.56,11.33,7.77,2.52,8.56-11.55,1.72-12.21-.94-.09-3.61.34-4.28.88ZM77.6,150.41c2.04-2.04,1.19-9.43-2.98-10.26-9.22-1.82-8.92,10.63-2.07,11.17.95.07,4.54-.4,5.06-.92ZM71.34,102.39c-2.02-9.91-16.83-4.51-9.95,5.09,4.77,6.65,11.53,2.67,9.95-5.09ZM69.21,85.39c-4.98-5.89-12.78,4.15-6.44,8.88,6.14,4.57,10.56-4.01,6.44-8.88ZM70.59,120.41c-.44-6.48-10.24-9.81-11.59-2.14-1.74,9.91,12.29,12.49,11.59,2.14ZM67.13,141.32c3.32-2.67,2.23-10.41-3.1-11.46-10.64-2.11-5.09,18.05,3.1,11.46ZM58.5,153.12c4.06,2.89,7.79-1.86,5.27-6.31-3.72-6.56-11.12,2.14-5.27,6.31ZM49.46,114.2c2.45,3.09,7,4.34,9.53.55,4.53-6.79-4.04-14.22-9.07-9.07-1.75,1.79-1.99,6.59-.46,8.52ZM58.74,127.37c-.31-10.21-15.28-9.6-10.36,2.15,2.39,5.7,10.58,4.97,10.36-2.15ZM47.97,135.38c-1.03.65-2.45,5.09-1.82,6.81,3.02,8.29,14.95,5.46,9.65-4.08-1.32-2.38-5.65-4.1-7.83-2.73ZM48.44,117.03c-.21-1.7-2.79-5.78-4.4-6.11-9.83-1.97-7.87,11.61-1.34,12.53,3.02.43,6.07-3.77,5.74-6.42ZM46.31,131.62c-1.23-7.4-11.9-6.95-10.25,1.88,1.25,6.68,11.74,7.1,10.25-1.88Z"/>
      <path class="cls-1" d="M38.12,99.1c.12-.11,1.42-1.46,2.09-2.09,8.99-2.44,10.89,13.57,1.76,11.82-3.63-.7-5.58-6.6-3.85-9.73Z"/>
      <path class="cls-1" d="M49.25,92.84c.94-3.66,1.07-1.75,2.09-2.78,10.6-2.9,9.73,16.18,1,11.16-3.32-1.91-3.98-4.93-3.09-8.38Z"/>
      <path class="cls-1" d="M90.98,117.18c-.08-.09-1.02.25-1.28-.1-.42-.59.18-2.11-.19-2.59-.12-.16-2.49-.5-3.77-1.46-2.63-1.99-3.9-6.13-3.14-9.29.24-1.01,2.64-.94,2.81-1.17.28-.38-.74-2.07-.7-2.77,8.12,2.07,8.76,10.53,6.26,17.39Z"/>
      <path class="cls-1" d="M84.72,93.53c-1.43.19-1.59.04-1.39-1.39.43.56.63-1.27,1.39,1.39Z"/>
      <path class="cls-1" d="M42.29,141.53c-.11-.09-.97-.45-1.39-.7l.35-.69c1.29-.25,1.11.2,1.04,1.38Z"/>
      <path class="cls-1" d="M71.34,102.39c1.58,7.76-5.18,11.74-9.95,5.09-6.88-9.59,7.93-15,9.95-5.09Z"/>
      <path class="cls-1" d="M82.48,112.11c1.41,4.81-2.12,10.32-7.05,7.77-7.97-4.13-4.02-17.02,3.43-12.48.42.25,3.49,4.26,3.62,4.72Z"/>
      <path class="cls-1" d="M49.46,114.2c-1.54-1.93-1.29-6.74.46-8.52,5.03-5.14,13.6,2.28,9.07,9.07-2.53,3.79-7.07,2.54-9.53-.55Z"/>
      <path class="cls-1" d="M70.59,120.41c.71,10.35-13.32,7.77-11.59-2.14,1.35-7.68,11.14-4.34,11.59,2.14Z"/>
      <path class="cls-1" d="M58.74,127.37c.21,7.12-7.97,7.85-10.36,2.15-4.92-11.75,10.05-12.36,10.36-2.15Z"/>
      <path class="cls-1" d="M67.13,141.32c-8.18,6.59-13.73-13.57-3.1-11.46,5.32,1.05,6.42,8.79,3.1,11.46Z"/>
      <path class="cls-1" d="M48.44,117.03c.33,2.65-2.72,6.85-5.74,6.42-6.53-.92-8.5-14.5,1.34-12.53,1.61.32,4.19,4.41,4.4,6.11Z"/>
      <path class="cls-1" d="M71.69,124.32c.66-.53,3.34-.97,4.28-.88,6.84.66,6.06,14.73-1.72,12.21-4.53-1.47-5.66-8.85-2.56-11.33Z"/>
      <path class="cls-1" d="M81.77,95.43c.97,4.78-.18,8.23-5.6,6.99-4.32-.99-7.21-10.42-1.92-12.06,3.7-1.14,6.8,1.54,7.52,5.07Z"/>
      <path class="cls-1" d="M47.97,135.38c2.18-1.37,6.51.35,7.83,2.73,5.3,9.54-6.64,12.37-9.65,4.08-.62-1.72.8-6.16,1.82-6.81Z"/>
      <path class="cls-1" d="M77.6,150.41c-.51.51-4.11.99-5.06.92-6.85-.54-7.14-12.99,2.07-11.17,4.17.82,5.03,8.21,2.98,10.26Z"/>
      <path class="cls-1" d="M46.31,131.62c1.49,8.98-9,8.55-10.25,1.88-1.65-8.83,9.01-9.28,10.25-1.88Z"/>
      <path class="cls-1" d="M69.21,85.39c4.12,4.87-.3,13.45-6.44,8.88-6.35-4.73,1.46-14.76,6.44-8.88Z"/>
      <path class="cls-1" d="M91.52,123.24c2.46,10.68-12.4,9.44-9.13-1.08,1.86-5.95,8.04-3.65,9.13,1.08Z"/>
      <path class="cls-1" d="M87.29,142.02c-4.5,5.58-11.95-4.74-5.34-7.79,4.25-1.96,8.29,4.15,5.34,7.79Z"/>
      <path class="cls-1" d="M58.5,153.12c-5.85-4.16,1.55-12.86,5.27-6.31,2.52,4.45-1.21,9.19-5.27,6.31Z"/>
      <g>
        <path class="cls-1" d="M153.46,78.4c2.31-.8,2.07,5.94,0,4.87,0-1.62-.07-3.26,0-4.87Z"/>
        <path class="cls-5" d="M156.94,72.83c.19-.16.58-.53.7-.7l-.7.7Z"/>
        <path class="cls-5" d="M99.91,73.53c-.37-.19-.47-.44-.7-.7l.7.7Z"/>
        <path class="cls-1" d="M135.38,37.36c.47.52,1,1.45,1.39,2.09.8,1.31.81,3.89,2.78.7.36.02,1.35.05,1.39,0l1.39-.7c.68.06,1.45-.1,2.09,0,6.83,1.13,10.66,3.89,9.76,11.5-.22,1.86-1.78,3.87-1.46,5.42.11.54,3.03,1.73,3.88,2.56,2.5,2.46,2.67,5.71,2.43,9.04-.5.89-.88,3.41-1.39,4.17-.11.17-.5.54-.7.7-.37.31-1.97.91-2.78,1.39-1.28.77-4.31,1.6-.7,2.09-.08.67.03,1.4,0,2.09-.07,1.61,0,3.25,0,4.87v1.39c-.94.28-3.13,4.76-6.06,5.42-1.57.35-5.17.38-6.78.11-1-.16-2.93-2-3.83-1.34-.1.07-.3,1.66-.8,2.31-5.34,6.77-10.08,5.5-16.61,1.15-1.74-5.98-3.6-2.39-8.11-2.14-3.89.22-3.01-1.14-4.72-2.76-2.83-2.68-2.7-4.32-3.17-4.84v-6.26c1.53.46,1.29-1.33,1.39-1.39.22-.13,1.09.21,1.53-.05,1.86-1.11,2.48-2.97,6.12-2.04-.89-4.72-6.24-.57-8.34,1.39-1.01-.31-2.32-.29-3.48-.7-.22-.08-.52.09-.7,0l-.7-.7c-5.33-6.02-2.38-15.38,5.56-16.7-3.51-5.09-2.31-12.57,3.48-15.29,3.27-1.54,6.69-.79,9.73.69,2.18-7.4,11.92-10.21,17.4-4.17ZM119.38,42.23c-4.25-.53-.25,11.3,2.09,9.03.78-.75-3.42-7.08-2.09-9.03ZM137.46,42.23c-2.95-.33-5.11,8.13-4.17,9.04.14.14,1.52-.09,2.08,0-.41-3.25,1.57-5.97,2.09-9.04ZM137,73.76c1.09-1.03,4.37-1.81,4.58-2.72.12-.54-1.47-4.1-1.4-6.21.06-1.81,1.53-4.41,1.44-4.82-.18-.8-3.38-1.62-4.52-2.46-1.38-1.02-2.47-3.46-3.13-3.88-.86-.54-4.08,1.13-5.9,1.14-1.97,0-5.06-1.51-6.18-1.29-1.03.2-3.57,3.68-5.05,4.63-1.67,1.07-3.73.05-3.04,2.52.06.22,1.12.25,1.34.88.37,1.05.85,3.6.8,4.68-.11,2.49-1.83,3.1-2.13,5.22,3.11.07,6.79,2.71,6.96,5.98.12,2.23-4.45,6.43-2.79,10.01,2.91.1,1.75-3.15,2.4-4.9,1.5-4,4.16-5.79,8.4-5.58,6.04.3,3.67,2.6,4.83,6.33.32,1.03,2.22,5.14,3.49,4.84,2.51-.58-.28-1.58-.57-2.27-.26-.62-1.78-7.46-1.76-7.86.05-1.02,1.5-3.56,2.23-4.24ZM151.37,56.84c-.52-.45-6.63,2.47-8.35,1.39v2.08c1.07,1.12,10.25-1.83,8.35-3.47ZM150.58,72.92c-.37-.55-6.73-3.72-7.55-1.12-.28,1.87,2.33.76,3.68,1.17,1.06.32,1.44,1.7,2.91,1.96s1.35-1.42.95-2.01Z"/>
        <path class="cls-1" d="M104.08,74.22c.18.05.43.55.7.7-.1.06.14,1.85-1.39,1.39-.53-.16-3.53-1.89-2.78-2.78,1.16.4,2.47.39,3.48.7Z"/>
        <path class="cls-6" d="M137,73.76c-.72.69-2.18,3.23-2.23,4.24-.02.4,1.5,7.24,1.76,7.86.29.68,3.08,1.68.57,2.27-1.27.3-3.17-3.81-3.49-4.84-1.15-3.73,1.22-6.03-4.83-6.33-4.23-.21-6.9,1.58-8.4,5.58-.65,1.75.51,5-2.4,4.9-1.67-3.59,2.91-7.78,2.79-10.01-.18-3.28-3.86-5.91-6.96-5.98.3-2.12,2.02-2.73,2.13-5.22.05-1.08-.43-3.63-.8-4.68-.22-.63-1.28-.67-1.34-.88-.68-2.46,1.37-1.45,3.04-2.52,1.48-.94,4.02-4.42,5.05-4.63,1.11-.22,4.21,1.3,6.18,1.29,1.82,0,5.04-1.68,5.9-1.14.66.41,1.75,2.86,3.13,3.88,1.14.85,4.34,1.66,4.52,2.46.09.42-1.38,3.01-1.44,4.82-.07,2.12,1.53,5.68,1.4,6.21-.21.92-3.5,1.69-4.58,2.72Z"/>
        <path class="cls-6" d="M137.46,42.23c-.52,3.08-2.49,5.79-2.09,9.04-.56-.09-1.94.13-2.08,0-.95-.91,1.22-9.37,4.17-9.04Z"/>
        <path class="cls-6" d="M119.38,42.23c-1.34,1.95,2.87,8.28,2.09,9.03-2.34,2.26-6.34-9.56-2.09-9.03Z"/>
        <path class="cls-6" d="M151.37,56.84c1.9,1.64-7.28,4.59-8.35,3.47v-2.08c1.72,1.08,7.82-1.84,8.35-1.39Z"/>
        <path class="cls-6" d="M104.08,74.22c2.1-1.96,7.45-6.11,8.34-1.39-3.64-.92-4.26.94-6.12,2.04-.43.26-1.3-.08-1.53.05-.27-.14-.52-.64-.7-.7Z"/>
        <path class="cls-6" d="M150.58,72.92c.4.59.57,2.28-.95,2.01s-1.85-1.64-2.91-1.96c-1.35-.41-3.96.7-3.68-1.17.82-2.6,7.18.58,7.55,1.12Z"/>
        <path class="cls-6" d="M111.04,29.01c-.33.33-1.11-.64-.35-.7.24-.02.5.54.35.7Z"/>
      </g>
    </g>
  </g>
</svg>