<?xml version="1.0" encoding="UTF-8"?>
<svg id="Layer_2" data-name="Layer 2" xmlns="http://www.w3.org/2000/svg" viewBox="0 0 185 185">
  <defs>
    <style>
      .cls-1 {
        fill: #fbe00d;
      }

      .cls-2 {
        fill: none;
      }

      .cls-3 {
        fill: #ab3b4f;
      }

      .cls-4 {
        fill: #f6a310;
      }

      .cls-5 {
        fill: #f0895e;
      }

      .cls-6 {
        fill: #f6b9b3;
      }
    </style>
  </defs>
  <g id="borxes">
    <rect class="cls-2" width="185" height="185"/>
    <g>
      <path class="cls-4" d="M50.02,124.87c-9.2-7.95-25.69-24.88-11-34.54,11.03-7.26,20.69-5.36,29.94-.96,11.73,10.32,23.27,47.05,24.82,49.88-1.63,2.79,2.73,10.22-5.78,7.68-5.44-6.07-22.25-15.08-37.99-22.05Z"/>
      <path class="cls-1" d="M77.16,63.79c-6.02-5.23-16.8-16.38-7.03-22.9,7.34-4.9,13.7-3.7,19.79-.84,7.68,6.79,15.06,31.14,16.07,33.01-1.1,1.87,1.74,6.78-3.87,5.15-3.55-4-14.6-9.88-24.95-14.42Z"/>
      <path class="cls-3" d="M52.17,84.93c-12.11-.91-35.37-4.3-29.05-17.63,4.75-10.01,13.71-13.33,23.79-14.8,15.54,1.28,46.31,20.09,49.22,21.23.3,2.62,8.16,5.46-.23,7.81-7.96-1.44-26.87.56-43.73,3.39Z"/>
      <path class="cls-6" d="M115.03,118.02c-11.99-1.9-34.9-7.19-27.5-19.96,5.56-9.59,14.76-12.16,24.93-12.79,15.39,2.55,44.5,23.83,47.3,25.21.08,2.63,7.69,6.11-.88,7.76-7.81-2.09-26.82-1.66-43.86-.22Z"/>
      <path class="cls-5" d="M95.25,97.47c-13.29,5.83-39.57,15.57-38.96.25.46-11.51,8.47-19.36,18.51-26.19,17.11-7.38,58.44-7.52,62.05-8.1,1.52,2.16,11.18.38,3.33,7.07-9.12,3.08-28.31,15.22-44.94,26.98Z"/>
    </g>
  </g>
</svg>