<?xml version="1.0" encoding="UTF-8"?>
<svg id="Layer_2" data-name="Layer 2" xmlns="http://www.w3.org/2000/svg" viewBox="0 0 185 185">
  <defs>
    <style>
      .cls-1 {
        fill: #b82025;
      }

      .cls-2 {
        fill: none;
      }

      .cls-3 {
        fill: #fdfdfc;
      }

      .cls-4 {
        fill: #3d6131;
      }

      .cls-5 {
        fill: #e43c2e;
      }
    </style>
  </defs>
  <g id="borxes">
    <rect class="cls-2" width="185" height="185"/>
    <g>
      <path class="cls-1" d="M56.01,58.24c4.03,3.1,11.44,5.75,16.55,5.74,2.02,0,4.38-1.91,4.3,1.17-.02.76-7.98,11.64-5.3,12.1l18.67-12.09,1.46,3.14-1.93,18.25c.54,5.9,9.31-3.75,10.75-5.45s5.89-9.68,6.66-9.89c.85-.23,2.15.69,2.76,1.31,3.62,3.68,6.84,9.77,10.24,13.94.55.68.36,1.3,1.44.35,1.61-1.42,1.77-9.03,1.48-11.28-.32-2.52-2.96-8.85-2.9-9.82.13-2.03,1.84-1.41,2.7-1.61,9.48,8.58,13.87,17.6,11.49,30.41-1.06,5.69-4.77,11.32-5.26,16.16-.01.13-2.49,3.94-2.49,3.94-.46.56-.95,1.09-1.42,1.67-11.56,14.27-29.4,30.52-46.83,37.03-17.51,6.54-24.88-10.34-29.46-24.21-2.86-8.67-8.24-33.27-9-42.19-.93-10.89,7.39-22.78,16.1-28.67ZM112.23,115.89c.68-.57,2.05-4.3,1.48-5.24-1.73-2.86-4.88,2.29-4.56,4.49.35.87,2.36,1.35,3.07.75ZM63.26,125.31c-3.01.55-3.26,9.73.1,8.86,2.83-.74,1.48-7.51-.1-8.86ZM125.13,96.02c2.75-1.19,3.32-3.35,1.41-5.71-2.75,1.19-3.32,3.35-1.41,5.71ZM90.96,105.32c-.39-.11-1.63,1.22-1.97,1.79-.87,1.44-.87,8.15,1.47,7.44,2.44-.83,2.29-8.74.5-9.22ZM107.36,92.16c-2.68.62-4.65,4.61-1.72,5.93,2.68,1.21,3.71-4.64,1.72-5.93ZM71.92,112.77c-2.11-.57-2.95,6.74-.15,5.77,1.57-.55,1.13-5.5.15-5.77ZM70.92,96.32c2.05.52,5.66-7.62,4.09-9.35-1.8-1.99-5.42,4.71-5.21,6.8.07.71.74,2.45,1.12,2.55ZM51.28,104.13c.35.08,1.83-1.14,2.2-1.73.98-1.54-.29-9.42-2.42-8.68-1.44.5-1.48,10.02.22,10.41ZM55.02,80.76c1.88.44,3.93-6.1,3.02-7.08-2.11-2.26-5.97,6.39-3.02,7.08Z"/>
      <path class="cls-4" d="M122.88,64.1c-.86.21-2.57-.42-2.7,1.61-.06.97,2.57,7.3,2.9,9.82.29,2.25.14,9.86-1.48,11.28-1.08.95-.88.32-1.44-.35-3.4-4.17-6.61-10.26-10.24-13.94-.6-.61-1.91-1.54-2.76-1.31-.77.21-5.27,8.25-6.66,9.89s-10.2,11.35-10.75,5.45l1.93-18.25-1.46-3.14-18.67,12.09c-2.68-.46,5.28-11.34,5.3-12.1.07-3.07-2.28-1.17-4.3-1.17-5.11,0-12.52-2.64-16.55-5.74-1.92-1.48-5.83-5.41-7.57-7.3-2.11-2.29,4.65-.22,5.11-.17,11.19,1.28,20.01-.63,30.97-2.49l9.16,1.79,2.53-18.61,1.35-1.23c1.87,1.72,15,3.12,14.62,5.41-1.82,1.34-10.34,13.75-9.89,14.51,8.76-1.69,16.29,3,24.67,4.59,5.92,1.12,11.93.77,17.88,1.37,1.2,1.23-1.33,2.09-2.15,2.54-7.74,4.31-12.21,3.62-19.81,5.44Z"/>
      <path class="cls-5" d="M70.92,96.32c-.38-.1-1.05-1.84-1.12-2.55-.22-2.1,3.41-8.79,5.21-6.8,1.56,1.73-2.04,9.87-4.09,9.35Z"/>
      <path class="cls-5" d="M51.28,104.13c-1.7-.39-1.66-9.92-.22-10.41,2.14-.74,3.41,7.15,2.42,8.68-.38.59-1.85,1.81-2.2,1.73Z"/>
      <path class="cls-5" d="M90.96,105.32c1.79.49,1.94,8.39-.5,9.22-2.34.71-2.34-6-1.47-7.44.34-.57,1.58-1.89,1.97-1.79Z"/>
      <path class="cls-5" d="M63.26,125.31c1.59,1.35,2.93,8.12.1,8.86-3.37.87-3.11-8.31-.1-8.86Z"/>
      <path class="cls-5" d="M112.23,115.89c-.71.59-2.72.12-3.07-.75-.33-2.2,2.83-7.35,4.56-4.49.57.94-.8,4.67-1.48,5.24Z"/>
      <path class="cls-5" d="M55.02,80.76c-2.96-.69.91-9.35,3.02-7.08.92.98-1.14,7.53-3.02,7.08Z"/>
      <path class="cls-5" d="M107.36,92.16c2,1.29.96,7.14-1.72,5.93-2.93-1.32-.96-5.31,1.72-5.93Z"/>
      <path class="cls-5" d="M125.13,96.02c-1.91-2.37-1.34-4.52,1.41-5.71,1.91,2.37,1.34,4.52-1.41,5.71Z"/>
      <path class="cls-5" d="M71.92,112.77c.97.26,1.42,5.22-.15,5.77-2.79.98-1.96-6.34.15-5.77Z"/>
      <path class="cls-3" d="M126.86,113.66s.06.59-.24.95l.24-.95Z"/>
    </g>
  </g>
</svg>