<?xml version="1.0" encoding="UTF-8"?>
<svg id="Layer_2" data-name="Layer 2" xmlns="http://www.w3.org/2000/svg" viewBox="0 0 185 185">
  <defs>
    <style>
      .cls-1 {
        fill: none;
      }

      .cls-2 {
        fill: #512503;
      }

      .cls-3 {
        fill: #9d5012;
      }

      .cls-4 {
        fill: #a95719;
      }

      .cls-5 {
        fill: #7e3d05;
      }

      .cls-6 {
        fill: #caa362;
      }
    </style>
  </defs>
  <g id="borxes">
    <rect class="cls-1" width="185" height="185"/>
    <g>
      <path class="cls-5" d="M39.42,169.96c-.71.94-4.88,1.54-6.15.29-3.63-3.55,8.22-3.01,6.15-.29Z"/>
      <path class="cls-5" d="M20.97,158.23c-.08-.08-.05-2.09.04-2.19.23-.26,6.35-1.28,6.67.25.51,2.44-6.45,2.22-6.71,1.95Z"/>
      <path class="cls-6" d="M67.37,171.65c-1.54.03-3.06.08-4.6-.16-5.41-.84,1.29-3.05,3.08-2.54,1.14.33,1.72,1.55,1.52,2.7Z"/>
      <path class="cls-5" d="M103.19,169.37c-.1-.11-.12-2.11-.04-2.19.22-.23,5.9-.3,6.15.84.46,2.1-5.53,1.97-6.1,1.35Z"/>
      <path class="cls-3" d="M23.21,164.39c.05.06.05,1.59,0,1.66-.21.26-5.81,1.27-6.15-.28-.43-1.95,5.59-2.05,6.15-1.38Z"/>
      <path class="cls-3" d="M88.62,169.41c-.51.68-9.25,2.28-5.57-.81,1.72-1.44,6.86-.91,5.57.81Z"/>
      <path class="cls-3" d="M53.95,169.98c1.03,1.21-2.81,1.62-3.16,1.63-.58.01-3.42-.4-3.55-.53-1-.96.39-.94.8-1.16,1.66-.88,4.54-1.55,5.91.06Z"/>
      <path class="cls-5" d="M119.04,169.69c-.62,1-4.71,1.99-6.1.87-3.95-3.19,7.9-3.77,6.1-.87Z"/>
      <path class="cls-6" d="M147.03,168.74c-1.53.18-3.04.37-4.6.27-5.46-.33,1-3.16,2.83-2.82,1.17.22,1.86,1.38,1.77,2.54Z"/>
      <path class="cls-3" d="M142.98,165.65c-.44.73-9,3.13-5.62-.29,1.58-1.6,6.74-1.55,5.62.29Z"/>
      <path class="cls-3" d="M133.51,168.34c1.13,1.11-2.64,1.88-2.99,1.92-.58.07-3.44-.08-3.58-.19-1.09-.87.3-.98.69-1.23,1.57-1.03,4.38-1.97,5.89-.5Z"/>
      <path class="cls-5" d="M107.68,150.38c-.62,1-4.71,1.99-6.1.87-3.95-3.19,7.9-3.77,6.1-.87Z"/>
      <path class="cls-6" d="M135.67,149.43c-1.53.18-3.04.37-4.6.27-5.46-.33,1-3.16,2.83-2.82,1.17.22,1.86,1.38,1.77,2.54Z"/>
      <path class="cls-3" d="M156.61,145.21c-.44.73-9,3.13-5.62-.29,1.58-1.6,6.74-1.55,5.62.29Z"/>
      <path class="cls-3" d="M122.15,149.03c1.13,1.11-2.64,1.88-2.99,1.92-.58.07-3.44-.08-3.58-.19-1.09-.87.3-.98.69-1.23,1.57-1.03,4.38-1.97,5.89-.5Z"/>
      <path class="cls-6" d="M72.96,165.5c.99.48,1.32,1.01,2.24,1.12-.1.44.13,1.56,0,1.68-1.03.9-8.65-1.63-7.83-2.23,1.57.27,4.71-.94,4.48,1.1l1.11-1.67Z"/>
      <path class="cls-6" d="M97,168.85c-1.12-.8-5.39.21-5.58,0-1.83-1.95,5.47-3.66,5.58,0Z"/>
      <g>
        <path class="cls-5" d="M86,77.58c2.14,2.31,2.97,4,4,6.93-4.59,4.94-10.07,11.28-14.31,16.69-2.85-2.11-7.09-4.32-10.4-5.67l20.7-17.95Z"/>
        <path class="cls-5" d="M113.23,51.86c2.37.51,6.88.36,8.8,2.22-1.23,1.13-2.51,2.23-3.73,3.37-1.01-1.97.95-2.85-2.18-4.06-1.33,1.8-2.92,4.4-1.52,6.65-6.04,5.63-12.45,12.02-18.33,18.07-.56-2.57-1.47-4.86-3.21-6.89l20.17-19.35Z"/>
        <path class="cls-2" d="M54.4,91.81c1.1,1.26,2.96,1.25,4.66,1.82,1.84.62,4.7,1.27,6.24,1.9,3.31,1.35,7.55,3.56,10.4,5.67-1.17,1.5-2.37,2.98-3.4,4.58-5.68-3.45-15.01-6.42-21.6-7.21l-7.29-.59c3.6-1.43,7.67-4.1,11-6.17Z"/>
        <path class="cls-6" d="M86.93,66.94c.7.79,1.95.85,2.7,1.32,1.15.71,2.52,1.91,3.41,2.94,1.74,2.04,2.66,4.32,3.21,6.89-1.99,2.05-4.28,4.28-6.26,6.41-1.03-2.93-1.87-4.62-4-6.93-1.88-2.04-2.19-1.84-4.2-2.98-.71-.4-1.43-1.34-2.29-1.7,2.46-2.02,4.98-3.85,7.43-5.96Z"/>
        <path class="cls-5" d="M117.26,38.79l1.46,2.45c-1.02.4-6.87,6.17-8.3,7.5-2.6,2.41-4.87,5.08-7.27,7.35-4.4,4.16-9.11,8.03-13.52,12.18-.76-.47-2-.53-2.7-1.32,2.53-2.18,4.97-4.52,7.47-6.75,1.02-.9,2.34-2.11,3.32-3,6.68-6.04,13.13-12.13,19.54-18.4Z"/>
        <path class="cls-5" d="M79.51,72.9c.86.36,1.58,1.3,2.29,1.7-3.21,2.69-6.12,5.8-9.34,8.49-.74.62-1.86.87-2.03,1.03l-6.22,5.62c-.14.12-1.05.24-1.62.68-1.26.96-2.29,2.23-3.53,3.22-1.69-.57-3.56-.56-4.66-1.82,9.37-5.83,16.64-11.98,25.11-18.91Z"/>
        <path class="cls-2" d="M141.79,23.41c1.26,1.33,2.78,2.82,3.75,4.35,3.96,6.2-1.83,6.41-5.63,9.41-1.78-2.2-2.56-4.27-4.42-6.56-.12-.14-.25-.28-.37-.41l6.68-6.79Z"/>
        <path class="cls-5" d="M135.49,30.62c1.86,2.29,2.64,4.36,4.42,6.56-2.92,2.3-5.94,5.31-8.71,7.87-2.4-.35-5.95-1.48-8.23-1.61l.04-.79c.49.07,5.08.14,5.34.06,5.2-1.64,2.6-7.39,3.41-8.72.64-1.05,2.86-2.25,3.73-3.37Z"/>
        <path class="cls-5" d="M138,20.06c1.67.94,2.52,2.02,3.79,3.36l-6.68,6.79c-.87-.97-1.75-1.93-2.62-2.9.27-.46.21-1.53.49-1.95,1.21-1.75,3.44-3.79,5.02-5.29Z"/>
        <path class="cls-5" d="M128.66,48.08c-1.46,1.34-3.58,2.47-4.52,3.33l-5.17-1.63c-.77-5.2,6.97-3.49,9.69-1.7Z"/>
        <path class="cls-2" d="M138,20.06c-1.58,1.5-3.81,3.53-5.02,5.29l-1.91-1.28c.09-.21-.29-1.23.26-2.15,1.64-2.81,3.94-3.39,6.68-1.85Z"/>
        <path class="cls-5" d="M131.07,24.06l1.91,1.28c-.29.42-.22,1.5-.49,1.95-1.66,2.79-2.22,1.6-3.69,2.58l-1.54-.87c1.02-1.25,3.3-3.74,3.81-4.95Z"/>
        <path class="cls-5" d="M114.6,60.03c-1.4-2.25.18-4.84,1.52-6.65,3.13,1.21,1.16,2.1,2.18,4.06-1.15,1.07-2.54,1.5-3.69,2.58Z"/>
        <path class="cls-5" d="M121.82,34.67c.26.03.53.04.79.04,1.42-.02,1.47.42,1.95.49l-3.73,3.37c-.24-.05-.53,0-.79-.04.23-.79.47-1.44-.29-1.99.65-.66,1.43-1.21,2.07-1.87Z"/>
        <path class="cls-5" d="M127.25,29.01l1.54.87c-.71.48-1.17,1.6-1.7,2.29-.5-.09-1.35.46-1.95-.49.45-.48,1.5-1.92,2.11-2.66Z"/>
        <path class="cls-6" d="M97.72,57.2c-.98.89-2.3,2.09-3.32,3,.02-1.29,2.06-3.11,3.32-3Z"/>
        <path class="cls-3" d="M119.75,36.55c.77.56.52,1.21.29,1.99-.53-.08-1.33.46-1.95-.49.53-.52,1.14-.97,1.66-1.5Z"/>
        <path class="cls-3" d="M122.61,34.71c-.26,0-.53-.01-.79-.04.13-.13.29-.24.41-.37l.37.41Z"/>
        <g>
          <path class="cls-4" d="M22.86,112.77c2.09-.46,3.26-4.45,5.56-4.3,6.2,2.72,13.03,4.18,18.8,7.81.85-.01,5.9-5.84,7.46-6.65.23-.12,1.21.24,1.58.08,1,1.11,1.61,1.05.1,2.1-10.5,7.26-13.67,14.44-13.71,26.7,0,.84.33,1.59-.63,2.14-2.86-1.36-1.11-8.59-2.08-9.64-6.76-3.13-14.2-5.38-19.86-10.47.88-3.53.97-4.36,2.77-7.78Z"/>
          <path class="cls-5" d="M54.27,156.72c-3.37-.11-7.97-1.95-11.11-3.37-10.15-4.59-20.31-10.93-23.22-22.12,4.15,2.17,8.23,4.53,12.54,6.39,2.12.92,6.29,1.5,7.8,2.81,1.78,1.54,3.9,7.43,5.9,9.75,1.51,1.76,6.01,5.31,8.09,6.54Z"/>
          <path class="cls-3" d="M22.86,112.77c2.53-4.8,5.12-9.03,10.26-11.59,1-.5,1.59.03,1.81-.07,6.39,3.16,14.01,4.15,19.75,8.52-1.56.81-6.62,6.64-7.46,6.65-5.77-3.63-12.59-5.09-18.8-7.81-2.3-.16-3.47,3.84-5.56,4.3Z"/>
          <path class="cls-5" d="M43.4,97.98l7.29.59c6.59.79,15.92,3.76,21.6,7.21.73.44,1.42,1.32,2.29,1.7-6.54-1.64-12.34-.39-18.32,2.24-.37.16-1.35-.2-1.58-.08-5.74-4.37-13.36-5.36-19.75-8.52,3.2-1.39,5.52-1.96,8.47-3.13Z"/>
          <g>
            <path class="cls-3" d="M20.09,120.55c5.65,5.09,13.1,7.34,19.86,10.47.97,1.06-.77,8.28,2.08,9.64.95-.55.63-1.3.63-2.14.04-12.26,3.2-19.44,13.71-26.7,1.52-1.05.9-.99-.1-2.1,5.98-2.63,11.79-3.87,18.32-2.24,9.57,2.4,15.96,8.97,17.71,18.91l-2.23,22.83c-1.2.31-2.46-1.23-3.41-2.27-.34-.37,1.61-18.46,1.14-20.39-5.59-22.86-35.78-16.64-40.59,4.27-3.81,16.56,11.43,28.74,26.85,22.1,1.42-.61,6.27-4.49,6.76-4.37.55.15.7,4.19,4.36-.17.93.91.8.61.14,1.38-.84.97-2.48,2.37-3.54,3.19-7.54,5.86-18.85,8.89-27.5,3.75-2.09-1.24-6.58-4.78-8.09-6.54-1.99-2.33-4.12-8.22-5.9-9.75-1.52-1.31-5.68-1.89-7.8-2.81-4.31-1.86-8.39-4.21-12.54-6.39-1.35-5.19-1.1-5.69.15-10.68Z"/>
            <path class="cls-4" d="M85.48,157.91c-.12.14-.3.23-.41.37-.46-.58-1.05-1.07-1.5-1.66-.95-1.25-1.11-2.34-1.79-3.65,1.06-.82,2.7-2.22,3.54-3.19.67-.78.8-.47-.14-1.38-3.65,4.36-3.81.32-4.36.17-.49-.13-5.34,3.75-6.76,4.37-15.42,6.63-30.66-5.55-26.85-22.1,4.81-20.91,35-27.14,40.59-4.27.47,1.92-.15,8.76.18,9.13.95,1.05-1.81,21.38-2.5,22.22ZM59.12,147.07c3.38,2.23,8.79,2.35,12.43.78,13.05-5.63,16.03-25.79.72-29.8-3.09-.81-3.86-.24-6.55.46-13.31,3.42-18.91,20.44-6.6,28.56ZM91.75,140.82c.52-1.6-1.48-4.01-3.49-2.01-.68.68-2.72,8.05-1.43,8.08.87-1.44,1.1-2.69,2.35-4.03.74-.8,2.34-1.34,2.57-2.04ZM87.35,152.47c-.84-.07-3.88,2.13-2.35,3.23,1.39,1,4.1-3.07,2.35-3.23Z"/>
            <path class="cls-2" d="M65.71,118.51c9.21,6.98,6.17,20.04-2.32,26.14-1.28.92-3.18,1.04-4.28,2.42-12.32-8.12-6.72-25.15,6.6-28.56Z"/>
            <path class="cls-5" d="M65.71,118.51c2.7-.69,3.46-1.27,6.55-.46,15.31,4.01,12.33,24.17-.72,29.8-3.64,1.57-9.04,1.45-12.43-.78,1.09-1.38,3-1.5,4.28-2.42,8.49-6.1,11.53-19.16,2.32-26.14Z"/>
          </g>
        </g>
        <path class="cls-3" d="M81.8,74.6c2.02,1.15,2.32.94,4.2,2.98l-20.7,17.95c-1.53-.63-4.4-1.28-6.24-1.9,1.24-.98,2.27-2.25,3.53-3.22.57-.44,1.48-.56,1.62-.68l6.22-5.62c.17-.16,1.29-.4,2.03-1.03,3.21-2.69,6.12-5.8,9.34-8.49Z"/>
        <path class="cls-5" d="M115.4,49.58c-.53.36-3.63-1.75-4.6-.42-.91,2.67,1.51,2.53,3.41,2.94,2.37.51,5.9.12,7.82,1.98.66-.61,1.15-1.78,2.11-2.66l-5.17-1.63c-.77-5.2,6.97-3.49,9.69-1.7,1.12-1.03,2.08-2.62,2.53-3.04-2.4-.35-5.95-1.48-8.23-1.61-8.2-.46-5.34,4.63-7.56,6.14Z"/>
        <path class="cls-5" d="M127.09,32.17c-.5-.09-1.35.46-1.95-.49-.88.94-2,1.69-2.9,2.62l.37.41c1.42-.02,1.47.42,1.95.49,1.28.2,3.16-1.13,4.13.37-1.64,5.4-4.22,3.7-7.86,3.01-.24-.05-.53,0-.79-.04-.53-.08-1.33.46-1.95-.49-.26.26-.56.49-.83.75l1.46,2.45c.63-.25,3.7,1.32,4.28,1.4.49.07,5.08.14,5.34.06,5.2-1.64,2.6-7.39,3.41-8.72-1.05-1.2-3.1-1.54-4.66-1.82Z"/>
        <path class="cls-3" d="M132.79,25.14l-22.37,23.59c-2.6,2.41-4.87,5.08-7.27,7.35-4.4,4.16-9.11,8.03-13.52,12.18,1.15.71,2.52,1.91,3.41,2.94l42.99-39.96c-1.42-3.24-1-3.61-3.25-6.1Z"/>
        <path class="cls-3" d="M128.79,29.88c1.47-.98,2.04.21,3.69-2.58.87.97,1.76,1.93,2.62,2.9.12.14.26.27.37.41-.88,1.12-3.09,2.32-3.73,3.37-1.05-1.2-3.1-1.54-4.66-1.82.53-.69.99-1.81,1.7-2.29Z"/>
      </g>
      <g>
        <path class="cls-2" d="M74.08,148.73c3.83-.45,12.41-.11,16.21.56.62.11.99.53,1.12.56-.06,1.12.24,1.86.88,2.75,3.01,4.19,6.71,4.19,11.1,5.04.68.13-.07,1.42.68,1.73,2.51,1.07,6.99,1.1,9.71,2.21,0,.54.07,1.19,0,1.68-.06.42-1.33,1.83-1.12,2.8-3.37.4-6.08-1.21-7.5-1.13-1.19.06-2.41,1.59-3.89,1.09-1.31-.46-.64-2.32-.98-2.68-.95-1.01-6.25.18-7.76-.08l.56-2.23c-1.19-.41-2.13,1.09-2.98,1.02-1.13-.1-2.44-1.72-4.5-.96-1.39.51.08,1.92-2.02,2.18-2.87-2.16-5.65-4.46-3.91,1.12-.58.33-1.46.42-1.68.56.43-3.37-2.19-1.09-2.8,1.12-.05.17.04.38,0,.56-.92-.11-1.24-.64-2.24-1.12-1.44-.69-4.99-2.37-6.4-2.23-1.85.19-8.31,4.37-9.82,3.34l.57-1.11c-.83-.57-7.02,1.1-5.22-1.11.4-.49,1.23-.31.75-2.25h-3.92c.6-.29,6.4-3.68,6.71-3.92-.71,2.93,2.22,3.7,4.26,2.27.93-.65.01-2.46,1.02-3.4,1.12-1.04,2.83.33,3.1-2.77l-1.68-.84,1.67-1.96c.37,0,.75-.01,1.12,0,.41.53-.84,3.16.83,2.79,1.79-.4,5.1-5.23,8.12-5.58ZM78.55,157.67c-.05-2.2-2.83-2.36-4.47-2.23-.5,1.74,4.14,2.51,4.47,2.23Z"/>
        <path class="cls-5" d="M94.21,150.4l-.56,1.67c1.22-.01,4.07,1.17,4.93.42.25-.22.05-.94.11-.98.59-.39,8.36.36,9.66.69,2.48.63,1.9,1.76,2.84,3.04.35.47,1.15.55,1.62,1.44.59,1.13.97,3.58.98,4.9-2.72-1.12-7.2-1.15-9.71-2.21-.75-.32,0-1.6-.68-1.73-4.38-.85-8.09-.85-11.1-5.04-.64-.89-.94-1.64-.88-2.75,1.05.23,1.47.48,2.8.56Z"/>
        <path class="cls-3" d="M57.87,154.32c-.78.61-2.05,3.77-2.24,3.91-.31.24-6.11,3.62-6.71,3.91-1.85.89-4.1,1.22-6.15,1.12l1.11,2.79c-1.97.58-3.59-1.12-5.29-1.14-2.19-.02-8.86,1.78-10.41-.21-.43-.55-.78-2.3-.51-2.57s5.94-.77,7.27-1.12c.69-.18,1.65-.29,2.24-.56-.19,1.8,2.14,2.21,3.4,1.41.56-.35.36-1.13.52-1.41.2-.35.41-.74.56-1.12h1.12v2.23c1.72.11,3.77-.91,3.91-2.79,1.08-.17,6.37-.95,6.6-1.23.55-.66,1.14-7,4.58-3.24Z"/>
        <path class="cls-3" d="M73.52,146.49c.82-.39,2.73-2.34,4.09-2.9,1-.41,3.55-1.21,4.48-1.03.4.08.33.98.78,1.12.61.19,1.47-.12,1.83.01-1.34,1.26-3.64.16-5.22.65-.96.3-1.25,1.81-.92,2.15.3.3,2.35-.59,3.09-.58,1.98.02,3.91,1.33,5.85.03.85.75,3.25.84,2.8,3.35-3.8-.67-12.38-1.01-16.21-.56l-.56-2.24Z"/>
        <path class="cls-4" d="M84.7,143.7c2.71.97,1.96,1.5,2.8,2.24-1.94,1.3-3.87,0-5.85-.03-.74,0-2.8.89-3.09.58-.33-.34-.04-1.85.92-2.15,1.58-.49,3.88.62,5.22-.65Z"/>
        <path class="cls-6" d="M34.95,161.03c-.39-1.98,2.83-3.93,4.31-4.36,1.01-.29,2.15-.58,1.84,1-3.71.62-1.05.36-3.35,2.24-.21.17-.47.52-.56.56-.59.27-1.55.38-2.24.56Z"/>
        <path class="cls-6" d="M46.13,156.55c-.06.74.04,1.5,0,2.24-.53.08-1.15-.08-1.68,0l-.56.56c-.18.03-.38-.03-.56,0s-.38,0-.56,0h-1.12c.22-.55.54-1.06.56-1.68.21-.05,2.02-2.07,3.91-1.12Z"/>
        <path class="cls-4" d="M98.68,151.52c-.05.04.14.76-.11.98-.86.75-3.71-.44-4.93-.42l.56-1.67c1.89.11,2.52-1.19,4.47,1.12Z"/>
        <path class="cls-4" d="M41.1,157.67c.35-.06.8.08,1.12,0-.02.62-.34,1.13-.56,1.68-.15.37-.36.77-.56,1.12l-3.35-.56c2.3-1.88-.35-1.62,3.35-2.24Z"/>
        <path class="cls-3" d="M79.67,164.38c-1.73-5.58,1.05-3.28,3.91-1.12-2.33.28-2.02.03-3.91,1.12Z"/>
        <path class="cls-6" d="M75.2,166.06c.6-2.21,3.22-4.49,2.8-1.12-.15.1.12,1.94-2.8,1.12Z"/>
        <path class="cls-5" d="M113.78,163.26c3.22-.29,1.85,2.44-1.12,2.8-.22-.96,1.06-2.38,1.12-2.8Z"/>
        <path class="cls-5" d="M64.02,151.52l-1.67,1.96,1.68.84c-.27,3.1-1.99,1.73-3.1,2.77-1.01.94-.1,2.75-1.02,3.4-2.04,1.43-4.97.66-4.26-2.27.19-.14,1.46-3.31,2.24-3.91.61-.48,5.4-2.78,6.15-2.8Z"/>
        <path class="cls-3" d="M62.79,150.31c-.64.37-2.18-.3-3.27-.21-1.83.16-2.84.93-4.45,1.42-.94-.89,5.52-4.99,6.48-5.04,2.83-.14,2.7,2.99,1.24,3.83Z"/>
        <path class="cls-5" d="M46.13,158.79c.18-.03.38.03.56,0-.15,1.88-2.19,2.9-3.91,2.79v-1.67s.56-.56.56-.56c.18-.03.38.03.56,0s.41-.54.56-.56c.52-.08,1.15.08,1.68,0Z"/>
        <path class="cls-5" d="M51.72,156c1.2,1.29-3.55,2.5-3.91.82-.4-1.85,3.34-1.44,3.91-.82Z"/>
        <path class="cls-5" d="M65.97,150.96c.36.19.36.37,0,.56v-.56Z"/>
        <path class="cls-3" d="M78.55,157.67c-.33.28-4.97-.49-4.47-2.23,1.64-.13,4.42.03,4.47,2.23Z"/>
        <path class="cls-5" d="M41.1,160.47c-.16.28.04,1.06-.52,1.41-1.26.79-3.58.38-3.4-1.41.09-.04.35-.39.56-.56l3.35.56Z"/>
        <path class="cls-4" d="M42.77,159.91v-.56c.18,0,.38.03.56,0l-.56.56Z"/>
        <path class="cls-4" d="M43.89,159.35l.56-.56c-.15.02-.39.53-.56.56Z"/>
      </g>
      <g>
        <path class="cls-2" d="M138.58,154.31c1.67.38.42-2.26.83-2.79.37,0,.74,0,1.12,0l1.67,1.96-1.68.84c.27,3.1,1.99,1.73,3.1,2.77,1.01.94.1,2.75,1.02,3.4,2.04,1.43,4.97.66,4.26-2.27.31.24,6.11,3.62,6.71,3.91h-3.92c-.48,1.94.35,1.76.75,2.25,1.8,2.21-4.4.54-5.22,1.11l.57,1.11c-1.5,1.03-7.97-3.16-9.82-3.34-1.41-.14-4.96,1.54-6.4,2.23-.99.48-1.32,1.01-2.24,1.12-.04-.18.05-.39,0-.56-.6-2.21-3.22-4.49-2.8-1.12-.22-.14-1.09-.23-1.68-.56,1.73-5.58-1.05-3.28-3.91-1.12-2.1-.26-.64-1.67-2.02-2.18-2.06-.76-3.37.85-4.5.96-.84.08-1.79-1.42-2.98-1.02l.56,2.23c-1.51.25-6.81-.93-7.76.08-.34.36.33,2.22-.98,2.68-1.48.49-2.71-1.03-3.89-1.09-1.42-.07-4.13,1.53-7.5,1.13.22-.96-1.06-2.38-1.12-2.8-.07-.49,0-1.14,0-1.68,2.72-1.12,7.2-1.15,9.71-2.21.75-.32,0-1.6.68-1.73,4.38-.85,8.09-.85,11.1-5.04.64-.89.94-1.64.88-2.75.13-.03.5-.45,1.12-.56,3.8-.67,12.38-1.01,16.21-.56,3.01.35,6.33,5.18,8.12,5.58ZM130.46,155.44c-1.64-.13-4.42.03-4.47,2.23.33.28,4.97-.49,4.47-2.23Z"/>
        <path class="cls-3" d="M106.92,157.73c.78.61,2.05,3.77,2.24,3.91.31.24,6.11,3.62,6.71,3.91,1.85.89,4.1,1.22,6.15,1.12l-1.11,2.79c1.97.58,3.59-1.12,5.29-1.14,2.19-.02,8.86,1.78,10.41-.21.43-.55.78-2.3.51-2.57s-5.94-.77-7.27-1.12c-.69-.18-1.65-.29-2.24-.56.19,1.8-2.14,2.21-3.4,1.41-.56-.35-.36-1.13-.52-1.41-.2-.35-.41-.74-.56-1.12h-1.12s0,.56,0,.56v1.67c-1.72.11-3.77-.91-3.91-2.79-1.08-.17-6.37-.95-6.6-1.23-.55-.66-1.14-7-4.58-3.24Z"/>
        <path class="cls-3" d="M131.02,146.49c-.82-.39-2.73-2.34-4.09-2.9-1-.41-3.55-1.21-4.48-1.03-.4.08-.33.98-.78,1.12-.61.19-1.47-.12-1.83.01,1.34,1.26,3.64.16,5.22.65.96.3,1.25,1.81.92,2.15-.3.3-2.35-.59-3.09-.58-1.98.02-3.91,1.33-5.85.03-.85.75-3.25.84-2.8,3.35,3.8-.67,12.38-1.01,16.21-.56l.56-2.24Z"/>
        <path class="cls-4" d="M119.84,143.7c-2.71.97-1.96,1.5-2.8,2.24,1.94,1.3,3.87,0,5.85-.03.74,0,2.8.89,3.09.58.33-.34.04-1.85-.92-2.15-1.58-.49-3.88.62-5.22-.65Z"/>
        <path class="cls-6" d="M129.84,164.43c.39-1.98-2.83-3.93-4.31-4.36-1.01-.29-2.15-.58-1.84,1,3.71.62,1.05.36,3.35,2.24.21.17.47.52.56.56.59.27,1.55.38,2.24.56Z"/>
        <path class="cls-6" d="M118.66,159.96c.06.74-.04,1.5,0,2.24.53.08,1.15-.08,1.68,0l.56.56c.18.03.38-.03.56,0s.38,0,.56,0h1.12c-.22-.55-.54-1.06-.56-1.68-.21-.05-2.02-2.07-3.91-1.12Z"/>
        <path class="cls-4" d="M105.86,151.52c.05.04-.14.76.11.98.86.75,3.71-.44,4.93-.42l-.56-1.67c-1.89.11-2.52-1.19-4.47,1.12Z"/>
        <path class="cls-4" d="M123.69,161.08c-.35-.06-.8.08-1.12,0,.02.62.34,1.13.56,1.68.15.37.36.77.56,1.12l3.35-.56c-2.3-1.88.35-1.62-3.35-2.24Z"/>
        <path class="cls-3" d="M124.87,164.38c1.73-5.58-1.05-3.28-3.91-1.12,2.33.28,2.02.03,3.91,1.12Z"/>
        <path class="cls-6" d="M129.34,166.06c-.6-2.21-3.22-4.49-2.8-1.12.15.1-.12,1.94,2.8,1.12Z"/>
        <path class="cls-5" d="M90.77,163.26c-3.22-.29-1.85,2.44,1.12,2.8.22-.96-1.06-2.38-1.12-2.8Z"/>
        <path class="cls-5" d="M140.52,151.52l1.67,1.96-1.68.84c.27,3.1,1.99,1.73,3.1,2.77,1.01.94.1,2.75,1.02,3.4,2.04,1.43,4.97.66,4.26-2.27-.19-.14-1.46-3.31-2.24-3.91-.61-.48-5.4-2.78-6.15-2.8Z"/>
        <path class="cls-3" d="M141.75,150.31c.64.37,2.18-.3,3.27-.21,1.83.16,2.84.93,4.45,1.42.94-.89-5.52-4.99-6.48-5.04-2.83-.14-2.7,2.99-1.24,3.83Z"/>
        <path class="cls-5" d="M118.66,162.2c-.18-.03-.38.03-.56,0,.15,1.88,2.19,2.9,3.91,2.79v-1.67s-.56-.56-.56-.56c-.18-.03-.38.03-.56,0s-.41-.54-.56-.56c-.52-.08-1.15.08-1.68,0Z"/>
        <path class="cls-5" d="M113.07,159.41c-1.2,1.29,3.55,2.5,3.91.82.4-1.85-3.34-1.44-3.91-.82Z"/>
        <path class="cls-5" d="M138.57,150.96c-.36.19-.36.37,0,.56v-.56Z"/>
        <path class="cls-3" d="M125.99,157.67c.33.28,4.97-.49,4.47-2.23-1.64-.13-4.42.03-4.47,2.23Z"/>
        <path class="cls-5" d="M123.69,163.88c.16.28-.04,1.06.52,1.41,1.26.79,3.58.38,3.4-1.41-.09-.04-.35-.39-.56-.56l-3.35.56Z"/>
        <path class="cls-4" d="M122.02,163.32v-.56c-.18,0-.38.03-.56,0l.56.56Z"/>
        <path class="cls-4" d="M120.9,162.76l-.56-.56c.15.02.39.53.56.56Z"/>
        <path class="cls-3" d="M63.1,165.83c-.95-.27-3.3-2.75-3.52-2.81-.38-.11-7.01-1.11-7.68-1.16-2.05-.14-4.26.39-6.13,1.23v-3c-2.04.19-2.91,2.37-4.49,3.01-2.03.83-8.89,1.61-9.6,4.04-.2.67.12,2.42.47,2.57s5.8-1.48,7.17-1.65c.71-.09,1.64-.34,2.28-.31-.84-1.6,1.17-2.84,2.63-2.57.65.12.75.92,1,1.12.31.25.66.54.93.83l1.04-.41-.21-.52-.62-1.56c1.56-.73,3.83-.55,4.67,1.15,1.06-.24,6.27-1.47,6.59-1.3.75.41,3.65,6.08,5.45,1.32Z"/>
        <path class="cls-6" d="M39.32,168.07c.36,1.98,4.08,2.61,5.62,2.46,1.04-.1,2.21-.26,1.34-1.61-3.67.8-1.11.05-3.94-.84-.26-.08-.63-.31-.73-.31-.65-.03-1.58.22-2.28.31Z"/>
        <path class="cls-6" d="M51.37,168.1c-.33-.66-.51-1.41-.83-2.08-.52.12-1.04.5-1.56.62l-.73-.31c-.18.04-.34.17-.52.21s-.35.14-.52.21l-1.04.41c.41.43.89.78,1.14,1.35.22-.03,2.64,1.18,4.05-.41Z"/>
        <path class="cls-4" d="M46.28,168.92c.35-.08.72-.37,1.04-.41-.25-.57-.73-.92-1.14-1.35-.28-.29-.62-.58-.93-.83l-2.91,1.76c2.83.89.27,1.64,3.94.84Z"/>
        <path class="cls-5" d="M50.54,166.02c.18-.04.34-.17.52-.21-.83-1.7-3.11-1.88-4.67-1.15l.62,1.56.73.31c.18-.04.34-.17.52-.21s.58.35.73.31c.52-.12,1.04-.5,1.56-.62Z"/>
        <path class="cls-5" d="M56.76,166.54c.64-1.64-4.22-1.01-3.94.68.31,1.86,3.63.1,3.94-.68Z"/>
        <path class="cls-5" d="M45.24,166.32c-.25-.2-.35-1-1-1.12-1.46-.27-3.47.97-2.63,2.57.09,0,.47.23.73.31l2.91-1.76Z"/>
        <path class="cls-4" d="M47.01,166.22l.21.52c.17-.07.35-.17.52-.21l-.73-.31Z"/>
        <path class="cls-4" d="M48.26,166.32l.73.31c-.15.03-.56-.35-.73-.31Z"/>
      </g>
    </g>
  </g>
</svg>