<?xml version="1.0" encoding="UTF-8"?>
<svg id="Layer_2" data-name="Layer 2" xmlns="http://www.w3.org/2000/svg" viewBox="0 0 185 185">
  <defs>
    <style>
      .cls-1 {
        fill: #f1e87a;
      }

      .cls-2 {
        fill: #625143;
      }

      .cls-3 {
        fill: none;
      }

      .cls-4 {
        fill: #f6f1be;
      }

      .cls-5 {
        fill: #edd63c;
      }

      .cls-6 {
        fill: #342e27;
      }
    </style>
  </defs>
  <g id="borxes">
    <rect class="cls-3" width="185" height="185"/>
  </g>
  <g id="flavours">
    <g>
      <g>
        <path class="cls-2" d="M162.54,39.44c.35,1.22.68,2.46.63,3.75-.2,4.64-6.21,12.93-9.06,16.97-6.07,8.59-13.36,16.27-21.01,23.46-3.35,3.14-8.19,6.09-10.4,10.1-1.98-.87-5.67-3.02-7.51-3.46,8.27-6.41,16.67-13.85,23.97-21.36,3.93-4.04,19.25-20.24,20.81-24.25.37-.94.14-2.69.26-2.9.08-.14,1.9.24,1.15-2.31.29.1.83-.1,1.15,0Z"/>
        <path class="cls-2" d="M175.83,85.06c.83-.3,1.97-.36,2.88-.87-1.2,1.05-1.04,2.52-1.97,3.8-2.75,3.78-20.4,9.58-25.61,11.34-1.15.39-2.38.65-3.59.75l.59,1.72-13.28,3.47c-.39-.65-3.71-5.42-4.04-5.77,1.75.13,4.42-1.97,5.58-2.14.74-.11,2.16.66,2.5.4.16-.12-.12-.96,0-1.15.86.7,1.59.08,2.42-.13,10.76-2.73,21.67-6.71,32.23-10.26l1.15-.58c.26-.09.64-.39,1.15-.58Z"/>
        <path class="cls-6" d="M147.53,71.78c-1.67,1.91-9.46,8.71-9.81,9.54-.52,1.23.76.77,1.3.72,3.33-.3,11.56-4.7,14.88-6.49,2.01-1.09,11.61-6.59,12.44-7.82.54-.8-.34-1.48-.33-1.72.08-1.51,5.58-6.84,1.45-7.52-1.9-.31-1.29.19-1.45,1.32-.2,1.37-2.65-.06-2.8-1.7-.21-2.29,7.87-4.81,9.02.23,2.15,9.38-14.14,17.2-21.03,20.29-5.09,2.28-12.5,4.03-16.9,6.77-2.95,1.84-6.59,6.97-9.29,9.48-1.19-.17-1.52-.81-2.31-1.15,2.21-4,7.06-6.95,10.4-10.1,7.65-7.19,14.94-14.87,21.01-23.46,2.85-4.04,8.86-12.33,9.06-16.97.06-1.29-.27-2.53-.63-3.75,2.73.8,2.59,3.44,2.26,6.01-.65,5.07-13.38,21.86-17.27,26.32Z"/>
        <path class="cls-6" d="M136.56,108.16c-.66-1.02-1.01-1.69-1.73-2.89l13.28-3.47-.59-1.72c1.21-.1,2.44-.36,3.59-.75,5.22-1.76,22.87-7.56,25.61-11.34.93-1.28.77-2.75,1.97-3.8-.9.51-2.05.57-2.88.87,1.07-1.43,1.8-1.73,1.72-3.7-.18-3.95-4.07-1.31-4.57-2.99-1.21-4.01,4.04-3.81,6.57-.2,7.16,10.22-10.88,17.16-17.76,20.27-8.21,3.71-16.75,6.69-25.22,9.71Z"/>
        <path class="cls-2" d="M166.01,74.09c.67,1.17,1.29,2.36,1.22,3.77-.05,1.02-.96.74-1.21,1.26-.2.43.09,1.11-.02,1.32-.17.33-.46.43-.58.58l-1.15.58c-.06.07.19.73-.37,1.19-.78.63-2.21,1.1-3.09,1.7-1.46-1.02-4.96,1.16-6.47,1.9-4.23,2.07-11.89,7.5-15.65,8.66-1.3.4-2.3-.17-3.74.19-2.2.54-4.57,1.28-6.47,2.53-.96-.81-2.96-.91-2.89-2.89,2.34-.09,10.32-3.91,13.1-5.09,4.43-1.89,24.31-10.33,26.19-13.08.55-.8.45-1.72,1.14-2.62Z"/>
        <path class="cls-2" d="M166.01,66c-.01.24.86.92.33,1.72-.83,1.23-10.43,6.73-12.44,7.82-3.32,1.8-11.55,6.19-14.88,6.49-.54.05-1.81.51-1.3-.72.35-.83,8.14-7.62,9.81-9.54,5.8-.99,11.19-3.41,16.75-5.2.42-.14.84-.23,1.15-.58h.58Z"/>
        <path class="cls-6" d="M160.81,84.48c-2.13,1.44-4.31,2.86-6.54,4.14-2.18,1.25-14.94,7.25-15.4,7.98-.12.19.16,1.03,0,1.15-.34.26-1.76-.51-2.5-.4-1.16.17-3.83,2.27-5.58,2.14-.1-.11-1.66-1.18-2.31-1.73,1.9-1.25,4.27-1.99,6.47-2.53,1.44-.36,2.44.21,3.74-.19,3.76-1.16,11.42-6.59,15.65-8.66,1.51-.74,5.02-2.91,6.47-1.9Z"/>
        <path class="cls-6" d="M160.81,39.44c.19.05.41-.06.58,0,.75,2.55-1.08,2.17-1.15,2.31-1.86-3.32-3.14,1.24-5.24-.25-1.14-.81-.53-2.33.04-3.21,2.55-.81,4.17.72,5.77,1.15Z"/>
        <path class="cls-2" d="M155.04,38.29c1.32-2.06,6.5-1.64,5.77,1.15-1.6-.43-3.22-1.97-5.77-1.15Z"/>
        <path class="cls-6" d="M166.01,74.09c.84-1.1,2.29.78,2.3.93.06,1.11-.91,4.92-2.3,5.42.11-.21-.19-.89.02-1.32.25-.52,1.15-.24,1.21-1.26.07-1.41-.55-2.61-1.22-3.77Z"/>
        <path class="cls-6" d="M165.43,66c-.32.34-.73.44-1.15.58l1.15-.58Z"/>
        <path class="cls-6" d="M165.43,81.02c-.47.62-1.08.5-1.15.58l1.15-.58Z"/>
        <path class="cls-6" d="M174.67,85.64l-1.15.58c.2-.07.64-.39,1.15-.58Z"/>
      </g>
      <g>
        <path class="cls-6" d="M8.95,122.59c-.21.26-2.16-.66-1.72.85.91,3.15,5.17,2.88,7.63,3.35,10.77,2.06,20.11-3.31,30.84-4.71,4.63-.6,9.3-.25,13.72-.71,6.41-.67,13.43-3.54,19.98-3.98-.1,3.3.12,5.53,1.15,8.66-8.34,3.11-16.6,6.92-25.1,9.84-9.49,3.26-29.67,10.32-38.87,11.39-3.8.44-5.86-1.18-4.64-5.24.44-1.47,1.55-1.13,2.2-1.56-.49,3.39,1.73,3.09,4.33,2.88,3.35-.27,6.8-2.05,9.99-2.71,6-1.24,12.12-1.7,18.01-3.64l-1.72-1.14c5.01-1.79,10.01-3.65,15-5.5,1.11-.41,2.4-.15,3.48-.56,2.8-1.05,11.78-5.24,13.82-6.97.5-.43,1.15-.99.31-1.42-2.49,1.39-5.18,1.57-8.04,1.68-.65.03-1.48-.56-2.06-.52-11.2.66-24.14,4.24-35.6,5.69-5.63.72-19.66,3.15-24.08.57-6.99-4.07-3.46-14.94,3.96-14.94,1.51,0,5.37,1.12,4.84,3.09-.74,2.8-3.94.15-6.03,1.51-2.03,1.31-1.2,3.83-1.41,4.08Z"/>
        <path class="cls-2" d="M74.77,112.2c1.71-.45,4.18-1.59,5.2.58-.1.51.07,1.18,0,1.73-.1.77-.53,1.39-.58,2.89-6.55.44-13.57,3.31-19.98,3.98-4.42.46-9.1.11-13.72.71-10.73,1.4-20.07,6.77-30.84,4.71-2.45-.47-6.72-.2-7.63-3.35-.43-1.51,1.51-.6,1.72-.85,1.55.61,2.65.13,4.04,0,.8,1.89,4.75,1.77,4.62-.58.37-.06.79.06,1.15,0l.29.57.29-.57c1.63-.28,2.01-1.1,2.14-1.12,5.43-1,11-1.36,16.34-2.92-3.25,8.26,4.02.91,6.53-.11s5.85-1.33,8.49-1.62c-.39,2.27,2.66.62,3.75.58,1.89-.07,3.6,1.3,5.49-1.15,5.26-.69,8.04-2.23,12.7-3.46Z"/>
        <path class="cls-2" d="M67.27,122.59c.58-.03,1.41.55,2.06.52,2.86-.11,5.55-.29,8.04-1.68.84.43.19.99-.31,1.42-2.04,1.73-11.01,5.92-13.82,6.97-1.09.41-2.38.15-3.48.56-5,1.84-10,3.71-15,5.5l1.72,1.14c-5.89,1.94-12.01,2.4-18.01,3.64-3.19.66-6.65,2.44-9.99,2.71-2.6.21-4.81.51-4.33-2.88,5.97-3.9,16.83-4.92,23.93-6.96,9.92-2.85,19.76-6.79,29.2-10.94Z"/>
        <path class="cls-6" d="M40.13,106.42c.08,0,.65.53,1.4.6,1.44.14,2.93-.12,4.38-.02-.47.43-1.65,2.73-2.57,3.5-.64.54-1.08,1.14-2.05,1.12-7.28-1.12-17.05,1.87-23.95.56-2.59-.49-3.19-4.74-.3-5.18-.37,1.86.49,2.02,2.06,2.25,4.88.73,11.91,1.58,16.73,1.24,2.29-.16,3.09-.05,3.15-2.33l-2.89-.58,2.88-1.16c.38,0,.77-.03,1.15,0Z"/>
        <path class="cls-2" d="M38.97,106.42l-2.88,1.16,2.89.58c-.07,2.28-.86,2.17-3.15,2.33-4.82.35-11.85-.51-16.73-1.24-1.57-.24-2.43-.39-2.06-2.25,3.97-.61,10.41.07,14.75.02,2.28-.03,4.54-.65,7.19-.6Z"/>
        <path class="cls-2" d="M47.63,105.85c-.58.47-1.43.88-1.73,1.15-1.44-.1-2.94.16-4.38.02-.75-.07-1.32-.6-1.4-.6,1.95-1.28,5.13-.28,7.51-.58Z"/>
        <path class="cls-6" d="M17.61,122.01c.13,2.35-3.82,2.47-4.62.58,1.58-.15,3.06-.33,4.62-.58Z"/>
        <path class="cls-6" d="M18.76,122.01c.19-.03.39.03.58,0l-.29.57-.29-.57Z"/>
        <path class="cls-6" d="M82.28,105.85c-1.35,1.77-1.9,4.78-2.31,6.93-1.01-2.17-3.49-1.03-5.2-.58l6.93-6.93.58.58Z"/>
        <path class="cls-6" d="M62.07,115.66c-1.88,2.46-3.59,1.09-5.49,1.15-1.1.04-4.15,1.69-3.75-.58,2.98-.33,6.02-.15,9.24-.58Z"/>
      </g>
      <g>
        <path class="cls-1" d="M115.19,90.26c1.84.44,5.53,2.6,7.51,3.46.79.34,1.12.98,2.31,1.15.18.03.39,0,.58,0-.07,1.98,1.93,2.08,2.89,2.89.65.55,2.21,1.62,2.31,1.73.33.36,3.65,5.12,4.04,5.77.72,1.2,1.07,1.86,1.73,2.89.11.17.07,1.39.45,2.12.98,1.85,7.94,14.95,7.05,15.78-8.33.02-15.38-6.7-22.53-9.51-2.17-.85-8.19-2.61-10.38-2.61l-5.79-4.32c-1.68-1.22-2.01-4.08-4.61-3.77-1.18-2.15-1.8-2.97-4.04-4.33,4.59-1.89,8.31,4.55,11.96,5.37,3.01.67,7.17.17,9.98-1.04.95-1.28-14.17-7.79-16.16-6.93,0-1.02,1.76-1.05,2.43-1.01,3.22.23,5.86,2.5,9.11,2.16-.63-2.22-3.19-2.54-3.8-5.2-.27-1.19.14-1.79.34-2.88l-2.89-.58c1.68-.27,5.9-1.54,7.51-1.15Z"/>
        <path class="cls-1" d="M66.11,93.14c-.95-.27-2.54.14-4.05-.28-9.7-2.68-11.19-12.39-16.26-18.96-.82-1.06-4.43-3.75-3.94-4.42,5.74-2.37,10.56-4.18,16.97-3.41,3.37.41,5.68,2.31,8.7,3.42,6.12,2.25,6.32.92,11.28,5.75l-5.8,7.25c-.68,1.99,7.07,4.69,5.22,6.61-.99,1.03-7.29-4.91-8.08-4.04.53,4.5-.18,5.99-4.05,8.08Z"/>
        <path class="cls-5" d="M110.58,76.4c-1.15,4.76-3.66,10.19-6.93,13.86-.58.66-2.06,1.18-2.31,2.3.76-.04,1.56.08,2.31,0,.26-.03.52-.31.58-.58,1.08-.81,2.38-.4,3.46-.58l2.89.58c-.2,1.09-.61,1.69-.34,2.88.61,2.66,3.17,2.98,3.8,5.2-3.25.34-5.89-1.93-9.11-2.16-.67-.05-2.44-.01-2.43,1.01,1.99-.86,17.11,5.65,16.16,6.93-2.81,1.21-6.97,1.71-9.98,1.04-3.65-.82-7.37-7.25-11.96-5.37,2.24,1.36,2.86,2.18,4.04,4.33s2.26,5.07,2.89,7.51c-1.65-.67-3.08-.37-4.62-.58-.14-.02-.66-.51-1.4-.6-4.76-.6-5.54,1.94-7.01-3.99-.37-1.51.45-4.55-1.41-4.07-.32,1.66.55,6.42-.25,7.54-.85,1.19-6.7.21-6.68,2.85-.74-.1-1.56.07-2.31,0,.07-.55-.1-1.22,0-1.73.41-2.15.96-5.16,2.31-6.93,1.23-1.62,3.25-2.58,5.2-2.89,1.47-.23,2.97.55,4.33-.58.36-.3,1.85-2.83,2.27-3.53,2.32-3.87,3.07-7.63,4.38-12.06.49-1.68.74-3.14,1.15-4.62.02-.07.85-.3,1.06-.97.49-1.63-.27-4.21-2.21-4.23.4-.65-.78-2.41,2.61-2.33,2.16.05,3.81,2.05,5.33,2.26s2.46-1.98,4.19-.5Z"/>
        <path class="cls-1" d="M71.31,97.18c1.01,4.79,6.6,1.91,10.09,1.71.63-.04,2.19-.37,2.03.59-5.6.59-3.58,1.09-5.05,4.48-1.05,2.42-4.16,4.29-5.95,6.18l-5.74,3.2c1.01.16,1.8-.12,2.72-.44,3.35-1.19,9.1-5.9,12.29-8.21v.58l-6.93,6.93c-4.67,1.24-7.44,2.77-12.7,3.46-3.22.42-6.26.25-9.24.58-2.64.29-6.06.62-8.49,1.62s-9.77,8.37-6.53.11c.77-1.95,3.33-3.89,3.46-6.35.97.02,1.41-.57,2.05-1.12.92-.77,2.1-3.07,2.57-3.5.3-.28,1.16-.69,1.73-1.15,6.84-5.56,15.58-5.91,23.67-8.66Z"/>
        <path class="cls-1" d="M96.72,54.45l5.01-5.1c2.39-1.52,4.67-3.54,7.69-3.56.12,3.43-1,6.56-.52,10.05,1.16,8.65,4.12,10.43,1.68,20.55-1.73-1.48-2.71.7-4.19.5s-3.17-2.21-5.33-2.26c-3.39-.08-2.21,1.69-2.61,2.33-.06.1-1.53,1.58-1.73,1.73-.18.14-.95-.14-1.15,0v-.58c3.37-4.51-.63-7.06-5.2-5.77-.51.14-1.57-.38-1.76.32l.61,4.88c-.38,0-.77,0-1.15,0-.07,0-.58-.97-1.17-.32-.76.54-.43,1.41-.57,2.05-1.75.32-1.11-.88-1.15-1.99-.28-6.57.61-9.13,3.46-14.75,2.91-.16,4.3-2.56,7.19-3.5,3.86-1.25,5.09.27,6.09-5.16-.19-.17-4.58.38-5.19.57ZM108.84,62.54c-.87-6.6-3.03-11.42-5.77-2.04l5.77,2.04Z"/>
        <path class="cls-1" d="M82.28,114.51c-.02-2.64,5.83-1.66,6.68-2.85.8-1.12-.07-5.88.25-7.54,1.86-.48,1.04,2.56,1.41,4.07,1.46,5.93,2.25,3.39,7.01,3.99.74.09,1.26.58,1.4.6-1.14,1.34-5.2,1.2-5.71,2.68-.17.49.78,8.54,1.09,8.86.2.21,4.36-.19,5.8.26,2.94.92,1.08,4.05,5.17,1.47-.29,1.74-.68,2.98-1.15,4.62l-.58.58c-.1.31.11.86,0,1.15l-.58.58c-.41,1.05-.4,2.46-1.05,3.86-.83,1.8-7.07,11.48-8.47,11.15l-12.42-21.94c3.16-1.15,5.5-3.44,9.24-2.89.27-.26-.26-6.34-.69-6.82-.25-.29-6.51-1.72-7.4-1.84Z"/>
        <path class="cls-5" d="M78.82,75.24c1.57,1.53,2.25,2.28,3.79,4.03.75.85,2.25.21,2.56,2.9-1.42,1.29-.92,2.61-1.15,4.04-.11.66-.66,1.11-.63,2.57.07,3.32,2.89,5.43,1.21,8.4-2.49-3.49-2.79-7.31-4.04-10.97,2.46.41,1.41-6.67,1.15-6.93-.08-.08-1.37-.22-1.78.35-.72.98-.56,4.09-.53,5.43.15,6.29,1.72,8.31,4.62,13.28.51.87,1.09,2.42,1.15,3.46-1.22.14-1.68,1.24-2.31,1.73-.21.17-.37.42-.58.58s-.36.42-.58.58c-3.19,2.31-8.93,7.03-12.29,8.21-.92.33-1.72.61-2.72.44l5.74-3.2c1.79-1.89,4.9-3.76,5.95-6.18,1.47-3.38-.55-3.89,5.05-4.48.15-.96-1.41-.63-2.03-.59-3.49.2-9.08,3.08-10.09-1.71.96-.33,2.54-.66,2.89-1.73-2.33-.3-4.82-.73-7.09-1.31-.71-.18-.92-.99-.99-1.01,3.87-2.09,4.58-3.59,4.05-8.08.79-.87,7.08,5.07,8.08,4.04,1.84-1.92-5.91-4.62-5.22-6.61l5.8-7.25Z"/>
        <path class="cls-4" d="M96.72,78.71c-.08.95.12,1.95,0,2.89-.56,4.58-3.06,9.17-3.46,13.86,1.54.32.99-.39,1.43-1.14.94-1.59,2.91-6.39,3.18-8.1l.58.58c-1.3,4.43-2.05,8.19-4.38,12.06-.42.7-1.9,3.23-2.27,3.53-1.36,1.13-2.86.35-4.33.58-.27-.99-1.38-1.26-2.31-1.15-.07-1.04-.65-2.6-1.15-3.46-.06-.55.39-.82.58-1.15,1.68-2.96-1.14-5.08-1.21-8.4-.03-1.47.52-1.91.63-2.57h.58c-.09,2.53-.05,5.13.87,7.51.53,0,.25-6.5.29-7.51.05-1.34-.11-2.72,0-4.04.05-.55.55-.99.58-1.15h1.15c-.15,1.5.1,3.11,0,4.62-.15,2.25-.15,2.33,0,4.62.12,1.71-.09,3.48,0,5.2,1.95-.86.92-3.57,1.15-5.2.03-.2.45-.87.58-1.73.26-1.78.21-3.91.58-5.77.05-.26,1.32-1.28,0-1.73,0-.57-.04-1.16,0-1.73.32-.07,1.06.1,1.15,0,.89,4.76.51,9.61.58,14.44,3.4-3.29,1.57-10.05,2.88-13.86.03-.08,1.09-1.11,1.15-1.15.21-.14.97.14,1.15,0Z"/>
        <path class="cls-4" d="M103.65,113.35c.1.04,1.69,1.06,1.73,1.15.55,1.23.72,7.93.58,9.56-.08.89-.49,1.46-.58,1.99-4.09,2.57-2.23-.56-5.17-1.47-1.44-.45-5.6-.05-5.8-.26-.31-.32-1.26-8.37-1.09-8.86.51-1.48,4.57-1.34,5.71-2.68,1.54.21,2.97-.09,4.62.58Z"/>
        <path class="cls-4" d="M82.28,114.51c.89.12,7.15,1.55,7.4,1.84.43.48.96,6.56.69,6.82-3.74-.55-6.08,1.73-9.24,2.89-.17.06-.41-.06-.58,0-1.04-3.13-1.26-5.36-1.15-8.66.05-1.5.48-2.12.58-2.89.75.07,1.57-.1,2.31,0Z"/>
        <path class="cls-4" d="M96.72,54.45c.62-.19,5-.75,5.19-.57-1,5.43-2.23,3.91-6.09,5.16-2.89.93-4.27,3.34-7.19,3.5,1.57-3.1,4.43-6.93,8.08-8.08Z"/>
        <path class="cls-6" d="M100.76,105.85c2.6-.32,2.93,2.54,4.61,3.77l5.79,4.32c-1.95,0-3.79.86-5.77.58-.04-.09-1.64-1.12-1.73-1.15-.63-2.44-1.69-5.32-2.89-7.51Z"/>
        <path class="cls-2" d="M88.05,77.55c.57,1.26-.51,2.8-.58,3.46h-1.15c.08-.54-.11-1.24,0-1.73.14-.64-.19-1.51.57-2.05.59-.65,1.1.32,1.17.32Z"/>
        <path class="cls-2" d="M85.75,86.21h-1.73c.23-1.43-.27-2.75,1.15-4.04h.58c-.11,1.33.05,2.71,0,4.04Z"/>
        <path class="cls-4" d="M103.65,91.99v.58c-.75.08-1.55-.05-2.31,0,.25-1.12,1.72-1.65,2.31-2.3v1.73Z"/>
        <path class="cls-1" d="M103.65,92.56v-.58h.58c-.06.27-.31.55-.58.58Z"/>
        <path class="cls-4" d="M103.65,131.25l.58-.58c-.07.25-.54.45-.58.58Z"/>
        <path class="cls-4" d="M103.07,132.99l.58-.58c-.16.43-.56.54-.58.58Z"/>
        <path class="cls-2" d="M99.6,82.17c-.45.72-.77,1.36-1.73,1.15-.13-.87-.21-1.45-1.15-1.73.12-.94-.08-1.94,0-2.89.2-.15,1.67-1.63,1.73-1.73,1.94.01,2.7,2.6,2.21,4.23-.2.68-1.04.9-1.06.97Z"/>
        <path class="cls-2" d="M87.48,102.96c-1.95.31-3.96,1.26-5.2,2.89l-.58-.58v-.58c.22-.16.37-.42.58-.58l.58-.58c.63-.49,1.09-1.6,2.31-1.73.93-.1,2.04.17,2.31,1.15Z"/>
        <path class="cls-1" d="M98.45,86.79l-.58-.58c.11-.67.1-2.21,0-2.89.96.2,1.29-.44,1.73-1.15-.41,1.48-.66,2.94-1.15,4.62Z"/>
        <path class="cls-5" d="M95.56,78.13c-.43-1.55-.69-3.83-2.3-4.62-.11,2.29-.23,4.4,1.15,6.35-1.31,3.81.52,10.57-2.88,13.86-.07-4.83.3-9.68-.58-14.44.3-.31-.83-1.57,1.72-.86-.83-.88-.81-2.17-2.3-2.03.14-1.3-.1-2.72,0-4.04,4.57-1.29,8.57,1.26,5.2,5.77Z"/>
        <path class="cls-4" d="M108.84,62.54l-5.77-2.04c2.73-9.38,4.89-4.56,5.77,2.04Z"/>
        <path class="cls-5" d="M89.21,77.55h.58c-.05.57.04,1.16,0,1.73s0,1.16,0,1.73v1.73c-.36,1.87-.32,3.99-.58,5.77l-1.73-2.89c.1-1.51-.15-3.12,0-4.62.07-.66,1.15-2.2.58-3.46.38,0,.77,0,1.15,0Z"/>
        <path class="cls-2" d="M95.56,78.13v.58c-.07.05-1.13,1.08-1.15,1.15-1.38-1.95-1.26-4.06-1.15-6.35,1.61.79,1.87,3.07,2.3,4.62Z"/>
        <path class="cls-2" d="M90.36,72.35c-.1,1.32.14,2.74,0,4.04-.06.54-.57,1.04-.58,1.15h-.58l-.61-4.88c.19-.7,1.26-.18,1.76-.32Z"/>
        <path class="cls-1" d="M80.55,86.21c1.25,3.67,1.55,7.48,4.04,10.97-.19.34-.64.6-.58,1.15-2.9-4.97-4.47-6.99-4.62-13.28.56.21.96.59,1.15,1.15Z"/>
        <path class="cls-2" d="M79.39,85.06c-.03-1.34-.2-4.45.53-5.43.41-.56,1.7-.42,1.78-.35.26.27,1.3,7.35-1.15,6.93-.19-.57-.59-.95-1.15-1.15Z"/>
        <path class="cls-1" d="M82.28,104.11c.21-.16.37-.41.58-.58l-.58.58Z"/>
        <path class="cls-5" d="M97.87,83.33c.1.67.11,2.22,0,2.89-.27,1.71-2.25,6.51-3.18,8.1-.44.75.1,1.46-1.43,1.14.4-4.68,2.9-9.28,3.46-13.86.95.28,1.03.86,1.15,1.73Z"/>
        <path class="cls-1" d="M89.21,88.52c-.13.86-.55,1.53-.58,1.73h-1.15c-.15-2.29-.15-2.37,0-4.62l1.73,2.89Z"/>
        <path class="cls-1" d="M85.75,86.21c-.04,1.01.24,7.52-.29,7.51-.91-2.39-.96-4.98-.87-7.51h1.15Z"/>
        <path class="cls-5" d="M88.63,90.26c-.23,1.63.8,4.34-1.15,5.2-.09-1.72.11-3.48,0-5.2h1.15Z"/>
        <path class="cls-1" d="M90.36,76.4c1.49-.14,1.47,1.15,2.3,2.03-2.55-.71-1.42.55-1.72.86-.1.1-.83-.07-1.15,0,.04-.57-.05-1.16,0-1.73,0-.12.52-.61.58-1.15Z"/>
        <path class="cls-1" d="M89.79,82.75v-1.73c1.32.46.05,1.47,0,1.73Z"/>
      </g>
    </g>
  </g>
</svg>