<?xml version="1.0" encoding="utf-8"?>
<!-- Generator: Adobe Illustrator 25.0.0, SVG Export Plug-In . SVG Version: 6.00 Build 0)  -->
<svg version="1.1" id="Lag_1" xmlns="http://www.w3.org/2000/svg" xmlns:xlink="http://www.w3.org/1999/xlink" x="0px" y="0px"
	 viewBox="0 0 283.5 283.5" style="enable-background:new 0 0 283.5 283.5;" xml:space="preserve">
<style type="text/css">
	.st0{fill:#FFFFFF;}
</style>
<rect x="-0.5" y="0.4" class="st0" width="283.5" height="283.5"/>
<g>
	<g>
		<path d="M84.5,98.5c-0.3,0-0.6-0.1-0.9-0.4c-0.3-0.2-0.4-0.5-0.4-0.8c0-0.6,0.4-0.9,1.2-0.9h2.8c0-5.4-0.2-12.3-0.5-20.6
			c-0.2-6.6-0.4-11.8-0.6-15.6l0.1-3.6V52c0-2.4,0-3.9-0.1-4.5h-2.5c-0.5,0-0.7-0.3-0.7-1c0-0.4,0.2-0.8,0.6-1
			c0.3-0.1,1.2-0.2,2.6-0.2h2c0.7,0,1.6,0.1,2.7,0.1c0.4,0,0.7,0.1,0.9,0.2c0.2,0.2,0.4,0.4,0.4,0.7c0,0.3-0.1,0.5-0.2,0.8
			c-0.1,0.2-0.4,0.4-0.6,0.4c-0.3,0-0.6,0-0.9-0.1h-0.9h-0.7c-0.5,0-0.8,0-0.9,0.1l-0.1,0.3c0,3.7,0.3,11.1,0.9,22.3
			c0.6,10.4,0.9,17.8,0.9,22.3v2c0,0.6-0.1,1.3-0.1,1.9H92c1.1,0,1.6,0.3,1.6,1c0,0.3-0.1,0.6-0.3,0.8c-0.2,0.3-0.4,0.4-0.7,0.4
			h-3.8C87.7,98.5,86.2,98.5,84.5,98.5z"/>
		<path d="M129.5,98v-4.7c0-6.8-0.1-12.1-0.4-16l-0.2-2.6c-0.2-1.2-0.3-2.2-0.3-3.1c0-1.6,0-3.1,0.1-4.4l0.1-4.4
			c0-1.5-0.1-2.6-0.3-3.3c-0.9,0.7-3.8,10.6-8.6,29.8l-0.1,1.1c-0.1,1.2-0.3,2.1-0.6,2.8c-0.1,0.5-0.3,0.9-0.6,1.2s-0.6,0.4-0.9,0.4
			c-0.8,0-1.3-0.2-1.6-0.6c-0.3-0.4-0.5-1-0.5-1.8c0-1.3-0.6-4.6-1.8-9.9c-1.2-5.3-2.5-10.5-3.9-15.4c-1.4-4.9-2.3-7.6-2.9-8.2
			c0,1.7-0.2,5.6-0.6,11.7c-0.7,10.9-1,19.4-1,25.7l0.1,2.8c-0.2,0.6-0.7,0.9-1.5,0.9c-0.1,0-0.4-0.1-0.7-0.4
			c-0.3-0.3-0.5-0.5-0.5-0.6c0-4.3,0.4-11.7,1.1-22.4c0.7-9.9,1.1-17.4,1.1-22.3c0-0.2,0-0.5-0.1-0.7c-0.1-0.3-0.2-0.5-0.2-0.6
			c0-0.7,0.6-1.1,1.8-1.1c0.8,0,1.3,0.4,1.4,1.1c0.2,0.9,0.3,1.7,0.3,2.1l0.1,0.9c0.2,1.2,0.9,3.1,2.1,5.7c0.9,2,1.6,3.8,2.1,5.3
			c0.3,1.1,0.5,2.1,0.8,2.8c0.8,2.7,1.3,4.8,1.5,6.1l0.9,1.8c0.1,0.7,0.4,1.9,0.9,3.5c0.4,1.8,0.7,3.3,0.9,4.4
			c0.2,1.1,0.3,2.2,0.3,3.3c0.5-0.8,2-5.6,4.4-14.5c2.4-8.9,3.9-14.5,4.3-17c0-0.1,0.1-0.2,0.1-0.4c0-0.2,0.1-0.4,0.1-0.7
			c0.1-0.6,0.3-1.5,0.6-2.8c0.4-0.9,0.9-1.4,1.7-1.4c0.3,0,0.7,0.1,1.1,0.4c0.4,0.3,0.6,0.6,0.6,0.9c0,19.7,0.3,30.1,0.9,31.3v3.7
			c0,1.1-0.1,2.3-0.1,3.8c0,3,0.2,5.3,0.5,6.8c0,0,0.1,0.1,0.1,0.2c0,0.1,0.1,0.2,0.1,0.4c0,0.2,0.1,0.4,0.1,0.6
			c0,0.5-0.2,1-0.5,1.6c-0.3,0.5-0.7,0.8-1.1,0.8C130,102.6,129.5,101,129.5,98z M128.6,59.1L128.6,59.1l-0.2,0.1l0.2,0.1V59.1z"/>
		<path d="M155.7,99.3c-0.2-0.2-0.3-0.6-0.4-1.3c-0.4-3.4-0.7-5.6-0.8-6.5l-0.4-2.8c-1-0.2-2.2-0.4-3.5-0.4l-2.6-0.1
			c-1.1-0.1-2-0.2-2.5-0.2c-0.3,0-0.5,0.1-0.5,0.4c0,0.1,0,0.2-0.1,0.2l-0.1,1.4c0,0.9-0.3,2.6-0.8,5.1c-0.2,1.3-0.5,2.3-0.9,3
			c-0.4,0.8-0.7,1.2-1.1,1.2c-0.3,0-0.6-0.1-0.9-0.4c-0.3-0.3-0.5-0.5-0.5-0.8l0.1-0.2l0.1-0.2c0.9-3.4,1.6-6.7,2.1-10l0.9-4.4
			l0.9-5.4l0.8-4.7c0.2-1.3,0.7-3.3,1.3-6.2c0.7-3.2,1.1-5.4,1.2-6.6c0-0.1,0.1-1,0.3-2.6c0.2-1.8,0.4-3.1,0.5-4
			c0.1-1.2,0.3-1.9,0.4-2.1h0.5c0.1,0,0.3,0.1,0.5,0.1c0.6,0,1-0.1,1.3-0.4c0.3,0,0.6,0.1,0.9,0.3c0.3,0.2,0.4,0.5,0.4,0.7
			c0,2.3,0.2,4.9,0.5,7.8c0.2,1.5,0.3,2.8,0.4,3.8c0.5,6.1,1.8,17.5,4,34.3v0.2c0,0.5-0.2,0.8-0.6,1.1
			C156.4,99.5,155.9,99.4,155.7,99.3z M153.8,86.8c-0.5-6.8-1.4-16.8-2.7-30.1l-3.8,18.9c-1.1,5.4-1.6,8.9-1.6,10.3
			c0,0.2,0.9,0.5,2.7,0.6c1.8,0.2,3.4,0.3,4.8,0.3H153.8z"/>
		<path d="M168.8,98.6c-1-0.5-1.8-1.5-2.3-3c-0.5-1.5-0.9-3.9-1.3-7.1c-0.6-4.8-0.9-8.5-0.9-11.1c0-1.6,0.1-3.5,0.3-5.5l0.4-4.5
			c0.2-3.5,0.5-6.2,0.8-8c0.3-1.8,1-3.4,2.1-4.8c1.1-1.4,2.7-2.2,4.9-2.4c0.2,0,0.6-0.1,1.1-0.1c1.5,0,2.2,0.3,2.2,1
			c0,0.3-0.2,0.5-0.5,0.7c-0.3,0.2-0.6,0.3-1,0.3l-0.7-0.1l-0.6-0.1c-0.8,0-1.5,0.3-2.2,0.8c-0.6,0.5-1.2,1.3-1.6,2.3
			c-1,2.4-1.6,4.7-1.9,6.9c-0.4,3-0.6,5.6-0.7,7.8l-0.1,5.5c0,2.3,0.1,4,0.2,5.2c0.3,0.5,0.6,1.3,0.7,2.4c0.1,1.1,0.2,2.5,0.3,4.4
			c0.1,1.7,0.3,3.1,0.6,4.2c0.3,1.2,0.9,2.1,1.8,2.9c0.9,0.8,2.2,1.2,3.9,1.2c1.4,0,2.3-0.8,2.9-2.3c0.7-1.6,1-3.3,1.1-5
			c0.1-2.1,0.2-3.9,0.2-5.4v-3.9c-0.5-0.5-1.3-0.7-2.5-0.7h-0.6c-0.2,0-0.5,0.1-0.8,0.1c-1.1,0-1.7-0.3-1.7-0.9
			c0-0.8,0.6-1.2,1.7-1.2c0.8,0,1.5,0,2,0.1l1.6,0.1c0.9,0.1,1.6,0.3,2.1,0.5c0.6,0.2,0.9,0.5,0.9,0.8c0,0.6-0.1,1.5-0.4,2.6
			c-0.2,1.3-0.4,2.2-0.4,2.7c0,2,0,3.8,0.1,5.4c0,1.7,0.1,3.5,0.1,5.5c-2.4,2.5-4.8,3.7-7.2,3.7C171.5,99.4,169.9,99.1,168.8,98.6z"
			/>
		<path d="M189.3,98.3v-0.9c0-0.2,0.1-0.5,0.1-0.9l-0.3-0.3c0.4-1,0.6-2,0.6-2.9c0-1.1-0.1-2.6-0.2-4.7l-0.1-4.7
			c0-2.4,0.1-5.9,0.2-10.6c0.2-4.2,0.3-7.8,0.3-10.7l-0.1-4.3c-0.1-1.3-0.1-2.7-0.1-4.3c0-0.7,0.2-1.2,0.5-1.5
			c0.3-0.3,0.9-0.5,1.6-0.5c0.5,0,0.9,0.1,1.1,0.4c0.1,0,0.8,0.1,2.1,0.3c1.2,0.1,2.2,0.4,3,0.6c0.9,0.3,1.3,0.6,1.3,1.1
			c0,0.5-0.5,0.9-1.3,1.4c-2.7-0.9-4.6-1.3-5.7-1.3l-0.4,0.4c0,0.4,0.1,1.4,0.1,3c0,2,0,3.9-0.1,5.5c0,1.7-0.1,3.5-0.1,5.5
			c0,1.3,0.3,2,1,2l1.1-0.1c0.4,0,0.8-0.1,1.2-0.1c1.8,0,2.8,0.4,2.8,1.3c0,0.5-0.1,1-0.4,1.3c-0.2,0.4-0.6,0.5-1.1,0.5
			c-0.7,0-1.3-0.2-1.6-0.6l-2.3-0.4H192l-0.4,0.4v0.2c0.1,0.8,0.1,2.7,0.1,5.6c0,1.8,0,3.5-0.1,5l-0.1,5c0,1.8,0.1,3.7,0.2,5.7
			c0,1.1,0.3,1.8,0.7,2.2c0.4,0.4,1.2,0.5,2.3,0.5l1.3-0.1c0.4,0,0.9-0.1,1.4-0.1c1.4,0,2.1,0.3,2.1,0.9c0,0.9-1,1.3-3.1,1.3h-5.8
			C189.8,99.8,189.4,99.3,189.3,98.3z"/>
	</g>
	<g>
		<path d="M119.6,168.1c-0.1-0.6-0.2-1.1-0.2-1.6v-0.6c-0.2-1.9-0.5-3.7-0.8-5.3c-0.4-2.3-0.7-4.1-0.9-5.4c-0.1-1.3-0.4-3.6-0.6-6.9
			c-0.4-5.3-0.8-9.3-1.2-12.1c-0.4-3.5-0.9-5.5-1.3-6l-0.4,3.8c-0.2,2.3-0.4,3.9-0.4,4.8c0,2-0.1,4-0.3,6c-0.2,2-0.5,4.5-1,7.6
			l-0.9,5.9c0,0.1-0.1,0.3-0.1,0.5c0,0.3-0.1,0.6-0.1,1c-0.1,1.3-0.4,3.1-0.8,5.2c-0.1,0.9-0.4,1.7-0.6,2.3
			c-0.2,0.6-0.5,0.9-0.9,0.9c-0.7,0-1.2-1.1-1.6-3.2c-0.3-1.9-0.6-4.9-0.9-9c-0.1-2.6-0.3-4.5-0.4-5.8c-0.1-1.3-0.3-2.8-0.6-4.5
			l-0.3-2.2c-0.4-2.6-0.6-4.4-0.7-5.5c-0.1-1.1-0.2-2.7-0.3-4.7c0-1.6-0.1-3-0.2-4.2c-0.1-1.3-0.3-2.6-0.5-3.9
			c-0.2-1.2-0.5-2.4-0.9-3.8c0.2-0.4,0.6-0.6,1.1-0.6s1,0.5,1.2,1.6c0,0.2,0.1,1.1,0.2,2.8v0.9c0,1,0.6,5.7,1.6,14
			c0.9,7.6,1.5,13.7,1.6,18.5c0.2,0.4,0.3,1.1,0.4,1.9c0.1,0.9,0.2,1.6,0.4,1.9h0.1l1.1-7.4c0-0.7,0.1-1.8,0.4-3.4
			c0.3-2.5,0.6-5,0.9-7.4c0.2-2.9,0.4-5.4,0.4-7.5c0.1-3.4,0.3-5.7,0.5-6.8l0.2-1.8c0.2-1.8,0.3-2.7,0.3-2.6l1.3-0.6
			c0.3,0,0.6,0.1,0.9,0.3c0.2,0.2,0.4,0.4,0.4,0.7c0,0.1-0.1,0.3-0.2,0.6c1.9,6.4,3.2,14,3.8,22.9l0.1,2.6c0,2.1,0.2,3.9,0.5,5.5
			c0.3,1.2,0.5,2.1,0.8,2.7c0.6-1.6,1-5.5,1.4-11.8c0.4-6.2,0.6-11.7,0.6-16.2c0-0.9,0.2-2.7,0.5-5.5c0.3-2.3,0.5-4.2,0.5-5.5
			c0-0.4-0.1-0.8-0.3-1.2c0-0.8,0.5-1.1,1.4-1.1c0.4,0,0.6,0,0.7,0.1c0.1,0.1,0.2,0.3,0.2,0.7c0,1.3-0.1,2.3-0.4,3l0.1,0.4
			c-0.4,2-0.6,4.3-0.6,6.7c0,0.4,0,0.7,0.1,0.8l-0.4,1.4l0.2,0.5c-0.1,0.3-0.2,0.6-0.2,0.9l0.2,1.3l-0.2,0.3c0,1.7-0.2,5.3-0.6,11.1
			c-0.4,5.7-0.7,9.4-0.9,10.9l-0.4,1.9c-0.3,1-0.4,1.8-0.4,2.3c0,1.5-0.1,3-0.2,4.3c0,0.9-0.2,1.8-0.6,2.5c-0.3,0.6-0.7,0.9-1.1,0.9
			C120.1,168.9,119.8,168.6,119.6,168.1z M120.9,160.5L120.9,160.5L120.9,160.5L120.9,160.5z"/>
		<path d="M136.3,165.9c-0.2,0-0.4,0-0.6,0.1h-0.6c-1,0-1.7-0.2-2-0.7c0-0.3,0.2-0.6,0.6-0.9l0.4-0.4h2.1l0.3-0.3l0.1-0.6l0.1-0.9
			c0-2.9-0.1-5.5-0.2-7.7l-0.1-2.6l-0.1-5.2c0-1.8,0.1-4.6,0.2-8.3l0.1-8.2c0-3.6-0.1-6.3-0.4-8.2c-0.4-0.1-1.1-0.2-2.1-0.2
			l-0.8,0.1c-0.3,0-0.6,0.1-0.9,0.1c-0.9,0-1.3-0.4-1.3-1.2c0-0.2,0.2-0.4,0.6-0.6c0.4-0.2,0.8-0.3,1.1-0.3c1.8,0,3.6,0.1,5.4,0.3
			c1.1,0,2.2,0.3,3.3,0.6c0.9,0.3,1.3,0.7,1.3,1.2c0,0.1-0.1,0.3-0.2,0.6l-1.6,0.1c-0.3-0.3-1-0.4-2.1-0.4l-0.4,0.2
			c0.1,0.4,0.2,1.7,0.2,3.8c0,3.1,0,5.9-0.1,8.4l-0.1,8.4c0,2.1,0.1,4.7,0.3,7.7c0.1,3.4,0.2,6,0.2,7.8v0.9c0,0.3-0.1,0.8-0.1,1.3
			c0,1.1,0.1,1.7,0.2,2l-0.1,0.1c0,0.5,0.5,0.7,1.6,0.7c0.4,0,0.8,0,1.1-0.1h1.1c1.4,0,2.1,0.3,2.1,1c0,0.4-0.1,0.8-0.4,1
			c-0.3,0.3-0.7,0.4-1.1,0.4c-0.4,0-0.8,0-1.1-0.1c-0.4,0-0.8-0.1-1.2-0.1c-0.3,0-0.7,0.1-1.3,0.4c-0.6,0.3-1,0.4-1.3,0.4
			C137.1,166.6,136.5,166.3,136.3,165.9z"/>
		<path d="M151.3,165.9c0.1-0.3,0.1-1.1,0.1-2.3c0-4.3,0.1-10.8,0.2-19.4c0.1-8.5,0.2-14.6,0.2-18.4l0.1-2.6l0.2-2.1
			c0-0.3,0.2-0.5,0.5-0.5c0.2,0,0.6,0.1,1,0.2l0.2,0.1c0,1,0,2-0.1,2.8v2.8v7.7c0,2.3,0.1,4.8,0.1,7.7c0,0.2-0.1,0.8-0.1,1.6
			l-0.1,1.5c0,0.9-0.1,1.9-0.1,2.9c0,1.1,0,2.1,0.1,3l0.1,3l-0.2,0.6l0.1-0.1c0,0.1,0,0.2-0.1,0.3v0.3c0,0.4,0.1,0.7,0.2,1l-0.2,6.8
			v0.4c0,0.8,0,1.3,0.1,1.4c0,0.2,0.1,0.4,0.4,0.4l3.7,0.1c1.1,0,1.8,0,2.2,0c0.4,0,0.6,0,0.7,0h0.2c0.2,0,0.5,0.1,0.7,0.4
			c0.2,0.3,0.4,0.5,0.4,0.8c0,0.6-0.4,0.9-1.1,0.9c-0.8,0-2.8-0.1-5.9-0.1l0.1,0.1c-0.5,0-0.9,0-1.3,0.1c-0.4,0.1-0.8,0.1-1.3,0.1
			C151.8,167.5,151.4,167,151.3,165.9z"/>
		<path d="M168.9,165.9c0.1-0.3,0.1-1.1,0.1-2.3c0-4.3,0.1-10.8,0.2-19.4c0.1-8.5,0.2-14.6,0.2-18.4l0.1-2.6l0.2-2.1
			c0-0.3,0.2-0.5,0.5-0.5c0.2,0,0.6,0.1,1,0.2l0.2,0.1c0,1,0,2-0.1,2.8v2.8v7.7c0,2.3,0.1,4.8,0.1,7.7c0,0.2-0.1,0.8-0.1,1.6
			l-0.1,1.5c0,0.9-0.1,1.9-0.1,2.9c0,1.1,0,2.1,0.1,3l0.1,3l-0.2,0.6l0.1-0.1c0,0.1,0,0.2-0.1,0.3v0.3c0,0.4,0.1,0.7,0.2,1l-0.2,6.8
			v0.4c0,0.8,0,1.3,0.1,1.4c0,0.2,0.1,0.4,0.4,0.4l3.7,0.1c1.1,0,1.8,0,2.2,0c0.4,0,0.6,0,0.7,0h0.2c0.2,0,0.5,0.1,0.7,0.4
			c0.2,0.3,0.4,0.5,0.4,0.8c0,0.6-0.4,0.9-1.1,0.9c-0.8,0-2.8-0.1-5.9-0.1l0.1,0.1c-0.5,0-0.9,0-1.3,0.1c-0.4,0.1-0.8,0.1-1.3,0.1
			C169.5,167.5,169.1,167,168.9,165.9z"/>
	</g>
	<g>
		<path d="M79.2,236.6c0.5-4.3,0.7-10,0.7-17.2c0-3.2,0.1-7.9,0.4-14.3c0.3-5.9,0.5-10.7,0.5-14.2c0-0.4,0.2-0.8,0.6-1
			c0.4-0.2,0.9-0.4,1.4-0.4c1.7,0,3.5,0.2,5.5,0.6s3,0.9,3,1.5c0,0.8-0.8,1.2-2.5,1.2c-1-0.5-2.4-0.7-4-0.7l-0.8,0.1
			c-0.1,0-0.3,0.1-0.3,0.2c-0.1,0.1-0.1,0.2-0.2,0.4c-0.1,0.4-0.2,0.6-0.3,0.8c0,2.1-0.1,4.6-0.3,7.5c-0.2,2.8-0.4,5.3-0.4,7.4v2.5
			c0,0.2,0.4,0.3,1.1,0.2c2.4,0,3.6,0.4,3.6,1.1c0,0.4-0.2,0.7-0.5,1c-0.4,0.3-0.7,0.4-1.2,0.4c-0.3,0-0.7-0.1-1.2-0.2
			c-0.5-0.1-0.9-0.2-1.2-0.2c-0.9,0-1.3,1.2-1.3,3.5v8c0,1.1,0.1,2.8,0.2,5c0.1,2.3,0.2,4,0.2,5.1c0,1.9-0.6,2.8-1.7,2.8L79.2,236.6
			z"/>
		<path d="M97.5,211.9v-2.5c0-13.2,1.7-19.8,5.1-19.8c0.2,0,0.6,0.1,1,0.2c1.5,0.5,3,0.9,4.5,1c0.9,0.2,1.8,1.1,2.7,2.8
			c1,1.7,1.7,3.9,2.2,6.7c0.5,2.8,0.7,5.6,0.7,8.6l-0.1,0.4c0,1.6,0,3,0.1,4.2l0.1,4.3c0,2.4-0.1,4.6-0.3,6.5
			c-0.3,2.9-0.8,5.5-1.4,7.6c-0.4,1.3-0.9,2.3-1.4,3.2c-0.5,0.9-1.2,1.6-2,2.1c-0.8,0.6-1.7,0.9-2.8,0.9
			C100.3,238,97.5,229.3,97.5,211.9z M109.6,232c0.9-2.6,1.4-5.3,1.6-8.1c0.2-2.8,0.3-5.1,0.3-6.8c0-1.9-0.1-4.7-0.4-8.4
			c-0.2-4.1-0.4-6.9-0.4-8.4l-0.3-0.6l0.1-0.4c0-2.1-0.6-3.9-1.7-5.4c-1.2-1.5-2.6-2.3-4.2-2.3c-2.2,0-3.5,1-3.9,3.1
			c-0.1,0.7-0.2,1.7-0.3,3c0,3.5-0.1,5.9-0.4,7.2c0,0.7-0.1,1.8-0.2,3.3l-0.1,3.3c0,1,0,2,0.1,2.8l0.1,2.8c0,2.2,0.2,4.8,0.6,7.7
			c0.3,2.1,0.6,3.9,1,5.4c0.4,1.5,0.9,2.7,1.6,3.8c0.7,1.1,1.5,1.7,2.5,1.7C107.3,235.9,108.7,234.6,109.6,232z"/>
		<path d="M123,235.9c0.1-0.3,0.1-1.1,0.1-2.3c0-4.3,0.1-10.8,0.2-19.4c0.1-8.5,0.2-14.6,0.2-18.4l0.1-2.6l0.2-2.1
			c0-0.3,0.2-0.5,0.5-0.5c0.2,0,0.6,0.1,1,0.2l0.2,0.1c0,1,0,2-0.1,2.8v2.8v7.7c0,2.3,0.1,4.8,0.1,7.7c0,0.2-0.1,0.8-0.1,1.6
			l-0.1,1.5c0,0.9-0.1,1.9-0.1,2.9c0,1.1,0,2.1,0.1,3l0.1,3l-0.2,0.6l0.1-0.1c0,0.1,0,0.2-0.1,0.3v0.3c0,0.4,0.1,0.7,0.2,1l-0.2,6.8
			v0.4c0,0.8,0,1.3,0.1,1.4c0,0.2,0.1,0.4,0.4,0.4l3.7,0.1c1.1,0,1.8,0,2.2,0c0.4,0,0.6,0,0.7,0h0.2c0.2,0,0.5,0.1,0.7,0.4
			c0.2,0.3,0.4,0.5,0.4,0.8c0,0.6-0.4,0.9-1.1,0.9c-0.8,0-2.8-0.1-5.9-0.1l0.1,0.1c-0.5,0-0.9,0-1.4,0.1c-0.4,0.1-0.8,0.1-1.3,0.1
			C123.6,237.6,123.2,237,123,235.9z"/>
		<path d="M140.7,235.9c0.1-0.3,0.1-1.1,0.1-2.3c0-4.3,0.1-10.8,0.2-19.4c0.1-8.5,0.2-14.6,0.2-18.4l0.1-2.6l0.2-2.1
			c0-0.3,0.2-0.5,0.5-0.5c0.2,0,0.6,0.1,1,0.2l0.2,0.1c0,1,0,2-0.1,2.8v2.8v7.7c0,2.3,0.1,4.8,0.1,7.7c0,0.2-0.1,0.8-0.1,1.6
			l-0.1,1.5c0,0.9-0.1,1.9-0.1,2.9c0,1.1,0,2.1,0.1,3l0.1,3l-0.2,0.6l0.1-0.1c0,0.1,0,0.2-0.1,0.3v0.3c0,0.4,0.1,0.7,0.2,1l-0.2,6.8
			v0.4c0,0.8,0,1.3,0.1,1.4c0,0.2,0.1,0.4,0.4,0.4l3.7,0.1c1.1,0,1.8,0,2.2,0c0.4,0,0.6,0,0.7,0h0.2c0.2,0,0.5,0.1,0.7,0.4
			s0.4,0.5,0.4,0.8c0,0.6-0.4,0.9-1.1,0.9c-0.8,0-2.8-0.1-5.9-0.1l0.1,0.1c-0.5,0-0.9,0-1.4,0.1c-0.4,0.1-0.8,0.1-1.3,0.1
			C141.2,237.6,140.8,237,140.7,235.9z"/>
		<path d="M157.3,211.9v-2.5c0-13.2,1.7-19.8,5.1-19.8c0.2,0,0.6,0.1,1,0.2c1.5,0.5,3,0.9,4.5,1c0.9,0.2,1.8,1.1,2.7,2.8
			c1,1.7,1.7,3.9,2.2,6.7c0.5,2.8,0.7,5.6,0.7,8.6l-0.1,0.4c0,1.6,0,3,0.1,4.2l0.1,4.3c0,2.4-0.1,4.6-0.3,6.5
			c-0.3,2.9-0.8,5.5-1.4,7.6c-0.4,1.3-0.9,2.3-1.4,3.2c-0.5,0.9-1.2,1.6-2,2.1c-0.8,0.6-1.7,0.9-2.8,0.9
			C160.1,238,157.3,229.3,157.3,211.9z M169.4,232c0.9-2.6,1.4-5.3,1.6-8.1c0.2-2.8,0.3-5.1,0.3-6.8c0-1.9-0.1-4.7-0.4-8.4
			c-0.2-4.1-0.4-6.9-0.4-8.4l-0.3-0.6l0.1-0.4c0-2.1-0.6-3.9-1.7-5.4c-1.2-1.5-2.6-2.3-4.2-2.3c-2.2,0-3.5,1-3.9,3.1
			c-0.1,0.7-0.2,1.7-0.3,3c0,3.5-0.1,5.9-0.4,7.2c0,0.7-0.1,1.8-0.2,3.3l-0.1,3.3c0,1,0,2,0.1,2.8l0.1,2.8c0,2.2,0.2,4.8,0.6,7.7
			c0.3,2.1,0.6,3.9,1,5.4c0.4,1.5,0.9,2.7,1.6,3.8c0.7,1.1,1.5,1.7,2.5,1.7C167.2,235.9,168.6,234.6,169.4,232z"/>
		<path d="M197.1,238.1c-0.1-0.6-0.2-1.1-0.2-1.6v-0.6c-0.2-1.9-0.5-3.7-0.8-5.3c-0.4-2.3-0.7-4.1-0.9-5.4c-0.1-1.3-0.4-3.6-0.6-6.9
			c-0.4-5.3-0.8-9.3-1.2-12.1c-0.4-3.5-0.9-5.5-1.3-6l-0.4,3.8c-0.2,2.3-0.4,3.9-0.4,4.8c0,2-0.1,4-0.3,6c-0.2,2-0.5,4.5-1,7.6
			l-0.9,5.9c0,0.1-0.1,0.3-0.1,0.5c0,0.3-0.1,0.6-0.1,1c-0.1,1.3-0.4,3.1-0.8,5.2c-0.1,0.9-0.4,1.7-0.6,2.3
			c-0.2,0.6-0.5,0.9-0.8,0.9c-0.7,0-1.2-1.1-1.6-3.2c-0.3-1.9-0.6-4.9-0.9-9c-0.1-2.6-0.3-4.5-0.4-5.8s-0.3-2.8-0.6-4.5l-0.3-2.2
			c-0.4-2.6-0.6-4.4-0.7-5.5c-0.1-1.1-0.2-2.7-0.3-4.7c0-1.6-0.1-3-0.2-4.2c-0.1-1.3-0.3-2.6-0.5-3.9c-0.2-1.2-0.5-2.4-0.9-3.8
			c0.2-0.4,0.6-0.6,1.1-0.6s1,0.5,1.2,1.6c0,0.2,0.1,1.1,0.2,2.8v0.9c0,1,0.6,5.7,1.6,14c0.9,7.6,1.5,13.7,1.6,18.5
			c0.2,0.4,0.3,1.1,0.4,1.9c0.1,0.9,0.2,1.6,0.4,1.9h0.1l1.1-7.4c0-0.7,0.1-1.8,0.4-3.4c0.3-2.5,0.6-5,0.9-7.4
			c0.2-2.9,0.4-5.4,0.4-7.5c0.1-3.4,0.3-5.7,0.5-6.8l0.2-1.8c0.2-1.8,0.3-2.7,0.3-2.6l1.3-0.6c0.3,0,0.6,0.1,0.8,0.3
			c0.2,0.2,0.4,0.4,0.4,0.7c0,0.1-0.1,0.3-0.2,0.6c1.9,6.4,3.2,14,3.8,22.9l0.1,2.6c0,2.1,0.2,3.9,0.5,5.5c0.3,1.2,0.5,2.1,0.8,2.7
			c0.6-1.6,1-5.5,1.4-11.8c0.4-6.2,0.6-11.7,0.6-16.2c0-0.9,0.2-2.7,0.5-5.5c0.3-2.3,0.5-4.2,0.5-5.5c0-0.4-0.1-0.8-0.3-1.2
			c0-0.8,0.5-1.1,1.4-1.1c0.4,0,0.6,0,0.7,0.1c0.1,0.1,0.2,0.3,0.2,0.7c0,1.3-0.1,2.3-0.4,3l0.1,0.4c-0.4,2-0.6,4.3-0.6,6.7
			c0,0.4,0,0.7,0.1,0.8l-0.4,1.4l0.2,0.5c-0.1,0.3-0.2,0.6-0.2,0.9l0.2,1.3l-0.2,0.3c0,1.7-0.2,5.3-0.6,11.1
			c-0.4,5.7-0.7,9.4-0.9,10.9l-0.4,1.9c-0.3,1-0.4,1.8-0.4,2.3c0,1.5-0.1,3-0.2,4.3c0,0.9-0.2,1.8-0.6,2.5c-0.3,0.6-0.7,0.9-1.1,0.9
			C197.6,239,197.2,238.7,197.1,238.1z M198.3,230.6L198.3,230.6L198.3,230.6L198.3,230.6z"/>
	</g>
</g>
</svg>
