<svg xmlns="http://www.w3.org/2000/svg" viewBox="0 0 50 50"><defs><style>.cls-1,.cls-3,.cls-4{fill:none;}.cls-2{fill:#edeae5;}.cls-3{stroke:#000;}.cls-3,.cls-4{stroke-miterlimit:10;}.cls-4{stroke:#edeae5;}</style></defs><g id="Lag_2" data-name="Lag 2"><g id="Lag_1-2" data-name="Lag 1"><rect class="cls-1" width="50" height="50"/><path class="cls-2" d="M2.09,8A2.4,2.4,0,0,1,4.48,5.81h14.4A2.41,2.41,0,0,1,21.27,8l1.05,12.63a10.67,10.67,0,0,1-8.24,11.29V39.4h3.6a2.4,2.4,0,0,1,0,4.79h-12a2.4,2.4,0,1,1,0-4.79h3.6V31.93A10.68,10.68,0,0,1,1,20.64L2.09,8Z"/><path class="cls-2" d="M28.73,8a2.41,2.41,0,0,1,2.39-2.19h14.4A2.4,2.4,0,0,1,47.91,8L49,20.63a10.67,10.67,0,0,1-8.24,11.29V39.4h3.6a2.4,2.4,0,1,1,0,4.79h-12a2.4,2.4,0,0,1,0-4.79h3.6V31.93a10.69,10.69,0,0,1-8.24-11.29L28.73,8Z"/><path d="M14.37,21.78a1.25,1.25,0,0,1-.75,1.15,1.26,1.26,0,0,1-1.35-.21L8.06,18.93a1.27,1.27,0,0,1,0-1.87l4.21-3.78a1.26,1.26,0,0,1,1.35-.22,1.25,1.25,0,0,1,.75,1.15Z"/><path d="M35.63,14.21a1.26,1.26,0,0,1,.75-1.15,1.24,1.24,0,0,1,1.35.22l4.21,3.78a1.28,1.28,0,0,1,.41.94,1.24,1.24,0,0,1-.41.93l-4.21,3.79a1.26,1.26,0,0,1-1.35.21,1.25,1.25,0,0,1-.75-1.15Z"/><line class="cls-3" x1="38.54" y1="18.13" x2="27.19" y2="18.13"/><line class="cls-3" x1="22.75" y1="18.13" x2="11.4" y2="18.13"/><line class="cls-4" x1="27.95" y1="18.13" x2="22.27" y2="18.13"/></g></g></svg>