<svg xmlns="http://www.w3.org/2000/svg" viewBox="0 0 50 50"><defs><style>.cls-1{fill:#EDEAE5;}.cls-2{fill:none;}</style></defs><g id="Lag_2" data-name="Lag 2"><g id="Lag_1-2" data-name="Lag 1"><path class="cls-1" d="M6,34.22A4.51,4.51,0,0,0,.9,37.8a4.46,4.46,0,0,0,3.61,5.14,4.47,4.47,0,0,0,5.05-3.62A4.53,4.53,0,0,0,6,34.22Z"/><path class="cls-1" d="M17.16,34.22a4.42,4.42,0,1,0,3.58,5.1A4.54,4.54,0,0,0,17.16,34.22Z"/><path class="cls-1" d="M28.34,34.22a4.51,4.51,0,0,0-5.09,3.58,4.4,4.4,0,1,0,8.66,1.52A4.53,4.53,0,0,0,28.34,34.22Z"/><path class="cls-1" d="M11.68,23a4.52,4.52,0,0,0-5.09,3.58,4.47,4.47,0,0,0,3.61,5.15,4.48,4.48,0,0,0,5.05-3.62A4.55,4.55,0,0,0,11.68,23Z"/><path class="cls-1" d="M22.85,23a4.43,4.43,0,1,0,3.58,5.11A4.56,4.56,0,0,0,22.85,23Z"/><path class="cls-1" d="M34,23a4.52,4.52,0,0,0-5.09,3.58,4.4,4.4,0,1,0,8.66,1.53A4.55,4.55,0,0,0,34,23Z"/><path class="cls-1" d="M17.37,11.87A4.42,4.42,0,1,0,20.94,17,4.54,4.54,0,0,0,17.37,11.87Z"/><path class="cls-1" d="M28.54,11.87a4.42,4.42,0,0,0-1.48,8.72A4.48,4.48,0,0,0,32.12,17,4.54,4.54,0,0,0,28.54,11.87Z"/><path class="cls-1" d="M40.43,16.68a9.63,9.63,0,0,1,7.89,2.65c1.24,1.17,1.12,2-.37,2.81a7.34,7.34,0,0,1-9.76-2,28,28,0,0,1-2.07-3c-2.07-3.38-.86-7.35,2.11-9.76.8-.65,1.63-.4,2.15.58A9.82,9.82,0,0,1,40.43,16.68Z"/><rect class="cls-2" width="50" height="50"/></g></g></svg>