<svg xmlns="http://www.w3.org/2000/svg" viewBox="0 0 50 50"><defs><style>.cls-1{fill:none;}.cls-2{fill:#edeae5;stroke:#edeae5;stroke-miterlimit:10;stroke-width:2px;}</style></defs><g id="Lag_2" data-name="Lag 2"><g id="Lag_1-2" data-name="Lag 1"><rect class="cls-1" width="50" height="50"/><rect class="cls-1" x="1" y="1" width="48" height="48"/><path class="cls-2" d="M45.49,35.14c-.67,1.73-.3,2.34,1.52,2.5.81.07,1,.46.73,1.28-.49,1.33-1.64,2.17-2.45,3.27A4.75,4.75,0,0,1,42.63,44a3.17,3.17,0,0,1-2.8-.33,7.31,7.31,0,0,0-1.21-.54c-1.23-.58-2.61-.55-3.86-1.06-.39-.16-.71.11-1,.37a4.07,4.07,0,0,1-2.52,1.28c-.51,0-.49.36-.52.72-.07,1.07-.16,2.14-.25,3.2-1.64,1.32-3.35,1.1-5.09.24-.4-.2-.81-.4-1.22-.58-1.52-.69-2.88-1.6-4.82-1C17,47,15,45.34,12.9,44.51c-.21-.09-.38-.31-.34-.48.11-.61-.3-.75-.72-.92s-1-.34-1-.91.57-.7.89-1c.65,0,.53-.6.6-.93.62-2.83,1.18-5.67,1.76-8.5a1.11,1.11,0,0,0-.39-1.27c-.63-.47-.64-1-.08-1.57.73-.78.65-1.45-.21-2.15s-1.5-1.23-2.28-1.8a1.19,1.19,0,0,1-.57-1.41c.26-.84.33-1.54-.78-1.77a.41.41,0,0,1-.25-.29c-.06-1-1-1.12-1.63-1.45L5.74,19a2,2,0,0,0-2-.17c-.91.45-1.28-.44-1.61-1s-.13-1,.57-1.29.37-.65,0-1-.92-.63-.66-1.26.83-.52,1.33-.58l1.85-.2a.78.78,0,0,0,.39-.11C7.44,11.9,7.86,12,9.12,14c.09.15.19.28.34.5.79-1.37,1.89-.74,2.94-.48.62.15,1,.18.74-.69-.35-1.15-.63-2.33-.89-3.5-.16-.68-.21-1.36.79-1.41l1.43.19c.33.06.68.22.65.56-.1,1.06.62.94,1.27,1a11.19,11.19,0,0,1,1.74.22.87.87,0,0,0,1.19-.63,3,3,0,0,1,2.14-1.88c.46-.12.89-.36,1.36-.48a1.36,1.36,0,0,0,1-1.23,17.69,17.69,0,0,1,1-3.72c.74-.29,1.48-.56,2.21-.87s1.21-.15,1.37.66.4,1.05,1.17,1c.59-.08.86.37,1,.86a1.2,1.2,0,0,0,1.11,1c1.36.16,2.54.55,2.42,2.33,1.58-.83,1.67-.89,2.55.47a3.29,3.29,0,0,0,2.82,1.4c1.41.14,2.75.36,3.4,1.85.18.42.51.28.8.29,1.07,0,2.14,0,3.22,0s1.34.54.91,1.36c-1.14,2.19-1.16,4.57-1.34,6.94a1.76,1.76,0,0,1-.42,1c-1-.07-1.91.05-2,1.41,0,.26-.32.51-.5.77-.67.92-1.34,1.85-2,2.78-.2.29-.51.56-.24,1,2-1.17,2-1.17,3.11.94.3.57.5,1.06-.09,1.57-.38.32-.08.5.18.7C46,31,46,31.72,44.65,32.7c-.5.36-.39.59-.08,1A2.83,2.83,0,0,1,45.49,35.14Z"/><path d="M5.76,14.4l-2.6.31c1.09.76.86,1.56.61,2.37-.09.29-.86.13-.5.65s.67-.07,1-.08a4.17,4.17,0,0,0,.6-.1C6.45,18.28,8,19,9.55,19.77A1.11,1.11,0,0,0,11,19.63a3.77,3.77,0,0,1,2.84-1.19c.47-.06.81-.33.75-.83-.1-.78.39-1.68-.4-2.33a.43.43,0,0,0-.29-.08,6.91,6.91,0,0,1-2.34-.42,1.22,1.22,0,0,0-1.43.39c-.52.64-1.06.56-1.49-.15-.24-.38-.46-.78-.7-1.15-.46-.69-.93-.69-1.33,0A.94.94,0,0,1,5.76,14.4Z"/><path d="M44.33,37.59c-.63-.59-.16-1.24,0-1.84a1.79,1.79,0,0,0-2.05-2.14c.24.66.37,1.16-.69,1.17a1.84,1.84,0,0,0-1.27.76c-.33.5-1,1-.45,1.81.2.29.77.62.24,1s-1,.64-1.42,0a1.86,1.86,0,0,0-.5-.35,1.3,1.3,0,0,0-1.55.13c-.47.35.15.61.29.9a1,1,0,0,1-.18,1.06,3.55,3.55,0,0,0-.77,1.31c1.91.09,3.48,1.08,5.18,1.7a2.94,2.94,0,0,0,2.8-.78,32.59,32.59,0,0,0,2.39-2.71c.42-.48.64-.86-.21-1.15A15.79,15.79,0,0,1,44.33,37.59Z"/><path d="M33.09,6.82c-.06-.24-.09-.51-.42-.53-1.1-.38-2.54-.18-2.9-1.76-.06-.16-.11-.39-.31-.37-1,.13-1.65-.23-1.79-1.31-.05-.39-.29-.29-.6-.23A2.21,2.21,0,0,0,25.15,5C25,6.17,24,7.39,25.3,8.52c.09.08,0,.34,0,.51,0,.66,0,1.31,0,2,0,.22-.11.63.2.6,1.08-.12,2,.64,3,.51,1.23-.16,2.13,0,2.68,1.24.39-.61.83-1,.7-1.7a.75.75,0,0,1,.49-.83c.22-.1.52-.15.54-.42C33.09,9.21,33.94,8,33.09,6.82Z"/><path d="M39,10.21a3.65,3.65,0,0,1-3.24-2c-.12-.21-.32-.44-.58-.2-.49.46-1.22.61-1.51,1.33s-.18,1.83-1.27,2.17c-.06,0,0,.32,0,.49a1,1,0,0,1-.26.87,3.13,3.13,0,0,0-.61,2.83,4.15,4.15,0,0,0,1.62,2.45,1.5,1.5,0,0,0,1.73.1c.66-.46,2.13,0,2.23.77s.58.71,1.13.78c1,.12,1.3-.66,1.78-1.2a1.6,1.6,0,0,1,2.21-.3,1.81,1.81,0,0,0,.66.27c.41.34,1.21.19,1.34.81s.54.61,1,.56.44-.55.46-.89a14.31,14.31,0,0,1,1.24-6.32c0-.05,0-.13-.06-.29H43.57a1.24,1.24,0,0,1-1.24-.58C41.63,10.47,40.4,10.22,39,10.21Z"/><path d="M12.1,42.1c.69.55,1.71.54,1.58,1.63,0,.09.3.25.48.33.51.23,1,.4,1.52.67a.67.67,0,0,0,1-.27c.2-.31.49-.58.68-.9a2,2,0,0,0,0-2.06c-.72-1.12-.44-2.06.87-2.37.94-.21,1.87-.48,2.82-.62.53-.07.78-.34.75-.78-.1-1.52.87-2.47,1.74-3.5.41-.49.71-1,1.35-.21.28.32.83.13,1.18,0a3.39,3.39,0,0,0,1.37-3.22c-.22-.66-.34-1.23.29-1.77.4-.35.3-.8,0-1.2-.62-.79-1.28-1.47-2.57-1.1a1.5,1.5,0,0,1,1.29-.53c.81,0,1.59-.15,1.85-1.13a1,1,0,0,1,.66-.61c.95-.4,1.06-.89.56-1.83-.7-1.32-1.14-2.65,0-4,.48-.58.18-1.22-.53-1.15-1.15.11-1.81-1.11-2.94-1-.09,0-.21-.17-.29-.27-.59-.77-1.52-1.32-1.47-2.53a3.37,3.37,0,0,1-1.8,1.14c-.27.1-.65.17-.46.63.29.71-.1,1.42.05,2.18a1.66,1.66,0,0,1-1,2c-1.45.45-1.52,1.6-1.63,2.78a1.07,1.07,0,0,0,1.1,1.31,1.15,1.15,0,0,1,1.11.74c.24.49.52,1,.79,1.45.55,1,1,1.08,2,.43.12.49,0,.89-.51.92a1.58,1.58,0,0,1-1.76-.76c-.58-1-.75-2.46-2.4-2.45-.15,0-.29-.28-.44-.42s-.24-.32-.42-.17c-.43.37-.82.18-1.23,0s-.78.12-1.12.32-.05.57,0,.8a2.36,2.36,0,0,1,.16,1c-.06,1.92.45,2.05-1.79,1.85-.14.17,0,.33,0,.47.37.88-.72,1.31-.68,1.86s.92,1,.72,1.89c-.68,3.06-1.29,6.14-1.91,9.22C13.07,41.38,12.88,41.92,12.1,42.1Z"/><path d="M28,47.62a1.5,1.5,0,0,0,1.68-1.52,18.54,18.54,0,0,0,0-2c-.07-.8.32-1.13,1-1.31a4.56,4.56,0,0,0,1.67-.51c.83-.58,1.45-1.71,2.76-1.17a.2.2,0,0,0,.18-.06c.42-.57,1.31-1.19,1-1.75s-.34-1.88-1.7-1.58c-.9.2-1.33-.34-1.44-1.2a5.86,5.86,0,0,0-.21-.9,1.86,1.86,0,0,0-2.66-.83c-.48.45-.89.5-1.31,0s-.54-.28-.67.15a5.94,5.94,0,0,1-.26.78,1,1,0,0,1-1.13.56.68.68,0,0,1-.64-.7c0-.82-.25-1.26-1.17-.9-.25.1-.47-.11-.6-.32s-.29-.21-.44,0c-.77,1-1.88,1.87-1.77,3.4.05.67-.26,1.12-1.08,1.22a23.27,23.27,0,0,0-2.92.68c-.86.22-1.05.79-.5,1.47a1.3,1.3,0,0,1,.2.67,2.86,2.86,0,0,1-.85,2.83c-.21.2-.64.6,0,.72a4.08,4.08,0,0,0,3-.31,1.13,1.13,0,0,1,1.3-.12c1.42.7,2.86,1.37,4.28,2.08A9.36,9.36,0,0,0,28,47.62Z"/><path d="M41.92,34.24c-.49-1.24-.48-1.2.73-1.41a2.83,2.83,0,0,0,1.92-1.4c.28-.51-.61-.79-1-1.15s-.57-.89-.11-1.34c.79-.76,0-1.31-.33-1.78s-.71.12-1,.3c-.68.42-1.24.74-1.87-.1a.92.92,0,0,0-1.05-.27c-.66.42-.93,0-1.27-.43s-.57-.73-.79-.36c-.53.88-1.07,1.56-2.23,1.3-.06,0-.17.1-.24.18-.57.63-1.17.16-1.72,0s-.4-.64-.38-1.05-.87-1.69-1.09-1.55c-.56.38-.95.07-1.41-.21a.85.85,0,0,0-1.38.48c-.13.33-.24.68-.6.78-1,.29-.5.68-.11,1.08a1.33,1.33,0,0,1,.11,2.09.72.72,0,0,0-.22.92,2.45,2.45,0,0,1-.67,3.15,1.85,1.85,0,0,0-.44,1.8c0,.21,0,.44.3.47s.5,0,.6-.28.1-.4.17-.6c.33-1,.83-1.14,1.55-.43.3.29.37.2.62,0a2.36,2.36,0,0,1,3.47,1.09c.23,1,.34,2.1,1.85,1.74a.61.61,0,0,1,.39.13c.69.42,1.31-.12,2-.14s1.09,1,1.93.75c-.11-.5-.79-.69-.65-1.26A3.6,3.6,0,0,1,41.92,34.24Z"/><path d="M40.25,26.73c.18-1.43,1.25-2.36,2-3.42a9.55,9.55,0,0,0,1.51-3.13c.13-.48,0-.7-.49-.94-1.47-.76-2.7-1.09-3.82.64-.59.92-2.36.45-2.76-.54a1.15,1.15,0,0,0-1.35-.83c-1.79.6-2.39.47-3.4-1l-.64-.95a.87.87,0,0,0-1.28-.17c-.36.22-.38.66,0,1.05A1,1,0,0,1,30,18.91,2.62,2.62,0,0,0,29.79,22a3.26,3.26,0,0,1,.48,2.05c-.1.65.35.93.84.75s1.15-.47,1.27.46c.08.59,1.08.67.76,1.45-.1.25-.25.57.16.67s.7.42,1.05,0a1.07,1.07,0,0,1,1-.42c.62.17.83-.15,1.09-.6.53-.92,1.1-.94,1.84-.14.15.17.23.58.57.39C39.36,26.36,39.78,26.7,40.25,26.73Z"/><path d="M15.1,17c.06.71.08,1.73-1,1.84a6.82,6.82,0,0,0-3.38,1.48c-.16.12-.41.11-.41.39s.18.43.43.49c1,.22,1.14.81.87,1.71-.14.44-.42,1,.18,1.4,1,.72,1.88,1.52,2.82,2.28a1.8,1.8,0,0,0,1.58.23c.31-.07.1-.68.14-1a2.23,2.23,0,0,0-.25-1.31c-.18-.34-.37-.76,0-1s.87-.81,1.55-.63c1.18.31,1.31.23,1.39-1,.08-1.09.28-2,1.5-2.45a1.49,1.49,0,0,0,1-1.95c-.34-.73-1.26-1.19-2-1.75-.06,0-.25.11-.38.12s-.52.07-.59,0c-.62-.9-1.44-.39-2.17-.35C15.1,15.46,15.1,15.48,15.1,17Z"/><path d="M24.86,10.19a8.67,8.67,0,0,0,0-1.35c-.08-.49-.4-1-.93-.8-1.53.63-3.44.74-4.07,2.75a1,1,0,0,1-1.24.66c-1.09-.15-2.19-.32-3.29-.41-.65-.06-1.09-.24-1-1s-.41-.56-.75-.54c-.58,0-.25.47-.2.7.3,1.34.71,2.66.95,4,.13.71.43.77,1.05.77,1.21,0,2.49-.83,3.64.23.06.06.26,0,.39-.06.63-.14,1.08,0,1.25.69.07.32.24.56.67.36s.49-.28.32-.68a.81.81,0,0,1,.56-1.15A3.86,3.86,0,0,0,24.86,10.19Z"/><path d="M31,14.82c0-1.69-.71-2.38-2.27-2.15a2.1,2.1,0,0,1-1.29-.26,3.81,3.81,0,0,0-1.82-.3.83.83,0,0,0-.89.82,4,4,0,0,0,.63,2.12c.76,1,2.05,1,3,1.77a.68.68,0,0,0,1.07-.43.7.7,0,0,1,.74-.59C31,15.87,31.07,15.38,31,14.82Z"/></g></g></svg>